<?xml version="1.0" encoding="utf-8" standalone="no"?>
<!DOCTYPE svg PUBLIC "-//W3C//DTD SVG 1.1//EN"
  "http://www.w3.org/Graphics/SVG/1.1/DTD/svg11.dtd">
<svg xmlns:xlink="http://www.w3.org/1999/xlink" width="460.8pt" height="345.6pt" viewBox="0 0 460.8 345.6" xmlns="http://www.w3.org/2000/svg" version="1.1">
 <metadata>
  <rdf:RDF xmlns:dc="http://purl.org/dc/elements/1.1/" xmlns:cc="http://creativecommons.org/ns#" xmlns:rdf="http://www.w3.org/1999/02/22-rdf-syntax-ns#">
   <cc:Work>
    <dc:type rdf:resource="http://purl.org/dc/dcmitype/StillImage"/>
    <dc:date>2025-09-01T17:22:52.823915</dc:date>
    <dc:format>image/svg+xml</dc:format>
    <dc:creator>
     <cc:Agent>
      <dc:title>Matplotlib v3.10.5, https://matplotlib.org/</dc:title>
     </cc:Agent>
    </dc:creator>
   </cc:Work>
  </rdf:RDF>
 </metadata>
 <defs>
  <style type="text/css">*{stroke-linejoin: round; stroke-linecap: butt}</style>
 </defs>
 <g id="figure_1">
  <g id="patch_1">
   <path d="M 0 345.6 
L 460.8 345.6 
L 460.8 0 
L 0 0 
L 0 345.6 
z
" style="fill: none"/>
  </g>
  <g id="axes_1">
   <g id="patch_2">
    <path d="M 57.6 307.584 
L 414.72 307.584 
L 414.72 41.472 
L 57.6 41.472 
L 57.6 307.584 
z
" style="fill: none"/>
   </g>
   <g id="FillBetweenPolyCollection_1">
    <defs>
     <path id="mc57f855dd2" d="M 73.832727 -50.112 
L 73.832727 -50.112 
L 74.157707 -50.112 
L 74.482686 -50.112 
L 74.807666 -50.112 
L 75.132645 -50.112 
L 75.457625 -50.112 
L 75.782604 -50.112 
L 76.107584 -50.112 
L 76.432563 -50.112 
L 76.757543 -50.112 
L 77.082523 -50.112 
L 77.407502 -50.112 
L 77.732482 -50.112 
L 78.057461 -50.112 
L 78.382441 -50.112 
L 78.70742 -50.112 
L 79.0324 -50.112 
L 79.357379 -50.112 
L 79.682359 -50.112 
L 80.007338 -50.112 
L 80.332318 -50.112 
L 80.657297 -50.112 
L 80.982277 -50.112 
L 81.307256 -50.112 
L 81.632236 -50.112 
L 81.957215 -50.112 
L 82.282195 -50.112 
L 82.607174 -50.112 
L 82.932154 -50.112001 
L 83.257133 -50.112001 
L 83.582113 -50.112002 
L 83.907093 -50.112003 
L 84.232072 -50.112004 
L 84.557052 -50.112006 
L 84.882031 -50.112008 
L 85.207011 -50.112012 
L 85.53199 -50.112016 
L 85.85697 -50.112023 
L 86.181949 -50.112032 
L 86.506929 -50.112043 
L 86.831908 -50.112059 
L 87.156888 -50.112079 
L 87.481867 -50.112105 
L 87.806847 -50.112139 
L 88.131826 -50.112183 
L 88.456806 -50.112238 
L 88.781785 -50.112308 
L 89.106765 -50.112396 
L 89.431744 -50.112505 
L 89.756724 -50.112642 
L 90.081704 -50.11281 
L 90.406683 -50.113016 
L 90.731663 -50.113269 
L 91.056642 -50.113576 
L 91.381622 -50.113947 
L 91.706601 -50.114395 
L 92.031581 -50.114931 
L 92.35656 -50.115572 
L 92.68154 -50.116335 
L 93.006519 -50.117238 
L 93.331499 -50.118304 
L 93.656478 -50.119557 
L 93.981458 -50.121026 
L 94.306437 -50.122741 
L 94.631417 -50.124737 
L 94.956396 -50.127052 
L 95.281376 -50.129729 
L 95.606355 -50.132815 
L 95.931335 -50.136362 
L 96.256314 -50.140428 
L 96.581294 -50.145074 
L 96.906274 -50.15037 
L 97.231253 -50.156391 
L 97.556233 -50.163218 
L 97.881212 -50.170941 
L 98.206192 -50.179654 
L 98.531171 -50.189462 
L 98.856151 -50.200477 
L 99.18113 -50.21282 
L 99.50611 -50.226622 
L 99.831089 -50.24202 
L 100.156069 -50.259165 
L 100.481048 -50.278216 
L 100.806028 -50.299342 
L 101.131007 -50.322725 
L 101.455987 -50.348556 
L 101.780966 -50.37704 
L 102.105946 -50.408392 
L 102.430925 -50.442839 
L 102.755905 -50.480624 
L 103.080885 -50.521998 
L 103.405864 -50.567229 
L 103.730844 -50.616596 
L 104.055823 -50.670391 
L 104.380803 -50.728923 
L 104.705782 -50.792511 
L 105.030762 -50.861489 
L 105.355741 -50.936206 
L 105.680721 -51.017024 
L 106.0057 -51.104319 
L 106.33068 -51.198481 
L 106.655659 -51.299914 
L 106.980639 -51.409035 
L 107.305618 -51.526275 
L 107.630598 -51.65208 
L 107.955577 -51.786905 
L 108.280557 -51.931222 
L 108.605536 -52.085513 
L 108.930516 -52.250273 
L 109.255495 -52.426009 
L 109.580475 -52.613239 
L 109.905455 -52.812492 
L 110.230434 -53.024306 
L 110.555414 -53.249231 
L 110.880393 -53.487823 
L 111.205373 -53.74065 
L 111.530352 -54.008285 
L 111.855332 -54.291309 
L 112.180311 -54.590309 
L 112.505291 -54.905878 
L 112.83027 -55.238612 
L 113.15525 -55.589114 
L 113.480229 -55.957985 
L 113.805209 -56.345834 
L 114.130188 -56.753264 
L 114.455168 -57.180885 
L 114.780147 -57.6293 
L 115.105127 -58.099114 
L 115.430106 -58.590927 
L 115.755086 -59.105336 
L 116.080066 -59.642932 
L 116.405045 -60.204299 
L 116.730025 -60.790015 
L 117.055004 -61.40065 
L 117.379984 -62.036763 
L 117.704963 -62.698903 
L 118.029943 -63.387607 
L 118.354922 -64.103399 
L 118.679902 -64.84679 
L 119.004881 -65.618275 
L 119.329861 -66.418333 
L 119.65484 -67.247427 
L 119.97982 -68.106 
L 120.304799 -68.994477 
L 120.629779 -69.913262 
L 120.954758 -70.862738 
L 121.279738 -71.843266 
L 121.604717 -72.855185 
L 121.929697 -73.898807 
L 122.254676 -74.974422 
L 122.579656 -76.082292 
L 122.904636 -77.222655 
L 123.229615 -78.395719 
L 123.554595 -79.601666 
L 123.879574 -80.840648 
L 124.204554 -82.112788 
L 124.529533 -83.41818 
L 124.854513 -84.756884 
L 125.179492 -86.128934 
L 125.504472 -87.534328 
L 125.829451 -88.973035 
L 126.154431 -90.444989 
L 126.47941 -91.950093 
L 126.80439 -93.488218 
L 127.129369 -95.059199 
L 127.454349 -96.66284 
L 127.779328 -98.298909 
L 128.104308 -99.967144 
L 128.104308 -50.112 
L 128.104308 -50.112 
L 127.779328 -50.112 
L 127.454349 -50.112 
L 127.129369 -50.112 
L 126.80439 -50.112 
L 126.47941 -50.112 
L 126.154431 -50.112 
L 125.829451 -50.112 
L 125.504472 -50.112 
L 125.179492 -50.112 
L 124.854513 -50.112 
L 124.529533 -50.112 
L 124.204554 -50.112 
L 123.879574 -50.112 
L 123.554595 -50.112 
L 123.229615 -50.112 
L 122.904636 -50.112 
L 122.579656 -50.112 
L 122.254676 -50.112 
L 121.929697 -50.112 
L 121.604717 -50.112 
L 121.279738 -50.112 
L 120.954758 -50.112 
L 120.629779 -50.112 
L 120.304799 -50.112 
L 119.97982 -50.112 
L 119.65484 -50.112 
L 119.329861 -50.112 
L 119.004881 -50.112 
L 118.679902 -50.112 
L 118.354922 -50.112 
L 118.029943 -50.112 
L 117.704963 -50.112 
L 117.379984 -50.112 
L 117.055004 -50.112 
L 116.730025 -50.112 
L 116.405045 -50.112 
L 116.080066 -50.112 
L 115.755086 -50.112 
L 115.430106 -50.112 
L 115.105127 -50.112 
L 114.780147 -50.112 
L 114.455168 -50.112 
L 114.130188 -50.112 
L 113.805209 -50.112 
L 113.480229 -50.112 
L 113.15525 -50.112 
L 112.83027 -50.112 
L 112.505291 -50.112 
L 112.180311 -50.112 
L 111.855332 -50.112 
L 111.530352 -50.112 
L 111.205373 -50.112 
L 110.880393 -50.112 
L 110.555414 -50.112 
L 110.230434 -50.112 
L 109.905455 -50.112 
L 109.580475 -50.112 
L 109.255495 -50.112 
L 108.930516 -50.112 
L 108.605536 -50.112 
L 108.280557 -50.112 
L 107.955577 -50.112 
L 107.630598 -50.112 
L 107.305618 -50.112 
L 106.980639 -50.112 
L 106.655659 -50.112 
L 106.33068 -50.112 
L 106.0057 -50.112 
L 105.680721 -50.112 
L 105.355741 -50.112 
L 105.030762 -50.112 
L 104.705782 -50.112 
L 104.380803 -50.112 
L 104.055823 -50.112 
L 103.730844 -50.112 
L 103.405864 -50.112 
L 103.080885 -50.112 
L 102.755905 -50.112 
L 102.430925 -50.112 
L 102.105946 -50.112 
L 101.780966 -50.112 
L 101.455987 -50.112 
L 101.131007 -50.112 
L 100.806028 -50.112 
L 100.481048 -50.112 
L 100.156069 -50.112 
L 99.831089 -50.112 
L 99.50611 -50.112 
L 99.18113 -50.112 
L 98.856151 -50.112 
L 98.531171 -50.112 
L 98.206192 -50.112 
L 97.881212 -50.112 
L 97.556233 -50.112 
L 97.231253 -50.112 
L 96.906274 -50.112 
L 96.581294 -50.112 
L 96.256314 -50.112 
L 95.931335 -50.112 
L 95.606355 -50.112 
L 95.281376 -50.112 
L 94.956396 -50.112 
L 94.631417 -50.112 
L 94.306437 -50.112 
L 93.981458 -50.112 
L 93.656478 -50.112 
L 93.331499 -50.112 
L 93.006519 -50.112 
L 92.68154 -50.112 
L 92.35656 -50.112 
L 92.031581 -50.112 
L 91.706601 -50.112 
L 91.381622 -50.112 
L 91.056642 -50.112 
L 90.731663 -50.112 
L 90.406683 -50.112 
L 90.081704 -50.112 
L 89.756724 -50.112 
L 89.431744 -50.112 
L 89.106765 -50.112 
L 88.781785 -50.112 
L 88.456806 -50.112 
L 88.131826 -50.112 
L 87.806847 -50.112 
L 87.481867 -50.112 
L 87.156888 -50.112 
L 86.831908 -50.112 
L 86.506929 -50.112 
L 86.181949 -50.112 
L 85.85697 -50.112 
L 85.53199 -50.112 
L 85.207011 -50.112 
L 84.882031 -50.112 
L 84.557052 -50.112 
L 84.232072 -50.112 
L 83.907093 -50.112 
L 83.582113 -50.112 
L 83.257133 -50.112 
L 82.932154 -50.112 
L 82.607174 -50.112 
L 82.282195 -50.112 
L 81.957215 -50.112 
L 81.632236 -50.112 
L 81.307256 -50.112 
L 80.982277 -50.112 
L 80.657297 -50.112 
L 80.332318 -50.112 
L 80.007338 -50.112 
L 79.682359 -50.112 
L 79.357379 -50.112 
L 79.0324 -50.112 
L 78.70742 -50.112 
L 78.382441 -50.112 
L 78.057461 -50.112 
L 77.732482 -50.112 
L 77.407502 -50.112 
L 77.082523 -50.112 
L 76.757543 -50.112 
L 76.432563 -50.112 
L 76.107584 -50.112 
L 75.782604 -50.112 
L 75.457625 -50.112 
L 75.132645 -50.112 
L 74.807666 -50.112 
L 74.482686 -50.112 
L 74.157707 -50.112 
L 73.832727 -50.112 
z
" style="stroke: #0000ff"/>
    </defs>
    <g clip-path="url(#pa6fa2ebbd5)">
     <use xlink:href="#mc57f855dd2" x="0" y="345.6" style="fill: #0000ff; stroke: #0000ff"/>
    </g>
   </g>
   <g id="FillBetweenPolyCollection_2">
    <defs>
     <path id="m8b8873caf6" d="M 226.573104 -50.112 
L 226.573104 -75.399264 
L 226.898084 -74.891245 
L 227.223063 -74.3919 
L 227.548043 -73.901122 
L 227.873022 -73.418807 
L 228.198002 -72.944847 
L 228.522981 -72.479137 
L 228.847961 -72.021573 
L 229.17294 -71.572048 
L 229.49792 -71.130459 
L 229.822899 -70.6967 
L 230.147879 -70.270668 
L 230.472858 -69.852259 
L 230.797838 -69.441369 
L 231.122817 -69.037896 
L 231.447797 -68.641737 
L 231.772776 -68.252791 
L 232.097756 -67.870957 
L 232.422735 -67.496133 
L 232.747715 -67.128221 
L 233.072695 -66.767119 
L 233.397674 -66.41273 
L 233.722654 -66.064955 
L 234.047633 -65.723697 
L 234.372613 -65.388859 
L 234.697592 -65.060345 
L 235.022572 -64.738059 
L 235.347551 -64.421908 
L 235.672531 -64.111797 
L 235.99751 -63.807633 
L 236.32249 -63.509324 
L 236.647469 -63.216779 
L 236.972449 -62.929907 
L 237.297428 -62.648619 
L 237.622408 -62.372825 
L 237.947387 -62.102437 
L 238.272367 -61.837368 
L 238.597346 -61.577532 
L 238.922326 -61.322844 
L 239.247305 -61.073218 
L 239.572285 -60.828572 
L 239.897265 -60.588822 
L 240.222244 -60.353886 
L 240.547224 -60.123684 
L 240.872203 -59.898136 
L 241.197183 -59.677162 
L 241.522162 -59.460684 
L 241.847142 -59.248625 
L 242.172121 -59.040908 
L 242.497101 -58.837459 
L 242.82208 -58.638202 
L 243.14706 -58.443064 
L 243.472039 -58.251972 
L 243.797019 -58.064855 
L 244.121998 -57.881641 
L 244.446978 -57.702262 
L 244.771957 -57.526647 
L 245.096937 -57.354728 
L 245.421916 -57.186439 
L 245.746896 -57.021714 
L 246.071876 -56.860486 
L 246.396855 -56.702692 
L 246.721835 -56.548268 
L 247.046814 -56.397151 
L 247.371794 -56.24928 
L 247.696773 -56.104594 
L 248.021753 -55.963032 
L 248.346732 -55.824536 
L 248.671712 -55.689048 
L 248.996691 -55.55651 
L 249.321671 -55.426865 
L 249.64665 -55.300058 
L 249.97163 -55.176035 
L 250.296609 -55.054741 
L 250.621589 -54.936123 
L 250.946568 -54.820129 
L 251.271548 -54.706707 
L 251.596527 -54.595807 
L 251.921507 -54.487379 
L 252.246486 -54.381375 
L 252.571466 -54.277745 
L 252.896446 -54.176442 
L 253.221425 -54.07742 
L 253.546405 -53.980632 
L 253.871384 -53.886034 
L 254.196364 -53.793582 
L 254.521343 -53.703231 
L 254.846323 -53.614938 
L 255.171302 -53.528663 
L 255.496282 -53.444362 
L 255.821261 -53.361995 
L 256.146241 -53.281524 
L 256.47122 -53.202907 
L 256.7962 -53.126106 
L 257.121179 -53.051084 
L 257.446159 -52.977803 
L 257.771138 -52.906227 
L 258.096118 -52.836319 
L 258.421097 -52.768045 
L 258.746077 -52.701369 
L 259.071057 -52.636258 
L 259.396036 -52.572678 
L 259.721016 -52.510597 
L 260.045995 -52.449982 
L 260.370975 -52.390801 
L 260.695954 -52.333024 
L 261.020934 -52.276621 
L 261.345913 -52.22156 
L 261.670893 -52.167814 
L 261.995872 -52.115353 
L 262.320852 -52.06415 
L 262.645831 -52.014175 
L 262.970811 -51.965404 
L 263.29579 -51.917808 
L 263.62077 -51.871362 
L 263.945749 -51.82604 
L 264.270729 -51.781818 
L 264.595708 -51.73867 
L 264.920688 -51.696572 
L 265.245667 -51.655502 
L 265.570647 -51.615435 
L 265.895627 -51.57635 
L 266.220606 -51.538223 
L 266.545586 -51.501034 
L 266.870565 -51.464761 
L 267.195545 -51.429382 
L 267.520524 -51.394878 
L 267.845504 -51.361229 
L 268.170483 -51.328414 
L 268.495463 -51.296415 
L 268.820442 -51.265213 
L 269.145422 -51.234789 
L 269.470401 -51.205125 
L 269.795381 -51.176204 
L 270.12036 -51.148008 
L 270.44534 -51.120521 
L 270.770319 -51.093725 
L 271.095299 -51.067605 
L 271.420278 -51.042144 
L 271.745258 -51.017328 
L 272.070238 -50.99314 
L 272.395217 -50.969567 
L 272.720197 -50.946592 
L 273.045176 -50.924203 
L 273.370156 -50.902385 
L 273.695135 -50.881125 
L 274.020115 -50.860408 
L 274.345094 -50.840223 
L 274.670074 -50.820556 
L 274.995053 -50.801395 
L 275.320033 -50.782728 
L 275.645012 -50.764542 
L 275.969992 -50.746827 
L 276.294971 -50.72957 
L 276.619951 -50.71276 
L 276.94493 -50.696387 
L 277.26991 -50.68044 
L 277.594889 -50.664908 
L 277.919869 -50.649782 
L 278.244848 -50.635051 
L 278.569828 -50.620705 
L 278.894808 -50.606735 
L 279.219787 -50.593132 
L 279.544767 -50.579887 
L 279.869746 -50.56699 
L 280.194726 -50.554433 
L 280.519705 -50.542209 
L 280.844685 -50.530307 
L 281.169664 -50.51872 
L 281.494644 -50.507441 
L 281.819623 -50.496462 
L 282.144603 -50.485774 
L 282.469582 -50.475372 
L 282.794562 -50.465246 
L 283.119541 -50.455392 
L 283.444521 -50.445801 
L 283.7695 -50.436467 
L 284.09448 -50.427383 
L 284.419459 -50.418543 
L 284.744439 -50.409942 
L 285.069419 -50.401572 
L 285.394398 -50.393427 
L 285.719378 -50.385503 
L 286.044357 -50.377793 
L 286.369337 -50.370292 
L 286.694316 -50.362995 
L 287.019296 -50.355896 
L 287.344275 -50.348989 
L 287.669255 -50.342271 
L 287.994234 -50.335736 
L 288.319214 -50.32938 
L 288.644193 -50.323197 
L 288.969173 -50.317184 
L 289.294152 -50.311335 
L 289.619132 -50.305647 
L 289.944111 -50.300116 
L 290.269091 -50.294736 
L 290.59407 -50.289505 
L 290.91905 -50.284418 
L 291.244029 -50.279472 
L 291.569009 -50.274662 
L 291.893989 -50.269986 
L 292.218968 -50.265439 
L 292.543948 -50.261019 
L 292.868927 -50.256721 
L 293.193907 -50.252543 
L 293.518886 -50.248482 
L 293.843866 -50.244534 
L 294.168845 -50.240696 
L 294.493825 -50.236965 
L 294.818804 -50.233339 
L 295.143784 -50.229814 
L 295.468763 -50.226389 
L 295.793743 -50.223059 
L 296.118722 -50.219824 
L 296.443702 -50.216679 
L 296.768681 -50.213623 
L 297.093661 -50.210654 
L 297.41864 -50.207768 
L 297.74362 -50.204964 
L 298.0686 -50.20224 
L 298.393579 -50.199592 
L 298.718559 -50.19702 
L 299.043538 -50.194521 
L 299.368518 -50.192093 
L 299.693497 -50.189735 
L 300.018477 -50.187443 
L 300.343456 -50.185217 
L 300.668436 -50.183055 
L 300.993415 -50.180955 
L 301.318395 -50.178914 
L 301.643374 -50.176932 
L 301.968354 -50.175008 
L 302.293333 -50.173138 
L 302.618313 -50.171322 
L 302.943292 -50.169559 
L 303.268272 -50.167846 
L 303.593251 -50.166183 
L 303.918231 -50.164568 
L 304.24321 -50.162999 
L 304.56819 -50.161476 
L 304.89317 -50.159998 
L 305.218149 -50.158562 
L 305.543129 -50.157167 
L 305.868108 -50.155814 
L 306.193088 -50.154499 
L 306.518067 -50.153223 
L 306.843047 -50.151985 
L 307.168026 -50.150782 
L 307.493006 -50.149615 
L 307.817985 -50.148481 
L 308.142965 -50.147381 
L 308.467944 -50.146313 
L 308.792924 -50.145277 
L 309.117903 -50.144271 
L 309.442883 -50.143294 
L 309.767862 -50.142347 
L 310.092842 -50.141427 
L 310.417821 -50.140534 
L 310.742801 -50.139668 
L 311.067781 -50.138827 
L 311.39276 -50.138011 
L 311.71774 -50.137219 
L 312.042719 -50.136451 
L 312.367699 -50.135706 
L 312.692678 -50.134982 
L 313.017658 -50.13428 
L 313.342637 -50.133599 
L 313.667617 -50.132939 
L 313.992596 -50.132298 
L 314.317576 -50.131676 
L 314.642555 -50.131072 
L 314.967535 -50.130487 
L 315.292514 -50.129919 
L 315.617494 -50.129369 
L 315.942473 -50.128834 
L 316.267453 -50.128316 
L 316.592432 -50.127813 
L 316.917412 -50.127326 
L 317.242391 -50.126853 
L 317.567371 -50.126394 
L 317.892351 -50.125949 
L 318.21733 -50.125518 
L 318.54231 -50.125099 
L 318.867289 -50.124693 
L 319.192269 -50.1243 
L 319.517248 -50.123918 
L 319.842228 -50.123548 
L 320.167207 -50.123189 
L 320.492187 -50.122841 
L 320.817166 -50.122504 
L 321.142146 -50.122177 
L 321.467125 -50.12186 
L 321.792105 -50.121552 
L 322.117084 -50.121254 
L 322.442064 -50.120965 
L 322.767043 -50.120684 
L 323.092023 -50.120413 
L 323.417002 -50.120149 
L 323.741982 -50.119894 
L 324.066962 -50.119647 
L 324.391941 -50.119407 
L 324.716921 -50.119174 
L 325.0419 -50.118949 
L 325.36688 -50.11873 
L 325.691859 -50.118518 
L 326.016839 -50.118313 
L 326.341818 -50.118114 
L 326.666798 -50.117921 
L 326.991777 -50.117734 
L 327.316757 -50.117553 
L 327.641736 -50.117378 
L 327.966716 -50.117208 
L 328.291695 -50.117043 
L 328.616675 -50.116883 
L 328.941654 -50.116728 
L 329.266634 -50.116579 
L 329.591613 -50.116433 
L 329.916593 -50.116292 
L 330.241572 -50.116156 
L 330.566552 -50.116024 
L 330.891532 -50.115896 
L 331.216511 -50.115772 
L 331.541491 -50.115652 
L 331.86647 -50.115535 
L 332.19145 -50.115422 
L 332.516429 -50.115313 
L 332.841409 -50.115207 
L 333.166388 -50.115105 
L 333.491368 -50.115005 
L 333.816347 -50.114909 
L 334.141327 -50.114816 
L 334.466306 -50.114726 
L 334.791286 -50.114638 
L 335.116265 -50.114554 
L 335.441245 -50.114471 
L 335.766224 -50.114392 
L 336.091204 -50.114315 
L 336.416183 -50.114241 
L 336.741163 -50.114168 
L 337.066143 -50.114099 
L 337.391122 -50.114031 
L 337.716102 -50.113965 
L 338.041081 -50.113902 
L 338.366061 -50.11384 
L 338.69104 -50.113781 
L 339.01602 -50.113723 
L 339.340999 -50.113668 
L 339.665979 -50.113614 
L 339.990958 -50.113561 
L 340.315938 -50.113511 
L 340.640917 -50.113462 
L 340.965897 -50.113414 
L 341.290876 -50.113368 
L 341.615856 -50.113324 
L 341.940835 -50.113281 
L 342.265815 -50.113239 
L 342.590794 -50.113199 
L 342.915774 -50.11316 
L 343.240753 -50.113122 
L 343.565733 -50.113085 
L 343.890713 -50.11305 
L 344.215692 -50.113015 
L 344.540672 -50.112982 
L 344.865651 -50.11295 
L 345.190631 -50.112919 
L 345.51561 -50.112889 
L 345.84059 -50.11286 
L 346.165569 -50.112832 
L 346.490549 -50.112804 
L 346.815528 -50.112778 
L 347.140508 -50.112752 
L 347.465487 -50.112728 
L 347.790467 -50.112704 
L 348.115446 -50.112681 
L 348.440426 -50.112658 
L 348.765405 -50.112637 
L 349.090385 -50.112616 
L 349.415364 -50.112595 
L 349.740344 -50.112576 
L 350.065324 -50.112557 
L 350.390303 -50.112538 
L 350.715283 -50.11252 
L 351.040262 -50.112503 
L 351.365242 -50.112487 
L 351.690221 -50.11247 
L 352.015201 -50.112455 
L 352.34018 -50.11244 
L 352.66516 -50.112425 
L 352.990139 -50.112411 
L 353.315119 -50.112397 
L 353.640098 -50.112384 
L 353.965078 -50.112371 
L 354.290057 -50.112359 
L 354.615037 -50.112347 
L 354.940016 -50.112336 
L 355.264996 -50.112324 
L 355.589975 -50.112314 
L 355.914955 -50.112303 
L 356.239934 -50.112293 
L 356.564914 -50.112283 
L 356.889894 -50.112274 
L 357.214873 -50.112265 
L 357.539853 -50.112256 
L 357.864832 -50.112247 
L 358.189812 -50.112239 
L 358.514791 -50.112231 
L 358.839771 -50.112223 
L 359.16475 -50.112216 
L 359.48973 -50.112209 
L 359.814709 -50.112202 
L 360.139689 -50.112195 
L 360.464668 -50.112188 
L 360.789648 -50.112182 
L 361.114627 -50.112176 
L 361.439607 -50.11217 
L 361.764586 -50.112164 
L 362.089566 -50.112159 
L 362.414545 -50.112153 
L 362.739525 -50.112148 
L 363.064505 -50.112143 
L 363.389484 -50.112138 
L 363.714464 -50.112134 
L 364.039443 -50.112129 
L 364.364423 -50.112125 
L 364.689402 -50.112121 
L 365.014382 -50.112116 
L 365.339361 -50.112113 
L 365.664341 -50.112109 
L 365.98932 -50.112105 
L 366.3143 -50.112101 
L 366.639279 -50.112098 
L 366.964259 -50.112095 
L 367.289238 -50.112091 
L 367.614218 -50.112088 
L 367.939197 -50.112085 
L 368.264177 -50.112082 
L 368.589156 -50.11208 
L 368.914136 -50.112077 
L 369.239115 -50.112074 
L 369.564095 -50.112072 
L 369.889075 -50.112069 
L 370.214054 -50.112067 
L 370.539034 -50.112065 
L 370.864013 -50.112062 
L 371.188993 -50.11206 
L 371.513972 -50.112058 
L 371.838952 -50.112056 
L 372.163931 -50.112054 
L 372.488911 -50.112053 
L 372.81389 -50.112051 
L 373.13887 -50.112049 
L 373.463849 -50.112047 
L 373.788829 -50.112046 
L 374.113808 -50.112044 
L 374.438788 -50.112043 
L 374.763767 -50.112041 
L 375.088747 -50.11204 
L 375.413726 -50.112038 
L 375.738706 -50.112037 
L 376.063686 -50.112036 
L 376.388665 -50.112035 
L 376.713645 -50.112033 
L 377.038624 -50.112032 
L 377.363604 -50.112031 
L 377.688583 -50.11203 
L 378.013563 -50.112029 
L 378.338542 -50.112028 
L 378.663522 -50.112027 
L 378.988501 -50.112026 
L 379.313481 -50.112025 
L 379.63846 -50.112024 
L 379.96344 -50.112023 
L 380.288419 -50.112023 
L 380.613399 -50.112022 
L 380.938378 -50.112021 
L 381.263358 -50.11202 
L 381.588337 -50.11202 
L 381.913317 -50.112019 
L 382.238296 -50.112018 
L 382.563276 -50.112018 
L 382.888256 -50.112017 
L 383.213235 -50.112016 
L 383.538215 -50.112016 
L 383.863194 -50.112015 
L 384.188174 -50.112015 
L 384.513153 -50.112014 
L 384.838133 -50.112014 
L 385.163112 -50.112013 
L 385.488092 -50.112013 
L 385.813071 -50.112012 
L 386.138051 -50.112012 
L 386.46303 -50.112012 
L 386.78801 -50.112011 
L 387.112989 -50.112011 
L 387.437969 -50.11201 
L 387.762948 -50.11201 
L 388.087928 -50.11201 
L 388.412907 -50.112009 
L 388.737887 -50.112009 
L 389.062867 -50.112009 
L 389.387846 -50.112008 
L 389.712826 -50.112008 
L 390.037805 -50.112008 
L 390.362785 -50.112008 
L 390.687764 -50.112007 
L 391.012744 -50.112007 
L 391.337723 -50.112007 
L 391.662703 -50.112007 
L 391.987682 -50.112006 
L 392.312662 -50.112006 
L 392.637641 -50.112006 
L 392.962621 -50.112006 
L 393.2876 -50.112005 
L 393.61258 -50.112005 
L 393.937559 -50.112005 
L 394.262539 -50.112005 
L 394.587518 -50.112005 
L 394.912498 -50.112005 
L 395.237477 -50.112004 
L 395.562457 -50.112004 
L 395.887437 -50.112004 
L 396.212416 -50.112004 
L 396.537396 -50.112004 
L 396.862375 -50.112004 
L 397.187355 -50.112004 
L 397.512334 -50.112003 
L 397.837314 -50.112003 
L 398.162293 -50.112003 
L 398.487273 -50.112003 
L 398.487273 -50.112 
L 398.487273 -50.112 
L 398.162293 -50.112 
L 397.837314 -50.112 
L 397.512334 -50.112 
L 397.187355 -50.112 
L 396.862375 -50.112 
L 396.537396 -50.112 
L 396.212416 -50.112 
L 395.887437 -50.112 
L 395.562457 -50.112 
L 395.237477 -50.112 
L 394.912498 -50.112 
L 394.587518 -50.112 
L 394.262539 -50.112 
L 393.937559 -50.112 
L 393.61258 -50.112 
L 393.2876 -50.112 
L 392.962621 -50.112 
L 392.637641 -50.112 
L 392.312662 -50.112 
L 391.987682 -50.112 
L 391.662703 -50.112 
L 391.337723 -50.112 
L 391.012744 -50.112 
L 390.687764 -50.112 
L 390.362785 -50.112 
L 390.037805 -50.112 
L 389.712826 -50.112 
L 389.387846 -50.112 
L 389.062867 -50.112 
L 388.737887 -50.112 
L 388.412907 -50.112 
L 388.087928 -50.112 
L 387.762948 -50.112 
L 387.437969 -50.112 
L 387.112989 -50.112 
L 386.78801 -50.112 
L 386.46303 -50.112 
L 386.138051 -50.112 
L 385.813071 -50.112 
L 385.488092 -50.112 
L 385.163112 -50.112 
L 384.838133 -50.112 
L 384.513153 -50.112 
L 384.188174 -50.112 
L 383.863194 -50.112 
L 383.538215 -50.112 
L 383.213235 -50.112 
L 382.888256 -50.112 
L 382.563276 -50.112 
L 382.238296 -50.112 
L 381.913317 -50.112 
L 381.588337 -50.112 
L 381.263358 -50.112 
L 380.938378 -50.112 
L 380.613399 -50.112 
L 380.288419 -50.112 
L 379.96344 -50.112 
L 379.63846 -50.112 
L 379.313481 -50.112 
L 378.988501 -50.112 
L 378.663522 -50.112 
L 378.338542 -50.112 
L 378.013563 -50.112 
L 377.688583 -50.112 
L 377.363604 -50.112 
L 377.038624 -50.112 
L 376.713645 -50.112 
L 376.388665 -50.112 
L 376.063686 -50.112 
L 375.738706 -50.112 
L 375.413726 -50.112 
L 375.088747 -50.112 
L 374.763767 -50.112 
L 374.438788 -50.112 
L 374.113808 -50.112 
L 373.788829 -50.112 
L 373.463849 -50.112 
L 373.13887 -50.112 
L 372.81389 -50.112 
L 372.488911 -50.112 
L 372.163931 -50.112 
L 371.838952 -50.112 
L 371.513972 -50.112 
L 371.188993 -50.112 
L 370.864013 -50.112 
L 370.539034 -50.112 
L 370.214054 -50.112 
L 369.889075 -50.112 
L 369.564095 -50.112 
L 369.239115 -50.112 
L 368.914136 -50.112 
L 368.589156 -50.112 
L 368.264177 -50.112 
L 367.939197 -50.112 
L 367.614218 -50.112 
L 367.289238 -50.112 
L 366.964259 -50.112 
L 366.639279 -50.112 
L 366.3143 -50.112 
L 365.98932 -50.112 
L 365.664341 -50.112 
L 365.339361 -50.112 
L 365.014382 -50.112 
L 364.689402 -50.112 
L 364.364423 -50.112 
L 364.039443 -50.112 
L 363.714464 -50.112 
L 363.389484 -50.112 
L 363.064505 -50.112 
L 362.739525 -50.112 
L 362.414545 -50.112 
L 362.089566 -50.112 
L 361.764586 -50.112 
L 361.439607 -50.112 
L 361.114627 -50.112 
L 360.789648 -50.112 
L 360.464668 -50.112 
L 360.139689 -50.112 
L 359.814709 -50.112 
L 359.48973 -50.112 
L 359.16475 -50.112 
L 358.839771 -50.112 
L 358.514791 -50.112 
L 358.189812 -50.112 
L 357.864832 -50.112 
L 357.539853 -50.112 
L 357.214873 -50.112 
L 356.889894 -50.112 
L 356.564914 -50.112 
L 356.239934 -50.112 
L 355.914955 -50.112 
L 355.589975 -50.112 
L 355.264996 -50.112 
L 354.940016 -50.112 
L 354.615037 -50.112 
L 354.290057 -50.112 
L 353.965078 -50.112 
L 353.640098 -50.112 
L 353.315119 -50.112 
L 352.990139 -50.112 
L 352.66516 -50.112 
L 352.34018 -50.112 
L 352.015201 -50.112 
L 351.690221 -50.112 
L 351.365242 -50.112 
L 351.040262 -50.112 
L 350.715283 -50.112 
L 350.390303 -50.112 
L 350.065324 -50.112 
L 349.740344 -50.112 
L 349.415364 -50.112 
L 349.090385 -50.112 
L 348.765405 -50.112 
L 348.440426 -50.112 
L 348.115446 -50.112 
L 347.790467 -50.112 
L 347.465487 -50.112 
L 347.140508 -50.112 
L 346.815528 -50.112 
L 346.490549 -50.112 
L 346.165569 -50.112 
L 345.84059 -50.112 
L 345.51561 -50.112 
L 345.190631 -50.112 
L 344.865651 -50.112 
L 344.540672 -50.112 
L 344.215692 -50.112 
L 343.890713 -50.112 
L 343.565733 -50.112 
L 343.240753 -50.112 
L 342.915774 -50.112 
L 342.590794 -50.112 
L 342.265815 -50.112 
L 341.940835 -50.112 
L 341.615856 -50.112 
L 341.290876 -50.112 
L 340.965897 -50.112 
L 340.640917 -50.112 
L 340.315938 -50.112 
L 339.990958 -50.112 
L 339.665979 -50.112 
L 339.340999 -50.112 
L 339.01602 -50.112 
L 338.69104 -50.112 
L 338.366061 -50.112 
L 338.041081 -50.112 
L 337.716102 -50.112 
L 337.391122 -50.112 
L 337.066143 -50.112 
L 336.741163 -50.112 
L 336.416183 -50.112 
L 336.091204 -50.112 
L 335.766224 -50.112 
L 335.441245 -50.112 
L 335.116265 -50.112 
L 334.791286 -50.112 
L 334.466306 -50.112 
L 334.141327 -50.112 
L 333.816347 -50.112 
L 333.491368 -50.112 
L 333.166388 -50.112 
L 332.841409 -50.112 
L 332.516429 -50.112 
L 332.19145 -50.112 
L 331.86647 -50.112 
L 331.541491 -50.112 
L 331.216511 -50.112 
L 330.891532 -50.112 
L 330.566552 -50.112 
L 330.241572 -50.112 
L 329.916593 -50.112 
L 329.591613 -50.112 
L 329.266634 -50.112 
L 328.941654 -50.112 
L 328.616675 -50.112 
L 328.291695 -50.112 
L 327.966716 -50.112 
L 327.641736 -50.112 
L 327.316757 -50.112 
L 326.991777 -50.112 
L 326.666798 -50.112 
L 326.341818 -50.112 
L 326.016839 -50.112 
L 325.691859 -50.112 
L 325.36688 -50.112 
L 325.0419 -50.112 
L 324.716921 -50.112 
L 324.391941 -50.112 
L 324.066962 -50.112 
L 323.741982 -50.112 
L 323.417002 -50.112 
L 323.092023 -50.112 
L 322.767043 -50.112 
L 322.442064 -50.112 
L 322.117084 -50.112 
L 321.792105 -50.112 
L 321.467125 -50.112 
L 321.142146 -50.112 
L 320.817166 -50.112 
L 320.492187 -50.112 
L 320.167207 -50.112 
L 319.842228 -50.112 
L 319.517248 -50.112 
L 319.192269 -50.112 
L 318.867289 -50.112 
L 318.54231 -50.112 
L 318.21733 -50.112 
L 317.892351 -50.112 
L 317.567371 -50.112 
L 317.242391 -50.112 
L 316.917412 -50.112 
L 316.592432 -50.112 
L 316.267453 -50.112 
L 315.942473 -50.112 
L 315.617494 -50.112 
L 315.292514 -50.112 
L 314.967535 -50.112 
L 314.642555 -50.112 
L 314.317576 -50.112 
L 313.992596 -50.112 
L 313.667617 -50.112 
L 313.342637 -50.112 
L 313.017658 -50.112 
L 312.692678 -50.112 
L 312.367699 -50.112 
L 312.042719 -50.112 
L 311.71774 -50.112 
L 311.39276 -50.112 
L 311.067781 -50.112 
L 310.742801 -50.112 
L 310.417821 -50.112 
L 310.092842 -50.112 
L 309.767862 -50.112 
L 309.442883 -50.112 
L 309.117903 -50.112 
L 308.792924 -50.112 
L 308.467944 -50.112 
L 308.142965 -50.112 
L 307.817985 -50.112 
L 307.493006 -50.112 
L 307.168026 -50.112 
L 306.843047 -50.112 
L 306.518067 -50.112 
L 306.193088 -50.112 
L 305.868108 -50.112 
L 305.543129 -50.112 
L 305.218149 -50.112 
L 304.89317 -50.112 
L 304.56819 -50.112 
L 304.24321 -50.112 
L 303.918231 -50.112 
L 303.593251 -50.112 
L 303.268272 -50.112 
L 302.943292 -50.112 
L 302.618313 -50.112 
L 302.293333 -50.112 
L 301.968354 -50.112 
L 301.643374 -50.112 
L 301.318395 -50.112 
L 300.993415 -50.112 
L 300.668436 -50.112 
L 300.343456 -50.112 
L 300.018477 -50.112 
L 299.693497 -50.112 
L 299.368518 -50.112 
L 299.043538 -50.112 
L 298.718559 -50.112 
L 298.393579 -50.112 
L 298.0686 -50.112 
L 297.74362 -50.112 
L 297.41864 -50.112 
L 297.093661 -50.112 
L 296.768681 -50.112 
L 296.443702 -50.112 
L 296.118722 -50.112 
L 295.793743 -50.112 
L 295.468763 -50.112 
L 295.143784 -50.112 
L 294.818804 -50.112 
L 294.493825 -50.112 
L 294.168845 -50.112 
L 293.843866 -50.112 
L 293.518886 -50.112 
L 293.193907 -50.112 
L 292.868927 -50.112 
L 292.543948 -50.112 
L 292.218968 -50.112 
L 291.893989 -50.112 
L 291.569009 -50.112 
L 291.244029 -50.112 
L 290.91905 -50.112 
L 290.59407 -50.112 
L 290.269091 -50.112 
L 289.944111 -50.112 
L 289.619132 -50.112 
L 289.294152 -50.112 
L 288.969173 -50.112 
L 288.644193 -50.112 
L 288.319214 -50.112 
L 287.994234 -50.112 
L 287.669255 -50.112 
L 287.344275 -50.112 
L 287.019296 -50.112 
L 286.694316 -50.112 
L 286.369337 -50.112 
L 286.044357 -50.112 
L 285.719378 -50.112 
L 285.394398 -50.112 
L 285.069419 -50.112 
L 284.744439 -50.112 
L 284.419459 -50.112 
L 284.09448 -50.112 
L 283.7695 -50.112 
L 283.444521 -50.112 
L 283.119541 -50.112 
L 282.794562 -50.112 
L 282.469582 -50.112 
L 282.144603 -50.112 
L 281.819623 -50.112 
L 281.494644 -50.112 
L 281.169664 -50.112 
L 280.844685 -50.112 
L 280.519705 -50.112 
L 280.194726 -50.112 
L 279.869746 -50.112 
L 279.544767 -50.112 
L 279.219787 -50.112 
L 278.894808 -50.112 
L 278.569828 -50.112 
L 278.244848 -50.112 
L 277.919869 -50.112 
L 277.594889 -50.112 
L 277.26991 -50.112 
L 276.94493 -50.112 
L 276.619951 -50.112 
L 276.294971 -50.112 
L 275.969992 -50.112 
L 275.645012 -50.112 
L 275.320033 -50.112 
L 274.995053 -50.112 
L 274.670074 -50.112 
L 274.345094 -50.112 
L 274.020115 -50.112 
L 273.695135 -50.112 
L 273.370156 -50.112 
L 273.045176 -50.112 
L 272.720197 -50.112 
L 272.395217 -50.112 
L 272.070238 -50.112 
L 271.745258 -50.112 
L 271.420278 -50.112 
L 271.095299 -50.112 
L 270.770319 -50.112 
L 270.44534 -50.112 
L 270.12036 -50.112 
L 269.795381 -50.112 
L 269.470401 -50.112 
L 269.145422 -50.112 
L 268.820442 -50.112 
L 268.495463 -50.112 
L 268.170483 -50.112 
L 267.845504 -50.112 
L 267.520524 -50.112 
L 267.195545 -50.112 
L 266.870565 -50.112 
L 266.545586 -50.112 
L 266.220606 -50.112 
L 265.895627 -50.112 
L 265.570647 -50.112 
L 265.245667 -50.112 
L 264.920688 -50.112 
L 264.595708 -50.112 
L 264.270729 -50.112 
L 263.945749 -50.112 
L 263.62077 -50.112 
L 263.29579 -50.112 
L 262.970811 -50.112 
L 262.645831 -50.112 
L 262.320852 -50.112 
L 261.995872 -50.112 
L 261.670893 -50.112 
L 261.345913 -50.112 
L 261.020934 -50.112 
L 260.695954 -50.112 
L 260.370975 -50.112 
L 260.045995 -50.112 
L 259.721016 -50.112 
L 259.396036 -50.112 
L 259.071057 -50.112 
L 258.746077 -50.112 
L 258.421097 -50.112 
L 258.096118 -50.112 
L 257.771138 -50.112 
L 257.446159 -50.112 
L 257.121179 -50.112 
L 256.7962 -50.112 
L 256.47122 -50.112 
L 256.146241 -50.112 
L 255.821261 -50.112 
L 255.496282 -50.112 
L 255.171302 -50.112 
L 254.846323 -50.112 
L 254.521343 -50.112 
L 254.196364 -50.112 
L 253.871384 -50.112 
L 253.546405 -50.112 
L 253.221425 -50.112 
L 252.896446 -50.112 
L 252.571466 -50.112 
L 252.246486 -50.112 
L 251.921507 -50.112 
L 251.596527 -50.112 
L 251.271548 -50.112 
L 250.946568 -50.112 
L 250.621589 -50.112 
L 250.296609 -50.112 
L 249.97163 -50.112 
L 249.64665 -50.112 
L 249.321671 -50.112 
L 248.996691 -50.112 
L 248.671712 -50.112 
L 248.346732 -50.112 
L 248.021753 -50.112 
L 247.696773 -50.112 
L 247.371794 -50.112 
L 247.046814 -50.112 
L 246.721835 -50.112 
L 246.396855 -50.112 
L 246.071876 -50.112 
L 245.746896 -50.112 
L 245.421916 -50.112 
L 245.096937 -50.112 
L 244.771957 -50.112 
L 244.446978 -50.112 
L 244.121998 -50.112 
L 243.797019 -50.112 
L 243.472039 -50.112 
L 243.14706 -50.112 
L 242.82208 -50.112 
L 242.497101 -50.112 
L 242.172121 -50.112 
L 241.847142 -50.112 
L 241.522162 -50.112 
L 241.197183 -50.112 
L 240.872203 -50.112 
L 240.547224 -50.112 
L 240.222244 -50.112 
L 239.897265 -50.112 
L 239.572285 -50.112 
L 239.247305 -50.112 
L 238.922326 -50.112 
L 238.597346 -50.112 
L 238.272367 -50.112 
L 237.947387 -50.112 
L 237.622408 -50.112 
L 237.297428 -50.112 
L 236.972449 -50.112 
L 236.647469 -50.112 
L 236.32249 -50.112 
L 235.99751 -50.112 
L 235.672531 -50.112 
L 235.347551 -50.112 
L 235.022572 -50.112 
L 234.697592 -50.112 
L 234.372613 -50.112 
L 234.047633 -50.112 
L 233.722654 -50.112 
L 233.397674 -50.112 
L 233.072695 -50.112 
L 232.747715 -50.112 
L 232.422735 -50.112 
L 232.097756 -50.112 
L 231.772776 -50.112 
L 231.447797 -50.112 
L 231.122817 -50.112 
L 230.797838 -50.112 
L 230.472858 -50.112 
L 230.147879 -50.112 
L 229.822899 -50.112 
L 229.49792 -50.112 
L 229.17294 -50.112 
L 228.847961 -50.112 
L 228.522981 -50.112 
L 228.198002 -50.112 
L 227.873022 -50.112 
L 227.548043 -50.112 
L 227.223063 -50.112 
L 226.898084 -50.112 
L 226.573104 -50.112 
z
" style="stroke: #0000ff"/>
    </defs>
    <g clip-path="url(#pa6fa2ebbd5)">
     <use xlink:href="#m8b8873caf6" x="0" y="345.6" style="fill: #0000ff; stroke: #0000ff"/>
    </g>
   </g>
   <g id="matplotlib.axis_1">
    <g id="xtick_1">
     <g id="line2d_1">
      <path d="M 73.832727 307.584 
L 73.832727 41.472 
" clip-path="url(#pa6fa2ebbd5)" style="fill: none; stroke: #b0b0b0; stroke-opacity: 0.3; stroke-width: 0.8; stroke-linecap: square"/>
     </g>
     <g id="line2d_2">
      <defs>
       <path id="mb6f4cab872" d="M 0 0 
L 0 3.5 
" style="stroke: #000000; stroke-width: 0.8"/>
      </defs>
      <g>
       <use xlink:href="#mb6f4cab872" x="73.832727" y="307.584" style="stroke: #000000; stroke-width: 0.8"/>
      </g>
     </g>
     <g id="text_1">
      <!-- 0 -->
      <g transform="translate(70.651477 322.182437) scale(0.1 -0.1)">
       <defs>
        <path id="DejaVuSans-30" d="M 2034 4250 
Q 1547 4250 1301 3770 
Q 1056 3291 1056 2328 
Q 1056 1369 1301 889 
Q 1547 409 2034 409 
Q 2525 409 2770 889 
Q 3016 1369 3016 2328 
Q 3016 3291 2770 3770 
Q 2525 4250 2034 4250 
z
M 2034 4750 
Q 2819 4750 3233 4129 
Q 3647 3509 3647 2328 
Q 3647 1150 3233 529 
Q 2819 -91 2034 -91 
Q 1250 -91 836 529 
Q 422 1150 422 2328 
Q 422 3509 836 4129 
Q 1250 4750 2034 4750 
z
" transform="scale(0.015625)"/>
       </defs>
       <use xlink:href="#DejaVuSans-30"/>
      </g>
     </g>
    </g>
    <g id="xtick_2">
     <g id="line2d_3">
      <path d="M 138.763636 307.584 
L 138.763636 41.472 
" clip-path="url(#pa6fa2ebbd5)" style="fill: none; stroke: #b0b0b0; stroke-opacity: 0.3; stroke-width: 0.8; stroke-linecap: square"/>
     </g>
     <g id="line2d_4">
      <g>
       <use xlink:href="#mb6f4cab872" x="138.763636" y="307.584" style="stroke: #000000; stroke-width: 0.8"/>
      </g>
     </g>
     <g id="text_2">
      <!-- 20 -->
      <g transform="translate(132.401136 322.182437) scale(0.1 -0.1)">
       <defs>
        <path id="DejaVuSans-32" d="M 1228 531 
L 3431 531 
L 3431 0 
L 469 0 
L 469 531 
Q 828 903 1448 1529 
Q 2069 2156 2228 2338 
Q 2531 2678 2651 2914 
Q 2772 3150 2772 3378 
Q 2772 3750 2511 3984 
Q 2250 4219 1831 4219 
Q 1534 4219 1204 4116 
Q 875 4013 500 3803 
L 500 4441 
Q 881 4594 1212 4672 
Q 1544 4750 1819 4750 
Q 2544 4750 2975 4387 
Q 3406 4025 3406 3419 
Q 3406 3131 3298 2873 
Q 3191 2616 2906 2266 
Q 2828 2175 2409 1742 
Q 1991 1309 1228 531 
z
" transform="scale(0.015625)"/>
       </defs>
       <use xlink:href="#DejaVuSans-32"/>
       <use xlink:href="#DejaVuSans-30" transform="translate(63.623047 0)"/>
      </g>
     </g>
    </g>
    <g id="xtick_3">
     <g id="line2d_5">
      <path d="M 203.694545 307.584 
L 203.694545 41.472 
" clip-path="url(#pa6fa2ebbd5)" style="fill: none; stroke: #b0b0b0; stroke-opacity: 0.3; stroke-width: 0.8; stroke-linecap: square"/>
     </g>
     <g id="line2d_6">
      <g>
       <use xlink:href="#mb6f4cab872" x="203.694545" y="307.584" style="stroke: #000000; stroke-width: 0.8"/>
      </g>
     </g>
     <g id="text_3">
      <!-- 40 -->
      <g transform="translate(197.332045 322.182437) scale(0.1 -0.1)">
       <defs>
        <path id="DejaVuSans-34" d="M 2419 4116 
L 825 1625 
L 2419 1625 
L 2419 4116 
z
M 2253 4666 
L 3047 4666 
L 3047 1625 
L 3713 1625 
L 3713 1100 
L 3047 1100 
L 3047 0 
L 2419 0 
L 2419 1100 
L 313 1100 
L 313 1709 
L 2253 4666 
z
" transform="scale(0.015625)"/>
       </defs>
       <use xlink:href="#DejaVuSans-34"/>
       <use xlink:href="#DejaVuSans-30" transform="translate(63.623047 0)"/>
      </g>
     </g>
    </g>
    <g id="xtick_4">
     <g id="line2d_7">
      <path d="M 268.625455 307.584 
L 268.625455 41.472 
" clip-path="url(#pa6fa2ebbd5)" style="fill: none; stroke: #b0b0b0; stroke-opacity: 0.3; stroke-width: 0.8; stroke-linecap: square"/>
     </g>
     <g id="line2d_8">
      <g>
       <use xlink:href="#mb6f4cab872" x="268.625455" y="307.584" style="stroke: #000000; stroke-width: 0.8"/>
      </g>
     </g>
     <g id="text_4">
      <!-- 60 -->
      <g transform="translate(262.262955 322.182437) scale(0.1 -0.1)">
       <defs>
        <path id="DejaVuSans-36" d="M 2113 2584 
Q 1688 2584 1439 2293 
Q 1191 2003 1191 1497 
Q 1191 994 1439 701 
Q 1688 409 2113 409 
Q 2538 409 2786 701 
Q 3034 994 3034 1497 
Q 3034 2003 2786 2293 
Q 2538 2584 2113 2584 
z
M 3366 4563 
L 3366 3988 
Q 3128 4100 2886 4159 
Q 2644 4219 2406 4219 
Q 1781 4219 1451 3797 
Q 1122 3375 1075 2522 
Q 1259 2794 1537 2939 
Q 1816 3084 2150 3084 
Q 2853 3084 3261 2657 
Q 3669 2231 3669 1497 
Q 3669 778 3244 343 
Q 2819 -91 2113 -91 
Q 1303 -91 875 529 
Q 447 1150 447 2328 
Q 447 3434 972 4092 
Q 1497 4750 2381 4750 
Q 2619 4750 2861 4703 
Q 3103 4656 3366 4563 
z
" transform="scale(0.015625)"/>
       </defs>
       <use xlink:href="#DejaVuSans-36"/>
       <use xlink:href="#DejaVuSans-30" transform="translate(63.623047 0)"/>
      </g>
     </g>
    </g>
    <g id="xtick_5">
     <g id="line2d_9">
      <path d="M 333.556364 307.584 
L 333.556364 41.472 
" clip-path="url(#pa6fa2ebbd5)" style="fill: none; stroke: #b0b0b0; stroke-opacity: 0.3; stroke-width: 0.8; stroke-linecap: square"/>
     </g>
     <g id="line2d_10">
      <g>
       <use xlink:href="#mb6f4cab872" x="333.556364" y="307.584" style="stroke: #000000; stroke-width: 0.8"/>
      </g>
     </g>
     <g id="text_5">
      <!-- 80 -->
      <g transform="translate(327.193864 322.182437) scale(0.1 -0.1)">
       <defs>
        <path id="DejaVuSans-38" d="M 2034 2216 
Q 1584 2216 1326 1975 
Q 1069 1734 1069 1313 
Q 1069 891 1326 650 
Q 1584 409 2034 409 
Q 2484 409 2743 651 
Q 3003 894 3003 1313 
Q 3003 1734 2745 1975 
Q 2488 2216 2034 2216 
z
M 1403 2484 
Q 997 2584 770 2862 
Q 544 3141 544 3541 
Q 544 4100 942 4425 
Q 1341 4750 2034 4750 
Q 2731 4750 3128 4425 
Q 3525 4100 3525 3541 
Q 3525 3141 3298 2862 
Q 3072 2584 2669 2484 
Q 3125 2378 3379 2068 
Q 3634 1759 3634 1313 
Q 3634 634 3220 271 
Q 2806 -91 2034 -91 
Q 1263 -91 848 271 
Q 434 634 434 1313 
Q 434 1759 690 2068 
Q 947 2378 1403 2484 
z
M 1172 3481 
Q 1172 3119 1398 2916 
Q 1625 2713 2034 2713 
Q 2441 2713 2670 2916 
Q 2900 3119 2900 3481 
Q 2900 3844 2670 4047 
Q 2441 4250 2034 4250 
Q 1625 4250 1398 4047 
Q 1172 3844 1172 3481 
z
" transform="scale(0.015625)"/>
       </defs>
       <use xlink:href="#DejaVuSans-38"/>
       <use xlink:href="#DejaVuSans-30" transform="translate(63.623047 0)"/>
      </g>
     </g>
    </g>
    <g id="xtick_6">
     <g id="line2d_11">
      <path d="M 398.487273 307.584 
L 398.487273 41.472 
" clip-path="url(#pa6fa2ebbd5)" style="fill: none; stroke: #b0b0b0; stroke-opacity: 0.3; stroke-width: 0.8; stroke-linecap: square"/>
     </g>
     <g id="line2d_12">
      <g>
       <use xlink:href="#mb6f4cab872" x="398.487273" y="307.584" style="stroke: #000000; stroke-width: 0.8"/>
      </g>
     </g>
     <g id="text_6">
      <!-- 100 -->
      <g transform="translate(388.943523 322.182437) scale(0.1 -0.1)">
       <defs>
        <path id="DejaVuSans-31" d="M 794 531 
L 1825 531 
L 1825 4091 
L 703 3866 
L 703 4441 
L 1819 4666 
L 2450 4666 
L 2450 531 
L 3481 531 
L 3481 0 
L 794 0 
L 794 531 
z
" transform="scale(0.015625)"/>
       </defs>
       <use xlink:href="#DejaVuSans-31"/>
       <use xlink:href="#DejaVuSans-30" transform="translate(63.623047 0)"/>
       <use xlink:href="#DejaVuSans-30" transform="translate(127.246094 0)"/>
      </g>
     </g>
    </g>
    <g id="text_7">
     <!-- Chi-Square -->
     <g transform="translate(208.706094 335.860562) scale(0.1 -0.1)">
      <defs>
       <path id="DejaVuSans-43" d="M 4122 4306 
L 4122 3641 
Q 3803 3938 3442 4084 
Q 3081 4231 2675 4231 
Q 1875 4231 1450 3742 
Q 1025 3253 1025 2328 
Q 1025 1406 1450 917 
Q 1875 428 2675 428 
Q 3081 428 3442 575 
Q 3803 722 4122 1019 
L 4122 359 
Q 3791 134 3420 21 
Q 3050 -91 2638 -91 
Q 1578 -91 968 557 
Q 359 1206 359 2328 
Q 359 3453 968 4101 
Q 1578 4750 2638 4750 
Q 3056 4750 3426 4639 
Q 3797 4528 4122 4306 
z
" transform="scale(0.015625)"/>
       <path id="DejaVuSans-68" d="M 3513 2113 
L 3513 0 
L 2938 0 
L 2938 2094 
Q 2938 2591 2744 2837 
Q 2550 3084 2163 3084 
Q 1697 3084 1428 2787 
Q 1159 2491 1159 1978 
L 1159 0 
L 581 0 
L 581 4863 
L 1159 4863 
L 1159 2956 
Q 1366 3272 1645 3428 
Q 1925 3584 2291 3584 
Q 2894 3584 3203 3211 
Q 3513 2838 3513 2113 
z
" transform="scale(0.015625)"/>
       <path id="DejaVuSans-69" d="M 603 3500 
L 1178 3500 
L 1178 0 
L 603 0 
L 603 3500 
z
M 603 4863 
L 1178 4863 
L 1178 4134 
L 603 4134 
L 603 4863 
z
" transform="scale(0.015625)"/>
       <path id="DejaVuSans-2d" d="M 313 2009 
L 1997 2009 
L 1997 1497 
L 313 1497 
L 313 2009 
z
" transform="scale(0.015625)"/>
       <path id="DejaVuSans-53" d="M 3425 4513 
L 3425 3897 
Q 3066 4069 2747 4153 
Q 2428 4238 2131 4238 
Q 1616 4238 1336 4038 
Q 1056 3838 1056 3469 
Q 1056 3159 1242 3001 
Q 1428 2844 1947 2747 
L 2328 2669 
Q 3034 2534 3370 2195 
Q 3706 1856 3706 1288 
Q 3706 609 3251 259 
Q 2797 -91 1919 -91 
Q 1588 -91 1214 -16 
Q 841 59 441 206 
L 441 856 
Q 825 641 1194 531 
Q 1563 422 1919 422 
Q 2459 422 2753 634 
Q 3047 847 3047 1241 
Q 3047 1584 2836 1778 
Q 2625 1972 2144 2069 
L 1759 2144 
Q 1053 2284 737 2584 
Q 422 2884 422 3419 
Q 422 4038 858 4394 
Q 1294 4750 2059 4750 
Q 2388 4750 2728 4690 
Q 3069 4631 3425 4513 
z
" transform="scale(0.015625)"/>
       <path id="DejaVuSans-71" d="M 947 1747 
Q 947 1113 1208 752 
Q 1469 391 1925 391 
Q 2381 391 2643 752 
Q 2906 1113 2906 1747 
Q 2906 2381 2643 2742 
Q 2381 3103 1925 3103 
Q 1469 3103 1208 2742 
Q 947 2381 947 1747 
z
M 2906 525 
Q 2725 213 2448 61 
Q 2172 -91 1784 -91 
Q 1150 -91 751 415 
Q 353 922 353 1747 
Q 353 2572 751 3078 
Q 1150 3584 1784 3584 
Q 2172 3584 2448 3432 
Q 2725 3281 2906 2969 
L 2906 3500 
L 3481 3500 
L 3481 -1331 
L 2906 -1331 
L 2906 525 
z
" transform="scale(0.015625)"/>
       <path id="DejaVuSans-75" d="M 544 1381 
L 544 3500 
L 1119 3500 
L 1119 1403 
Q 1119 906 1312 657 
Q 1506 409 1894 409 
Q 2359 409 2629 706 
Q 2900 1003 2900 1516 
L 2900 3500 
L 3475 3500 
L 3475 0 
L 2900 0 
L 2900 538 
Q 2691 219 2414 64 
Q 2138 -91 1772 -91 
Q 1169 -91 856 284 
Q 544 659 544 1381 
z
M 1991 3584 
L 1991 3584 
z
" transform="scale(0.015625)"/>
       <path id="DejaVuSans-61" d="M 2194 1759 
Q 1497 1759 1228 1600 
Q 959 1441 959 1056 
Q 959 750 1161 570 
Q 1363 391 1709 391 
Q 2188 391 2477 730 
Q 2766 1069 2766 1631 
L 2766 1759 
L 2194 1759 
z
M 3341 1997 
L 3341 0 
L 2766 0 
L 2766 531 
Q 2569 213 2275 61 
Q 1981 -91 1556 -91 
Q 1019 -91 701 211 
Q 384 513 384 1019 
Q 384 1609 779 1909 
Q 1175 2209 1959 2209 
L 2766 2209 
L 2766 2266 
Q 2766 2663 2505 2880 
Q 2244 3097 1772 3097 
Q 1472 3097 1187 3025 
Q 903 2953 641 2809 
L 641 3341 
Q 956 3463 1253 3523 
Q 1550 3584 1831 3584 
Q 2591 3584 2966 3190 
Q 3341 2797 3341 1997 
z
" transform="scale(0.015625)"/>
       <path id="DejaVuSans-72" d="M 2631 2963 
Q 2534 3019 2420 3045 
Q 2306 3072 2169 3072 
Q 1681 3072 1420 2755 
Q 1159 2438 1159 1844 
L 1159 0 
L 581 0 
L 581 3500 
L 1159 3500 
L 1159 2956 
Q 1341 3275 1631 3429 
Q 1922 3584 2338 3584 
Q 2397 3584 2469 3576 
Q 2541 3569 2628 3553 
L 2631 2963 
z
" transform="scale(0.015625)"/>
       <path id="DejaVuSans-65" d="M 3597 1894 
L 3597 1613 
L 953 1613 
Q 991 1019 1311 708 
Q 1631 397 2203 397 
Q 2534 397 2845 478 
Q 3156 559 3463 722 
L 3463 178 
Q 3153 47 2828 -22 
Q 2503 -91 2169 -91 
Q 1331 -91 842 396 
Q 353 884 353 1716 
Q 353 2575 817 3079 
Q 1281 3584 2069 3584 
Q 2775 3584 3186 3129 
Q 3597 2675 3597 1894 
z
M 3022 2063 
Q 3016 2534 2758 2815 
Q 2500 3097 2075 3097 
Q 1594 3097 1305 2825 
Q 1016 2553 972 2059 
L 3022 2063 
z
" transform="scale(0.015625)"/>
      </defs>
      <use xlink:href="#DejaVuSans-43"/>
      <use xlink:href="#DejaVuSans-68" transform="translate(69.824219 0)"/>
      <use xlink:href="#DejaVuSans-69" transform="translate(133.203125 0)"/>
      <use xlink:href="#DejaVuSans-2d" transform="translate(160.986328 0)"/>
      <use xlink:href="#DejaVuSans-53" transform="translate(197.070312 0)"/>
      <use xlink:href="#DejaVuSans-71" transform="translate(260.546875 0)"/>
      <use xlink:href="#DejaVuSans-75" transform="translate(324.023438 0)"/>
      <use xlink:href="#DejaVuSans-61" transform="translate(387.402344 0)"/>
      <use xlink:href="#DejaVuSans-72" transform="translate(448.681641 0)"/>
      <use xlink:href="#DejaVuSans-65" transform="translate(487.544922 0)"/>
     </g>
    </g>
   </g>
   <g id="matplotlib.axis_2">
    <g id="ytick_1">
     <g id="line2d_13">
      <path d="M 57.6 295.488 
L 414.72 295.488 
" clip-path="url(#pa6fa2ebbd5)" style="fill: none; stroke: #b0b0b0; stroke-opacity: 0.3; stroke-width: 0.8; stroke-linecap: square"/>
     </g>
     <g id="line2d_14">
      <defs>
       <path id="m396c682cb0" d="M 0 0 
L -3.5 0 
" style="stroke: #000000; stroke-width: 0.8"/>
      </defs>
      <g>
       <use xlink:href="#m396c682cb0" x="57.6" y="295.488" style="stroke: #000000; stroke-width: 0.8"/>
      </g>
     </g>
     <g id="text_8">
      <!-- 0.00 -->
      <g transform="translate(28.334375 299.287219) scale(0.1 -0.1)">
       <defs>
        <path id="DejaVuSans-2e" d="M 684 794 
L 1344 794 
L 1344 0 
L 684 0 
L 684 794 
z
" transform="scale(0.015625)"/>
       </defs>
       <use xlink:href="#DejaVuSans-30"/>
       <use xlink:href="#DejaVuSans-2e" transform="translate(63.623047 0)"/>
       <use xlink:href="#DejaVuSans-30" transform="translate(95.410156 0)"/>
       <use xlink:href="#DejaVuSans-30" transform="translate(159.033203 0)"/>
      </g>
     </g>
    </g>
    <g id="ytick_2">
     <g id="line2d_15">
      <path d="M 57.6 249.837723 
L 414.72 249.837723 
" clip-path="url(#pa6fa2ebbd5)" style="fill: none; stroke: #b0b0b0; stroke-opacity: 0.3; stroke-width: 0.8; stroke-linecap: square"/>
     </g>
     <g id="line2d_16">
      <g>
       <use xlink:href="#m396c682cb0" x="57.6" y="249.837723" style="stroke: #000000; stroke-width: 0.8"/>
      </g>
     </g>
     <g id="text_9">
      <!-- 0.01 -->
      <g transform="translate(28.334375 253.636942) scale(0.1 -0.1)">
       <use xlink:href="#DejaVuSans-30"/>
       <use xlink:href="#DejaVuSans-2e" transform="translate(63.623047 0)"/>
       <use xlink:href="#DejaVuSans-30" transform="translate(95.410156 0)"/>
       <use xlink:href="#DejaVuSans-31" transform="translate(159.033203 0)"/>
      </g>
     </g>
    </g>
    <g id="ytick_3">
     <g id="line2d_17">
      <path d="M 57.6 204.187447 
L 414.72 204.187447 
" clip-path="url(#pa6fa2ebbd5)" style="fill: none; stroke: #b0b0b0; stroke-opacity: 0.3; stroke-width: 0.8; stroke-linecap: square"/>
     </g>
     <g id="line2d_18">
      <g>
       <use xlink:href="#m396c682cb0" x="57.6" y="204.187447" style="stroke: #000000; stroke-width: 0.8"/>
      </g>
     </g>
     <g id="text_10">
      <!-- 0.02 -->
      <g transform="translate(28.334375 207.986666) scale(0.1 -0.1)">
       <use xlink:href="#DejaVuSans-30"/>
       <use xlink:href="#DejaVuSans-2e" transform="translate(63.623047 0)"/>
       <use xlink:href="#DejaVuSans-30" transform="translate(95.410156 0)"/>
       <use xlink:href="#DejaVuSans-32" transform="translate(159.033203 0)"/>
      </g>
     </g>
    </g>
    <g id="ytick_4">
     <g id="line2d_19">
      <path d="M 57.6 158.53717 
L 414.72 158.53717 
" clip-path="url(#pa6fa2ebbd5)" style="fill: none; stroke: #b0b0b0; stroke-opacity: 0.3; stroke-width: 0.8; stroke-linecap: square"/>
     </g>
     <g id="line2d_20">
      <g>
       <use xlink:href="#m396c682cb0" x="57.6" y="158.53717" style="stroke: #000000; stroke-width: 0.8"/>
      </g>
     </g>
     <g id="text_11">
      <!-- 0.03 -->
      <g transform="translate(28.334375 162.336389) scale(0.1 -0.1)">
       <defs>
        <path id="DejaVuSans-33" d="M 2597 2516 
Q 3050 2419 3304 2112 
Q 3559 1806 3559 1356 
Q 3559 666 3084 287 
Q 2609 -91 1734 -91 
Q 1441 -91 1130 -33 
Q 819 25 488 141 
L 488 750 
Q 750 597 1062 519 
Q 1375 441 1716 441 
Q 2309 441 2620 675 
Q 2931 909 2931 1356 
Q 2931 1769 2642 2001 
Q 2353 2234 1838 2234 
L 1294 2234 
L 1294 2753 
L 1863 2753 
Q 2328 2753 2575 2939 
Q 2822 3125 2822 3475 
Q 2822 3834 2567 4026 
Q 2313 4219 1838 4219 
Q 1578 4219 1281 4162 
Q 984 4106 628 3988 
L 628 4550 
Q 988 4650 1302 4700 
Q 1616 4750 1894 4750 
Q 2613 4750 3031 4423 
Q 3450 4097 3450 3541 
Q 3450 3153 3228 2886 
Q 3006 2619 2597 2516 
z
" transform="scale(0.015625)"/>
       </defs>
       <use xlink:href="#DejaVuSans-30"/>
       <use xlink:href="#DejaVuSans-2e" transform="translate(63.623047 0)"/>
       <use xlink:href="#DejaVuSans-30" transform="translate(95.410156 0)"/>
       <use xlink:href="#DejaVuSans-33" transform="translate(159.033203 0)"/>
      </g>
     </g>
    </g>
    <g id="ytick_5">
     <g id="line2d_21">
      <path d="M 57.6 112.886894 
L 414.72 112.886894 
" clip-path="url(#pa6fa2ebbd5)" style="fill: none; stroke: #b0b0b0; stroke-opacity: 0.3; stroke-width: 0.8; stroke-linecap: square"/>
     </g>
     <g id="line2d_22">
      <g>
       <use xlink:href="#m396c682cb0" x="57.6" y="112.886894" style="stroke: #000000; stroke-width: 0.8"/>
      </g>
     </g>
     <g id="text_12">
      <!-- 0.04 -->
      <g transform="translate(28.334375 116.686113) scale(0.1 -0.1)">
       <use xlink:href="#DejaVuSans-30"/>
       <use xlink:href="#DejaVuSans-2e" transform="translate(63.623047 0)"/>
       <use xlink:href="#DejaVuSans-30" transform="translate(95.410156 0)"/>
       <use xlink:href="#DejaVuSans-34" transform="translate(159.033203 0)"/>
      </g>
     </g>
    </g>
    <g id="ytick_6">
     <g id="line2d_23">
      <path d="M 57.6 67.236617 
L 414.72 67.236617 
" clip-path="url(#pa6fa2ebbd5)" style="fill: none; stroke: #b0b0b0; stroke-opacity: 0.3; stroke-width: 0.8; stroke-linecap: square"/>
     </g>
     <g id="line2d_24">
      <g>
       <use xlink:href="#m396c682cb0" x="57.6" y="67.236617" style="stroke: #000000; stroke-width: 0.8"/>
      </g>
     </g>
     <g id="text_13">
      <!-- 0.05 -->
      <g transform="translate(28.334375 71.035836) scale(0.1 -0.1)">
       <defs>
        <path id="DejaVuSans-35" d="M 691 4666 
L 3169 4666 
L 3169 4134 
L 1269 4134 
L 1269 2991 
Q 1406 3038 1543 3061 
Q 1681 3084 1819 3084 
Q 2600 3084 3056 2656 
Q 3513 2228 3513 1497 
Q 3513 744 3044 326 
Q 2575 -91 1722 -91 
Q 1428 -91 1123 -41 
Q 819 9 494 109 
L 494 744 
Q 775 591 1075 516 
Q 1375 441 1709 441 
Q 2250 441 2565 725 
Q 2881 1009 2881 1497 
Q 2881 1984 2565 2268 
Q 2250 2553 1709 2553 
Q 1456 2553 1204 2497 
Q 953 2441 691 2322 
L 691 4666 
z
" transform="scale(0.015625)"/>
       </defs>
       <use xlink:href="#DejaVuSans-30"/>
       <use xlink:href="#DejaVuSans-2e" transform="translate(63.623047 0)"/>
       <use xlink:href="#DejaVuSans-30" transform="translate(95.410156 0)"/>
       <use xlink:href="#DejaVuSans-35" transform="translate(159.033203 0)"/>
      </g>
     </g>
    </g>
    <g id="text_14">
     <!-- Probability Density -->
     <g transform="translate(22.254687 221.554563) rotate(-90) scale(0.1 -0.1)">
      <defs>
       <path id="DejaVuSans-50" d="M 1259 4147 
L 1259 2394 
L 2053 2394 
Q 2494 2394 2734 2622 
Q 2975 2850 2975 3272 
Q 2975 3691 2734 3919 
Q 2494 4147 2053 4147 
L 1259 4147 
z
M 628 4666 
L 2053 4666 
Q 2838 4666 3239 4311 
Q 3641 3956 3641 3272 
Q 3641 2581 3239 2228 
Q 2838 1875 2053 1875 
L 1259 1875 
L 1259 0 
L 628 0 
L 628 4666 
z
" transform="scale(0.015625)"/>
       <path id="DejaVuSans-6f" d="M 1959 3097 
Q 1497 3097 1228 2736 
Q 959 2375 959 1747 
Q 959 1119 1226 758 
Q 1494 397 1959 397 
Q 2419 397 2687 759 
Q 2956 1122 2956 1747 
Q 2956 2369 2687 2733 
Q 2419 3097 1959 3097 
z
M 1959 3584 
Q 2709 3584 3137 3096 
Q 3566 2609 3566 1747 
Q 3566 888 3137 398 
Q 2709 -91 1959 -91 
Q 1206 -91 779 398 
Q 353 888 353 1747 
Q 353 2609 779 3096 
Q 1206 3584 1959 3584 
z
" transform="scale(0.015625)"/>
       <path id="DejaVuSans-62" d="M 3116 1747 
Q 3116 2381 2855 2742 
Q 2594 3103 2138 3103 
Q 1681 3103 1420 2742 
Q 1159 2381 1159 1747 
Q 1159 1113 1420 752 
Q 1681 391 2138 391 
Q 2594 391 2855 752 
Q 3116 1113 3116 1747 
z
M 1159 2969 
Q 1341 3281 1617 3432 
Q 1894 3584 2278 3584 
Q 2916 3584 3314 3078 
Q 3713 2572 3713 1747 
Q 3713 922 3314 415 
Q 2916 -91 2278 -91 
Q 1894 -91 1617 61 
Q 1341 213 1159 525 
L 1159 0 
L 581 0 
L 581 4863 
L 1159 4863 
L 1159 2969 
z
" transform="scale(0.015625)"/>
       <path id="DejaVuSans-6c" d="M 603 4863 
L 1178 4863 
L 1178 0 
L 603 0 
L 603 4863 
z
" transform="scale(0.015625)"/>
       <path id="DejaVuSans-74" d="M 1172 4494 
L 1172 3500 
L 2356 3500 
L 2356 3053 
L 1172 3053 
L 1172 1153 
Q 1172 725 1289 603 
Q 1406 481 1766 481 
L 2356 481 
L 2356 0 
L 1766 0 
Q 1100 0 847 248 
Q 594 497 594 1153 
L 594 3053 
L 172 3053 
L 172 3500 
L 594 3500 
L 594 4494 
L 1172 4494 
z
" transform="scale(0.015625)"/>
       <path id="DejaVuSans-79" d="M 2059 -325 
Q 1816 -950 1584 -1140 
Q 1353 -1331 966 -1331 
L 506 -1331 
L 506 -850 
L 844 -850 
Q 1081 -850 1212 -737 
Q 1344 -625 1503 -206 
L 1606 56 
L 191 3500 
L 800 3500 
L 1894 763 
L 2988 3500 
L 3597 3500 
L 2059 -325 
z
" transform="scale(0.015625)"/>
       <path id="DejaVuSans-20" transform="scale(0.015625)"/>
       <path id="DejaVuSans-44" d="M 1259 4147 
L 1259 519 
L 2022 519 
Q 2988 519 3436 956 
Q 3884 1394 3884 2338 
Q 3884 3275 3436 3711 
Q 2988 4147 2022 4147 
L 1259 4147 
z
M 628 4666 
L 1925 4666 
Q 3281 4666 3915 4102 
Q 4550 3538 4550 2338 
Q 4550 1131 3912 565 
Q 3275 0 1925 0 
L 628 0 
L 628 4666 
z
" transform="scale(0.015625)"/>
       <path id="DejaVuSans-6e" d="M 3513 2113 
L 3513 0 
L 2938 0 
L 2938 2094 
Q 2938 2591 2744 2837 
Q 2550 3084 2163 3084 
Q 1697 3084 1428 2787 
Q 1159 2491 1159 1978 
L 1159 0 
L 581 0 
L 581 3500 
L 1159 3500 
L 1159 2956 
Q 1366 3272 1645 3428 
Q 1925 3584 2291 3584 
Q 2894 3584 3203 3211 
Q 3513 2838 3513 2113 
z
" transform="scale(0.015625)"/>
       <path id="DejaVuSans-73" d="M 2834 3397 
L 2834 2853 
Q 2591 2978 2328 3040 
Q 2066 3103 1784 3103 
Q 1356 3103 1142 2972 
Q 928 2841 928 2578 
Q 928 2378 1081 2264 
Q 1234 2150 1697 2047 
L 1894 2003 
Q 2506 1872 2764 1633 
Q 3022 1394 3022 966 
Q 3022 478 2636 193 
Q 2250 -91 1575 -91 
Q 1294 -91 989 -36 
Q 684 19 347 128 
L 347 722 
Q 666 556 975 473 
Q 1284 391 1588 391 
Q 1994 391 2212 530 
Q 2431 669 2431 922 
Q 2431 1156 2273 1281 
Q 2116 1406 1581 1522 
L 1381 1569 
Q 847 1681 609 1914 
Q 372 2147 372 2553 
Q 372 3047 722 3315 
Q 1072 3584 1716 3584 
Q 2034 3584 2315 3537 
Q 2597 3491 2834 3397 
z
" transform="scale(0.015625)"/>
      </defs>
      <use xlink:href="#DejaVuSans-50"/>
      <use xlink:href="#DejaVuSans-72" transform="translate(58.552734 0)"/>
      <use xlink:href="#DejaVuSans-6f" transform="translate(97.416016 0)"/>
      <use xlink:href="#DejaVuSans-62" transform="translate(158.597656 0)"/>
      <use xlink:href="#DejaVuSans-61" transform="translate(222.074219 0)"/>
      <use xlink:href="#DejaVuSans-62" transform="translate(283.353516 0)"/>
      <use xlink:href="#DejaVuSans-69" transform="translate(346.830078 0)"/>
      <use xlink:href="#DejaVuSans-6c" transform="translate(374.613281 0)"/>
      <use xlink:href="#DejaVuSans-69" transform="translate(402.396484 0)"/>
      <use xlink:href="#DejaVuSans-74" transform="translate(430.179688 0)"/>
      <use xlink:href="#DejaVuSans-79" transform="translate(469.388672 0)"/>
      <use xlink:href="#DejaVuSans-20" transform="translate(528.568359 0)"/>
      <use xlink:href="#DejaVuSans-44" transform="translate(560.355469 0)"/>
      <use xlink:href="#DejaVuSans-65" transform="translate(637.357422 0)"/>
      <use xlink:href="#DejaVuSans-6e" transform="translate(698.880859 0)"/>
      <use xlink:href="#DejaVuSans-73" transform="translate(762.259766 0)"/>
      <use xlink:href="#DejaVuSans-69" transform="translate(814.359375 0)"/>
      <use xlink:href="#DejaVuSans-74" transform="translate(842.142578 0)"/>
      <use xlink:href="#DejaVuSans-79" transform="translate(881.351562 0)"/>
     </g>
    </g>
   </g>
   <g id="line2d_25">
    <path d="M 73.832727 295.488 
L 99.18113 295.38718 
L 102.430925 295.157161 
L 104.705782 294.807489 
L 106.655659 294.300086 
L 108.280557 293.668778 
L 109.905455 292.787508 
L 111.205373 291.85935 
L 112.505291 290.694122 
L 113.805209 289.254166 
L 115.105127 287.500886 
L 116.405045 285.395701 
L 117.704963 282.901097 
L 119.004881 279.981725 
L 120.629779 275.686738 
L 122.254676 270.625578 
L 123.879574 264.759352 
L 125.504472 258.065672 
L 127.454349 248.93716 
L 129.404226 238.644726 
L 131.679083 225.268401 
L 134.278919 208.41814 
L 137.528714 185.610942 
L 147.2781 115.70594 
L 149.552957 101.37444 
L 151.502834 90.265567 
L 153.452711 80.427508 
L 155.077609 73.303748 
L 156.702506 67.226128 
L 158.002424 63.14922 
L 159.302342 59.787967 
L 160.277281 57.742286 
L 161.252219 56.105542 
L 162.227158 54.87689 
L 163.202097 54.053488 
L 163.852056 53.727423 
L 164.502015 53.577543 
L 165.151974 53.601654 
L 165.801933 53.797238 
L 166.451892 54.161468 
L 167.42683 55.017127 
L 168.401769 56.2335 
L 169.376708 57.79767 
L 170.676626 60.399848 
L 171.976544 63.559348 
L 173.601441 68.233675 
L 175.226339 73.639287 
L 177.176216 80.975051 
L 179.451073 90.520189 
L 182.050909 102.448495 
L 185.625684 120.041764 
L 197.974906 181.927463 
L 201.224701 196.637086 
L 204.149517 208.91772 
L 207.074333 220.2056 
L 209.674169 229.373651 
L 212.274005 237.722241 
L 214.873841 245.265235 
L 217.148698 251.226163 
L 219.423554 256.61696 
L 221.698411 261.467688 
L 223.973268 265.811603 
L 226.248124 269.683937 
L 228.522981 273.120863 
L 230.797838 276.158631 
L 233.072695 278.832881 
L 235.347551 281.178092 
L 237.622408 283.227175 
L 240.222244 285.246114 
L 242.82208 286.961798 
L 245.421916 288.413561 
L 248.346732 289.775464 
L 251.271548 290.893293 
L 254.521343 291.896769 
L 258.096118 292.763681 
L 261.995872 293.484647 
L 266.545586 294.098966 
L 272.070238 294.60686 
L 278.894808 294.993265 
L 287.994234 295.264264 
L 301.643374 295.423068 
L 330.566552 295.483976 
L 398.487273 295.487997 
L 398.487273 295.487997 
" clip-path="url(#pa6fa2ebbd5)" style="fill: none; stroke: #1f77b4; stroke-width: 1.5; stroke-linecap: square"/>
   </g>
   <g id="patch_3">
    <path d="M 57.6 307.584 
L 57.6 41.472 
" style="fill: none; stroke: #000000; stroke-width: 0.8; stroke-linejoin: miter; stroke-linecap: square"/>
   </g>
   <g id="patch_4">
    <path d="M 414.72 307.584 
L 414.72 41.472 
" style="fill: none; stroke: #000000; stroke-width: 0.8; stroke-linejoin: miter; stroke-linecap: square"/>
   </g>
   <g id="patch_5">
    <path d="M 57.6 307.584 
L 414.72 307.584 
" style="fill: none; stroke: #000000; stroke-width: 0.8; stroke-linejoin: miter; stroke-linecap: square"/>
   </g>
   <g id="patch_6">
    <path d="M 57.6 41.472 
L 414.72 41.472 
" style="fill: none; stroke: #000000; stroke-width: 0.8; stroke-linejoin: miter; stroke-linecap: square"/>
   </g>
   <g id="text_15">
    <!-- Chi-Square Distribution (df=30, alpha=0.05) -->
    <g transform="translate(102.3 35.472) scale(0.12 -0.12)">
     <defs>
      <path id="DejaVuSans-28" d="M 1984 4856 
Q 1566 4138 1362 3434 
Q 1159 2731 1159 2009 
Q 1159 1288 1364 580 
Q 1569 -128 1984 -844 
L 1484 -844 
Q 1016 -109 783 600 
Q 550 1309 550 2009 
Q 550 2706 781 3412 
Q 1013 4119 1484 4856 
L 1984 4856 
z
" transform="scale(0.015625)"/>
      <path id="DejaVuSans-64" d="M 2906 2969 
L 2906 4863 
L 3481 4863 
L 3481 0 
L 2906 0 
L 2906 525 
Q 2725 213 2448 61 
Q 2172 -91 1784 -91 
Q 1150 -91 751 415 
Q 353 922 353 1747 
Q 353 2572 751 3078 
Q 1150 3584 1784 3584 
Q 2172 3584 2448 3432 
Q 2725 3281 2906 2969 
z
M 947 1747 
Q 947 1113 1208 752 
Q 1469 391 1925 391 
Q 2381 391 2643 752 
Q 2906 1113 2906 1747 
Q 2906 2381 2643 2742 
Q 2381 3103 1925 3103 
Q 1469 3103 1208 2742 
Q 947 2381 947 1747 
z
" transform="scale(0.015625)"/>
      <path id="DejaVuSans-66" d="M 2375 4863 
L 2375 4384 
L 1825 4384 
Q 1516 4384 1395 4259 
Q 1275 4134 1275 3809 
L 1275 3500 
L 2222 3500 
L 2222 3053 
L 1275 3053 
L 1275 0 
L 697 0 
L 697 3053 
L 147 3053 
L 147 3500 
L 697 3500 
L 697 3744 
Q 697 4328 969 4595 
Q 1241 4863 1831 4863 
L 2375 4863 
z
" transform="scale(0.015625)"/>
      <path id="DejaVuSans-3d" d="M 678 2906 
L 4684 2906 
L 4684 2381 
L 678 2381 
L 678 2906 
z
M 678 1631 
L 4684 1631 
L 4684 1100 
L 678 1100 
L 678 1631 
z
" transform="scale(0.015625)"/>
      <path id="DejaVuSans-2c" d="M 750 794 
L 1409 794 
L 1409 256 
L 897 -744 
L 494 -744 
L 750 256 
L 750 794 
z
" transform="scale(0.015625)"/>
      <path id="DejaVuSans-70" d="M 1159 525 
L 1159 -1331 
L 581 -1331 
L 581 3500 
L 1159 3500 
L 1159 2969 
Q 1341 3281 1617 3432 
Q 1894 3584 2278 3584 
Q 2916 3584 3314 3078 
Q 3713 2572 3713 1747 
Q 3713 922 3314 415 
Q 2916 -91 2278 -91 
Q 1894 -91 1617 61 
Q 1341 213 1159 525 
z
M 3116 1747 
Q 3116 2381 2855 2742 
Q 2594 3103 2138 3103 
Q 1681 3103 1420 2742 
Q 1159 2381 1159 1747 
Q 1159 1113 1420 752 
Q 1681 391 2138 391 
Q 2594 391 2855 752 
Q 3116 1113 3116 1747 
z
" transform="scale(0.015625)"/>
      <path id="DejaVuSans-29" d="M 513 4856 
L 1013 4856 
Q 1481 4119 1714 3412 
Q 1947 2706 1947 2009 
Q 1947 1309 1714 600 
Q 1481 -109 1013 -844 
L 513 -844 
Q 928 -128 1133 580 
Q 1338 1288 1338 2009 
Q 1338 2731 1133 3434 
Q 928 4138 513 4856 
z
" transform="scale(0.015625)"/>
     </defs>
     <use xlink:href="#DejaVuSans-43"/>
     <use xlink:href="#DejaVuSans-68" transform="translate(69.824219 0)"/>
     <use xlink:href="#DejaVuSans-69" transform="translate(133.203125 0)"/>
     <use xlink:href="#DejaVuSans-2d" transform="translate(160.986328 0)"/>
     <use xlink:href="#DejaVuSans-53" transform="translate(197.070312 0)"/>
     <use xlink:href="#DejaVuSans-71" transform="translate(260.546875 0)"/>
     <use xlink:href="#DejaVuSans-75" transform="translate(324.023438 0)"/>
     <use xlink:href="#DejaVuSans-61" transform="translate(387.402344 0)"/>
     <use xlink:href="#DejaVuSans-72" transform="translate(448.681641 0)"/>
     <use xlink:href="#DejaVuSans-65" transform="translate(487.544922 0)"/>
     <use xlink:href="#DejaVuSans-20" transform="translate(549.068359 0)"/>
     <use xlink:href="#DejaVuSans-44" transform="translate(580.855469 0)"/>
     <use xlink:href="#DejaVuSans-69" transform="translate(657.857422 0)"/>
     <use xlink:href="#DejaVuSans-73" transform="translate(685.640625 0)"/>
     <use xlink:href="#DejaVuSans-74" transform="translate(737.740234 0)"/>
     <use xlink:href="#DejaVuSans-72" transform="translate(776.949219 0)"/>
     <use xlink:href="#DejaVuSans-69" transform="translate(818.0625 0)"/>
     <use xlink:href="#DejaVuSans-62" transform="translate(845.845703 0)"/>
     <use xlink:href="#DejaVuSans-75" transform="translate(909.322266 0)"/>
     <use xlink:href="#DejaVuSans-74" transform="translate(972.701172 0)"/>
     <use xlink:href="#DejaVuSans-69" transform="translate(1011.910156 0)"/>
     <use xlink:href="#DejaVuSans-6f" transform="translate(1039.693359 0)"/>
     <use xlink:href="#DejaVuSans-6e" transform="translate(1100.875 0)"/>
     <use xlink:href="#DejaVuSans-20" transform="translate(1164.253906 0)"/>
     <use xlink:href="#DejaVuSans-28" transform="translate(1196.041016 0)"/>
     <use xlink:href="#DejaVuSans-64" transform="translate(1235.054688 0)"/>
     <use xlink:href="#DejaVuSans-66" transform="translate(1298.53125 0)"/>
     <use xlink:href="#DejaVuSans-3d" transform="translate(1333.736328 0)"/>
     <use xlink:href="#DejaVuSans-33" transform="translate(1417.525391 0)"/>
     <use xlink:href="#DejaVuSans-30" transform="translate(1481.148438 0)"/>
     <use xlink:href="#DejaVuSans-2c" transform="translate(1544.771484 0)"/>
     <use xlink:href="#DejaVuSans-20" transform="translate(1576.558594 0)"/>
     <use xlink:href="#DejaVuSans-61" transform="translate(1608.345703 0)"/>
     <use xlink:href="#DejaVuSans-6c" transform="translate(1669.625 0)"/>
     <use xlink:href="#DejaVuSans-70" transform="translate(1697.408203 0)"/>
     <use xlink:href="#DejaVuSans-68" transform="translate(1760.884766 0)"/>
     <use xlink:href="#DejaVuSans-61" transform="translate(1824.263672 0)"/>
     <use xlink:href="#DejaVuSans-3d" transform="translate(1885.542969 0)"/>
     <use xlink:href="#DejaVuSans-30" transform="translate(1969.332031 0)"/>
     <use xlink:href="#DejaVuSans-2e" transform="translate(2032.955078 0)"/>
     <use xlink:href="#DejaVuSans-30" transform="translate(2064.742188 0)"/>
     <use xlink:href="#DejaVuSans-35" transform="translate(2128.365234 0)"/>
     <use xlink:href="#DejaVuSans-29" transform="translate(2191.988281 0)"/>
    </g>
   </g>
  </g>
 </g>
 <defs>
  <clipPath id="pa6fa2ebbd5">
   <rect x="57.6" y="41.472" width="357.12" height="266.112"/>
  </clipPath>
 </defs>
</svg>
