<?xml version="1.0" encoding="utf-8" standalone="no"?>
<!DOCTYPE svg PUBLIC "-//W3C//DTD SVG 1.1//EN"
  "http://www.w3.org/Graphics/SVG/1.1/DTD/svg11.dtd">
<svg xmlns:xlink="http://www.w3.org/1999/xlink" width="864pt" height="432pt" viewBox="0 0 864 432" xmlns="http://www.w3.org/2000/svg" version="1.1">
 <metadata>
  <rdf:RDF xmlns:dc="http://purl.org/dc/elements/1.1/" xmlns:cc="http://creativecommons.org/ns#" xmlns:rdf="http://www.w3.org/1999/02/22-rdf-syntax-ns#">
   <cc:Work>
    <dc:type rdf:resource="http://purl.org/dc/dcmitype/StillImage"/>
    <dc:date>2025-09-01T18:04:14.341032</dc:date>
    <dc:format>image/svg+xml</dc:format>
    <dc:creator>
     <cc:Agent>
      <dc:title>Matplotlib v3.10.5, https://matplotlib.org/</dc:title>
     </cc:Agent>
    </dc:creator>
   </cc:Work>
  </rdf:RDF>
 </metadata>
 <defs>
  <style type="text/css">*{stroke-linejoin: round; stroke-linecap: butt}</style>
 </defs>
 <g id="figure_1">
  <g id="patch_1">
   <path d="M 0 432 
L 864 432 
L 864 0 
L 0 0 
L 0 432 
z
" style="fill: none"/>
  </g>
  <g id="axes_1">
   <g id="patch_2">
    <path d="M 54.02 390.04 
L 426.6 390.04 
L 426.6 50.64 
L 54.02 50.64 
L 54.02 390.04 
z
" style="fill: none"/>
   </g>
   <g id="FillBetweenPolyCollection_1">
    <defs>
     <path id="md6870b4473" d="M 70.955455 -57.387273 
L 70.955455 -57.387273 
L 71.294503 -57.387273 
L 71.633551 -57.387273 
L 71.972599 -57.387273 
L 72.311647 -57.387273 
L 72.650695 -57.387273 
L 72.989743 -57.387273 
L 73.328792 -57.387273 
L 73.66784 -57.387273 
L 74.006888 -57.387273 
L 74.345936 -57.387273 
L 74.684984 -57.387273 
L 75.024032 -57.387273 
L 75.36308 -57.387273 
L 75.702128 -57.387273 
L 76.041177 -57.387273 
L 76.380225 -57.387273 
L 76.719273 -57.387273 
L 77.058321 -57.387273 
L 77.397369 -57.387273 
L 77.736417 -57.387273 
L 78.075465 -57.387273 
L 78.414514 -57.387273 
L 78.753562 -57.387273 
L 79.09261 -57.387273 
L 79.431658 -57.387273 
L 79.770706 -57.387273 
L 80.109754 -57.387273 
L 80.448802 -57.387274 
L 80.787851 -57.387274 
L 81.126899 -57.387275 
L 81.465947 -57.387276 
L 81.804995 -57.387278 
L 82.144043 -57.38728 
L 82.483091 -57.387283 
L 82.822139 -57.387288 
L 83.161188 -57.387294 
L 83.500236 -57.387302 
L 83.839284 -57.387313 
L 84.178332 -57.387328 
L 84.51738 -57.387348 
L 84.856428 -57.387373 
L 85.195476 -57.387407 
L 85.534525 -57.38745 
L 85.873573 -57.387506 
L 86.212621 -57.387576 
L 86.551669 -57.387665 
L 86.890717 -57.387777 
L 87.229765 -57.387917 
L 87.568813 -57.388091 
L 87.907861 -57.388306 
L 88.24691 -57.388569 
L 88.585958 -57.388891 
L 88.925006 -57.389282 
L 89.264054 -57.389756 
L 89.603102 -57.390327 
L 89.94215 -57.391011 
L 90.281198 -57.391829 
L 90.620247 -57.392801 
L 90.959295 -57.393953 
L 91.298343 -57.395313 
L 91.637391 -57.396911 
L 91.976439 -57.398784 
L 92.315487 -57.400972 
L 92.654535 -57.403517 
L 92.993584 -57.40647 
L 93.332632 -57.409884 
L 93.67168 -57.41382 
L 94.010728 -57.418344 
L 94.349776 -57.423529 
L 94.688824 -57.429456 
L 95.027872 -57.43621 
L 95.366921 -57.44389 
L 95.705969 -57.452597 
L 96.045017 -57.462446 
L 96.384065 -57.473558 
L 96.723113 -57.486068 
L 97.062161 -57.500117 
L 97.401209 -57.515859 
L 97.740258 -57.533462 
L 98.079306 -57.553101 
L 98.418354 -57.574968 
L 98.757402 -57.599265 
L 99.09645 -57.626209 
L 99.435498 -57.656032 
L 99.774546 -57.688977 
L 100.113595 -57.725305 
L 100.452643 -57.765291 
L 100.791691 -57.809226 
L 101.130739 -57.857417 
L 101.469787 -57.910186 
L 101.808835 -57.967873 
L 102.147883 -58.030835 
L 102.486931 -58.099447 
L 102.82598 -58.174098 
L 103.165028 -58.255198 
L 103.504076 -58.343173 
L 103.843124 -58.438468 
L 104.182172 -58.541543 
L 104.52122 -58.65288 
L 104.860268 -58.772974 
L 105.199317 -58.902342 
L 105.538365 -59.041515 
L 105.877413 -59.191044 
L 106.216461 -59.351495 
L 106.555509 -59.523451 
L 106.894557 -59.707513 
L 107.233605 -59.904296 
L 107.572654 -60.114432 
L 107.911702 -60.338566 
L 108.25075 -60.57736 
L 108.589798 -60.831488 
L 108.928846 -61.101636 
L 109.267894 -61.388506 
L 109.606942 -61.692807 
L 109.945991 -62.015263 
L 110.285039 -62.356606 
L 110.624087 -62.717575 
L 110.963135 -63.098921 
L 111.302183 -63.501398 
L 111.641231 -63.925769 
L 111.980279 -64.372799 
L 112.319328 -64.843259 
L 112.658376 -65.337922 
L 112.997424 -65.85756 
L 113.336472 -66.402948 
L 113.67552 -66.974859 
L 114.014568 -67.574061 
L 114.353616 -68.201321 
L 114.692664 -68.857399 
L 115.031713 -69.54305 
L 115.370761 -70.259019 
L 115.709809 -71.006044 
L 116.048857 -71.784849 
L 116.387905 -72.596149 
L 116.726953 -73.440644 
L 117.066001 -74.319019 
L 117.40505 -75.231942 
L 117.744098 -76.180065 
L 118.083146 -77.16402 
L 118.422194 -78.184416 
L 118.761242 -79.241845 
L 119.10029 -80.336871 
L 119.439338 -81.470037 
L 119.778387 -82.641858 
L 120.117435 -83.852823 
L 120.456483 -85.103391 
L 120.795531 -86.393995 
L 121.134579 -87.725034 
L 121.473627 -89.096876 
L 121.812675 -90.509857 
L 122.151724 -91.964279 
L 122.490772 -93.460408 
L 122.82982 -94.998477 
L 123.168868 -96.578678 
L 123.507916 -98.201169 
L 123.846964 -99.866069 
L 124.186012 -101.573457 
L 124.525061 -103.323373 
L 124.864109 -105.115816 
L 125.203157 -106.950747 
L 125.542205 -108.828081 
L 125.881253 -110.747696 
L 126.220301 -112.709424 
L 126.559349 -114.713058 
L 126.898397 -116.758346 
L 127.237446 -118.844994 
L 127.576494 -120.972665 
L 127.576494 -57.387273 
L 127.576494 -57.387273 
L 127.237446 -57.387273 
L 126.898397 -57.387273 
L 126.559349 -57.387273 
L 126.220301 -57.387273 
L 125.881253 -57.387273 
L 125.542205 -57.387273 
L 125.203157 -57.387273 
L 124.864109 -57.387273 
L 124.525061 -57.387273 
L 124.186012 -57.387273 
L 123.846964 -57.387273 
L 123.507916 -57.387273 
L 123.168868 -57.387273 
L 122.82982 -57.387273 
L 122.490772 -57.387273 
L 122.151724 -57.387273 
L 121.812675 -57.387273 
L 121.473627 -57.387273 
L 121.134579 -57.387273 
L 120.795531 -57.387273 
L 120.456483 -57.387273 
L 120.117435 -57.387273 
L 119.778387 -57.387273 
L 119.439338 -57.387273 
L 119.10029 -57.387273 
L 118.761242 -57.387273 
L 118.422194 -57.387273 
L 118.083146 -57.387273 
L 117.744098 -57.387273 
L 117.40505 -57.387273 
L 117.066001 -57.387273 
L 116.726953 -57.387273 
L 116.387905 -57.387273 
L 116.048857 -57.387273 
L 115.709809 -57.387273 
L 115.370761 -57.387273 
L 115.031713 -57.387273 
L 114.692664 -57.387273 
L 114.353616 -57.387273 
L 114.014568 -57.387273 
L 113.67552 -57.387273 
L 113.336472 -57.387273 
L 112.997424 -57.387273 
L 112.658376 -57.387273 
L 112.319328 -57.387273 
L 111.980279 -57.387273 
L 111.641231 -57.387273 
L 111.302183 -57.387273 
L 110.963135 -57.387273 
L 110.624087 -57.387273 
L 110.285039 -57.387273 
L 109.945991 -57.387273 
L 109.606942 -57.387273 
L 109.267894 -57.387273 
L 108.928846 -57.387273 
L 108.589798 -57.387273 
L 108.25075 -57.387273 
L 107.911702 -57.387273 
L 107.572654 -57.387273 
L 107.233605 -57.387273 
L 106.894557 -57.387273 
L 106.555509 -57.387273 
L 106.216461 -57.387273 
L 105.877413 -57.387273 
L 105.538365 -57.387273 
L 105.199317 -57.387273 
L 104.860268 -57.387273 
L 104.52122 -57.387273 
L 104.182172 -57.387273 
L 103.843124 -57.387273 
L 103.504076 -57.387273 
L 103.165028 -57.387273 
L 102.82598 -57.387273 
L 102.486931 -57.387273 
L 102.147883 -57.387273 
L 101.808835 -57.387273 
L 101.469787 -57.387273 
L 101.130739 -57.387273 
L 100.791691 -57.387273 
L 100.452643 -57.387273 
L 100.113595 -57.387273 
L 99.774546 -57.387273 
L 99.435498 -57.387273 
L 99.09645 -57.387273 
L 98.757402 -57.387273 
L 98.418354 -57.387273 
L 98.079306 -57.387273 
L 97.740258 -57.387273 
L 97.401209 -57.387273 
L 97.062161 -57.387273 
L 96.723113 -57.387273 
L 96.384065 -57.387273 
L 96.045017 -57.387273 
L 95.705969 -57.387273 
L 95.366921 -57.387273 
L 95.027872 -57.387273 
L 94.688824 -57.387273 
L 94.349776 -57.387273 
L 94.010728 -57.387273 
L 93.67168 -57.387273 
L 93.332632 -57.387273 
L 92.993584 -57.387273 
L 92.654535 -57.387273 
L 92.315487 -57.387273 
L 91.976439 -57.387273 
L 91.637391 -57.387273 
L 91.298343 -57.387273 
L 90.959295 -57.387273 
L 90.620247 -57.387273 
L 90.281198 -57.387273 
L 89.94215 -57.387273 
L 89.603102 -57.387273 
L 89.264054 -57.387273 
L 88.925006 -57.387273 
L 88.585958 -57.387273 
L 88.24691 -57.387273 
L 87.907861 -57.387273 
L 87.568813 -57.387273 
L 87.229765 -57.387273 
L 86.890717 -57.387273 
L 86.551669 -57.387273 
L 86.212621 -57.387273 
L 85.873573 -57.387273 
L 85.534525 -57.387273 
L 85.195476 -57.387273 
L 84.856428 -57.387273 
L 84.51738 -57.387273 
L 84.178332 -57.387273 
L 83.839284 -57.387273 
L 83.500236 -57.387273 
L 83.161188 -57.387273 
L 82.822139 -57.387273 
L 82.483091 -57.387273 
L 82.144043 -57.387273 
L 81.804995 -57.387273 
L 81.465947 -57.387273 
L 81.126899 -57.387273 
L 80.787851 -57.387273 
L 80.448802 -57.387273 
L 80.109754 -57.387273 
L 79.770706 -57.387273 
L 79.431658 -57.387273 
L 79.09261 -57.387273 
L 78.753562 -57.387273 
L 78.414514 -57.387273 
L 78.075465 -57.387273 
L 77.736417 -57.387273 
L 77.397369 -57.387273 
L 77.058321 -57.387273 
L 76.719273 -57.387273 
L 76.380225 -57.387273 
L 76.041177 -57.387273 
L 75.702128 -57.387273 
L 75.36308 -57.387273 
L 75.024032 -57.387273 
L 74.684984 -57.387273 
L 74.345936 -57.387273 
L 74.006888 -57.387273 
L 73.66784 -57.387273 
L 73.328792 -57.387273 
L 72.989743 -57.387273 
L 72.650695 -57.387273 
L 72.311647 -57.387273 
L 71.972599 -57.387273 
L 71.633551 -57.387273 
L 71.294503 -57.387273 
L 70.955455 -57.387273 
z
" style="stroke: #0000ff"/>
    </defs>
    <g clip-path="url(#p30e07aca47)">
     <use xlink:href="#md6870b4473" x="0" y="432" style="fill: #0000ff; stroke: #0000ff"/>
    </g>
   </g>
   <g id="matplotlib.axis_1">
    <g id="xtick_1">
     <g id="line2d_1">
      <path d="M 70.955455 390.04 
L 70.955455 50.64 
" clip-path="url(#p30e07aca47)" style="fill: none; stroke: #b0b0b0; stroke-opacity: 0.3; stroke-width: 0.8; stroke-linecap: square"/>
     </g>
     <g id="line2d_2">
      <defs>
       <path id="m4d7132faaf" d="M 0 0 
L 0 3.5 
" style="stroke: #000000; stroke-width: 0.8"/>
      </defs>
      <g>
       <use xlink:href="#m4d7132faaf" x="70.955455" y="390.04" style="stroke: #000000; stroke-width: 0.8"/>
      </g>
     </g>
     <g id="text_1">
      <!-- 0 -->
      <g transform="translate(67.774205 404.638438) scale(0.1 -0.1)">
       <defs>
        <path id="DejaVuSans-30" d="M 2034 4250 
Q 1547 4250 1301 3770 
Q 1056 3291 1056 2328 
Q 1056 1369 1301 889 
Q 1547 409 2034 409 
Q 2525 409 2770 889 
Q 3016 1369 3016 2328 
Q 3016 3291 2770 3770 
Q 2525 4250 2034 4250 
z
M 2034 4750 
Q 2819 4750 3233 4129 
Q 3647 3509 3647 2328 
Q 3647 1150 3233 529 
Q 2819 -91 2034 -91 
Q 1250 -91 836 529 
Q 422 1150 422 2328 
Q 422 3509 836 4129 
Q 1250 4750 2034 4750 
z
" transform="scale(0.015625)"/>
       </defs>
       <use xlink:href="#DejaVuSans-30"/>
      </g>
     </g>
    </g>
    <g id="xtick_2">
     <g id="line2d_3">
      <path d="M 138.697273 390.04 
L 138.697273 50.64 
" clip-path="url(#p30e07aca47)" style="fill: none; stroke: #b0b0b0; stroke-opacity: 0.3; stroke-width: 0.8; stroke-linecap: square"/>
     </g>
     <g id="line2d_4">
      <g>
       <use xlink:href="#m4d7132faaf" x="138.697273" y="390.04" style="stroke: #000000; stroke-width: 0.8"/>
      </g>
     </g>
     <g id="text_2">
      <!-- 20 -->
      <g transform="translate(132.334773 404.638438) scale(0.1 -0.1)">
       <defs>
        <path id="DejaVuSans-32" d="M 1228 531 
L 3431 531 
L 3431 0 
L 469 0 
L 469 531 
Q 828 903 1448 1529 
Q 2069 2156 2228 2338 
Q 2531 2678 2651 2914 
Q 2772 3150 2772 3378 
Q 2772 3750 2511 3984 
Q 2250 4219 1831 4219 
Q 1534 4219 1204 4116 
Q 875 4013 500 3803 
L 500 4441 
Q 881 4594 1212 4672 
Q 1544 4750 1819 4750 
Q 2544 4750 2975 4387 
Q 3406 4025 3406 3419 
Q 3406 3131 3298 2873 
Q 3191 2616 2906 2266 
Q 2828 2175 2409 1742 
Q 1991 1309 1228 531 
z
" transform="scale(0.015625)"/>
       </defs>
       <use xlink:href="#DejaVuSans-32"/>
       <use xlink:href="#DejaVuSans-30" transform="translate(63.623047 0)"/>
      </g>
     </g>
    </g>
    <g id="xtick_3">
     <g id="line2d_5">
      <path d="M 206.439091 390.04 
L 206.439091 50.64 
" clip-path="url(#p30e07aca47)" style="fill: none; stroke: #b0b0b0; stroke-opacity: 0.3; stroke-width: 0.8; stroke-linecap: square"/>
     </g>
     <g id="line2d_6">
      <g>
       <use xlink:href="#m4d7132faaf" x="206.439091" y="390.04" style="stroke: #000000; stroke-width: 0.8"/>
      </g>
     </g>
     <g id="text_3">
      <!-- 40 -->
      <g transform="translate(200.076591 404.638438) scale(0.1 -0.1)">
       <defs>
        <path id="DejaVuSans-34" d="M 2419 4116 
L 825 1625 
L 2419 1625 
L 2419 4116 
z
M 2253 4666 
L 3047 4666 
L 3047 1625 
L 3713 1625 
L 3713 1100 
L 3047 1100 
L 3047 0 
L 2419 0 
L 2419 1100 
L 313 1100 
L 313 1709 
L 2253 4666 
z
" transform="scale(0.015625)"/>
       </defs>
       <use xlink:href="#DejaVuSans-34"/>
       <use xlink:href="#DejaVuSans-30" transform="translate(63.623047 0)"/>
      </g>
     </g>
    </g>
    <g id="xtick_4">
     <g id="line2d_7">
      <path d="M 274.180909 390.04 
L 274.180909 50.64 
" clip-path="url(#p30e07aca47)" style="fill: none; stroke: #b0b0b0; stroke-opacity: 0.3; stroke-width: 0.8; stroke-linecap: square"/>
     </g>
     <g id="line2d_8">
      <g>
       <use xlink:href="#m4d7132faaf" x="274.180909" y="390.04" style="stroke: #000000; stroke-width: 0.8"/>
      </g>
     </g>
     <g id="text_4">
      <!-- 60 -->
      <g transform="translate(267.818409 404.638438) scale(0.1 -0.1)">
       <defs>
        <path id="DejaVuSans-36" d="M 2113 2584 
Q 1688 2584 1439 2293 
Q 1191 2003 1191 1497 
Q 1191 994 1439 701 
Q 1688 409 2113 409 
Q 2538 409 2786 701 
Q 3034 994 3034 1497 
Q 3034 2003 2786 2293 
Q 2538 2584 2113 2584 
z
M 3366 4563 
L 3366 3988 
Q 3128 4100 2886 4159 
Q 2644 4219 2406 4219 
Q 1781 4219 1451 3797 
Q 1122 3375 1075 2522 
Q 1259 2794 1537 2939 
Q 1816 3084 2150 3084 
Q 2853 3084 3261 2657 
Q 3669 2231 3669 1497 
Q 3669 778 3244 343 
Q 2819 -91 2113 -91 
Q 1303 -91 875 529 
Q 447 1150 447 2328 
Q 447 3434 972 4092 
Q 1497 4750 2381 4750 
Q 2619 4750 2861 4703 
Q 3103 4656 3366 4563 
z
" transform="scale(0.015625)"/>
       </defs>
       <use xlink:href="#DejaVuSans-36"/>
       <use xlink:href="#DejaVuSans-30" transform="translate(63.623047 0)"/>
      </g>
     </g>
    </g>
    <g id="xtick_5">
     <g id="line2d_9">
      <path d="M 341.922727 390.04 
L 341.922727 50.64 
" clip-path="url(#p30e07aca47)" style="fill: none; stroke: #b0b0b0; stroke-opacity: 0.3; stroke-width: 0.8; stroke-linecap: square"/>
     </g>
     <g id="line2d_10">
      <g>
       <use xlink:href="#m4d7132faaf" x="341.922727" y="390.04" style="stroke: #000000; stroke-width: 0.8"/>
      </g>
     </g>
     <g id="text_5">
      <!-- 80 -->
      <g transform="translate(335.560227 404.638438) scale(0.1 -0.1)">
       <defs>
        <path id="DejaVuSans-38" d="M 2034 2216 
Q 1584 2216 1326 1975 
Q 1069 1734 1069 1313 
Q 1069 891 1326 650 
Q 1584 409 2034 409 
Q 2484 409 2743 651 
Q 3003 894 3003 1313 
Q 3003 1734 2745 1975 
Q 2488 2216 2034 2216 
z
M 1403 2484 
Q 997 2584 770 2862 
Q 544 3141 544 3541 
Q 544 4100 942 4425 
Q 1341 4750 2034 4750 
Q 2731 4750 3128 4425 
Q 3525 4100 3525 3541 
Q 3525 3141 3298 2862 
Q 3072 2584 2669 2484 
Q 3125 2378 3379 2068 
Q 3634 1759 3634 1313 
Q 3634 634 3220 271 
Q 2806 -91 2034 -91 
Q 1263 -91 848 271 
Q 434 634 434 1313 
Q 434 1759 690 2068 
Q 947 2378 1403 2484 
z
M 1172 3481 
Q 1172 3119 1398 2916 
Q 1625 2713 2034 2713 
Q 2441 2713 2670 2916 
Q 2900 3119 2900 3481 
Q 2900 3844 2670 4047 
Q 2441 4250 2034 4250 
Q 1625 4250 1398 4047 
Q 1172 3844 1172 3481 
z
" transform="scale(0.015625)"/>
       </defs>
       <use xlink:href="#DejaVuSans-38"/>
       <use xlink:href="#DejaVuSans-30" transform="translate(63.623047 0)"/>
      </g>
     </g>
    </g>
    <g id="xtick_6">
     <g id="line2d_11">
      <path d="M 409.664545 390.04 
L 409.664545 50.64 
" clip-path="url(#p30e07aca47)" style="fill: none; stroke: #b0b0b0; stroke-opacity: 0.3; stroke-width: 0.8; stroke-linecap: square"/>
     </g>
     <g id="line2d_12">
      <g>
       <use xlink:href="#m4d7132faaf" x="409.664545" y="390.04" style="stroke: #000000; stroke-width: 0.8"/>
      </g>
     </g>
     <g id="text_6">
      <!-- 100 -->
      <g transform="translate(400.120795 404.638438) scale(0.1 -0.1)">
       <defs>
        <path id="DejaVuSans-31" d="M 794 531 
L 1825 531 
L 1825 4091 
L 703 3866 
L 703 4441 
L 1819 4666 
L 2450 4666 
L 2450 531 
L 3481 531 
L 3481 0 
L 794 0 
L 794 531 
z
" transform="scale(0.015625)"/>
       </defs>
       <use xlink:href="#DejaVuSans-31"/>
       <use xlink:href="#DejaVuSans-30" transform="translate(63.623047 0)"/>
       <use xlink:href="#DejaVuSans-30" transform="translate(127.246094 0)"/>
      </g>
     </g>
    </g>
    <g id="text_7">
     <!-- Chi-Square -->
     <g transform="translate(212.856094 418.316562) scale(0.1 -0.1)">
      <defs>
       <path id="DejaVuSans-43" d="M 4122 4306 
L 4122 3641 
Q 3803 3938 3442 4084 
Q 3081 4231 2675 4231 
Q 1875 4231 1450 3742 
Q 1025 3253 1025 2328 
Q 1025 1406 1450 917 
Q 1875 428 2675 428 
Q 3081 428 3442 575 
Q 3803 722 4122 1019 
L 4122 359 
Q 3791 134 3420 21 
Q 3050 -91 2638 -91 
Q 1578 -91 968 557 
Q 359 1206 359 2328 
Q 359 3453 968 4101 
Q 1578 4750 2638 4750 
Q 3056 4750 3426 4639 
Q 3797 4528 4122 4306 
z
" transform="scale(0.015625)"/>
       <path id="DejaVuSans-68" d="M 3513 2113 
L 3513 0 
L 2938 0 
L 2938 2094 
Q 2938 2591 2744 2837 
Q 2550 3084 2163 3084 
Q 1697 3084 1428 2787 
Q 1159 2491 1159 1978 
L 1159 0 
L 581 0 
L 581 4863 
L 1159 4863 
L 1159 2956 
Q 1366 3272 1645 3428 
Q 1925 3584 2291 3584 
Q 2894 3584 3203 3211 
Q 3513 2838 3513 2113 
z
" transform="scale(0.015625)"/>
       <path id="DejaVuSans-69" d="M 603 3500 
L 1178 3500 
L 1178 0 
L 603 0 
L 603 3500 
z
M 603 4863 
L 1178 4863 
L 1178 4134 
L 603 4134 
L 603 4863 
z
" transform="scale(0.015625)"/>
       <path id="DejaVuSans-2d" d="M 313 2009 
L 1997 2009 
L 1997 1497 
L 313 1497 
L 313 2009 
z
" transform="scale(0.015625)"/>
       <path id="DejaVuSans-53" d="M 3425 4513 
L 3425 3897 
Q 3066 4069 2747 4153 
Q 2428 4238 2131 4238 
Q 1616 4238 1336 4038 
Q 1056 3838 1056 3469 
Q 1056 3159 1242 3001 
Q 1428 2844 1947 2747 
L 2328 2669 
Q 3034 2534 3370 2195 
Q 3706 1856 3706 1288 
Q 3706 609 3251 259 
Q 2797 -91 1919 -91 
Q 1588 -91 1214 -16 
Q 841 59 441 206 
L 441 856 
Q 825 641 1194 531 
Q 1563 422 1919 422 
Q 2459 422 2753 634 
Q 3047 847 3047 1241 
Q 3047 1584 2836 1778 
Q 2625 1972 2144 2069 
L 1759 2144 
Q 1053 2284 737 2584 
Q 422 2884 422 3419 
Q 422 4038 858 4394 
Q 1294 4750 2059 4750 
Q 2388 4750 2728 4690 
Q 3069 4631 3425 4513 
z
" transform="scale(0.015625)"/>
       <path id="DejaVuSans-71" d="M 947 1747 
Q 947 1113 1208 752 
Q 1469 391 1925 391 
Q 2381 391 2643 752 
Q 2906 1113 2906 1747 
Q 2906 2381 2643 2742 
Q 2381 3103 1925 3103 
Q 1469 3103 1208 2742 
Q 947 2381 947 1747 
z
M 2906 525 
Q 2725 213 2448 61 
Q 2172 -91 1784 -91 
Q 1150 -91 751 415 
Q 353 922 353 1747 
Q 353 2572 751 3078 
Q 1150 3584 1784 3584 
Q 2172 3584 2448 3432 
Q 2725 3281 2906 2969 
L 2906 3500 
L 3481 3500 
L 3481 -1331 
L 2906 -1331 
L 2906 525 
z
" transform="scale(0.015625)"/>
       <path id="DejaVuSans-75" d="M 544 1381 
L 544 3500 
L 1119 3500 
L 1119 1403 
Q 1119 906 1312 657 
Q 1506 409 1894 409 
Q 2359 409 2629 706 
Q 2900 1003 2900 1516 
L 2900 3500 
L 3475 3500 
L 3475 0 
L 2900 0 
L 2900 538 
Q 2691 219 2414 64 
Q 2138 -91 1772 -91 
Q 1169 -91 856 284 
Q 544 659 544 1381 
z
M 1991 3584 
L 1991 3584 
z
" transform="scale(0.015625)"/>
       <path id="DejaVuSans-61" d="M 2194 1759 
Q 1497 1759 1228 1600 
Q 959 1441 959 1056 
Q 959 750 1161 570 
Q 1363 391 1709 391 
Q 2188 391 2477 730 
Q 2766 1069 2766 1631 
L 2766 1759 
L 2194 1759 
z
M 3341 1997 
L 3341 0 
L 2766 0 
L 2766 531 
Q 2569 213 2275 61 
Q 1981 -91 1556 -91 
Q 1019 -91 701 211 
Q 384 513 384 1019 
Q 384 1609 779 1909 
Q 1175 2209 1959 2209 
L 2766 2209 
L 2766 2266 
Q 2766 2663 2505 2880 
Q 2244 3097 1772 3097 
Q 1472 3097 1187 3025 
Q 903 2953 641 2809 
L 641 3341 
Q 956 3463 1253 3523 
Q 1550 3584 1831 3584 
Q 2591 3584 2966 3190 
Q 3341 2797 3341 1997 
z
" transform="scale(0.015625)"/>
       <path id="DejaVuSans-72" d="M 2631 2963 
Q 2534 3019 2420 3045 
Q 2306 3072 2169 3072 
Q 1681 3072 1420 2755 
Q 1159 2438 1159 1844 
L 1159 0 
L 581 0 
L 581 3500 
L 1159 3500 
L 1159 2956 
Q 1341 3275 1631 3429 
Q 1922 3584 2338 3584 
Q 2397 3584 2469 3576 
Q 2541 3569 2628 3553 
L 2631 2963 
z
" transform="scale(0.015625)"/>
       <path id="DejaVuSans-65" d="M 3597 1894 
L 3597 1613 
L 953 1613 
Q 991 1019 1311 708 
Q 1631 397 2203 397 
Q 2534 397 2845 478 
Q 3156 559 3463 722 
L 3463 178 
Q 3153 47 2828 -22 
Q 2503 -91 2169 -91 
Q 1331 -91 842 396 
Q 353 884 353 1716 
Q 353 2575 817 3079 
Q 1281 3584 2069 3584 
Q 2775 3584 3186 3129 
Q 3597 2675 3597 1894 
z
M 3022 2063 
Q 3016 2534 2758 2815 
Q 2500 3097 2075 3097 
Q 1594 3097 1305 2825 
Q 1016 2553 972 2059 
L 3022 2063 
z
" transform="scale(0.015625)"/>
      </defs>
      <use xlink:href="#DejaVuSans-43"/>
      <use xlink:href="#DejaVuSans-68" transform="translate(69.824219 0)"/>
      <use xlink:href="#DejaVuSans-69" transform="translate(133.203125 0)"/>
      <use xlink:href="#DejaVuSans-2d" transform="translate(160.986328 0)"/>
      <use xlink:href="#DejaVuSans-53" transform="translate(197.070312 0)"/>
      <use xlink:href="#DejaVuSans-71" transform="translate(260.546875 0)"/>
      <use xlink:href="#DejaVuSans-75" transform="translate(324.023438 0)"/>
      <use xlink:href="#DejaVuSans-61" transform="translate(387.402344 0)"/>
      <use xlink:href="#DejaVuSans-72" transform="translate(448.681641 0)"/>
      <use xlink:href="#DejaVuSans-65" transform="translate(487.544922 0)"/>
     </g>
    </g>
   </g>
   <g id="matplotlib.axis_2">
    <g id="ytick_1">
     <g id="line2d_13">
      <path d="M 54.02 374.612727 
L 426.6 374.612727 
" clip-path="url(#p30e07aca47)" style="fill: none; stroke: #b0b0b0; stroke-opacity: 0.3; stroke-width: 0.8; stroke-linecap: square"/>
     </g>
     <g id="line2d_14">
      <defs>
       <path id="mc56e994849" d="M 0 0 
L -3.5 0 
" style="stroke: #000000; stroke-width: 0.8"/>
      </defs>
      <g>
       <use xlink:href="#mc56e994849" x="54.02" y="374.612727" style="stroke: #000000; stroke-width: 0.8"/>
      </g>
     </g>
     <g id="text_8">
      <!-- 0.00 -->
      <g transform="translate(24.754375 378.411946) scale(0.1 -0.1)">
       <defs>
        <path id="DejaVuSans-2e" d="M 684 794 
L 1344 794 
L 1344 0 
L 684 0 
L 684 794 
z
" transform="scale(0.015625)"/>
       </defs>
       <use xlink:href="#DejaVuSans-30"/>
       <use xlink:href="#DejaVuSans-2e" transform="translate(63.623047 0)"/>
       <use xlink:href="#DejaVuSans-30" transform="translate(95.410156 0)"/>
       <use xlink:href="#DejaVuSans-30" transform="translate(159.033203 0)"/>
      </g>
     </g>
    </g>
    <g id="ytick_2">
     <g id="line2d_15">
      <path d="M 54.02 316.390235 
L 426.6 316.390235 
" clip-path="url(#p30e07aca47)" style="fill: none; stroke: #b0b0b0; stroke-opacity: 0.3; stroke-width: 0.8; stroke-linecap: square"/>
     </g>
     <g id="line2d_16">
      <g>
       <use xlink:href="#mc56e994849" x="54.02" y="316.390235" style="stroke: #000000; stroke-width: 0.8"/>
      </g>
     </g>
     <g id="text_9">
      <!-- 0.01 -->
      <g transform="translate(24.754375 320.189454) scale(0.1 -0.1)">
       <use xlink:href="#DejaVuSans-30"/>
       <use xlink:href="#DejaVuSans-2e" transform="translate(63.623047 0)"/>
       <use xlink:href="#DejaVuSans-30" transform="translate(95.410156 0)"/>
       <use xlink:href="#DejaVuSans-31" transform="translate(159.033203 0)"/>
      </g>
     </g>
    </g>
    <g id="ytick_3">
     <g id="line2d_17">
      <path d="M 54.02 258.167743 
L 426.6 258.167743 
" clip-path="url(#p30e07aca47)" style="fill: none; stroke: #b0b0b0; stroke-opacity: 0.3; stroke-width: 0.8; stroke-linecap: square"/>
     </g>
     <g id="line2d_18">
      <g>
       <use xlink:href="#mc56e994849" x="54.02" y="258.167743" style="stroke: #000000; stroke-width: 0.8"/>
      </g>
     </g>
     <g id="text_10">
      <!-- 0.02 -->
      <g transform="translate(24.754375 261.966962) scale(0.1 -0.1)">
       <use xlink:href="#DejaVuSans-30"/>
       <use xlink:href="#DejaVuSans-2e" transform="translate(63.623047 0)"/>
       <use xlink:href="#DejaVuSans-30" transform="translate(95.410156 0)"/>
       <use xlink:href="#DejaVuSans-32" transform="translate(159.033203 0)"/>
      </g>
     </g>
    </g>
    <g id="ytick_4">
     <g id="line2d_19">
      <path d="M 54.02 199.94525 
L 426.6 199.94525 
" clip-path="url(#p30e07aca47)" style="fill: none; stroke: #b0b0b0; stroke-opacity: 0.3; stroke-width: 0.8; stroke-linecap: square"/>
     </g>
     <g id="line2d_20">
      <g>
       <use xlink:href="#mc56e994849" x="54.02" y="199.94525" style="stroke: #000000; stroke-width: 0.8"/>
      </g>
     </g>
     <g id="text_11">
      <!-- 0.03 -->
      <g transform="translate(24.754375 203.744469) scale(0.1 -0.1)">
       <defs>
        <path id="DejaVuSans-33" d="M 2597 2516 
Q 3050 2419 3304 2112 
Q 3559 1806 3559 1356 
Q 3559 666 3084 287 
Q 2609 -91 1734 -91 
Q 1441 -91 1130 -33 
Q 819 25 488 141 
L 488 750 
Q 750 597 1062 519 
Q 1375 441 1716 441 
Q 2309 441 2620 675 
Q 2931 909 2931 1356 
Q 2931 1769 2642 2001 
Q 2353 2234 1838 2234 
L 1294 2234 
L 1294 2753 
L 1863 2753 
Q 2328 2753 2575 2939 
Q 2822 3125 2822 3475 
Q 2822 3834 2567 4026 
Q 2313 4219 1838 4219 
Q 1578 4219 1281 4162 
Q 984 4106 628 3988 
L 628 4550 
Q 988 4650 1302 4700 
Q 1616 4750 1894 4750 
Q 2613 4750 3031 4423 
Q 3450 4097 3450 3541 
Q 3450 3153 3228 2886 
Q 3006 2619 2597 2516 
z
" transform="scale(0.015625)"/>
       </defs>
       <use xlink:href="#DejaVuSans-30"/>
       <use xlink:href="#DejaVuSans-2e" transform="translate(63.623047 0)"/>
       <use xlink:href="#DejaVuSans-30" transform="translate(95.410156 0)"/>
       <use xlink:href="#DejaVuSans-33" transform="translate(159.033203 0)"/>
      </g>
     </g>
    </g>
    <g id="ytick_5">
     <g id="line2d_21">
      <path d="M 54.02 141.722758 
L 426.6 141.722758 
" clip-path="url(#p30e07aca47)" style="fill: none; stroke: #b0b0b0; stroke-opacity: 0.3; stroke-width: 0.8; stroke-linecap: square"/>
     </g>
     <g id="line2d_22">
      <g>
       <use xlink:href="#mc56e994849" x="54.02" y="141.722758" style="stroke: #000000; stroke-width: 0.8"/>
      </g>
     </g>
     <g id="text_12">
      <!-- 0.04 -->
      <g transform="translate(24.754375 145.521977) scale(0.1 -0.1)">
       <use xlink:href="#DejaVuSans-30"/>
       <use xlink:href="#DejaVuSans-2e" transform="translate(63.623047 0)"/>
       <use xlink:href="#DejaVuSans-30" transform="translate(95.410156 0)"/>
       <use xlink:href="#DejaVuSans-34" transform="translate(159.033203 0)"/>
      </g>
     </g>
    </g>
    <g id="ytick_6">
     <g id="line2d_23">
      <path d="M 54.02 83.500266 
L 426.6 83.500266 
" clip-path="url(#p30e07aca47)" style="fill: none; stroke: #b0b0b0; stroke-opacity: 0.3; stroke-width: 0.8; stroke-linecap: square"/>
     </g>
     <g id="line2d_24">
      <g>
       <use xlink:href="#mc56e994849" x="54.02" y="83.500266" style="stroke: #000000; stroke-width: 0.8"/>
      </g>
     </g>
     <g id="text_13">
      <!-- 0.05 -->
      <g transform="translate(24.754375 87.299485) scale(0.1 -0.1)">
       <defs>
        <path id="DejaVuSans-35" d="M 691 4666 
L 3169 4666 
L 3169 4134 
L 1269 4134 
L 1269 2991 
Q 1406 3038 1543 3061 
Q 1681 3084 1819 3084 
Q 2600 3084 3056 2656 
Q 3513 2228 3513 1497 
Q 3513 744 3044 326 
Q 2575 -91 1722 -91 
Q 1428 -91 1123 -41 
Q 819 9 494 109 
L 494 744 
Q 775 591 1075 516 
Q 1375 441 1709 441 
Q 2250 441 2565 725 
Q 2881 1009 2881 1497 
Q 2881 1984 2565 2268 
Q 2250 2553 1709 2553 
Q 1456 2553 1204 2497 
Q 953 2441 691 2322 
L 691 4666 
z
" transform="scale(0.015625)"/>
       </defs>
       <use xlink:href="#DejaVuSans-30"/>
       <use xlink:href="#DejaVuSans-2e" transform="translate(63.623047 0)"/>
       <use xlink:href="#DejaVuSans-30" transform="translate(95.410156 0)"/>
       <use xlink:href="#DejaVuSans-35" transform="translate(159.033203 0)"/>
      </g>
     </g>
    </g>
    <g id="text_14">
     <!-- Probability Density -->
     <g transform="translate(18.674687 267.366562) rotate(-90) scale(0.1 -0.1)">
      <defs>
       <path id="DejaVuSans-50" d="M 1259 4147 
L 1259 2394 
L 2053 2394 
Q 2494 2394 2734 2622 
Q 2975 2850 2975 3272 
Q 2975 3691 2734 3919 
Q 2494 4147 2053 4147 
L 1259 4147 
z
M 628 4666 
L 2053 4666 
Q 2838 4666 3239 4311 
Q 3641 3956 3641 3272 
Q 3641 2581 3239 2228 
Q 2838 1875 2053 1875 
L 1259 1875 
L 1259 0 
L 628 0 
L 628 4666 
z
" transform="scale(0.015625)"/>
       <path id="DejaVuSans-6f" d="M 1959 3097 
Q 1497 3097 1228 2736 
Q 959 2375 959 1747 
Q 959 1119 1226 758 
Q 1494 397 1959 397 
Q 2419 397 2687 759 
Q 2956 1122 2956 1747 
Q 2956 2369 2687 2733 
Q 2419 3097 1959 3097 
z
M 1959 3584 
Q 2709 3584 3137 3096 
Q 3566 2609 3566 1747 
Q 3566 888 3137 398 
Q 2709 -91 1959 -91 
Q 1206 -91 779 398 
Q 353 888 353 1747 
Q 353 2609 779 3096 
Q 1206 3584 1959 3584 
z
" transform="scale(0.015625)"/>
       <path id="DejaVuSans-62" d="M 3116 1747 
Q 3116 2381 2855 2742 
Q 2594 3103 2138 3103 
Q 1681 3103 1420 2742 
Q 1159 2381 1159 1747 
Q 1159 1113 1420 752 
Q 1681 391 2138 391 
Q 2594 391 2855 752 
Q 3116 1113 3116 1747 
z
M 1159 2969 
Q 1341 3281 1617 3432 
Q 1894 3584 2278 3584 
Q 2916 3584 3314 3078 
Q 3713 2572 3713 1747 
Q 3713 922 3314 415 
Q 2916 -91 2278 -91 
Q 1894 -91 1617 61 
Q 1341 213 1159 525 
L 1159 0 
L 581 0 
L 581 4863 
L 1159 4863 
L 1159 2969 
z
" transform="scale(0.015625)"/>
       <path id="DejaVuSans-6c" d="M 603 4863 
L 1178 4863 
L 1178 0 
L 603 0 
L 603 4863 
z
" transform="scale(0.015625)"/>
       <path id="DejaVuSans-74" d="M 1172 4494 
L 1172 3500 
L 2356 3500 
L 2356 3053 
L 1172 3053 
L 1172 1153 
Q 1172 725 1289 603 
Q 1406 481 1766 481 
L 2356 481 
L 2356 0 
L 1766 0 
Q 1100 0 847 248 
Q 594 497 594 1153 
L 594 3053 
L 172 3053 
L 172 3500 
L 594 3500 
L 594 4494 
L 1172 4494 
z
" transform="scale(0.015625)"/>
       <path id="DejaVuSans-79" d="M 2059 -325 
Q 1816 -950 1584 -1140 
Q 1353 -1331 966 -1331 
L 506 -1331 
L 506 -850 
L 844 -850 
Q 1081 -850 1212 -737 
Q 1344 -625 1503 -206 
L 1606 56 
L 191 3500 
L 800 3500 
L 1894 763 
L 2988 3500 
L 3597 3500 
L 2059 -325 
z
" transform="scale(0.015625)"/>
       <path id="DejaVuSans-20" transform="scale(0.015625)"/>
       <path id="DejaVuSans-44" d="M 1259 4147 
L 1259 519 
L 2022 519 
Q 2988 519 3436 956 
Q 3884 1394 3884 2338 
Q 3884 3275 3436 3711 
Q 2988 4147 2022 4147 
L 1259 4147 
z
M 628 4666 
L 1925 4666 
Q 3281 4666 3915 4102 
Q 4550 3538 4550 2338 
Q 4550 1131 3912 565 
Q 3275 0 1925 0 
L 628 0 
L 628 4666 
z
" transform="scale(0.015625)"/>
       <path id="DejaVuSans-6e" d="M 3513 2113 
L 3513 0 
L 2938 0 
L 2938 2094 
Q 2938 2591 2744 2837 
Q 2550 3084 2163 3084 
Q 1697 3084 1428 2787 
Q 1159 2491 1159 1978 
L 1159 0 
L 581 0 
L 581 3500 
L 1159 3500 
L 1159 2956 
Q 1366 3272 1645 3428 
Q 1925 3584 2291 3584 
Q 2894 3584 3203 3211 
Q 3513 2838 3513 2113 
z
" transform="scale(0.015625)"/>
       <path id="DejaVuSans-73" d="M 2834 3397 
L 2834 2853 
Q 2591 2978 2328 3040 
Q 2066 3103 1784 3103 
Q 1356 3103 1142 2972 
Q 928 2841 928 2578 
Q 928 2378 1081 2264 
Q 1234 2150 1697 2047 
L 1894 2003 
Q 2506 1872 2764 1633 
Q 3022 1394 3022 966 
Q 3022 478 2636 193 
Q 2250 -91 1575 -91 
Q 1294 -91 989 -36 
Q 684 19 347 128 
L 347 722 
Q 666 556 975 473 
Q 1284 391 1588 391 
Q 1994 391 2212 530 
Q 2431 669 2431 922 
Q 2431 1156 2273 1281 
Q 2116 1406 1581 1522 
L 1381 1569 
Q 847 1681 609 1914 
Q 372 2147 372 2553 
Q 372 3047 722 3315 
Q 1072 3584 1716 3584 
Q 2034 3584 2315 3537 
Q 2597 3491 2834 3397 
z
" transform="scale(0.015625)"/>
      </defs>
      <use xlink:href="#DejaVuSans-50"/>
      <use xlink:href="#DejaVuSans-72" transform="translate(58.552734 0)"/>
      <use xlink:href="#DejaVuSans-6f" transform="translate(97.416016 0)"/>
      <use xlink:href="#DejaVuSans-62" transform="translate(158.597656 0)"/>
      <use xlink:href="#DejaVuSans-61" transform="translate(222.074219 0)"/>
      <use xlink:href="#DejaVuSans-62" transform="translate(283.353516 0)"/>
      <use xlink:href="#DejaVuSans-69" transform="translate(346.830078 0)"/>
      <use xlink:href="#DejaVuSans-6c" transform="translate(374.613281 0)"/>
      <use xlink:href="#DejaVuSans-69" transform="translate(402.396484 0)"/>
      <use xlink:href="#DejaVuSans-74" transform="translate(430.179688 0)"/>
      <use xlink:href="#DejaVuSans-79" transform="translate(469.388672 0)"/>
      <use xlink:href="#DejaVuSans-20" transform="translate(528.568359 0)"/>
      <use xlink:href="#DejaVuSans-44" transform="translate(560.355469 0)"/>
      <use xlink:href="#DejaVuSans-65" transform="translate(637.357422 0)"/>
      <use xlink:href="#DejaVuSans-6e" transform="translate(698.880859 0)"/>
      <use xlink:href="#DejaVuSans-73" transform="translate(762.259766 0)"/>
      <use xlink:href="#DejaVuSans-69" transform="translate(814.359375 0)"/>
      <use xlink:href="#DejaVuSans-74" transform="translate(842.142578 0)"/>
      <use xlink:href="#DejaVuSans-79" transform="translate(881.351562 0)"/>
     </g>
    </g>
   </g>
   <g id="line2d_25">
    <path d="M 70.955455 374.612727 
L 96.723113 374.513932 
L 100.113595 374.274695 
L 102.486931 373.900553 
L 104.52122 373.34712 
L 106.216461 372.648505 
L 107.572654 371.885568 
L 108.928846 370.898364 
L 110.285039 369.643394 
L 111.641231 368.074231 
L 112.997424 366.14244 
L 114.353616 363.798679 
L 115.709809 360.993956 
L 117.066001 357.680981 
L 118.422194 353.815584 
L 119.778387 349.358142 
L 121.473627 342.903124 
L 123.168868 335.421322 
L 124.864109 326.884184 
L 126.559349 317.286942 
L 128.593638 304.402194 
L 130.627927 290.108981 
L 133.001264 271.844552 
L 135.713649 249.264313 
L 139.782227 213.26654 
L 145.885093 159.309907 
L 148.597478 137.27709 
L 150.970815 119.766024 
L 153.005104 106.382734 
L 154.700345 96.534326 
L 156.395586 87.973793 
L 157.751778 82.102347 
L 159.107971 77.129286 
L 160.464163 73.072638 
L 161.481308 70.637382 
L 162.498452 68.723616 
L 163.515597 67.3294 
L 164.193693 66.686465 
L 164.871789 66.270601 
L 165.549885 66.079444 
L 166.227982 66.110196 
L 166.906078 66.359644 
L 167.584174 66.824183 
L 168.26227 67.499838 
L 169.279415 68.899606 
L 170.296559 70.748614 
L 171.313704 73.02942 
L 172.669896 76.709595 
L 174.026089 81.076417 
L 175.72133 87.42355 
L 177.41657 94.66166 
L 179.450859 104.37375 
L 181.824196 116.884726 
L 184.536581 132.382307 
L 188.266111 155.046419 
L 199.115651 221.919851 
L 202.506132 241.195125 
L 205.557566 257.391052 
L 208.608999 272.359469 
L 211.321384 284.574741 
L 214.033769 295.744219 
L 216.407106 304.664585 
L 218.780443 312.806858 
L 221.15378 320.198081 
L 223.527117 326.872596 
L 225.900454 332.870079 
L 228.273791 338.233816 
L 230.647128 343.009208 
L 233.020465 347.242521 
L 235.393802 350.979848 
L 237.767139 354.266283 
L 240.140476 357.145278 
L 242.513813 359.65816 
L 244.88715 361.843797 
L 247.260487 363.738385 
L 249.633824 365.375331 
L 252.346209 366.969756 
L 255.058594 368.308742 
L 258.110027 369.55522 
L 261.161461 370.570308 
L 264.551942 371.474371 
L 268.281471 372.248891 
L 272.689097 372.932534 
L 277.774819 373.488918 
L 283.877686 373.926839 
L 291.675793 374.253794 
L 302.525334 374.471082 
L 320.833933 374.585179 
L 376.437828 374.612602 
L 409.664545 374.612723 
L 409.664545 374.612723 
" clip-path="url(#p30e07aca47)" style="fill: none; stroke: #1f77b4; stroke-width: 1.5; stroke-linecap: square"/>
   </g>
   <g id="line2d_26">
    <path d="M 127.827327 390.04 
L 127.827327 50.64 
" clip-path="url(#p30e07aca47)" style="fill: none; stroke-dasharray: 5.55,2.4; stroke-dashoffset: 0; stroke: #ff0000; stroke-width: 1.5"/>
   </g>
   <g id="patch_3">
    <path d="M 54.02 390.04 
L 54.02 50.64 
" style="fill: none; stroke: #000000; stroke-width: 0.8; stroke-linejoin: miter; stroke-linecap: square"/>
   </g>
   <g id="patch_4">
    <path d="M 426.6 390.04 
L 426.6 50.64 
" style="fill: none; stroke: #000000; stroke-width: 0.8; stroke-linejoin: miter; stroke-linecap: square"/>
   </g>
   <g id="patch_5">
    <path d="M 54.02 390.04 
L 426.6 390.04 
" style="fill: none; stroke: #000000; stroke-width: 0.8; stroke-linejoin: miter; stroke-linecap: square"/>
   </g>
   <g id="patch_6">
    <path d="M 54.02 50.64 
L 426.6 50.64 
" style="fill: none; stroke: #000000; stroke-width: 0.8; stroke-linejoin: miter; stroke-linecap: square"/>
   </g>
   <g id="text_15">
    <!-- Lower Tail: α/2 = 0.025 -->
    <g transform="translate(171.0025 44.64) scale(0.12 -0.12)">
     <defs>
      <path id="DejaVuSans-4c" d="M 628 4666 
L 1259 4666 
L 1259 531 
L 3531 531 
L 3531 0 
L 628 0 
L 628 4666 
z
" transform="scale(0.015625)"/>
      <path id="DejaVuSans-77" d="M 269 3500 
L 844 3500 
L 1563 769 
L 2278 3500 
L 2956 3500 
L 3675 769 
L 4391 3500 
L 4966 3500 
L 4050 0 
L 3372 0 
L 2619 2869 
L 1863 0 
L 1184 0 
L 269 3500 
z
" transform="scale(0.015625)"/>
      <path id="DejaVuSans-54" d="M -19 4666 
L 3928 4666 
L 3928 4134 
L 2272 4134 
L 2272 0 
L 1638 0 
L 1638 4134 
L -19 4134 
L -19 4666 
z
" transform="scale(0.015625)"/>
      <path id="DejaVuSans-3a" d="M 750 794 
L 1409 794 
L 1409 0 
L 750 0 
L 750 794 
z
M 750 3309 
L 1409 3309 
L 1409 2516 
L 750 2516 
L 750 3309 
z
" transform="scale(0.015625)"/>
      <path id="DejaVuSans-3b1" d="M 2644 1628 
L 2506 2350 
Q 2366 3091 1809 3091 
Q 1391 3091 1200 2747 
Q 959 2316 959 1747 
Q 959 1059 1194 731 
Q 1431 397 1809 397 
Q 2228 397 2453 1063 
L 2644 1628 
z
M 2966 2584 
L 3275 3500 
L 3788 3500 
L 3147 1603 
L 3272 919 
Q 3300 766 3409 638 
Q 3538 488 3638 488 
L 3913 488 
L 3913 0 
L 3569 0 
Q 3275 0 3013 263 
Q 2884 394 2831 669 
Q 2688 322 2394 50 
Q 2256 -78 1809 -78 
Q 1075 -78 719 397 
Q 353 888 353 1747 
Q 353 2666 750 3097 
Q 1191 3578 1809 3578 
Q 2781 3578 2966 2584 
z
" transform="scale(0.015625)"/>
      <path id="DejaVuSans-2f" d="M 1625 4666 
L 2156 4666 
L 531 -594 
L 0 -594 
L 1625 4666 
z
" transform="scale(0.015625)"/>
      <path id="DejaVuSans-3d" d="M 678 2906 
L 4684 2906 
L 4684 2381 
L 678 2381 
L 678 2906 
z
M 678 1631 
L 4684 1631 
L 4684 1100 
L 678 1100 
L 678 1631 
z
" transform="scale(0.015625)"/>
     </defs>
     <use xlink:href="#DejaVuSans-4c"/>
     <use xlink:href="#DejaVuSans-6f" transform="translate(53.962891 0)"/>
     <use xlink:href="#DejaVuSans-77" transform="translate(115.144531 0)"/>
     <use xlink:href="#DejaVuSans-65" transform="translate(196.931641 0)"/>
     <use xlink:href="#DejaVuSans-72" transform="translate(258.455078 0)"/>
     <use xlink:href="#DejaVuSans-20" transform="translate(299.568359 0)"/>
     <use xlink:href="#DejaVuSans-54" transform="translate(331.355469 0)"/>
     <use xlink:href="#DejaVuSans-61" transform="translate(375.939453 0)"/>
     <use xlink:href="#DejaVuSans-69" transform="translate(437.21875 0)"/>
     <use xlink:href="#DejaVuSans-6c" transform="translate(465.001953 0)"/>
     <use xlink:href="#DejaVuSans-3a" transform="translate(492.785156 0)"/>
     <use xlink:href="#DejaVuSans-20" transform="translate(526.476562 0)"/>
     <use xlink:href="#DejaVuSans-3b1" transform="translate(558.263672 0)"/>
     <use xlink:href="#DejaVuSans-2f" transform="translate(624.181641 0)"/>
     <use xlink:href="#DejaVuSans-32" transform="translate(657.873047 0)"/>
     <use xlink:href="#DejaVuSans-20" transform="translate(721.496094 0)"/>
     <use xlink:href="#DejaVuSans-3d" transform="translate(753.283203 0)"/>
     <use xlink:href="#DejaVuSans-20" transform="translate(837.072266 0)"/>
     <use xlink:href="#DejaVuSans-30" transform="translate(868.859375 0)"/>
     <use xlink:href="#DejaVuSans-2e" transform="translate(932.482422 0)"/>
     <use xlink:href="#DejaVuSans-30" transform="translate(964.269531 0)"/>
     <use xlink:href="#DejaVuSans-32" transform="translate(1027.892578 0)"/>
     <use xlink:href="#DejaVuSans-35" transform="translate(1091.515625 0)"/>
    </g>
   </g>
  </g>
  <g id="axes_2">
   <g id="patch_7">
    <path d="M 480.62 390.04 
L 853.2 390.04 
L 853.2 50.64 
L 480.62 50.64 
L 480.62 390.04 
z
" style="fill: none"/>
   </g>
   <g id="FillBetweenPolyCollection_2">
    <defs>
     <path id="m5e58db6593" d="M 497.555455 -57.387273 
L 497.555455 -57.387273 
L 497.894503 -57.387273 
L 498.233551 -57.387273 
L 498.572599 -57.387273 
L 498.911647 -57.387273 
L 499.250695 -57.387273 
L 499.589743 -57.387273 
L 499.928792 -57.387273 
L 500.26784 -57.387273 
L 500.606888 -57.387273 
L 500.945936 -57.387273 
L 501.284984 -57.387273 
L 501.624032 -57.387273 
L 501.96308 -57.387273 
L 502.302128 -57.387273 
L 502.641177 -57.387273 
L 502.980225 -57.387273 
L 503.319273 -57.387273 
L 503.658321 -57.387273 
L 503.997369 -57.387273 
L 504.336417 -57.387273 
L 504.675465 -57.387273 
L 505.014514 -57.387273 
L 505.353562 -57.387273 
L 505.69261 -57.387273 
L 506.031658 -57.387273 
L 506.370706 -57.387273 
L 506.709754 -57.387273 
L 507.048802 -57.387274 
L 507.387851 -57.387274 
L 507.726899 -57.387275 
L 508.065947 -57.387276 
L 508.404995 -57.387278 
L 508.744043 -57.38728 
L 509.083091 -57.387283 
L 509.422139 -57.387288 
L 509.761188 -57.387294 
L 510.100236 -57.387302 
L 510.439284 -57.387313 
L 510.778332 -57.387328 
L 511.11738 -57.387348 
L 511.456428 -57.387373 
L 511.795476 -57.387407 
L 512.134525 -57.38745 
L 512.473573 -57.387506 
L 512.812621 -57.387576 
L 513.151669 -57.387665 
L 513.490717 -57.387777 
L 513.829765 -57.387917 
L 514.168813 -57.388091 
L 514.507861 -57.388306 
L 514.84691 -57.388569 
L 515.185958 -57.388891 
L 515.525006 -57.389282 
L 515.864054 -57.389756 
L 516.203102 -57.390327 
L 516.54215 -57.391011 
L 516.881198 -57.391829 
L 517.220247 -57.392801 
L 517.559295 -57.393953 
L 517.898343 -57.395313 
L 518.237391 -57.396911 
L 518.576439 -57.398784 
L 518.915487 -57.400972 
L 519.254535 -57.403517 
L 519.593584 -57.40647 
L 519.932632 -57.409884 
L 520.27168 -57.41382 
L 520.610728 -57.418344 
L 520.949776 -57.423529 
L 521.288824 -57.429456 
L 521.627872 -57.43621 
L 521.966921 -57.44389 
L 522.305969 -57.452597 
L 522.645017 -57.462446 
L 522.984065 -57.473558 
L 523.323113 -57.486068 
L 523.662161 -57.500117 
L 524.001209 -57.515859 
L 524.340258 -57.533462 
L 524.679306 -57.553101 
L 525.018354 -57.574968 
L 525.357402 -57.599265 
L 525.69645 -57.626209 
L 526.035498 -57.656032 
L 526.374546 -57.688977 
L 526.713595 -57.725305 
L 527.052643 -57.765291 
L 527.391691 -57.809226 
L 527.730739 -57.857417 
L 528.069787 -57.910186 
L 528.408835 -57.967873 
L 528.747883 -58.030835 
L 529.086931 -58.099447 
L 529.42598 -58.174098 
L 529.765028 -58.255198 
L 530.104076 -58.343173 
L 530.443124 -58.438468 
L 530.782172 -58.541543 
L 531.12122 -58.65288 
L 531.460268 -58.772974 
L 531.799317 -58.902342 
L 532.138365 -59.041515 
L 532.477413 -59.191044 
L 532.816461 -59.351495 
L 533.155509 -59.523451 
L 533.494557 -59.707513 
L 533.833605 -59.904296 
L 534.172654 -60.114432 
L 534.511702 -60.338566 
L 534.85075 -60.57736 
L 535.189798 -60.831488 
L 535.528846 -61.101636 
L 535.867894 -61.388506 
L 536.206942 -61.692807 
L 536.545991 -62.015263 
L 536.885039 -62.356606 
L 537.224087 -62.717575 
L 537.563135 -63.098921 
L 537.902183 -63.501398 
L 538.241231 -63.925769 
L 538.580279 -64.372799 
L 538.919328 -64.843259 
L 539.258376 -65.337922 
L 539.597424 -65.85756 
L 539.936472 -66.402948 
L 540.27552 -66.974859 
L 540.614568 -67.574061 
L 540.953616 -68.201321 
L 541.292664 -68.857399 
L 541.631713 -69.54305 
L 541.970761 -70.259019 
L 542.309809 -71.006044 
L 542.648857 -71.784849 
L 542.987905 -72.596149 
L 543.326953 -73.440644 
L 543.666001 -74.319019 
L 544.00505 -75.231942 
L 544.344098 -76.180065 
L 544.683146 -77.16402 
L 545.022194 -78.184416 
L 545.361242 -79.241845 
L 545.70029 -80.336871 
L 546.039338 -81.470037 
L 546.378387 -82.641858 
L 546.717435 -83.852823 
L 547.056483 -85.103391 
L 547.395531 -86.393995 
L 547.734579 -87.725034 
L 548.073627 -89.096876 
L 548.412675 -90.509857 
L 548.751724 -91.964279 
L 549.090772 -93.460408 
L 549.42982 -94.998477 
L 549.768868 -96.578678 
L 550.107916 -98.201169 
L 550.446964 -99.866069 
L 550.786012 -101.573457 
L 551.125061 -103.323373 
L 551.464109 -105.115816 
L 551.803157 -106.950747 
L 552.142205 -108.828081 
L 552.481253 -110.747696 
L 552.820301 -112.709424 
L 553.159349 -114.713058 
L 553.498397 -116.758346 
L 553.837446 -118.844994 
L 554.176494 -120.972665 
L 554.515542 -123.140979 
L 554.85459 -125.349515 
L 555.193638 -127.597806 
L 555.532686 -129.885345 
L 555.871734 -132.211581 
L 556.210783 -134.575921 
L 556.549831 -136.977732 
L 556.888879 -139.416336 
L 557.227927 -141.891019 
L 557.566975 -144.401022 
L 557.906023 -146.945548 
L 558.245071 -149.523763 
L 558.58412 -152.134791 
L 558.923168 -154.777719 
L 559.262216 -157.4516 
L 559.601264 -160.155448 
L 559.940312 -162.888242 
L 560.27936 -165.648928 
L 560.618408 -168.436419 
L 560.957457 -171.249595 
L 561.296505 -174.087305 
L 561.635553 -176.948367 
L 561.974601 -179.831574 
L 562.313649 -182.735687 
L 562.652697 -185.659444 
L 562.991745 -188.601555 
L 563.330794 -191.560708 
L 563.669842 -194.53557 
L 564.00889 -197.524784 
L 564.347938 -200.526974 
L 564.686986 -203.540747 
L 565.026034 -206.564692 
L 565.365082 -209.597382 
L 565.70413 -212.637377 
L 566.043179 -215.683225 
L 566.382227 -218.73346 
L 566.721275 -221.786609 
L 567.060323 -224.84119 
L 567.399371 -227.895712 
L 567.738419 -230.948683 
L 568.077467 -233.998604 
L 568.416516 -237.043973 
L 568.755564 -240.08329 
L 569.094612 -243.115052 
L 569.43366 -246.137761 
L 569.772708 -249.149921 
L 570.111756 -252.15004 
L 570.450804 -255.136634 
L 570.789853 -258.108224 
L 571.128901 -261.063341 
L 571.467949 -264.000527 
L 571.806997 -266.918335 
L 572.146045 -269.815331 
L 572.485093 -272.690093 
L 572.824141 -275.541217 
L 573.16319 -278.367313 
L 573.502238 -281.167011 
L 573.841286 -283.938959 
L 574.180334 -286.681823 
L 574.519382 -289.394292 
L 574.85843 -292.075077 
L 575.197478 -294.72291 
L 575.536527 -297.33655 
L 575.875575 -299.914778 
L 576.214623 -302.456403 
L 576.553671 -304.960259 
L 576.892719 -307.425208 
L 577.231767 -309.85014 
L 577.570815 -312.233976 
L 577.909863 -314.575664 
L 578.248912 -316.874184 
L 578.58796 -319.128546 
L 578.927008 -321.337792 
L 579.266056 -323.500996 
L 579.605104 -325.617266 
L 579.944152 -327.685741 
L 580.2832 -329.705595 
L 580.622249 -331.676035 
L 580.961297 -333.596303 
L 581.300345 -335.465674 
L 581.639393 -337.283461 
L 581.978441 -339.049008 
L 582.317489 -340.761698 
L 582.656537 -342.420947 
L 582.995586 -344.026207 
L 583.334634 -345.576966 
L 583.673682 -347.072749 
L 584.01273 -348.513112 
L 584.351778 -349.897653 
L 584.690826 -351.225999 
L 585.029874 -352.497819 
L 585.368923 -353.712812 
L 585.707971 -354.870714 
L 586.047019 -355.971297 
L 586.386067 -357.014367 
L 586.725115 -357.999764 
L 587.064163 -358.927362 
L 587.403211 -359.79707 
L 587.74226 -360.608831 
L 588.081308 -361.362618 
L 588.420356 -362.05844 
L 588.759404 -362.696338 
L 589.098452 -363.276384 
L 589.4375 -363.798681 
L 589.776548 -364.263365 
L 590.115597 -364.6706 
L 590.454645 -365.020582 
L 590.793693 -365.313535 
L 591.132741 -365.549713 
L 591.471789 -365.729399 
L 591.810837 -365.852901 
L 592.149885 -365.920556 
L 592.488933 -365.932727 
L 592.827982 -365.889804 
L 593.16703 -365.792201 
L 593.506078 -365.640356 
L 593.845126 -365.434733 
L 594.184174 -365.175817 
L 594.523222 -364.864117 
L 594.86227 -364.500162 
L 595.201319 -364.084506 
L 595.540367 -363.617719 
L 595.879415 -363.100394 
L 596.218463 -362.533141 
L 596.557511 -361.916589 
L 596.896559 -361.251386 
L 597.235607 -360.538194 
L 597.574656 -359.777694 
L 597.913704 -358.97058 
L 598.252752 -358.117564 
L 598.5918 -357.219369 
L 598.930848 -356.276732 
L 599.269896 -355.290405 
L 599.608944 -354.261147 
L 599.947993 -353.189734 
L 600.287041 -352.076948 
L 600.626089 -350.923583 
L 600.965137 -349.730442 
L 601.304185 -348.498336 
L 601.643233 -347.228083 
L 601.982281 -345.920511 
L 602.32133 -344.57645 
L 602.660378 -343.19674 
L 602.999426 -341.782225 
L 603.338474 -340.333751 
L 603.677522 -338.852171 
L 604.01657 -337.33834 
L 604.355618 -335.793117 
L 604.694666 -334.217361 
L 605.033715 -332.611933 
L 605.372763 -330.977697 
L 605.711811 -329.315515 
L 606.050859 -327.62625 
L 606.389907 -325.910764 
L 606.728955 -324.169918 
L 607.068003 -322.404571 
L 607.407052 -320.615581 
L 607.7461 -318.803801 
L 608.085148 -316.970083 
L 608.424196 -315.115274 
L 608.763244 -313.240217 
L 609.102292 -311.345752 
L 609.44134 -309.432713 
L 609.780389 -307.501927 
L 610.119437 -305.554219 
L 610.458485 -303.590405 
L 610.797533 -301.611295 
L 611.136581 -299.617693 
L 611.475629 -297.610394 
L 611.814677 -295.590189 
L 612.153726 -293.557858 
L 612.492774 -291.514173 
L 612.831822 -289.4599 
L 613.17087 -287.395794 
L 613.509918 -285.322602 
L 613.848966 -283.241061 
L 614.188014 -281.1519 
L 614.527063 -279.055837 
L 614.866111 -276.953581 
L 615.205159 -274.845831 
L 615.544207 -272.733274 
L 615.883255 -270.616588 
L 616.222303 -268.496442 
L 616.561351 -266.37349 
L 616.900399 -264.248379 
L 617.239448 -262.121743 
L 617.578496 -259.994205 
L 617.917544 -257.866378 
L 618.256592 -255.738861 
L 618.59564 -253.612245 
L 618.934688 -251.487107 
L 619.273736 -249.364012 
L 619.612785 -247.243515 
L 619.951833 -245.126158 
L 620.290881 -243.012473 
L 620.629929 -240.902979 
L 620.968977 -238.798181 
L 621.308025 -236.698577 
L 621.647073 -234.604649 
L 621.986122 -232.516868 
L 622.32517 -230.435696 
L 622.664218 -228.361579 
L 623.003266 -226.294954 
L 623.342314 -224.236246 
L 623.681362 -222.185866 
L 624.02041 -220.144217 
L 624.359459 -218.111687 
L 624.698507 -216.088655 
L 625.037555 -214.075486 
L 625.376603 -212.072537 
L 625.715651 -210.080149 
L 626.054699 -208.098657 
L 626.393747 -206.12838 
L 626.732796 -204.16963 
L 627.071844 -202.222704 
L 627.410892 -200.287892 
L 627.74994 -198.365471 
L 628.088988 -196.455708 
L 628.428036 -194.558859 
L 628.767084 -192.675169 
L 629.106132 -190.804875 
L 629.445181 -188.948202 
L 629.784229 -187.105364 
L 630.123277 -185.276568 
L 630.462325 -183.462009 
L 630.801373 -181.661873 
L 631.140421 -179.876337 
L 631.479469 -178.105567 
L 631.818518 -176.349721 
L 632.157566 -174.608948 
L 632.496614 -172.883388 
L 632.835662 -171.173172 
L 633.17471 -169.478423 
L 633.513758 -167.799254 
L 633.852806 -166.135771 
L 634.191855 -164.488072 
L 634.530903 -162.856246 
L 634.869951 -161.240374 
L 635.208999 -159.640531 
L 635.548047 -158.056782 
L 635.887095 -156.489188 
L 636.226143 -154.937798 
L 636.565192 -153.40266 
L 636.90424 -151.883808 
L 637.243288 -150.381276 
L 637.582336 -148.895087 
L 637.921384 -147.425259 
L 638.260432 -145.971804 
L 638.59948 -144.534727 
L 638.938529 -143.114028 
L 639.277577 -141.709701 
L 639.616625 -140.321732 
L 639.955673 -138.950106 
L 640.294721 -137.594798 
L 640.633769 -136.255781 
L 640.972817 -134.933022 
L 641.311866 -133.626483 
L 641.650914 -132.336119 
L 641.989962 -131.061885 
L 642.32901 -129.803728 
L 642.668058 -128.561591 
L 643.007106 -127.335415 
L 643.346154 -126.125133 
L 643.685202 -124.930678 
L 644.024251 -123.751977 
L 644.363299 -122.588955 
L 644.702347 -121.44153 
L 645.041395 -120.309621 
L 645.380443 -119.193142 
L 645.719491 -118.092002 
L 646.058539 -117.006109 
L 646.397588 -115.935368 
L 646.736636 -114.87968 
L 647.075684 -113.838946 
L 647.414732 -112.813061 
L 647.75378 -111.801919 
L 648.092828 -110.805413 
L 648.431876 -109.823432 
L 648.770925 -108.855864 
L 649.109973 -107.902595 
L 649.449021 -106.963507 
L 649.788069 -106.038484 
L 650.127117 -105.127404 
L 650.466165 -104.230148 
L 650.805213 -103.346592 
L 651.144262 -102.476611 
L 651.48331 -101.620081 
L 651.822358 -100.776875 
L 652.161406 -99.946864 
L 652.500454 -99.129921 
L 652.839502 -98.325914 
L 653.17855 -97.534714 
L 653.517599 -96.756189 
L 653.856647 -95.990206 
L 654.195695 -95.236634 
L 654.534743 -94.495338 
L 654.873791 -93.766184 
L 655.212839 -93.049039 
L 655.551887 -92.343768 
L 655.890935 -91.650236 
L 656.229984 -90.968307 
L 656.569032 -90.297847 
L 656.569032 -57.387273 
L 656.569032 -57.387273 
L 656.229984 -57.387273 
L 655.890935 -57.387273 
L 655.551887 -57.387273 
L 655.212839 -57.387273 
L 654.873791 -57.387273 
L 654.534743 -57.387273 
L 654.195695 -57.387273 
L 653.856647 -57.387273 
L 653.517599 -57.387273 
L 653.17855 -57.387273 
L 652.839502 -57.387273 
L 652.500454 -57.387273 
L 652.161406 -57.387273 
L 651.822358 -57.387273 
L 651.48331 -57.387273 
L 651.144262 -57.387273 
L 650.805213 -57.387273 
L 650.466165 -57.387273 
L 650.127117 -57.387273 
L 649.788069 -57.387273 
L 649.449021 -57.387273 
L 649.109973 -57.387273 
L 648.770925 -57.387273 
L 648.431876 -57.387273 
L 648.092828 -57.387273 
L 647.75378 -57.387273 
L 647.414732 -57.387273 
L 647.075684 -57.387273 
L 646.736636 -57.387273 
L 646.397588 -57.387273 
L 646.058539 -57.387273 
L 645.719491 -57.387273 
L 645.380443 -57.387273 
L 645.041395 -57.387273 
L 644.702347 -57.387273 
L 644.363299 -57.387273 
L 644.024251 -57.387273 
L 643.685202 -57.387273 
L 643.346154 -57.387273 
L 643.007106 -57.387273 
L 642.668058 -57.387273 
L 642.32901 -57.387273 
L 641.989962 -57.387273 
L 641.650914 -57.387273 
L 641.311866 -57.387273 
L 640.972817 -57.387273 
L 640.633769 -57.387273 
L 640.294721 -57.387273 
L 639.955673 -57.387273 
L 639.616625 -57.387273 
L 639.277577 -57.387273 
L 638.938529 -57.387273 
L 638.59948 -57.387273 
L 638.260432 -57.387273 
L 637.921384 -57.387273 
L 637.582336 -57.387273 
L 637.243288 -57.387273 
L 636.90424 -57.387273 
L 636.565192 -57.387273 
L 636.226143 -57.387273 
L 635.887095 -57.387273 
L 635.548047 -57.387273 
L 635.208999 -57.387273 
L 634.869951 -57.387273 
L 634.530903 -57.387273 
L 634.191855 -57.387273 
L 633.852806 -57.387273 
L 633.513758 -57.387273 
L 633.17471 -57.387273 
L 632.835662 -57.387273 
L 632.496614 -57.387273 
L 632.157566 -57.387273 
L 631.818518 -57.387273 
L 631.479469 -57.387273 
L 631.140421 -57.387273 
L 630.801373 -57.387273 
L 630.462325 -57.387273 
L 630.123277 -57.387273 
L 629.784229 -57.387273 
L 629.445181 -57.387273 
L 629.106132 -57.387273 
L 628.767084 -57.387273 
L 628.428036 -57.387273 
L 628.088988 -57.387273 
L 627.74994 -57.387273 
L 627.410892 -57.387273 
L 627.071844 -57.387273 
L 626.732796 -57.387273 
L 626.393747 -57.387273 
L 626.054699 -57.387273 
L 625.715651 -57.387273 
L 625.376603 -57.387273 
L 625.037555 -57.387273 
L 624.698507 -57.387273 
L 624.359459 -57.387273 
L 624.02041 -57.387273 
L 623.681362 -57.387273 
L 623.342314 -57.387273 
L 623.003266 -57.387273 
L 622.664218 -57.387273 
L 622.32517 -57.387273 
L 621.986122 -57.387273 
L 621.647073 -57.387273 
L 621.308025 -57.387273 
L 620.968977 -57.387273 
L 620.629929 -57.387273 
L 620.290881 -57.387273 
L 619.951833 -57.387273 
L 619.612785 -57.387273 
L 619.273736 -57.387273 
L 618.934688 -57.387273 
L 618.59564 -57.387273 
L 618.256592 -57.387273 
L 617.917544 -57.387273 
L 617.578496 -57.387273 
L 617.239448 -57.387273 
L 616.900399 -57.387273 
L 616.561351 -57.387273 
L 616.222303 -57.387273 
L 615.883255 -57.387273 
L 615.544207 -57.387273 
L 615.205159 -57.387273 
L 614.866111 -57.387273 
L 614.527063 -57.387273 
L 614.188014 -57.387273 
L 613.848966 -57.387273 
L 613.509918 -57.387273 
L 613.17087 -57.387273 
L 612.831822 -57.387273 
L 612.492774 -57.387273 
L 612.153726 -57.387273 
L 611.814677 -57.387273 
L 611.475629 -57.387273 
L 611.136581 -57.387273 
L 610.797533 -57.387273 
L 610.458485 -57.387273 
L 610.119437 -57.387273 
L 609.780389 -57.387273 
L 609.44134 -57.387273 
L 609.102292 -57.387273 
L 608.763244 -57.387273 
L 608.424196 -57.387273 
L 608.085148 -57.387273 
L 607.7461 -57.387273 
L 607.407052 -57.387273 
L 607.068003 -57.387273 
L 606.728955 -57.387273 
L 606.389907 -57.387273 
L 606.050859 -57.387273 
L 605.711811 -57.387273 
L 605.372763 -57.387273 
L 605.033715 -57.387273 
L 604.694666 -57.387273 
L 604.355618 -57.387273 
L 604.01657 -57.387273 
L 603.677522 -57.387273 
L 603.338474 -57.387273 
L 602.999426 -57.387273 
L 602.660378 -57.387273 
L 602.32133 -57.387273 
L 601.982281 -57.387273 
L 601.643233 -57.387273 
L 601.304185 -57.387273 
L 600.965137 -57.387273 
L 600.626089 -57.387273 
L 600.287041 -57.387273 
L 599.947993 -57.387273 
L 599.608944 -57.387273 
L 599.269896 -57.387273 
L 598.930848 -57.387273 
L 598.5918 -57.387273 
L 598.252752 -57.387273 
L 597.913704 -57.387273 
L 597.574656 -57.387273 
L 597.235607 -57.387273 
L 596.896559 -57.387273 
L 596.557511 -57.387273 
L 596.218463 -57.387273 
L 595.879415 -57.387273 
L 595.540367 -57.387273 
L 595.201319 -57.387273 
L 594.86227 -57.387273 
L 594.523222 -57.387273 
L 594.184174 -57.387273 
L 593.845126 -57.387273 
L 593.506078 -57.387273 
L 593.16703 -57.387273 
L 592.827982 -57.387273 
L 592.488933 -57.387273 
L 592.149885 -57.387273 
L 591.810837 -57.387273 
L 591.471789 -57.387273 
L 591.132741 -57.387273 
L 590.793693 -57.387273 
L 590.454645 -57.387273 
L 590.115597 -57.387273 
L 589.776548 -57.387273 
L 589.4375 -57.387273 
L 589.098452 -57.387273 
L 588.759404 -57.387273 
L 588.420356 -57.387273 
L 588.081308 -57.387273 
L 587.74226 -57.387273 
L 587.403211 -57.387273 
L 587.064163 -57.387273 
L 586.725115 -57.387273 
L 586.386067 -57.387273 
L 586.047019 -57.387273 
L 585.707971 -57.387273 
L 585.368923 -57.387273 
L 585.029874 -57.387273 
L 584.690826 -57.387273 
L 584.351778 -57.387273 
L 584.01273 -57.387273 
L 583.673682 -57.387273 
L 583.334634 -57.387273 
L 582.995586 -57.387273 
L 582.656537 -57.387273 
L 582.317489 -57.387273 
L 581.978441 -57.387273 
L 581.639393 -57.387273 
L 581.300345 -57.387273 
L 580.961297 -57.387273 
L 580.622249 -57.387273 
L 580.2832 -57.387273 
L 579.944152 -57.387273 
L 579.605104 -57.387273 
L 579.266056 -57.387273 
L 578.927008 -57.387273 
L 578.58796 -57.387273 
L 578.248912 -57.387273 
L 577.909863 -57.387273 
L 577.570815 -57.387273 
L 577.231767 -57.387273 
L 576.892719 -57.387273 
L 576.553671 -57.387273 
L 576.214623 -57.387273 
L 575.875575 -57.387273 
L 575.536527 -57.387273 
L 575.197478 -57.387273 
L 574.85843 -57.387273 
L 574.519382 -57.387273 
L 574.180334 -57.387273 
L 573.841286 -57.387273 
L 573.502238 -57.387273 
L 573.16319 -57.387273 
L 572.824141 -57.387273 
L 572.485093 -57.387273 
L 572.146045 -57.387273 
L 571.806997 -57.387273 
L 571.467949 -57.387273 
L 571.128901 -57.387273 
L 570.789853 -57.387273 
L 570.450804 -57.387273 
L 570.111756 -57.387273 
L 569.772708 -57.387273 
L 569.43366 -57.387273 
L 569.094612 -57.387273 
L 568.755564 -57.387273 
L 568.416516 -57.387273 
L 568.077467 -57.387273 
L 567.738419 -57.387273 
L 567.399371 -57.387273 
L 567.060323 -57.387273 
L 566.721275 -57.387273 
L 566.382227 -57.387273 
L 566.043179 -57.387273 
L 565.70413 -57.387273 
L 565.365082 -57.387273 
L 565.026034 -57.387273 
L 564.686986 -57.387273 
L 564.347938 -57.387273 
L 564.00889 -57.387273 
L 563.669842 -57.387273 
L 563.330794 -57.387273 
L 562.991745 -57.387273 
L 562.652697 -57.387273 
L 562.313649 -57.387273 
L 561.974601 -57.387273 
L 561.635553 -57.387273 
L 561.296505 -57.387273 
L 560.957457 -57.387273 
L 560.618408 -57.387273 
L 560.27936 -57.387273 
L 559.940312 -57.387273 
L 559.601264 -57.387273 
L 559.262216 -57.387273 
L 558.923168 -57.387273 
L 558.58412 -57.387273 
L 558.245071 -57.387273 
L 557.906023 -57.387273 
L 557.566975 -57.387273 
L 557.227927 -57.387273 
L 556.888879 -57.387273 
L 556.549831 -57.387273 
L 556.210783 -57.387273 
L 555.871734 -57.387273 
L 555.532686 -57.387273 
L 555.193638 -57.387273 
L 554.85459 -57.387273 
L 554.515542 -57.387273 
L 554.176494 -57.387273 
L 553.837446 -57.387273 
L 553.498397 -57.387273 
L 553.159349 -57.387273 
L 552.820301 -57.387273 
L 552.481253 -57.387273 
L 552.142205 -57.387273 
L 551.803157 -57.387273 
L 551.464109 -57.387273 
L 551.125061 -57.387273 
L 550.786012 -57.387273 
L 550.446964 -57.387273 
L 550.107916 -57.387273 
L 549.768868 -57.387273 
L 549.42982 -57.387273 
L 549.090772 -57.387273 
L 548.751724 -57.387273 
L 548.412675 -57.387273 
L 548.073627 -57.387273 
L 547.734579 -57.387273 
L 547.395531 -57.387273 
L 547.056483 -57.387273 
L 546.717435 -57.387273 
L 546.378387 -57.387273 
L 546.039338 -57.387273 
L 545.70029 -57.387273 
L 545.361242 -57.387273 
L 545.022194 -57.387273 
L 544.683146 -57.387273 
L 544.344098 -57.387273 
L 544.00505 -57.387273 
L 543.666001 -57.387273 
L 543.326953 -57.387273 
L 542.987905 -57.387273 
L 542.648857 -57.387273 
L 542.309809 -57.387273 
L 541.970761 -57.387273 
L 541.631713 -57.387273 
L 541.292664 -57.387273 
L 540.953616 -57.387273 
L 540.614568 -57.387273 
L 540.27552 -57.387273 
L 539.936472 -57.387273 
L 539.597424 -57.387273 
L 539.258376 -57.387273 
L 538.919328 -57.387273 
L 538.580279 -57.387273 
L 538.241231 -57.387273 
L 537.902183 -57.387273 
L 537.563135 -57.387273 
L 537.224087 -57.387273 
L 536.885039 -57.387273 
L 536.545991 -57.387273 
L 536.206942 -57.387273 
L 535.867894 -57.387273 
L 535.528846 -57.387273 
L 535.189798 -57.387273 
L 534.85075 -57.387273 
L 534.511702 -57.387273 
L 534.172654 -57.387273 
L 533.833605 -57.387273 
L 533.494557 -57.387273 
L 533.155509 -57.387273 
L 532.816461 -57.387273 
L 532.477413 -57.387273 
L 532.138365 -57.387273 
L 531.799317 -57.387273 
L 531.460268 -57.387273 
L 531.12122 -57.387273 
L 530.782172 -57.387273 
L 530.443124 -57.387273 
L 530.104076 -57.387273 
L 529.765028 -57.387273 
L 529.42598 -57.387273 
L 529.086931 -57.387273 
L 528.747883 -57.387273 
L 528.408835 -57.387273 
L 528.069787 -57.387273 
L 527.730739 -57.387273 
L 527.391691 -57.387273 
L 527.052643 -57.387273 
L 526.713595 -57.387273 
L 526.374546 -57.387273 
L 526.035498 -57.387273 
L 525.69645 -57.387273 
L 525.357402 -57.387273 
L 525.018354 -57.387273 
L 524.679306 -57.387273 
L 524.340258 -57.387273 
L 524.001209 -57.387273 
L 523.662161 -57.387273 
L 523.323113 -57.387273 
L 522.984065 -57.387273 
L 522.645017 -57.387273 
L 522.305969 -57.387273 
L 521.966921 -57.387273 
L 521.627872 -57.387273 
L 521.288824 -57.387273 
L 520.949776 -57.387273 
L 520.610728 -57.387273 
L 520.27168 -57.387273 
L 519.932632 -57.387273 
L 519.593584 -57.387273 
L 519.254535 -57.387273 
L 518.915487 -57.387273 
L 518.576439 -57.387273 
L 518.237391 -57.387273 
L 517.898343 -57.387273 
L 517.559295 -57.387273 
L 517.220247 -57.387273 
L 516.881198 -57.387273 
L 516.54215 -57.387273 
L 516.203102 -57.387273 
L 515.864054 -57.387273 
L 515.525006 -57.387273 
L 515.185958 -57.387273 
L 514.84691 -57.387273 
L 514.507861 -57.387273 
L 514.168813 -57.387273 
L 513.829765 -57.387273 
L 513.490717 -57.387273 
L 513.151669 -57.387273 
L 512.812621 -57.387273 
L 512.473573 -57.387273 
L 512.134525 -57.387273 
L 511.795476 -57.387273 
L 511.456428 -57.387273 
L 511.11738 -57.387273 
L 510.778332 -57.387273 
L 510.439284 -57.387273 
L 510.100236 -57.387273 
L 509.761188 -57.387273 
L 509.422139 -57.387273 
L 509.083091 -57.387273 
L 508.744043 -57.387273 
L 508.404995 -57.387273 
L 508.065947 -57.387273 
L 507.726899 -57.387273 
L 507.387851 -57.387273 
L 507.048802 -57.387273 
L 506.709754 -57.387273 
L 506.370706 -57.387273 
L 506.031658 -57.387273 
L 505.69261 -57.387273 
L 505.353562 -57.387273 
L 505.014514 -57.387273 
L 504.675465 -57.387273 
L 504.336417 -57.387273 
L 503.997369 -57.387273 
L 503.658321 -57.387273 
L 503.319273 -57.387273 
L 502.980225 -57.387273 
L 502.641177 -57.387273 
L 502.302128 -57.387273 
L 501.96308 -57.387273 
L 501.624032 -57.387273 
L 501.284984 -57.387273 
L 500.945936 -57.387273 
L 500.606888 -57.387273 
L 500.26784 -57.387273 
L 499.928792 -57.387273 
L 499.589743 -57.387273 
L 499.250695 -57.387273 
L 498.911647 -57.387273 
L 498.572599 -57.387273 
L 498.233551 -57.387273 
L 497.894503 -57.387273 
L 497.555455 -57.387273 
z
" style="stroke: #0000ff"/>
    </defs>
    <g clip-path="url(#peecfc18a1d)">
     <use xlink:href="#m5e58db6593" x="0" y="432" style="fill: #0000ff; stroke: #0000ff"/>
    </g>
   </g>
   <g id="matplotlib.axis_3">
    <g id="xtick_7">
     <g id="line2d_27">
      <path d="M 497.555455 390.04 
L 497.555455 50.64 
" clip-path="url(#peecfc18a1d)" style="fill: none; stroke: #b0b0b0; stroke-opacity: 0.3; stroke-width: 0.8; stroke-linecap: square"/>
     </g>
     <g id="line2d_28">
      <g>
       <use xlink:href="#m4d7132faaf" x="497.555455" y="390.04" style="stroke: #000000; stroke-width: 0.8"/>
      </g>
     </g>
     <g id="text_16">
      <!-- 0 -->
      <g transform="translate(494.374205 404.638438) scale(0.1 -0.1)">
       <use xlink:href="#DejaVuSans-30"/>
      </g>
     </g>
    </g>
    <g id="xtick_8">
     <g id="line2d_29">
      <path d="M 565.297273 390.04 
L 565.297273 50.64 
" clip-path="url(#peecfc18a1d)" style="fill: none; stroke: #b0b0b0; stroke-opacity: 0.3; stroke-width: 0.8; stroke-linecap: square"/>
     </g>
     <g id="line2d_30">
      <g>
       <use xlink:href="#m4d7132faaf" x="565.297273" y="390.04" style="stroke: #000000; stroke-width: 0.8"/>
      </g>
     </g>
     <g id="text_17">
      <!-- 20 -->
      <g transform="translate(558.934773 404.638438) scale(0.1 -0.1)">
       <use xlink:href="#DejaVuSans-32"/>
       <use xlink:href="#DejaVuSans-30" transform="translate(63.623047 0)"/>
      </g>
     </g>
    </g>
    <g id="xtick_9">
     <g id="line2d_31">
      <path d="M 633.039091 390.04 
L 633.039091 50.64 
" clip-path="url(#peecfc18a1d)" style="fill: none; stroke: #b0b0b0; stroke-opacity: 0.3; stroke-width: 0.8; stroke-linecap: square"/>
     </g>
     <g id="line2d_32">
      <g>
       <use xlink:href="#m4d7132faaf" x="633.039091" y="390.04" style="stroke: #000000; stroke-width: 0.8"/>
      </g>
     </g>
     <g id="text_18">
      <!-- 40 -->
      <g transform="translate(626.676591 404.638438) scale(0.1 -0.1)">
       <use xlink:href="#DejaVuSans-34"/>
       <use xlink:href="#DejaVuSans-30" transform="translate(63.623047 0)"/>
      </g>
     </g>
    </g>
    <g id="xtick_10">
     <g id="line2d_33">
      <path d="M 700.780909 390.04 
L 700.780909 50.64 
" clip-path="url(#peecfc18a1d)" style="fill: none; stroke: #b0b0b0; stroke-opacity: 0.3; stroke-width: 0.8; stroke-linecap: square"/>
     </g>
     <g id="line2d_34">
      <g>
       <use xlink:href="#m4d7132faaf" x="700.780909" y="390.04" style="stroke: #000000; stroke-width: 0.8"/>
      </g>
     </g>
     <g id="text_19">
      <!-- 60 -->
      <g transform="translate(694.418409 404.638438) scale(0.1 -0.1)">
       <use xlink:href="#DejaVuSans-36"/>
       <use xlink:href="#DejaVuSans-30" transform="translate(63.623047 0)"/>
      </g>
     </g>
    </g>
    <g id="xtick_11">
     <g id="line2d_35">
      <path d="M 768.522727 390.04 
L 768.522727 50.64 
" clip-path="url(#peecfc18a1d)" style="fill: none; stroke: #b0b0b0; stroke-opacity: 0.3; stroke-width: 0.8; stroke-linecap: square"/>
     </g>
     <g id="line2d_36">
      <g>
       <use xlink:href="#m4d7132faaf" x="768.522727" y="390.04" style="stroke: #000000; stroke-width: 0.8"/>
      </g>
     </g>
     <g id="text_20">
      <!-- 80 -->
      <g transform="translate(762.160227 404.638438) scale(0.1 -0.1)">
       <use xlink:href="#DejaVuSans-38"/>
       <use xlink:href="#DejaVuSans-30" transform="translate(63.623047 0)"/>
      </g>
     </g>
    </g>
    <g id="xtick_12">
     <g id="line2d_37">
      <path d="M 836.264545 390.04 
L 836.264545 50.64 
" clip-path="url(#peecfc18a1d)" style="fill: none; stroke: #b0b0b0; stroke-opacity: 0.3; stroke-width: 0.8; stroke-linecap: square"/>
     </g>
     <g id="line2d_38">
      <g>
       <use xlink:href="#m4d7132faaf" x="836.264545" y="390.04" style="stroke: #000000; stroke-width: 0.8"/>
      </g>
     </g>
     <g id="text_21">
      <!-- 100 -->
      <g transform="translate(826.720795 404.638438) scale(0.1 -0.1)">
       <use xlink:href="#DejaVuSans-31"/>
       <use xlink:href="#DejaVuSans-30" transform="translate(63.623047 0)"/>
       <use xlink:href="#DejaVuSans-30" transform="translate(127.246094 0)"/>
      </g>
     </g>
    </g>
    <g id="text_22">
     <!-- Chi-Square -->
     <g transform="translate(639.456094 418.316562) scale(0.1 -0.1)">
      <use xlink:href="#DejaVuSans-43"/>
      <use xlink:href="#DejaVuSans-68" transform="translate(69.824219 0)"/>
      <use xlink:href="#DejaVuSans-69" transform="translate(133.203125 0)"/>
      <use xlink:href="#DejaVuSans-2d" transform="translate(160.986328 0)"/>
      <use xlink:href="#DejaVuSans-53" transform="translate(197.070312 0)"/>
      <use xlink:href="#DejaVuSans-71" transform="translate(260.546875 0)"/>
      <use xlink:href="#DejaVuSans-75" transform="translate(324.023438 0)"/>
      <use xlink:href="#DejaVuSans-61" transform="translate(387.402344 0)"/>
      <use xlink:href="#DejaVuSans-72" transform="translate(448.681641 0)"/>
      <use xlink:href="#DejaVuSans-65" transform="translate(487.544922 0)"/>
     </g>
    </g>
   </g>
   <g id="matplotlib.axis_4">
    <g id="ytick_7">
     <g id="line2d_39">
      <path d="M 480.62 374.612727 
L 853.2 374.612727 
" clip-path="url(#peecfc18a1d)" style="fill: none; stroke: #b0b0b0; stroke-opacity: 0.3; stroke-width: 0.8; stroke-linecap: square"/>
     </g>
     <g id="line2d_40">
      <g>
       <use xlink:href="#mc56e994849" x="480.62" y="374.612727" style="stroke: #000000; stroke-width: 0.8"/>
      </g>
     </g>
     <g id="text_23">
      <!-- 0.00 -->
      <g transform="translate(451.354375 378.411946) scale(0.1 -0.1)">
       <use xlink:href="#DejaVuSans-30"/>
       <use xlink:href="#DejaVuSans-2e" transform="translate(63.623047 0)"/>
       <use xlink:href="#DejaVuSans-30" transform="translate(95.410156 0)"/>
       <use xlink:href="#DejaVuSans-30" transform="translate(159.033203 0)"/>
      </g>
     </g>
    </g>
    <g id="ytick_8">
     <g id="line2d_41">
      <path d="M 480.62 316.390235 
L 853.2 316.390235 
" clip-path="url(#peecfc18a1d)" style="fill: none; stroke: #b0b0b0; stroke-opacity: 0.3; stroke-width: 0.8; stroke-linecap: square"/>
     </g>
     <g id="line2d_42">
      <g>
       <use xlink:href="#mc56e994849" x="480.62" y="316.390235" style="stroke: #000000; stroke-width: 0.8"/>
      </g>
     </g>
     <g id="text_24">
      <!-- 0.01 -->
      <g transform="translate(451.354375 320.189454) scale(0.1 -0.1)">
       <use xlink:href="#DejaVuSans-30"/>
       <use xlink:href="#DejaVuSans-2e" transform="translate(63.623047 0)"/>
       <use xlink:href="#DejaVuSans-30" transform="translate(95.410156 0)"/>
       <use xlink:href="#DejaVuSans-31" transform="translate(159.033203 0)"/>
      </g>
     </g>
    </g>
    <g id="ytick_9">
     <g id="line2d_43">
      <path d="M 480.62 258.167743 
L 853.2 258.167743 
" clip-path="url(#peecfc18a1d)" style="fill: none; stroke: #b0b0b0; stroke-opacity: 0.3; stroke-width: 0.8; stroke-linecap: square"/>
     </g>
     <g id="line2d_44">
      <g>
       <use xlink:href="#mc56e994849" x="480.62" y="258.167743" style="stroke: #000000; stroke-width: 0.8"/>
      </g>
     </g>
     <g id="text_25">
      <!-- 0.02 -->
      <g transform="translate(451.354375 261.966962) scale(0.1 -0.1)">
       <use xlink:href="#DejaVuSans-30"/>
       <use xlink:href="#DejaVuSans-2e" transform="translate(63.623047 0)"/>
       <use xlink:href="#DejaVuSans-30" transform="translate(95.410156 0)"/>
       <use xlink:href="#DejaVuSans-32" transform="translate(159.033203 0)"/>
      </g>
     </g>
    </g>
    <g id="ytick_10">
     <g id="line2d_45">
      <path d="M 480.62 199.94525 
L 853.2 199.94525 
" clip-path="url(#peecfc18a1d)" style="fill: none; stroke: #b0b0b0; stroke-opacity: 0.3; stroke-width: 0.8; stroke-linecap: square"/>
     </g>
     <g id="line2d_46">
      <g>
       <use xlink:href="#mc56e994849" x="480.62" y="199.94525" style="stroke: #000000; stroke-width: 0.8"/>
      </g>
     </g>
     <g id="text_26">
      <!-- 0.03 -->
      <g transform="translate(451.354375 203.744469) scale(0.1 -0.1)">
       <use xlink:href="#DejaVuSans-30"/>
       <use xlink:href="#DejaVuSans-2e" transform="translate(63.623047 0)"/>
       <use xlink:href="#DejaVuSans-30" transform="translate(95.410156 0)"/>
       <use xlink:href="#DejaVuSans-33" transform="translate(159.033203 0)"/>
      </g>
     </g>
    </g>
    <g id="ytick_11">
     <g id="line2d_47">
      <path d="M 480.62 141.722758 
L 853.2 141.722758 
" clip-path="url(#peecfc18a1d)" style="fill: none; stroke: #b0b0b0; stroke-opacity: 0.3; stroke-width: 0.8; stroke-linecap: square"/>
     </g>
     <g id="line2d_48">
      <g>
       <use xlink:href="#mc56e994849" x="480.62" y="141.722758" style="stroke: #000000; stroke-width: 0.8"/>
      </g>
     </g>
     <g id="text_27">
      <!-- 0.04 -->
      <g transform="translate(451.354375 145.521977) scale(0.1 -0.1)">
       <use xlink:href="#DejaVuSans-30"/>
       <use xlink:href="#DejaVuSans-2e" transform="translate(63.623047 0)"/>
       <use xlink:href="#DejaVuSans-30" transform="translate(95.410156 0)"/>
       <use xlink:href="#DejaVuSans-34" transform="translate(159.033203 0)"/>
      </g>
     </g>
    </g>
    <g id="ytick_12">
     <g id="line2d_49">
      <path d="M 480.62 83.500266 
L 853.2 83.500266 
" clip-path="url(#peecfc18a1d)" style="fill: none; stroke: #b0b0b0; stroke-opacity: 0.3; stroke-width: 0.8; stroke-linecap: square"/>
     </g>
     <g id="line2d_50">
      <g>
       <use xlink:href="#mc56e994849" x="480.62" y="83.500266" style="stroke: #000000; stroke-width: 0.8"/>
      </g>
     </g>
     <g id="text_28">
      <!-- 0.05 -->
      <g transform="translate(451.354375 87.299485) scale(0.1 -0.1)">
       <use xlink:href="#DejaVuSans-30"/>
       <use xlink:href="#DejaVuSans-2e" transform="translate(63.623047 0)"/>
       <use xlink:href="#DejaVuSans-30" transform="translate(95.410156 0)"/>
       <use xlink:href="#DejaVuSans-35" transform="translate(159.033203 0)"/>
      </g>
     </g>
    </g>
    <g id="text_29">
     <!-- Probability Density -->
     <g transform="translate(445.274687 267.366562) rotate(-90) scale(0.1 -0.1)">
      <use xlink:href="#DejaVuSans-50"/>
      <use xlink:href="#DejaVuSans-72" transform="translate(58.552734 0)"/>
      <use xlink:href="#DejaVuSans-6f" transform="translate(97.416016 0)"/>
      <use xlink:href="#DejaVuSans-62" transform="translate(158.597656 0)"/>
      <use xlink:href="#DejaVuSans-61" transform="translate(222.074219 0)"/>
      <use xlink:href="#DejaVuSans-62" transform="translate(283.353516 0)"/>
      <use xlink:href="#DejaVuSans-69" transform="translate(346.830078 0)"/>
      <use xlink:href="#DejaVuSans-6c" transform="translate(374.613281 0)"/>
      <use xlink:href="#DejaVuSans-69" transform="translate(402.396484 0)"/>
      <use xlink:href="#DejaVuSans-74" transform="translate(430.179688 0)"/>
      <use xlink:href="#DejaVuSans-79" transform="translate(469.388672 0)"/>
      <use xlink:href="#DejaVuSans-20" transform="translate(528.568359 0)"/>
      <use xlink:href="#DejaVuSans-44" transform="translate(560.355469 0)"/>
      <use xlink:href="#DejaVuSans-65" transform="translate(637.357422 0)"/>
      <use xlink:href="#DejaVuSans-6e" transform="translate(698.880859 0)"/>
      <use xlink:href="#DejaVuSans-73" transform="translate(762.259766 0)"/>
      <use xlink:href="#DejaVuSans-69" transform="translate(814.359375 0)"/>
      <use xlink:href="#DejaVuSans-74" transform="translate(842.142578 0)"/>
      <use xlink:href="#DejaVuSans-79" transform="translate(881.351562 0)"/>
     </g>
    </g>
   </g>
   <g id="line2d_51">
    <path d="M 497.555455 374.612727 
L 523.323113 374.513932 
L 526.713595 374.274695 
L 529.086931 373.900553 
L 531.12122 373.34712 
L 532.816461 372.648505 
L 534.172654 371.885568 
L 535.528846 370.898364 
L 536.885039 369.643394 
L 538.241231 368.074231 
L 539.597424 366.14244 
L 540.953616 363.798679 
L 542.309809 360.993956 
L 543.666001 357.680981 
L 545.022194 353.815584 
L 546.378387 349.358142 
L 548.073627 342.903124 
L 549.768868 335.421322 
L 551.464109 326.884184 
L 553.159349 317.286942 
L 555.193638 304.402194 
L 557.227927 290.108981 
L 559.601264 271.844552 
L 562.313649 249.264313 
L 566.382227 213.26654 
L 572.485093 159.309907 
L 575.197478 137.27709 
L 577.570815 119.766024 
L 579.605104 106.382734 
L 581.300345 96.534326 
L 582.995586 87.973793 
L 584.351778 82.102347 
L 585.707971 77.129286 
L 587.064163 73.072638 
L 588.081308 70.637382 
L 589.098452 68.723616 
L 590.115597 67.3294 
L 590.793693 66.686465 
L 591.471789 66.270601 
L 592.149885 66.079444 
L 592.827982 66.110196 
L 593.506078 66.359644 
L 594.184174 66.824183 
L 594.86227 67.499838 
L 595.879415 68.899606 
L 596.896559 70.748614 
L 597.913704 73.02942 
L 599.269896 76.709595 
L 600.626089 81.076417 
L 602.32133 87.42355 
L 604.01657 94.66166 
L 606.050859 104.37375 
L 608.424196 116.884726 
L 611.136581 132.382307 
L 614.866111 155.046419 
L 625.715651 221.919851 
L 629.106132 241.195125 
L 632.157566 257.391052 
L 635.208999 272.359469 
L 637.921384 284.574741 
L 640.633769 295.744219 
L 643.007106 304.664585 
L 645.380443 312.806858 
L 647.75378 320.198081 
L 650.127117 326.872596 
L 652.500454 332.870079 
L 654.873791 338.233816 
L 657.247128 343.009208 
L 659.620465 347.242521 
L 661.993802 350.979848 
L 664.367139 354.266283 
L 666.740476 357.145278 
L 669.113813 359.65816 
L 671.48715 361.843797 
L 673.860487 363.738385 
L 676.233824 365.375331 
L 678.946209 366.969756 
L 681.658594 368.308742 
L 684.710027 369.55522 
L 687.761461 370.570308 
L 691.151942 371.474371 
L 694.881471 372.248891 
L 699.289097 372.932534 
L 704.374819 373.488918 
L 710.477686 373.926839 
L 718.275793 374.253794 
L 729.125334 374.471082 
L 747.433933 374.585179 
L 803.037828 374.612602 
L 836.264545 374.612723 
L 836.264545 374.612723 
" clip-path="url(#peecfc18a1d)" style="fill: none; stroke: #1f77b4; stroke-width: 1.5; stroke-linecap: square"/>
   </g>
   <g id="line2d_52">
    <path d="M 656.678419 390.04 
L 656.678419 50.64 
" clip-path="url(#peecfc18a1d)" style="fill: none; stroke-dasharray: 5.55,2.4; stroke-dashoffset: 0; stroke: #ff0000; stroke-width: 1.5"/>
   </g>
   <g id="patch_8">
    <path d="M 480.62 390.04 
L 480.62 50.64 
" style="fill: none; stroke: #000000; stroke-width: 0.8; stroke-linejoin: miter; stroke-linecap: square"/>
   </g>
   <g id="patch_9">
    <path d="M 853.2 390.04 
L 853.2 50.64 
" style="fill: none; stroke: #000000; stroke-width: 0.8; stroke-linejoin: miter; stroke-linecap: square"/>
   </g>
   <g id="patch_10">
    <path d="M 480.62 390.04 
L 853.2 390.04 
" style="fill: none; stroke: #000000; stroke-width: 0.8; stroke-linejoin: miter; stroke-linecap: square"/>
   </g>
   <g id="patch_11">
    <path d="M 480.62 50.64 
L 853.2 50.64 
" style="fill: none; stroke: #000000; stroke-width: 0.8; stroke-linejoin: miter; stroke-linecap: square"/>
   </g>
   <g id="text_30">
    <!-- Upper Tail: 1 - α/2 = 0.975 -->
    <g transform="translate(587.613437 44.64) scale(0.12 -0.12)">
     <defs>
      <path id="DejaVuSans-55" d="M 556 4666 
L 1191 4666 
L 1191 1831 
Q 1191 1081 1462 751 
Q 1734 422 2344 422 
Q 2950 422 3222 751 
Q 3494 1081 3494 1831 
L 3494 4666 
L 4128 4666 
L 4128 1753 
Q 4128 841 3676 375 
Q 3225 -91 2344 -91 
Q 1459 -91 1007 375 
Q 556 841 556 1753 
L 556 4666 
z
" transform="scale(0.015625)"/>
      <path id="DejaVuSans-70" d="M 1159 525 
L 1159 -1331 
L 581 -1331 
L 581 3500 
L 1159 3500 
L 1159 2969 
Q 1341 3281 1617 3432 
Q 1894 3584 2278 3584 
Q 2916 3584 3314 3078 
Q 3713 2572 3713 1747 
Q 3713 922 3314 415 
Q 2916 -91 2278 -91 
Q 1894 -91 1617 61 
Q 1341 213 1159 525 
z
M 3116 1747 
Q 3116 2381 2855 2742 
Q 2594 3103 2138 3103 
Q 1681 3103 1420 2742 
Q 1159 2381 1159 1747 
Q 1159 1113 1420 752 
Q 1681 391 2138 391 
Q 2594 391 2855 752 
Q 3116 1113 3116 1747 
z
" transform="scale(0.015625)"/>
      <path id="DejaVuSans-39" d="M 703 97 
L 703 672 
Q 941 559 1184 500 
Q 1428 441 1663 441 
Q 2288 441 2617 861 
Q 2947 1281 2994 2138 
Q 2813 1869 2534 1725 
Q 2256 1581 1919 1581 
Q 1219 1581 811 2004 
Q 403 2428 403 3163 
Q 403 3881 828 4315 
Q 1253 4750 1959 4750 
Q 2769 4750 3195 4129 
Q 3622 3509 3622 2328 
Q 3622 1225 3098 567 
Q 2575 -91 1691 -91 
Q 1453 -91 1209 -44 
Q 966 3 703 97 
z
M 1959 2075 
Q 2384 2075 2632 2365 
Q 2881 2656 2881 3163 
Q 2881 3666 2632 3958 
Q 2384 4250 1959 4250 
Q 1534 4250 1286 3958 
Q 1038 3666 1038 3163 
Q 1038 2656 1286 2365 
Q 1534 2075 1959 2075 
z
" transform="scale(0.015625)"/>
      <path id="DejaVuSans-37" d="M 525 4666 
L 3525 4666 
L 3525 4397 
L 1831 0 
L 1172 0 
L 2766 4134 
L 525 4134 
L 525 4666 
z
" transform="scale(0.015625)"/>
     </defs>
     <use xlink:href="#DejaVuSans-55"/>
     <use xlink:href="#DejaVuSans-70" transform="translate(73.193359 0)"/>
     <use xlink:href="#DejaVuSans-70" transform="translate(136.669922 0)"/>
     <use xlink:href="#DejaVuSans-65" transform="translate(200.146484 0)"/>
     <use xlink:href="#DejaVuSans-72" transform="translate(261.669922 0)"/>
     <use xlink:href="#DejaVuSans-20" transform="translate(302.783203 0)"/>
     <use xlink:href="#DejaVuSans-54" transform="translate(334.570312 0)"/>
     <use xlink:href="#DejaVuSans-61" transform="translate(379.154297 0)"/>
     <use xlink:href="#DejaVuSans-69" transform="translate(440.433594 0)"/>
     <use xlink:href="#DejaVuSans-6c" transform="translate(468.216797 0)"/>
     <use xlink:href="#DejaVuSans-3a" transform="translate(496 0)"/>
     <use xlink:href="#DejaVuSans-20" transform="translate(529.691406 0)"/>
     <use xlink:href="#DejaVuSans-31" transform="translate(561.478516 0)"/>
     <use xlink:href="#DejaVuSans-20" transform="translate(625.101562 0)"/>
     <use xlink:href="#DejaVuSans-2d" transform="translate(656.888672 0)"/>
     <use xlink:href="#DejaVuSans-20" transform="translate(692.972656 0)"/>
     <use xlink:href="#DejaVuSans-3b1" transform="translate(724.759766 0)"/>
     <use xlink:href="#DejaVuSans-2f" transform="translate(790.677734 0)"/>
     <use xlink:href="#DejaVuSans-32" transform="translate(824.369141 0)"/>
     <use xlink:href="#DejaVuSans-20" transform="translate(887.992188 0)"/>
     <use xlink:href="#DejaVuSans-3d" transform="translate(919.779297 0)"/>
     <use xlink:href="#DejaVuSans-20" transform="translate(1003.568359 0)"/>
     <use xlink:href="#DejaVuSans-30" transform="translate(1035.355469 0)"/>
     <use xlink:href="#DejaVuSans-2e" transform="translate(1098.978516 0)"/>
     <use xlink:href="#DejaVuSans-39" transform="translate(1130.765625 0)"/>
     <use xlink:href="#DejaVuSans-37" transform="translate(1194.388672 0)"/>
     <use xlink:href="#DejaVuSans-35" transform="translate(1258.011719 0)"/>
    </g>
   </g>
  </g>
  <g id="text_31">
   <!-- Chi-Square Distribution (df=30, alpha=0.05) -->
   <g transform="translate(298.14 17.758125) scale(0.12 -0.12)">
    <defs>
     <path id="DejaVuSans-28" d="M 1984 4856 
Q 1566 4138 1362 3434 
Q 1159 2731 1159 2009 
Q 1159 1288 1364 580 
Q 1569 -128 1984 -844 
L 1484 -844 
Q 1016 -109 783 600 
Q 550 1309 550 2009 
Q 550 2706 781 3412 
Q 1013 4119 1484 4856 
L 1984 4856 
z
" transform="scale(0.015625)"/>
     <path id="DejaVuSans-64" d="M 2906 2969 
L 2906 4863 
L 3481 4863 
L 3481 0 
L 2906 0 
L 2906 525 
Q 2725 213 2448 61 
Q 2172 -91 1784 -91 
Q 1150 -91 751 415 
Q 353 922 353 1747 
Q 353 2572 751 3078 
Q 1150 3584 1784 3584 
Q 2172 3584 2448 3432 
Q 2725 3281 2906 2969 
z
M 947 1747 
Q 947 1113 1208 752 
Q 1469 391 1925 391 
Q 2381 391 2643 752 
Q 2906 1113 2906 1747 
Q 2906 2381 2643 2742 
Q 2381 3103 1925 3103 
Q 1469 3103 1208 2742 
Q 947 2381 947 1747 
z
" transform="scale(0.015625)"/>
     <path id="DejaVuSans-66" d="M 2375 4863 
L 2375 4384 
L 1825 4384 
Q 1516 4384 1395 4259 
Q 1275 4134 1275 3809 
L 1275 3500 
L 2222 3500 
L 2222 3053 
L 1275 3053 
L 1275 0 
L 697 0 
L 697 3053 
L 147 3053 
L 147 3500 
L 697 3500 
L 697 3744 
Q 697 4328 969 4595 
Q 1241 4863 1831 4863 
L 2375 4863 
z
" transform="scale(0.015625)"/>
     <path id="DejaVuSans-2c" d="M 750 794 
L 1409 794 
L 1409 256 
L 897 -744 
L 494 -744 
L 750 256 
L 750 794 
z
" transform="scale(0.015625)"/>
     <path id="DejaVuSans-29" d="M 513 4856 
L 1013 4856 
Q 1481 4119 1714 3412 
Q 1947 2706 1947 2009 
Q 1947 1309 1714 600 
Q 1481 -109 1013 -844 
L 513 -844 
Q 928 -128 1133 580 
Q 1338 1288 1338 2009 
Q 1338 2731 1133 3434 
Q 928 4138 513 4856 
z
" transform="scale(0.015625)"/>
    </defs>
    <use xlink:href="#DejaVuSans-43"/>
    <use xlink:href="#DejaVuSans-68" transform="translate(69.824219 0)"/>
    <use xlink:href="#DejaVuSans-69" transform="translate(133.203125 0)"/>
    <use xlink:href="#DejaVuSans-2d" transform="translate(160.986328 0)"/>
    <use xlink:href="#DejaVuSans-53" transform="translate(197.070312 0)"/>
    <use xlink:href="#DejaVuSans-71" transform="translate(260.546875 0)"/>
    <use xlink:href="#DejaVuSans-75" transform="translate(324.023438 0)"/>
    <use xlink:href="#DejaVuSans-61" transform="translate(387.402344 0)"/>
    <use xlink:href="#DejaVuSans-72" transform="translate(448.681641 0)"/>
    <use xlink:href="#DejaVuSans-65" transform="translate(487.544922 0)"/>
    <use xlink:href="#DejaVuSans-20" transform="translate(549.068359 0)"/>
    <use xlink:href="#DejaVuSans-44" transform="translate(580.855469 0)"/>
    <use xlink:href="#DejaVuSans-69" transform="translate(657.857422 0)"/>
    <use xlink:href="#DejaVuSans-73" transform="translate(685.640625 0)"/>
    <use xlink:href="#DejaVuSans-74" transform="translate(737.740234 0)"/>
    <use xlink:href="#DejaVuSans-72" transform="translate(776.949219 0)"/>
    <use xlink:href="#DejaVuSans-69" transform="translate(818.0625 0)"/>
    <use xlink:href="#DejaVuSans-62" transform="translate(845.845703 0)"/>
    <use xlink:href="#DejaVuSans-75" transform="translate(909.322266 0)"/>
    <use xlink:href="#DejaVuSans-74" transform="translate(972.701172 0)"/>
    <use xlink:href="#DejaVuSans-69" transform="translate(1011.910156 0)"/>
    <use xlink:href="#DejaVuSans-6f" transform="translate(1039.693359 0)"/>
    <use xlink:href="#DejaVuSans-6e" transform="translate(1100.875 0)"/>
    <use xlink:href="#DejaVuSans-20" transform="translate(1164.253906 0)"/>
    <use xlink:href="#DejaVuSans-28" transform="translate(1196.041016 0)"/>
    <use xlink:href="#DejaVuSans-64" transform="translate(1235.054688 0)"/>
    <use xlink:href="#DejaVuSans-66" transform="translate(1298.53125 0)"/>
    <use xlink:href="#DejaVuSans-3d" transform="translate(1333.736328 0)"/>
    <use xlink:href="#DejaVuSans-33" transform="translate(1417.525391 0)"/>
    <use xlink:href="#DejaVuSans-30" transform="translate(1481.148438 0)"/>
    <use xlink:href="#DejaVuSans-2c" transform="translate(1544.771484 0)"/>
    <use xlink:href="#DejaVuSans-20" transform="translate(1576.558594 0)"/>
    <use xlink:href="#DejaVuSans-61" transform="translate(1608.345703 0)"/>
    <use xlink:href="#DejaVuSans-6c" transform="translate(1669.625 0)"/>
    <use xlink:href="#DejaVuSans-70" transform="translate(1697.408203 0)"/>
    <use xlink:href="#DejaVuSans-68" transform="translate(1760.884766 0)"/>
    <use xlink:href="#DejaVuSans-61" transform="translate(1824.263672 0)"/>
    <use xlink:href="#DejaVuSans-3d" transform="translate(1885.542969 0)"/>
    <use xlink:href="#DejaVuSans-30" transform="translate(1969.332031 0)"/>
    <use xlink:href="#DejaVuSans-2e" transform="translate(2032.955078 0)"/>
    <use xlink:href="#DejaVuSans-30" transform="translate(2064.742188 0)"/>
    <use xlink:href="#DejaVuSans-35" transform="translate(2128.365234 0)"/>
    <use xlink:href="#DejaVuSans-29" transform="translate(2191.988281 0)"/>
   </g>
  </g>
 </g>
 <defs>
  <clipPath id="p30e07aca47">
   <rect x="54.02" y="50.64" width="372.58" height="339.4"/>
  </clipPath>
  <clipPath id="peecfc18a1d">
   <rect x="480.62" y="50.64" width="372.58" height="339.4"/>
  </clipPath>
 </defs>
</svg>
