<?xml version="1.0" encoding="utf-8" standalone="no"?>
<!DOCTYPE svg PUBLIC "-//W3C//DTD SVG 1.1//EN"
  "http://www.w3.org/Graphics/SVG/1.1/DTD/svg11.dtd">
<svg xmlns:xlink="http://www.w3.org/1999/xlink" width="460.8pt" height="345.6pt" viewBox="0 0 460.8 345.6" xmlns="http://www.w3.org/2000/svg" version="1.1">
 <metadata>
  <rdf:RDF xmlns:dc="http://purl.org/dc/elements/1.1/" xmlns:cc="http://creativecommons.org/ns#" xmlns:rdf="http://www.w3.org/1999/02/22-rdf-syntax-ns#">
   <cc:Work>
    <dc:type rdf:resource="http://purl.org/dc/dcmitype/StillImage"/>
    <dc:date>2025-06-18T20:12:31.157940</dc:date>
    <dc:format>image/svg+xml</dc:format>
    <dc:creator>
     <cc:Agent>
      <dc:title>Matplotlib v3.10.3, https://matplotlib.org/</dc:title>
     </cc:Agent>
    </dc:creator>
   </cc:Work>
  </rdf:RDF>
 </metadata>
 <defs>
  <style type="text/css">*{stroke-linejoin: round; stroke-linecap: butt}</style>
 </defs>
 <g id="figure_1">
  <g id="patch_1">
   <path d="M 0 345.6 
L 460.8 345.6 
L 460.8 0 
L 0 0 
z
" style="fill: #ffffff"/>
  </g>
  <g id="axes_1">
   <g id="patch_2">
    <path d="M 57.6 307.584 
L 414.72 307.584 
L 414.72 41.472 
L 57.6 41.472 
z
" style="fill: #ffffff"/>
   </g>
   <g id="FillBetweenPolyCollection_1">
    <defs>
     <path id="m741f321347" d="M 195.700049 -50.112 
L 195.700049 -197.285712 
L 196.025029 -198.460687 
L 196.350008 -199.635454 
L 196.674988 -200.80986 
L 196.999967 -201.98375 
L 197.324947 -203.15697 
L 197.649926 -204.329363 
L 197.974906 -205.500772 
L 198.299885 -206.671038 
L 198.624865 -207.840003 
L 198.949844 -209.007506 
L 199.274824 -210.173386 
L 199.599803 -211.337482 
L 199.924783 -212.499629 
L 200.249762 -213.659665 
L 200.574742 -214.817426 
L 200.899722 -215.972745 
L 201.224701 -217.125458 
L 201.549681 -218.275398 
L 201.87466 -219.422398 
L 202.19964 -220.566289 
L 202.524619 -221.706905 
L 202.849599 -222.844076 
L 203.174578 -223.977633 
L 203.499558 -225.107406 
L 203.824537 -226.233226 
L 204.149517 -227.354922 
L 204.474496 -228.472324 
L 204.799476 -229.58526 
L 205.124455 -230.693561 
L 205.449435 -231.797054 
L 205.774414 -232.895568 
L 206.099394 -233.988932 
L 206.424373 -235.076975 
L 206.749353 -236.159524 
L 207.074333 -237.236409 
L 207.399312 -238.307458 
L 207.724292 -239.3725 
L 208.049271 -240.431364 
L 208.374251 -241.48388 
L 208.69923 -242.529876 
L 209.02421 -243.569184 
L 209.349189 -244.601632 
L 209.674169 -245.627052 
L 209.999148 -246.645274 
L 210.324128 -247.656131 
L 210.649107 -248.659454 
L 210.974087 -249.655076 
L 211.299066 -250.64283 
L 211.624046 -251.622552 
L 211.949025 -252.594074 
L 212.274005 -253.557233 
L 212.598984 -254.511866 
L 212.923964 -255.45781 
L 213.248943 -256.394902 
L 213.573923 -257.322982 
L 213.898903 -258.24189 
L 214.223882 -259.151467 
L 214.548862 -260.051556 
L 214.873841 -260.942 
L 215.198821 -261.822643 
L 215.5238 -262.693333 
L 215.84878 -263.553915 
L 216.173759 -264.404238 
L 216.498739 -265.244152 
L 216.823718 -266.073509 
L 217.148698 -266.892161 
L 217.473677 -267.699962 
L 217.798657 -268.496768 
L 218.123636 -269.282437 
L 218.448616 -270.056827 
L 218.773595 -270.819799 
L 219.098575 -271.571216 
L 219.423554 -272.310941 
L 219.748534 -273.03884 
L 220.073514 -273.754782 
L 220.398493 -274.458636 
L 220.723473 -275.150273 
L 221.048452 -275.829568 
L 221.373432 -276.496394 
L 221.698411 -277.150631 
L 222.023391 -277.792157 
L 222.34837 -278.420854 
L 222.67335 -279.036606 
L 222.998329 -279.6393 
L 223.323309 -280.228822 
L 223.648288 -280.805065 
L 223.973268 -281.367919 
L 224.298247 -281.917282 
L 224.623227 -282.453049 
L 224.948206 -282.975121 
L 225.273186 -283.4834 
L 225.598165 -283.977791 
L 225.923145 -284.4582 
L 226.248124 -284.924538 
L 226.573104 -285.376716 
L 226.898084 -285.814649 
L 227.223063 -286.238254 
L 227.548043 -286.647452 
L 227.873022 -287.042164 
L 228.198002 -287.422316 
L 228.522981 -287.787836 
L 228.847961 -288.138654 
L 229.17294 -288.474704 
L 229.49792 -288.795922 
L 229.822899 -289.102245 
L 230.147879 -289.393617 
L 230.472858 -289.669981 
L 230.797838 -289.931285 
L 231.122817 -290.177478 
L 231.447797 -290.408513 
L 231.772776 -290.624347 
L 232.097756 -290.824938 
L 232.422735 -291.010247 
L 232.747715 -291.180239 
L 233.072695 -291.334881 
L 233.397674 -291.474144 
L 233.722654 -291.598001 
L 234.047633 -291.706428 
L 234.372613 -291.799404 
L 234.697592 -291.876911 
L 235.022572 -291.938935 
L 235.347551 -291.985463 
L 235.672531 -292.016487 
L 235.99751 -292.032 
L 236.32249 -292.032 
L 236.647469 -292.016487 
L 236.972449 -291.985463 
L 237.297428 -291.938935 
L 237.622408 -291.876911 
L 237.947387 -291.799404 
L 238.272367 -291.706428 
L 238.597346 -291.598001 
L 238.922326 -291.474144 
L 239.247305 -291.334881 
L 239.572285 -291.180239 
L 239.897265 -291.010247 
L 240.222244 -290.824938 
L 240.547224 -290.624347 
L 240.872203 -290.408513 
L 241.197183 -290.177478 
L 241.522162 -289.931285 
L 241.847142 -289.669981 
L 242.172121 -289.393617 
L 242.497101 -289.102245 
L 242.82208 -288.795922 
L 243.14706 -288.474704 
L 243.472039 -288.138654 
L 243.797019 -287.787836 
L 244.121998 -287.422316 
L 244.446978 -287.042164 
L 244.771957 -286.647452 
L 245.096937 -286.238254 
L 245.421916 -285.814649 
L 245.746896 -285.376716 
L 246.071876 -284.924538 
L 246.396855 -284.4582 
L 246.721835 -283.977791 
L 247.046814 -283.4834 
L 247.371794 -282.975121 
L 247.696773 -282.453049 
L 248.021753 -281.917282 
L 248.346732 -281.367919 
L 248.671712 -280.805065 
L 248.996691 -280.228822 
L 249.321671 -279.6393 
L 249.64665 -279.036606 
L 249.97163 -278.420854 
L 250.296609 -277.792157 
L 250.621589 -277.150631 
L 250.946568 -276.496394 
L 251.271548 -275.829568 
L 251.596527 -275.150273 
L 251.921507 -274.458636 
L 252.246486 -273.754782 
L 252.571466 -273.03884 
L 252.896446 -272.310941 
L 253.221425 -271.571216 
L 253.546405 -270.819799 
L 253.871384 -270.056827 
L 254.196364 -269.282437 
L 254.521343 -268.496768 
L 254.846323 -267.699962 
L 255.171302 -266.892161 
L 255.496282 -266.073509 
L 255.821261 -265.244152 
L 256.146241 -264.404238 
L 256.47122 -263.553915 
L 256.7962 -262.693333 
L 257.121179 -261.822643 
L 257.446159 -260.942 
L 257.771138 -260.051556 
L 258.096118 -259.151467 
L 258.421097 -258.24189 
L 258.746077 -257.322982 
L 259.071057 -256.394902 
L 259.396036 -255.45781 
L 259.721016 -254.511866 
L 260.045995 -253.557233 
L 260.370975 -252.594074 
L 260.695954 -251.622552 
L 261.020934 -250.64283 
L 261.345913 -249.655076 
L 261.670893 -248.659454 
L 261.995872 -247.656131 
L 262.320852 -246.645274 
L 262.645831 -245.627052 
L 262.970811 -244.601632 
L 263.29579 -243.569184 
L 263.62077 -242.529876 
L 263.945749 -241.48388 
L 264.270729 -240.431364 
L 264.595708 -239.3725 
L 264.920688 -238.307458 
L 265.245667 -237.236409 
L 265.570647 -236.159524 
L 265.895627 -235.076975 
L 266.220606 -233.988932 
L 266.545586 -232.895568 
L 266.870565 -231.797054 
L 267.195545 -230.693561 
L 267.520524 -229.58526 
L 267.845504 -228.472324 
L 268.170483 -227.354922 
L 268.495463 -226.233226 
L 268.820442 -225.107406 
L 269.145422 -223.977633 
L 269.470401 -222.844076 
L 269.795381 -221.706905 
L 270.12036 -220.566289 
L 270.44534 -219.422398 
L 270.770319 -218.275398 
L 271.095299 -217.125458 
L 271.420278 -215.972745 
L 271.745258 -214.817426 
L 272.070238 -213.659665 
L 272.395217 -212.499629 
L 272.720197 -211.337482 
L 273.045176 -210.173386 
L 273.370156 -209.007506 
L 273.695135 -207.840003 
L 274.020115 -206.671038 
L 274.345094 -205.500772 
L 274.670074 -204.329363 
L 274.995053 -203.15697 
L 275.320033 -201.98375 
L 275.645012 -200.80986 
L 275.969992 -199.635454 
L 276.294971 -198.460687 
L 276.619951 -197.285712 
L 276.619951 -50.112 
L 276.619951 -50.112 
L 276.294971 -50.112 
L 275.969992 -50.112 
L 275.645012 -50.112 
L 275.320033 -50.112 
L 274.995053 -50.112 
L 274.670074 -50.112 
L 274.345094 -50.112 
L 274.020115 -50.112 
L 273.695135 -50.112 
L 273.370156 -50.112 
L 273.045176 -50.112 
L 272.720197 -50.112 
L 272.395217 -50.112 
L 272.070238 -50.112 
L 271.745258 -50.112 
L 271.420278 -50.112 
L 271.095299 -50.112 
L 270.770319 -50.112 
L 270.44534 -50.112 
L 270.12036 -50.112 
L 269.795381 -50.112 
L 269.470401 -50.112 
L 269.145422 -50.112 
L 268.820442 -50.112 
L 268.495463 -50.112 
L 268.170483 -50.112 
L 267.845504 -50.112 
L 267.520524 -50.112 
L 267.195545 -50.112 
L 266.870565 -50.112 
L 266.545586 -50.112 
L 266.220606 -50.112 
L 265.895627 -50.112 
L 265.570647 -50.112 
L 265.245667 -50.112 
L 264.920688 -50.112 
L 264.595708 -50.112 
L 264.270729 -50.112 
L 263.945749 -50.112 
L 263.62077 -50.112 
L 263.29579 -50.112 
L 262.970811 -50.112 
L 262.645831 -50.112 
L 262.320852 -50.112 
L 261.995872 -50.112 
L 261.670893 -50.112 
L 261.345913 -50.112 
L 261.020934 -50.112 
L 260.695954 -50.112 
L 260.370975 -50.112 
L 260.045995 -50.112 
L 259.721016 -50.112 
L 259.396036 -50.112 
L 259.071057 -50.112 
L 258.746077 -50.112 
L 258.421097 -50.112 
L 258.096118 -50.112 
L 257.771138 -50.112 
L 257.446159 -50.112 
L 257.121179 -50.112 
L 256.7962 -50.112 
L 256.47122 -50.112 
L 256.146241 -50.112 
L 255.821261 -50.112 
L 255.496282 -50.112 
L 255.171302 -50.112 
L 254.846323 -50.112 
L 254.521343 -50.112 
L 254.196364 -50.112 
L 253.871384 -50.112 
L 253.546405 -50.112 
L 253.221425 -50.112 
L 252.896446 -50.112 
L 252.571466 -50.112 
L 252.246486 -50.112 
L 251.921507 -50.112 
L 251.596527 -50.112 
L 251.271548 -50.112 
L 250.946568 -50.112 
L 250.621589 -50.112 
L 250.296609 -50.112 
L 249.97163 -50.112 
L 249.64665 -50.112 
L 249.321671 -50.112 
L 248.996691 -50.112 
L 248.671712 -50.112 
L 248.346732 -50.112 
L 248.021753 -50.112 
L 247.696773 -50.112 
L 247.371794 -50.112 
L 247.046814 -50.112 
L 246.721835 -50.112 
L 246.396855 -50.112 
L 246.071876 -50.112 
L 245.746896 -50.112 
L 245.421916 -50.112 
L 245.096937 -50.112 
L 244.771957 -50.112 
L 244.446978 -50.112 
L 244.121998 -50.112 
L 243.797019 -50.112 
L 243.472039 -50.112 
L 243.14706 -50.112 
L 242.82208 -50.112 
L 242.497101 -50.112 
L 242.172121 -50.112 
L 241.847142 -50.112 
L 241.522162 -50.112 
L 241.197183 -50.112 
L 240.872203 -50.112 
L 240.547224 -50.112 
L 240.222244 -50.112 
L 239.897265 -50.112 
L 239.572285 -50.112 
L 239.247305 -50.112 
L 238.922326 -50.112 
L 238.597346 -50.112 
L 238.272367 -50.112 
L 237.947387 -50.112 
L 237.622408 -50.112 
L 237.297428 -50.112 
L 236.972449 -50.112 
L 236.647469 -50.112 
L 236.32249 -50.112 
L 235.99751 -50.112 
L 235.672531 -50.112 
L 235.347551 -50.112 
L 235.022572 -50.112 
L 234.697592 -50.112 
L 234.372613 -50.112 
L 234.047633 -50.112 
L 233.722654 -50.112 
L 233.397674 -50.112 
L 233.072695 -50.112 
L 232.747715 -50.112 
L 232.422735 -50.112 
L 232.097756 -50.112 
L 231.772776 -50.112 
L 231.447797 -50.112 
L 231.122817 -50.112 
L 230.797838 -50.112 
L 230.472858 -50.112 
L 230.147879 -50.112 
L 229.822899 -50.112 
L 229.49792 -50.112 
L 229.17294 -50.112 
L 228.847961 -50.112 
L 228.522981 -50.112 
L 228.198002 -50.112 
L 227.873022 -50.112 
L 227.548043 -50.112 
L 227.223063 -50.112 
L 226.898084 -50.112 
L 226.573104 -50.112 
L 226.248124 -50.112 
L 225.923145 -50.112 
L 225.598165 -50.112 
L 225.273186 -50.112 
L 224.948206 -50.112 
L 224.623227 -50.112 
L 224.298247 -50.112 
L 223.973268 -50.112 
L 223.648288 -50.112 
L 223.323309 -50.112 
L 222.998329 -50.112 
L 222.67335 -50.112 
L 222.34837 -50.112 
L 222.023391 -50.112 
L 221.698411 -50.112 
L 221.373432 -50.112 
L 221.048452 -50.112 
L 220.723473 -50.112 
L 220.398493 -50.112 
L 220.073514 -50.112 
L 219.748534 -50.112 
L 219.423554 -50.112 
L 219.098575 -50.112 
L 218.773595 -50.112 
L 218.448616 -50.112 
L 218.123636 -50.112 
L 217.798657 -50.112 
L 217.473677 -50.112 
L 217.148698 -50.112 
L 216.823718 -50.112 
L 216.498739 -50.112 
L 216.173759 -50.112 
L 215.84878 -50.112 
L 215.5238 -50.112 
L 215.198821 -50.112 
L 214.873841 -50.112 
L 214.548862 -50.112 
L 214.223882 -50.112 
L 213.898903 -50.112 
L 213.573923 -50.112 
L 213.248943 -50.112 
L 212.923964 -50.112 
L 212.598984 -50.112 
L 212.274005 -50.112 
L 211.949025 -50.112 
L 211.624046 -50.112 
L 211.299066 -50.112 
L 210.974087 -50.112 
L 210.649107 -50.112 
L 210.324128 -50.112 
L 209.999148 -50.112 
L 209.674169 -50.112 
L 209.349189 -50.112 
L 209.02421 -50.112 
L 208.69923 -50.112 
L 208.374251 -50.112 
L 208.049271 -50.112 
L 207.724292 -50.112 
L 207.399312 -50.112 
L 207.074333 -50.112 
L 206.749353 -50.112 
L 206.424373 -50.112 
L 206.099394 -50.112 
L 205.774414 -50.112 
L 205.449435 -50.112 
L 205.124455 -50.112 
L 204.799476 -50.112 
L 204.474496 -50.112 
L 204.149517 -50.112 
L 203.824537 -50.112 
L 203.499558 -50.112 
L 203.174578 -50.112 
L 202.849599 -50.112 
L 202.524619 -50.112 
L 202.19964 -50.112 
L 201.87466 -50.112 
L 201.549681 -50.112 
L 201.224701 -50.112 
L 200.899722 -50.112 
L 200.574742 -50.112 
L 200.249762 -50.112 
L 199.924783 -50.112 
L 199.599803 -50.112 
L 199.274824 -50.112 
L 198.949844 -50.112 
L 198.624865 -50.112 
L 198.299885 -50.112 
L 197.974906 -50.112 
L 197.649926 -50.112 
L 197.324947 -50.112 
L 196.999967 -50.112 
L 196.674988 -50.112 
L 196.350008 -50.112 
L 196.025029 -50.112 
L 195.700049 -50.112 
z
" style="stroke: #002d8b; stroke-opacity: 0.5"/>
    </defs>
    <g clip-path="url(#p5ee669582a)">
     <use xlink:href="#m741f321347" x="0" y="345.6" style="fill: #002d8b; fill-opacity: 0.5; stroke: #002d8b; stroke-opacity: 0.5"/>
    </g>
   </g>
   <g id="matplotlib.axis_1">
    <g id="xtick_1">
     <g id="line2d_1">
      <path d="M 73.832727 307.584 
L 73.832727 41.472 
" clip-path="url(#p5ee669582a)" style="fill: none; stroke: #b0b0b0; stroke-opacity: 0.3; stroke-width: 0.8; stroke-linecap: square"/>
     </g>
     <g id="line2d_2">
      <defs>
       <path id="m9bc41ee095" d="M 0 0 
L 0 3.5 
" style="stroke: #000000; stroke-width: 0.8"/>
      </defs>
      <g>
       <use xlink:href="#m9bc41ee095" x="73.832727" y="307.584" style="stroke: #000000; stroke-width: 0.8"/>
      </g>
     </g>
     <g id="text_1">
      <!-- −4 -->
      <g transform="translate(66.461634 322.182437) scale(0.1 -0.1)">
       <defs>
        <path id="DejaVuSans-2212" d="M 678 2272 
L 4684 2272 
L 4684 1741 
L 678 1741 
L 678 2272 
z
" transform="scale(0.015625)"/>
        <path id="DejaVuSans-34" d="M 2419 4116 
L 825 1625 
L 2419 1625 
L 2419 4116 
z
M 2253 4666 
L 3047 4666 
L 3047 1625 
L 3713 1625 
L 3713 1100 
L 3047 1100 
L 3047 0 
L 2419 0 
L 2419 1100 
L 313 1100 
L 313 1709 
L 2253 4666 
z
" transform="scale(0.015625)"/>
       </defs>
       <use xlink:href="#DejaVuSans-2212"/>
       <use xlink:href="#DejaVuSans-34" transform="translate(83.789062 0)"/>
      </g>
     </g>
    </g>
    <g id="xtick_2">
     <g id="line2d_3">
      <path d="M 114.414545 307.584 
L 114.414545 41.472 
" clip-path="url(#p5ee669582a)" style="fill: none; stroke: #b0b0b0; stroke-opacity: 0.3; stroke-width: 0.8; stroke-linecap: square"/>
     </g>
     <g id="line2d_4">
      <g>
       <use xlink:href="#m9bc41ee095" x="114.414545" y="307.584" style="stroke: #000000; stroke-width: 0.8"/>
      </g>
     </g>
     <g id="text_2">
      <!-- −3 -->
      <g transform="translate(107.043452 322.182437) scale(0.1 -0.1)">
       <defs>
        <path id="DejaVuSans-33" d="M 2597 2516 
Q 3050 2419 3304 2112 
Q 3559 1806 3559 1356 
Q 3559 666 3084 287 
Q 2609 -91 1734 -91 
Q 1441 -91 1130 -33 
Q 819 25 488 141 
L 488 750 
Q 750 597 1062 519 
Q 1375 441 1716 441 
Q 2309 441 2620 675 
Q 2931 909 2931 1356 
Q 2931 1769 2642 2001 
Q 2353 2234 1838 2234 
L 1294 2234 
L 1294 2753 
L 1863 2753 
Q 2328 2753 2575 2939 
Q 2822 3125 2822 3475 
Q 2822 3834 2567 4026 
Q 2313 4219 1838 4219 
Q 1578 4219 1281 4162 
Q 984 4106 628 3988 
L 628 4550 
Q 988 4650 1302 4700 
Q 1616 4750 1894 4750 
Q 2613 4750 3031 4423 
Q 3450 4097 3450 3541 
Q 3450 3153 3228 2886 
Q 3006 2619 2597 2516 
z
" transform="scale(0.015625)"/>
       </defs>
       <use xlink:href="#DejaVuSans-2212"/>
       <use xlink:href="#DejaVuSans-33" transform="translate(83.789062 0)"/>
      </g>
     </g>
    </g>
    <g id="xtick_3">
     <g id="line2d_5">
      <path d="M 154.996364 307.584 
L 154.996364 41.472 
" clip-path="url(#p5ee669582a)" style="fill: none; stroke: #b0b0b0; stroke-opacity: 0.3; stroke-width: 0.8; stroke-linecap: square"/>
     </g>
     <g id="line2d_6">
      <g>
       <use xlink:href="#m9bc41ee095" x="154.996364" y="307.584" style="stroke: #000000; stroke-width: 0.8"/>
      </g>
     </g>
     <g id="text_3">
      <!-- −2 -->
      <g transform="translate(147.62527 322.182437) scale(0.1 -0.1)">
       <defs>
        <path id="DejaVuSans-32" d="M 1228 531 
L 3431 531 
L 3431 0 
L 469 0 
L 469 531 
Q 828 903 1448 1529 
Q 2069 2156 2228 2338 
Q 2531 2678 2651 2914 
Q 2772 3150 2772 3378 
Q 2772 3750 2511 3984 
Q 2250 4219 1831 4219 
Q 1534 4219 1204 4116 
Q 875 4013 500 3803 
L 500 4441 
Q 881 4594 1212 4672 
Q 1544 4750 1819 4750 
Q 2544 4750 2975 4387 
Q 3406 4025 3406 3419 
Q 3406 3131 3298 2873 
Q 3191 2616 2906 2266 
Q 2828 2175 2409 1742 
Q 1991 1309 1228 531 
z
" transform="scale(0.015625)"/>
       </defs>
       <use xlink:href="#DejaVuSans-2212"/>
       <use xlink:href="#DejaVuSans-32" transform="translate(83.789062 0)"/>
      </g>
     </g>
    </g>
    <g id="xtick_4">
     <g id="line2d_7">
      <path d="M 195.578182 307.584 
L 195.578182 41.472 
" clip-path="url(#p5ee669582a)" style="fill: none; stroke: #b0b0b0; stroke-opacity: 0.3; stroke-width: 0.8; stroke-linecap: square"/>
     </g>
     <g id="line2d_8">
      <g>
       <use xlink:href="#m9bc41ee095" x="195.578182" y="307.584" style="stroke: #000000; stroke-width: 0.8"/>
      </g>
     </g>
     <g id="text_4">
      <!-- −1 -->
      <g transform="translate(188.207088 322.182437) scale(0.1 -0.1)">
       <defs>
        <path id="DejaVuSans-31" d="M 794 531 
L 1825 531 
L 1825 4091 
L 703 3866 
L 703 4441 
L 1819 4666 
L 2450 4666 
L 2450 531 
L 3481 531 
L 3481 0 
L 794 0 
L 794 531 
z
" transform="scale(0.015625)"/>
       </defs>
       <use xlink:href="#DejaVuSans-2212"/>
       <use xlink:href="#DejaVuSans-31" transform="translate(83.789062 0)"/>
      </g>
     </g>
    </g>
    <g id="xtick_5">
     <g id="line2d_9">
      <path d="M 236.16 307.584 
L 236.16 41.472 
" clip-path="url(#p5ee669582a)" style="fill: none; stroke: #b0b0b0; stroke-opacity: 0.3; stroke-width: 0.8; stroke-linecap: square"/>
     </g>
     <g id="line2d_10">
      <g>
       <use xlink:href="#m9bc41ee095" x="236.16" y="307.584" style="stroke: #000000; stroke-width: 0.8"/>
      </g>
     </g>
     <g id="text_5">
      <!-- 0 -->
      <g transform="translate(232.97875 322.182437) scale(0.1 -0.1)">
       <defs>
        <path id="DejaVuSans-30" d="M 2034 4250 
Q 1547 4250 1301 3770 
Q 1056 3291 1056 2328 
Q 1056 1369 1301 889 
Q 1547 409 2034 409 
Q 2525 409 2770 889 
Q 3016 1369 3016 2328 
Q 3016 3291 2770 3770 
Q 2525 4250 2034 4250 
z
M 2034 4750 
Q 2819 4750 3233 4129 
Q 3647 3509 3647 2328 
Q 3647 1150 3233 529 
Q 2819 -91 2034 -91 
Q 1250 -91 836 529 
Q 422 1150 422 2328 
Q 422 3509 836 4129 
Q 1250 4750 2034 4750 
z
" transform="scale(0.015625)"/>
       </defs>
       <use xlink:href="#DejaVuSans-30"/>
      </g>
     </g>
    </g>
    <g id="xtick_6">
     <g id="line2d_11">
      <path d="M 276.741818 307.584 
L 276.741818 41.472 
" clip-path="url(#p5ee669582a)" style="fill: none; stroke: #b0b0b0; stroke-opacity: 0.3; stroke-width: 0.8; stroke-linecap: square"/>
     </g>
     <g id="line2d_12">
      <g>
       <use xlink:href="#m9bc41ee095" x="276.741818" y="307.584" style="stroke: #000000; stroke-width: 0.8"/>
      </g>
     </g>
     <g id="text_6">
      <!-- 1 -->
      <g transform="translate(273.560568 322.182437) scale(0.1 -0.1)">
       <use xlink:href="#DejaVuSans-31"/>
      </g>
     </g>
    </g>
    <g id="xtick_7">
     <g id="line2d_13">
      <path d="M 317.323636 307.584 
L 317.323636 41.472 
" clip-path="url(#p5ee669582a)" style="fill: none; stroke: #b0b0b0; stroke-opacity: 0.3; stroke-width: 0.8; stroke-linecap: square"/>
     </g>
     <g id="line2d_14">
      <g>
       <use xlink:href="#m9bc41ee095" x="317.323636" y="307.584" style="stroke: #000000; stroke-width: 0.8"/>
      </g>
     </g>
     <g id="text_7">
      <!-- 2 -->
      <g transform="translate(314.142386 322.182437) scale(0.1 -0.1)">
       <use xlink:href="#DejaVuSans-32"/>
      </g>
     </g>
    </g>
    <g id="xtick_8">
     <g id="line2d_15">
      <path d="M 357.905455 307.584 
L 357.905455 41.472 
" clip-path="url(#p5ee669582a)" style="fill: none; stroke: #b0b0b0; stroke-opacity: 0.3; stroke-width: 0.8; stroke-linecap: square"/>
     </g>
     <g id="line2d_16">
      <g>
       <use xlink:href="#m9bc41ee095" x="357.905455" y="307.584" style="stroke: #000000; stroke-width: 0.8"/>
      </g>
     </g>
     <g id="text_8">
      <!-- 3 -->
      <g transform="translate(354.724205 322.182437) scale(0.1 -0.1)">
       <use xlink:href="#DejaVuSans-33"/>
      </g>
     </g>
    </g>
    <g id="xtick_9">
     <g id="line2d_17">
      <path d="M 398.487273 307.584 
L 398.487273 41.472 
" clip-path="url(#p5ee669582a)" style="fill: none; stroke: #b0b0b0; stroke-opacity: 0.3; stroke-width: 0.8; stroke-linecap: square"/>
     </g>
     <g id="line2d_18">
      <g>
       <use xlink:href="#m9bc41ee095" x="398.487273" y="307.584" style="stroke: #000000; stroke-width: 0.8"/>
      </g>
     </g>
     <g id="text_9">
      <!-- 4 -->
      <g transform="translate(395.306023 322.182437) scale(0.1 -0.1)">
       <use xlink:href="#DejaVuSans-34"/>
      </g>
     </g>
    </g>
   </g>
   <g id="matplotlib.axis_2">
    <g id="ytick_1">
     <g id="line2d_19">
      <path d="M 57.6 295.488 
L 414.72 295.488 
" clip-path="url(#p5ee669582a)" style="fill: none; stroke: #b0b0b0; stroke-opacity: 0.3; stroke-width: 0.8; stroke-linecap: square"/>
     </g>
     <g id="line2d_20">
      <defs>
       <path id="m30b8d59c3f" d="M 0 0 
L -3.5 0 
" style="stroke: #000000; stroke-width: 0.8"/>
      </defs>
      <g>
       <use xlink:href="#m30b8d59c3f" x="57.6" y="295.488" style="stroke: #000000; stroke-width: 0.8"/>
      </g>
     </g>
     <g id="text_10">
      <!-- 0.00 -->
      <g transform="translate(28.334375 299.287219) scale(0.1 -0.1)">
       <defs>
        <path id="DejaVuSans-2e" d="M 684 794 
L 1344 794 
L 1344 0 
L 684 0 
L 684 794 
z
" transform="scale(0.015625)"/>
       </defs>
       <use xlink:href="#DejaVuSans-30"/>
       <use xlink:href="#DejaVuSans-2e" transform="translate(63.623047 0)"/>
       <use xlink:href="#DejaVuSans-30" transform="translate(95.410156 0)"/>
       <use xlink:href="#DejaVuSans-30" transform="translate(159.033203 0)"/>
      </g>
     </g>
    </g>
    <g id="ytick_2">
     <g id="line2d_21">
      <path d="M 57.6 265.167581 
L 414.72 265.167581 
" clip-path="url(#p5ee669582a)" style="fill: none; stroke: #b0b0b0; stroke-opacity: 0.3; stroke-width: 0.8; stroke-linecap: square"/>
     </g>
     <g id="line2d_22">
      <g>
       <use xlink:href="#m30b8d59c3f" x="57.6" y="265.167581" style="stroke: #000000; stroke-width: 0.8"/>
      </g>
     </g>
     <g id="text_11">
      <!-- 0.05 -->
      <g transform="translate(28.334375 268.9668) scale(0.1 -0.1)">
       <defs>
        <path id="DejaVuSans-35" d="M 691 4666 
L 3169 4666 
L 3169 4134 
L 1269 4134 
L 1269 2991 
Q 1406 3038 1543 3061 
Q 1681 3084 1819 3084 
Q 2600 3084 3056 2656 
Q 3513 2228 3513 1497 
Q 3513 744 3044 326 
Q 2575 -91 1722 -91 
Q 1428 -91 1123 -41 
Q 819 9 494 109 
L 494 744 
Q 775 591 1075 516 
Q 1375 441 1709 441 
Q 2250 441 2565 725 
Q 2881 1009 2881 1497 
Q 2881 1984 2565 2268 
Q 2250 2553 1709 2553 
Q 1456 2553 1204 2497 
Q 953 2441 691 2322 
L 691 4666 
z
" transform="scale(0.015625)"/>
       </defs>
       <use xlink:href="#DejaVuSans-30"/>
       <use xlink:href="#DejaVuSans-2e" transform="translate(63.623047 0)"/>
       <use xlink:href="#DejaVuSans-30" transform="translate(95.410156 0)"/>
       <use xlink:href="#DejaVuSans-35" transform="translate(159.033203 0)"/>
      </g>
     </g>
    </g>
    <g id="ytick_3">
     <g id="line2d_23">
      <path d="M 57.6 234.847163 
L 414.72 234.847163 
" clip-path="url(#p5ee669582a)" style="fill: none; stroke: #b0b0b0; stroke-opacity: 0.3; stroke-width: 0.8; stroke-linecap: square"/>
     </g>
     <g id="line2d_24">
      <g>
       <use xlink:href="#m30b8d59c3f" x="57.6" y="234.847163" style="stroke: #000000; stroke-width: 0.8"/>
      </g>
     </g>
     <g id="text_12">
      <!-- 0.10 -->
      <g transform="translate(28.334375 238.646381) scale(0.1 -0.1)">
       <use xlink:href="#DejaVuSans-30"/>
       <use xlink:href="#DejaVuSans-2e" transform="translate(63.623047 0)"/>
       <use xlink:href="#DejaVuSans-31" transform="translate(95.410156 0)"/>
       <use xlink:href="#DejaVuSans-30" transform="translate(159.033203 0)"/>
      </g>
     </g>
    </g>
    <g id="ytick_4">
     <g id="line2d_25">
      <path d="M 57.6 204.526744 
L 414.72 204.526744 
" clip-path="url(#p5ee669582a)" style="fill: none; stroke: #b0b0b0; stroke-opacity: 0.3; stroke-width: 0.8; stroke-linecap: square"/>
     </g>
     <g id="line2d_26">
      <g>
       <use xlink:href="#m30b8d59c3f" x="57.6" y="204.526744" style="stroke: #000000; stroke-width: 0.8"/>
      </g>
     </g>
     <g id="text_13">
      <!-- 0.15 -->
      <g transform="translate(28.334375 208.325963) scale(0.1 -0.1)">
       <use xlink:href="#DejaVuSans-30"/>
       <use xlink:href="#DejaVuSans-2e" transform="translate(63.623047 0)"/>
       <use xlink:href="#DejaVuSans-31" transform="translate(95.410156 0)"/>
       <use xlink:href="#DejaVuSans-35" transform="translate(159.033203 0)"/>
      </g>
     </g>
    </g>
    <g id="ytick_5">
     <g id="line2d_27">
      <path d="M 57.6 174.206325 
L 414.72 174.206325 
" clip-path="url(#p5ee669582a)" style="fill: none; stroke: #b0b0b0; stroke-opacity: 0.3; stroke-width: 0.8; stroke-linecap: square"/>
     </g>
     <g id="line2d_28">
      <g>
       <use xlink:href="#m30b8d59c3f" x="57.6" y="174.206325" style="stroke: #000000; stroke-width: 0.8"/>
      </g>
     </g>
     <g id="text_14">
      <!-- 0.20 -->
      <g transform="translate(28.334375 178.005544) scale(0.1 -0.1)">
       <use xlink:href="#DejaVuSans-30"/>
       <use xlink:href="#DejaVuSans-2e" transform="translate(63.623047 0)"/>
       <use xlink:href="#DejaVuSans-32" transform="translate(95.410156 0)"/>
       <use xlink:href="#DejaVuSans-30" transform="translate(159.033203 0)"/>
      </g>
     </g>
    </g>
    <g id="ytick_6">
     <g id="line2d_29">
      <path d="M 57.6 143.885907 
L 414.72 143.885907 
" clip-path="url(#p5ee669582a)" style="fill: none; stroke: #b0b0b0; stroke-opacity: 0.3; stroke-width: 0.8; stroke-linecap: square"/>
     </g>
     <g id="line2d_30">
      <g>
       <use xlink:href="#m30b8d59c3f" x="57.6" y="143.885907" style="stroke: #000000; stroke-width: 0.8"/>
      </g>
     </g>
     <g id="text_15">
      <!-- 0.25 -->
      <g transform="translate(28.334375 147.685125) scale(0.1 -0.1)">
       <use xlink:href="#DejaVuSans-30"/>
       <use xlink:href="#DejaVuSans-2e" transform="translate(63.623047 0)"/>
       <use xlink:href="#DejaVuSans-32" transform="translate(95.410156 0)"/>
       <use xlink:href="#DejaVuSans-35" transform="translate(159.033203 0)"/>
      </g>
     </g>
    </g>
    <g id="ytick_7">
     <g id="line2d_31">
      <path d="M 57.6 113.565488 
L 414.72 113.565488 
" clip-path="url(#p5ee669582a)" style="fill: none; stroke: #b0b0b0; stroke-opacity: 0.3; stroke-width: 0.8; stroke-linecap: square"/>
     </g>
     <g id="line2d_32">
      <g>
       <use xlink:href="#m30b8d59c3f" x="57.6" y="113.565488" style="stroke: #000000; stroke-width: 0.8"/>
      </g>
     </g>
     <g id="text_16">
      <!-- 0.30 -->
      <g transform="translate(28.334375 117.364707) scale(0.1 -0.1)">
       <use xlink:href="#DejaVuSans-30"/>
       <use xlink:href="#DejaVuSans-2e" transform="translate(63.623047 0)"/>
       <use xlink:href="#DejaVuSans-33" transform="translate(95.410156 0)"/>
       <use xlink:href="#DejaVuSans-30" transform="translate(159.033203 0)"/>
      </g>
     </g>
    </g>
    <g id="ytick_8">
     <g id="line2d_33">
      <path d="M 57.6 83.245069 
L 414.72 83.245069 
" clip-path="url(#p5ee669582a)" style="fill: none; stroke: #b0b0b0; stroke-opacity: 0.3; stroke-width: 0.8; stroke-linecap: square"/>
     </g>
     <g id="line2d_34">
      <g>
       <use xlink:href="#m30b8d59c3f" x="57.6" y="83.245069" style="stroke: #000000; stroke-width: 0.8"/>
      </g>
     </g>
     <g id="text_17">
      <!-- 0.35 -->
      <g transform="translate(28.334375 87.044288) scale(0.1 -0.1)">
       <use xlink:href="#DejaVuSans-30"/>
       <use xlink:href="#DejaVuSans-2e" transform="translate(63.623047 0)"/>
       <use xlink:href="#DejaVuSans-33" transform="translate(95.410156 0)"/>
       <use xlink:href="#DejaVuSans-35" transform="translate(159.033203 0)"/>
      </g>
     </g>
    </g>
    <g id="ytick_9">
     <g id="line2d_35">
      <path d="M 57.6 52.924651 
L 414.72 52.924651 
" clip-path="url(#p5ee669582a)" style="fill: none; stroke: #b0b0b0; stroke-opacity: 0.3; stroke-width: 0.8; stroke-linecap: square"/>
     </g>
     <g id="line2d_36">
      <g>
       <use xlink:href="#m30b8d59c3f" x="57.6" y="52.924651" style="stroke: #000000; stroke-width: 0.8"/>
      </g>
     </g>
     <g id="text_18">
      <!-- 0.40 -->
      <g transform="translate(28.334375 56.723869) scale(0.1 -0.1)">
       <use xlink:href="#DejaVuSans-30"/>
       <use xlink:href="#DejaVuSans-2e" transform="translate(63.623047 0)"/>
       <use xlink:href="#DejaVuSans-34" transform="translate(95.410156 0)"/>
       <use xlink:href="#DejaVuSans-30" transform="translate(159.033203 0)"/>
      </g>
     </g>
    </g>
   </g>
   <g id="line2d_37">
    <path d="M 73.832727 295.406844 
L 87.806847 295.184779 
L 96.581294 294.835051 
L 103.080885 294.369735 
L 108.605536 293.756582 
L 113.15525 293.040565 
L 117.379984 292.150692 
L 120.954758 291.185862 
L 124.529533 289.984962 
L 127.779328 288.650828 
L 130.704144 287.221115 
L 133.62896 285.544223 
L 136.553776 283.58915 
L 139.153612 281.59157 
L 141.753448 279.325108 
L 144.353284 276.76599 
L 146.95312 273.890503 
L 149.552957 270.675418 
L 152.152793 267.09848 
L 154.752629 263.138937 
L 157.352465 258.778123 
L 159.952301 254.000074 
L 162.552138 248.792172 
L 165.476953 242.408916 
L 168.401769 235.465667 
L 171.326585 227.965825 
L 174.57638 218.996058 
L 177.826175 209.388645 
L 181.40095 198.144761 
L 185.625684 184.069069 
L 190.500377 167.022314 
L 206.749353 109.440476 
L 210.324128 97.943869 
L 213.248943 89.205098 
L 215.84878 82.046085 
L 218.448616 75.543173 
L 220.723473 70.449727 
L 222.67335 66.563394 
L 224.623227 63.146951 
L 226.573104 60.223284 
L 228.198002 58.177684 
L 229.822899 56.497755 
L 231.122817 55.422522 
L 232.422735 54.589753 
L 233.722654 54.001999 
L 235.022572 53.661065 
L 236.32249 53.568 
L 237.622408 53.723089 
L 238.922326 54.125856 
L 240.222244 54.775062 
L 241.522162 55.668715 
L 242.82208 56.804078 
L 244.446978 58.557836 
L 246.071876 60.675462 
L 247.696773 63.146951 
L 249.64665 66.563394 
L 251.596527 70.449727 
L 253.871384 75.543173 
L 256.146241 81.195762 
L 258.746077 88.277018 
L 261.670893 96.940546 
L 264.920688 107.292542 
L 268.820442 120.492594 
L 274.345094 140.099228 
L 285.719378 180.718649 
L 290.269091 196.030917 
L 294.168845 208.394621 
L 297.74362 218.996058 
L 300.993415 227.965825 
L 304.24321 236.264767 
L 307.168026 243.145795 
L 310.092842 249.467004 
L 313.017658 255.234455 
L 315.617494 259.906871 
L 318.21733 264.165754 
L 320.817166 268.027804 
L 323.417002 271.512265 
L 326.016839 274.640317 
L 328.616675 277.434508 
L 331.216511 279.918229 
L 333.816347 282.115248 
L 336.416183 284.049293 
L 339.340999 285.939789 
L 342.265815 287.559132 
L 345.190631 288.937952 
L 348.440426 290.222817 
L 352.015201 291.377614 
L 355.589975 292.303935 
L 359.814709 293.156837 
L 364.364423 293.841796 
L 369.564095 294.398753 
L 375.738706 294.835051 
L 383.538215 295.15704 
L 394.587518 295.369355 
L 398.487273 295.406844 
L 398.487273 295.406844 
" clip-path="url(#p5ee669582a)" style="fill: none; stroke: #1f77b4; stroke-width: 1.5; stroke-linecap: square"/>
   </g>
   <g id="patch_3">
    <path d="M 57.6 307.584 
L 57.6 41.472 
" style="fill: none; stroke: #000000; stroke-width: 0.8; stroke-linejoin: miter; stroke-linecap: square"/>
   </g>
   <g id="patch_4">
    <path d="M 414.72 307.584 
L 414.72 41.472 
" style="fill: none; stroke: #000000; stroke-width: 0.8; stroke-linejoin: miter; stroke-linecap: square"/>
   </g>
   <g id="patch_5">
    <path d="M 57.6 307.584 
L 414.72 307.584 
" style="fill: none; stroke: #000000; stroke-width: 0.8; stroke-linejoin: miter; stroke-linecap: square"/>
   </g>
   <g id="patch_6">
    <path d="M 57.6 41.472 
L 414.72 41.472 
" style="fill: none; stroke: #000000; stroke-width: 0.8; stroke-linejoin: miter; stroke-linecap: square"/>
   </g>
   <g id="text_19">
    <g id="patch_7">
     <path d="M 203.876406 183.366093 
L 268.443594 183.366093 
L 268.443594 165.687968 
L 203.876406 165.687968 
z
" style="fill: #ffffff; opacity: 0.7"/>
    </g>
    <!-- A = 0.6827 -->
    <g transform="translate(207.876406 177.286405) scale(0.1 -0.1)">
     <defs>
      <path id="DejaVuSans-41" d="M 2188 4044 
L 1331 1722 
L 3047 1722 
L 2188 4044 
z
M 1831 4666 
L 2547 4666 
L 4325 0 
L 3669 0 
L 3244 1197 
L 1141 1197 
L 716 0 
L 50 0 
L 1831 4666 
z
" transform="scale(0.015625)"/>
      <path id="DejaVuSans-20" transform="scale(0.015625)"/>
      <path id="DejaVuSans-3d" d="M 678 2906 
L 4684 2906 
L 4684 2381 
L 678 2381 
L 678 2906 
z
M 678 1631 
L 4684 1631 
L 4684 1100 
L 678 1100 
L 678 1631 
z
" transform="scale(0.015625)"/>
      <path id="DejaVuSans-36" d="M 2113 2584 
Q 1688 2584 1439 2293 
Q 1191 2003 1191 1497 
Q 1191 994 1439 701 
Q 1688 409 2113 409 
Q 2538 409 2786 701 
Q 3034 994 3034 1497 
Q 3034 2003 2786 2293 
Q 2538 2584 2113 2584 
z
M 3366 4563 
L 3366 3988 
Q 3128 4100 2886 4159 
Q 2644 4219 2406 4219 
Q 1781 4219 1451 3797 
Q 1122 3375 1075 2522 
Q 1259 2794 1537 2939 
Q 1816 3084 2150 3084 
Q 2853 3084 3261 2657 
Q 3669 2231 3669 1497 
Q 3669 778 3244 343 
Q 2819 -91 2113 -91 
Q 1303 -91 875 529 
Q 447 1150 447 2328 
Q 447 3434 972 4092 
Q 1497 4750 2381 4750 
Q 2619 4750 2861 4703 
Q 3103 4656 3366 4563 
z
" transform="scale(0.015625)"/>
      <path id="DejaVuSans-38" d="M 2034 2216 
Q 1584 2216 1326 1975 
Q 1069 1734 1069 1313 
Q 1069 891 1326 650 
Q 1584 409 2034 409 
Q 2484 409 2743 651 
Q 3003 894 3003 1313 
Q 3003 1734 2745 1975 
Q 2488 2216 2034 2216 
z
M 1403 2484 
Q 997 2584 770 2862 
Q 544 3141 544 3541 
Q 544 4100 942 4425 
Q 1341 4750 2034 4750 
Q 2731 4750 3128 4425 
Q 3525 4100 3525 3541 
Q 3525 3141 3298 2862 
Q 3072 2584 2669 2484 
Q 3125 2378 3379 2068 
Q 3634 1759 3634 1313 
Q 3634 634 3220 271 
Q 2806 -91 2034 -91 
Q 1263 -91 848 271 
Q 434 634 434 1313 
Q 434 1759 690 2068 
Q 947 2378 1403 2484 
z
M 1172 3481 
Q 1172 3119 1398 2916 
Q 1625 2713 2034 2713 
Q 2441 2713 2670 2916 
Q 2900 3119 2900 3481 
Q 2900 3844 2670 4047 
Q 2441 4250 2034 4250 
Q 1625 4250 1398 4047 
Q 1172 3844 1172 3481 
z
" transform="scale(0.015625)"/>
      <path id="DejaVuSans-37" d="M 525 4666 
L 3525 4666 
L 3525 4397 
L 1831 0 
L 1172 0 
L 2766 4134 
L 525 4134 
L 525 4666 
z
" transform="scale(0.015625)"/>
     </defs>
     <use xlink:href="#DejaVuSans-41"/>
     <use xlink:href="#DejaVuSans-20" transform="translate(68.408203 0)"/>
     <use xlink:href="#DejaVuSans-3d" transform="translate(100.195312 0)"/>
     <use xlink:href="#DejaVuSans-20" transform="translate(183.984375 0)"/>
     <use xlink:href="#DejaVuSans-30" transform="translate(215.771484 0)"/>
     <use xlink:href="#DejaVuSans-2e" transform="translate(279.394531 0)"/>
     <use xlink:href="#DejaVuSans-36" transform="translate(311.181641 0)"/>
     <use xlink:href="#DejaVuSans-38" transform="translate(374.804688 0)"/>
     <use xlink:href="#DejaVuSans-32" transform="translate(438.427734 0)"/>
     <use xlink:href="#DejaVuSans-37" transform="translate(502.050781 0)"/>
    </g>
   </g>
  </g>
 </g>
 <defs>
  <clipPath id="p5ee669582a">
   <rect x="57.6" y="41.472" width="357.12" height="266.112"/>
  </clipPath>
 </defs>
</svg>
