<?xml version="1.0" encoding="utf-8" standalone="no"?>
<!DOCTYPE svg PUBLIC "-//W3C//DTD SVG 1.1//EN"
  "http://www.w3.org/Graphics/SVG/1.1/DTD/svg11.dtd">
<svg xmlns:xlink="http://www.w3.org/1999/xlink" width="460.8pt" height="345.6pt" viewBox="0 0 460.8 345.6" xmlns="http://www.w3.org/2000/svg" version="1.1">
 <metadata>
  <rdf:RDF xmlns:dc="http://purl.org/dc/elements/1.1/" xmlns:cc="http://creativecommons.org/ns#" xmlns:rdf="http://www.w3.org/1999/02/22-rdf-syntax-ns#">
   <cc:Work>
    <dc:type rdf:resource="http://purl.org/dc/dcmitype/StillImage"/>
    <dc:date>2025-07-08T16:22:34.456987</dc:date>
    <dc:format>image/svg+xml</dc:format>
    <dc:creator>
     <cc:Agent>
      <dc:title>Matplotlib v3.10.3, https://matplotlib.org/</dc:title>
     </cc:Agent>
    </dc:creator>
   </cc:Work>
  </rdf:RDF>
 </metadata>
 <defs>
  <style type="text/css">*{stroke-linejoin: round; stroke-linecap: butt}</style>
 </defs>
 <g id="figure_1">
  <g id="patch_1">
   <path d="M 0 345.6 
L 460.8 345.6 
L 460.8 0 
L 0 0 
z
" style="fill: #ffffff"/>
  </g>
  <g id="axes_1">
   <g id="patch_2">
    <path d="M 57.6 307.584 
L 414.72 307.584 
L 414.72 41.472 
L 57.6 41.472 
z
" style="fill: #ffffff"/>
   </g>
   <g id="FillBetweenPolyCollection_1">
    <defs>
     <path id="mc06bfca8fd" d="M 114.455168 -50.112 
L 114.455168 -52.807591 
L 114.780147 -52.873024 
L 115.105127 -52.939863 
L 115.430106 -53.008135 
L 115.755086 -53.077865 
L 116.080066 -53.149079 
L 116.405045 -53.221803 
L 116.730025 -53.296065 
L 117.055004 -53.37189 
L 117.379984 -53.449308 
L 117.704963 -53.528345 
L 118.029943 -53.60903 
L 118.354922 -53.69139 
L 118.679902 -53.775456 
L 119.004881 -53.861255 
L 119.329861 -53.948818 
L 119.65484 -54.038174 
L 119.97982 -54.129353 
L 120.304799 -54.222386 
L 120.629779 -54.317304 
L 120.954758 -54.414138 
L 121.279738 -54.51292 
L 121.604717 -54.61368 
L 121.929697 -54.716453 
L 122.254676 -54.82127 
L 122.579656 -54.928164 
L 122.904636 -55.037169 
L 123.229615 -55.148317 
L 123.554595 -55.261644 
L 123.879574 -55.377183 
L 124.204554 -55.494969 
L 124.529533 -55.615038 
L 124.854513 -55.737423 
L 125.179492 -55.862162 
L 125.504472 -55.98929 
L 125.829451 -56.118843 
L 126.154431 -56.250859 
L 126.47941 -56.385373 
L 126.80439 -56.522424 
L 127.129369 -56.662048 
L 127.454349 -56.804285 
L 127.779328 -56.949172 
L 128.104308 -57.096748 
L 128.429287 -57.247051 
L 128.754267 -57.400122 
L 129.079247 -57.555999 
L 129.404226 -57.714722 
L 129.729206 -57.876332 
L 130.054185 -58.040868 
L 130.379165 -58.208372 
L 130.704144 -58.378885 
L 131.029124 -58.552447 
L 131.354103 -58.729101 
L 131.679083 -58.908888 
L 132.004062 -59.09185 
L 132.329042 -59.278029 
L 132.654021 -59.467469 
L 132.979001 -59.660211 
L 133.30398 -59.8563 
L 133.62896 -60.055777 
L 133.953939 -60.258688 
L 134.278919 -60.465075 
L 134.603898 -60.674983 
L 134.928878 -60.888456 
L 135.253857 -61.105537 
L 135.578837 -61.326273 
L 135.903817 -61.550707 
L 136.228796 -61.778884 
L 136.553776 -62.01085 
L 136.878755 -62.24665 
L 137.203735 -62.486329 
L 137.528714 -62.729933 
L 137.853694 -62.977508 
L 138.178673 -63.229099 
L 138.503653 -63.484752 
L 138.828632 -63.744514 
L 139.153612 -64.00843 
L 139.478591 -64.276548 
L 139.803571 -64.548912 
L 140.12855 -64.82557 
L 140.45353 -65.106569 
L 140.778509 -65.391953 
L 141.103489 -65.681771 
L 141.428468 -65.976069 
L 141.753448 -66.274892 
L 142.078428 -66.578289 
L 142.403407 -66.886305 
L 142.728387 -67.198987 
L 143.053366 -67.516381 
L 143.378346 -67.838534 
L 143.703325 -68.165492 
L 144.028305 -68.497302 
L 144.353284 -68.83401 
L 144.678264 -69.175662 
L 145.003243 -69.522303 
L 145.328223 -69.87398 
L 145.653202 -70.230739 
L 145.978182 -70.592625 
L 146.303161 -70.959683 
L 146.628141 -71.331959 
L 146.95312 -71.709497 
L 147.2781 -72.092343 
L 147.603079 -72.480541 
L 147.928059 -72.874136 
L 148.253038 -73.27317 
L 148.578018 -73.677689 
L 148.902998 -74.087735 
L 149.227977 -74.503352 
L 149.552957 -74.924582 
L 149.877936 -75.351468 
L 150.202916 -75.784052 
L 150.527895 -76.222376 
L 150.852875 -76.66648 
L 151.177854 -77.116407 
L 151.502834 -77.572196 
L 151.827813 -78.033887 
L 152.152793 -78.50152 
L 152.477772 -78.975134 
L 152.802752 -79.454767 
L 153.127731 -79.940458 
L 153.452711 -80.432243 
L 153.77769 -80.930161 
L 154.10267 -81.434246 
L 154.427649 -81.944535 
L 154.752629 -82.461063 
L 155.077609 -82.983864 
L 155.402588 -83.512973 
L 155.727568 -84.048422 
L 156.052547 -84.590243 
L 156.377527 -85.138469 
L 156.702506 -85.693129 
L 157.027486 -86.254256 
L 157.352465 -86.821877 
L 157.677445 -87.396022 
L 158.002424 -87.976719 
L 158.327404 -88.563993 
L 158.652383 -89.157873 
L 158.977363 -89.758382 
L 159.302342 -90.365545 
L 159.627322 -90.979385 
L 159.952301 -91.599926 
L 160.277281 -92.227188 
L 160.60226 -92.861193 
L 160.92724 -93.501959 
L 161.252219 -94.149505 
L 161.577199 -94.80385 
L 161.902179 -95.465008 
L 162.227158 -96.132996 
L 162.552138 -96.807828 
L 162.877117 -97.489518 
L 163.202097 -98.178076 
L 163.527076 -98.873514 
L 163.852056 -99.575843 
L 164.177035 -100.285069 
L 164.502015 -101.001201 
L 164.826994 -101.724245 
L 165.151974 -102.454205 
L 165.476953 -103.191084 
L 165.801933 -103.934887 
L 166.126912 -104.685612 
L 166.451892 -105.44326 
L 166.776871 -106.207829 
L 167.101851 -106.979316 
L 167.42683 -107.757717 
L 167.75181 -108.543025 
L 168.07679 -109.335233 
L 168.401769 -110.134333 
L 168.726749 -110.940314 
L 169.051728 -111.753165 
L 169.376708 -112.572872 
L 169.701687 -113.399421 
L 170.026667 -114.232796 
L 170.351646 -115.072979 
L 170.676626 -115.919951 
L 171.001605 -116.77369 
L 171.326585 -117.634175 
L 171.651564 -118.501382 
L 171.976544 -119.375284 
L 172.301523 -120.255856 
L 172.626503 -121.143067 
L 172.951482 -122.036887 
L 173.276462 -122.937284 
L 173.601441 -123.844225 
L 173.926421 -124.757673 
L 174.2514 -125.677592 
L 174.57638 -126.603942 
L 174.90136 -127.536683 
L 175.226339 -128.475772 
L 175.551319 -129.421165 
L 175.876298 -130.372817 
L 176.201278 -131.330679 
L 176.526257 -132.294703 
L 176.851237 -133.264836 
L 177.176216 -134.241026 
L 177.501196 -135.223217 
L 177.826175 -136.211355 
L 178.151155 -137.205379 
L 178.476134 -138.20523 
L 178.801114 -139.210845 
L 179.126093 -140.222161 
L 179.451073 -141.239112 
L 179.776052 -142.26163 
L 180.101032 -143.289647 
L 180.426011 -144.32309 
L 180.750991 -145.361886 
L 181.075971 -146.405961 
L 181.40095 -147.455239 
L 181.72593 -148.509639 
L 182.050909 -149.569083 
L 182.375889 -150.633486 
L 182.700868 -151.702767 
L 183.025848 -152.776837 
L 183.350827 -153.85561 
L 183.675807 -154.938996 
L 184.000786 -156.026904 
L 184.325766 -157.119239 
L 184.650745 -158.215907 
L 184.975725 -159.316812 
L 185.300704 -160.421853 
L 185.625684 -161.530931 
L 185.950663 -162.643943 
L 186.275643 -163.760785 
L 186.600622 -164.881351 
L 186.925602 -166.005534 
L 187.250581 -167.133223 
L 187.575561 -168.264309 
L 187.900541 -169.398677 
L 188.22552 -170.536213 
L 188.5505 -171.676801 
L 188.875479 -172.820323 
L 189.200459 -173.966658 
L 189.525438 -175.115686 
L 189.850418 -176.267284 
L 190.175397 -177.421326 
L 190.500377 -178.577686 
L 190.825356 -179.736237 
L 191.150336 -180.896849 
L 191.475315 -182.059391 
L 191.800295 -183.22373 
L 192.125274 -184.389733 
L 192.450254 -185.557263 
L 192.775233 -186.726183 
L 193.100213 -187.896355 
L 193.425192 -189.06764 
L 193.750172 -190.239894 
L 194.075152 -191.412977 
L 194.400131 -192.586742 
L 194.725111 -193.761046 
L 195.05009 -194.935741 
L 195.37507 -196.11068 
L 195.700049 -197.285712 
L 196.025029 -198.460687 
L 196.350008 -199.635454 
L 196.674988 -200.80986 
L 196.999967 -201.98375 
L 197.324947 -203.15697 
L 197.649926 -204.329363 
L 197.974906 -205.500772 
L 198.299885 -206.671038 
L 198.624865 -207.840003 
L 198.949844 -209.007506 
L 199.274824 -210.173386 
L 199.599803 -211.337482 
L 199.924783 -212.499629 
L 200.249762 -213.659665 
L 200.574742 -214.817426 
L 200.899722 -215.972745 
L 201.224701 -217.125458 
L 201.549681 -218.275398 
L 201.87466 -219.422398 
L 202.19964 -220.566289 
L 202.524619 -221.706905 
L 202.849599 -222.844076 
L 203.174578 -223.977633 
L 203.499558 -225.107406 
L 203.824537 -226.233226 
L 204.149517 -227.354922 
L 204.474496 -228.472324 
L 204.799476 -229.58526 
L 205.124455 -230.693561 
L 205.449435 -231.797054 
L 205.774414 -232.895568 
L 206.099394 -233.988932 
L 206.424373 -235.076975 
L 206.749353 -236.159524 
L 207.074333 -237.236409 
L 207.399312 -238.307458 
L 207.724292 -239.3725 
L 208.049271 -240.431364 
L 208.374251 -241.48388 
L 208.69923 -242.529876 
L 209.02421 -243.569184 
L 209.349189 -244.601632 
L 209.674169 -245.627052 
L 209.999148 -246.645274 
L 210.324128 -247.656131 
L 210.649107 -248.659454 
L 210.974087 -249.655076 
L 211.299066 -250.64283 
L 211.624046 -251.622552 
L 211.949025 -252.594074 
L 212.274005 -253.557233 
L 212.598984 -254.511866 
L 212.923964 -255.45781 
L 213.248943 -256.394902 
L 213.573923 -257.322982 
L 213.898903 -258.24189 
L 214.223882 -259.151467 
L 214.548862 -260.051556 
L 214.873841 -260.942 
L 215.198821 -261.822643 
L 215.5238 -262.693333 
L 215.84878 -263.553915 
L 216.173759 -264.404238 
L 216.498739 -265.244152 
L 216.823718 -266.073509 
L 217.148698 -266.892161 
L 217.473677 -267.699962 
L 217.798657 -268.496768 
L 218.123636 -269.282437 
L 218.448616 -270.056827 
L 218.773595 -270.819799 
L 219.098575 -271.571216 
L 219.423554 -272.310941 
L 219.748534 -273.03884 
L 220.073514 -273.754782 
L 220.398493 -274.458636 
L 220.723473 -275.150273 
L 221.048452 -275.829568 
L 221.373432 -276.496394 
L 221.698411 -277.150631 
L 222.023391 -277.792157 
L 222.34837 -278.420854 
L 222.67335 -279.036606 
L 222.998329 -279.6393 
L 223.323309 -280.228822 
L 223.648288 -280.805065 
L 223.973268 -281.367919 
L 224.298247 -281.917282 
L 224.623227 -282.453049 
L 224.948206 -282.975121 
L 225.273186 -283.4834 
L 225.598165 -283.977791 
L 225.923145 -284.4582 
L 226.248124 -284.924538 
L 226.573104 -285.376716 
L 226.898084 -285.814649 
L 227.223063 -286.238254 
L 227.548043 -286.647452 
L 227.873022 -287.042164 
L 228.198002 -287.422316 
L 228.522981 -287.787836 
L 228.847961 -288.138654 
L 229.17294 -288.474704 
L 229.49792 -288.795922 
L 229.822899 -289.102245 
L 230.147879 -289.393617 
L 230.472858 -289.669981 
L 230.797838 -289.931285 
L 231.122817 -290.177478 
L 231.447797 -290.408513 
L 231.772776 -290.624347 
L 232.097756 -290.824938 
L 232.422735 -291.010247 
L 232.747715 -291.180239 
L 233.072695 -291.334881 
L 233.397674 -291.474144 
L 233.722654 -291.598001 
L 234.047633 -291.706428 
L 234.372613 -291.799404 
L 234.697592 -291.876911 
L 235.022572 -291.938935 
L 235.347551 -291.985463 
L 235.672531 -292.016487 
L 235.99751 -292.032 
L 236.32249 -292.032 
L 236.647469 -292.016487 
L 236.972449 -291.985463 
L 237.297428 -291.938935 
L 237.622408 -291.876911 
L 237.947387 -291.799404 
L 238.272367 -291.706428 
L 238.597346 -291.598001 
L 238.922326 -291.474144 
L 239.247305 -291.334881 
L 239.572285 -291.180239 
L 239.897265 -291.010247 
L 240.222244 -290.824938 
L 240.547224 -290.624347 
L 240.872203 -290.408513 
L 241.197183 -290.177478 
L 241.522162 -289.931285 
L 241.847142 -289.669981 
L 242.172121 -289.393617 
L 242.497101 -289.102245 
L 242.82208 -288.795922 
L 243.14706 -288.474704 
L 243.472039 -288.138654 
L 243.797019 -287.787836 
L 244.121998 -287.422316 
L 244.446978 -287.042164 
L 244.771957 -286.647452 
L 245.096937 -286.238254 
L 245.421916 -285.814649 
L 245.746896 -285.376716 
L 246.071876 -284.924538 
L 246.396855 -284.4582 
L 246.721835 -283.977791 
L 247.046814 -283.4834 
L 247.371794 -282.975121 
L 247.696773 -282.453049 
L 248.021753 -281.917282 
L 248.346732 -281.367919 
L 248.671712 -280.805065 
L 248.996691 -280.228822 
L 249.321671 -279.6393 
L 249.64665 -279.036606 
L 249.97163 -278.420854 
L 250.296609 -277.792157 
L 250.621589 -277.150631 
L 250.946568 -276.496394 
L 251.271548 -275.829568 
L 251.596527 -275.150273 
L 251.921507 -274.458636 
L 252.246486 -273.754782 
L 252.571466 -273.03884 
L 252.896446 -272.310941 
L 253.221425 -271.571216 
L 253.546405 -270.819799 
L 253.871384 -270.056827 
L 254.196364 -269.282437 
L 254.521343 -268.496768 
L 254.846323 -267.699962 
L 255.171302 -266.892161 
L 255.496282 -266.073509 
L 255.821261 -265.244152 
L 256.146241 -264.404238 
L 256.47122 -263.553915 
L 256.7962 -262.693333 
L 257.121179 -261.822643 
L 257.446159 -260.942 
L 257.771138 -260.051556 
L 258.096118 -259.151467 
L 258.421097 -258.24189 
L 258.746077 -257.322982 
L 259.071057 -256.394902 
L 259.396036 -255.45781 
L 259.721016 -254.511866 
L 260.045995 -253.557233 
L 260.370975 -252.594074 
L 260.695954 -251.622552 
L 261.020934 -250.64283 
L 261.345913 -249.655076 
L 261.670893 -248.659454 
L 261.995872 -247.656131 
L 262.320852 -246.645274 
L 262.645831 -245.627052 
L 262.970811 -244.601632 
L 263.29579 -243.569184 
L 263.62077 -242.529876 
L 263.945749 -241.48388 
L 264.270729 -240.431364 
L 264.595708 -239.3725 
L 264.920688 -238.307458 
L 265.245667 -237.236409 
L 265.570647 -236.159524 
L 265.895627 -235.076975 
L 266.220606 -233.988932 
L 266.545586 -232.895568 
L 266.870565 -231.797054 
L 267.195545 -230.693561 
L 267.520524 -229.58526 
L 267.845504 -228.472324 
L 268.170483 -227.354922 
L 268.495463 -226.233226 
L 268.820442 -225.107406 
L 269.145422 -223.977633 
L 269.470401 -222.844076 
L 269.795381 -221.706905 
L 270.12036 -220.566289 
L 270.44534 -219.422398 
L 270.770319 -218.275398 
L 271.095299 -217.125458 
L 271.420278 -215.972745 
L 271.745258 -214.817426 
L 272.070238 -213.659665 
L 272.395217 -212.499629 
L 272.720197 -211.337482 
L 273.045176 -210.173386 
L 273.370156 -209.007506 
L 273.695135 -207.840003 
L 274.020115 -206.671038 
L 274.345094 -205.500772 
L 274.670074 -204.329363 
L 274.995053 -203.15697 
L 275.320033 -201.98375 
L 275.645012 -200.80986 
L 275.969992 -199.635454 
L 276.294971 -198.460687 
L 276.619951 -197.285712 
L 276.94493 -196.11068 
L 277.26991 -194.935741 
L 277.594889 -193.761046 
L 277.919869 -192.586742 
L 278.244848 -191.412977 
L 278.569828 -190.239894 
L 278.894808 -189.06764 
L 279.219787 -187.896355 
L 279.544767 -186.726183 
L 279.869746 -185.557263 
L 280.194726 -184.389733 
L 280.519705 -183.22373 
L 280.844685 -182.059391 
L 281.169664 -180.896849 
L 281.494644 -179.736237 
L 281.819623 -178.577686 
L 282.144603 -177.421326 
L 282.469582 -176.267284 
L 282.794562 -175.115686 
L 283.119541 -173.966658 
L 283.444521 -172.820323 
L 283.7695 -171.676801 
L 284.09448 -170.536213 
L 284.419459 -169.398677 
L 284.744439 -168.264309 
L 285.069419 -167.133223 
L 285.394398 -166.005534 
L 285.719378 -164.881351 
L 286.044357 -163.760785 
L 286.369337 -162.643943 
L 286.694316 -161.530931 
L 287.019296 -160.421853 
L 287.344275 -159.316812 
L 287.669255 -158.215907 
L 287.994234 -157.119239 
L 288.319214 -156.026904 
L 288.644193 -154.938996 
L 288.969173 -153.85561 
L 289.294152 -152.776837 
L 289.619132 -151.702767 
L 289.944111 -150.633486 
L 290.269091 -149.569083 
L 290.59407 -148.509639 
L 290.91905 -147.455239 
L 291.244029 -146.405961 
L 291.569009 -145.361886 
L 291.893989 -144.32309 
L 292.218968 -143.289647 
L 292.543948 -142.26163 
L 292.868927 -141.239112 
L 293.193907 -140.222161 
L 293.518886 -139.210845 
L 293.843866 -138.20523 
L 294.168845 -137.205379 
L 294.493825 -136.211355 
L 294.818804 -135.223217 
L 295.143784 -134.241026 
L 295.468763 -133.264836 
L 295.793743 -132.294703 
L 296.118722 -131.330679 
L 296.443702 -130.372817 
L 296.768681 -129.421165 
L 297.093661 -128.475772 
L 297.41864 -127.536683 
L 297.74362 -126.603942 
L 298.0686 -125.677592 
L 298.393579 -124.757673 
L 298.718559 -123.844225 
L 299.043538 -122.937284 
L 299.368518 -122.036887 
L 299.693497 -121.143067 
L 300.018477 -120.255856 
L 300.343456 -119.375284 
L 300.668436 -118.501382 
L 300.993415 -117.634175 
L 301.318395 -116.77369 
L 301.643374 -115.919951 
L 301.968354 -115.072979 
L 302.293333 -114.232796 
L 302.618313 -113.399421 
L 302.943292 -112.572872 
L 303.268272 -111.753165 
L 303.593251 -110.940314 
L 303.918231 -110.134333 
L 304.24321 -109.335233 
L 304.56819 -108.543025 
L 304.89317 -107.757717 
L 305.218149 -106.979316 
L 305.543129 -106.207829 
L 305.868108 -105.44326 
L 306.193088 -104.685612 
L 306.518067 -103.934887 
L 306.843047 -103.191084 
L 307.168026 -102.454205 
L 307.493006 -101.724245 
L 307.817985 -101.001201 
L 308.142965 -100.285069 
L 308.467944 -99.575843 
L 308.792924 -98.873514 
L 309.117903 -98.178076 
L 309.442883 -97.489518 
L 309.767862 -96.807828 
L 310.092842 -96.132996 
L 310.417821 -95.465008 
L 310.742801 -94.80385 
L 311.067781 -94.149505 
L 311.39276 -93.501959 
L 311.71774 -92.861193 
L 312.042719 -92.227188 
L 312.367699 -91.599926 
L 312.692678 -90.979385 
L 313.017658 -90.365545 
L 313.342637 -89.758382 
L 313.667617 -89.157873 
L 313.992596 -88.563993 
L 314.317576 -87.976719 
L 314.642555 -87.396022 
L 314.967535 -86.821877 
L 315.292514 -86.254256 
L 315.617494 -85.693129 
L 315.942473 -85.138469 
L 316.267453 -84.590243 
L 316.592432 -84.048422 
L 316.917412 -83.512973 
L 317.242391 -82.983864 
L 317.567371 -82.461063 
L 317.892351 -81.944535 
L 318.21733 -81.434246 
L 318.54231 -80.930161 
L 318.867289 -80.432243 
L 319.192269 -79.940458 
L 319.517248 -79.454767 
L 319.842228 -78.975134 
L 320.167207 -78.50152 
L 320.492187 -78.033887 
L 320.817166 -77.572196 
L 321.142146 -77.116407 
L 321.467125 -76.66648 
L 321.792105 -76.222376 
L 322.117084 -75.784052 
L 322.442064 -75.351468 
L 322.767043 -74.924582 
L 323.092023 -74.503352 
L 323.417002 -74.087735 
L 323.741982 -73.677689 
L 324.066962 -73.27317 
L 324.391941 -72.874136 
L 324.716921 -72.480541 
L 325.0419 -72.092343 
L 325.36688 -71.709497 
L 325.691859 -71.331959 
L 326.016839 -70.959683 
L 326.341818 -70.592625 
L 326.666798 -70.230739 
L 326.991777 -69.87398 
L 327.316757 -69.522303 
L 327.641736 -69.175662 
L 327.966716 -68.83401 
L 328.291695 -68.497302 
L 328.616675 -68.165492 
L 328.941654 -67.838534 
L 329.266634 -67.516381 
L 329.591613 -67.198987 
L 329.916593 -66.886305 
L 330.241572 -66.578289 
L 330.566552 -66.274892 
L 330.891532 -65.976069 
L 331.216511 -65.681771 
L 331.541491 -65.391953 
L 331.86647 -65.106569 
L 332.19145 -64.82557 
L 332.516429 -64.548912 
L 332.841409 -64.276548 
L 333.166388 -64.00843 
L 333.491368 -63.744514 
L 333.816347 -63.484752 
L 334.141327 -63.229099 
L 334.466306 -62.977508 
L 334.791286 -62.729933 
L 335.116265 -62.486329 
L 335.441245 -62.24665 
L 335.766224 -62.01085 
L 336.091204 -61.778884 
L 336.416183 -61.550707 
L 336.741163 -61.326273 
L 337.066143 -61.105537 
L 337.391122 -60.888456 
L 337.716102 -60.674983 
L 338.041081 -60.465075 
L 338.366061 -60.258688 
L 338.69104 -60.055777 
L 339.01602 -59.8563 
L 339.340999 -59.660211 
L 339.665979 -59.467469 
L 339.990958 -59.278029 
L 340.315938 -59.09185 
L 340.640917 -58.908888 
L 340.965897 -58.729101 
L 341.290876 -58.552447 
L 341.615856 -58.378885 
L 341.940835 -58.208372 
L 342.265815 -58.040868 
L 342.590794 -57.876332 
L 342.915774 -57.714722 
L 343.240753 -57.555999 
L 343.565733 -57.400122 
L 343.890713 -57.247051 
L 344.215692 -57.096748 
L 344.540672 -56.949172 
L 344.865651 -56.804285 
L 345.190631 -56.662048 
L 345.51561 -56.522424 
L 345.84059 -56.385373 
L 346.165569 -56.250859 
L 346.490549 -56.118843 
L 346.815528 -55.98929 
L 347.140508 -55.862162 
L 347.465487 -55.737423 
L 347.790467 -55.615038 
L 348.115446 -55.494969 
L 348.440426 -55.377183 
L 348.765405 -55.261644 
L 349.090385 -55.148317 
L 349.415364 -55.037169 
L 349.740344 -54.928164 
L 350.065324 -54.82127 
L 350.390303 -54.716453 
L 350.715283 -54.61368 
L 351.040262 -54.51292 
L 351.365242 -54.414138 
L 351.690221 -54.317304 
L 352.015201 -54.222386 
L 352.34018 -54.129353 
L 352.66516 -54.038174 
L 352.990139 -53.948818 
L 353.315119 -53.861255 
L 353.640098 -53.775456 
L 353.965078 -53.69139 
L 354.290057 -53.60903 
L 354.615037 -53.528345 
L 354.940016 -53.449308 
L 355.264996 -53.37189 
L 355.589975 -53.296065 
L 355.914955 -53.221803 
L 356.239934 -53.149079 
L 356.564914 -53.077865 
L 356.889894 -53.008135 
L 357.214873 -52.939863 
L 357.539853 -52.873024 
L 357.864832 -52.807591 
L 357.864832 -50.112 
L 357.864832 -50.112 
L 357.539853 -50.112 
L 357.214873 -50.112 
L 356.889894 -50.112 
L 356.564914 -50.112 
L 356.239934 -50.112 
L 355.914955 -50.112 
L 355.589975 -50.112 
L 355.264996 -50.112 
L 354.940016 -50.112 
L 354.615037 -50.112 
L 354.290057 -50.112 
L 353.965078 -50.112 
L 353.640098 -50.112 
L 353.315119 -50.112 
L 352.990139 -50.112 
L 352.66516 -50.112 
L 352.34018 -50.112 
L 352.015201 -50.112 
L 351.690221 -50.112 
L 351.365242 -50.112 
L 351.040262 -50.112 
L 350.715283 -50.112 
L 350.390303 -50.112 
L 350.065324 -50.112 
L 349.740344 -50.112 
L 349.415364 -50.112 
L 349.090385 -50.112 
L 348.765405 -50.112 
L 348.440426 -50.112 
L 348.115446 -50.112 
L 347.790467 -50.112 
L 347.465487 -50.112 
L 347.140508 -50.112 
L 346.815528 -50.112 
L 346.490549 -50.112 
L 346.165569 -50.112 
L 345.84059 -50.112 
L 345.51561 -50.112 
L 345.190631 -50.112 
L 344.865651 -50.112 
L 344.540672 -50.112 
L 344.215692 -50.112 
L 343.890713 -50.112 
L 343.565733 -50.112 
L 343.240753 -50.112 
L 342.915774 -50.112 
L 342.590794 -50.112 
L 342.265815 -50.112 
L 341.940835 -50.112 
L 341.615856 -50.112 
L 341.290876 -50.112 
L 340.965897 -50.112 
L 340.640917 -50.112 
L 340.315938 -50.112 
L 339.990958 -50.112 
L 339.665979 -50.112 
L 339.340999 -50.112 
L 339.01602 -50.112 
L 338.69104 -50.112 
L 338.366061 -50.112 
L 338.041081 -50.112 
L 337.716102 -50.112 
L 337.391122 -50.112 
L 337.066143 -50.112 
L 336.741163 -50.112 
L 336.416183 -50.112 
L 336.091204 -50.112 
L 335.766224 -50.112 
L 335.441245 -50.112 
L 335.116265 -50.112 
L 334.791286 -50.112 
L 334.466306 -50.112 
L 334.141327 -50.112 
L 333.816347 -50.112 
L 333.491368 -50.112 
L 333.166388 -50.112 
L 332.841409 -50.112 
L 332.516429 -50.112 
L 332.19145 -50.112 
L 331.86647 -50.112 
L 331.541491 -50.112 
L 331.216511 -50.112 
L 330.891532 -50.112 
L 330.566552 -50.112 
L 330.241572 -50.112 
L 329.916593 -50.112 
L 329.591613 -50.112 
L 329.266634 -50.112 
L 328.941654 -50.112 
L 328.616675 -50.112 
L 328.291695 -50.112 
L 327.966716 -50.112 
L 327.641736 -50.112 
L 327.316757 -50.112 
L 326.991777 -50.112 
L 326.666798 -50.112 
L 326.341818 -50.112 
L 326.016839 -50.112 
L 325.691859 -50.112 
L 325.36688 -50.112 
L 325.0419 -50.112 
L 324.716921 -50.112 
L 324.391941 -50.112 
L 324.066962 -50.112 
L 323.741982 -50.112 
L 323.417002 -50.112 
L 323.092023 -50.112 
L 322.767043 -50.112 
L 322.442064 -50.112 
L 322.117084 -50.112 
L 321.792105 -50.112 
L 321.467125 -50.112 
L 321.142146 -50.112 
L 320.817166 -50.112 
L 320.492187 -50.112 
L 320.167207 -50.112 
L 319.842228 -50.112 
L 319.517248 -50.112 
L 319.192269 -50.112 
L 318.867289 -50.112 
L 318.54231 -50.112 
L 318.21733 -50.112 
L 317.892351 -50.112 
L 317.567371 -50.112 
L 317.242391 -50.112 
L 316.917412 -50.112 
L 316.592432 -50.112 
L 316.267453 -50.112 
L 315.942473 -50.112 
L 315.617494 -50.112 
L 315.292514 -50.112 
L 314.967535 -50.112 
L 314.642555 -50.112 
L 314.317576 -50.112 
L 313.992596 -50.112 
L 313.667617 -50.112 
L 313.342637 -50.112 
L 313.017658 -50.112 
L 312.692678 -50.112 
L 312.367699 -50.112 
L 312.042719 -50.112 
L 311.71774 -50.112 
L 311.39276 -50.112 
L 311.067781 -50.112 
L 310.742801 -50.112 
L 310.417821 -50.112 
L 310.092842 -50.112 
L 309.767862 -50.112 
L 309.442883 -50.112 
L 309.117903 -50.112 
L 308.792924 -50.112 
L 308.467944 -50.112 
L 308.142965 -50.112 
L 307.817985 -50.112 
L 307.493006 -50.112 
L 307.168026 -50.112 
L 306.843047 -50.112 
L 306.518067 -50.112 
L 306.193088 -50.112 
L 305.868108 -50.112 
L 305.543129 -50.112 
L 305.218149 -50.112 
L 304.89317 -50.112 
L 304.56819 -50.112 
L 304.24321 -50.112 
L 303.918231 -50.112 
L 303.593251 -50.112 
L 303.268272 -50.112 
L 302.943292 -50.112 
L 302.618313 -50.112 
L 302.293333 -50.112 
L 301.968354 -50.112 
L 301.643374 -50.112 
L 301.318395 -50.112 
L 300.993415 -50.112 
L 300.668436 -50.112 
L 300.343456 -50.112 
L 300.018477 -50.112 
L 299.693497 -50.112 
L 299.368518 -50.112 
L 299.043538 -50.112 
L 298.718559 -50.112 
L 298.393579 -50.112 
L 298.0686 -50.112 
L 297.74362 -50.112 
L 297.41864 -50.112 
L 297.093661 -50.112 
L 296.768681 -50.112 
L 296.443702 -50.112 
L 296.118722 -50.112 
L 295.793743 -50.112 
L 295.468763 -50.112 
L 295.143784 -50.112 
L 294.818804 -50.112 
L 294.493825 -50.112 
L 294.168845 -50.112 
L 293.843866 -50.112 
L 293.518886 -50.112 
L 293.193907 -50.112 
L 292.868927 -50.112 
L 292.543948 -50.112 
L 292.218968 -50.112 
L 291.893989 -50.112 
L 291.569009 -50.112 
L 291.244029 -50.112 
L 290.91905 -50.112 
L 290.59407 -50.112 
L 290.269091 -50.112 
L 289.944111 -50.112 
L 289.619132 -50.112 
L 289.294152 -50.112 
L 288.969173 -50.112 
L 288.644193 -50.112 
L 288.319214 -50.112 
L 287.994234 -50.112 
L 287.669255 -50.112 
L 287.344275 -50.112 
L 287.019296 -50.112 
L 286.694316 -50.112 
L 286.369337 -50.112 
L 286.044357 -50.112 
L 285.719378 -50.112 
L 285.394398 -50.112 
L 285.069419 -50.112 
L 284.744439 -50.112 
L 284.419459 -50.112 
L 284.09448 -50.112 
L 283.7695 -50.112 
L 283.444521 -50.112 
L 283.119541 -50.112 
L 282.794562 -50.112 
L 282.469582 -50.112 
L 282.144603 -50.112 
L 281.819623 -50.112 
L 281.494644 -50.112 
L 281.169664 -50.112 
L 280.844685 -50.112 
L 280.519705 -50.112 
L 280.194726 -50.112 
L 279.869746 -50.112 
L 279.544767 -50.112 
L 279.219787 -50.112 
L 278.894808 -50.112 
L 278.569828 -50.112 
L 278.244848 -50.112 
L 277.919869 -50.112 
L 277.594889 -50.112 
L 277.26991 -50.112 
L 276.94493 -50.112 
L 276.619951 -50.112 
L 276.294971 -50.112 
L 275.969992 -50.112 
L 275.645012 -50.112 
L 275.320033 -50.112 
L 274.995053 -50.112 
L 274.670074 -50.112 
L 274.345094 -50.112 
L 274.020115 -50.112 
L 273.695135 -50.112 
L 273.370156 -50.112 
L 273.045176 -50.112 
L 272.720197 -50.112 
L 272.395217 -50.112 
L 272.070238 -50.112 
L 271.745258 -50.112 
L 271.420278 -50.112 
L 271.095299 -50.112 
L 270.770319 -50.112 
L 270.44534 -50.112 
L 270.12036 -50.112 
L 269.795381 -50.112 
L 269.470401 -50.112 
L 269.145422 -50.112 
L 268.820442 -50.112 
L 268.495463 -50.112 
L 268.170483 -50.112 
L 267.845504 -50.112 
L 267.520524 -50.112 
L 267.195545 -50.112 
L 266.870565 -50.112 
L 266.545586 -50.112 
L 266.220606 -50.112 
L 265.895627 -50.112 
L 265.570647 -50.112 
L 265.245667 -50.112 
L 264.920688 -50.112 
L 264.595708 -50.112 
L 264.270729 -50.112 
L 263.945749 -50.112 
L 263.62077 -50.112 
L 263.29579 -50.112 
L 262.970811 -50.112 
L 262.645831 -50.112 
L 262.320852 -50.112 
L 261.995872 -50.112 
L 261.670893 -50.112 
L 261.345913 -50.112 
L 261.020934 -50.112 
L 260.695954 -50.112 
L 260.370975 -50.112 
L 260.045995 -50.112 
L 259.721016 -50.112 
L 259.396036 -50.112 
L 259.071057 -50.112 
L 258.746077 -50.112 
L 258.421097 -50.112 
L 258.096118 -50.112 
L 257.771138 -50.112 
L 257.446159 -50.112 
L 257.121179 -50.112 
L 256.7962 -50.112 
L 256.47122 -50.112 
L 256.146241 -50.112 
L 255.821261 -50.112 
L 255.496282 -50.112 
L 255.171302 -50.112 
L 254.846323 -50.112 
L 254.521343 -50.112 
L 254.196364 -50.112 
L 253.871384 -50.112 
L 253.546405 -50.112 
L 253.221425 -50.112 
L 252.896446 -50.112 
L 252.571466 -50.112 
L 252.246486 -50.112 
L 251.921507 -50.112 
L 251.596527 -50.112 
L 251.271548 -50.112 
L 250.946568 -50.112 
L 250.621589 -50.112 
L 250.296609 -50.112 
L 249.97163 -50.112 
L 249.64665 -50.112 
L 249.321671 -50.112 
L 248.996691 -50.112 
L 248.671712 -50.112 
L 248.346732 -50.112 
L 248.021753 -50.112 
L 247.696773 -50.112 
L 247.371794 -50.112 
L 247.046814 -50.112 
L 246.721835 -50.112 
L 246.396855 -50.112 
L 246.071876 -50.112 
L 245.746896 -50.112 
L 245.421916 -50.112 
L 245.096937 -50.112 
L 244.771957 -50.112 
L 244.446978 -50.112 
L 244.121998 -50.112 
L 243.797019 -50.112 
L 243.472039 -50.112 
L 243.14706 -50.112 
L 242.82208 -50.112 
L 242.497101 -50.112 
L 242.172121 -50.112 
L 241.847142 -50.112 
L 241.522162 -50.112 
L 241.197183 -50.112 
L 240.872203 -50.112 
L 240.547224 -50.112 
L 240.222244 -50.112 
L 239.897265 -50.112 
L 239.572285 -50.112 
L 239.247305 -50.112 
L 238.922326 -50.112 
L 238.597346 -50.112 
L 238.272367 -50.112 
L 237.947387 -50.112 
L 237.622408 -50.112 
L 237.297428 -50.112 
L 236.972449 -50.112 
L 236.647469 -50.112 
L 236.32249 -50.112 
L 235.99751 -50.112 
L 235.672531 -50.112 
L 235.347551 -50.112 
L 235.022572 -50.112 
L 234.697592 -50.112 
L 234.372613 -50.112 
L 234.047633 -50.112 
L 233.722654 -50.112 
L 233.397674 -50.112 
L 233.072695 -50.112 
L 232.747715 -50.112 
L 232.422735 -50.112 
L 232.097756 -50.112 
L 231.772776 -50.112 
L 231.447797 -50.112 
L 231.122817 -50.112 
L 230.797838 -50.112 
L 230.472858 -50.112 
L 230.147879 -50.112 
L 229.822899 -50.112 
L 229.49792 -50.112 
L 229.17294 -50.112 
L 228.847961 -50.112 
L 228.522981 -50.112 
L 228.198002 -50.112 
L 227.873022 -50.112 
L 227.548043 -50.112 
L 227.223063 -50.112 
L 226.898084 -50.112 
L 226.573104 -50.112 
L 226.248124 -50.112 
L 225.923145 -50.112 
L 225.598165 -50.112 
L 225.273186 -50.112 
L 224.948206 -50.112 
L 224.623227 -50.112 
L 224.298247 -50.112 
L 223.973268 -50.112 
L 223.648288 -50.112 
L 223.323309 -50.112 
L 222.998329 -50.112 
L 222.67335 -50.112 
L 222.34837 -50.112 
L 222.023391 -50.112 
L 221.698411 -50.112 
L 221.373432 -50.112 
L 221.048452 -50.112 
L 220.723473 -50.112 
L 220.398493 -50.112 
L 220.073514 -50.112 
L 219.748534 -50.112 
L 219.423554 -50.112 
L 219.098575 -50.112 
L 218.773595 -50.112 
L 218.448616 -50.112 
L 218.123636 -50.112 
L 217.798657 -50.112 
L 217.473677 -50.112 
L 217.148698 -50.112 
L 216.823718 -50.112 
L 216.498739 -50.112 
L 216.173759 -50.112 
L 215.84878 -50.112 
L 215.5238 -50.112 
L 215.198821 -50.112 
L 214.873841 -50.112 
L 214.548862 -50.112 
L 214.223882 -50.112 
L 213.898903 -50.112 
L 213.573923 -50.112 
L 213.248943 -50.112 
L 212.923964 -50.112 
L 212.598984 -50.112 
L 212.274005 -50.112 
L 211.949025 -50.112 
L 211.624046 -50.112 
L 211.299066 -50.112 
L 210.974087 -50.112 
L 210.649107 -50.112 
L 210.324128 -50.112 
L 209.999148 -50.112 
L 209.674169 -50.112 
L 209.349189 -50.112 
L 209.02421 -50.112 
L 208.69923 -50.112 
L 208.374251 -50.112 
L 208.049271 -50.112 
L 207.724292 -50.112 
L 207.399312 -50.112 
L 207.074333 -50.112 
L 206.749353 -50.112 
L 206.424373 -50.112 
L 206.099394 -50.112 
L 205.774414 -50.112 
L 205.449435 -50.112 
L 205.124455 -50.112 
L 204.799476 -50.112 
L 204.474496 -50.112 
L 204.149517 -50.112 
L 203.824537 -50.112 
L 203.499558 -50.112 
L 203.174578 -50.112 
L 202.849599 -50.112 
L 202.524619 -50.112 
L 202.19964 -50.112 
L 201.87466 -50.112 
L 201.549681 -50.112 
L 201.224701 -50.112 
L 200.899722 -50.112 
L 200.574742 -50.112 
L 200.249762 -50.112 
L 199.924783 -50.112 
L 199.599803 -50.112 
L 199.274824 -50.112 
L 198.949844 -50.112 
L 198.624865 -50.112 
L 198.299885 -50.112 
L 197.974906 -50.112 
L 197.649926 -50.112 
L 197.324947 -50.112 
L 196.999967 -50.112 
L 196.674988 -50.112 
L 196.350008 -50.112 
L 196.025029 -50.112 
L 195.700049 -50.112 
L 195.37507 -50.112 
L 195.05009 -50.112 
L 194.725111 -50.112 
L 194.400131 -50.112 
L 194.075152 -50.112 
L 193.750172 -50.112 
L 193.425192 -50.112 
L 193.100213 -50.112 
L 192.775233 -50.112 
L 192.450254 -50.112 
L 192.125274 -50.112 
L 191.800295 -50.112 
L 191.475315 -50.112 
L 191.150336 -50.112 
L 190.825356 -50.112 
L 190.500377 -50.112 
L 190.175397 -50.112 
L 189.850418 -50.112 
L 189.525438 -50.112 
L 189.200459 -50.112 
L 188.875479 -50.112 
L 188.5505 -50.112 
L 188.22552 -50.112 
L 187.900541 -50.112 
L 187.575561 -50.112 
L 187.250581 -50.112 
L 186.925602 -50.112 
L 186.600622 -50.112 
L 186.275643 -50.112 
L 185.950663 -50.112 
L 185.625684 -50.112 
L 185.300704 -50.112 
L 184.975725 -50.112 
L 184.650745 -50.112 
L 184.325766 -50.112 
L 184.000786 -50.112 
L 183.675807 -50.112 
L 183.350827 -50.112 
L 183.025848 -50.112 
L 182.700868 -50.112 
L 182.375889 -50.112 
L 182.050909 -50.112 
L 181.72593 -50.112 
L 181.40095 -50.112 
L 181.075971 -50.112 
L 180.750991 -50.112 
L 180.426011 -50.112 
L 180.101032 -50.112 
L 179.776052 -50.112 
L 179.451073 -50.112 
L 179.126093 -50.112 
L 178.801114 -50.112 
L 178.476134 -50.112 
L 178.151155 -50.112 
L 177.826175 -50.112 
L 177.501196 -50.112 
L 177.176216 -50.112 
L 176.851237 -50.112 
L 176.526257 -50.112 
L 176.201278 -50.112 
L 175.876298 -50.112 
L 175.551319 -50.112 
L 175.226339 -50.112 
L 174.90136 -50.112 
L 174.57638 -50.112 
L 174.2514 -50.112 
L 173.926421 -50.112 
L 173.601441 -50.112 
L 173.276462 -50.112 
L 172.951482 -50.112 
L 172.626503 -50.112 
L 172.301523 -50.112 
L 171.976544 -50.112 
L 171.651564 -50.112 
L 171.326585 -50.112 
L 171.001605 -50.112 
L 170.676626 -50.112 
L 170.351646 -50.112 
L 170.026667 -50.112 
L 169.701687 -50.112 
L 169.376708 -50.112 
L 169.051728 -50.112 
L 168.726749 -50.112 
L 168.401769 -50.112 
L 168.07679 -50.112 
L 167.75181 -50.112 
L 167.42683 -50.112 
L 167.101851 -50.112 
L 166.776871 -50.112 
L 166.451892 -50.112 
L 166.126912 -50.112 
L 165.801933 -50.112 
L 165.476953 -50.112 
L 165.151974 -50.112 
L 164.826994 -50.112 
L 164.502015 -50.112 
L 164.177035 -50.112 
L 163.852056 -50.112 
L 163.527076 -50.112 
L 163.202097 -50.112 
L 162.877117 -50.112 
L 162.552138 -50.112 
L 162.227158 -50.112 
L 161.902179 -50.112 
L 161.577199 -50.112 
L 161.252219 -50.112 
L 160.92724 -50.112 
L 160.60226 -50.112 
L 160.277281 -50.112 
L 159.952301 -50.112 
L 159.627322 -50.112 
L 159.302342 -50.112 
L 158.977363 -50.112 
L 158.652383 -50.112 
L 158.327404 -50.112 
L 158.002424 -50.112 
L 157.677445 -50.112 
L 157.352465 -50.112 
L 157.027486 -50.112 
L 156.702506 -50.112 
L 156.377527 -50.112 
L 156.052547 -50.112 
L 155.727568 -50.112 
L 155.402588 -50.112 
L 155.077609 -50.112 
L 154.752629 -50.112 
L 154.427649 -50.112 
L 154.10267 -50.112 
L 153.77769 -50.112 
L 153.452711 -50.112 
L 153.127731 -50.112 
L 152.802752 -50.112 
L 152.477772 -50.112 
L 152.152793 -50.112 
L 151.827813 -50.112 
L 151.502834 -50.112 
L 151.177854 -50.112 
L 150.852875 -50.112 
L 150.527895 -50.112 
L 150.202916 -50.112 
L 149.877936 -50.112 
L 149.552957 -50.112 
L 149.227977 -50.112 
L 148.902998 -50.112 
L 148.578018 -50.112 
L 148.253038 -50.112 
L 147.928059 -50.112 
L 147.603079 -50.112 
L 147.2781 -50.112 
L 146.95312 -50.112 
L 146.628141 -50.112 
L 146.303161 -50.112 
L 145.978182 -50.112 
L 145.653202 -50.112 
L 145.328223 -50.112 
L 145.003243 -50.112 
L 144.678264 -50.112 
L 144.353284 -50.112 
L 144.028305 -50.112 
L 143.703325 -50.112 
L 143.378346 -50.112 
L 143.053366 -50.112 
L 142.728387 -50.112 
L 142.403407 -50.112 
L 142.078428 -50.112 
L 141.753448 -50.112 
L 141.428468 -50.112 
L 141.103489 -50.112 
L 140.778509 -50.112 
L 140.45353 -50.112 
L 140.12855 -50.112 
L 139.803571 -50.112 
L 139.478591 -50.112 
L 139.153612 -50.112 
L 138.828632 -50.112 
L 138.503653 -50.112 
L 138.178673 -50.112 
L 137.853694 -50.112 
L 137.528714 -50.112 
L 137.203735 -50.112 
L 136.878755 -50.112 
L 136.553776 -50.112 
L 136.228796 -50.112 
L 135.903817 -50.112 
L 135.578837 -50.112 
L 135.253857 -50.112 
L 134.928878 -50.112 
L 134.603898 -50.112 
L 134.278919 -50.112 
L 133.953939 -50.112 
L 133.62896 -50.112 
L 133.30398 -50.112 
L 132.979001 -50.112 
L 132.654021 -50.112 
L 132.329042 -50.112 
L 132.004062 -50.112 
L 131.679083 -50.112 
L 131.354103 -50.112 
L 131.029124 -50.112 
L 130.704144 -50.112 
L 130.379165 -50.112 
L 130.054185 -50.112 
L 129.729206 -50.112 
L 129.404226 -50.112 
L 129.079247 -50.112 
L 128.754267 -50.112 
L 128.429287 -50.112 
L 128.104308 -50.112 
L 127.779328 -50.112 
L 127.454349 -50.112 
L 127.129369 -50.112 
L 126.80439 -50.112 
L 126.47941 -50.112 
L 126.154431 -50.112 
L 125.829451 -50.112 
L 125.504472 -50.112 
L 125.179492 -50.112 
L 124.854513 -50.112 
L 124.529533 -50.112 
L 124.204554 -50.112 
L 123.879574 -50.112 
L 123.554595 -50.112 
L 123.229615 -50.112 
L 122.904636 -50.112 
L 122.579656 -50.112 
L 122.254676 -50.112 
L 121.929697 -50.112 
L 121.604717 -50.112 
L 121.279738 -50.112 
L 120.954758 -50.112 
L 120.629779 -50.112 
L 120.304799 -50.112 
L 119.97982 -50.112 
L 119.65484 -50.112 
L 119.329861 -50.112 
L 119.004881 -50.112 
L 118.679902 -50.112 
L 118.354922 -50.112 
L 118.029943 -50.112 
L 117.704963 -50.112 
L 117.379984 -50.112 
L 117.055004 -50.112 
L 116.730025 -50.112 
L 116.405045 -50.112 
L 116.080066 -50.112 
L 115.755086 -50.112 
L 115.430106 -50.112 
L 115.105127 -50.112 
L 114.780147 -50.112 
L 114.455168 -50.112 
z
" style="stroke: #002d8b; stroke-opacity: 0.5"/>
    </defs>
    <g clip-path="url(#pf0df83a455)">
     <use xlink:href="#mc06bfca8fd" x="0" y="345.6" style="fill: #002d8b; fill-opacity: 0.5; stroke: #002d8b; stroke-opacity: 0.5"/>
    </g>
   </g>
   <g id="matplotlib.axis_1">
    <g id="xtick_1">
     <g id="line2d_1">
      <path d="M 73.832727 307.584 
L 73.832727 41.472 
" clip-path="url(#pf0df83a455)" style="fill: none; stroke: #b0b0b0; stroke-opacity: 0.3; stroke-width: 0.8; stroke-linecap: square"/>
     </g>
     <g id="line2d_2">
      <defs>
       <path id="md79713a34e" d="M 0 0 
L 0 3.5 
" style="stroke: #000000; stroke-width: 0.8"/>
      </defs>
      <g>
       <use xlink:href="#md79713a34e" x="73.832727" y="307.584" style="stroke: #000000; stroke-width: 0.8"/>
      </g>
     </g>
     <g id="text_1">
      <!-- −4 -->
      <g transform="translate(66.461634 322.182437) scale(0.1 -0.1)">
       <defs>
        <path id="DejaVuSans-2212" d="M 678 2272 
L 4684 2272 
L 4684 1741 
L 678 1741 
L 678 2272 
z
" transform="scale(0.015625)"/>
        <path id="DejaVuSans-34" d="M 2419 4116 
L 825 1625 
L 2419 1625 
L 2419 4116 
z
M 2253 4666 
L 3047 4666 
L 3047 1625 
L 3713 1625 
L 3713 1100 
L 3047 1100 
L 3047 0 
L 2419 0 
L 2419 1100 
L 313 1100 
L 313 1709 
L 2253 4666 
z
" transform="scale(0.015625)"/>
       </defs>
       <use xlink:href="#DejaVuSans-2212"/>
       <use xlink:href="#DejaVuSans-34" transform="translate(83.789062 0)"/>
      </g>
     </g>
    </g>
    <g id="xtick_2">
     <g id="line2d_3">
      <path d="M 114.414545 307.584 
L 114.414545 41.472 
" clip-path="url(#pf0df83a455)" style="fill: none; stroke: #b0b0b0; stroke-opacity: 0.3; stroke-width: 0.8; stroke-linecap: square"/>
     </g>
     <g id="line2d_4">
      <g>
       <use xlink:href="#md79713a34e" x="114.414545" y="307.584" style="stroke: #000000; stroke-width: 0.8"/>
      </g>
     </g>
     <g id="text_2">
      <!-- −3 -->
      <g transform="translate(107.043452 322.182437) scale(0.1 -0.1)">
       <defs>
        <path id="DejaVuSans-33" d="M 2597 2516 
Q 3050 2419 3304 2112 
Q 3559 1806 3559 1356 
Q 3559 666 3084 287 
Q 2609 -91 1734 -91 
Q 1441 -91 1130 -33 
Q 819 25 488 141 
L 488 750 
Q 750 597 1062 519 
Q 1375 441 1716 441 
Q 2309 441 2620 675 
Q 2931 909 2931 1356 
Q 2931 1769 2642 2001 
Q 2353 2234 1838 2234 
L 1294 2234 
L 1294 2753 
L 1863 2753 
Q 2328 2753 2575 2939 
Q 2822 3125 2822 3475 
Q 2822 3834 2567 4026 
Q 2313 4219 1838 4219 
Q 1578 4219 1281 4162 
Q 984 4106 628 3988 
L 628 4550 
Q 988 4650 1302 4700 
Q 1616 4750 1894 4750 
Q 2613 4750 3031 4423 
Q 3450 4097 3450 3541 
Q 3450 3153 3228 2886 
Q 3006 2619 2597 2516 
z
" transform="scale(0.015625)"/>
       </defs>
       <use xlink:href="#DejaVuSans-2212"/>
       <use xlink:href="#DejaVuSans-33" transform="translate(83.789062 0)"/>
      </g>
     </g>
    </g>
    <g id="xtick_3">
     <g id="line2d_5">
      <path d="M 154.996364 307.584 
L 154.996364 41.472 
" clip-path="url(#pf0df83a455)" style="fill: none; stroke: #b0b0b0; stroke-opacity: 0.3; stroke-width: 0.8; stroke-linecap: square"/>
     </g>
     <g id="line2d_6">
      <g>
       <use xlink:href="#md79713a34e" x="154.996364" y="307.584" style="stroke: #000000; stroke-width: 0.8"/>
      </g>
     </g>
     <g id="text_3">
      <!-- −2 -->
      <g transform="translate(147.62527 322.182437) scale(0.1 -0.1)">
       <defs>
        <path id="DejaVuSans-32" d="M 1228 531 
L 3431 531 
L 3431 0 
L 469 0 
L 469 531 
Q 828 903 1448 1529 
Q 2069 2156 2228 2338 
Q 2531 2678 2651 2914 
Q 2772 3150 2772 3378 
Q 2772 3750 2511 3984 
Q 2250 4219 1831 4219 
Q 1534 4219 1204 4116 
Q 875 4013 500 3803 
L 500 4441 
Q 881 4594 1212 4672 
Q 1544 4750 1819 4750 
Q 2544 4750 2975 4387 
Q 3406 4025 3406 3419 
Q 3406 3131 3298 2873 
Q 3191 2616 2906 2266 
Q 2828 2175 2409 1742 
Q 1991 1309 1228 531 
z
" transform="scale(0.015625)"/>
       </defs>
       <use xlink:href="#DejaVuSans-2212"/>
       <use xlink:href="#DejaVuSans-32" transform="translate(83.789062 0)"/>
      </g>
     </g>
    </g>
    <g id="xtick_4">
     <g id="line2d_7">
      <path d="M 195.578182 307.584 
L 195.578182 41.472 
" clip-path="url(#pf0df83a455)" style="fill: none; stroke: #b0b0b0; stroke-opacity: 0.3; stroke-width: 0.8; stroke-linecap: square"/>
     </g>
     <g id="line2d_8">
      <g>
       <use xlink:href="#md79713a34e" x="195.578182" y="307.584" style="stroke: #000000; stroke-width: 0.8"/>
      </g>
     </g>
     <g id="text_4">
      <!-- −1 -->
      <g transform="translate(188.207088 322.182437) scale(0.1 -0.1)">
       <defs>
        <path id="DejaVuSans-31" d="M 794 531 
L 1825 531 
L 1825 4091 
L 703 3866 
L 703 4441 
L 1819 4666 
L 2450 4666 
L 2450 531 
L 3481 531 
L 3481 0 
L 794 0 
L 794 531 
z
" transform="scale(0.015625)"/>
       </defs>
       <use xlink:href="#DejaVuSans-2212"/>
       <use xlink:href="#DejaVuSans-31" transform="translate(83.789062 0)"/>
      </g>
     </g>
    </g>
    <g id="xtick_5">
     <g id="line2d_9">
      <path d="M 236.16 307.584 
L 236.16 41.472 
" clip-path="url(#pf0df83a455)" style="fill: none; stroke: #b0b0b0; stroke-opacity: 0.3; stroke-width: 0.8; stroke-linecap: square"/>
     </g>
     <g id="line2d_10">
      <g>
       <use xlink:href="#md79713a34e" x="236.16" y="307.584" style="stroke: #000000; stroke-width: 0.8"/>
      </g>
     </g>
     <g id="text_5">
      <!-- 0 -->
      <g transform="translate(232.97875 322.182437) scale(0.1 -0.1)">
       <defs>
        <path id="DejaVuSans-30" d="M 2034 4250 
Q 1547 4250 1301 3770 
Q 1056 3291 1056 2328 
Q 1056 1369 1301 889 
Q 1547 409 2034 409 
Q 2525 409 2770 889 
Q 3016 1369 3016 2328 
Q 3016 3291 2770 3770 
Q 2525 4250 2034 4250 
z
M 2034 4750 
Q 2819 4750 3233 4129 
Q 3647 3509 3647 2328 
Q 3647 1150 3233 529 
Q 2819 -91 2034 -91 
Q 1250 -91 836 529 
Q 422 1150 422 2328 
Q 422 3509 836 4129 
Q 1250 4750 2034 4750 
z
" transform="scale(0.015625)"/>
       </defs>
       <use xlink:href="#DejaVuSans-30"/>
      </g>
     </g>
    </g>
    <g id="xtick_6">
     <g id="line2d_11">
      <path d="M 276.741818 307.584 
L 276.741818 41.472 
" clip-path="url(#pf0df83a455)" style="fill: none; stroke: #b0b0b0; stroke-opacity: 0.3; stroke-width: 0.8; stroke-linecap: square"/>
     </g>
     <g id="line2d_12">
      <g>
       <use xlink:href="#md79713a34e" x="276.741818" y="307.584" style="stroke: #000000; stroke-width: 0.8"/>
      </g>
     </g>
     <g id="text_6">
      <!-- 1 -->
      <g transform="translate(273.560568 322.182437) scale(0.1 -0.1)">
       <use xlink:href="#DejaVuSans-31"/>
      </g>
     </g>
    </g>
    <g id="xtick_7">
     <g id="line2d_13">
      <path d="M 317.323636 307.584 
L 317.323636 41.472 
" clip-path="url(#pf0df83a455)" style="fill: none; stroke: #b0b0b0; stroke-opacity: 0.3; stroke-width: 0.8; stroke-linecap: square"/>
     </g>
     <g id="line2d_14">
      <g>
       <use xlink:href="#md79713a34e" x="317.323636" y="307.584" style="stroke: #000000; stroke-width: 0.8"/>
      </g>
     </g>
     <g id="text_7">
      <!-- 2 -->
      <g transform="translate(314.142386 322.182437) scale(0.1 -0.1)">
       <use xlink:href="#DejaVuSans-32"/>
      </g>
     </g>
    </g>
    <g id="xtick_8">
     <g id="line2d_15">
      <path d="M 357.905455 307.584 
L 357.905455 41.472 
" clip-path="url(#pf0df83a455)" style="fill: none; stroke: #b0b0b0; stroke-opacity: 0.3; stroke-width: 0.8; stroke-linecap: square"/>
     </g>
     <g id="line2d_16">
      <g>
       <use xlink:href="#md79713a34e" x="357.905455" y="307.584" style="stroke: #000000; stroke-width: 0.8"/>
      </g>
     </g>
     <g id="text_8">
      <!-- 3 -->
      <g transform="translate(354.724205 322.182437) scale(0.1 -0.1)">
       <use xlink:href="#DejaVuSans-33"/>
      </g>
     </g>
    </g>
    <g id="xtick_9">
     <g id="line2d_17">
      <path d="M 398.487273 307.584 
L 398.487273 41.472 
" clip-path="url(#pf0df83a455)" style="fill: none; stroke: #b0b0b0; stroke-opacity: 0.3; stroke-width: 0.8; stroke-linecap: square"/>
     </g>
     <g id="line2d_18">
      <g>
       <use xlink:href="#md79713a34e" x="398.487273" y="307.584" style="stroke: #000000; stroke-width: 0.8"/>
      </g>
     </g>
     <g id="text_9">
      <!-- 4 -->
      <g transform="translate(395.306023 322.182437) scale(0.1 -0.1)">
       <use xlink:href="#DejaVuSans-34"/>
      </g>
     </g>
    </g>
   </g>
   <g id="matplotlib.axis_2">
    <g id="ytick_1">
     <g id="line2d_19">
      <path d="M 57.6 295.488 
L 414.72 295.488 
" clip-path="url(#pf0df83a455)" style="fill: none; stroke: #b0b0b0; stroke-opacity: 0.3; stroke-width: 0.8; stroke-linecap: square"/>
     </g>
     <g id="line2d_20">
      <defs>
       <path id="m57f800fbba" d="M 0 0 
L -3.5 0 
" style="stroke: #000000; stroke-width: 0.8"/>
      </defs>
      <g>
       <use xlink:href="#m57f800fbba" x="57.6" y="295.488" style="stroke: #000000; stroke-width: 0.8"/>
      </g>
     </g>
     <g id="text_10">
      <!-- 0.00 -->
      <g transform="translate(28.334375 299.287219) scale(0.1 -0.1)">
       <defs>
        <path id="DejaVuSans-2e" d="M 684 794 
L 1344 794 
L 1344 0 
L 684 0 
L 684 794 
z
" transform="scale(0.015625)"/>
       </defs>
       <use xlink:href="#DejaVuSans-30"/>
       <use xlink:href="#DejaVuSans-2e" transform="translate(63.623047 0)"/>
       <use xlink:href="#DejaVuSans-30" transform="translate(95.410156 0)"/>
       <use xlink:href="#DejaVuSans-30" transform="translate(159.033203 0)"/>
      </g>
     </g>
    </g>
    <g id="ytick_2">
     <g id="line2d_21">
      <path d="M 57.6 265.167581 
L 414.72 265.167581 
" clip-path="url(#pf0df83a455)" style="fill: none; stroke: #b0b0b0; stroke-opacity: 0.3; stroke-width: 0.8; stroke-linecap: square"/>
     </g>
     <g id="line2d_22">
      <g>
       <use xlink:href="#m57f800fbba" x="57.6" y="265.167581" style="stroke: #000000; stroke-width: 0.8"/>
      </g>
     </g>
     <g id="text_11">
      <!-- 0.05 -->
      <g transform="translate(28.334375 268.9668) scale(0.1 -0.1)">
       <defs>
        <path id="DejaVuSans-35" d="M 691 4666 
L 3169 4666 
L 3169 4134 
L 1269 4134 
L 1269 2991 
Q 1406 3038 1543 3061 
Q 1681 3084 1819 3084 
Q 2600 3084 3056 2656 
Q 3513 2228 3513 1497 
Q 3513 744 3044 326 
Q 2575 -91 1722 -91 
Q 1428 -91 1123 -41 
Q 819 9 494 109 
L 494 744 
Q 775 591 1075 516 
Q 1375 441 1709 441 
Q 2250 441 2565 725 
Q 2881 1009 2881 1497 
Q 2881 1984 2565 2268 
Q 2250 2553 1709 2553 
Q 1456 2553 1204 2497 
Q 953 2441 691 2322 
L 691 4666 
z
" transform="scale(0.015625)"/>
       </defs>
       <use xlink:href="#DejaVuSans-30"/>
       <use xlink:href="#DejaVuSans-2e" transform="translate(63.623047 0)"/>
       <use xlink:href="#DejaVuSans-30" transform="translate(95.410156 0)"/>
       <use xlink:href="#DejaVuSans-35" transform="translate(159.033203 0)"/>
      </g>
     </g>
    </g>
    <g id="ytick_3">
     <g id="line2d_23">
      <path d="M 57.6 234.847163 
L 414.72 234.847163 
" clip-path="url(#pf0df83a455)" style="fill: none; stroke: #b0b0b0; stroke-opacity: 0.3; stroke-width: 0.8; stroke-linecap: square"/>
     </g>
     <g id="line2d_24">
      <g>
       <use xlink:href="#m57f800fbba" x="57.6" y="234.847163" style="stroke: #000000; stroke-width: 0.8"/>
      </g>
     </g>
     <g id="text_12">
      <!-- 0.10 -->
      <g transform="translate(28.334375 238.646381) scale(0.1 -0.1)">
       <use xlink:href="#DejaVuSans-30"/>
       <use xlink:href="#DejaVuSans-2e" transform="translate(63.623047 0)"/>
       <use xlink:href="#DejaVuSans-31" transform="translate(95.410156 0)"/>
       <use xlink:href="#DejaVuSans-30" transform="translate(159.033203 0)"/>
      </g>
     </g>
    </g>
    <g id="ytick_4">
     <g id="line2d_25">
      <path d="M 57.6 204.526744 
L 414.72 204.526744 
" clip-path="url(#pf0df83a455)" style="fill: none; stroke: #b0b0b0; stroke-opacity: 0.3; stroke-width: 0.8; stroke-linecap: square"/>
     </g>
     <g id="line2d_26">
      <g>
       <use xlink:href="#m57f800fbba" x="57.6" y="204.526744" style="stroke: #000000; stroke-width: 0.8"/>
      </g>
     </g>
     <g id="text_13">
      <!-- 0.15 -->
      <g transform="translate(28.334375 208.325963) scale(0.1 -0.1)">
       <use xlink:href="#DejaVuSans-30"/>
       <use xlink:href="#DejaVuSans-2e" transform="translate(63.623047 0)"/>
       <use xlink:href="#DejaVuSans-31" transform="translate(95.410156 0)"/>
       <use xlink:href="#DejaVuSans-35" transform="translate(159.033203 0)"/>
      </g>
     </g>
    </g>
    <g id="ytick_5">
     <g id="line2d_27">
      <path d="M 57.6 174.206325 
L 414.72 174.206325 
" clip-path="url(#pf0df83a455)" style="fill: none; stroke: #b0b0b0; stroke-opacity: 0.3; stroke-width: 0.8; stroke-linecap: square"/>
     </g>
     <g id="line2d_28">
      <g>
       <use xlink:href="#m57f800fbba" x="57.6" y="174.206325" style="stroke: #000000; stroke-width: 0.8"/>
      </g>
     </g>
     <g id="text_14">
      <!-- 0.20 -->
      <g transform="translate(28.334375 178.005544) scale(0.1 -0.1)">
       <use xlink:href="#DejaVuSans-30"/>
       <use xlink:href="#DejaVuSans-2e" transform="translate(63.623047 0)"/>
       <use xlink:href="#DejaVuSans-32" transform="translate(95.410156 0)"/>
       <use xlink:href="#DejaVuSans-30" transform="translate(159.033203 0)"/>
      </g>
     </g>
    </g>
    <g id="ytick_6">
     <g id="line2d_29">
      <path d="M 57.6 143.885907 
L 414.72 143.885907 
" clip-path="url(#pf0df83a455)" style="fill: none; stroke: #b0b0b0; stroke-opacity: 0.3; stroke-width: 0.8; stroke-linecap: square"/>
     </g>
     <g id="line2d_30">
      <g>
       <use xlink:href="#m57f800fbba" x="57.6" y="143.885907" style="stroke: #000000; stroke-width: 0.8"/>
      </g>
     </g>
     <g id="text_15">
      <!-- 0.25 -->
      <g transform="translate(28.334375 147.685125) scale(0.1 -0.1)">
       <use xlink:href="#DejaVuSans-30"/>
       <use xlink:href="#DejaVuSans-2e" transform="translate(63.623047 0)"/>
       <use xlink:href="#DejaVuSans-32" transform="translate(95.410156 0)"/>
       <use xlink:href="#DejaVuSans-35" transform="translate(159.033203 0)"/>
      </g>
     </g>
    </g>
    <g id="ytick_7">
     <g id="line2d_31">
      <path d="M 57.6 113.565488 
L 414.72 113.565488 
" clip-path="url(#pf0df83a455)" style="fill: none; stroke: #b0b0b0; stroke-opacity: 0.3; stroke-width: 0.8; stroke-linecap: square"/>
     </g>
     <g id="line2d_32">
      <g>
       <use xlink:href="#m57f800fbba" x="57.6" y="113.565488" style="stroke: #000000; stroke-width: 0.8"/>
      </g>
     </g>
     <g id="text_16">
      <!-- 0.30 -->
      <g transform="translate(28.334375 117.364707) scale(0.1 -0.1)">
       <use xlink:href="#DejaVuSans-30"/>
       <use xlink:href="#DejaVuSans-2e" transform="translate(63.623047 0)"/>
       <use xlink:href="#DejaVuSans-33" transform="translate(95.410156 0)"/>
       <use xlink:href="#DejaVuSans-30" transform="translate(159.033203 0)"/>
      </g>
     </g>
    </g>
    <g id="ytick_8">
     <g id="line2d_33">
      <path d="M 57.6 83.245069 
L 414.72 83.245069 
" clip-path="url(#pf0df83a455)" style="fill: none; stroke: #b0b0b0; stroke-opacity: 0.3; stroke-width: 0.8; stroke-linecap: square"/>
     </g>
     <g id="line2d_34">
      <g>
       <use xlink:href="#m57f800fbba" x="57.6" y="83.245069" style="stroke: #000000; stroke-width: 0.8"/>
      </g>
     </g>
     <g id="text_17">
      <!-- 0.35 -->
      <g transform="translate(28.334375 87.044288) scale(0.1 -0.1)">
       <use xlink:href="#DejaVuSans-30"/>
       <use xlink:href="#DejaVuSans-2e" transform="translate(63.623047 0)"/>
       <use xlink:href="#DejaVuSans-33" transform="translate(95.410156 0)"/>
       <use xlink:href="#DejaVuSans-35" transform="translate(159.033203 0)"/>
      </g>
     </g>
    </g>
    <g id="ytick_9">
     <g id="line2d_35">
      <path d="M 57.6 52.924651 
L 414.72 52.924651 
" clip-path="url(#pf0df83a455)" style="fill: none; stroke: #b0b0b0; stroke-opacity: 0.3; stroke-width: 0.8; stroke-linecap: square"/>
     </g>
     <g id="line2d_36">
      <g>
       <use xlink:href="#m57f800fbba" x="57.6" y="52.924651" style="stroke: #000000; stroke-width: 0.8"/>
      </g>
     </g>
     <g id="text_18">
      <!-- 0.40 -->
      <g transform="translate(28.334375 56.723869) scale(0.1 -0.1)">
       <use xlink:href="#DejaVuSans-30"/>
       <use xlink:href="#DejaVuSans-2e" transform="translate(63.623047 0)"/>
       <use xlink:href="#DejaVuSans-34" transform="translate(95.410156 0)"/>
       <use xlink:href="#DejaVuSans-30" transform="translate(159.033203 0)"/>
      </g>
     </g>
    </g>
   </g>
   <g id="line2d_37">
    <path d="M 73.832727 295.406844 
L 87.806847 295.184779 
L 96.581294 294.835051 
L 103.080885 294.369735 
L 108.605536 293.756582 
L 113.15525 293.040565 
L 117.379984 292.150692 
L 120.954758 291.185862 
L 124.529533 289.984962 
L 127.779328 288.650828 
L 130.704144 287.221115 
L 133.62896 285.544223 
L 136.553776 283.58915 
L 139.153612 281.59157 
L 141.753448 279.325108 
L 144.353284 276.76599 
L 146.95312 273.890503 
L 149.552957 270.675418 
L 152.152793 267.09848 
L 154.752629 263.138937 
L 157.352465 258.778123 
L 159.952301 254.000074 
L 162.552138 248.792172 
L 165.476953 242.408916 
L 168.401769 235.465667 
L 171.326585 227.965825 
L 174.57638 218.996058 
L 177.826175 209.388645 
L 181.40095 198.144761 
L 185.625684 184.069069 
L 190.500377 167.022314 
L 206.749353 109.440476 
L 210.324128 97.943869 
L 213.248943 89.205098 
L 215.84878 82.046085 
L 218.448616 75.543173 
L 220.723473 70.449727 
L 222.67335 66.563394 
L 224.623227 63.146951 
L 226.573104 60.223284 
L 228.198002 58.177684 
L 229.822899 56.497755 
L 231.122817 55.422522 
L 232.422735 54.589753 
L 233.722654 54.001999 
L 235.022572 53.661065 
L 236.32249 53.568 
L 237.622408 53.723089 
L 238.922326 54.125856 
L 240.222244 54.775062 
L 241.522162 55.668715 
L 242.82208 56.804078 
L 244.446978 58.557836 
L 246.071876 60.675462 
L 247.696773 63.146951 
L 249.64665 66.563394 
L 251.596527 70.449727 
L 253.871384 75.543173 
L 256.146241 81.195762 
L 258.746077 88.277018 
L 261.670893 96.940546 
L 264.920688 107.292542 
L 268.820442 120.492594 
L 274.345094 140.099228 
L 285.719378 180.718649 
L 290.269091 196.030917 
L 294.168845 208.394621 
L 297.74362 218.996058 
L 300.993415 227.965825 
L 304.24321 236.264767 
L 307.168026 243.145795 
L 310.092842 249.467004 
L 313.017658 255.234455 
L 315.617494 259.906871 
L 318.21733 264.165754 
L 320.817166 268.027804 
L 323.417002 271.512265 
L 326.016839 274.640317 
L 328.616675 277.434508 
L 331.216511 279.918229 
L 333.816347 282.115248 
L 336.416183 284.049293 
L 339.340999 285.939789 
L 342.265815 287.559132 
L 345.190631 288.937952 
L 348.440426 290.222817 
L 352.015201 291.377614 
L 355.589975 292.303935 
L 359.814709 293.156837 
L 364.364423 293.841796 
L 369.564095 294.398753 
L 375.738706 294.835051 
L 383.538215 295.15704 
L 394.587518 295.369355 
L 398.487273 295.406844 
L 398.487273 295.406844 
" clip-path="url(#pf0df83a455)" style="fill: none; stroke: #1f77b4; stroke-width: 1.5; stroke-linecap: square"/>
   </g>
   <g id="patch_3">
    <path d="M 57.6 307.584 
L 57.6 41.472 
" style="fill: none; stroke: #000000; stroke-width: 0.8; stroke-linejoin: miter; stroke-linecap: square"/>
   </g>
   <g id="patch_4">
    <path d="M 414.72 307.584 
L 414.72 41.472 
" style="fill: none; stroke: #000000; stroke-width: 0.8; stroke-linejoin: miter; stroke-linecap: square"/>
   </g>
   <g id="patch_5">
    <path d="M 57.6 307.584 
L 414.72 307.584 
" style="fill: none; stroke: #000000; stroke-width: 0.8; stroke-linejoin: miter; stroke-linecap: square"/>
   </g>
   <g id="patch_6">
    <path d="M 57.6 41.472 
L 414.72 41.472 
" style="fill: none; stroke: #000000; stroke-width: 0.8; stroke-linejoin: miter; stroke-linecap: square"/>
   </g>
   <g id="text_19">
    <g id="patch_7">
     <path d="M 203.876406 183.366093 
L 268.443594 183.366093 
L 268.443594 165.687968 
L 203.876406 165.687968 
z
" style="fill: #ffffff; opacity: 0.7"/>
    </g>
    <!-- A = 0.9973 -->
    <g transform="translate(207.876406 177.286405) scale(0.1 -0.1)">
     <defs>
      <path id="DejaVuSans-41" d="M 2188 4044 
L 1331 1722 
L 3047 1722 
L 2188 4044 
z
M 1831 4666 
L 2547 4666 
L 4325 0 
L 3669 0 
L 3244 1197 
L 1141 1197 
L 716 0 
L 50 0 
L 1831 4666 
z
" transform="scale(0.015625)"/>
      <path id="DejaVuSans-20" transform="scale(0.015625)"/>
      <path id="DejaVuSans-3d" d="M 678 2906 
L 4684 2906 
L 4684 2381 
L 678 2381 
L 678 2906 
z
M 678 1631 
L 4684 1631 
L 4684 1100 
L 678 1100 
L 678 1631 
z
" transform="scale(0.015625)"/>
      <path id="DejaVuSans-39" d="M 703 97 
L 703 672 
Q 941 559 1184 500 
Q 1428 441 1663 441 
Q 2288 441 2617 861 
Q 2947 1281 2994 2138 
Q 2813 1869 2534 1725 
Q 2256 1581 1919 1581 
Q 1219 1581 811 2004 
Q 403 2428 403 3163 
Q 403 3881 828 4315 
Q 1253 4750 1959 4750 
Q 2769 4750 3195 4129 
Q 3622 3509 3622 2328 
Q 3622 1225 3098 567 
Q 2575 -91 1691 -91 
Q 1453 -91 1209 -44 
Q 966 3 703 97 
z
M 1959 2075 
Q 2384 2075 2632 2365 
Q 2881 2656 2881 3163 
Q 2881 3666 2632 3958 
Q 2384 4250 1959 4250 
Q 1534 4250 1286 3958 
Q 1038 3666 1038 3163 
Q 1038 2656 1286 2365 
Q 1534 2075 1959 2075 
z
" transform="scale(0.015625)"/>
      <path id="DejaVuSans-37" d="M 525 4666 
L 3525 4666 
L 3525 4397 
L 1831 0 
L 1172 0 
L 2766 4134 
L 525 4134 
L 525 4666 
z
" transform="scale(0.015625)"/>
     </defs>
     <use xlink:href="#DejaVuSans-41"/>
     <use xlink:href="#DejaVuSans-20" transform="translate(68.408203 0)"/>
     <use xlink:href="#DejaVuSans-3d" transform="translate(100.195312 0)"/>
     <use xlink:href="#DejaVuSans-20" transform="translate(183.984375 0)"/>
     <use xlink:href="#DejaVuSans-30" transform="translate(215.771484 0)"/>
     <use xlink:href="#DejaVuSans-2e" transform="translate(279.394531 0)"/>
     <use xlink:href="#DejaVuSans-39" transform="translate(311.181641 0)"/>
     <use xlink:href="#DejaVuSans-39" transform="translate(374.804688 0)"/>
     <use xlink:href="#DejaVuSans-37" transform="translate(438.427734 0)"/>
     <use xlink:href="#DejaVuSans-33" transform="translate(502.050781 0)"/>
    </g>
   </g>
  </g>
 </g>
 <defs>
  <clipPath id="pf0df83a455">
   <rect x="57.6" y="41.472" width="357.12" height="266.112"/>
  </clipPath>
 </defs>
</svg>
