<?xml version="1.0" encoding="UTF-8" standalone="no"?>
<!-- Created with Inkscape (http://www.inkscape.org/) -->

<svg
   width="130.75963mm"
   height="128.13019mm"
   viewBox="0 0 145.28848 142.36688"
   version="1.1"
   id="svg5"
   xml:space="preserve"
   inkscape:version="1.2.2 (b0a8486541, 2022-12-01)"
   sodipodi:docname="cqnLL3bC.svg"
   inkscape:export-filename="cqnLL3bC.png"
   inkscape:export-xdpi="96"
   inkscape:export-ydpi="96"
   xmlns:inkscape="http://www.inkscape.org/namespaces/inkscape"
   xmlns:sodipodi="http://sodipodi.sourceforge.net/DTD/sodipodi-0.dtd"
   xmlns="http://www.w3.org/2000/svg"
   xmlns:svg="http://www.w3.org/2000/svg"><sodipodi:namedview
     id="namedview7"
     pagecolor="#ffffff"
     bordercolor="#000000"
     borderopacity="0.25"
     inkscape:showpageshadow="2"
     inkscape:pageopacity="0.0"
     inkscape:pagecheckerboard="0"
     inkscape:deskcolor="#d1d1d1"
     inkscape:document-units="mm"
     showgrid="false"
     inkscape:zoom="0.78468112"
     inkscape:cx="87.296608"
     inkscape:cy="312.86594"
     inkscape:window-width="1704"
     inkscape:window-height="993"
     inkscape:window-x="0"
     inkscape:window-y="0"
     inkscape:window-maximized="1"
     inkscape:current-layer="layer1" /><defs
     id="defs2" /><g
     inkscape:label="Layer 1"
     inkscape:groupmode="layer"
     id="layer1"
     transform="translate(-47.082985,-38.589331)"><path
       style="fill:#000000;stroke-width:0.595909"
       d="m 47.1899,84.062429 h 68.55636 L 92.89414,127.47442 H 70.04202 Z"
       id="path283"
       sodipodi:nodetypes="ccccc" /><rect
       style="fill:#000000;stroke-width:0.465"
       id="rect494"
       width="51.798897"
       height="5.7554326"
       x="55.56863"
       y="128.85703"
       ry="1.9201736" /><rect
       style="fill:#000000;stroke-width:0.371754"
       id="rect494-3"
       width="68.770187"
       height="2.7707915"
       x="47.082985"
       y="81.809654"
       ry="0.92441368" /><path
       style="fill:none;stroke:#000000;stroke-width:4.165;stroke-dasharray:none"
       d="m 105.83873,93.016499 c 0,0 19.95997,-3.701858 14.31092,9.556801 -5.64904,13.25865 -25.258986,13.55391 -25.258986,13.55391"
       id="path577"
       sodipodi:nodetypes="csc" /><path
       class="st0"
       d="m 109.27252,141.19903 h -4.27971 v 12.34211 h 4.27971 c 0.92082,0 1.75793,-0.37669 2.36484,-0.98883 0.0314,-0.0261 0.0627,-0.0575 0.089,-0.0836 0.55457,-0.60167 0.89464,-1.40215 0.89464,-2.28111 v -5.6348 c 0,-0.92081 -0.37669,-1.75793 -0.98358,-2.37006 -0.60691,-0.60167 -1.44402,-0.98361 -2.36484,-0.98361 z m -55.463652,33.19659 h 16.961899 c -7.2776,-3.64667 -12.305488,-11.18588 -12.305488,-19.83949 v -17.86702 h 44.335331 v 0.0941 h 6.47713 c 2.13987,0 4.0809,0.87374 5.48829,2.28113 1.40739,1.40739 2.28113,3.34842 2.28113,5.48829 v 5.63482 c 0,2.0666 -0.82142,3.95533 -2.15032,5.35226 -0.0419,0.0524 -0.0837,0.0995 -0.13071,0.14119 -1.40739,1.40739 -3.34843,2.28111 -5.48829,2.28111 h -6.48759 c -0.0836,0 -0.16215,-0.006 -0.24591,-0.0158 -1.11964,7.20436 -5.739424,13.28384 -12.049116,16.44916 h 18.170486 c 0.58073,0 1.05685,0.4761 1.05685,1.05163 v 4.45236 c 0,0.58075 -0.47612,1.05685 -1.05685,1.05685 H 53.808967 c -0.575508,-8e-5 -1.051612,-0.47618 -1.051612,-1.05693 v -4.45236 c 0,-0.58075 0.470863,-1.05161 1.051612,-1.05161 z"
       id="path3723"
       style="fill:#000000;stroke-width:0.523192" /><path
       class="st0"
       d="m 57.332372,50.098911 c 3.725335,0 6.887104,3.336396 8.01423,7.966604 -0.283104,0.248708 -0.560917,0.508 -0.833438,0.780521 -2.4765,2.4765 -3.997854,5.458354 -4.450292,8.270875 -0.3175,1.960562 -0.116416,3.844396 0.629709,5.434542 -0.719667,0.43127 -1.49225,0.73025 -2.29923,0.870479 1.566334,-6.183313 0.809625,-9.257771 -0.362479,-12.104688 -1.135063,-2.756958 -2.674938,-5.712354 -0.936625,-11.215687 0.07673,0 0.15875,-0.0026 0.238125,-0.0026 z m 22.121814,7.130521 c 3.302,3.302 2.272771,9.686396 -2.299229,14.258396 -4.220105,4.220104 -9.98273,5.421312 -13.440834,2.987145 5.479521,-3.264958 7.117292,-5.974291 8.302625,-8.815916 1.145646,-2.751667 2.148417,-5.931959 7.268104,-8.591021 0.05556,0.05027 0.113771,0.105833 0.169334,0.161396 z M 63.158498,74.033119 c -0.08996,-0.07937 -0.177271,-0.161396 -0.261937,-0.246062 -3.302001,-3.302 -2.272772,-9.686396 2.299229,-14.258396 4.307417,-4.307417 10.220854,-5.468938 13.6525,-2.831042 -5.490104,2.772833 -6.974417,5.101167 -8.180917,7.998354 -1.132416,2.714625 -2.357437,6.193896 -7.508875,9.337146 z m -5.468939,-0.529166 c -0.119062,0.0079 -0.238124,0.01058 -0.357187,0.01058 -4.669896,3e-6 -8.456083,-5.241393 -8.456083,-11.70781 0,-6.090708 3.360208,-11.096625 7.654395,-11.654896 -1.92352,5.842 -1.325562,8.538105 -0.132291,11.437938 1.119187,2.722563 2.711979,6.048375 1.291166,11.914188 z"
       id="path4213"
       style="fill:#000000;stroke-width:0.264583" /><path
       class="st0"
       d="m 105.27117,49.746465 c 0.56563,2.416785 1.21482,4.347214 1.93686,5.780572 0.72203,1.43336 1.82758,2.986701 3.31023,4.662168 l 0.63847,0.711322 c 1.93686,2.155396 2.90314,4.317218 2.90314,6.472614 0,2.386789 -0.86129,4.432915 -2.58604,6.138376 -1.73117,1.705462 -3.79444,2.562478 -6.19837,2.562478 -2.3975,0 -4.45648,-0.857016 -6.187649,-2.562478 -1.726901,-1.705461 -2.590341,-3.751587 -2.590341,-6.138376 0,-2.155396 0.96628,-4.317218 2.903151,-6.472614 l 0.638469,-0.711322 c 1.4805,-1.675467 2.58605,-3.228808 3.31023,-4.662168 0.71989,-1.433358 1.3648,-3.363787 1.92185,-5.780572 z m -5.814849,16.345436 c -0.045,-0.488499 0.31709,-0.921292 0.805589,-0.966284 0.49065,-0.04499 0.92344,0.317095 0.96629,0.805594 0.11142,1.182682 0.37066,2.273235 0.86559,3.21381 0.47778,0.908437 1.18911,1.690464 2.21753,2.292518 0.42422,0.248534 0.56563,0.794882 0.31709,1.216962 -0.24854,0.424223 -0.79488,0.565631 -1.21696,0.317096 -1.33909,-0.78417 -2.2668,-1.804018 -2.89457,-2.997413 -0.610629,-1.161257 -0.927719,-2.474634 -1.060559,-3.882283 z"
       id="path4270"
       style="fill:#000000;stroke-width:0.214254" /><text
       xml:space="preserve"
       style="font-style:normal;font-variant:normal;font-weight:normal;font-stretch:normal;font-size:8.46667px;font-family:sans-serif;-inkscape-font-specification:'sans-serif, Normal';font-variant-ligatures:normal;font-variant-caps:normal;font-variant-numeric:normal;font-variant-east-asian:normal;fill:#000000;stroke:none;stroke-width:4.16499;stroke-dasharray:none"
       x="52.1656"
       y="45.066334"
       id="text4346"><tspan
         sodipodi:role="line"
         id="tspan4344"
         style="font-style:normal;font-variant:normal;font-weight:normal;font-stretch:normal;font-size:8.46667px;font-family:sans-serif;-inkscape-font-specification:'sans-serif, Normal';font-variant-ligatures:normal;font-variant-caps:normal;font-variant-numeric:normal;font-variant-east-asian:normal;stroke:none;stroke-width:4.165"
         x="52.1656"
         y="45.066334">Coffee</tspan></text><text
       xml:space="preserve"
       style="font-style:normal;font-variant:normal;font-weight:normal;font-stretch:normal;font-size:8.46667px;font-family:sans-serif;-inkscape-font-specification:'sans-serif, Normal';font-variant-ligatures:normal;font-variant-caps:normal;font-variant-numeric:normal;font-variant-east-asian:normal;fill:#000000;stroke:none;stroke-width:4.16499;stroke-dasharray:none"
       x="93.399933"
       y="44.850433"
       id="text4346-7"><tspan
         sodipodi:role="line"
         id="tspan4431"
         x="93.399933"
         y="44.850433">Water</tspan></text><text
       xml:space="preserve"
       style="font-style:normal;font-variant:normal;font-weight:normal;font-stretch:normal;font-size:8.46667px;font-family:sans-serif;-inkscape-font-specification:'sans-serif, Normal';font-variant-ligatures:normal;font-variant-caps:normal;font-variant-numeric:normal;font-variant-east-asian:normal;fill:#000000;stroke:none;stroke-width:4.16499;stroke-dasharray:none"
       x="135.09447"
       y="110.63887"
       id="text4437"><tspan
         sodipodi:role="line"
         id="tspan4435"
         style="stroke-width:4.165"
         x="135.09447"
         y="110.63887">The Pour Over </tspan><tspan
         sodipodi:role="line"
         style="stroke-width:4.165"
         x="135.09447"
         y="121.22221"
         id="tspan4439">Method</tspan></text></g><style
     type="text/css"
     id="style3721">.st0{fill-rule:evenodd;clip-rule:evenodd;}</style><style
     type="text/css"
     id="style4211">.st0{fill-rule:evenodd;clip-rule:evenodd;fill:#5E361C;}</style><style
     type="text/css"
     id="style4268">.st0{fill-rule:evenodd;clip-rule:evenodd;}</style></svg>
