<?xml version="1.0" encoding="UTF-8" standalone="no"?>
<svg
   width="460.8pt"
   height="345.6pt"
   viewBox="0 0 460.8 345.6"
   version="1.1"
   id="svg138"
   sodipodi:docname="I3UVtW5R_mod.svg"
   inkscape:version="1.4.2 (ebf0e940, 2025-05-08)"
   inkscape:export-filename="I3UVtW5R_mod.png"
   inkscape:export-xdpi="96"
   inkscape:export-ydpi="96"
   xmlns:inkscape="http://www.inkscape.org/namespaces/inkscape"
   xmlns:sodipodi="http://sodipodi.sourceforge.net/DTD/sodipodi-0.dtd"
   xmlns:xlink="http://www.w3.org/1999/xlink"
   xmlns="http://www.w3.org/2000/svg"
   xmlns:svg="http://www.w3.org/2000/svg"
   xmlns:rdf="http://www.w3.org/1999/02/22-rdf-syntax-ns#"
   xmlns:cc="http://creativecommons.org/ns#"
   xmlns:dc="http://purl.org/dc/elements/1.1/">
  <sodipodi:namedview
     id="namedview138"
     pagecolor="#ffffff"
     bordercolor="#000000"
     borderopacity="0.25"
     inkscape:showpageshadow="2"
     inkscape:pageopacity="0.0"
     inkscape:pagecheckerboard="0"
     inkscape:deskcolor="#d1d1d1"
     inkscape:document-units="pt"
     inkscape:zoom="1.4148081"
     inkscape:cx="309.93603"
     inkscape:cy="229.00632"
     inkscape:window-width="1728"
     inkscape:window-height="1051"
     inkscape:window-x="0"
     inkscape:window-y="38"
     inkscape:window-maximized="1"
     inkscape:current-layer="svg138" />
  <metadata
     id="metadata1">
    <rdf:RDF>
      <cc:Work>
        <dc:type
           rdf:resource="http://purl.org/dc/dcmitype/StillImage" />
        <dc:date>2025-07-08T16:24:46.510747</dc:date>
        <dc:format>image/svg+xml</dc:format>
        <dc:creator>
          <cc:Agent>
            <dc:title>Matplotlib v3.10.3, https://matplotlib.org/</dc:title>
          </cc:Agent>
        </dc:creator>
      </cc:Work>
    </rdf:RDF>
  </metadata>
  <defs
     id="defs1">
    <marker
       style="overflow:visible"
       id="Triangle"
       refX="0"
       refY="0"
       orient="auto-start-reverse"
       inkscape:stockid="Triangle arrow"
       markerWidth="1"
       markerHeight="1"
       viewBox="0 0 1 1"
       inkscape:isstock="true"
       inkscape:collect="always"
       preserveAspectRatio="xMidYMid">
      <path
         transform="scale(0.5)"
         style="fill:context-stroke;fill-rule:evenodd;stroke:context-stroke;stroke-width:1pt"
         d="M 5.77,0 -2.88,5 V -5 Z"
         id="path135" />
    </marker>
    <style
       type="text/css"
       id="style1">*{stroke-linejoin: round; stroke-linecap: butt}</style>
    <marker
       style="overflow:visible"
       id="Triangle-0"
       refX="0"
       refY="0"
       orient="auto-start-reverse"
       inkscape:stockid="Triangle arrow"
       markerWidth="1"
       markerHeight="1"
       viewBox="0 0 1 1"
       inkscape:isstock="true"
       inkscape:collect="always"
       preserveAspectRatio="xMidYMid">
      <path
         transform="scale(0.5)"
         style="fill:context-stroke;fill-rule:evenodd;stroke:context-stroke;stroke-width:1pt"
         d="M 5.77,0 -2.88,5 V -5 Z"
         id="path135-4" />
    </marker>
    <marker
       style="overflow:visible"
       id="Triangle-3"
       refX="0"
       refY="0"
       orient="auto-start-reverse"
       inkscape:stockid="Triangle arrow"
       markerWidth="1"
       markerHeight="1"
       viewBox="0 0 1 1"
       inkscape:isstock="true"
       inkscape:collect="always"
       preserveAspectRatio="xMidYMid">
      <path
         transform="scale(0.5)"
         style="fill:context-stroke;fill-rule:evenodd;stroke:context-stroke;stroke-width:1pt"
         d="M 5.77,0 -2.88,5 V -5 Z"
         id="path135-7" />
    </marker>
  </defs>
  <g
     id="patch_1">
    <path
       d="M 0,345.6 H 460.8 V 0 H 0 Z"
       style="fill:#ffffff"
       id="path1" />
  </g>
  <g
     id="patch_2">
    <path
       d="M 57.6,307.584 H 414.72 V 41.472 H 57.6 Z"
       style="fill:#ffffff"
       id="path2" />
  </g>
  <g
     id="FillBetweenPolyCollection_1">
    <defs
       id="defs2">
      <path
         id="me889b34345"
         d="m 195.70005,-50.112 v -147.17371 l 0.32498,-1.17498 0.32498,-1.17476 0.32498,-1.17441 0.32498,-1.17389 0.32498,-1.17322 0.32498,-1.17239 0.32498,-1.17141 0.32497,-1.17027 0.32498,-1.16896 0.32498,-1.16751 0.32498,-1.16588 0.32498,-1.16409 0.32498,-1.16215 0.32498,-1.16003 0.32498,-1.15777 0.32498,-1.15531 0.32498,-1.15272 0.32498,-1.14994 0.32498,-1.147 0.32498,-1.14389 0.32498,-1.14061 0.32498,-1.13718 0.32498,-1.13355 0.32498,-1.12978 0.32498,-1.12582 0.32498,-1.12169 0.32498,-1.1174 0.32498,-1.11294 0.32497,-1.1083 0.32498,-1.10349 0.32498,-1.09852 0.32498,-1.09336 0.32498,-1.08804 0.32498,-1.08255 0.32498,-1.07689 0.32498,-1.07105 0.32498,-1.06504 0.32498,-1.05886 0.32498,-1.05252 0.32498,-1.046 0.32498,-1.0393 0.32498,-1.03245 0.32498,-1.02542 0.32498,-1.01822 0.32498,-1.01086 0.32498,-1.00332 0.32498,-0.99563 0.32498,-0.98775 0.32498,-0.97972 0.32497,-0.97152 0.32498,-0.96316 0.32498,-0.95464 0.32498,-0.94594 0.32498,-0.93709 0.32498,-0.92808 0.32498,-0.91891 0.32498,-0.90958 0.32498,-0.90009 0.32498,-0.89044 0.32498,-0.88064 0.32498,-0.87069 0.32498,-0.86059 0.32498,-0.85032 0.32498,-0.83991 0.32498,-0.82936 0.32498,-0.81865 0.32498,-0.8078 0.32498,-0.79681 0.32498,-0.78567 0.32498,-0.77439 0.32497,-0.76297 0.32498,-0.75142 0.32498,-0.73972 0.32498,-0.7279 0.32498,-0.71594 0.32498,-0.70386 0.32498,-0.69163 0.32498,-0.6793 0.32498,-0.66682 0.32498,-0.65424 0.32498,-0.64153 0.32498,-0.62869 v 228.30885 0 h -0.32498 -0.32498 -0.32498 -0.32498 -0.32498 -0.32498 -0.32498 -0.32498 -0.32498 -0.32498 -0.32498 -0.32497 -0.32498 -0.32498 -0.32498 -0.32498 -0.32498 -0.32498 -0.32498 -0.32498 -0.32498 -0.32498 -0.32498 -0.32498 -0.32498 -0.32498 -0.32498 -0.32498 -0.32498 -0.32498 -0.32498 -0.32498 -0.32497 -0.32498 -0.32498 -0.32498 -0.32498 -0.32498 -0.32498 -0.32498 -0.32498 -0.32498 -0.32498 -0.32498 -0.32498 -0.32498 -0.32498 -0.32498 -0.32498 -0.32498 -0.32498 -0.32498 -0.32498 -0.32497 -0.32498 -0.32498 -0.32498 -0.32498 -0.32498 -0.32498 -0.32498 -0.32498 -0.32498 -0.32498 -0.32498 -0.32498 -0.32498 -0.32498 -0.32498 -0.32498 -0.32498 -0.32498 -0.32498 -0.32498 -0.32497 -0.32498 -0.32498 -0.32498 -0.32498 -0.32498 -0.32498 z"
         style="stroke:#002d8b;stroke-opacity:0.5" />
    </defs>
    <g
       clip-path="url(#p88ef8ad70f)"
       id="g2">
      <use
         xlink:href="#me889b34345"
         x="0"
         y="345.60001"
         style="fill:#002d8b;fill-opacity:0.5;stroke:#002d8b;stroke-opacity:0.5"
         id="use2" />
    </g>
  </g>
  <g
     id="matplotlib.axis_1">
    <g
       id="xtick_1">
      <g
         id="line2d_1">
        <path
           d="M 114.41455,307.584 V 41.472"
           clip-path="url(#p88ef8ad70f)"
           style="fill:none;stroke:#b0b0b0;stroke-width:0.8;stroke-linecap:square;stroke-opacity:0.3"
           id="path3" />
      </g>
      <g
         id="line2d_2">
        <defs
           id="defs3">
          <path
             id="m4ac3a8f1b3"
             d="M 0,0 V 3.5"
             style="stroke:#000000;stroke-width:0.8" />
        </defs>
        <g
           id="g3">
          <use
             xlink:href="#m4ac3a8f1b3"
             x="114.41454"
             y="307.58401"
             style="stroke:#000000;stroke-width:0.8"
             id="use3" />
        </g>
      </g>
      <g
         id="text_1">
        <!-- 55 -->
        <g
           transform="matrix(0.1,0,0,-0.1,108.05205,322.18244)"
           id="g5">
          <defs
             id="defs4">
            <path
               id="DejaVuSans-35"
               d="M 691,4666 H 3169 V 4134 H 1269 V 2991 q 137,47 274,70 138,23 276,23 781,0 1237,-428 457,-428 457,-1159 Q 3513,744 3044,326 2575,-91 1722,-91 1428,-91 1123,-41 819,9 494,109 v 635 q 281,-153 581,-228 300,-75 634,-75 541,0 856,284 316,284 316,772 0,487 -316,771 -315,285 -856,285 -253,0 -505,-56 -251,-56 -513,-175 z"
               transform="scale(0.015625)" />
          </defs>
          <use
             xlink:href="#DejaVuSans-35"
             id="use4" />
          <use
             xlink:href="#DejaVuSans-35"
             transform="translate(63.623047)"
             id="use5" />
        </g>
      </g>
    </g>
    <g
       id="xtick_2">
      <g
         id="line2d_3">
        <path
           d="M 182.05091,307.584 V 41.472"
           clip-path="url(#p88ef8ad70f)"
           style="fill:none;stroke:#b0b0b0;stroke-width:0.8;stroke-linecap:square;stroke-opacity:0.3"
           id="path5" />
      </g>
      <g
         id="line2d_4">
        <g
           id="g6">
          <use
             xlink:href="#m4ac3a8f1b3"
             x="182.0509"
             y="307.58401"
             style="stroke:#000000;stroke-width:0.8"
             id="use6" />
        </g>
      </g>
      <g
         id="text_2">
        <!-- 60 -->
        <g
           transform="matrix(0.1,0,0,-0.1,175.68841,322.18244)"
           id="g8">
          <defs
             id="defs6">
            <path
               id="DejaVuSans-36"
               d="m 2113,2584 q -425,0 -674,-291 -248,-290 -248,-796 0,-503 248,-796 249,-292 674,-292 425,0 673,292 248,293 248,796 0,506 -248,796 -248,291 -673,291 z m 1253,1979 v -575 q -238,112 -480,171 -242,60 -480,60 -625,0 -955,-422 -329,-422 -376,-1275 184,272 462,417 279,145 613,145 703,0 1111,-427 408,-426 408,-1160 0,-719 -425,-1154 -425,-434 -1131,-434 -810,0 -1238,620 -428,621 -428,1799 0,1106 525,1764 525,658 1409,658 238,0 480,-47 242,-47 505,-140 z"
               transform="scale(0.015625)" />
            <path
               id="DejaVuSans-30"
               d="m 2034,4250 q -487,0 -733,-480 -245,-479 -245,-1442 0,-959 245,-1439 246,-480 733,-480 491,0 736,480 246,480 246,1439 0,963 -246,1442 -245,480 -736,480 z m 0,500 q 785,0 1199,-621 414,-620 414,-1801 0,-1178 -414,-1799 -414,-620 -1199,-620 -784,0 -1198,620 -414,621 -414,1799 0,1181 414,1801 414,621 1198,621 z"
               transform="scale(0.015625)" />
          </defs>
          <use
             xlink:href="#DejaVuSans-36"
             id="use7" />
          <use
             xlink:href="#DejaVuSans-30"
             transform="translate(63.623047)"
             id="use8" />
        </g>
      </g>
    </g>
    <g
       id="xtick_3">
      <g
         id="line2d_5">
        <path
           d="M 249.68727,307.584 V 41.472"
           clip-path="url(#p88ef8ad70f)"
           style="fill:none;stroke:#b0b0b0;stroke-width:0.8;stroke-linecap:square;stroke-opacity:0.3"
           id="path8" />
      </g>
      <g
         id="line2d_6">
        <g
           id="g9">
          <use
             xlink:href="#m4ac3a8f1b3"
             x="249.68727"
             y="307.58401"
             style="stroke:#000000;stroke-width:0.8"
             id="use9" />
        </g>
      </g>
      <g
         id="text_3">
        <!-- 65 -->
        <g
           transform="matrix(0.1,0,0,-0.1,243.32477,322.18244)"
           id="g11">
          <use
             xlink:href="#DejaVuSans-36"
             id="use10" />
          <use
             xlink:href="#DejaVuSans-35"
             transform="translate(63.623047)"
             id="use11" />
        </g>
      </g>
    </g>
    <g
       id="xtick_4">
      <g
         id="line2d_7">
        <path
           d="M 317.32364,307.584 V 41.472"
           clip-path="url(#p88ef8ad70f)"
           style="fill:none;stroke:#b0b0b0;stroke-width:0.8;stroke-linecap:square;stroke-opacity:0.3"
           id="path11" />
      </g>
      <g
         id="line2d_8">
        <g
           id="g12">
          <use
             xlink:href="#m4ac3a8f1b3"
             x="317.32364"
             y="307.58401"
             style="stroke:#000000;stroke-width:0.8"
             id="use12" />
        </g>
      </g>
      <g
         id="text_4">
        <!-- 70 -->
        <g
           transform="matrix(0.1,0,0,-0.1,310.96114,322.18244)"
           id="g14">
          <defs
             id="defs12">
            <path
               id="DejaVuSans-37"
               d="M 525,4666 H 3525 V 4397 L 1831,0 H 1172 L 2766,4134 H 525 Z"
               transform="scale(0.015625)" />
          </defs>
          <use
             xlink:href="#DejaVuSans-37"
             id="use13" />
          <use
             xlink:href="#DejaVuSans-30"
             transform="translate(63.623047)"
             id="use14" />
        </g>
      </g>
    </g>
    <g
       id="xtick_5">
      <g
         id="line2d_9">
        <path
           d="M 384.96,307.584 V 41.472"
           clip-path="url(#p88ef8ad70f)"
           style="fill:none;stroke:#b0b0b0;stroke-width:0.8;stroke-linecap:square;stroke-opacity:0.3"
           id="path14" />
      </g>
      <g
         id="line2d_10">
        <g
           id="g15">
          <use
             xlink:href="#m4ac3a8f1b3"
             x="384.95999"
             y="307.58401"
             style="stroke:#000000;stroke-width:0.8"
             id="use15" />
        </g>
      </g>
      <g
         id="text_5">
        <!-- 75 -->
        <g
           transform="matrix(0.1,0,0,-0.1,378.5975,322.18244)"
           id="g17">
          <use
             xlink:href="#DejaVuSans-37"
             id="use16" />
          <use
             xlink:href="#DejaVuSans-35"
             transform="translate(63.623047)"
             id="use17" />
        </g>
      </g>
    </g>
    <g
       id="text_6">
      <!-- Weight (lbs) -->
      <g
         transform="matrix(0.1,0,0,-0.1,206.08266,335.86056)"
         id="g29">
        <defs
           id="defs17">
          <path
             id="DejaVuSans-57"
             d="m 213,4666 h 637 l 981,-3944 978,3944 h 710 l 981,-3944 978,3944 h 641 L 4947,0 H 4153 L 3169,4050 2175,0 h -794 z"
             transform="scale(0.015625)" />
          <path
             id="DejaVuSans-65"
             d="M 3597,1894 V 1613 H 953 q 38,-594 358,-905 320,-311 892,-311 331,0 642,81 311,81 618,244 V 178 Q 3153,47 2828,-22 2503,-91 2169,-91 1331,-91 842,396 353,884 353,1716 q 0,859 464,1363 464,505 1252,505 706,0 1117,-455 411,-454 411,-1235 z m -575,169 q -6,471 -264,752 -258,282 -683,282 -481,0 -770,-272 -289,-272 -333,-766 z"
             transform="scale(0.015625)" />
          <path
             id="DejaVuSans-69"
             d="m 603,3500 h 575 V 0 H 603 Z m 0,1363 h 575 V 4134 H 603 Z"
             transform="scale(0.015625)" />
          <path
             id="DejaVuSans-67"
             d="m 2906,1791 q 0,625 -258,968 -257,344 -723,344 -462,0 -720,-344 -258,-343 -258,-968 0,-622 258,-966 258,-344 720,-344 466,0 723,344 258,344 258,966 z M 3481,434 q 0,-893 -397,-1329 -396,-436 -1215,-436 -303,0 -572,45 -269,45 -522,139 v 559 q 253,-137 500,-202 247,-66 503,-66 566,0 847,295 281,295 281,892 V 616 Q 2728,306 2450,153 2172,0 1784,0 1141,0 747,490 353,981 353,1791 q 0,812 394,1302 394,491 1037,491 388,0 666,-153 278,-153 456,-462 v 531 h 575 z"
             transform="scale(0.015625)" />
          <path
             id="DejaVuSans-68"
             d="M 3513,2113 V 0 h -575 v 2094 q 0,497 -194,743 -194,247 -581,247 -466,0 -735,-297 -269,-296 -269,-809 V 0 H 581 v 4863 h 578 V 2956 q 207,316 486,472 280,156 646,156 603,0 912,-373 310,-373 310,-1098 z"
             transform="scale(0.015625)" />
          <path
             id="DejaVuSans-74"
             d="M 1172,4494 V 3500 H 2356 V 3053 H 1172 V 1153 q 0,-428 117,-550 117,-122 477,-122 h 590 V 0 H 1766 Q 1100,0 847,248 594,497 594,1153 V 3053 H 172 v 447 h 422 v 994 z"
             transform="scale(0.015625)" />
          <path
             id="DejaVuSans-20"
             transform="scale(0.015625)"
             d="" />
          <path
             id="DejaVuSans-28"
             d="m 1984,4856 q -418,-718 -622,-1422 -203,-703 -203,-1425 0,-721 205,-1429 205,-708 620,-1424 h -500 q -468,735 -701,1444 -233,709 -233,1409 0,697 231,1403 232,707 703,1444 z"
             transform="scale(0.015625)" />
          <path
             id="DejaVuSans-6c"
             d="m 603,4863 h 575 V 0 H 603 Z"
             transform="scale(0.015625)" />
          <path
             id="DejaVuSans-62"
             d="m 3116,1747 q 0,634 -261,995 -261,361 -717,361 -457,0 -718,-361 -261,-361 -261,-995 0,-634 261,-995 261,-361 718,-361 456,0 717,361 261,361 261,995 z M 1159,2969 q 182,312 458,463 277,152 661,152 638,0 1036,-506 399,-506 399,-1331 Q 3713,922 3314,415 2916,-91 2278,-91 1894,-91 1617,61 1341,213 1159,525 V 0 H 581 v 4863 h 578 z"
             transform="scale(0.015625)" />
          <path
             id="DejaVuSans-73"
             d="m 2834,3397 v -544 q -243,125 -506,187 -262,63 -544,63 -428,0 -642,-131 -214,-131 -214,-394 0,-200 153,-314 153,-114 616,-217 l 197,-44 q 612,-131 870,-370 258,-239 258,-667 0,-488 -386,-773 Q 2250,-91 1575,-91 1294,-91 989,-36 684,19 347,128 v 594 q 319,-166 628,-249 309,-82 613,-82 406,0 624,139 219,139 219,392 0,234 -158,359 -157,125 -692,241 l -200,47 q -534,112 -772,345 -237,233 -237,639 0,494 350,762 350,269 994,269 318,0 599,-47 282,-46 519,-140 z"
             transform="scale(0.015625)" />
          <path
             id="DejaVuSans-29"
             d="m 513,4856 h 500 q 468,-737 701,-1444 233,-706 233,-1403 0,-700 -233,-1409 -233,-709 -701,-1444 H 513 q 415,716 620,1424 205,708 205,1429 0,722 -205,1425 -205,704 -620,1422 z"
             transform="scale(0.015625)" />
        </defs>
        <use
           xlink:href="#DejaVuSans-57"
           id="use18" />
        <use
           xlink:href="#DejaVuSans-65"
           transform="translate(93.001953)"
           id="use19" />
        <use
           xlink:href="#DejaVuSans-69"
           transform="translate(154.52539)"
           id="use20" />
        <use
           xlink:href="#DejaVuSans-67"
           transform="translate(182.30859)"
           id="use21" />
        <use
           xlink:href="#DejaVuSans-68"
           transform="translate(245.78516)"
           id="use22" />
        <use
           xlink:href="#DejaVuSans-74"
           transform="translate(309.16406)"
           id="use23" />
        <use
           xlink:href="#DejaVuSans-20"
           transform="translate(348.37305)"
           id="use24" />
        <use
           xlink:href="#DejaVuSans-28"
           transform="translate(380.16016)"
           id="use25" />
        <use
           xlink:href="#DejaVuSans-6c"
           transform="translate(419.17383)"
           id="use26" />
        <use
           xlink:href="#DejaVuSans-62"
           transform="translate(446.95703)"
           id="use27" />
        <use
           xlink:href="#DejaVuSans-73"
           transform="translate(510.43359)"
           id="use28" />
        <use
           xlink:href="#DejaVuSans-29"
           transform="translate(562.5332)"
           id="use29" />
      </g>
    </g>
  </g>
  <g
     id="matplotlib.axis_2">
    <g
       id="ytick_1">
      <g
         id="line2d_11">
        <path
           d="M 57.6,295.488 H 414.72"
           clip-path="url(#p88ef8ad70f)"
           style="fill:none;stroke:#b0b0b0;stroke-width:0.8;stroke-linecap:square;stroke-opacity:0.3"
           id="path29" />
      </g>
      <g
         id="line2d_12">
        <defs
           id="defs29">
          <path
             id="m19cd3ac6ad"
             d="M 0,0 H -3.5"
             style="stroke:#000000;stroke-width:0.8" />
        </defs>
        <g
           id="g30">
          <use
             xlink:href="#m19cd3ac6ad"
             x="57.599998"
             y="295.48801"
             style="stroke:#000000;stroke-width:0.8"
             id="use30" />
        </g>
      </g>
      <g
         id="text_7">
        <!-- 0.00 -->
        <g
           transform="matrix(0.1,0,0,-0.1,28.334375,299.28722)"
           id="g34">
          <defs
             id="defs30">
            <path
               id="DejaVuSans-2e"
               d="m 684,794 h 660 V 0 H 684 Z"
               transform="scale(0.015625)" />
          </defs>
          <use
             xlink:href="#DejaVuSans-30"
             id="use31" />
          <use
             xlink:href="#DejaVuSans-2e"
             transform="translate(63.623047)"
             id="use32" />
          <use
             xlink:href="#DejaVuSans-30"
             transform="translate(95.410156)"
             id="use33" />
          <use
             xlink:href="#DejaVuSans-30"
             transform="translate(159.0332)"
             id="use34" />
        </g>
      </g>
    </g>
    <g
       id="ytick_2">
      <g
         id="line2d_13">
        <path
           d="M 57.6,259.1035 H 414.72"
           clip-path="url(#p88ef8ad70f)"
           style="fill:none;stroke:#b0b0b0;stroke-width:0.8;stroke-linecap:square;stroke-opacity:0.3"
           id="path34" />
      </g>
      <g
         id="line2d_14">
        <g
           id="g35">
          <use
             xlink:href="#m19cd3ac6ad"
             x="57.599998"
             y="259.10349"
             style="stroke:#000000;stroke-width:0.8"
             id="use35" />
        </g>
      </g>
      <g
         id="text_8">
        <!-- 0.02 -->
        <g
           transform="matrix(0.1,0,0,-0.1,28.334375,262.90272)"
           id="g39">
          <defs
             id="defs35">
            <path
               id="DejaVuSans-32"
               d="M 1228,531 H 3431 V 0 H 469 v 531 q 359,372 979,998 621,627 780,809 303,340 423,576 121,236 121,464 0,372 -261,606 -261,235 -680,235 -297,0 -627,-103 -329,-103 -704,-313 v 638 q 381,153 712,231 332,78 607,78 725,0 1156,-363 431,-362 431,-968 0,-288 -108,-546 -107,-257 -392,-607 -78,-91 -497,-524 Q 1991,1309 1228,531 Z"
               transform="scale(0.015625)" />
          </defs>
          <use
             xlink:href="#DejaVuSans-30"
             id="use36" />
          <use
             xlink:href="#DejaVuSans-2e"
             transform="translate(63.623047)"
             id="use37" />
          <use
             xlink:href="#DejaVuSans-30"
             transform="translate(95.410156)"
             id="use38" />
          <use
             xlink:href="#DejaVuSans-32"
             transform="translate(159.0332)"
             id="use39" />
        </g>
      </g>
    </g>
    <g
       id="ytick_3">
      <g
         id="line2d_15">
        <path
           d="M 57.6,222.71899 H 414.72"
           clip-path="url(#p88ef8ad70f)"
           style="fill:none;stroke:#b0b0b0;stroke-width:0.8;stroke-linecap:square;stroke-opacity:0.3"
           id="path39" />
      </g>
      <g
         id="line2d_16">
        <g
           id="g40">
          <use
             xlink:href="#m19cd3ac6ad"
             x="57.599998"
             y="222.71899"
             style="stroke:#000000;stroke-width:0.8"
             id="use40" />
        </g>
      </g>
      <g
         id="text_9">
        <!-- 0.04 -->
        <g
           transform="matrix(0.1,0,0,-0.1,28.334375,226.51821)"
           id="g44">
          <defs
             id="defs40">
            <path
               id="DejaVuSans-34"
               d="M 2419,4116 825,1625 h 1594 z m -166,550 h 794 V 1625 h 666 V 1100 H 3047 V 0 H 2419 V 1100 H 313 v 609 z"
               transform="scale(0.015625)" />
          </defs>
          <use
             xlink:href="#DejaVuSans-30"
             id="use41" />
          <use
             xlink:href="#DejaVuSans-2e"
             transform="translate(63.623047)"
             id="use42" />
          <use
             xlink:href="#DejaVuSans-30"
             transform="translate(95.410156)"
             id="use43" />
          <use
             xlink:href="#DejaVuSans-34"
             transform="translate(159.0332)"
             id="use44" />
        </g>
      </g>
    </g>
    <g
       id="ytick_4">
      <g
         id="line2d_17">
        <path
           d="M 57.6,186.33449 H 414.72"
           clip-path="url(#p88ef8ad70f)"
           style="fill:none;stroke:#b0b0b0;stroke-width:0.8;stroke-linecap:square;stroke-opacity:0.3"
           id="path44" />
      </g>
      <g
         id="line2d_18">
        <g
           id="g45">
          <use
             xlink:href="#m19cd3ac6ad"
             x="57.599998"
             y="186.33449"
             style="stroke:#000000;stroke-width:0.8"
             id="use45" />
        </g>
      </g>
      <g
         id="text_10">
        <!-- 0.06 -->
        <g
           transform="matrix(0.1,0,0,-0.1,28.334375,190.13371)"
           id="g49">
          <use
             xlink:href="#DejaVuSans-30"
             id="use46" />
          <use
             xlink:href="#DejaVuSans-2e"
             transform="translate(63.623047)"
             id="use47" />
          <use
             xlink:href="#DejaVuSans-30"
             transform="translate(95.410156)"
             id="use48" />
          <use
             xlink:href="#DejaVuSans-36"
             transform="translate(159.0332)"
             id="use49" />
        </g>
      </g>
    </g>
    <g
       id="ytick_5">
      <g
         id="line2d_19">
        <path
           d="M 57.6,149.94999 H 414.72"
           clip-path="url(#p88ef8ad70f)"
           style="fill:none;stroke:#b0b0b0;stroke-width:0.8;stroke-linecap:square;stroke-opacity:0.3"
           id="path49" />
      </g>
      <g
         id="line2d_20">
        <g
           id="g50">
          <use
             xlink:href="#m19cd3ac6ad"
             x="57.599998"
             y="149.95"
             style="stroke:#000000;stroke-width:0.8"
             id="use50" />
        </g>
      </g>
      <g
         id="text_11">
        <!-- 0.08 -->
        <g
           transform="matrix(0.1,0,0,-0.1,28.334375,153.74921)"
           id="g54">
          <defs
             id="defs50">
            <path
               id="DejaVuSans-38"
               d="m 2034,2216 q -450,0 -708,-241 -257,-241 -257,-662 0,-422 257,-663 258,-241 708,-241 450,0 709,242 260,243 260,662 0,421 -258,662 -257,241 -711,241 z m -631,268 q -406,100 -633,378 -226,279 -226,679 0,559 398,884 399,325 1092,325 697,0 1094,-325 397,-325 397,-884 0,-400 -227,-679 -226,-278 -629,-378 456,-106 710,-416 255,-309 255,-755 Q 3634,634 3220,271 2806,-91 2034,-91 1263,-91 848,271 434,634 434,1313 q 0,446 256,755 257,310 713,416 z m -231,997 q 0,-362 226,-565 227,-203 636,-203 407,0 636,203 230,203 230,565 0,363 -230,566 -229,203 -636,203 -409,0 -636,-203 -226,-203 -226,-566 z"
               transform="scale(0.015625)" />
          </defs>
          <use
             xlink:href="#DejaVuSans-30"
             id="use51" />
          <use
             xlink:href="#DejaVuSans-2e"
             transform="translate(63.623047)"
             id="use52" />
          <use
             xlink:href="#DejaVuSans-30"
             transform="translate(95.410156)"
             id="use53" />
          <use
             xlink:href="#DejaVuSans-38"
             transform="translate(159.0332)"
             id="use54" />
        </g>
      </g>
    </g>
    <g
       id="ytick_6">
      <g
         id="line2d_21">
        <path
           d="M 57.6,113.56549 H 414.72"
           clip-path="url(#p88ef8ad70f)"
           style="fill:none;stroke:#b0b0b0;stroke-width:0.8;stroke-linecap:square;stroke-opacity:0.3"
           id="path54" />
      </g>
      <g
         id="line2d_22">
        <g
           id="g55">
          <use
             xlink:href="#m19cd3ac6ad"
             x="57.599998"
             y="113.56549"
             style="stroke:#000000;stroke-width:0.8"
             id="use55" />
        </g>
      </g>
      <g
         id="text_12">
        <!-- 0.10 -->
        <g
           transform="matrix(0.1,0,0,-0.1,28.334375,117.36471)"
           id="g59">
          <defs
             id="defs55">
            <path
               id="DejaVuSans-31"
               d="M 794,531 H 1825 V 4091 L 703,3866 v 575 l 1116,225 h 631 V 531 H 3481 V 0 H 794 Z"
               transform="scale(0.015625)" />
          </defs>
          <use
             xlink:href="#DejaVuSans-30"
             id="use56" />
          <use
             xlink:href="#DejaVuSans-2e"
             transform="translate(63.623047)"
             id="use57" />
          <use
             xlink:href="#DejaVuSans-31"
             transform="translate(95.410156)"
             id="use58" />
          <use
             xlink:href="#DejaVuSans-30"
             transform="translate(159.0332)"
             id="use59" />
        </g>
      </g>
    </g>
    <g
       id="ytick_7">
      <g
         id="line2d_23">
        <path
           d="M 57.6,77.180986 H 414.72"
           clip-path="url(#p88ef8ad70f)"
           style="fill:none;stroke:#b0b0b0;stroke-width:0.8;stroke-linecap:square;stroke-opacity:0.3"
           id="path59" />
      </g>
      <g
         id="line2d_24">
        <g
           id="g60">
          <use
             xlink:href="#m19cd3ac6ad"
             x="57.599998"
             y="77.180984"
             style="stroke:#000000;stroke-width:0.8"
             id="use60" />
        </g>
      </g>
      <g
         id="text_13">
        <!-- 0.12 -->
        <g
           transform="matrix(0.1,0,0,-0.1,28.334375,80.980204)"
           id="g64">
          <use
             xlink:href="#DejaVuSans-30"
             id="use61" />
          <use
             xlink:href="#DejaVuSans-2e"
             transform="translate(63.623047)"
             id="use62" />
          <use
             xlink:href="#DejaVuSans-31"
             transform="translate(95.410156)"
             id="use63" />
          <use
             xlink:href="#DejaVuSans-32"
             transform="translate(159.0332)"
             id="use64" />
        </g>
      </g>
    </g>
    <g
       id="text_14">
      <!-- Probability Density -->
      <g
         transform="matrix(0,-0.1,-0.1,0,22.254687,221.55456)"
         id="g83">
        <defs
           id="defs64">
          <path
             id="DejaVuSans-50"
             d="M 1259,4147 V 2394 h 794 q 441,0 681,228 241,228 241,650 0,419 -241,647 -240,228 -681,228 z m -631,519 h 1425 q 785,0 1186,-355 402,-355 402,-1039 0,-691 -402,-1044 -401,-353 -1186,-353 H 1259 V 0 H 628 Z"
             transform="scale(0.015625)" />
          <path
             id="DejaVuSans-72"
             d="m 2631,2963 q -97,56 -211,82 -114,27 -251,27 -488,0 -749,-317 -261,-317 -261,-911 V 0 H 581 v 3500 h 578 v -544 q 182,319 472,473 291,155 707,155 59,0 131,-8 72,-7 159,-23 z"
             transform="scale(0.015625)" />
          <path
             id="DejaVuSans-6f"
             d="m 1959,3097 q -462,0 -731,-361 -269,-361 -269,-989 0,-628 267,-989 268,-361 733,-361 460,0 728,362 269,363 269,988 0,622 -269,986 -268,364 -728,364 z m 0,487 q 750,0 1178,-488 429,-487 429,-1349 Q 3566,888 3137,398 2709,-91 1959,-91 1206,-91 779,398 353,888 353,1747 q 0,862 426,1349 427,488 1180,488 z"
             transform="scale(0.015625)" />
          <path
             id="DejaVuSans-61"
             d="m 2194,1759 q -697,0 -966,-159 -269,-159 -269,-544 0,-306 202,-486 202,-179 548,-179 479,0 768,339 289,339 289,901 v 128 z m 1147,238 V 0 H 2766 V 531 Q 2569,213 2275,61 1981,-91 1556,-91 q -537,0 -855,302 -317,302 -317,808 0,590 395,890 396,300 1180,300 h 807 v 57 q 0,397 -261,614 -261,217 -733,217 -300,0 -585,-72 -284,-72 -546,-216 v 532 q 315,122 612,182 297,61 578,61 760,0 1135,-394 375,-393 375,-1193 z"
             transform="scale(0.015625)" />
          <path
             id="DejaVuSans-79"
             d="m 2059,-325 q -243,-625 -475,-815 -231,-191 -618,-191 H 506 v 481 h 338 q 237,0 368,113 132,112 291,531 L 1606,56 191,3500 H 800 L 1894,763 2988,3500 h 609 z"
             transform="scale(0.015625)" />
          <path
             id="DejaVuSans-44"
             d="M 1259,4147 V 519 h 763 q 966,0 1414,437 448,438 448,1382 0,937 -448,1373 -448,436 -1414,436 z m -631,519 h 1297 q 1356,0 1990,-564 635,-564 635,-1764 Q 4550,1131 3912,565 3275,0 1925,0 H 628 Z"
             transform="scale(0.015625)" />
          <path
             id="DejaVuSans-6e"
             d="M 3513,2113 V 0 h -575 v 2094 q 0,497 -194,743 -194,247 -581,247 -466,0 -735,-297 -269,-296 -269,-809 V 0 H 581 v 3500 h 578 v -544 q 207,316 486,472 280,156 646,156 603,0 912,-373 310,-373 310,-1098 z"
             transform="scale(0.015625)" />
        </defs>
        <use
           xlink:href="#DejaVuSans-50"
           id="use65" />
        <use
           xlink:href="#DejaVuSans-72"
           transform="translate(58.552734)"
           id="use66" />
        <use
           xlink:href="#DejaVuSans-6f"
           transform="translate(97.416016)"
           id="use67" />
        <use
           xlink:href="#DejaVuSans-62"
           transform="translate(158.59766)"
           id="use68" />
        <use
           xlink:href="#DejaVuSans-61"
           transform="translate(222.07422)"
           id="use69" />
        <use
           xlink:href="#DejaVuSans-62"
           transform="translate(283.35352)"
           id="use70" />
        <use
           xlink:href="#DejaVuSans-69"
           transform="translate(346.83008)"
           id="use71" />
        <use
           xlink:href="#DejaVuSans-6c"
           transform="translate(374.61328)"
           id="use72" />
        <use
           xlink:href="#DejaVuSans-69"
           transform="translate(402.39648)"
           id="use73" />
        <use
           xlink:href="#DejaVuSans-74"
           transform="translate(430.17969)"
           id="use74" />
        <use
           xlink:href="#DejaVuSans-79"
           transform="translate(469.38867)"
           id="use75" />
        <use
           xlink:href="#DejaVuSans-20"
           transform="translate(528.56836)"
           id="use76" />
        <use
           xlink:href="#DejaVuSans-44"
           transform="translate(560.35547)"
           id="use77" />
        <use
           xlink:href="#DejaVuSans-65"
           transform="translate(637.35742)"
           id="use78" />
        <use
           xlink:href="#DejaVuSans-6e"
           transform="translate(698.88086)"
           id="use79" />
        <use
           xlink:href="#DejaVuSans-73"
           transform="translate(762.25977)"
           id="use80" />
        <use
           xlink:href="#DejaVuSans-69"
           transform="translate(814.35937)"
           id="use81" />
        <use
           xlink:href="#DejaVuSans-74"
           transform="translate(842.14258)"
           id="use82" />
        <use
           xlink:href="#DejaVuSans-79"
           transform="translate(881.35156)"
           id="use83" />
      </g>
    </g>
  </g>
  <g
     id="line2d_25">
    <path
       d="m 73.832727,295.40684 13.97412,-0.22206 8.774447,-0.34973 6.499586,-0.46532 5.52466,-0.61315 4.54971,-0.71601 4.22473,-0.88988 3.57478,-0.96483 3.57477,-1.2009 3.2498,-1.33413 2.92481,-1.42972 2.92482,-1.67689 2.92482,-1.95507 2.59983,-1.99758 2.59984,-2.26646 2.59983,-2.55912 2.59984,-2.87549 2.59984,-3.21508 2.59983,-3.57694 2.59984,-3.95954 2.59983,-4.36082 2.59984,-4.77805 2.59984,-5.2079 2.92481,-6.38325 2.92482,-6.94325 2.92481,-7.49985 3.2498,-8.96976 3.24979,-9.60742 3.57478,-11.24388 4.22473,-14.07569 4.8747,-17.04676 16.24897,-57.58183 3.57478,-11.496611 2.92481,-8.738771 2.59984,-7.159013 2.59984,-6.502912 2.27485,-5.093446 1.94988,-3.886333 1.94988,-3.416443 1.94987,-2.923667 1.6249,-2.0456 1.6249,-1.679929 1.29992,-1.075233 1.29991,-0.832769 1.29992,-0.587754 1.29992,-0.340934 1.29992,-0.09307 1.29992,0.155089 1.29992,0.402767 1.29991,0.649206 1.29992,0.893653 1.29992,1.135363 1.6249,1.753758 1.6249,2.117626 1.62489,2.471489 1.94988,3.416443 1.94988,3.886333 2.27485,5.093446 2.27486,5.652589 2.59984,7.081256 2.92481,8.663528 3.2498,10.351989 3.89975,13.20005 5.52465,19.60664 11.37429,40.61942 4.54971,15.31227 3.89975,12.3637 3.57478,10.60144 3.2498,8.96976 3.24979,8.29895 2.92482,6.88102 2.92481,6.32121 2.92482,5.76745 2.59983,4.67242 2.59984,4.25888 2.59984,3.86205 2.59983,3.48447 2.59984,3.12805 2.59983,2.79419 2.59984,2.48372 2.59984,2.19702 2.59983,1.93404 2.92482,1.8905 2.92481,1.61934 2.92482,1.37882 3.2498,1.28487 3.57477,1.15479 3.57477,0.92633 4.22474,0.8529 4.54971,0.68496 5.19967,0.55695 6.17462,0.4363 7.7995,0.32199 11.04931,0.21231 3.89975,0.0375 v 0"
       clip-path="url(#p88ef8ad70f)"
       style="fill:none;stroke:#1f77b4;stroke-width:1.5;stroke-linecap:square"
       id="path83" />
  </g>
  <g
     id="patch_3">
    <path
       d="M 57.6,307.584 V 41.472"
       style="fill:none;stroke:#000000;stroke-width:0.8;stroke-linecap:square;stroke-linejoin:miter"
       id="path84" />
  </g>
  <g
     id="patch_4">
    <path
       d="M 414.72,307.584 V 41.472"
       style="fill:none;stroke:#000000;stroke-width:0.8;stroke-linecap:square;stroke-linejoin:miter"
       id="path85" />
  </g>
  <g
     id="patch_5">
    <path
       d="M 57.6,307.584 H 414.72"
       style="fill:none;stroke:#000000;stroke-width:0.8;stroke-linecap:square;stroke-linejoin:miter"
       id="path86" />
  </g>
  <g
     id="patch_6">
    <path
       d="M 57.6,41.472 H 414.72"
       style="fill:none;stroke:#000000;stroke-width:0.8;stroke-linecap:square;stroke-linejoin:miter"
       id="path87" />
  </g>
  <g
     id="text_16">
    <!-- Weight Distribution of Golden Retrievers -->
    <g
       transform="matrix(0.12,0,0,-0.12,114.94969,35.472)"
       id="g138">
      <defs
         id="defs98">
        <path
           id="DejaVuSans-75"
           d="m 544,1381 v 2119 h 575 V 1403 q 0,-497 193,-746 194,-248 582,-248 465,0 735,297 271,297 271,810 v 1984 h 575 V 0 H 2900 V 538 Q 2691,219 2414,64 2138,-91 1772,-91 1169,-91 856,284 544,659 544,1381 Z m 1447,2203 z"
           transform="scale(0.015625)" />
        <path
           id="DejaVuSans-66"
           d="m 2375,4863 v -479 h -550 q -309,0 -430,-125 -120,-125 -120,-450 v -309 h 947 V 3053 H 1275 V 0 H 697 V 3053 H 147 v 447 h 550 v 244 q 0,584 272,851 272,268 862,268 z"
           transform="scale(0.015625)" />
        <path
           id="DejaVuSans-47"
           d="M 3809,666 V 1919 H 2778 v 519 H 4434 V 434 Q 4069,175 3628,42 3188,-91 2688,-91 1594,-91 976,548 359,1188 359,2328 q 0,1144 617,1783 618,639 1712,639 456,0 867,-113 411,-112 758,-331 v -672 q -350,297 -744,447 -394,150 -828,150 -857,0 -1287,-478 -429,-478 -429,-1425 0,-944 429,-1422 430,-478 1287,-478 334,0 596,58 263,58 472,180 z"
           transform="scale(0.015625)" />
        <path
           id="DejaVuSans-64"
           d="m 2906,2969 v 1894 h 575 V 0 H 2906 V 525 Q 2725,213 2448,61 2172,-91 1784,-91 1150,-91 751,415 353,922 353,1747 q 0,825 398,1331 399,506 1033,506 388,0 664,-152 277,-151 458,-463 z M 947,1747 q 0,-634 261,-995 261,-361 717,-361 456,0 718,361 263,361 263,995 0,634 -263,995 -262,361 -718,361 -456,0 -717,-361 -261,-361 -261,-995 z"
           transform="scale(0.015625)" />
        <path
           id="DejaVuSans-52"
           d="m 2841,2188 q 203,-69 395,-294 192,-225 386,-619 L 4263,0 h -679 l -596,1197 q -232,469 -449,622 -217,153 -592,153 H 1259 V 0 H 628 v 4666 h 1425 q 800,0 1194,-335 394,-334 394,-1009 0,-441 -205,-732 -205,-290 -595,-402 z M 1259,4147 V 2491 h 794 q 456,0 689,211 233,211 233,620 0,409 -233,617 -233,208 -689,208 z"
           transform="scale(0.015625)" />
        <path
           id="DejaVuSans-76"
           d="M 191,3500 H 800 L 1894,563 2988,3500 h 609 L 2284,0 h -781 z"
           transform="scale(0.015625)" />
      </defs>
      <use
         xlink:href="#DejaVuSans-57"
         id="use99" />
      <use
         xlink:href="#DejaVuSans-65"
         transform="translate(93.001953)"
         id="use100" />
      <use
         xlink:href="#DejaVuSans-69"
         transform="translate(154.52539)"
         id="use101" />
      <use
         xlink:href="#DejaVuSans-67"
         transform="translate(182.30859)"
         id="use102" />
      <use
         xlink:href="#DejaVuSans-68"
         transform="translate(245.78516)"
         id="use103" />
      <use
         xlink:href="#DejaVuSans-74"
         transform="translate(309.16406)"
         id="use104" />
      <use
         xlink:href="#DejaVuSans-20"
         transform="translate(348.37305)"
         id="use105" />
      <use
         xlink:href="#DejaVuSans-44"
         transform="translate(380.16016)"
         id="use106" />
      <use
         xlink:href="#DejaVuSans-69"
         transform="translate(457.16211)"
         id="use107" />
      <use
         xlink:href="#DejaVuSans-73"
         transform="translate(484.94531)"
         id="use108" />
      <use
         xlink:href="#DejaVuSans-74"
         transform="translate(537.04492)"
         id="use109" />
      <use
         xlink:href="#DejaVuSans-72"
         transform="translate(576.25391)"
         id="use110" />
      <use
         xlink:href="#DejaVuSans-69"
         transform="translate(617.36719)"
         id="use111" />
      <use
         xlink:href="#DejaVuSans-62"
         transform="translate(645.15039)"
         id="use112" />
      <use
         xlink:href="#DejaVuSans-75"
         transform="translate(708.62695)"
         id="use113" />
      <use
         xlink:href="#DejaVuSans-74"
         transform="translate(772.00586)"
         id="use114" />
      <use
         xlink:href="#DejaVuSans-69"
         transform="translate(811.21484)"
         id="use115" />
      <use
         xlink:href="#DejaVuSans-6f"
         transform="translate(838.99805)"
         id="use116" />
      <use
         xlink:href="#DejaVuSans-6e"
         transform="translate(900.17969)"
         id="use117" />
      <use
         xlink:href="#DejaVuSans-20"
         transform="translate(963.55859)"
         id="use118" />
      <use
         xlink:href="#DejaVuSans-6f"
         transform="translate(995.3457)"
         id="use119" />
      <use
         xlink:href="#DejaVuSans-66"
         transform="translate(1056.5273)"
         id="use120" />
      <use
         xlink:href="#DejaVuSans-20"
         transform="translate(1091.7324)"
         id="use121" />
      <use
         xlink:href="#DejaVuSans-47"
         transform="translate(1123.5195)"
         id="use122" />
      <use
         xlink:href="#DejaVuSans-6f"
         transform="translate(1201.0098)"
         id="use123" />
      <use
         xlink:href="#DejaVuSans-6c"
         transform="translate(1262.1914)"
         id="use124" />
      <use
         xlink:href="#DejaVuSans-64"
         transform="translate(1289.9746)"
         id="use125" />
      <use
         xlink:href="#DejaVuSans-65"
         transform="translate(1353.4512)"
         id="use126" />
      <use
         xlink:href="#DejaVuSans-6e"
         transform="translate(1414.9746)"
         id="use127" />
      <use
         xlink:href="#DejaVuSans-20"
         transform="translate(1478.3535)"
         id="use128" />
      <use
         xlink:href="#DejaVuSans-52"
         transform="translate(1510.1406)"
         id="use129" />
      <use
         xlink:href="#DejaVuSans-65"
         transform="translate(1575.123)"
         id="use130" />
      <use
         xlink:href="#DejaVuSans-74"
         transform="translate(1636.6465)"
         id="use131" />
      <use
         xlink:href="#DejaVuSans-72"
         transform="translate(1675.8555)"
         id="use132" />
      <use
         xlink:href="#DejaVuSans-69"
         transform="translate(1716.9688)"
         id="use133" />
      <use
         xlink:href="#DejaVuSans-65"
         transform="translate(1744.752)"
         id="use134" />
      <use
         xlink:href="#DejaVuSans-76"
         transform="translate(1806.2754)"
         id="use135" />
      <use
         xlink:href="#DejaVuSans-65"
         transform="translate(1865.4551)"
         id="use136" />
      <use
         xlink:href="#DejaVuSans-72"
         transform="translate(1926.9785)"
         id="use137" />
      <use
         xlink:href="#DejaVuSans-73"
         transform="translate(1968.0918)"
         id="use138" />
    </g>
  </g>
  <defs
     id="defs138">
    <clipPath
       id="p88ef8ad70f">
      <rect
         x="57.6"
         y="41.472"
         width="357.12"
         height="266.112"
         id="rect138" />
    </clipPath>
  </defs>
  <path
     style="fill:none;stroke:#000000;stroke-width:2.45;stroke-linejoin:round;-inkscape-stroke:none;marker-end:url(#Triangle)"
     d="m 252.86115,276.71597 -20.67418,13.78279"
     id="path138"
     sodipodi:nodetypes="cc" />
  <path
     style="fill:none;stroke:#000000;stroke-width:2.45;stroke-linecap:butt;stroke-linejoin:round;-inkscape-stroke:none;marker-end:url(#Triangle-3)"
     d="m 294.62657,146.27099 -84.81716,72.09459"
     id="path138-8"
     sodipodi:nodetypes="cc" />
  <path
     style="fill:none;stroke:#000000;stroke-width:2.45;stroke-linecap:butt;stroke-linejoin:round;-inkscape-stroke:none;marker-end:url(#Triangle-0)"
     d="m 144.85516,257.63211 41.87847,32.86665"
     id="path138-0"
     sodipodi:nodetypes="cc" />
  <text
     xml:space="preserve"
     style="font-style:normal;font-variant:normal;font-weight:normal;font-stretch:normal;font-size:14.1605px;font-family:sans-serif;-inkscape-font-specification:'sans-serif, Normal';font-variant-ligatures:normal;font-variant-caps:normal;font-variant-numeric:normal;font-variant-east-asian:normal;text-align:start;writing-mode:lr-tb;direction:ltr;text-anchor:start;fill:#000000;stroke:none;stroke-width:3.48302;stroke-linecap:butt;stroke-linejoin:round;-inkscape-stroke:none"
     x="256.29095"
     y="275.06207"
     id="text138"><tspan
       sodipodi:role="line"
       id="tspan138">x ≤ 63</tspan></text>
  <text
     xml:space="preserve"
     style="font-style:normal;font-variant:normal;font-weight:normal;font-stretch:normal;font-size:14.1605px;font-family:sans-serif;-inkscape-font-specification:'sans-serif, Normal';font-variant-ligatures:normal;font-variant-caps:normal;font-variant-numeric:normal;font-variant-east-asian:normal;text-align:start;writing-mode:lr-tb;direction:ltr;text-anchor:start;fill:#000000;stroke:none;stroke-width:3.48302;stroke-linecap:butt;stroke-linejoin:round;-inkscape-stroke:none"
     x="90.640617"
     y="260.5856"
     id="text138-8"><tspan
       sodipodi:role="line"
       id="tspan139"
       x="90.640617"
       y="260.5856">x  ≥ 61</tspan></text>
  <text
     xml:space="preserve"
     style="font-style:normal;font-variant:normal;font-weight:normal;font-stretch:normal;font-size:14.1605px;font-family:sans-serif;-inkscape-font-specification:'sans-serif, Normal';font-variant-ligatures:normal;font-variant-caps:normal;font-variant-numeric:normal;font-variant-east-asian:normal;text-align:start;writing-mode:lr-tb;direction:ltr;text-anchor:start;fill:#000000;stroke:none;stroke-width:2.45;stroke-linejoin:round;-inkscape-stroke:none"
     x="298.45035"
     y="144.18918"
     id="text140"><tspan
       sodipodi:role="line"
       id="tspan140"
       style="stroke-width:2.45"
       x="298.45035"
       y="144.18918">A = 0.2108</tspan></text>
</svg>
