<?xml version="1.0" encoding="UTF-8" standalone="no"?>
<svg
   width="482.94467pt"
   height="277.0498pt"
   viewBox="0 0 482.94468 277.0498"
   version="1.1"
   id="svg569"
   sodipodi:docname="NQUjiIsa.svg"
   inkscape:version="1.2.2 (b0a8486541, 2022-12-01)"
   xml:space="preserve"
   inkscape:export-filename="NQUjiIsa.png"
   inkscape:export-xdpi="96"
   inkscape:export-ydpi="96"
   xmlns:inkscape="http://www.inkscape.org/namespaces/inkscape"
   xmlns:sodipodi="http://sodipodi.sourceforge.net/DTD/sodipodi-0.dtd"
   xmlns="http://www.w3.org/2000/svg"
   xmlns:svg="http://www.w3.org/2000/svg"
   xmlns:rdf="http://www.w3.org/1999/02/22-rdf-syntax-ns#"
   xmlns:cc="http://creativecommons.org/ns#"
   xmlns:dc="http://purl.org/dc/elements/1.1/"><sodipodi:namedview
     id="namedview571"
     pagecolor="#ffffff"
     bordercolor="#000000"
     borderopacity="0.25"
     inkscape:showpageshadow="2"
     inkscape:pageopacity="0.0"
     inkscape:pagecheckerboard="0"
     inkscape:deskcolor="#d1d1d1"
     inkscape:document-units="pt"
     showgrid="false"
     inkscape:zoom="0.74549039"
     inkscape:cx="367.54331"
     inkscape:cy="294.43706"
     inkscape:window-width="1704"
     inkscape:window-height="993"
     inkscape:window-x="0"
     inkscape:window-y="0"
     inkscape:window-maximized="1"
     inkscape:current-layer="svg569" /><metadata
     id="metadata2"><rdf:RDF><cc:Work><dc:type
           rdf:resource="http://purl.org/dc/dcmitype/StillImage" /><dc:date>2025-06-17T15:44:14.936686</dc:date><dc:format>image/svg+xml</dc:format><dc:creator><cc:Agent><dc:title>Matplotlib v3.10.3, https://matplotlib.org/</dc:title></cc:Agent></dc:creator></cc:Work></rdf:RDF></metadata><defs
     id="defs6"><style
       type="text/css"
       id="style4">*{stroke-linejoin: round; stroke-linecap: butt}</style><clipPath
       id="p78022390db-3"><rect
         x="57.599998"
         y="41.472"
         width="357.12"
         height="266.112"
         id="rect564-6" /></clipPath><clipPath
       id="p78022390db-3-7"><rect
         x="57.599998"
         y="41.472"
         width="357.12"
         height="266.112"
         id="rect564-6-0" /></clipPath><clipPath
       id="p78022390db-3-6"><rect
         x="57.599998"
         y="41.472"
         width="357.12"
         height="266.112"
         id="rect564-6-06" /></clipPath><style
       type="text/css"
       id="style13229">*{stroke-linejoin: round; stroke-linecap: butt}</style><path
       id="ma5f4825097"
       d="M 0 0  L 0 3.5  "
       style="stroke: #000000; stroke-width: 0.8" /><path
       id="DejaVuSans-37"
       d="M 525 4666  L 3525 4666  L 3525 4397  L 1831 0  L 1172 0  L 2766 4134  L 525 4134  L 525 4666  z "
       transform="scale(0.015625)" /><path
       id="DejaVuSans-2e"
       d="M 684 794  L 1344 794  L 1344 0  L 684 0  L 684 794  z "
       transform="scale(0.015625)" /><path
       id="DejaVuSans-35"
       d="M 691 4666  L 3169 4666  L 3169 4134  L 1269 4134  L 1269 2991  Q 1406 3038 1543 3061  Q 1681 3084 1819 3084  Q 2600 3084 3056 2656  Q 3513 2228 3513 1497  Q 3513 744 3044 326  Q 2575 -91 1722 -91  Q 1428 -91 1123 -41  Q 819 9 494 109  L 494 744  Q 775 591 1075 516  Q 1375 441 1709 441  Q 2250 441 2565 725  Q 2881 1009 2881 1497  Q 2881 1984 2565 2268  Q 2250 2553 1709 2553  Q 1456 2553 1204 2497  Q 953 2441 691 2322  L 691 4666  z "
       transform="scale(0.015625)" /><path
       id="DejaVuSans-31"
       d="M 794 531  L 1825 531  L 1825 4091  L 703 3866  L 703 4441  L 1819 4666  L 2450 4666  L 2450 531  L 3481 531  L 3481 0  L 794 0  L 794 531  z "
       transform="scale(0.015625)" /><path
       id="DejaVuSans-30"
       d="M 2034 4250  Q 1547 4250 1301 3770  Q 1056 3291 1056 2328  Q 1056 1369 1301 889  Q 1547 409 2034 409  Q 2525 409 2770 889  Q 3016 1369 3016 2328  Q 3016 3291 2770 3770  Q 2525 4250 2034 4250  z M 2034 4750  Q 2819 4750 3233 4129  Q 3647 3509 3647 2328  Q 3647 1150 3233 529  Q 2819 -91 2034 -91  Q 1250 -91 836 529  Q 422 1150 422 2328  Q 422 3509 836 4129  Q 1250 4750 2034 4750  z "
       transform="scale(0.015625)" /><path
       id="DejaVuSans-32"
       d="M 1228 531  L 3431 531  L 3431 0  L 469 0  L 469 531  Q 828 903 1448 1529  Q 2069 2156 2228 2338  Q 2531 2678 2651 2914  Q 2772 3150 2772 3378  Q 2772 3750 2511 3984  Q 2250 4219 1831 4219  Q 1534 4219 1204 4116  Q 875 4013 500 3803  L 500 4441  Q 881 4594 1212 4672  Q 1544 4750 1819 4750  Q 2544 4750 2975 4387  Q 3406 4025 3406 3419  Q 3406 3131 3298 2873  Q 3191 2616 2906 2266  Q 2828 2175 2409 1742  Q 1991 1309 1228 531  z "
       transform="scale(0.015625)" /><path
       id="mdbb5dcd7d0"
       d="M 0 0  L -3.5 0  "
       style="stroke: #000000; stroke-width: 0.8" /><path
       id="DejaVuSans-33"
       d="M 2597 2516  Q 3050 2419 3304 2112  Q 3559 1806 3559 1356  Q 3559 666 3084 287  Q 2609 -91 1734 -91  Q 1441 -91 1130 -33  Q 819 25 488 141  L 488 750  Q 750 597 1062 519  Q 1375 441 1716 441  Q 2309 441 2620 675  Q 2931 909 2931 1356  Q 2931 1769 2642 2001  Q 2353 2234 1838 2234  L 1294 2234  L 1294 2753  L 1863 2753  Q 2328 2753 2575 2939  Q 2822 3125 2822 3475  Q 2822 3834 2567 4026  Q 2313 4219 1838 4219  Q 1578 4219 1281 4162  Q 984 4106 628 3988  L 628 4550  Q 988 4650 1302 4700  Q 1616 4750 1894 4750  Q 2613 4750 3031 4423  Q 3450 4097 3450 3541  Q 3450 3153 3228 2886  Q 3006 2619 2597 2516  z "
       transform="scale(0.015625)" /><path
       id="DejaVuSans-34"
       d="M 2419 4116  L 825 1625  L 2419 1625  L 2419 4116  z M 2253 4666  L 3047 4666  L 3047 1625  L 3713 1625  L 3713 1100  L 3047 1100  L 3047 0  L 2419 0  L 2419 1100  L 313 1100  L 313 1709  L 2253 4666  z "
       transform="scale(0.015625)" /><path
       id="DejaVuSans-50"
       d="M 1259 4147  L 1259 2394  L 2053 2394  Q 2494 2394 2734 2622  Q 2975 2850 2975 3272  Q 2975 3691 2734 3919  Q 2494 4147 2053 4147  L 1259 4147  z M 628 4666  L 2053 4666  Q 2838 4666 3239 4311  Q 3641 3956 3641 3272  Q 3641 2581 3239 2228  Q 2838 1875 2053 1875  L 1259 1875  L 1259 0  L 628 0  L 628 4666  z "
       transform="scale(0.015625)" /><path
       id="DejaVuSans-72"
       d="M 2631 2963  Q 2534 3019 2420 3045  Q 2306 3072 2169 3072  Q 1681 3072 1420 2755  Q 1159 2438 1159 1844  L 1159 0  L 581 0  L 581 3500  L 1159 3500  L 1159 2956  Q 1341 3275 1631 3429  Q 1922 3584 2338 3584  Q 2397 3584 2469 3576  Q 2541 3569 2628 3553  L 2631 2963  z "
       transform="scale(0.015625)" /><path
       id="DejaVuSans-6f"
       d="M 1959 3097  Q 1497 3097 1228 2736  Q 959 2375 959 1747  Q 959 1119 1226 758  Q 1494 397 1959 397  Q 2419 397 2687 759  Q 2956 1122 2956 1747  Q 2956 2369 2687 2733  Q 2419 3097 1959 3097  z M 1959 3584  Q 2709 3584 3137 3096  Q 3566 2609 3566 1747  Q 3566 888 3137 398  Q 2709 -91 1959 -91  Q 1206 -91 779 398  Q 353 888 353 1747  Q 353 2609 779 3096  Q 1206 3584 1959 3584  z "
       transform="scale(0.015625)" /><path
       id="DejaVuSans-62"
       d="M 3116 1747  Q 3116 2381 2855 2742  Q 2594 3103 2138 3103  Q 1681 3103 1420 2742  Q 1159 2381 1159 1747  Q 1159 1113 1420 752  Q 1681 391 2138 391  Q 2594 391 2855 752  Q 3116 1113 3116 1747  z M 1159 2969  Q 1341 3281 1617 3432  Q 1894 3584 2278 3584  Q 2916 3584 3314 3078  Q 3713 2572 3713 1747  Q 3713 922 3314 415  Q 2916 -91 2278 -91  Q 1894 -91 1617 61  Q 1341 213 1159 525  L 1159 0  L 581 0  L 581 4863  L 1159 4863  L 1159 2969  z "
       transform="scale(0.015625)" /><path
       id="DejaVuSans-61"
       d="M 2194 1759  Q 1497 1759 1228 1600  Q 959 1441 959 1056  Q 959 750 1161 570  Q 1363 391 1709 391  Q 2188 391 2477 730  Q 2766 1069 2766 1631  L 2766 1759  L 2194 1759  z M 3341 1997  L 3341 0  L 2766 0  L 2766 531  Q 2569 213 2275 61  Q 1981 -91 1556 -91  Q 1019 -91 701 211  Q 384 513 384 1019  Q 384 1609 779 1909  Q 1175 2209 1959 2209  L 2766 2209  L 2766 2266  Q 2766 2663 2505 2880  Q 2244 3097 1772 3097  Q 1472 3097 1187 3025  Q 903 2953 641 2809  L 641 3341  Q 956 3463 1253 3523  Q 1550 3584 1831 3584  Q 2591 3584 2966 3190  Q 3341 2797 3341 1997  z "
       transform="scale(0.015625)" /><path
       id="DejaVuSans-69"
       d="M 603 3500  L 1178 3500  L 1178 0  L 603 0  L 603 3500  z M 603 4863  L 1178 4863  L 1178 4134  L 603 4134  L 603 4863  z "
       transform="scale(0.015625)" /><path
       id="DejaVuSans-6c"
       d="M 603 4863  L 1178 4863  L 1178 0  L 603 0  L 603 4863  z "
       transform="scale(0.015625)" /><path
       id="DejaVuSans-74"
       d="M 1172 4494  L 1172 3500  L 2356 3500  L 2356 3053  L 1172 3053  L 1172 1153  Q 1172 725 1289 603  Q 1406 481 1766 481  L 2356 481  L 2356 0  L 1766 0  Q 1100 0 847 248  Q 594 497 594 1153  L 594 3053  L 172 3053  L 172 3500  L 594 3500  L 594 4494  L 1172 4494  z "
       transform="scale(0.015625)" /><path
       id="DejaVuSans-79"
       d="M 2059 -325  Q 1816 -950 1584 -1140  Q 1353 -1331 966 -1331  L 506 -1331  L 506 -850  L 844 -850  Q 1081 -850 1212 -737  Q 1344 -625 1503 -206  L 1606 56  L 191 3500  L 800 3500  L 1894 763  L 2988 3500  L 3597 3500  L 2059 -325  z "
       transform="scale(0.015625)" /><path
       id="DejaVuSans-20"
       transform="scale(0.015625)" /><path
       id="DejaVuSans-44"
       d="M 1259 4147  L 1259 519  L 2022 519  Q 2988 519 3436 956  Q 3884 1394 3884 2338  Q 3884 3275 3436 3711  Q 2988 4147 2022 4147  L 1259 4147  z M 628 4666  L 1925 4666  Q 3281 4666 3915 4102  Q 4550 3538 4550 2338  Q 4550 1131 3912 565  Q 3275 0 1925 0  L 628 0  L 628 4666  z "
       transform="scale(0.015625)" /><path
       id="DejaVuSans-65"
       d="M 3597 1894  L 3597 1613  L 953 1613  Q 991 1019 1311 708  Q 1631 397 2203 397  Q 2534 397 2845 478  Q 3156 559 3463 722  L 3463 178  Q 3153 47 2828 -22  Q 2503 -91 2169 -91  Q 1331 -91 842 396  Q 353 884 353 1716  Q 353 2575 817 3079  Q 1281 3584 2069 3584  Q 2775 3584 3186 3129  Q 3597 2675 3597 1894  z M 3022 2063  Q 3016 2534 2758 2815  Q 2500 3097 2075 3097  Q 1594 3097 1305 2825  Q 1016 2553 972 2059  L 3022 2063  z "
       transform="scale(0.015625)" /><path
       id="DejaVuSans-6e"
       d="M 3513 2113  L 3513 0  L 2938 0  L 2938 2094  Q 2938 2591 2744 2837  Q 2550 3084 2163 3084  Q 1697 3084 1428 2787  Q 1159 2491 1159 1978  L 1159 0  L 581 0  L 581 3500  L 1159 3500  L 1159 2956  Q 1366 3272 1645 3428  Q 1925 3584 2291 3584  Q 2894 3584 3203 3211  Q 3513 2838 3513 2113  z "
       transform="scale(0.015625)" /><path
       id="DejaVuSans-73"
       d="M 2834 3397  L 2834 2853  Q 2591 2978 2328 3040  Q 2066 3103 1784 3103  Q 1356 3103 1142 2972  Q 928 2841 928 2578  Q 928 2378 1081 2264  Q 1234 2150 1697 2047  L 1894 2003  Q 2506 1872 2764 1633  Q 3022 1394 3022 966  Q 3022 478 2636 193  Q 2250 -91 1575 -91  Q 1294 -91 989 -36  Q 684 19 347 128  L 347 722  Q 666 556 975 473  Q 1284 391 1588 391  Q 1994 391 2212 530  Q 2431 669 2431 922  Q 2431 1156 2273 1281  Q 2116 1406 1581 1522  L 1381 1569  Q 847 1681 609 1914  Q 372 2147 372 2553  Q 372 3047 722 3315  Q 1072 3584 1716 3584  Q 2034 3584 2315 3537  Q 2597 3491 2834 3397  z "
       transform="scale(0.015625)" /><clipPath
       id="pbed3d90502"><rect
         x="57.6"
         y="41.472"
         width="357.12"
         height="266.112"
         id="rect13660" /></clipPath><clipPath
       id="pbed3d90502-1"><rect
         x="57.599998"
         y="41.472"
         width="357.12"
         height="266.112"
         id="rect13660-5" /></clipPath><clipPath
       id="clipPath14929"><rect
         x="57.599998"
         y="41.472"
         width="357.12"
         height="266.112"
         id="rect14927" /></clipPath></defs><defs
     id="defs567"><clipPath
       id="p78022390db"><rect
         x="57.599998"
         y="41.472"
         width="357.12"
         height="266.112"
         id="rect564" /></clipPath></defs><g
     inkscape:label="Layer 1"
     id="layer1"
     transform="matrix(2.8346457,0,0,2.8346457,-78.72452,-239.20143)"
     sodipodi:insensitive="true"><rect
       style="opacity:0.816803;fill:#000000;fill-opacity:0.70649;stroke-width:0.209;stroke-linecap:round"
       id="rect1"
       width="170.37215"
       height="97.737015"
       x="27.772261"
       y="84.384949"
       ry="12.817967" /><rect
       style="opacity:0.816803;fill:#000000;fill-opacity:0.70649;stroke-width:0.190641;stroke-linecap:round"
       id="rect1-9"
       width="160.1312"
       height="86.521294"
       x="32.892738"
       y="89.992813"
       ry="11.347053" /><rect
       style="opacity:1;fill:#ffffff;fill-opacity:0.70649;stroke:#ffffff;stroke-width:0.209;stroke-linecap:round"
       id="rect2"
       width="16.460835"
       height="2.6066055"
       x="160.41052"
       y="173.2048"
       ry="1.3033028" /><rect
       style="fill:#ffffff;fill-opacity:0.70649;stroke:#ffffff;stroke-width:0.234945;stroke-linecap:round"
       id="rect2-9"
       width="29.649992"
       height="1.8286923"
       x="42.597713"
       y="168.36513"
       ry="0.91434616" /><rect
       style="fill:#000000;fill-opacity:0.70649;stroke:none;stroke-width:0.306271;stroke-linecap:round"
       id="rect2-9-3"
       width="29.649992"
       height="3.107573"
       x="42.597713"
       y="173.508"
       ry="1.5537865" /><rect
       style="fill:#000000;fill-opacity:0.70649;stroke:none;stroke-width:0.306271;stroke-linecap:round"
       id="rect2-9-3-5"
       width="29.649992"
       height="3.107573"
       x="42.597713"
       y="170.58479"
       ry="1.5537865" /></g><text
     xml:space="preserve"
     style="font-style:normal;font-variant:normal;font-weight:normal;font-stretch:normal;font-size:24px;font-family:Chalkduster;-inkscape-font-specification:'Chalkduster, Normal';font-variant-ligatures:normal;font-variant-caps:normal;font-variant-numeric:normal;font-variant-east-asian:normal;fill:#ffffff;stroke:none;stroke-width:2.6;stroke-linecap:butt;stroke-linejoin:round;stroke-dasharray:none"
     x="32.055248"
     y="62.899292"
     id="text6671"><tspan
       sodipodi:role="line"
       id="tspan15032">Property #5</tspan></text><text
     xml:space="preserve"
     style="font-style:normal;font-variant:normal;font-weight:normal;font-stretch:normal;font-size:14px;font-family:Chalkduster;-inkscape-font-specification:'Chalkduster, Normal';font-variant-ligatures:normal;font-variant-caps:normal;font-variant-numeric:normal;font-variant-east-asian:normal;fill:#ffffff;stroke:none;stroke-width:1.531;stroke-linecap:butt;stroke-linejoin:round;stroke-dasharray:none;stroke-dashoffset:0"
     x="37.353161"
     y="123.72102"
     id="text3047"><tspan
       sodipodi:role="line"
       id="tspan15150"
       x="37.353161"
       y="123.72102">Standard deviation</tspan><tspan
       sodipodi:role="line"
       id="tspan15152"
       x="37.353161"
       y="141.22101">controls width of </tspan><tspan
       sodipodi:role="line"
       id="tspan15154"
       x="37.353161"
       y="158.72101">the distribution</tspan></text><text
     xml:space="preserve"
     style="font-style:normal;font-variant:normal;font-weight:normal;font-stretch:normal;font-size:14px;font-family:Chalkduster;-inkscape-font-specification:'Chalkduster, Normal';font-variant-ligatures:normal;font-variant-caps:normal;font-variant-numeric:normal;font-variant-east-asian:normal;fill:#ffffff;stroke:none;stroke-width:1.531;stroke-linecap:butt;stroke-linejoin:round;stroke-dasharray:none;stroke-dashoffset:0"
     x="263.32507"
     y="76.959076"
     id="text3047-6"><tspan
       sodipodi:role="line"
       id="tspan15113"
       x="263.32507"
       y="76.959076">σ = 1.5</tspan></text><text
     xml:space="preserve"
     style="font-style:normal;font-variant:normal;font-weight:normal;font-stretch:normal;font-size:14px;font-family:Chalkduster;-inkscape-font-specification:'Chalkduster, Normal';font-variant-ligatures:normal;font-variant-caps:normal;font-variant-numeric:normal;font-variant-east-asian:normal;fill:#ffffff;stroke:none;stroke-width:1.531;stroke-linecap:butt;stroke-linejoin:round;stroke-dasharray:none;stroke-dashoffset:0"
     x="348.82047"
     y="169.68056"
     id="text3047-6-4"><tspan
       sodipodi:role="line"
       id="tspan15148"
       x="348.82047"
       y="169.68056">σ = 2.5</tspan></text><path
     d="m 73.832727,295.40684 6.499591,-0.21765 4.224734,-0.35639 3.249795,-0.5041 2.599836,-0.63297 2.274857,-0.79211 1.949877,-0.91262 1.949877,-1.18584 1.624898,-1.2427 1.624897,-1.5184 1.624901,-1.84003 1.62489,-2.21134 1.6249,-2.63539 1.6249,-3.11426 1.6249,-3.64881 1.6249,-4.23826 1.62489,-4.87991 1.6249,-5.56892 1.6249,-6.298 1.94988,-8.56157 1.94987,-9.68182 1.94988,-10.79702 2.27486,-13.9452 2.59983,-17.53064 2.92482,-21.31518 9.4244,-70.26253 2.27486,-14.497696 1.6249,-9.115811 1.6249,-7.876265 1.29991,-5.29983 1.29992,-4.332625 0.97494,-2.579003 0.97494,-1.981886 0.97494,-1.369431 0.64996,-0.567245 0.64996,-0.288243 0.64995,-0.0082 0.64996,0.27179 0.64996,0.550878 0.64996,0.828055 0.97494,1.755262 0.97494,2.358631 0.97494,2.943813 1.29992,4.795849 1.29991,5.731218 1.6249,8.362971 1.6249,9.536545 1.94988,12.729123 2.59983,18.58528 4.54972,34.63155 4.22473,31.52793 2.59984,17.92973 2.27485,14.36115 2.27486,12.93962 1.94988,9.89103 1.94987,8.76904 1.94988,7.6691 1.6249,5.58565 1.6249,4.8956 1.62489,4.25276 1.6249,3.66206 1.6249,3.12621 1.6249,2.64601 1.62489,2.2207 1.6249,1.84818 1.6249,1.52543 1.6249,1.2487 1.94987,1.1918 1.94988,0.91742 2.27486,0.79647 2.59983,0.63663 2.92482,0.46756 3.57477,0.33702 4.8747,0.22265 8.12449,0.115 25.3484,0.0246 141.04111,4e-5 v 0"
     clip-path="url(#pbed3d90502-1)"
     style="fill:none;stroke:#ffffff;stroke-width:2.08964;stroke-linecap:square;stroke-linejoin:round;stroke-dasharray:8.35855961,4.17927981;stroke-dashoffset:0"
     id="path13640-4"
     transform="matrix(0.72344465,0,0,0.84097931,136.67215,-19.27518)" /><g
     id="line2d_34-7"
     transform="matrix(0.72344465,0,0,0.84097931,136.67215,-19.27518)"
     style="stroke-linecap:butt;stroke-linejoin:round;stroke:#ffffff;stroke-width:2.08963924;stroke-dasharray:none"><path
       d="m 73.832727,295.48315 30.873053,-0.12796 11.69927,-0.25979 8.12448,-0.39602 6.17461,-0.51138 5.19968,-0.64062 4.54971,-0.77322 4.22473,-0.9447 3.89976,-1.10946 3.57477,-1.25484 3.2498,-1.36881 3.24979,-1.61446 2.92482,-1.68605 2.92481,-1.92748 2.92482,-2.18786 2.92482,-2.46558 2.92481,-2.75831 2.92482,-3.06297 2.92481,-3.37564 2.92482,-3.69166 3.24979,-4.46972 3.2498,-4.84528 3.57477,-5.73668 3.89976,-6.69186 4.54971,-8.27086 6.49959,-12.34541 8.44947,-15.99433 4.22473,-7.49668 3.2498,-5.34859 2.92481,-4.41127 2.59984,-3.54259 2.27486,-2.77013 2.27485,-2.43338 1.94988,-1.79889 1.94988,-1.51963 1.94988,-1.22878 1.62489,-0.79489 1.6249,-0.58202 1.6249,-0.366 1.6249,-0.148 1.62489,0.0708 1.6249,0.28923 1.6249,0.50608 1.6249,0.72019 1.94987,1.14132 1.94988,1.4352 1.94988,1.71808 2.27485,2.34445 2.27486,2.68775 2.59984,3.45731 2.59983,3.82592 2.92482,4.68491 3.57477,6.17172 4.54972,8.36161 8.77444,16.76818 5.84964,10.92591 4.54971,8.02795 3.89975,6.42619 3.57478,5.4597 3.24979,4.57517 3.2498,4.19005 2.92482,3.4375 2.92481,3.12378 2.92482,2.81722 2.92481,2.52188 2.92482,2.24101 2.92481,1.97708 2.92482,1.73184 3.24979,1.66071 3.2498,1.41014 3.57477,1.29475 3.57478,1.06068 3.89975,0.92957 4.22474,0.78406 4.87469,0.67362 5.52465,0.53468 6.82457,0.4222 8.44947,0.28957 12.34922,0.17964 6.49959,0.0384 v 0"
       clip-path="url(#pbed3d90502-1)"
       style="fill:none;stroke:#ffffff;stroke-width:2.08963924;stroke-linecap:square;stroke-linejoin:round;stroke-dasharray:none"
       id="path13643-6" /></g></svg>
