<?xml version="1.0" encoding="UTF-8" standalone="no"?>
<svg
   width="482.94467pt"
   height="277.0498pt"
   viewBox="0 0 482.94468 277.0498"
   version="1.1"
   id="svg569"
   sodipodi:docname="T9VNV987.svg"
   inkscape:version="1.2.2 (b0a8486541, 2022-12-01)"
   xml:space="preserve"
   inkscape:export-filename="T9VNV987.png"
   inkscape:export-xdpi="96"
   inkscape:export-ydpi="96"
   xmlns:inkscape="http://www.inkscape.org/namespaces/inkscape"
   xmlns:sodipodi="http://sodipodi.sourceforge.net/DTD/sodipodi-0.dtd"
   xmlns="http://www.w3.org/2000/svg"
   xmlns:svg="http://www.w3.org/2000/svg"
   xmlns:rdf="http://www.w3.org/1999/02/22-rdf-syntax-ns#"
   xmlns:cc="http://creativecommons.org/ns#"
   xmlns:dc="http://purl.org/dc/elements/1.1/"><sodipodi:namedview
     id="namedview571"
     pagecolor="#ffffff"
     bordercolor="#000000"
     borderopacity="0.25"
     inkscape:showpageshadow="2"
     inkscape:pageopacity="0.0"
     inkscape:pagecheckerboard="0"
     inkscape:deskcolor="#d1d1d1"
     inkscape:document-units="pt"
     showgrid="false"
     inkscape:zoom="1.057247"
     inkscape:cx="375.03064"
     inkscape:cy="183.02252"
     inkscape:window-width="1704"
     inkscape:window-height="993"
     inkscape:window-x="0"
     inkscape:window-y="0"
     inkscape:window-maximized="1"
     inkscape:current-layer="svg569" /><metadata
     id="metadata2"><rdf:RDF><cc:Work><dc:type
           rdf:resource="http://purl.org/dc/dcmitype/StillImage" /><dc:date>2025-06-17T15:44:14.936686</dc:date><dc:format>image/svg+xml</dc:format><dc:creator><cc:Agent><dc:title>Matplotlib v3.10.3, https://matplotlib.org/</dc:title></cc:Agent></dc:creator></cc:Work></rdf:RDF></metadata><defs
     id="defs6"><style
       type="text/css"
       id="style4">*{stroke-linejoin: round; stroke-linecap: butt}</style><clipPath
       id="p78022390db-3"><rect
         x="57.599998"
         y="41.472"
         width="357.12"
         height="266.112"
         id="rect564-6" /></clipPath></defs><defs
     id="defs567"><clipPath
       id="p78022390db"><rect
         x="57.599998"
         y="41.472"
         width="357.12"
         height="266.112"
         id="rect564" /></clipPath></defs><g
     inkscape:label="Layer 1"
     id="layer1"
     transform="matrix(2.8346457,0,0,2.8346457,-78.724519,-239.20143)"><rect
       style="opacity:0.816803;fill:#000000;fill-opacity:0.70649;stroke-width:0.209;stroke-linecap:round"
       id="rect1"
       width="170.37215"
       height="97.737015"
       x="27.772261"
       y="84.384949"
       ry="12.817967" /><rect
       style="opacity:0.816803;fill:#000000;fill-opacity:0.70649;stroke-width:0.190641;stroke-linecap:round"
       id="rect1-9"
       width="160.1312"
       height="86.521294"
       x="32.892738"
       y="89.992813"
       ry="11.347053" /><rect
       style="opacity:1;fill:#ffffff;fill-opacity:0.70649;stroke:#ffffff;stroke-width:0.209;stroke-linecap:round"
       id="rect2"
       width="16.460835"
       height="2.6066055"
       x="160.41052"
       y="173.2048"
       ry="1.3033028" /><rect
       style="fill:#ffffff;fill-opacity:0.70649;stroke:#ffffff;stroke-width:0.234945;stroke-linecap:round"
       id="rect2-9"
       width="29.649992"
       height="1.8286923"
       x="42.597713"
       y="168.36513"
       ry="0.91434616" /><rect
       style="fill:#000000;fill-opacity:0.70649;stroke:none;stroke-width:0.306271;stroke-linecap:round"
       id="rect2-9-3"
       width="29.649992"
       height="3.107573"
       x="42.597713"
       y="173.508"
       ry="1.5537865" /><rect
       style="fill:#000000;fill-opacity:0.70649;stroke:none;stroke-width:0.306271;stroke-linecap:round"
       id="rect2-9-3-5"
       width="29.649992"
       height="3.107573"
       x="42.597713"
       y="170.58479"
       ry="1.5537865" /></g><g
     id="line2d_29"
     transform="matrix(0.83206534,0,0,0.83206534,44.970165,-35.981631)"
     style="display:inline;fill:none;fill-opacity:1;stroke:#ffffff;stroke-width:2.6;stroke-linecap:butt;stroke-linejoin:round;stroke-dasharray:none;stroke-opacity:1"><path
       d="m 398.48727,307.50851 v 0 l -1.6249,-0.0131 -12.02424,-0.1855 -8.44947,-0.30103 -6.49959,-0.41238 -5.52465,-0.54479 -4.87469,-0.6911 -4.22473,-0.81093 -3.89976,-0.97013 -3.57477,-1.11781 -3.2498,-1.24182 -3.24979,-1.49234 -2.92482,-1.58817 -2.92482,-1.85041 -2.92481,-2.14296 -2.59984,-2.17566 -2.59983,-2.4536 -2.59984,-2.75354 -2.59984,-3.07493 -2.59983,-3.41672 -2.59984,-3.7774 -2.59983,-4.15488 -2.92482,-5.14292 -2.92482,-5.65361 -2.92481,-6.17309 -2.92482,-6.69397 -3.24979,-8.0398 -3.57478,-9.54803 -3.57477,-10.23416 -4.22474,-12.87266 -15.59901,-51.54837 -4.8747,-15.9034 -3.57477,-11.0753 -3.2498,-9.43714 -2.92481,-7.84576 -2.59984,-6.36727 -2.27485,-5.04383 -1.94988,-3.895842 -1.94988,-3.474165 -1.94988,-3.029379 -1.62489,-2.169939 -1.6249,-1.836654 -1.6249,-1.49467 -1.29992,-0.944671 -1.29992,-0.718326 -1.29991,-0.489779 -1.29992,-0.259728 -1.29992,-0.02888 -1.29992,0.202062 -1.29992,0.43238 -1.29991,0.661369 -1.6249,1.14557 -1.6249,1.49467 -1.6249,1.836654 -1.62489,2.169939 -1.94988,3.029379 -1.94988,3.474165 -2.27486,4.584385 -2.27485,5.11729 -2.59984,6.44308 -2.92481,7.91988 -3.57478,10.49049 -4.22473,13.27803 -8.44947,28.08395 -6.49959,21.64955 -4.54971,14.56701 -3.89976,11.85591 -3.57477,10.23416 -3.2498,8.70993 -3.24979,8.10219 -2.92482,6.75158 -2.92482,6.23104 -2.92481,5.71102 -2.59984,4.64624 -2.59983,4.25157 -2.59984,3.87029 -2.59984,3.50519 -2.59983,3.15852 -2.59984,2.83191 -2.59983,2.52654 -2.59984,2.24306 -2.59984,1.98174 -2.92481,1.94451 -2.92482,1.67229 -2.92481,1.42957 -3.2498,1.33772 -3.57477,1.20779 -3.89976,1.05169 -4.22473,0.88227 -4.54971,0.71193 -5.52466,0.61164 -6.824567,0.48377 -9.099427,0.35149 -14.299099,0.21508 c 302.455413,12.34674 324.654543,5e-5 324.654543,5e-5 z"
       clip-path="url(#p78022390db-3)"
       style="fill:none;fill-opacity:1;stroke:#ffffff;stroke-width:2.6;stroke-linecap:square;stroke-linejoin:round;stroke-dasharray:none;stroke-opacity:1"
       id="path451" /></g><text
     xml:space="preserve"
     style="font-style:normal;font-variant:normal;font-weight:normal;font-stretch:normal;font-size:16px;font-family:Chalkduster;-inkscape-font-specification:'Chalkduster, Normal';font-variant-ligatures:normal;font-variant-caps:normal;font-variant-numeric:normal;font-variant-east-asian:normal;fill:#ffffff;fill-opacity:1;stroke:none;stroke-width:11.8063;stroke-linecap:butt;stroke-linejoin:round;stroke-opacity:1"
     x="195.01929"
     y="178.72914"
     id="text2684"><tspan
       sodipodi:role="line"
       id="tspan2682"
       style="font-style:normal;font-variant:normal;font-weight:normal;font-stretch:normal;font-size:16px;font-family:Chalkduster;-inkscape-font-specification:'Chalkduster, Normal';font-variant-ligatures:normal;font-variant-caps:normal;font-variant-numeric:normal;font-variant-east-asian:normal;fill:#ffffff;stroke:none;stroke-width:11.8063"
       x="195.01929"
       y="178.72914">Area = 1.0</tspan></text><text
     xml:space="preserve"
     style="font-style:normal;font-variant:normal;font-weight:normal;font-stretch:normal;font-size:24px;font-family:Chalkduster;-inkscape-font-specification:'Chalkduster, Normal';font-variant-ligatures:normal;font-variant-caps:normal;font-variant-numeric:normal;font-variant-east-asian:normal;opacity:1;fill:#ffffff;stroke:#ffffff;stroke-width:2.6;stroke-linecap:butt;stroke-linejoin:round;stroke-dasharray:none"
     x="34.287907"
     y="57.566628"
     id="text6671"><tspan
       sodipodi:role="line"
       id="tspan6669"
       style="font-style:normal;font-variant:normal;font-weight:normal;font-stretch:normal;font-size:24px;font-family:Chalkduster;-inkscape-font-specification:'Chalkduster, Normal';font-variant-ligatures:normal;font-variant-caps:normal;font-variant-numeric:normal;font-variant-east-asian:normal;stroke:none;stroke-width:2.6"
       x="34.287907"
       y="57.566628">Property #1</tspan></text></svg>
