<?xml version="1.0" encoding="UTF-8" standalone="no"?>
<!-- Created with Inkscape (http://www.inkscape.org/) -->

<svg
   width="167.53416mm"
   height="101.02998mm"
   viewBox="0 0 167.53416 101.02998"
   version="1.1"
   id="svg1"
   xml:space="preserve"
   inkscape:version="1.4 (e7c3feb1, 2024-10-09)"
   sodipodi:docname="2rSQ9d1A.svg"
   xmlns:inkscape="http://www.inkscape.org/namespaces/inkscape"
   xmlns:sodipodi="http://sodipodi.sourceforge.net/DTD/sodipodi-0.dtd"
   xmlns="http://www.w3.org/2000/svg"
   xmlns:svg="http://www.w3.org/2000/svg"><sodipodi:namedview
     id="namedview1"
     pagecolor="#ffffff"
     bordercolor="#000000"
     borderopacity="0.25"
     inkscape:showpageshadow="2"
     inkscape:pageopacity="0.0"
     inkscape:pagecheckerboard="0"
     inkscape:deskcolor="#d1d1d1"
     inkscape:document-units="mm"
     inkscape:zoom="0.75866532"
     inkscape:cx="337.43469"
     inkscape:cy="162.12682"
     inkscape:window-width="1472"
     inkscape:window-height="891"
     inkscape:window-x="0"
     inkscape:window-y="37"
     inkscape:window-maximized="1"
     inkscape:current-layer="layer1" /><defs
     id="defs1" /><g
     inkscape:label="Layer 1"
     inkscape:groupmode="layer"
     id="layer1"
     transform="translate(-15.985203,-97.652034)"><g
       style="clip-rule:evenodd;fill-rule:evenodd;image-rendering:optimizeQuality;shape-rendering:geometricPrecision;text-rendering:geometricPrecision"
       id="g1"
       transform="matrix(0,-0.26458333,0.26458333,0,15.985203,190.2562)"><g
         id="g2"><path
           d="m 246.42,293.15 36.13,-0.76 -4.51,-163.86 c -9.51,21.63 -17.07,42.96 -22.42,63.82 -6.35,24.73 -9.57,48.77 -9.21,71.84 z M 136.91,49.06 h 81.22 c 9.29,0 17.75,3.81 23.9,9.95 l 0.05,0.05 c 6.13,6.15 9.93,14.6 9.93,23.88 0,9.29 -3.81,17.75 -9.94,23.9 l -0.06,0.05 c -6.14,6.13 -14.6,9.93 -23.88,9.93 h -81.22 c -9.29,0 -17.75,-3.81 -23.9,-9.94 l -0.05,-0.06 c -6.13,-6.14 -9.93,-14.6 -9.93,-23.88 0,-9.29 3.81,-17.75 9.95,-23.9 l 0.05,-0.05 c 6.15,-6.13 14.6,-9.93 23.88,-9.93 z m 81.22,16.8 h -81.22 c -4.71,0 -8.98,1.91 -12.05,4.99 l -0.04,0.03 c -3.20058,3.196689 -4.99622,7.536452 -4.99,12.06 0,4.71 1.91,8.98 4.99,12.06 l 0.04,0.03 c 3.07,3.08 7.34,4.99 12.05,4.99 h 81.22 c 4.71,0 8.98,-1.91 12.06,-4.99 L 230.22,95 c 3.08,-3.08 4.99,-7.35 4.99,-12.06 0,-4.71 -1.91,-8.98 -4.99,-12.06 l -0.03,-0.03 c -3.19669,-3.200579 -7.53645,-4.996219 -12.06,-4.99 z m 71.34,-21.88 c 3.79,6.29 8.17,11.45 13.36,15.01 5.08,3.47 11.09,5.51 18.31,5.68 v -0.03 c 7.92,0 15.13,3.25 20.35,8.47 h 0.04 c 5.22,5.23 8.47,12.45 8.47,20.39 v 510.84 c 0,7.94 -3.25,15.16 -8.47,20.39 -5.23,5.22 -12.45,8.47 -20.39,8.47 h -14.83 c -0.01,-5.61 0.04,-11.24 0.02,-16.8 h 14.81 c 3.3,0 6.32,-1.37 8.51,-3.55 2.18,-2.19 3.55,-5.21 3.55,-8.51 V 93.5 c 0,-3.3 -1.37,-6.32 -3.55,-8.51 -2.24815,-2.273211 -5.31286,-3.551674 -8.51,-3.55 v -0.03 h -0.17 C 310.17,81.2 301.1,78.12 293.38,72.83 285.87,67.69 279.8,60.55 274.74,52.03 274.52,51.63 274.32,51.22 274.15,50.78 270,40.12 264.22,31.84 256.64,26.17 249.25,20.63 239.91,17.44 228.47,16.8 H 118.84 c -9.85,1.64 -18.06,4.62 -24.38,9.1 -6.1,4.32 -10.52,10.17 -13.08,17.74 l -0.11,0.33 c -4.31,11.91 -10.82,21.11 -19.6,27.47 -8.6,6.23 -19.2,9.58 -31.87,9.95 l -0.94,0.05 c -3.32,0 -6.34,1.35 -8.51,3.52 L 20.32,85 c -2.256545,2.2528 -3.52317,5.311412 -3.52,8.5 v 510.84 c 0,3.15 1.22,6.03 3.21,8.18 l 0.34,0.33 c 2.19,2.18 5.2,3.55 8.51,3.55 l 277.47,0.2862 -0.02,16.5138 H 28.86 C 20.920001,633.196 13.7,629.95 8.47,624.73 l -0.5,-0.54 C 3.04,619 0,612 0,604.34 V 93.5 C 0,85.6 3.24,78.39 8.47,73.15 L 8.53,73.1 c 5.24,-5.22 12.43,-8.46 20.33,-8.46 l 0.53,0.02 c 9.12,-0.27 16.58,-2.57 22.44,-6.81 6,-4.34 10.55,-10.91 13.69,-19.59 C 69.26,27.19 75.77,18.61 84.75,12.25 93.41,6.1 104.29,2.15 117.1,0.13 c 0.43,-0.07 0.86,-0.1 1.28,-0.1 V 0 h 109.9 c 0.37,0 0.73,0.02 1.08,0.07 14.86,0.82 27.24,5.16 37.32,12.71 9.99,7.47 17.51,17.96 22.79,31.2 z m -41.11,257.39 -1.05,110.85 40.24,10.78 3.28,-125.86 c 0.05,-0.26 0.07,-0.52 0.06,-0.8 l -5.11,-185.68 c -0.0686,-2.27037 -1.95935,-4.05829 -4.23,-4 -1.59,0.05 -2.94,0.98 -3.6,2.32 -13.24,27.62 -23.53,54.84 -30.33,81.31 -6.51,25.4 -9.82,50.14 -9.47,73.95 v 33.12 c 0,2.29 1.85,4.14 4.13,4.14 z m -1.15,120.65 -0.16,17.1 40.62,10.88 -0.08,-17.16 z m -0.25,26.9 -0.46,47.73 c 2.84,15.67 28.83,22.39 38.38,6.48 3.42,-5.7 2.98,-9.79 2.95,-16.18 l -0.12,-27.11 z"
           id="path1"
           sodipodi:nodetypes="ccccccssscsccssccsssscscccccssssssscccccccsscsccscsscccccccccccccccccccsccsccsccssccccccccccscccccccccccccsccccccccccccc" /></g></g><text
       xml:space="preserve"
       style="font-style:normal;font-variant:normal;font-weight:normal;font-stretch:normal;font-size:6.35px;font-family:Chalkduster;-inkscape-font-specification:'Chalkduster, Normal';font-variant-ligatures:normal;font-variant-caps:normal;font-variant-numeric:normal;font-variant-east-asian:normal;text-align:start;writing-mode:lr-tb;direction:ltr;text-anchor:start;fill:#000000;fill-opacity:0.70649;stroke:none;stroke-width:0.465"
       x="53.992058"
       y="146.64116"
       id="text2"><tspan
         sodipodi:role="line"
         id="tspan2"
         style="font-style:normal;font-variant:normal;font-weight:normal;font-stretch:normal;font-size:6.35px;font-family:Chalkduster;-inkscape-font-specification:'Chalkduster, Normal';font-variant-ligatures:normal;font-variant-caps:normal;font-variant-numeric:normal;font-variant-east-asian:normal;fill:#000000;stroke:none;stroke-width:0.465"
         x="53.992058"
         y="146.64116">7, 18, 19, 20, 21, 22, 25, 120, 1500</tspan></text><path
       style="opacity:0.19;fill:#000000;fill-opacity:0.70649;stroke:#000000;stroke-width:1.24841;stroke-dasharray:3.74524, 3.74524;stroke-dashoffset:0"
       d="m 104.31615,128.12473 v 58.49504"
       id="path2" /><path
       style="opacity:0.19;fill:#000000;fill-opacity:0.70649;stroke:#000000;stroke-width:1.24841;stroke-dasharray:3.74524, 3.74524;stroke-dashoffset:0"
       d="m 79.765911,128.12473 v 58.49504"
       id="path2-1" /><path
       style="opacity:0.19;fill:#000000;fill-opacity:0.70649;stroke:#000000;stroke-width:1.24841;stroke-dasharray:3.74524, 3.74524;stroke-dashoffset:0"
       d="m 128.54697,128.12473 v 58.49504"
       id="path2-5" /><text
       xml:space="preserve"
       style="font-style:normal;font-variant:normal;font-weight:normal;font-stretch:normal;font-size:6.35px;font-family:Chalkduster;-inkscape-font-specification:'Chalkduster, Normal';font-variant-ligatures:normal;font-variant-caps:normal;font-variant-numeric:normal;font-variant-east-asian:normal;text-align:start;writing-mode:lr-tb;direction:ltr;text-anchor:start;opacity:1;fill:#000000;fill-opacity:0.70649;stroke:#000000;stroke-width:1.165;stroke-dasharray:3.49499, 3.49499;stroke-dashoffset:0"
       x="72.412544"
       y="198.254"
       id="text3"><tspan
         sodipodi:role="line"
         id="tspan3"
         style="fill:#000000;stroke:none;stroke-width:1.165"
         x="72.412544"
         y="198.254">25th</tspan></text><text
       xml:space="preserve"
       style="font-style:normal;font-variant:normal;font-weight:normal;font-stretch:normal;font-size:6.35px;font-family:Chalkduster;-inkscape-font-specification:'Chalkduster, Normal';font-variant-ligatures:normal;font-variant-caps:normal;font-variant-numeric:normal;font-variant-east-asian:normal;text-align:start;writing-mode:lr-tb;direction:ltr;text-anchor:start;opacity:1;fill:#000000;fill-opacity:0.70649;stroke:none;stroke-width:1.165;stroke-dasharray:3.49499, 3.49499;stroke-dashoffset:0"
       x="96.576866"
       y="198.254"
       id="text3-3"><tspan
         sodipodi:role="line"
         id="tspan4"
         x="96.576866"
         y="198.254">50th</tspan></text><text
       xml:space="preserve"
       style="font-style:normal;font-variant:normal;font-weight:normal;font-stretch:normal;font-size:6.35px;font-family:Chalkduster;-inkscape-font-specification:'Chalkduster, Normal';font-variant-ligatures:normal;font-variant-caps:normal;font-variant-numeric:normal;font-variant-east-asian:normal;text-align:start;writing-mode:lr-tb;direction:ltr;text-anchor:start;fill:#000000;fill-opacity:0.70649;stroke:none;stroke-width:1.165;stroke-dasharray:3.49499, 3.49499;stroke-dashoffset:0"
       x="121.14682"
       y="198.254"
       id="text3-3-4"><tspan
         sodipodi:role="line"
         id="tspan5"
         x="121.14682"
         y="198.254">75th</tspan></text></g></svg>
