<?xml version="1.0" encoding="UTF-8" standalone="no"?>
<!-- Created with Inkscape (http://www.inkscape.org/) -->

<svg
   width="139.96895mm"
   height="32.495872mm"
   viewBox="0 0 139.96895 32.495872"
   version="1.1"
   id="svg1"
   inkscape:version="1.4 (e7c3feb1, 2024-10-09)"
   sodipodi:docname="Wwm2jTPU.svg"
   inkscape:export-filename="Wwm2jTPU.png"
   inkscape:export-xdpi="96"
   inkscape:export-ydpi="96"
   xmlns:inkscape="http://www.inkscape.org/namespaces/inkscape"
   xmlns:sodipodi="http://sodipodi.sourceforge.net/DTD/sodipodi-0.dtd"
   xmlns="http://www.w3.org/2000/svg"
   xmlns:svg="http://www.w3.org/2000/svg">
  <sodipodi:namedview
     id="namedview1"
     pagecolor="#ffffff"
     bordercolor="#000000"
     borderopacity="0.25"
     inkscape:showpageshadow="2"
     inkscape:pageopacity="0.0"
     inkscape:pagecheckerboard="0"
     inkscape:deskcolor="#d1d1d1"
     inkscape:document-units="mm"
     inkscape:zoom="1.1861117"
     inkscape:cx="238.59473"
     inkscape:cy="35.409818"
     inkscape:window-width="1472"
     inkscape:window-height="891"
     inkscape:window-x="0"
     inkscape:window-y="37"
     inkscape:window-maximized="1"
     inkscape:current-layer="layer1" />
  <defs
     id="defs1" />
  <g
     inkscape:label="Layer 1"
     inkscape:groupmode="layer"
     id="layer1"
     transform="translate(-38.891596,-135.54472)">
    <path
       style="fill:none;fill-opacity:0.70649;stroke:#000000;stroke-width:0.307112;stroke-linecap:round"
       d="M 39.259333,148.74563 H 173.10297 v 3.26797 H 39.259333 Z"
       id="path1"
       sodipodi:nodetypes="ccccc" />
    <path
       style="fill:none;fill-opacity:0.70649;stroke:#000000;stroke-width:0.311737;stroke-linecap:round"
       d="m 41.163307,143.53976 v 4.89644"
       id="path2" />
    <path
       style="fill:none;fill-opacity:0.70649;stroke:#000000;stroke-width:0.311737;stroke-linecap:round"
       d="m 48.593918,143.53976 v 4.89644"
       id="path2-2" />
    <path
       style="fill:none;fill-opacity:0.70649;stroke:#000000;stroke-width:0.311737;stroke-linecap:round"
       d="m 44.878613,143.53976 v 4.89644"
       id="path2-9" />
    <path
       style="fill:none;fill-opacity:0.70649;stroke:#000000;stroke-width:0.311737;stroke-linecap:round"
       d="m 56.024528,143.53976 v 4.89644"
       id="path2-27" />
    <path
       style="fill:none;fill-opacity:0.70649;stroke:#000000;stroke-width:0.311737;stroke-linecap:round"
       d="m 59.739834,143.53976 v 4.89644"
       id="path2-0" />
    <path
       style="fill:none;fill-opacity:0.70649;stroke:#000000;stroke-width:0.311737;stroke-linecap:round"
       d="m 63.455139,143.53976 v 4.89644"
       id="path2-97" />
    <path
       style="fill:none;fill-opacity:0.70649;stroke:#000000;stroke-width:0.311737;stroke-linecap:round"
       d="m 67.170445,143.53976 v 4.89644"
       id="path2-8" />
    <path
       style="fill:none;fill-opacity:0.70649;stroke:#000000;stroke-width:0.311737;stroke-linecap:round"
       d="m 70.885749,143.53976 v 4.89644"
       id="path2-6" />
    <path
       style="fill:none;fill-opacity:0.70649;stroke:#000000;stroke-width:0.311737;stroke-linecap:round"
       d="m 74.601055,143.53976 v 4.89644"
       id="path2-3" />
    <path
       style="fill:none;fill-opacity:0.70649;stroke:#000000;stroke-width:0.311737;stroke-linecap:round"
       d="m 78.31636,143.53976 v 4.89644"
       id="path2-1" />
    <path
       style="fill:none;fill-opacity:0.70649;stroke:#000000;stroke-width:0.311737;stroke-linecap:round"
       d="m 82.031665,143.53976 v 4.89644"
       id="path2-65" />
    <path
       style="fill:none;fill-opacity:0.70649;stroke:#000000;stroke-width:0.311737;stroke-linecap:round"
       d="m 52.309223,143.53976 v 4.89644"
       id="path2-4" />
    <path
       style="fill:none;fill-opacity:0.70649;stroke:#000000;stroke-width:0.311737;stroke-linecap:round"
       d="m 85.746971,143.53976 v 4.89644"
       id="path2-84" />
    <path
       style="fill:none;fill-opacity:0.70649;stroke:#000000;stroke-width:0.311737;stroke-linecap:round"
       d="m 93.177581,143.53976 v 4.89644"
       id="path2-2-8" />
    <path
       style="fill:none;fill-opacity:0.70649;stroke:#000000;stroke-width:0.311737;stroke-linecap:round"
       d="m 89.462275,143.53976 v 4.89644"
       id="path2-9-0" />
    <path
       style="fill:none;fill-opacity:0.70649;stroke:#000000;stroke-width:0.311737;stroke-linecap:round"
       d="m 100.60819,143.53976 v 4.89644"
       id="path2-27-4" />
    <path
       style="fill:none;fill-opacity:0.70649;stroke:#000000;stroke-width:0.311737;stroke-linecap:round"
       d="m 104.3235,143.53976 v 4.89644"
       id="path2-0-6" />
    <path
       style="fill:none;fill-opacity:0.70649;stroke:#000000;stroke-width:0.311737;stroke-linecap:round"
       d="m 108.0388,143.53976 v 4.89644"
       id="path2-97-0" />
    <g
       id="g10">
      <g
         id="g11">
        <path
           style="fill:none;fill-opacity:0.70649;stroke:#000000;stroke-width:0.311737;stroke-linecap:round"
           d="m 111.75411,143.53976 v 4.89644"
           id="path2-8-3" />
        <path
           style="fill:none;fill-opacity:0.70649;stroke:#000000;stroke-width:0.311737;stroke-linecap:round"
           d="m 115.46941,143.53976 v 4.89644"
           id="path2-6-2" />
      </g>
    </g>
    <path
       style="fill:none;fill-opacity:0.70649;stroke:#000000;stroke-width:0.311737;stroke-linecap:round"
       d="m 119.18472,143.53976 v 4.89644"
       id="path2-3-6" />
    <path
       style="fill:none;fill-opacity:0.70649;stroke:#000000;stroke-width:0.311737;stroke-linecap:round"
       d="m 122.90002,143.53976 v 4.89644"
       id="path2-1-9" />
    <path
       style="fill:none;fill-opacity:0.70649;stroke:#000000;stroke-width:0.311737;stroke-linecap:round"
       d="m 126.64976,143.53976 v 4.89644"
       id="path2-65-4" />
    <path
       style="fill:none;fill-opacity:0.70649;stroke:#000000;stroke-width:0.311737;stroke-linecap:round"
       d="m 96.892882,143.53976 v 4.89644"
       id="path2-4-1" />
    <path
       style="fill:none;fill-opacity:0.70649;stroke:#000000;stroke-width:0.311737;stroke-linecap:round"
       d="m 130.33063,143.53976 v 4.89644"
       id="path2-83" />
    <path
       style="fill:none;fill-opacity:0.70649;stroke:#000000;stroke-width:0.311737;stroke-linecap:round"
       d="m 137.76124,143.53976 v 4.89644"
       id="path2-2-81" />
    <path
       style="fill:none;fill-opacity:0.70649;stroke:#000000;stroke-width:0.311737;stroke-linecap:round"
       d="m 134.04594,143.53976 v 4.89644"
       id="path2-9-5" />
    <path
       style="fill:none;fill-opacity:0.70649;stroke:#000000;stroke-width:0.311737;stroke-linecap:round"
       d="m 145.19186,143.53976 v 4.89644"
       id="path2-27-3" />
    <path
       style="fill:none;fill-opacity:0.70649;stroke:#000000;stroke-width:0.311737;stroke-linecap:round"
       d="m 148.90716,143.53976 v 4.89644"
       id="path2-0-5" />
    <path
       style="fill:none;fill-opacity:0.70649;stroke:#000000;stroke-width:0.311737;stroke-linecap:round"
       d="m 152.62246,143.53976 v 4.89644"
       id="path2-97-4" />
    <path
       style="fill:none;fill-opacity:0.70649;stroke:#000000;stroke-width:0.311737;stroke-linecap:round"
       d="m 156.33777,143.53976 v 4.89644"
       id="path2-8-36" />
    <path
       style="fill:none;fill-opacity:0.70649;stroke:#000000;stroke-width:0.311737;stroke-linecap:round"
       d="m 160.05308,143.53976 v 4.89644"
       id="path2-6-5" />
    <path
       style="fill:none;fill-opacity:0.70649;stroke:#000000;stroke-width:0.311737;stroke-linecap:round"
       d="m 163.76838,143.53976 v 4.89644"
       id="path2-3-9" />
    <path
       style="fill:none;fill-opacity:0.70649;stroke:#000000;stroke-width:0.311737;stroke-linecap:round"
       d="m 167.48368,143.53976 v 4.89644"
       id="path2-1-5" />
    <path
       style="fill:none;fill-opacity:0.70649;stroke:#000000;stroke-width:0.311737;stroke-linecap:round"
       d="m 171.19899,143.53976 v 4.89644"
       id="path2-65-49" />
    <path
       style="fill:none;fill-opacity:0.70649;stroke:#000000;stroke-width:0.311737;stroke-linecap:round"
       d="m 141.47655,143.53976 v 4.89644"
       id="path2-4-17" />
    <text
       xml:space="preserve"
       style="font-size:7.88636px;font-family:Chalkduster;-inkscape-font-specification:'Chalkduster, Normal';text-align:start;writing-mode:lr-tb;direction:ltr;text-anchor:start;fill:#000000;fill-opacity:0.70649;stroke:none;stroke-width:0.452001;stroke-linecap:round;opacity:0.32"
       x="38.577885"
       y="158.80348"
       id="text2"><tspan
         sodipodi:role="line"
         id="tspan2"
         style="fill:#000000;stroke:none;stroke-width:0.452"
         x="38.577885"
         y="158.80348">0</tspan></text>
    <text
       xml:space="preserve"
       style="font-style:normal;font-variant:normal;font-weight:normal;font-stretch:normal;font-size:7.88636px;font-family:Chalkduster;-inkscape-font-specification:'Chalkduster, Normal';font-variant-ligatures:normal;font-variant-caps:normal;font-variant-numeric:normal;font-variant-east-asian:normal;text-align:start;writing-mode:lr-tb;direction:ltr;text-anchor:start;fill:#000000;fill-opacity:0.70649;stroke:none;stroke-width:0.452001;stroke-linecap:round;opacity:0.32"
       x="168.59521"
       y="159.16661"
       id="text2-8"><tspan
         sodipodi:role="line"
         id="tspan8"
         x="168.59521"
         y="159.16661">35</tspan></text>
    <text
       xml:space="preserve"
       style="font-style:normal;font-variant:normal;font-weight:normal;font-stretch:normal;font-size:7.88636px;font-family:Chalkduster;-inkscape-font-specification:'Chalkduster, Normal';font-variant-ligatures:normal;font-variant-caps:normal;font-variant-numeric:normal;font-variant-east-asian:normal;text-align:start;writing-mode:lr-tb;direction:ltr;text-anchor:start;fill:#000000;fill-opacity:0.70649;stroke:none;stroke-width:0.452001;stroke-linecap:round"
       x="49.503246"
       y="141.55318"
       id="text4"><tspan
         sodipodi:role="line"
         id="tspan4"
         style="stroke-width:0.452"
         x="49.503246"
         y="141.55318">3</tspan></text>
    <text
       xml:space="preserve"
       style="font-style:normal;font-variant:normal;font-weight:normal;font-stretch:normal;font-size:7.88636px;font-family:Chalkduster;-inkscape-font-specification:'Chalkduster, Normal';font-variant-ligatures:normal;font-variant-caps:normal;font-variant-numeric:normal;font-variant-east-asian:normal;text-align:start;writing-mode:lr-tb;direction:ltr;text-anchor:start;fill:#000000;fill-opacity:0.70649;stroke:none;stroke-width:0.452001;stroke-linecap:round"
       x="64.772583"
       y="141.13489"
       id="text4-3"><tspan
         sodipodi:role="line"
         id="tspan10"
         x="64.772583"
         y="141.13489">7</tspan></text>
    <text
       xml:space="preserve"
       style="font-style:normal;font-variant:normal;font-weight:normal;font-stretch:normal;font-size:7.88636px;font-family:Chalkduster;-inkscape-font-specification:'Chalkduster, Normal';font-variant-ligatures:normal;font-variant-caps:normal;font-variant-numeric:normal;font-variant-east-asian:normal;text-align:start;writing-mode:lr-tb;direction:ltr;text-anchor:start;fill:#000000;fill-opacity:0.70649;stroke:none;stroke-width:0.452001;stroke-linecap:round"
       x="155.27333"
       y="141.35275"
       id="text4-1"><tspan
         sodipodi:role="line"
         id="tspan5"
         x="155.27333"
         y="141.35275">32</tspan></text>
    <text
       xml:space="preserve"
       style="font-style:normal;font-variant:normal;font-weight:normal;font-stretch:normal;font-size:7.88636px;font-family:Chalkduster;-inkscape-font-specification:'Chalkduster, Normal';font-variant-ligatures:normal;font-variant-caps:normal;font-variant-numeric:normal;font-variant-east-asian:normal;text-align:start;writing-mode:lr-tb;direction:ltr;text-anchor:start;fill:#000000;fill-opacity:0.70649;stroke:none;stroke-width:0.452001;stroke-linecap:round"
       x="139.68883"
       y="141.35275"
       id="text4-4"><tspan
         sodipodi:role="line"
         id="tspan6"
         x="139.68883"
         y="141.35275">28</tspan></text>
    <text
       xml:space="preserve"
       style="font-style:normal;font-variant:normal;font-weight:normal;font-stretch:normal;font-size:7.88636px;font-family:Chalkduster;-inkscape-font-specification:'Chalkduster, Normal';font-variant-ligatures:normal;font-variant-caps:normal;font-variant-numeric:normal;font-variant-east-asian:normal;text-align:start;writing-mode:lr-tb;direction:ltr;text-anchor:start;fill:#000000;fill-opacity:0.70649;stroke:none;stroke-width:0.452001;stroke-linecap:round"
       x="121.64345"
       y="141.35275"
       id="text4-4-3"><tspan
         sodipodi:role="line"
         id="tspan7"
         x="121.64345"
         y="141.35275">23</tspan></text>
    <text
       xml:space="preserve"
       style="font-style:normal;font-variant:normal;font-weight:normal;font-stretch:normal;font-size:7.88636px;font-family:Chalkduster;-inkscape-font-specification:'Chalkduster, Normal';font-variant-ligatures:normal;font-variant-caps:normal;font-variant-numeric:normal;font-variant-east-asian:normal;text-align:start;writing-mode:lr-tb;direction:ltr;text-anchor:start;fill:#000000;fill-opacity:0.70649;stroke:none;stroke-width:0.452001;stroke-linecap:round"
       x="105.96352"
       y="141.37018"
       id="text4-4-3-4"><tspan
         sodipodi:role="line"
         id="tspan9"
         x="105.96352"
         y="141.37018">18</tspan></text>
    <path
       style="fill:#000000;fill-opacity:0.70649;stroke:none;stroke-width:0.504852;stroke-linecap:round"
       d="m 113.61175,151.60636 -6.81683,7.48369 h 13.63367 z"
       id="path10"
       sodipodi:nodetypes="cccc" />
    <text
       xml:space="preserve"
       style="font-style:normal;font-variant:normal;font-weight:normal;font-stretch:normal;font-size:7.88636px;font-family:Chalkduster;-inkscape-font-specification:'Chalkduster, Normal';font-variant-ligatures:normal;font-variant-caps:normal;font-variant-numeric:normal;font-variant-east-asian:normal;text-align:start;writing-mode:lr-tb;direction:ltr;text-anchor:start;fill:#000000;fill-opacity:0.70649;stroke:none;stroke-width:0.452001;stroke-linecap:round"
       x="98.535545"
       y="167.45674"
       id="text11"><tspan
         sodipodi:role="line"
         id="tspan11"
         x="98.535545"
         y="167.45674">x =18.5</tspan></text>
    <path
       d="m 98.40079,162.93805 c 0.006,-0.0116 0.009,-0.0319 0.009,-0.061 0.006,-0.0349 0.009,-0.0697 0.009,-0.10457 0.006,-0.0407 0.009,-0.0784 0.009,-0.11329 0.006,-0.0349 0.009,-0.061 0.009,-0.0784 0,-0.006 -0.006,-0.0176 -0.0174,-0.0348 -0.006,-0.0233 -0.0147,-0.0465 -0.0261,-0.0697 -0.006,-0.0233 -0.0147,-0.0465 -0.0261,-0.0697 -0.006,-0.0233 -0.009,-0.0378 -0.009,-0.0436 0,-0.0116 0.003,-0.029 0.009,-0.0523 0.0116,-0.0291 0.0232,-0.0494 0.0349,-0.061 l 0.0349,-0.0174 0.0349,-0.0174 c 0.006,0 0.0234,-0.009 0.0523,-0.0262 0.0291,-0.0233 0.0494,-0.0349 0.061,-0.0349 l 0.0174,-0.009 0.0174,0.009 0.0697,0.061 c 0.006,0.0116 0.0321,0.0261 0.0784,0.0436 0.0523,0.0116 0.0871,0.0232 0.10457,0.0349 l 0.0174,0.009 c 0.006,0 0.0118,-0.003 0.0174,-0.009 0.006,-0.0116 0.0176,-0.0319 0.0349,-0.061 0.0174,-0.0291 0.029,-0.0465 0.0349,-0.0523 0.0116,-0.006 0.0319,-2e-4 0.061,0.0174 0.0349,0.0116 0.0581,0.0174 0.0697,0.0174 0,-0.006 -0.003,-0.0147 -0.009,-0.0262 v -0.0436 c -0.006,-0.0174 -0.009,-0.0377 -0.009,-0.061 0.0116,-0.0291 0.0232,-0.0436 0.0349,-0.0436 l 0.0349,-0.009 c 0.006,0 0.009,0.003 0.009,0.009 h 0.0174 0.009 c 0.006,0 0.0176,0.0116 0.0349,0.0349 0.0175,0.0233 0.032,0.0349 0.0436,0.0349 0.006,0.006 0.0118,0.009 0.0174,0.009 h 0.0261 0.0349 c 0.006,0 0.0147,-0.003 0.0262,-0.009 0.0116,0 0.0232,-0.003 0.0349,-0.009 0.0174,-0.0116 0.029,-0.0174 0.0349,-0.0174 0.006,-0.0116 0.0118,-0.0261 0.0174,-0.0436 0.0116,-0.0233 0.0203,-0.0378 0.0261,-0.0436 0.0174,0 0.0261,-0.0116 0.0261,-0.0349 h 0.0174 0.0261 c 0.006,0.006 0.0118,0.0205 0.0174,0.0436 0.0116,0.0175 0.0203,0.0291 0.0262,0.0349 0,0.0116 0.009,0.0261 0.0261,0.0436 0.006,-0.0116 0.0176,-0.0261 0.0349,-0.0436 0.0175,-0.0174 0.0291,-0.0319 0.0349,-0.0436 0.006,0 0.0118,-0.009 0.0174,-0.0261 0.0116,-0.0233 0.0203,-0.0378 0.0261,-0.0436 0,0.006 0.003,0.0205 0.009,0.0436 0.0116,0.0174 0.0203,0.0261 0.0261,0.0261 l 0.009,0.009 h 0.0174 c 0.006,0 0.009,-0.003 0.009,-0.009 0.0233,0 0.0349,-0.0116 0.0349,-0.0349 v -0.0174 -0.0174 c 0,-0.0175 -0.0116,-0.0262 -0.0349,-0.0262 0.0116,-0.0116 0.0348,-0.0261 0.0697,-0.0436 0.0349,-0.0174 0.0581,-0.029 0.0697,-0.0349 h 0.0262 0.0174 c 0.006,0.006 0.0118,0.0205 0.0174,0.0436 0.006,0.0174 0.0118,0.029 0.0174,0.0348 0.006,0 0.0118,0.006 0.0174,0.0174 0.0116,0.006 0.0203,0.009 0.0261,0.009 h 0.009 0.0174 c 0.0232,-0.006 0.0668,-0.0176 0.13071,-0.0349 0.0697,-0.0174 0.11038,-0.029 0.122,-0.0349 0.006,-0.006 0.0176,-0.0118 0.0349,-0.0174 0.0233,-0.006 0.0378,-0.0118 0.0436,-0.0174 h 0.0349 0.0436 l 0.0697,-0.0697 c 0.0349,-0.0407 0.0581,-0.0668 0.0697,-0.0784 0.006,0.006 0.0147,0.0147 0.0261,0.0262 0.0175,0.006 0.032,0.009 0.0436,0.009 0.006,0 0.0176,-0.006 0.0349,-0.0174 0.0174,-0.0116 0.0319,-0.0174 0.0436,-0.0174 h 0.009 0.0261 l 0.0349,0.0174 0.0349,0.0174 h 0.0262 0.009 c 0.006,0 0.0234,-0.006 0.0523,-0.0174 0.0291,-0.0174 0.0581,-0.0319 0.0871,-0.0436 0.0349,-0.0174 0.0668,-0.0319 0.0958,-0.0436 0.0291,-0.0174 0.0465,-0.029 0.0523,-0.0349 0.0116,-0.006 0.0435,-0.0118 0.0958,-0.0174 0.0523,-0.0116 0.0929,-0.0203 0.122,-0.0262 h 0.0436 0.0262 c 0,0.006 0.0145,0.0147 0.0436,0.0262 l 0.0349,0.0174 c 0.0174,0.006 0.0581,0.009 0.12199,0.009 0.0697,0 0.11329,-0.003 0.13072,-0.009 0,0.006 0.003,0.0118 0.009,0.0174 0.0116,0.006 0.0203,0.0118 0.0261,0.0174 h 0.0262 0.0174 c 0.006,-0.006 0.0118,-0.0176 0.0174,-0.0349 0.006,-0.0233 0.009,-0.0378 0.009,-0.0436 0.006,0 0.0147,-0.006 0.0261,-0.0174 0.006,-0.006 0.0118,-0.009 0.0174,-0.009 l 0.0174,-0.009 0.0174,0.009 c 0.006,0 0.0118,0.003 0.0174,0.009 l 0.0174,0.0174 c 0,0.006 0.006,0.0205 0.0174,0.0436 0.0116,0.0175 0.0174,0.0291 0.0174,0.0349 h 0.0174 0.0174 c 0.006,-0.006 0.0118,-0.0147 0.0174,-0.0261 0.0116,-0.0116 0.0203,-0.0203 0.0262,-0.0261 h 0.13942 c 0,0.006 -0.006,0.0205 -0.0174,0.0436 -0.0116,0.0232 -0.0174,0.0406 -0.0174,0.0523 v 0.009 0.0174 c 0,0.006 0.009,0.0205 0.0261,0.0436 0.0233,0.0174 0.0378,0.029 0.0436,0.0349 0.006,0 0.0205,0.003 0.0436,0.009 0.0233,0.006 0.0349,0.0147 0.0349,0.0261 0,0.006 0.003,0.0234 0.009,0.0523 0.0116,0.0291 0.0203,0.0494 0.0262,0.061 l 0.0174,0.0174 c 0.006,0.006 0.0147,0.009 0.0262,0.009 0,0.0116 0.003,0.0232 0.009,0.0349 l 0.0174,0.0349 0.0697,-0.0349 c 0,0.0116 0.003,0.0261 0.009,0.0436 l 0.0349,0.0349 c 0.006,0.006 0.0147,0.0147 0.0262,0.0261 0.0174,0.006 0.0319,0.0118 0.0436,0.0174 -0.0116,0.006 -0.0261,0.0263 -0.0436,0.061 -0.0116,0.0349 -0.0203,0.0581 -0.0262,0.0697 v 0.0174 c 0,0.006 0.003,0.0118 0.009,0.0174 h 0.0174 c 0.0116,0 0.0261,-0.003 0.0436,-0.009 0.0174,-0.006 0.0319,-0.0147 0.0436,-0.0261 l 0.061,0.14814 c 0.0116,-0.006 0.0232,-0.0118 0.0349,-0.0174 0.0174,-0.0116 0.0319,-0.0174 0.0436,-0.0174 h 0.0349 v 0.0784 c -0.0116,0 -0.0377,0.003 -0.0784,0.009 -0.0349,0.006 -0.0581,0.0118 -0.0697,0.0174 l -0.11328,0.11329 c 0,0.006 -0.003,0.0205 -0.009,0.0436 -0.006,0.0174 -0.0118,0.029 -0.0174,0.0349 h -0.0784 c -0.0407,-0.006 -0.061,-0.006 -0.061,0 -0.0175,0 -0.0407,0.006 -0.0697,0.0174 -0.0232,0.006 -0.0406,0.0118 -0.0523,0.0174 -0.006,0 -0.0147,0.0116 -0.0261,0.0349 -0.006,0.0174 -0.009,0.029 -0.009,0.0349 l -0.0349,0.0349 h -0.0174 -0.0174 c -0.006,-0.006 -0.0176,-0.0118 -0.0349,-0.0174 -0.0174,-0.006 -0.029,-0.0118 -0.0349,-0.0174 -0.0116,-0.006 -0.0494,-0.0118 -0.11328,-0.0174 -0.0581,-0.0116 -0.0929,-0.0203 -0.10457,-0.0262 -0.0116,-0.006 -0.0319,-0.0205 -0.061,-0.0436 -0.0233,-0.0291 -0.0407,-0.0494 -0.0523,-0.061 -0.006,0.006 -0.0147,0.0147 -0.0261,0.0262 -0.006,0.006 -0.009,0.0118 -0.009,0.0174 h -0.0349 -0.0349 c -0.0116,-0.006 -0.0319,-0.0147 -0.061,-0.0261 -0.0232,-0.0116 -0.0406,-0.0174 -0.0523,-0.0174 l -0.10457,0.10457 c 0,0.006 -0.003,0.009 -0.009,0.009 h -0.0174 l -0.0174,-0.009 c -0.0116,0 -0.0232,-0.003 -0.0349,-0.009 l -0.0349,-0.0174 h -0.0348 -0.0436 l -0.0262,0.0261 c -0.0116,0.006 -0.0203,0.009 -0.0261,0.009 h -0.0349 -0.0348 c -0.006,-0.006 -0.0118,-0.009 -0.0174,-0.009 -0.006,0 -0.0176,-0.009 -0.0349,-0.0261 -0.0116,-0.0233 -0.0232,-0.0349 -0.0349,-0.0349 h -0.0261 c -0.0116,-0.006 -0.0232,-0.009 -0.0348,-0.009 l -0.0436,0.009 c -0.0116,0 -0.0319,0.0116 -0.061,0.0349 -0.0233,0.0174 -0.0407,0.0261 -0.0523,0.0261 h -0.0523 -0.0784 -0.0784 -0.0436 c -0.0116,0 -0.0406,0.003 -0.0871,0.009 -0.0407,0.006 -0.0842,0.0118 -0.13072,0.0174 -0.0465,0 -0.0929,0.003 -0.13943,0.009 -0.0407,0.006 -0.0668,0.009 -0.0784,0.009 h -0.11329 c -0.0116,0.006 -0.0348,0.0118 -0.0697,0.0174 -0.0349,0.006 -0.0581,0.0118 -0.0697,0.0174 -0.006,0 -0.0176,0.006 -0.0349,0.0174 -0.0174,0.0116 -0.029,0.0174 -0.0349,0.0174 -0.006,0.006 -0.0263,0.009 -0.061,0.009 -0.0291,-0.006 -0.0465,-0.009 -0.0523,-0.009 -0.006,0.006 -0.0234,0.0147 -0.0523,0.0261 -0.0291,0.006 -0.0494,0.009 -0.061,0.009 -0.0116,0.006 -0.0464,0.009 -0.10457,0.009 -0.0581,-0.006 -0.0929,-0.009 -0.10457,-0.009 -0.0116,0.006 -0.0319,0.0205 -0.061,0.0436 -0.0291,0.0233 -0.0465,0.0349 -0.0523,0.0349 -0.006,0 -0.0263,0.003 -0.061,0.009 -0.0291,0 -0.0639,0.003 -0.10457,0.009 -0.0349,0 -0.0726,0.003 -0.11329,0.009 h -0.0784 -0.22657 c -0.006,0 -0.0176,0.009 -0.0349,0.0261 -0.0174,0.0116 -0.029,0.0174 -0.0349,0.0174 -0.006,0 -0.0321,0.003 -0.0784,0.009 H 98.5614 98.483 c -0.0174,0 -0.0319,-0.003 -0.0436,-0.009 z m 0.47057,-0.50543 h 0.0349 v -0.0261 h -0.0349 z m -0.14814,-0.0261 h 0.0436 v -0.0436 h -0.0436 z m 0.549,-0.19171 c -0.006,-0.006 -0.0118,-2e-4 -0.0174,0.0174 v 0.061 0.061 c 0.006,0.0116 0.0118,0.0146 0.0174,0.009 0.0116,-0.0116 0.0174,-0.0348 0.0174,-0.0697 0,-0.0349 -0.006,-0.061 -0.0174,-0.0784 z m 2.53583,-0.28757 c -0.0116,-0.006 -0.0174,-2e-4 -0.0174,0.0174 0,0.0174 0.006,0.0232 0.0174,0.0174 0.0116,0 0.0174,-0.006 0.0174,-0.0174 0,-0.0116 -0.006,-0.0174 -0.0174,-0.0174 z m 0.32243,-0.25272 c 0.006,-0.0116 2e-4,-0.0174 -0.0174,-0.0174 -0.0116,0 -0.0174,0.006 -0.0174,0.0174 0.006,0.0116 0.0118,0.0174 0.0174,0.0174 0.0116,0 0.0174,-0.006 0.0174,-0.0174 z m 0.33114,-0.0261 c 0.0116,0 0.0174,0.003 0.0174,0.009 0,0.006 -0.006,0.0118 -0.0174,0.0174 -0.0116,0 -0.0174,-0.006 -0.0174,-0.0174 0,-0.0175 0.006,-0.0205 0.0174,-0.009 z"
       id="text11-4"
       style="font-size:7.88636px;font-family:Chalkduster;-inkscape-font-specification:'Chalkduster, Normal';fill-opacity:0.70649;stroke-width:0.452001;stroke-linecap:round"
       aria-label="x =18.5"
       sodipodi:nodetypes="ccccscccsccccccccccccccccccccccccsccscsccccccccccccccccccscscsccccccccscccccccccccscscccccsccccccccccscccccccscccccccccccccscscccsccscccccsccccscsscccsccccccccccccccccccccccsccccccscccccccsccscsccccscccscccsccccccccccccsccccscsccsccccccccccccccccsscccscsccscsccscsc" />
  </g>
</svg>
