<?xml version="1.0" encoding="UTF-8" standalone="no"?>
<!-- Created with Inkscape (http://www.inkscape.org/) -->

<svg
   width="221.52348mm"
   height="147.86264mm"
   viewBox="0 0 221.52348 147.86264"
   version="1.1"
   id="svg1"
   xml:space="preserve"
   inkscape:version="1.4 (e7c3feb1, 2024-10-09)"
   sodipodi:docname="xEAeoOOl.svg"
   inkscape:export-filename="xEAeoOOl.png"
   inkscape:export-xdpi="96"
   inkscape:export-ydpi="96"
   xmlns:inkscape="http://www.inkscape.org/namespaces/inkscape"
   xmlns:sodipodi="http://sodipodi.sourceforge.net/DTD/sodipodi-0.dtd"
   xmlns="http://www.w3.org/2000/svg"
   xmlns:svg="http://www.w3.org/2000/svg"><sodipodi:namedview
     id="namedview1"
     pagecolor="#ffffff"
     bordercolor="#000000"
     borderopacity="0.25"
     inkscape:showpageshadow="2"
     inkscape:pageopacity="0.0"
     inkscape:pagecheckerboard="0"
     inkscape:deskcolor="#d1d1d1"
     inkscape:document-units="mm"
     inkscape:zoom="0.90873569"
     inkscape:cx="410.46038"
     inkscape:cy="276.20792"
     inkscape:window-width="1472"
     inkscape:window-height="891"
     inkscape:window-x="0"
     inkscape:window-y="37"
     inkscape:window-maximized="1"
     inkscape:current-layer="layer1"
     showgrid="false" /><defs
     id="defs1"><style
       id="style1-8">.cls-1{fill-rule:evenodd;}</style><style
       id="style1-4">.cls-1{fill-rule:evenodd;}</style></defs><g
     inkscape:label="Layer 1"
     inkscape:groupmode="layer"
     id="layer1"
     transform="translate(10.633661,-34.273957)"><g
       id="g7"
       transform="translate(67.188963,-40.802434)"><g
         id="g4"
         transform="matrix(0.34115327,0,0,0.34115327,-3.3237111,70.104768)"><path
           class="st0"
           d="m 85.145613,75.522245 v 11.06488 2.62995 2.50296 h -3.78618 v -2.50296 H 59.028596 v 2.50296 h -3.786187 v -2.50296 -2.62995 -11.06488 h -1.304396 v -2.48973 h 3.185583 l 1.775354,-5.5245 c 0.523875,-1.62719 1.397,-3.10621 3.106209,-3.10621 h 3.910544 v -2.190748 c 0,-0.981604 -0.20373,-0.896937 0.71966,-0.896937 h 7.23107 c 0.772581,0 0.605891,-0.07408 0.605891,0.748771 v 2.336274 h 4.572 c 1.70921,0 2.69346,1.44991 3.10621,3.1062 l 1.37319,5.52451 h 2.926289 v 2.48972 h -1.3044 z m -20.621621,8.69685 h 11.183941 v 2.6379 H 64.523992 Z m -8.014229,-6.14362 c 2.849562,0.09 4.593167,1.28587 5.040312,3.77296 h -5.040312 z m 27.00867,0 c -2.84957,0.09 -4.59317,1.28587 -5.04032,3.77296 h 5.04032 z m -25.034878,-5.0456 h 23.420918 l -1.00277,-4.63286 c -0.27517,-1.27 -1.06627,-2.36802 -2.36802,-2.36802 H 62.335888 c -1.30175,0 -1.9685,1.12712 -2.368021,2.36802 z"
           id="path1-9"
           style="stroke-width:0.264583" /><path
           style="opacity:0.816803;fill:#8d8d8d;fill-opacity:0.70649;stroke:none;stroke-width:1.16391;stroke-linecap:round;stroke-dasharray:6.98346, 6.98346"
           d="M 70.058931,64.028767 50.607154,141.02539 h 39.173718 z"
           id="path2" /><path
           d="m 73.316037,125.42943 c -0.58208,-0.27252 -1.19856,-0.55827 -1.81239,-0.92869 l 0.64294,-4.08516 c 0.53975,0.54504 1.16416,1.0742 2.21457,1.47902 l 0.0609,0.0212 c 1.80181,0.4445 2.81517,0.0847 4.21481,-0.41275 1.18269,-0.42069 2.36802,-0.83609 3.55071,-1.25413 l -1.29646,-3.90261 -3.33639,1.17475 -0.46567,0.17727 c -0.24606,0.0688 -0.4789,0.16669 -0.6985,0.2593 -0.2831,0.11906 -0.53446,0.22489 -0.60854,0.1905 -0.35984,-0.17198 -0.72496,-0.58209 -1.14829,-1.05834 -1.04247,-1.1721 -2.38655,-2.68023 -5.2758,-2.86808 -5.400147,-0.35454 -5.283727,-0.0794 -9.136067,3.81529 l -2.02141,2.55852 2.54794,2.43152 c 1.11654,-1.12712 2.05052,-2.51618 3.10885,-3.70416 0.4154,-0.46832 0.78581,-0.88371 1.22237,-1.07686 0.26723,-0.11641 0.65882,-0.11641 1.11655,-0.10583 l -1.02659,5.54831 c -0.11641,0.61383 -0.13493,1.19856 -0.0344,1.74361 0.0873,0.47625 0.26723,0.9181 0.55034,1.32291 -0.51859,1.70921 -1.2065,3.80471 -1.92088,5.85523 -0.71702,2.05846 -1.46844,4.08781 -2.10608,5.65415 l -0.28839,0.70643 4.27302,-0.0238 0.14287,-0.27516 c 0.64559,-1.24619 1.341437,-2.88132 1.994957,-4.59053 0.69056,-1.80445 1.33615,-3.69622 1.82827,-5.30489 0.59796,0.17198 1.24883,0.37042 1.84944,0.56621 0.59796,0.19579 1.11919,0.38629 1.43669,0.53446 0.0688,0.0318 0.15875,0.23018 0.25664,0.4445 l 0.0291,0.0635 c 0.0926,0.19843 0.13229,0.41275 0.14552,0.64293 0.0159,0.25929 0,0.54769 -0.0159,0.8599 0,2.32304 -0.1561,4.73869 -0.23019,7.06967 l 4.05872,-0.0132 0.25929,-6.45848 c 0.008,-0.1905 0.0132,-0.28575 0.0185,-0.37571 v -0.008 c 0.0159,-0.27517 0.0291,-0.53975 0.0344,-0.83079 0.003,-0.2884 -0.005,-0.57415 -0.037,-0.85725 -0.37041,-3.24648 -2.05316,-4.03229 -4.0984,-4.98479 z m 0.0794,-18.60021 c -0.83344,-0.40746 -1.82033,-0.50007 -2.76225,-0.17727 -0.94721,0.32279 -1.67217,1.00012 -2.07963,1.83356 -0.40745,0.83344 -0.50006,1.82034 -0.17727,2.76225 0.32279,0.94721 1.00013,1.67217 1.83357,2.07963 0.83343,0.40746 1.82033,0.50006 2.76225,0.17727 0.94721,-0.32279 1.67217,-1.00013 2.07963,-1.83356 0.40746,-0.83344 0.50006,-1.82034 0.17727,-2.76226 -0.32279,-0.94456 -1.00012,-1.66952 -1.83357,-2.07962 z"
           id="path1"
           style="stroke-width:0.264583" /><g
           style="clip-rule:evenodd;fill-rule:evenodd;image-rendering:optimizeQuality;shape-rendering:geometricPrecision;text-rendering:geometricPrecision"
           id="g2"
           transform="matrix(0.13176396,0,0,0.13176396,130.50316,28.022381)"><path
             d="M 79.21,99.95 V 31.54 c 0,-5.73 -2.35,-10.94 -6.13,-14.73 -3.78,-3.78 -9,-6.13 -14.73,-6.13 -5.73,0 -10.94,2.35 -14.73,6.13 -3.78,3.79 -6.13,9 -6.13,14.73 V 163.1 c -14.45,7.41 -24.33,22.46 -24.33,39.82 0,24.69 20.01,44.71 44.71,44.71 24.7,0 44.72,-20.02 44.72,-44.71 0,-16.97 -9.45,-31.73 -23.38,-39.31 z m -12.23,71.36 c 13.73,3.95 23.78,16.6 23.78,31.61 0,18.16 -14.72,32.88 -32.89,32.88 -18.16,0 -32.89,-14.72 -32.89,-32.88 0,-15.01 10.05,-27.66 23.79,-31.61 V 55.52 c 0,-11.31 18.21,-10.86 18.21,0 z M 101.17,36.43 v -9.68 h 25.23 c 2.67,0 4.84,2.16 4.84,4.84 0,2.67 -2.17,4.84 -4.84,4.84 z m 0,26.43 v -9.68 h 25.23 c 2.67,0 4.84,2.17 4.84,4.84 0,2.67 -2.17,4.84 -4.84,4.84 z m 0,26.43 v -9.68 h 25.23 c 2.67,0 4.84,2.17 4.84,4.84 0,2.67 -2.17,4.84 -4.84,4.84 z m 0,26.43 v -9.68 h 25.23 c 2.67,0 4.84,2.17 4.84,4.84 0,2.67 -2.17,4.84 -4.84,4.84 z m 0,26.43 v -9.68 h 25.23 c 2.67,0 4.84,2.17 4.84,4.84 0,2.68 -2.17,4.84 -4.84,4.84 z M 89.9,154.71 c 15.58,10.37 25.84,28.09 25.84,48.21 0,31.96 -25.91,57.87 -57.87,57.87 C 25.91,260.79 0,234.88 0,202.92 0,182.39 10.69,164.35 26.81,154.08 V 31.54 c 0,-8.68 3.55,-16.56 9.26,-22.28 C 41.79,3.55 49.67,0 58.35,0 c 8.68,0 16.57,3.55 22.28,9.26 5.72,5.72 9.27,13.6 9.27,22.28 z"
             id="path1-2" /></g><path
           d="m 85.917244,35.49924 10.01712,10.01712 c 6.090706,-4.72281 -1.76212,-16.56291 -10.01712,-10.01712 z m 9.76312,-4.46617 4.839226,4.83923 c 0.31221,0.31221 0.8255,0.31221 1.13771,0 l 6.40292,-6.40291 c 1.64306,-1.64307 1.64306,-4.33388 0,-5.97694 v 0 c -1.64307,-1.643065 -4.33388,-1.643065 -5.97694,0 l -6.402916,6.40291 c -0.31485,0.31221 -0.31485,0.82286 0,1.13771 z m -4.73339,11.27654 -1.10332,1.10332 c -0.39158,0.39158 -1.02923,0.39158 -1.42345,0 -0.39159,-0.39423 -0.39159,-1.02923 0,-1.42346 l 1.10331,-1.10331 -4.49792,-4.49792 0.003,-0.003 c -0.0344,-0.0344 -0.0661,-0.0688 -0.0952,-0.10583 -0.42863,-0.5398 -0.33867,-1.3309 0.20373,-1.76217 3.47927,-2.75961 6.94266,-2.6723 9.59908,-1.18005 0.48948,0.27517 0.94985,0.59796 1.37583,0.96309 l 0.52652,-0.52652 -1.84943,-1.84944 c -0.40217,-0.40217 -0.60325,-0.93133 -0.60325,-1.45786 0,-0.52652 0.20108,-1.05568 0.60325,-1.45785 l 1.56633,-1.56633 -1.35202,-1.35202 -0.99483,0.99483 v 0 c -0.3228,0.32279 -0.74878,0.48683 -1.17475,0.48683 -0.42069,0 -0.84403,-0.16139 -1.16946,-0.48683 l -0.003,-0.003 -0.003,0.003 v 0 l -6.26004,-6.262688 c -0.32279,-0.322792 -0.48683,-0.748771 -0.48683,-1.17475 0,-0.420688 0.16404,-0.844021 0.48948,-1.172104 l -0.003,-0.0026 3.41577,-3.413125 v 0 c 0.0423,-0.04233 0.0873,-0.08202 0.13494,-0.116417 0.30163,-0.246062 0.6694,-0.370417 1.03717,-0.370417 0.42069,0 0.84402,0.161396 1.16946,0.486834 l 0.003,0.0026 0.003,-0.0026 v 0 l 6.26003,6.260041 v 0 c 0.32279,0.322792 0.48683,0.748771 0.48683,1.17475 0,0.423334 -0.16139,0.849312 -0.48683,1.174752 v 0 l -0.99748,0.99748 1.35202,1.35202 3.415766,-3.415772 c 1.06627,-1.066271 2.47386,-1.60073 3.87879,-1.60073 1.40494,0 2.80988,0.534459 3.8788,1.60073 v 0 c 1.06627,1.066272 1.60073,2.473852 1.60073,3.878792 0,1.40494 -0.53446,2.80987 -1.60073,3.87879 l -3.41577,3.41048 1.35202,1.35202 0.99748,-0.99483 c 0.32279,-0.32279 0.74877,-0.48684 1.17475,-0.48684 0.42333,0 0.84931,0.1614 1.17475,0.48684 l 6.26004,6.26004 v 0 c 0.32279,0.32279 0.48683,0.74877 0.48683,1.17475 0,0.42333 -0.1614,0.84931 -0.48683,1.17475 v 0 l -3.41577,3.41577 c -0.3228,0.32279 -0.74877,0.48683 -1.17475,0.48683 -0.42334,0 -0.84932,-0.16139 -1.17475,-0.48683 l -6.26005,-6.26269 c -0.32279,-0.32279 -0.48683,-0.74877 -0.48683,-1.17475 0,-0.42068 0.1614,-0.84402 0.48683,-1.16946 l 0.003,-0.003 -0.003,-0.003 0.99484,-0.99747 -1.35202,-1.35203 -1.56634,1.56634 c -0.40216,0.40216 -0.93133,0.60325 -1.45785,0.60325 -0.52652,0 -1.05569,-0.20109 -1.457846,-0.60325 l -1.56634,-1.56634 -0.56885,0.56886 c 0.65352,0.86254 1.15623,1.83356 1.47373,2.84427 0.86518,2.75431 0.37041,5.79702 -2.17752,7.83431 -0.49213,0.45773 -1.26471,0.4445 -1.74361,-0.0344 z m -6.4479,0.56357 c -0.14023,-0.50007 0.15081,-1.02129 0.65352,-1.16152 0.50006,-0.14023 1.02129,0.15081 1.16152,0.65352 0.26459,0.93398 0.62971,1.64041 1.10067,2.11402 0.42333,0.42598 0.9525,0.66939 1.59544,0.72231 0.51858,0.0423 0.90487,0.49742 0.86254,1.01865 -0.0423,0.51858 -0.49742,0.90487 -1.01865,0.86254 -1.10331,-0.0952 -2.02406,-0.52388 -2.77283,-1.27794 -0.70379,-0.70379 -1.22767,-1.6854 -1.58221,-2.93158 z"
           id="path1-99"
           style="stroke-width:0.264583" /><path
           d="m 153.52422,74.684802 a 0.3889375,0.3889375 0 0 1 0.11377,-0.04233 l 17.87789,-3.96875 a 2.8866042,2.8866042 0 0 1 4.08253,-1.148292 l 3.13531,-0.677333 a 0.16139583,0.16139583 0 0 1 0.13229,0.0344 l 3.15119,2.58498 a 0.16139583,0.16139583 0 0 1 0.0397,0.201083 l -0.4445,0.79375 a 0.15610417,0.15610417 0 0 1 -0.20109,0.06615 l -3.26496,-1.521354 -1.18004,0.981604 a 2.8680833,2.8680833 0 0 1 -0.84402,2.024062 c -0.0582,0.05821 -0.12171,0.116417 -0.18521,0.169334 l 0.0714,1.571625 3.29142,1.5875 a 0.15345833,0.15345833 0 0 1 0.0476,0.214315 l -0.46038,0.72231 a 0.15875,0.15875 0 0 1 -0.16405,0.082 l -3.93964,-0.68792 a 0.15345833,0.15345833 0 0 1 -0.11642,-0.0873 l -1.30969,-2.820457 a 2.7172708,2.7172708 0 0 1 -0.29368,-0.09525 l -11.40354,3.831167 7.51416,3.55335 h 0.0212 a 4.7122292,4.7122292 0 0 1 3.84969,4.63815 c 0,0.0582 0,0.11906 0,0.17727 v 0.0185 l 1.05833,9.84515 h 0.2196 a 2.95275,2.95275 0 0 1 2.94217,2.94216 v 1.452574 a 0.23547917,0.23547917 0 0 1 -0.23548,0.23548 h -20.80419 a 0.23547917,0.23547917 0 0 1 -0.23548,-0.23548 v -1.449924 a 2.95275,2.95275 0 0 1 2.94217,-2.94217 h 0.30163 l 0.0159,-0.0423 4.17513,-9.78958 -11.25009,-5.99017 a 0.34395833,0.34395833 0 0 1 -0.10848,-0.0847 3.1988125,3.1988125 0 0 1 -1.02923,-5.212289 v 0 a 3.175,3.175 0 0 1 2.26219,-0.947208 c 0.0767,0 0.15081,0 0.2249,0 z m 20.6375,-3.471333 a 0.746125,0.746125 0 1 1 -0.74613,0.746125 0.746125,0.746125 0 0 1 0.74613,-0.746125 z m -2.91042,0.3175 -16.2851,3.614208 a 3.2173333,3.2173333 0 0 1 0.59531,0.470958 3.1961667,3.1961667 0 0 1 0,4.521729 v 0 a 3.175,3.175 0 0 1 -1.56369,0.86254 l 9.66788,5.15144 a 4.6937083,4.6937083 0 0 1 1.34937,-2.78606 v 0 a 4.6963542,4.6963542 0 0 1 2.38125,-1.28323 l -6.94796,-3.29142 a 0.38364583,0.38364583 0 0 1 -0.20373,-0.23019 0.39158333,0.39158333 0 0 1 0.24607,-0.49477 l 11.69193,-3.926414 -0.13758,-0.127 a 2.873375,2.873375 0 0 1 -0.84137,-2.037291 3.0850417,3.0850417 0 0 1 0.0317,-0.4445 z m 4.42383,-1.148292 a 2.25425,2.25425 0 1 0 0.65882,1.5875 2.2463125,2.2463125 0 0 0 -0.65882,-1.5875 z m -22.37581,6.529917 a 0.96572917,0.96572917 0 1 1 -0.96308,0.96573 0.96308333,0.96308333 0 0 1 0.96308,-0.96573 z m 1.70921,-0.74348 a 2.4182917,2.4182917 0 1 0 0.70644,1.70921 2.4156458,2.4156458 0 0 0 -0.70644,-1.70921 z m 13.33235,8.42169 a 2.1007917,2.1007917 0 1 1 -2.10079,2.10079 2.1034375,2.1034375 0 0 1 2.10079,-2.10079 z m 4.13809,4.34181 a 4.8048333,4.8048333 0 0 1 -0.81227,1.08215 v 0 a 4.7069375,4.7069375 0 0 1 -7.85019,-2.03465 l -3.73327,8.75242 h 13.22917 z m -1.36525,-5.00327 a 3.9290625,3.9290625 0 0 0 -5.55625,0 v 0 a 3.9288621,3.9288621 0 0 0 5.55625,5.55625 v 0 a 3.921125,3.921125 0 0 0 0,-5.55625 z m -12.17084,13.28473 a 2.4844375,2.4844375 0 0 0 -2.49237,2.46062 v 0.26459 h 20.33323 v -0.26459 a 2.4738542,2.4738542 0 0 0 -2.47121,-2.4712 z"
           id="path1-3"
           style="stroke-width:0.264583" /><g
           style="clip-rule:evenodd;fill-rule:evenodd;image-rendering:optimizeQuality;shape-rendering:geometricPrecision;text-rendering:geometricPrecision"
           id="g9"
           transform="matrix(0.07955077,0,0,0.07955077,104.68317,74.992657)"><path
             d="m 38.53,101.27 c 18.42,-18.78 16.18,-43.9 18.63,-70.99 0.23,-12.3 3.63,-18.49 9.93,-22.04 19.58,-11.02 124.8,-10.95 144.26,0 6.3,3.55 9.7,9.74 9.93,22.04 2.45,27.1 0.21,52.21 18.63,70.99 22.21,6.67 38.53,27.36 38.53,51.64 v 16.55 h 3.12 c 5.18,0 9.44,4.26 9.44,9.45 v 36.15 c 0,5.19 -4.25,9.44 -9.44,9.44 h -3.12 v 35.8 h 0.83 a 2.99,2.99 0 0 1 2.99,2.98 v 81.56 c 0,1.63 -1.35,2.98 -2.99,2.98 h -0.83 v 11.15 c 0,24.37 -16.43,45.11 -38.75,51.7 -18.18,18.76 -15.97,43.78 -18.41,70.76 -0.23,12.31 -3.63,18.49 -9.93,22.04 -19.46,10.96 -124.68,11.03 -144.26,0 -6.3,-3.55 -9.7,-9.73 -9.93,-22.04 -2.44,-26.98 -0.23,-52 -18.41,-70.76 C 16.43,404.08 0,383.34 0,358.97 V 152.91 c 0,-24.28 16.32,-44.97 38.53,-51.64 z m 106.19,107.88 c 10.27,-10.7 17.45,-19.95 33.26,-21.76 29.69,-3.41 57.01,26.99 42.01,56.91 -10.78,21.51 -55.58,60.93 -75.26,80.46 -26.22,-25.25 -76.66,-63.5 -77.94,-99.26 -0.83,-23.32 17.57,-38.26 38.74,-37.99 18.91,0.25 26.87,9.66 39.19,21.64 z m 79.83,-96.28 H 53.89 c -22.03,0 -40.04,18.01 -40.04,40.04 v 206.06 c 0,22.03 18.01,40.04 40.04,40.04 h 170.66 c 22.04,0 40.04,-18.01 40.04,-40.04 V 152.91 c 0,-22.03 -18,-40.04 -40.04,-40.04 z"
             id="path1-0" /></g></g><text
         xml:space="preserve"
         style="font-style:normal;font-variant:normal;font-weight:normal;font-stretch:normal;font-size:8.46667px;font-family:Chalkduster;-inkscape-font-specification:'Chalkduster, Normal';font-variant-ligatures:normal;font-variant-caps:normal;font-variant-numeric:normal;font-variant-east-asian:normal;text-align:start;writing-mode:lr-tb;direction:ltr;text-anchor:start;opacity:0.816803;fill:#000000;fill-opacity:0.70649;stroke:none;stroke-width:0.85;stroke-linecap:round;stroke-dasharray:5.1, 5.1"
         x="19.054384"
         y="129.76418"
         id="text4"><tspan
           sodipodi:role="line"
           id="tspan4"
           x="19.054384"
           y="129.76418">Sensors</tspan></text></g><g
       id="g17"
       transform="translate(4.1127113,-2.9115538)"><text
         xml:space="preserve"
         style="font-style:normal;font-variant:normal;font-weight:normal;font-stretch:normal;font-size:8.46667px;font-family:Chalkduster;-inkscape-font-specification:'Chalkduster, Normal';font-variant-ligatures:normal;font-variant-caps:normal;font-variant-numeric:normal;font-variant-east-asian:normal;text-align:start;writing-mode:lr-tb;direction:ltr;text-anchor:start;opacity:0.816803;fill:#000000;fill-opacity:0.70649;stroke:none;stroke-width:0.85;stroke-linecap:round;stroke-dasharray:5.1, 5.1"
         x="64.266426"
         y="171.93884"
         id="text4-2"><tspan
           sodipodi:role="line"
           id="tspan8"
           x="64.266426"
           y="171.93884">Manual Human </tspan><tspan
           sodipodi:role="line"
           id="tspan9"
           x="64.266426"
           y="182.52219">    Effort</tspan></text><g
         id="g5"
         transform="matrix(0.5111435,0,0,0.5111435,32.880928,88.443362)"><g
           id="g6"
           transform="translate(-17.982877,12.844912)"><path
             class="st0"
             d="m 134.88036,107.72568 -0.0714,4.42384 h 4.63285 c 0.98161,0 1.78329,0.80168 1.78329,1.78329 v 1.78329 h -0.0185 v 6.97442 c 0,0.9816 -0.80169,1.78329 -1.78329,1.78329 h -1.78329 v -8.24442 c 0,-0.78052 -0.29369,-0.51064 -1.1774,-0.51064 H 132.478 v -0.0106 h -2.286 c -1.47637,0 -2.68287,-1.2065 -2.68287,-2.68288 v -9.3054 c 0,-1.50018 1.22766,-2.72785 2.72785,-2.72785 h 1.34938 c 2.80987,0 2.36272,1.9341 3.60627,3.15119 1.22766,1.20121 0.9181,1.33879 2.59556,1.33879 h 3.61421 c 2.99243,0 1.38377,2.90777 -0.38894,2.81781 h -3.31258 c -1.47638,0 -1.60073,0.23548 -2.82046,-0.57414 z m 9.41123,0.59002 c -0.43127,0 -0.78052,-0.34925 -0.78052,-0.78052 0,-0.43127 0.34925,-0.78052 0.78052,-0.78052 h 5.02443 l 2.69082,-5.47687 c 0.18785,-0.38629 0.65616,-0.54504 1.04246,-0.35719 0.38629,0.18785 0.54504,0.65617 0.35718,1.03981 l -2.87602,5.85259 c -0.11112,0.29368 -0.39687,0.5027 -0.73025,0.5027 z m -6.98236,0.55828 h 15.13682 c 0.0873,0 0.15875,0.0741 0.15875,0.15875 v 2.27277 c 0,0.0847 -0.0741,0.15875 -0.15875,0.15875 h -0.71438 v 13.92766 c 0,0.11642 -0.0952,0.20902 -0.20902,0.20902 h -1.79652 c -0.11642,0 -0.20902,-0.0952 -0.20902,-0.20902 v -13.92766 h -12.20788 c -0.0847,0 -0.15875,-0.0714 -0.15875,-0.15875 v -2.27277 c 0,-0.0873 0.0714,-0.15875 0.15875,-0.15875 z m -11.78718,13.93295 c 0.0132,-0.10848 0.0635,-0.21431 0.14552,-0.29898 0.61648,-0.62177 1.397,-1.12977 2.28864,-1.47637 0.62442,-0.24342 1.29911,-0.40746 2.00819,-0.4789 l -0.13494,-2.1246 h -4.83658 c -0.50271,0 -0.91811,-0.41275 -0.91811,-0.9181 0,-3.79678 0.8943,-6.65163 0,-10.97492 -0.26458,-1.28058 2.37861,-1.46579 2.37861,0.0688 v 9.72873 h 9.14929 c 0.50535,0 0.91546,0.67204 0.91546,1.1774 v 0.71437 c 0,0.11113 -0.0926,0.20108 -0.20108,0.20108 h -4.85511 l -0.18785,2.10344 c 0.75141,0.0503 1.47108,0.20373 2.13254,0.4445 0.85196,0.30956 1.60602,0.76729 2.2225,1.32821 0.14817,0.13494 0.20108,0.33337 0.15346,0.51594 0.23812,0.17727 0.39158,0.46037 0.39158,0.78052 0,0.53975 -0.43656,0.97631 -0.97631,0.97631 -0.53975,0 -0.97367,-0.43656 -0.97367,-0.97631 0,-0.32279 0.15611,-0.60854 0.39688,-0.78581 -0.45509,-0.35455 -0.9869,-0.64823 -1.56898,-0.8599 -0.62707,-0.23019 -1.31763,-0.36777 -2.04523,-0.39158 l -0.10584,1.05304 -0.005,0.045 c 0.41275,0.11377 0.71438,0.49212 0.71438,0.93927 0,0.53975 -0.43656,0.97631 -0.97367,0.97631 -0.53975,0 -0.97631,-0.43656 -0.97631,-0.97631 0,-0.4445 0.29898,-0.82021 0.70644,-0.93663 l -0.003,-0.0503 -0.0741,-1.04245 c -0.69585,0.0476 -1.35466,0.19579 -1.95262,0.42862 h -0.003 c -0.58208,0.22754 -1.1086,0.53446 -1.5584,0.90488 0.17992,0.17727 0.29105,0.42333 0.29105,0.69585 0,0.53975 -0.43657,0.97631 -0.97367,0.97631 -0.53975,0 -0.97631,-0.43656 -0.97631,-0.97631 -0.003,-0.32544 0.15875,-0.61383 0.40481,-0.7911 z m 7.8052,-29.718003 c 2.06111,0 3.73063,1.66952 3.73063,3.73063 0,2.0611 -1.66952,3.730623 -3.73063,3.730623 -2.0611,0 -3.73062,-1.669523 -3.73062,-3.730623 0,-2.06111 1.66952,-3.73063 3.73062,-3.73063 z"
             id="path1-1"
             style="stroke-width:0.264583" /><path
             class="cls-1"
             d="m 119.00272,56.284487 a 0.32014583,0.32014583 0 1 1 0,0.640291 0.3254375,0.3254375 0 0 1 -0.3228,-0.320145 0.32279167,0.32279167 0 0 1 0.3228,-0.320146 z m 13.03866,21.939254 a 0.09525,0.09525 0 0 1 -0.127,0 l -0.67204,-0.6694 -0.32015,0.635 c -0.0952,0.1905 -0.26458,0.26458 -0.3466,0.0476 l -0.96573,-2.743734 c -0.0212,-0.05556 0,-0.07937 0.0582,-0.05821 l 2.74373,0.96573 c 0.23019,0.07938 0.14288,0.251354 -0.0476,0.346604 l -0.635,0.32015 0.6694,0.66939 a 0.10054167,0.10054167 0 0 1 0,0.12965 z m -9.45356,-3.9079 h 9.40858 a 0.4206875,0.4206875 0 0 1 0.4154,0.418042 v 1.074208 l -2.55852,-0.899583 a 0.60060417,0.60060417 0 0 0 -0.26459,-0.03704 0.58472917,0.58472917 0 0 0 -0.54504,0.500062 v 0.04763 a 0.6985,0.6985 0 0 0 0.037,0.264584 l 0.59002,1.666877 h -7.08289 a 0.41804167,0.41804167 0 0 1 -0.4154,-0.418044 v -2.196042 a 0.41804167,0.41804167 0 0 1 0.4154,-0.418041 z M 111.96745,59.115528 h 1.7145 v 1.322917 h -0.30428 a 0.82285417,0.82285417 0 0 0 -0.82285,0.822854 v 16.819562 a 0.8255,0.8255 0 0 0 0.82285,0.82285 h 1.47903 V 56.038424 a 0.74877083,0.74877083 0 0 1 0.21695,-0.529166 0.7540625,0.7540625 0 0 1 0.52917,-0.216959 h 23.38917 a 0.746125,0.746125 0 0 1 0.74083,0.740834 v 22.870578 h 1.46579 a 0.8255,0.8255 0 0 0 0.82286,-0.82285 V 61.269237 a 0.82285417,0.82285417 0 0 0 -0.82286,-0.822854 h -0.29104 v -1.322917 h 1.70921 a 0.93397917,0.93397917 0 0 1 0.93133,0.936625 v 21.46829 a 0.93397917,0.93397917 0 0 1 -0.93133,0.93398 h -30.64933 a 0.93397917,0.93397917 0 0 1 -0.93134,-0.93398 v -21.46829 a 0.93397917,0.93397917 0 0 1 0.93134,-0.931333 z m 3.51895,19.788183 h 23.60877 V 57.678841 H 115.4864 Z m 8.38729,-18.785412 h -0.50006 v 0.682625 h -0.59002 v -1.852083 h 1.21708 l -0.0741,0.470958 h -0.55297 v 0.248709 h 0.50006 v 0.439208 z m 0.79375,-0.238125 a 1.1721042,1.1721042 0 0 1 0.18786,-0.735541 0.8493125,0.8493125 0 0 1 0.68262,-0.230188 0.841375,0.841375 0 0 1 0.67998,0.230188 1.1721042,1.1721042 0 0 1 0.18786,0.735541 1.8997083,1.8997083 0 0 1 -0.0397,0.423334 0.746125,0.746125 0 0 1 -0.127,0.28575 0.52916667,0.52916667 0 0 1 -0.26459,0.185208 1.5134167,1.5134167 0 0 1 -0.84931,0 0.52916667,0.52916667 0 0 1 -0.26458,-0.185208 0.746125,0.746125 0 0 1 -0.13758,-0.296334 1.8997083,1.8997083 0 0 1 -0.0397,-0.423333 z m 0.65617,-0.312208 v 0.756708 h 0.24606 a 0.41539583,0.41539583 0 0 0 0.17463,-0.02646 c 0.037,-0.01852 0.0556,-0.0635 0.0556,-0.129646 v -0.76729 h -0.24871 a 0.40216667,0.40216667 0 0 0 -0.17198,0.0291 c -0.037,0.01852 -0.0556,0.06085 -0.0556,0.129646 z m 3.51631,1.225021 h -0.66145 l -0.24342,-0.547688 h -0.127 v 0.547688 h -0.58738 v -1.852084 h 0.92869 a 0.5635625,0.5635625 0 0 1 0.63236,0.645584 0.59002083,0.59002083 0 0 1 -0.26459,0.582083 l 0.3175,0.613833 z m -1.01864,-1.370542 v 0.373063 h 0.13758 a 0.43127083,0.43127083 0 0 0 0.15346,-0.02117 0.10583333,0.10583333 0 0 0 0.0503,-0.103188 v -0.119059 a 0.10583333,0.10583333 0 0 0 -0.0503,-0.103188 0.43127083,0.43127083 0 0 0 -0.15346,-0.02117 z m 2.36273,1.370542 h -0.62707 l 0.11378,-1.852084 h 0.76993 l 0.22754,0.936625 h 0.0212 l 0.23019,-0.936625 h 0.76994 l 0.11112,1.852084 h -0.61912 l -0.037,-0.894292 h -0.0212 l -0.22225,0.894292 h -0.44979 l -0.22755,-0.894292 h -0.0159 l -0.037,0.894292 z m -13.02809,1.418166 h 20.27238 a 0.66410417,0.66410417 0 0 1 0.46567,0.193146 v 0 a 0.66145833,0.66145833 0 0 1 0.19314,0.465667 v 1.49225 a 0.65352083,0.65352083 0 0 1 -0.19314,0.463021 v 0 a 0.65616667,0.65616667 0 0 1 -0.46567,0.193146 h -20.27238 a 0.66410417,0.66410417 0 0 1 -0.46566,-0.195792 v 0 a 0.65352083,0.65352083 0 0 1 -0.19315,-0.463021 v -1.489604 a 0.66410417,0.66410417 0 0 1 0.19315,-0.465667 v 0 a 0.66675,0.66675 0 0 1 0.46566,-0.193146 z m 0,7.839605 h 20.27238 a 0.66410417,0.66410417 0 0 1 0.46567,0.193145 v 0 a 0.65616667,0.65616667 0 0 1 0.19314,0.465667 v 1.489604 a 0.66145833,0.66145833 0 0 1 -0.19314,0.465667 v 0 a 0.65616667,0.65616667 0 0 1 -0.46567,0.193146 h -20.27238 a 0.66410417,0.66410417 0 0 1 -0.46566,-0.193146 v 0 a 0.65616667,0.65616667 0 0 1 -0.19315,-0.465667 V 70.70957 a 0.66145833,0.66145833 0 0 1 0.19315,-0.465667 v 0 a 0.65616667,0.65616667 0 0 1 0.46566,-0.193145 z m 20.41261,0.43127 H 117.0157 a 0.08202083,0.08202083 0 0 0 -0.0873,0.08731 V 72.3394 a 0.08202083,0.08202083 0 0 0 0.0873,0.08731 h 20.55283 a 0.08466667,0.08466667 0 0 0 0.0609,-0.02381 0.09260417,0.09260417 0 0 0 0.0265,-0.0635 v -1.770059 a 0.09260417,0.09260417 0 0 0 -0.0265,-0.0635 0.08466667,0.08466667 0 0 0 -0.0609,-0.02381 z m -20.41261,-4.352395 h 20.27238 a 0.66410417,0.66410417 0 0 1 0.46567,0.193145 v 0 a 0.65352083,0.65352083 0 0 1 0.19314,0.463021 v 1.49225 a 0.66145833,0.66145833 0 0 1 -0.19314,0.465667 v 0 a 0.65616667,0.65616667 0 0 1 -0.46567,0.193146 h -20.27238 a 0.66410417,0.66410417 0 0 1 -0.46566,-0.193146 v 0 a 0.66145833,0.66145833 0 0 1 -0.19315,-0.465667 v -1.489604 a 0.65352083,0.65352083 0 0 1 0.19315,-0.463021 v 0 a 0.66675,0.66675 0 0 1 0.46566,-0.193146 z m 20.41261,0.43127 H 117.0157 a 0.09260417,0.09260417 0 0 0 -0.0635,0.02646 0.08466667,0.08466667 0 0 0 -0.0238,0.0635 v 1.770062 a 0.08466667,0.08466667 0 0 0 0.0238,0.06085 0.09260417,0.09260417 0 0 0 0.0635,0.02646 h 20.55283 a 0.08995833,0.08995833 0 0 0 0.0873,-0.08731 v -1.770062 a 0.0873125,0.0873125 0 0 0 -0.0265,-0.0635 0.0873125,0.0873125 0 0 0 -0.0609,-0.02646 z m 0,-3.918479 H 117.0157 a 0.09260417,0.09260417 0 0 0 -0.0635,0.02646 0.08466667,0.08466667 0 0 0 -0.0238,0.06085 v 1.772709 a 0.08466667,0.08466667 0 0 0 0.0238,0.06085 0.09260417,0.09260417 0 0 0 0.0635,0.02646 h 20.55283 a 0.08995833,0.08995833 0 0 0 0.0873,-0.08731 v -1.772708 a 0.08995833,0.08995833 0 0 0 -0.0873,-0.08731 z m -19.94694,-6.35 a 0.32014583,0.32014583 0 1 1 -0.32279,0.320146 0.32279167,0.32279167 0 0 1 0.32279,-0.320146 z m -1.38112,0 a 0.32014583,0.32014583 0 1 1 -0.32015,0.320146 0.3175,0.3175 0 0 1 0.32015,-0.320146 z m 15.27968,27.463747 c 0.0212,1.46315 0.62442,2.77284 2.2569,3.80471 h -12.96458 c 1.32291,-0.9525 2.26218,-2.11667 2.25689,-3.80471 z"
             id="path1-7"
             style="stroke-width:0.264583" /><path
             class="cls-1"
             d="m 181.77371,68.06645 3.23056,2.614083 a 0.99747917,0.99747917 0 0 1 0.14817,1.399646 l -1.44463,1.785937 -4.77837,-3.862916 1.44727,-1.788584 a 1.0027708,1.0027708 0 0 1 1.39964,-0.148166 z m -23.3389,2.963333 a 0.841375,0.841375 0 0 1 0,-1.68275 h 14.03615 a 0.841375,0.841375 0 0 1 0,1.68275 z m -3.06387,-8.151813 h 20.16654 a 2.5214792,2.5214792 0 0 1 2.51089,2.510896 v 1.489604 l -1.18533,1.463146 a 2.5955625,2.5955625 0 0 0 -0.31221,0.489479 c -0.0635,0.05027 -0.127,0.105834 -0.18785,0.164042 v -3.606271 a 0.83079167,0.83079167 0 0 0 -0.8255,-0.828146 h -20.16654 a 0.83079167,0.83079167 0 0 0 -0.82815,0.828146 v 24.622122 a 0.83608333,0.83608333 0 0 0 0.24342,0.58473 0.82285417,0.82285417 0 0 0 0.58473,0.24342 h 20.16654 a 0.8255,0.8255 0 0 0 0.8255,-0.82815 v -3.79677 l 0.50535,-0.21431 a 2.6458333,2.6458333 0 0 0 1.14829,-0.82815 l 0.0317,-0.037 v 4.87628 a 2.524125,2.524125 0 0 1 -2.51089,2.50031 h -20.16649 a 2.5161875,2.5161875 0 0 1 -2.5109,-2.50036 V 65.388866 a 2.5214792,2.5214792 0 0 1 2.5109,-2.510896 z m 3.06387,23.177498 a 0.84402083,0.84402083 0 0 1 0,-1.68539 h 9.29217 a 9.8160417,9.8160417 0 0 0 -0.0794,1.68539 z m 0,-5.008561 a 0.84402083,0.84402083 0 0 1 0,-1.685395 h 10.09385 v 0.07144 l -0.27781,1.613958 z m 0,-5.008562 a 0.841375,0.841375 0 0 1 0,-1.68275 h 13.59165 l -1.35202,1.68275 z m 17.51013,7.477123 -3.39196,1.44727 c -2.47386,0.91811 -2.36273,1.43669 -2.11667,-1.01864 l 0.74348,-4.291545 v 0 0 l 7.02733,-8.731249 4.7625,3.862916 -7.01939,8.731248 z m -3.95288,-3.204102 3.13796,2.537354 -2.22779,0.952498 c -1.74625,0.74877 -1.69863,1.11919 -1.39436,-0.669394 z"
             id="path1-91"
             style="stroke-width:0.264583" /></g></g></g><g
       id="g14"
       transform="translate(29.21513,32.671206)"><g
         id="g3"><path
           class="st0"
           d="m 127.85523,39.835683 h 8.16372 c 0.61941,0 1.18749,0.25484 1.59275,0.658336 0.41058,0.410575 0.65834,0.97158 0.65834,1.592747 v 17.242393 c 0,0.619401 -0.25484,1.18748 -0.65834,1.592749 -0.41057,0.410572 -0.97158,0.658336 -1.59275,0.658336 h -8.16372 c -0.6194,0 -1.18748,-0.25484 -1.59274,-0.658336 -0.41058,-0.41058 -0.65834,-0.971582 -0.65834,-1.592749 V 42.086766 c 0,-0.619401 0.25484,-1.187481 0.65834,-1.592747 0.41234,-0.410575 0.97334,-0.658336 1.59274,-0.658336 z m -0.36102,4.831339 h 8.88754 v 4.335815 h -8.88754 z m 4.83487,11.237726 h 4.05444 v 0.844155 h -4.05444 z m -4.83487,-5.756905 h 3.75889 v 1.72548 h -3.75889 z m 4.83487,-0.0033 h 4.05444 v 1.73079 h -4.05444 z m -0.0602,2.881107 h 4.05443 v 1.730791 h -4.05443 z m -4.71631,0.002 h 3.75889 v 1.725479 h -3.75889 z m -0.0584,2.879369 h 3.75889 v 0.842389 h -3.75889 z m 4.44023,2.907655 c 0.50968,0 0.92733,0.410573 0.92733,0.927336 0,0.509679 -0.41058,0.927329 -0.92733,0.927329 -0.50968,0 -0.92734,-0.410573 -0.92734,-0.927329 0.002,-0.50968 0.41235,-0.927336 0.92734,-0.927336 z m -5.6914,-0.704816 h 11.38285 V 43.327341 h -11.38283 z"
           id="path1-27"
           style="stroke-width:0.176972" /><path
           class="st0"
           d="m 146.01391,34.635916 h 30.74458 c 0.48683,0 0.88371,0.39687 0.88371,0.88371 v 20.36762 c 0,0.48684 -0.39688,0.88371 -0.88371,0.88371 h -30.74458 c -0.48683,0 -0.88371,-0.39687 -0.88371,-0.88371 v -20.36762 c 0,-0.48684 0.39688,-0.88371 0.88371,-0.88371 z m 2.44211,3.09033 h 2.5982 v 0.67734 h -2.5982 z m 3.83645,7.1755 h -3.83645 v -0.67998 h 3.83645 z m 5.22023,0.003 h -4.4397 v -0.68258 h 4.4397 z m 7.63587,0 h -6.88445 v -0.67993 h 6.8871 v 0.67998 z m -10.16264,-2.84158 h 13.53344 v 0.6694 h -13.53344 z m -3.18293,-0.005 h 2.45004 v 0.67733 H 151.803 Z m -3.34698,0 h 2.5982 v 0.67733 h -2.5982 z m 5.87375,-1.49225 h -5.87375 v -0.67204 h 5.87639 v 0.67204 z m 3.18293,0.003 h -2.45004 v -0.67734 h 2.45004 z m 7.63587,0.003 h -6.88445 v -0.67999 h 6.8871 v 0.67998 z m -10.16264,-2.84428 h 5.87639 v 0.67204 h -5.87639 z m -3.18293,0 h 2.45004 v 0.67734 H 151.803 Z m 17.4572,13.335 -2.40771,-1.34937 v -0.77259 l 2.40771,-1.34937 v 0.889 l -1.67746,0.83608 1.67746,0.86254 z m 0.44715,0.60061 0.87047,-4.73869 h 0.50536 l -0.87577,4.73869 z m 1.7436,-0.59532 v -0.8837 l 1.6801,-0.84667 -1.6801,-0.85725 v -0.87842 l 2.40771,1.35996 v 0.762 z m -14.07319,6.92415 h 8.01688 c 0.0212,1.38642 0.59266,2.62731 2.14048,3.60627 h -12.29783 c 1.23824,-0.89694 2.14576,-1.98702 2.14047,-3.60627 z m 4.00844,-4.19629 c 0.62706,0 1.13506,0.508 1.13506,1.13506 0,0.62706 -0.508,1.13506 -1.13506,1.13506 -0.62706,0 -1.13506,-0.508 -1.13506,-1.13506 0,-0.62706 0.508,-1.13506 1.13506,-1.13506 z m -13.59693,-17.49564 h 27.19651 c 0.43127,0 0.78052,0.35189 0.78052,0.78052 v 15.21883 c 0,0.42863 -0.35189,0.78052 -0.78052,0.78052 h -27.19651 c -0.42863,0 -0.78052,-0.35189 -0.78052,-0.78052 v -15.21883 c -0.003,-0.42863 0.34925,-0.78052 0.78052,-0.78052 z"
           id="path1-02"
           style="stroke-width:0.264583" /><g
           style="clip-rule:evenodd;fill-rule:evenodd;image-rendering:optimizeQuality;shape-rendering:geometricPrecision;text-rendering:geometricPrecision"
           id="g1"
           transform="matrix(0.07925191,0,0,0.07925191,141.09771,64.681725)"><path
             fill-rule="nonzero"
             d="m 25.18,1.1 h 305.58 c 6.93,0 13.23,2.83 17.79,7.39 4.55,4.56 7.39,10.86 7.39,17.79 v 120.63 c 0,6.92 -2.84,13.21 -7.39,17.78 -4.56,4.57 -10.86,7.41 -17.79,7.41 H 25.18 c -6.93,0 -13.23,-2.84 -17.79,-7.4 L 7.15,164.44 C 2.74,159.9 0,153.71 0,146.91 V 26.28 C 0,19.35 2.83,13.05 7.39,8.49 11.95,3.93 18.25,1.1 25.18,1.1 Z M 407.4,70.24 h 43.63 V 56.92 c -4.14,-1.71 -7.09,-5.81 -7.09,-10.55 V 33.23 c 0,-4.74 2.94,-8.84 7.09,-10.56 v -14 h -2.29 c -11.37,0 -21.71,4.65 -29.19,12.13 -7.49,7.51 -12.15,17.84 -12.15,29.21 z m 52.3,0 h 43.62 V 50.01 c 0,-11.38 -4.64,-21.71 -12.13,-29.19 -7.49,-7.5 -17.83,-12.15 -29.2,-12.15 h -2.29 v 14.01 c 4.15,1.72 7.09,5.82 7.09,10.55 v 13.14 c 0,4.72 -2.95,8.83 -7.09,10.55 z m 43.62,8.67 H 407.4 v 44.28 c 0,11.36 4.66,21.69 12.15,29.19 l 0.2,0.22 c 7.47,7.36 17.72,11.92 28.99,11.92 h 13.25 c 11.37,0 21.71,-4.64 29.19,-12.13 7.5,-7.49 12.14,-17.83 12.14,-29.2 z m -41.33,94.29 h -13.25 c -13.62,0 -26.02,-5.53 -35.07,-14.45 l -0.25,-0.24 c -9.06,-9.06 -14.69,-21.57 -14.69,-35.32 V 50.01 c 0,-13.76 5.63,-26.26 14.69,-35.32 C 422.49,5.63 435,0 448.74,0 h 13.25 c 13.73,0 26.22,5.62 35.29,14.68 l 0.03,0.02 C 506.37,23.77 512,36.27 512,50.01 v 73.18 c 0,13.73 -5.62,26.22 -14.68,35.29 l -0.03,0.03 c -9.07,9.06 -21.56,14.69 -35.3,14.69 z M 32.28,29.97 h 22.61 c 3.1,0 5.6,2.5 5.6,5.6 v 19.07 c 0,3.09 -2.5,5.59 -5.6,5.59 H 32.28 c -3.09,0 -5.6,-2.5 -5.6,-5.59 V 35.57 c 0,-3.1 2.51,-5.6 5.6,-5.6 z m 223.97,82.93 h 22.62 c 3.09,0 5.6,2.51 5.6,5.6 v 19.07 c 0,3.09 -2.51,5.6 -5.6,5.6 h -22.62 c -3.09,0 -5.6,-2.51 -5.6,-5.6 V 118.5 c 0,-3.09 2.51,-5.6 5.6,-5.6 z m -44.8,0 h 22.62 c 3.09,0 5.6,2.51 5.6,5.6 v 19.07 c 0,3.09 -2.51,5.6 -5.6,5.6 h -22.62 c -3.09,0 -5.59,-2.51 -5.59,-5.6 V 118.5 c 0,-3.09 2.5,-5.6 5.59,-5.6 z m -134.38,0 h 112.21 c 3.05,0 5.53,2.51 5.53,5.6 v 19.07 c 0,3.09 -2.48,5.6 -5.53,5.6 H 77.07 c -3.06,0 -5.54,-2.51 -5.54,-5.6 V 118.5 c 0,-3.09 2.48,-5.6 5.54,-5.6 z m -44.79,0 h 22.61 c 3.1,0 5.6,2.51 5.6,5.6 v 19.07 c 0,3.09 -2.5,5.6 -5.6,5.6 H 32.28 c -3.09,0 -5.6,-2.51 -5.6,-5.6 V 118.5 c 0,-3.09 2.51,-5.6 5.6,-5.6 z M 256.25,71.66 h 22.62 c 3.09,0 5.6,2.5 5.6,5.6 v 19.06 c 0,3.09 -2.51,5.6 -5.6,5.6 h -22.62 c -3.09,0 -5.6,-2.51 -5.6,-5.6 V 77.26 c 0,-3.1 2.51,-5.6 5.6,-5.6 z m -44.8,0 h 22.62 c 3.09,0 5.6,2.5 5.6,5.6 v 19.06 c 0,3.09 -2.51,5.6 -5.6,5.6 h -22.62 c -3.09,0 -5.59,-2.51 -5.59,-5.6 V 77.26 c 0,-3.1 2.5,-5.6 5.59,-5.6 z m -44.79,0 h 22.62 c 3.09,0 5.6,2.5 5.6,5.6 v 19.06 c 0,3.09 -2.51,5.6 -5.6,5.6 h -22.62 c -3.09,0 -5.6,-2.51 -5.6,-5.6 V 77.26 c 0,-3.1 2.51,-5.6 5.6,-5.6 z m -44.79,0 h 22.61 c 3.1,0 5.6,2.5 5.6,5.6 v 19.06 c 0,3.09 -2.5,5.6 -5.6,5.6 h -22.61 c -3.09,0 -5.6,-2.51 -5.6,-5.6 V 77.26 c 0,-3.1 2.51,-5.6 5.6,-5.6 z m -44.8,0 h 22.62 c 3.09,0 5.6,2.5 5.6,5.6 v 19.06 c 0,3.09 -2.51,5.6 -5.6,5.6 H 77.07 c -3.09,0 -5.6,-2.51 -5.6,-5.6 V 77.26 c 0,-3.1 2.51,-5.6 5.6,-5.6 z m -44.79,0 h 22.61 c 3.1,0 5.6,2.5 5.6,5.6 v 19.06 c 0,3.09 -2.5,5.6 -5.6,5.6 H 32.28 c -3.09,0 -5.6,-2.51 -5.6,-5.6 V 77.26 c 0,-3.1 2.51,-5.6 5.6,-5.6 z m 268.76,-0.51 h 22.62 c 3.1,0 5.61,2.53 5.61,5.66 v 60.32 c 0,3.12 -2.51,5.66 -5.61,5.66 h -22.62 c -3.09,0 -5.6,-2.54 -5.6,-5.66 V 76.81 c 0,-3.13 2.51,-5.66 5.6,-5.66 z m 0,-41.18 h 22.62 c 3.09,0 5.6,2.5 5.6,5.6 v 19.07 c 0,3.09 -2.51,5.59 -5.6,5.59 h -22.62 c -3.09,0 -5.59,-2.5 -5.59,-5.59 V 35.57 c 0,-3.1 2.5,-5.6 5.59,-5.6 z m -44.79,0 h 22.62 c 3.09,0 5.6,2.5 5.6,5.6 v 19.07 c 0,3.09 -2.51,5.59 -5.6,5.59 h -22.62 c -3.09,0 -5.6,-2.5 -5.6,-5.59 V 35.57 c 0,-3.1 2.51,-5.6 5.6,-5.6 z m -44.8,0 h 22.62 c 3.09,0 5.6,2.5 5.6,5.6 v 19.07 c 0,3.09 -2.51,5.59 -5.6,5.59 h -22.62 c -3.09,0 -5.59,-2.5 -5.59,-5.59 V 35.57 c 0,-3.1 2.5,-5.6 5.59,-5.6 z m -44.79,0 h 22.62 c 3.09,0 5.6,2.5 5.6,5.6 v 19.07 c 0,3.09 -2.51,5.59 -5.6,5.59 h -22.62 c -3.09,0 -5.6,-2.5 -5.6,-5.59 V 35.57 c 0,-3.1 2.51,-5.6 5.6,-5.6 z m -44.79,0 h 22.61 c 3.1,0 5.6,2.5 5.6,5.6 v 19.07 c 0,3.09 -2.5,5.59 -5.6,5.59 h -22.61 c -3.09,0 -5.6,-2.5 -5.6,-5.59 V 35.57 c 0,-3.1 2.51,-5.6 5.6,-5.6 z m -44.8,0 h 22.62 c 3.09,0 5.6,2.5 5.6,5.6 v 19.07 c 0,3.09 -2.51,5.59 -5.6,5.59 H 77.07 c -3.09,0 -5.6,-2.5 -5.6,-5.59 V 35.57 c 0,-3.1 2.51,-5.6 5.6,-5.6 z M 330.76,9.77 H 25.18 c -4.53,0 -8.66,1.86 -11.65,4.86 -3,2.99 -4.86,7.12 -4.86,11.65 v 120.63 c 0,4.44 1.78,8.49 4.65,11.47 l 0.21,0.19 c 2.99,2.99 7.12,4.85 11.65,4.85 h 305.58 c 4.53,0 8.66,-1.86 11.65,-4.85 3,-2.98 4.86,-7.12 4.86,-11.66 V 26.28 c 0,-4.53 -1.86,-8.66 -4.86,-11.65 -2.99,-3 -7.12,-4.86 -11.65,-4.86 z"
             id="path1-39" /></g></g><text
         xml:space="preserve"
         style="font-style:normal;font-variant:normal;font-weight:normal;font-stretch:normal;font-size:8.46667px;font-family:Chalkduster;-inkscape-font-specification:'Chalkduster, Normal';font-variant-ligatures:normal;font-variant-caps:normal;font-variant-numeric:normal;font-variant-east-asian:normal;text-align:start;writing-mode:lr-tb;direction:ltr;text-anchor:start;opacity:0.816803;fill:#000000;fill-opacity:0.70649;stroke:none;stroke-width:0.85;stroke-linecap:round;stroke-dasharray:5.1, 5.1"
         x="133.54861"
         y="89.05687"
         id="text4-2-9"><tspan
           sodipodi:role="line"
           id="tspan13"
           x="133.54861"
           y="89.05687">Software </tspan><tspan
           sodipodi:role="line"
           id="tspan14"
           x="133.54861"
           y="99.640205"> Activity</tspan></text></g><g
       id="g19"
       transform="translate(-74.535791,48.305096)"><text
         xml:space="preserve"
         style="font-style:normal;font-variant:normal;font-weight:normal;font-stretch:normal;font-size:8.46667px;font-family:Chalkduster;-inkscape-font-specification:'Chalkduster, Normal';font-variant-ligatures:normal;font-variant-caps:normal;font-variant-numeric:normal;font-variant-east-asian:normal;text-align:start;writing-mode:lr-tb;direction:ltr;text-anchor:start;opacity:0.816803;fill:#000000;fill-opacity:0.70649;stroke:none;stroke-width:0.85;stroke-linecap:round;stroke-dasharray:5.1, 5.1"
         x="63.724377"
         y="78.34581"
         id="text4-2-5"><tspan
           sodipodi:role="line"
           id="tspan15"
           x="63.724377"
           y="78.34581">Synthetic Data</tspan></text><g
         id="g18"><g
           id="g16"><path
             d="m 98.707761,55.53385 h 0.0465 c 0.13447,0 0.25343,0.0621 0.33274,0.156889 1.967159,2.02405 2.999869,6.418685 2.770569,9.359934 -0.0638,0.815482 -0.22413,1.532694 -0.48791,2.074048 -0.29999,0.617216 -0.73273,1.02237 -1.31201,1.129261 -0.737899,0.1362 -1.660269,-0.253439 -2.768849,-1.382699 -0.1431,-0.144822 -0.29137,-0.291363 -0.44308,-0.441358 -0.51722,-0.508598 -1.06202,-1.044785 -1.52235,-1.691303 h -8.053068 c -0.462048,0.651692 -1.006851,1.187879 -1.525794,1.696477 -0.149994,0.148268 -0.298263,0.293089 -0.439636,0.436184 -1.108573,1.12926 -2.030945,1.518899 -2.768844,1.382699 -0.579285,-0.106891 -1.013749,-0.512045 -1.312011,-1.129261 -0.263782,-0.543081 -0.42412,-1.258566 -0.48791,-2.074048 -0.2293,-2.955044 0.813757,-7.375535 2.796429,-9.387517 0.08448,-0.0862 0.194819,-0.129306 0.306883,-0.129306 v -0.002 h 0.04827 c 0.243094,-0.334467 0.544805,-0.603421 0.884445,-0.806854 0.515494,-0.308611 1.115468,-0.462053 1.711993,-0.462053 0.59825,0 1.198222,0.153442 1.711993,0.462053 0.337914,0.201713 0.639625,0.470667 0.879275,0.805134 h 1.363731 c -0.105171,-2.572299 0.610315,-3.218824 1.667164,-3.291237 0.38275,-0.02587 0.7879,0.04138 1.21202,0.112064 0.80169,0.132753 1.68786,0.279301 2.31714,-0.349982 0.16896,-0.168957 0.44136,-0.168957 0.61032,0 0.16896,0.168957 0.16896,0.441358 0,0.610315 -0.94306,0.941341 -2.05853,0.756869 -3.06711,0.589632 -0.3724,-0.0621 -0.72755,-0.120685 -1.01547,-0.101716 -0.570668,0.03792 -0.94996,0.513765 -0.860311,2.434371 h 2.218871 c 0.24137,-0.334467 0.5448,-0.605148 0.88272,-0.806861 0.51549,-0.308605 1.11547,-0.462047 1.71027,-0.462047 0.5948,0 1.19478,0.155163 1.71027,0.462047 0.33791,0.201713 0.64135,0.470667 0.88272,0.806861 z m -2.33611,5.296319 c 0.31724,0.317232 0.31724,0.829276 0,1.146502 -0.31722,0.317232 -0.82927,0.317232 -1.1465,0 -0.31722,-0.317226 -0.31722,-0.82927 0,-1.146502 0.31551,-0.315499 0.82928,-0.315499 1.1465,0 z M 98.175021,59.213 c 0.31723,0.317225 0.31723,0.829276 0,1.146502 -0.31722,0.317225 -0.82927,0.317225 -1.1465,0 -0.31722,-0.317226 -0.31722,-0.829277 0,-1.146502 0.31723,-0.317226 0.82928,-0.317226 1.1465,0 z m -3.60846,0 c 0.31723,0.317225 0.31723,0.829276 0,1.146502 -0.31722,0.317225 -0.82927,0.317225 -1.1465,0 -0.31723,-0.317226 -0.31723,-0.829277 0,-1.146502 0.31723,-0.317226 0.831,-0.317226 1.1465,0 z m 1.80509,-1.444765 c 0.31724,0.317231 0.31724,0.829276 0,1.146501 -0.31722,0.317232 -0.82927,0.317232 -1.1465,0 -0.31722,-0.317225 -0.31722,-0.82927 0,-1.146501 0.31551,-0.315505 0.82928,-0.315505 1.1465,0 z m -11.03744,0.144821 H 86.74277 V 59.3492 h 1.436143 v 1.408562 H 86.74277 v 1.436144 H 85.334211 V 60.757762 H 83.898068 V 59.3492 h 1.436143 z m 13.23563,-1.515452 h -0.0931 v -0.002 c -0.14654,0 -0.28964,-0.07413 -0.36894,-0.210335 -0.18448,-0.306877 -0.43619,-0.548248 -0.72583,-0.720652 -0.37758,-0.225856 -0.82066,-0.337914 -1.26891,-0.337914 -0.44653,0 -0.89134,0.112058 -1.26892,0.337914 -0.28102,0.16723 -0.52583,0.39998 -0.70858,0.693069 -0.0707,0.141375 -0.21723,0.237924 -0.38619,0.237924 h -4.903235 v -0.002 c -0.146548,0 -0.289642,-0.07413 -0.36895,-0.210334 -0.182752,-0.306884 -0.434464,-0.546528 -0.722379,-0.718939 -0.379296,-0.227576 -0.824104,-0.341361 -1.270636,-0.341361 -0.446532,0 -0.89134,0.113785 -1.270634,0.341361 -0.281022,0.168964 -0.527563,0.399987 -0.710313,0.693076 -0.07069,0.141374 -0.217232,0.237918 -0.38619,0.237918 h -0.0931 c -1.734406,1.899924 -2.637815,5.887678 -2.427479,8.591009 0.05517,0.710312 0.187923,1.322353 0.403431,1.763711 0.179302,0.36723 0.408602,0.605147 0.691349,0.656873 0.460324,0.08447 1.115468,-0.239645 1.999912,-1.139608 0.146545,-0.148268 0.296538,-0.296537 0.44998,-0.446532 0.531011,-0.520665 1.091331,-1.072367 1.522347,-1.717166 0.07241,-0.1362 0.215507,-0.227576 0.381017,-0.227576 h 8.50653 v 0.002 c 0.13964,0 0.27584,0.06724 0.3586,0.193093 0.43791,0.66204 1.00513,1.220636 1.54131,1.748202 0.15516,0.151715 0.30688,0.30171 0.45343,0.451705 0.88271,0.899958 1.53959,1.224083 1.99991,1.139602 0.282739,-0.05174 0.513769,-0.289643 0.691349,-0.656866 0.2155,-0.443085 0.34826,-1.0534 0.40343,-1.763718 0.21033,-2.706746 -0.69308,-6.6945 -2.429199,-8.592697 z"
             id="path1-915"
             style="stroke-width:0.172406" /><g
             style="clip-rule:evenodd;fill-rule:evenodd;image-rendering:optimizeQuality;shape-rendering:geometricPrecision;text-rendering:geometricPrecision"
             id="g15"
             transform="matrix(0.04109544,0,0,0.04109544,106.01246,35.266852)"><path
               d="m 0,512.3 v -9.69 c 0,-96.6 52.66,-103.65 105.9,-110.77 38.84,-5.2 78.03,-10.45 91.87,-57.68 l -0.76,-0.67 c -1.92,-1.71 -4.34,-3.8 -6.72,-5.84 l -0.39,-0.36 c -17.5,-15.08 -32.05,-27.83 -34.67,-58.87 -8.87,-0.91 -16.76,-7.48 -22.31,-16.28 -4.5,-7.15 -7.51,-15.88 -8.08,-23.96 -0.22,-2.99 -0.11,-5.92 0.36,-8.7 h -6.25 c -2.32,0 -4.22,-1.9 -4.22,-4.22 v -23.77 c 0,-2.58 2.11,-4.68 4.68,-4.68 h 7.9 v -11.85 c 0,-5.29 2.16,-10.1 5.64,-13.58 1.78,-1.78 3.89,-3.21 6.25,-4.18 -1.05,-28.14 -5.31,-57.01 -29.73,-64.4 68.05,-84.1 146.49,-129.83 205.39,-55.02 56.34,2.96 85.87,74.62 67.34,127.79 1.59,2.79 2.49,5.99 2.49,9.39 v 11.85 h 7.9 c 2.57,0 4.68,2.1 4.68,4.68 v 23.77 c 0,2.32 -1.9,4.22 -4.22,4.22 h -8.36 v 4.7 c 0,3.88 -0.55,7.63 -1.57,11.18 -1.27,7.42 -4.02,14.98 -7.91,20.86 -5.31,8.03 -12.49,13.28 -20.95,12.48 -0.47,28.16 -14.15,41.08 -32.09,57.93 14.2,47.41 52.22,54.77 89.58,62 50.67,9.8 100.25,19.38 100.25,111.83 v 11.84 c 0,3.73 -3.03,6.76 -6.76,6.76 H 6.76 C 3.03,519.06 0,516.03 0,512.3 Z M 154.52,180.66 h 15.87 c 3.38,0 6.14,2.75 6.14,6.14 v 15.44 c 0,3.38 -2.76,6.13 -6.14,6.13 h -15.87 c -3.38,0 -6.14,-2.75 -6.14,-6.13 V 186.8 c 0,-3.39 2.76,-6.14 6.14,-6.14 z m -7.99,-14.82 c -5.01,0 -9.11,4.12 -9.11,9.12 v 49.22 c 0,16.77 13.72,30.51 30.5,30.51 h 50.71 c 19.06,0 28.4,-25.97 36.92,-25.97 9.51,0 17.98,25.97 37.82,25.97 h 50.71 c 16.77,0 30.5,-13.73 30.5,-30.51 v -49.22 c 0,-5.01 -4.1,-9.12 -9.12,-9.12 z m 39.51,-10.1 h 157.5 c -1.37,-6.97 -3.38,-13 -5.89,-18.25 -6.93,-14.45 -17.98,-23.2 -29.96,-29.74 -26.58,20.37 -45.3,22.68 -63.97,24.99 -15.44,1.91 -30.85,3.81 -51.27,17.94 -2.32,1.6 -4.46,3.29 -6.41,5.06 z M 340.7,264.79 h -47.33 c -16.34,0 -25.77,-11.02 -33.48,-20.03 -2.74,-3.21 -3.62,-5.93 -4.34,-5.93 -1.24,0 -0.93,2.53 -3.51,5.57 -7.71,9.07 -17.34,20.39 -33.41,20.39 h -50.14 c 1.72,27.51 14.61,38.84 30.21,52.28 l 0.41,0.33 c 2.08,1.78 4.21,3.62 6.89,6 16.57,14.74 34,22.36 51.09,22.35 16.62,-0.01 33.25,-7.27 48.74,-22.22 2.5,-2.41 4.78,-4.56 6.99,-6.63 16.22,-15.24 28.42,-26.71 27.88,-52.11 z m -121.01,24.18 h 68.32 c 6.34,-0.25 7.98,3.1 5.85,7.73 -18.27,41.2 -78.45,20.91 -79.24,-0.57 -0.1,-3.16 1.5,-6.89 5.07,-7.16 z m 24,-15.67 a 5.273,5.273 0 0 1 -1.84,-3.55 5.21,5.21 0 0 1 1.21,-3.83 5.228,5.228 0 0 1 3.6,-1.88 c 1.33,-0.12 2.74,0.27 3.83,1.21 0.78,0.67 1.68,1.14 2.58,1.49 1.01,0.39 2.03,0.62 2.81,0.62 0.78,0 1.8,-0.19 2.9,-0.58 0.89,-0.36 1.83,-0.86 2.65,-1.49 l 0.2,-0.16 c 1.09,-0.86 2.46,-1.21 3.75,-1.09 1.29,0.12 2.54,0.75 3.48,1.8 l 0.19,0.23 a 5.32,5.32 0 0 1 1.1,3.75 c -0.12,1.34 -0.78,2.62 -1.92,3.56 a 20.469,20.469 0 0 1 -5.9,3.36 c -2.23,0.82 -4.49,1.22 -6.52,1.17 -2.04,-0.03 -4.22,-0.46 -6.38,-1.25 -2.03,-0.78 -3.98,-1.87 -5.66,-3.32 z m -15.67,30.29 -3.08,-8.01 h 59.34 l -2.67,8.01 z m 84.02,33.71 c -20.7,28.54 -81.05,29.16 -103.58,6.5 -5.62,23.44 -20.22,39.63 -41.81,50.17 61.91,37.76 122.95,36.64 183.01,-7.9 -23.11,-10.49 -34.78,-27.22 -37.62,-48.77 z"
               id="path1-98" /></g><path
             d="m 95.339266,26.080475 23.140584,4.08031 a 0.43273062,1.0705622 65.489387 0 1 -0.10062,0.698891 L 92.559112,50.944163 a 0.43273062,1.0705622 65.489387 0 1 -1.401462,0.46952 L 68.017065,47.333374 a 0.43273062,1.0705622 65.489387 0 1 0.100624,-0.698893 L 93.93781,26.549993 a 0.43273062,1.0705622 65.489387 0 1 1.401456,-0.469518 z m 3.773907,18.524286 -6.412687,-1.13073 -7.10386,5.525823 6.412687,1.13073 z m 8.608237,-6.696018 -6.41269,-1.13073 -7.117636,5.536539 6.412686,1.13073 7.11994,-5.538328 z m 2.19325,-7.824965 -7.10386,5.525823 6.41269,1.130729 7.10386,-5.525822 z m -18.515015,13.16088 -6.412686,-1.13073 -7.10386,5.525823 6.412686,1.13073 z m 8.608235,-6.696018 -6.412685,-1.13073 -7.117638,5.536539 6.412686,1.13073 7.119937,-5.538328 z m 2.19326,-7.824965 -7.103863,5.525823 6.412683,1.130729 7.10386,-5.525823 z m -18.515021,13.16088 -6.412691,-1.13073 -7.10386,5.525823 6.412691,1.13073 z m 8.608236,-6.696017 -6.412691,-1.130731 -7.117639,5.536538 6.412692,1.130731 7.119939,-5.538328 z m 8.605945,-6.694236 -6.412695,-1.130731 -7.10386,5.525823 6.412692,1.130731 z"
             id="path1-74"
             style="stroke-width:0.209;stroke-dasharray:none" /><path
             d="m 83.847917,38.0586 v -2.598564 h -3.04112 c -0.509138,0.047 -0.612924,-0.355415 -0.394582,-0.689292 l 1.942557,-2.277413 -0.05581,-0.05581 h -1.039816 c -0.376958,0.05581 -0.515991,-0.35248 -0.287858,-0.63936 l 2.092362,-2.457568 h -0.610967 c -0.382833,0.0098 -0.476827,-0.341711 -0.23205,-0.673631 l 1.90633,-2.263704 c 0.130223,-0.1547 0.269254,-0.380875 0.495429,-0.375979 0.194843,0.0039 0.312336,0.188968 0.427872,0.324086 l 2.026762,2.363575 c 0.220299,0.315274 0.03231,0.64719 -0.351503,0.64719 h -0.546342 l 2.077675,2.435051 c 0.24967,0.246736 0.122385,0.641317 -0.164491,0.696149 h -1.207247 l 1.811355,2.124672 c 0.212469,0.24967 0.515994,0.774475 -0.05287,0.842033 H 85.379246 V 38.0586 Z"
             id="path1-6"
             style="stroke-width:0.097911" /><path
             d="m 108.12669,33.926254 v -2.000796 h -2.34154 c -0.39202,0.03619 -0.47194,-0.273656 -0.30382,-0.530729 l 1.4957,-1.753522 -0.043,-0.04297 h -0.80062 c -0.29024,0.04297 -0.39729,-0.271396 -0.22163,-0.492283 l 1.61103,-1.892234 h -0.47042 c -0.29476,0.0075 -0.36714,-0.263105 -0.17867,-0.518671 l 1.4678,-1.742966 c 0.10027,-0.119113 0.20732,-0.29326 0.38146,-0.28949 0.15002,0.003 0.24049,0.145498 0.32945,0.249534 l 1.56053,1.819864 c 0.16962,0.242749 0.0249,0.498311 -0.27064,0.498311 h -0.42067 l 1.59973,1.874898 c 0.19224,0.189977 0.0942,0.49379 -0.12665,0.536008 h -0.92953 l 1.39467,1.635917 c 0.1636,0.192237 0.3973,0.596317 -0.0407,0.648334 h -2.51343 v 2.000797 z"
             id="path1-6-0"
             style="stroke-width:0.0753878" /><path
             d="m 91.349712,46.804728 v -1.823564 h -2.134131 c -0.357293,0.03298 -0.430122,-0.249415 -0.2769,-0.483716 l 1.363201,-1.598193 -0.03916,-0.03917 h -0.729696 c -0.264535,0.03917 -0.3621,-0.247355 -0.202008,-0.448676 l 1.468331,-1.724618 h -0.428746 c -0.268661,0.0069 -0.33462,-0.239799 -0.162843,-0.472727 l 1.337783,-1.588572 c 0.09138,-0.108562 0.188948,-0.267283 0.347665,-0.263847 0.136737,0.0027 0.219187,0.13261 0.300268,0.22743 l 1.422296,1.658658 c 0.154597,0.221247 0.02267,0.454171 -0.246668,0.454171 H 92.9857 l 1.458029,1.708818 c 0.175208,0.173149 0.08588,0.450049 -0.115432,0.488528 h -0.847198 l 1.271137,1.491006 c 0.149096,0.175208 0.3621,0.543494 -0.03712,0.590904 h -2.290792 v 1.823564 z"
             id="path1-6-5"
             style="stroke-width:0.0687099" /></g></g></g></g><style
     type="text/css"
     id="style1">.st0{fill-rule:evenodd;clip-rule:evenodd;}</style><style
     type="text/css"
     id="style1-6">.st0{fill-rule:evenodd;clip-rule:evenodd;}</style><style
     type="text/css"
     id="style1-7">.st0{fill-rule:evenodd;clip-rule:evenodd;}</style><style
     type="text/css"
     id="style1-48">.st0{fill-rule:evenodd;clip-rule:evenodd;}</style><style
     type="text/css"
     id="style1-2">.st0{fill-rule:evenodd;clip-rule:evenodd;}</style><style
     type="text/css"
     id="style1-9">.st0{fill-rule:evenodd;clip-rule:evenodd;}</style><style
     type="text/css"
     id="style1-3">.st0{fill-rule:evenodd;clip-rule:evenodd;}</style><style
     type="text/css"
     id="style1-97">.st0{fill-rule:evenodd;clip-rule:evenodd;}</style></svg>
