<?xml version="1.0" encoding="UTF-8" standalone="no"?>
<!-- Created with Inkscape (http://www.inkscape.org/) -->

<svg
   width="170.37215mm"
   height="97.737015mm"
   viewBox="0 0 170.37215 97.737015"
   version="1.1"
   id="svg1"
   inkscape:version="1.4 (e7c3feb1, 2024-10-09)"
   sodipodi:docname="cFmkMAXA.svg"
   inkscape:export-filename="BsFf6ImE.png"
   inkscape:export-xdpi="96"
   inkscape:export-ydpi="96"
   xml:space="preserve"
   xmlns:inkscape="http://www.inkscape.org/namespaces/inkscape"
   xmlns:sodipodi="http://sodipodi.sourceforge.net/DTD/sodipodi-0.dtd"
   xmlns="http://www.w3.org/2000/svg"
   xmlns:svg="http://www.w3.org/2000/svg"><sodipodi:namedview
     id="namedview1"
     pagecolor="#ffffff"
     bordercolor="#000000"
     borderopacity="0.25"
     inkscape:showpageshadow="2"
     inkscape:pageopacity="0.0"
     inkscape:pagecheckerboard="0"
     inkscape:deskcolor="#d1d1d1"
     inkscape:document-units="mm"
     inkscape:zoom="0.92564513"
     inkscape:cx="255.49748"
     inkscape:cy="14.044259"
     inkscape:window-width="1728"
     inkscape:window-height="1387"
     inkscape:window-x="1892"
     inkscape:window-y="25"
     inkscape:window-maximized="0"
     inkscape:current-layer="layer1"
     showgrid="false" /><defs
     id="defs1" /><g
     inkscape:label="Layer 1"
     inkscape:groupmode="layer"
     id="layer1"
     transform="translate(-27.772261,-84.384949)"><rect
       style="opacity:0.816803;fill:#000000;fill-opacity:0.70649;stroke-width:0.209;stroke-linecap:round"
       id="rect1"
       width="170.37215"
       height="97.737015"
       x="27.772261"
       y="84.384949"
       ry="12.817967" /><rect
       style="opacity:0.816803;fill:#000000;fill-opacity:0.70649;stroke-width:0.190641;stroke-linecap:round"
       id="rect1-9"
       width="160.1312"
       height="86.521294"
       x="32.892738"
       y="89.992813"
       ry="11.347053" /><rect
       style="opacity:1;fill:#ffffff;fill-opacity:0.70649;stroke:#ffffff;stroke-width:0.209;stroke-linecap:round"
       id="rect2"
       width="16.460835"
       height="2.6066055"
       x="160.41052"
       y="173.2048"
       ry="1.3033028" /><rect
       style="fill:#ffffff;fill-opacity:0.70649;stroke:#ffffff;stroke-width:0.234945;stroke-linecap:round"
       id="rect2-9"
       width="29.649992"
       height="1.8286923"
       x="42.597713"
       y="168.36513"
       ry="0.91434616" /><rect
       style="fill:#000000;fill-opacity:0.70649;stroke:none;stroke-width:0.306271;stroke-linecap:round"
       id="rect2-9-3"
       width="29.649992"
       height="3.107573"
       x="42.597713"
       y="173.508"
       ry="1.5537865" /><rect
       style="fill:#000000;fill-opacity:0.70649;stroke:none;stroke-width:0.306271;stroke-linecap:round"
       id="rect2-9-3-5"
       width="29.649992"
       height="3.107573"
       x="42.597713"
       y="170.58479"
       ry="1.5537865" /><g
       id="g22"
       transform="translate(-5.1450603,-20.008568)"><text
         xml:space="preserve"
         style="font-style:normal;font-variant:normal;font-weight:normal;font-stretch:normal;font-size:11.2889px;font-family:Chalkduster;-inkscape-font-specification:'Chalkduster, Normal';font-variant-ligatures:normal;font-variant-caps:normal;font-variant-numeric:normal;font-variant-east-asian:normal;text-align:start;writing-mode:lr-tb;direction:ltr;text-anchor:start;fill:#ffffff;fill-opacity:0.70649;stroke:none;stroke-width:0.365001"
         x="124.66978"
         y="124.71217"
         id="text1"><tspan
           sodipodi:role="line"
           id="tspan21"
           x="124.66978"
           y="124.71217">O(X)</tspan></text><text
         xml:space="preserve"
         style="font-style:normal;font-variant:normal;font-weight:normal;font-stretch:normal;font-size:11.2889px;font-family:Chalkduster;-inkscape-font-specification:'Chalkduster, Normal';font-variant-ligatures:normal;font-variant-caps:normal;font-variant-numeric:normal;font-variant-east-asian:normal;text-align:start;writing-mode:lr-tb;direction:ltr;text-anchor:start;fill:#ffffff;fill-opacity:0.70649;stroke:none;stroke-width:0.365001"
         x="119.36646"
         y="143.10054"
         id="text1-7"><tspan
           sodipodi:role="line"
           id="tspan23">1 + O(X)</tspan></text><text
         xml:space="preserve"
         style="font-style:normal;font-variant:normal;font-weight:normal;font-stretch:normal;font-size:11.2889px;font-family:Chalkduster;-inkscape-font-specification:'Chalkduster, Normal';font-variant-ligatures:normal;font-variant-caps:normal;font-variant-numeric:normal;font-variant-east-asian:normal;text-align:start;writing-mode:lr-tb;direction:ltr;text-anchor:start;fill:#ffffff;fill-opacity:0.70649;stroke:none;stroke-width:0.365001"
         x="74.757271"
         y="133.41724"
         id="text1-0"><tspan
           sodipodi:role="line"
           id="tspan19"
           x="74.757271"
           y="133.41724">P(X) = </tspan></text><text
         xml:space="preserve"
         style="font-style:normal;font-variant:normal;font-weight:normal;font-stretch:normal;font-size:24.822px;font-family:Chalkduster;-inkscape-font-specification:'Chalkduster, Normal';font-variant-ligatures:normal;font-variant-caps:normal;font-variant-numeric:normal;font-variant-east-asian:normal;text-align:start;writing-mode:lr-tb;direction:ltr;text-anchor:start;fill:#ffffff;fill-opacity:0.70649;stroke:none;stroke-width:0.802563"
         x="38.286785"
         y="413.03922"
         id="text1-2"
         transform="scale(3.1060553,0.32195177)"><tspan
           sodipodi:role="line"
           id="tspan20"
           x="38.286785"
           y="413.03922"
           style="stroke-width:0.802563">-</tspan></text></g><g
       id="g25"
       transform="translate(0,-3.4300402)"><text
         xml:space="preserve"
         style="font-style:normal;font-variant:normal;font-weight:normal;font-stretch:normal;font-size:11.2889px;font-family:Chalkduster;-inkscape-font-specification:'Chalkduster, Normal';font-variant-ligatures:normal;font-variant-caps:normal;font-variant-numeric:normal;font-variant-east-asian:normal;text-align:start;writing-mode:lr-tb;direction:ltr;text-anchor:start;fill:#ffffff;fill-opacity:0.70649;stroke:none;stroke-width:0.365001"
         x="133.51114"
         y="138.64209"
         id="text1-5"><tspan
           sodipodi:role="line"
           id="tspan24"
           x="133.51114"
           y="138.64209">4</tspan></text><text
         xml:space="preserve"
         style="font-style:normal;font-variant:normal;font-weight:normal;font-stretch:normal;font-size:11.2889px;font-family:Chalkduster;-inkscape-font-specification:'Chalkduster, Normal';font-variant-ligatures:normal;font-variant-caps:normal;font-variant-numeric:normal;font-variant-east-asian:normal;text-align:start;writing-mode:lr-tb;direction:ltr;text-anchor:start;fill:#ffffff;fill-opacity:0.70649;stroke:none;stroke-width:0.365001"
         x="120.71912"
         y="156.45879"
         id="text1-7-1"><tspan
           sodipodi:role="line"
           id="tspan25"
           x="120.71912"
           y="156.45879">1 + 4</tspan></text><text
         xml:space="preserve"
         style="font-style:normal;font-variant:normal;font-weight:normal;font-stretch:normal;font-size:11.2889px;font-family:Chalkduster;-inkscape-font-specification:'Chalkduster, Normal';font-variant-ligatures:normal;font-variant-caps:normal;font-variant-numeric:normal;font-variant-east-asian:normal;text-align:start;writing-mode:lr-tb;direction:ltr;text-anchor:start;fill:#ffffff;fill-opacity:0.70649;stroke:none;stroke-width:0.365001"
         x="101.13295"
         y="146.48964"
         id="text1-0-5"><tspan
           sodipodi:role="line"
           id="tspan19-1"
           x="101.13295"
           y="146.48964">= </tspan></text><text
         xml:space="preserve"
         style="font-style:normal;font-variant:normal;font-weight:normal;font-stretch:normal;font-size:24.822px;font-family:Chalkduster;-inkscape-font-specification:'Chalkduster, Normal';font-variant-ligatures:normal;font-variant-caps:normal;font-variant-numeric:normal;font-variant-east-asian:normal;text-align:start;writing-mode:lr-tb;direction:ltr;text-anchor:start;fill:#ffffff;fill-opacity:0.70649;stroke:none;stroke-width:0.802563"
         x="37.299843"
         y="456.3063"
         id="text1-2-7"
         transform="scale(3.1060553,0.32195177)"><tspan
           sodipodi:role="line"
           id="tspan20-0"
           x="37.299843"
           y="456.3063"
           style="stroke-width:0.802563">-</tspan></text></g><text
       xml:space="preserve"
       style="font-style:normal;font-variant:normal;font-weight:normal;font-stretch:normal;font-size:11.2889px;font-family:Chalkduster;-inkscape-font-specification:'Chalkduster, Normal';font-variant-ligatures:normal;font-variant-caps:normal;font-variant-numeric:normal;font-variant-east-asian:normal;text-align:start;writing-mode:lr-tb;direction:ltr;text-anchor:start;fill:#ffffff;fill-opacity:0.70649;stroke:none;stroke-width:0.365001"
       x="101.13295"
       y="170.20985"
       id="text1-0-5-0"><tspan
         sodipodi:role="line"
         id="tspan26"
         x="101.13295"
         y="170.20985">= .80</tspan></text><g
       style="clip-rule:evenodd;fill:#ffffff;fill-rule:evenodd;image-rendering:optimizeQuality;shape-rendering:geometricPrecision;text-rendering:geometricPrecision"
       id="g11"
       transform="matrix(0.05864012,0,0,0.05864012,36.242636,140.85136)"><path
         fill-rule="nonzero"
         d="m 214.67,410.6 c -14.73,-1.18 -28.57,-6.54 -42.64,-11.99 -25.84,-10 -52.68,-20.39 -81.81,4.8 -5.1,4.41 -12.82,3.85 -17.24,-1.25 l -0.81,-1.04 C 59.95,384.79 49.02,367.59 39.6,349.92 30.06,332.02 22.07,313.67 15.84,295.26 13.64,288.75 11.68,282.32 9.96,275.99 -5.5,218.91 -3.09,163.75 18.1,117.61 39.44,71.12 79.58,34.13 139.37,13.89 c 5.45,-1.85 11.01,-3.55 16.65,-5.08 52.22,-14.14 109.49,-11.57 157.51,9.95 43.22,19.37 78.9,53.94 96.85,105.29 2.02,5.82 -0.61,12.14 -5.94,14.88 -40.41,22.46 -66.27,38.89 -82.33,53.19 l 2.36,7.35 v 0.05 c 6.51,20.34 13.65,42.65 22.23,63.66 16.25,-6.42 32,-13.62 47.07,-21.33 18.65,-9.55 36.55,-20.02 53.33,-30.86 5.1,-3.27 11.89,-1.79 15.16,3.31 0.39,0.6 0.72,1.24 0.97,1.88 l 47.89,111.61 c 2.04,4.79 0.41,10.22 -3.63,13.16 -14.42,11.8 -29.24,20 -44.13,24.67 -15.62,4.89 -31.33,5.92 -46.8,3.12 -19.86,-3.58 -36.19,-14.08 -49.89,-28.82 -20.42,6.63 -40.86,11.65 -59.62,14.43 -4.39,10.72 -11.18,20.58 -19.66,28.96 -13.84,13.67 -32.34,23.48 -52.39,26.55 a 88.224,88.224 0 0 1 -20.33,0.74 z m -5.19,-119.43 c 15.25,0 27.6,12.36 27.6,27.6 0,15.25 -12.35,27.6 -27.6,27.6 -15.24,0 -27.6,-12.35 -27.6,-27.6 0,-15.24 12.36,-27.6 27.6,-27.6 z M 430,348.27 416.62,320.39 c -7.45,3.44 -15.09,6.71 -22.83,9.77 l -4.08,1.59 c 9.07,7.9 19.23,13.36 30.71,15.43 3.17,0.57 6.37,0.94 9.58,1.09 z m -22.89,-47.69 -15.86,-33.03 c -11.63,5.61 -23.54,10.88 -35.65,15.69 5.47,11.3 11.5,21.83 18.24,30.98 3.98,-1.44 7.94,-2.94 11.88,-4.5 a 441.89,441.89 0 0 0 21.39,-9.14 z m 3.69,-42.91 15.95,33.21 c 13.14,-6.98 25.12,-14.42 35.2,-22.05 l -13.93,-32.46 a 632.569,632.569 0 0 1 -37.22,21.3 z m 25.46,53.03 16.82,35.04 c 1.25,-0.33 2.5,-0.69 3.75,-1.08 10.26,-3.21 20.57,-8.55 30.79,-16.02 l -16.78,-39.09 c -10.24,7.35 -21.96,14.47 -34.58,21.15 z M 305.33,211.54 c -10.71,18.13 -7.02,35.74 -1.3,63.05 l 0.62,2.94 2.22,-0.64 a 429.55,429.55 0 0 0 19.26,-6.13 c -7.98,-19.65 -14.68,-40.11 -20.8,-59.22 z m 3.63,87.55 c 1.01,5.45 2,11.14 2.91,17.1 0.77,5.03 0.96,10.07 0.63,15.04 12.68,-2.31 26.09,-5.64 39.67,-9.77 -6.34,-9.4 -12.02,-19.72 -17.19,-30.55 -7.23,2.5 -14.57,4.86 -22.01,7.03 z m -30.49,56.97 c -4.35,0.29 -8.67,0.52 -12.47,0.65 -3.79,0.12 -6.98,-2.82 -7.19,-6.6 -0.92,-16.66 -2.73,-33.15 -4.47,-49.06 -3.86,-35.28 -7.44,-67.91 -0.7,-95.91 4.65,-19.3 20.43,-38.98 40.59,-56.85 22.96,-20.37 51.8,-38.64 75.92,-51.17 C 353.35,71.49 330.1,52.97 303.56,41.07 260.8,21.91 209.43,19.71 162.34,32.47 157.08,33.89 152.03,35.43 147.22,37.06 94.25,55 58.89,87.32 40.32,127.77 c -18.74,40.8 -20.7,90.24 -6.7,141.9 1.61,5.95 3.42,11.87 5.4,17.74 5.86,17.31 13.3,34.44 22.13,51.02 7,13.13 14.89,25.98 23.58,38.38 35.7,-24.37 66.43,-12.48 96.12,-0.99 12.3,4.76 24.4,9.45 35.74,10.36 4.97,0.39 9.93,0.19 14.77,-0.55 14.85,-2.28 28.58,-9.58 38.88,-19.75 3.08,-3.04 5.85,-6.34 8.23,-9.82 z"
         id="path1-4"
         style="fill:#ffffff" /></g><path
       style="opacity:1;fill:#ffffff;fill-opacity:0.70649;stroke:none;stroke-width:0.365001"
       d="m 106.37735,105.8227 14.8635,5.14506"
       id="path12" /><path
       style="opacity:0.73;fill:none;fill-opacity:0.70649;stroke:#ffffff;stroke-width:0.965;stroke-dasharray:none"
       d="m 137.44855,174.09517 c 0,0 -22.62994,0.29914 -23.15278,-1.71502 -5.11539,-19.70616 16.09594,-17.76982 20.58024,-13.14849 6.79827,7.006 0.10454,11.16159 -18.00771,16.86437"
       id="path26"
       sodipodi:nodetypes="cssc" /></g></svg>
