<?xml version="1.0" encoding="UTF-8" standalone="no"?>
<svg
   width="460.8pt"
   height="345.6pt"
   viewBox="0 0 460.8 345.6"
   version="1.1"
   id="svg104"
   sodipodi:docname="dAyO98hQ_mod.svg"
   inkscape:version="1.4.2 (ebf0e940, 2025-05-08)"
   inkscape:export-filename="dAyO98hQ_mod.png"
   inkscape:export-xdpi="96"
   inkscape:export-ydpi="96"
   xmlns:inkscape="http://www.inkscape.org/namespaces/inkscape"
   xmlns:sodipodi="http://sodipodi.sourceforge.net/DTD/sodipodi-0.dtd"
   xmlns:xlink="http://www.w3.org/1999/xlink"
   xmlns="http://www.w3.org/2000/svg"
   xmlns:svg="http://www.w3.org/2000/svg"
   xmlns:rdf="http://www.w3.org/1999/02/22-rdf-syntax-ns#"
   xmlns:cc="http://creativecommons.org/ns#"
   xmlns:dc="http://purl.org/dc/elements/1.1/">
  <sodipodi:namedview
     id="namedview104"
     pagecolor="#ffffff"
     bordercolor="#000000"
     borderopacity="0.25"
     inkscape:showpageshadow="2"
     inkscape:pageopacity="0.0"
     inkscape:pagecheckerboard="0"
     inkscape:deskcolor="#d1d1d1"
     inkscape:document-units="pt"
     inkscape:zoom="1.4184425"
     inkscape:cx="267.19447"
     inkscape:cy="233.35454"
     inkscape:window-width="1728"
     inkscape:window-height="1051"
     inkscape:window-x="0"
     inkscape:window-y="38"
     inkscape:window-maximized="1"
     inkscape:current-layer="svg104" />
  <metadata
     id="metadata1">
    <rdf:RDF>
      <cc:Work>
        <dc:type
           rdf:resource="http://purl.org/dc/dcmitype/StillImage" />
        <dc:date>2025-06-24T15:57:48.079132</dc:date>
        <dc:format>image/svg+xml</dc:format>
        <dc:creator>
          <cc:Agent>
            <dc:title>Matplotlib v3.10.3, https://matplotlib.org/</dc:title>
          </cc:Agent>
        </dc:creator>
      </cc:Work>
    </rdf:RDF>
  </metadata>
  <defs
     id="defs1">
    <marker
       style="overflow:visible"
       id="Triangle"
       refX="0"
       refY="0"
       orient="auto-start-reverse"
       inkscape:stockid="Triangle arrow"
       markerWidth="1"
       markerHeight="1"
       viewBox="0 0 1 1"
       inkscape:isstock="true"
       inkscape:collect="always"
       preserveAspectRatio="xMidYMid">
      <path
         transform="scale(0.5)"
         style="fill:context-stroke;fill-rule:evenodd;stroke:context-stroke;stroke-width:1pt"
         d="M 5.77,0 -2.88,5 V -5 Z"
         id="path135" />
    </marker>
    <style
       type="text/css"
       id="style1">*{stroke-linejoin: round; stroke-linecap: butt}</style>
  </defs>
  <path
     d="M 0,345.6 H 460.8 V 0 H 0 Z"
     style="fill:#ffffff"
     id="path1" />
  <g
     id="patch_2">
    <path
       d="M 57.6,307.584 H 414.72 V 41.472 H 57.6 Z"
       style="fill:#ffffff"
       id="path2" />
  </g>
  <g
     id="FillBetweenPolyCollection_1">
    <defs
       id="defs2">
      <path
         id="m4ecde9f47e"
         d="m 73.832727,-50.112 v 0 l 6.625603,-2e-6 6.625603,-9.1e-5 6.625603,-9.17e-4 6.625604,-0.0044 6.6256,-0.01438 6.6256,-0.03668 6.62561,-0.0794 6.6256,-0.152651 6.6256,-0.268228 6.62561,-0.43916 6.6256,-0.679101 6.6256,-1.00161 6.62561,-1.4194 6.6256,-1.943492 6.6256,-2.582396 6.6256,-3.341255 6.62561,-4.221062 6.6256,-5.217904 6.6256,-6.322309 6.62561,-7.518708 6.6256,-8.785019 6.6256,-10.092405 6.62561,-11.40526 6.6256,-12.68129 6.6256,-13.87205 6.6256,-14.9235 6.62561,-15.7771 6.6256,-16.37101 6.6256,-16.64183 6.62561,-16.52657 6.6256,-15.9651 6.6256,-14.90304 6.6256,-13.29503 6.62561,-11.10856 6.6256,-8.32826 6.6256,-4.96076 6.62561,-1.04005 6.6256,3.36645 6.6256,8.15137 6.62561,13.16012 6.6256,18.18295 6.6256,22.94638 6.6256,27.10384 6.62561,30.22569 6.6256,31.78826 6.6256,31.16226 6.62561,27.600391 6.6256,20.223877 6.6256,8.008411 v 0 0 h -6.6256 -6.6256 -6.62561 -6.6256 -6.6256 -6.62561 -6.6256 -6.6256 -6.6256 -6.62561 -6.6256 -6.6256 -6.62561 -6.6256 -6.6256 -6.62561 -6.6256 -6.6256 -6.6256 -6.62561 -6.6256 -6.6256 -6.62561 -6.6256 -6.6256 -6.6256 -6.62561 -6.6256 -6.6256 -6.62561 -6.6256 -6.6256 -6.62561 -6.6256 -6.6256 -6.6256 -6.62561 -6.6256 -6.6256 -6.62561 -6.6256 -6.6256 -6.62561 -6.6256 -6.6256 -6.625604 -6.625603 -6.625603 z"
         style="stroke:#808080;stroke-opacity:0.5" />
    </defs>
    <g
       clip-path="url(#p2fbef6554d)"
       id="g2">
      <use
         xlink:href="#m4ecde9f47e"
         x="0"
         y="345.60001"
         style="fill:#808080;fill-opacity:0.5;stroke:#808080;stroke-opacity:0.5"
         id="use2" />
    </g>
  </g>
  <g
     id="matplotlib.axis_1">
    <g
       id="xtick_1">
      <g
         id="line2d_1">
        <defs
           id="defs3">
          <path
             id="m46b9532f78"
             d="M 0,0 V 3.5"
             style="stroke:#000000;stroke-width:0.8" />
        </defs>
        <g
           id="g3">
          <use
             xlink:href="#m46b9532f78"
             x="73.832726"
             y="307.58401"
             style="stroke:#000000;stroke-width:0.8"
             id="use3" />
        </g>
      </g>
      <g
         id="text_1">
        <!-- 0.0 -->
        <g
           transform="matrix(0.1,0,0,-0.1,65.881165,322.18244)"
           id="g6">
          <defs
             id="defs4">
            <path
               id="DejaVuSans-30"
               d="m 2034,4250 q -487,0 -733,-480 -245,-479 -245,-1442 0,-959 245,-1439 246,-480 733,-480 491,0 736,480 246,480 246,1439 0,963 -246,1442 -245,480 -736,480 z m 0,500 q 785,0 1199,-621 414,-620 414,-1801 0,-1178 -414,-1799 -414,-620 -1199,-620 -784,0 -1198,620 -414,621 -414,1799 0,1181 414,1801 414,621 1198,621 z"
               transform="scale(0.015625)" />
            <path
               id="DejaVuSans-2e"
               d="m 684,794 h 660 V 0 H 684 Z"
               transform="scale(0.015625)" />
          </defs>
          <use
             xlink:href="#DejaVuSans-30"
             id="use4" />
          <use
             xlink:href="#DejaVuSans-2e"
             transform="translate(63.623047)"
             id="use5" />
          <use
             xlink:href="#DejaVuSans-30"
             transform="translate(95.410156)"
             id="use6" />
        </g>
      </g>
    </g>
    <g
       id="xtick_2">
      <g
         id="line2d_2">
        <g
           id="g7">
          <use
             xlink:href="#m46b9532f78"
             x="138.76364"
             y="307.58401"
             style="stroke:#000000;stroke-width:0.8"
             id="use7" />
        </g>
      </g>
      <g
         id="text_2">
        <!-- 0.2 -->
        <g
           transform="matrix(0.1,0,0,-0.1,130.81207,322.18244)"
           id="g10">
          <defs
             id="defs7">
            <path
               id="DejaVuSans-32"
               d="M 1228,531 H 3431 V 0 H 469 v 531 q 359,372 979,998 621,627 780,809 303,340 423,576 121,236 121,464 0,372 -261,606 -261,235 -680,235 -297,0 -627,-103 -329,-103 -704,-313 v 638 q 381,153 712,231 332,78 607,78 725,0 1156,-363 431,-362 431,-968 0,-288 -108,-546 -107,-257 -392,-607 -78,-91 -497,-524 Q 1991,1309 1228,531 Z"
               transform="scale(0.015625)" />
          </defs>
          <use
             xlink:href="#DejaVuSans-30"
             id="use8" />
          <use
             xlink:href="#DejaVuSans-2e"
             transform="translate(63.623047)"
             id="use9" />
          <use
             xlink:href="#DejaVuSans-32"
             transform="translate(95.410156)"
             id="use10" />
        </g>
      </g>
    </g>
    <g
       id="xtick_3">
      <g
         id="line2d_3">
        <g
           id="g11">
          <use
             xlink:href="#m46b9532f78"
             x="203.69455"
             y="307.58401"
             style="stroke:#000000;stroke-width:0.8"
             id="use11" />
        </g>
      </g>
      <g
         id="text_3">
        <!-- 0.4 -->
        <g
           transform="matrix(0.1,0,0,-0.1,195.74298,322.18244)"
           id="g14">
          <defs
             id="defs11">
            <path
               id="DejaVuSans-34"
               d="M 2419,4116 825,1625 h 1594 z m -166,550 h 794 V 1625 h 666 V 1100 H 3047 V 0 H 2419 V 1100 H 313 v 609 z"
               transform="scale(0.015625)" />
          </defs>
          <use
             xlink:href="#DejaVuSans-30"
             id="use12" />
          <use
             xlink:href="#DejaVuSans-2e"
             transform="translate(63.623047)"
             id="use13" />
          <use
             xlink:href="#DejaVuSans-34"
             transform="translate(95.410156)"
             id="use14" />
        </g>
      </g>
    </g>
    <g
       id="xtick_4">
      <g
         id="line2d_4">
        <g
           id="g15">
          <use
             xlink:href="#m46b9532f78"
             x="268.62546"
             y="307.58401"
             style="stroke:#000000;stroke-width:0.8"
             id="use15" />
        </g>
      </g>
      <g
         id="text_4">
        <!-- 0.6 -->
        <g
           transform="matrix(0.1,0,0,-0.1,260.67389,322.18244)"
           id="g18">
          <defs
             id="defs15">
            <path
               id="DejaVuSans-36"
               d="m 2113,2584 q -425,0 -674,-291 -248,-290 -248,-796 0,-503 248,-796 249,-292 674,-292 425,0 673,292 248,293 248,796 0,506 -248,796 -248,291 -673,291 z m 1253,1979 v -575 q -238,112 -480,171 -242,60 -480,60 -625,0 -955,-422 -329,-422 -376,-1275 184,272 462,417 279,145 613,145 703,0 1111,-427 408,-426 408,-1160 0,-719 -425,-1154 -425,-434 -1131,-434 -810,0 -1238,620 -428,621 -428,1799 0,1106 525,1764 525,658 1409,658 238,0 480,-47 242,-47 505,-140 z"
               transform="scale(0.015625)" />
          </defs>
          <use
             xlink:href="#DejaVuSans-30"
             id="use16" />
          <use
             xlink:href="#DejaVuSans-2e"
             transform="translate(63.623047)"
             id="use17" />
          <use
             xlink:href="#DejaVuSans-36"
             transform="translate(95.410156)"
             id="use18" />
        </g>
      </g>
    </g>
    <g
       id="xtick_5">
      <g
         id="line2d_5">
        <g
           id="g19">
          <use
             xlink:href="#m46b9532f78"
             x="333.55637"
             y="307.58401"
             style="stroke:#000000;stroke-width:0.8"
             id="use19" />
        </g>
      </g>
      <g
         id="text_5">
        <!-- 0.8 -->
        <g
           transform="matrix(0.1,0,0,-0.1,325.6048,322.18244)"
           id="g22">
          <defs
             id="defs19">
            <path
               id="DejaVuSans-38"
               d="m 2034,2216 q -450,0 -708,-241 -257,-241 -257,-662 0,-422 257,-663 258,-241 708,-241 450,0 709,242 260,243 260,662 0,421 -258,662 -257,241 -711,241 z m -631,268 q -406,100 -633,378 -226,279 -226,679 0,559 398,884 399,325 1092,325 697,0 1094,-325 397,-325 397,-884 0,-400 -227,-679 -226,-278 -629,-378 456,-106 710,-416 255,-309 255,-755 Q 3634,634 3220,271 2806,-91 2034,-91 1263,-91 848,271 434,634 434,1313 q 0,446 256,755 257,310 713,416 z m -231,997 q 0,-362 226,-565 227,-203 636,-203 407,0 636,203 230,203 230,565 0,363 -230,566 -229,203 -636,203 -409,0 -636,-203 -226,-203 -226,-566 z"
               transform="scale(0.015625)" />
          </defs>
          <use
             xlink:href="#DejaVuSans-30"
             id="use20" />
          <use
             xlink:href="#DejaVuSans-2e"
             transform="translate(63.623047)"
             id="use21" />
          <use
             xlink:href="#DejaVuSans-38"
             transform="translate(95.410156)"
             id="use22" />
        </g>
      </g>
    </g>
    <g
       id="xtick_6">
      <g
         id="line2d_6">
        <g
           id="g23">
          <use
             xlink:href="#m46b9532f78"
             x="398.48727"
             y="307.58401"
             style="stroke:#000000;stroke-width:0.8"
             id="use23" />
        </g>
      </g>
      <g
         id="text_6">
        <!-- 1.0 -->
        <g
           transform="matrix(0.1,0,0,-0.1,390.53571,322.18244)"
           id="g26">
          <defs
             id="defs23">
            <path
               id="DejaVuSans-31"
               d="M 794,531 H 1825 V 4091 L 703,3866 v 575 l 1116,225 h 631 V 531 H 3481 V 0 H 794 Z"
               transform="scale(0.015625)" />
          </defs>
          <use
             xlink:href="#DejaVuSans-31"
             id="use24" />
          <use
             xlink:href="#DejaVuSans-2e"
             transform="translate(63.623047)"
             id="use25" />
          <use
             xlink:href="#DejaVuSans-30"
             transform="translate(95.410156)"
             id="use26" />
        </g>
      </g>
    </g>
    <g
       id="text_7">
      <!-- Success Rate -->
      <g
         transform="matrix(0.1,0,0,-0.1,202.98109,335.86056)"
         id="g38">
        <defs
           id="defs26">
          <path
             id="DejaVuSans-53"
             d="m 3425,4513 v -616 q -359,172 -678,256 -319,85 -616,85 -515,0 -795,-200 -280,-200 -280,-569 0,-310 186,-468 186,-157 705,-254 l 381,-78 q 706,-135 1042,-474 336,-339 336,-907 0,-679 -455,-1029 -454,-350 -1332,-350 -331,0 -705,75 -373,75 -773,222 v 650 q 384,-215 753,-325 369,-109 725,-109 540,0 834,212 294,213 294,607 0,343 -211,537 -211,194 -692,291 l -385,75 q -706,140 -1022,440 -315,300 -315,835 0,619 436,975 436,356 1201,356 329,0 669,-60 341,-59 697,-177 z"
             transform="scale(0.015625)" />
          <path
             id="DejaVuSans-75"
             d="m 544,1381 v 2119 h 575 V 1403 q 0,-497 193,-746 194,-248 582,-248 465,0 735,297 271,297 271,810 v 1984 h 575 V 0 H 2900 V 538 Q 2691,219 2414,64 2138,-91 1772,-91 1169,-91 856,284 544,659 544,1381 Z m 1447,2203 z"
             transform="scale(0.015625)" />
          <path
             id="DejaVuSans-63"
             d="m 3122,3366 v -538 q -244,135 -489,202 -245,67 -495,67 -560,0 -870,-355 -309,-354 -309,-995 0,-641 309,-996 310,-354 870,-354 250,0 495,67 245,67 489,202 V 134 Q 2881,22 2623,-34 2366,-91 2075,-91 1284,-91 818,406 353,903 353,1747 q 0,856 470,1346 471,491 1290,491 265,0 518,-55 253,-54 491,-163 z"
             transform="scale(0.015625)" />
          <path
             id="DejaVuSans-65"
             d="M 3597,1894 V 1613 H 953 q 38,-594 358,-905 320,-311 892,-311 331,0 642,81 311,81 618,244 V 178 Q 3153,47 2828,-22 2503,-91 2169,-91 1331,-91 842,396 353,884 353,1716 q 0,859 464,1363 464,505 1252,505 706,0 1117,-455 411,-454 411,-1235 z m -575,169 q -6,471 -264,752 -258,282 -683,282 -481,0 -770,-272 -289,-272 -333,-766 z"
             transform="scale(0.015625)" />
          <path
             id="DejaVuSans-73"
             d="m 2834,3397 v -544 q -243,125 -506,187 -262,63 -544,63 -428,0 -642,-131 -214,-131 -214,-394 0,-200 153,-314 153,-114 616,-217 l 197,-44 q 612,-131 870,-370 258,-239 258,-667 0,-488 -386,-773 Q 2250,-91 1575,-91 1294,-91 989,-36 684,19 347,128 v 594 q 319,-166 628,-249 309,-82 613,-82 406,0 624,139 219,139 219,392 0,234 -158,359 -157,125 -692,241 l -200,47 q -534,112 -772,345 -237,233 -237,639 0,494 350,762 350,269 994,269 318,0 599,-47 282,-46 519,-140 z"
             transform="scale(0.015625)" />
          <path
             id="DejaVuSans-20"
             transform="scale(0.015625)"
             d="" />
          <path
             id="DejaVuSans-52"
             d="m 2841,2188 q 203,-69 395,-294 192,-225 386,-619 L 4263,0 h -679 l -596,1197 q -232,469 -449,622 -217,153 -592,153 H 1259 V 0 H 628 v 4666 h 1425 q 800,0 1194,-335 394,-334 394,-1009 0,-441 -205,-732 -205,-290 -595,-402 z M 1259,4147 V 2491 h 794 q 456,0 689,211 233,211 233,620 0,409 -233,617 -233,208 -689,208 z"
             transform="scale(0.015625)" />
          <path
             id="DejaVuSans-61"
             d="m 2194,1759 q -697,0 -966,-159 -269,-159 -269,-544 0,-306 202,-486 202,-179 548,-179 479,0 768,339 289,339 289,901 v 128 z m 1147,238 V 0 H 2766 V 531 Q 2569,213 2275,61 1981,-91 1556,-91 q -537,0 -855,302 -317,302 -317,808 0,590 395,890 396,300 1180,300 h 807 v 57 q 0,397 -261,614 -261,217 -733,217 -300,0 -585,-72 -284,-72 -546,-216 v 532 q 315,122 612,182 297,61 578,61 760,0 1135,-394 375,-393 375,-1193 z"
             transform="scale(0.015625)" />
          <path
             id="DejaVuSans-74"
             d="M 1172,4494 V 3500 H 2356 V 3053 H 1172 V 1153 q 0,-428 117,-550 117,-122 477,-122 h 590 V 0 H 1766 Q 1100,0 847,248 594,497 594,1153 V 3053 H 172 v 447 h 422 v 994 z"
             transform="scale(0.015625)" />
        </defs>
        <use
           xlink:href="#DejaVuSans-53"
           id="use27" />
        <use
           xlink:href="#DejaVuSans-75"
           transform="translate(63.476562)"
           id="use28" />
        <use
           xlink:href="#DejaVuSans-63"
           transform="translate(126.85547)"
           id="use29" />
        <use
           xlink:href="#DejaVuSans-63"
           transform="translate(181.83594)"
           id="use30" />
        <use
           xlink:href="#DejaVuSans-65"
           transform="translate(236.81641)"
           id="use31" />
        <use
           xlink:href="#DejaVuSans-73"
           transform="translate(298.33984)"
           id="use32" />
        <use
           xlink:href="#DejaVuSans-73"
           transform="translate(350.43945)"
           id="use33" />
        <use
           xlink:href="#DejaVuSans-20"
           transform="translate(402.53906)"
           id="use34" />
        <use
           xlink:href="#DejaVuSans-52"
           transform="translate(434.32617)"
           id="use35" />
        <use
           xlink:href="#DejaVuSans-61"
           transform="translate(501.55859)"
           id="use36" />
        <use
           xlink:href="#DejaVuSans-74"
           transform="translate(562.83789)"
           id="use37" />
        <use
           xlink:href="#DejaVuSans-65"
           transform="translate(602.04687)"
           id="use38" />
      </g>
    </g>
  </g>
  <g
     id="matplotlib.axis_2">
    <g
       id="ytick_1">
      <g
         id="line2d_7">
        <defs
           id="defs38">
          <path
             id="mb058baf339"
             d="M 0,0 H -3.5"
             style="stroke:#000000;stroke-width:0.8" />
        </defs>
        <g
           id="g39">
          <use
             xlink:href="#mb058baf339"
             x="57.599998"
             y="295.48801"
             style="stroke:#000000;stroke-width:0.8"
             id="use39" />
        </g>
      </g>
      <g
         id="text_8">
        <!-- 0.0 -->
        <g
           transform="matrix(0.1,0,0,-0.1,34.696875,299.28722)"
           id="g42">
          <use
             xlink:href="#DejaVuSans-30"
             id="use40" />
          <use
             xlink:href="#DejaVuSans-2e"
             transform="translate(63.623047)"
             id="use41" />
          <use
             xlink:href="#DejaVuSans-30"
             transform="translate(95.410156)"
             id="use42" />
        </g>
      </g>
    </g>
    <g
       id="ytick_2">
      <g
         id="line2d_8">
        <g
           id="g43">
          <use
             xlink:href="#mb058baf339"
             x="57.599998"
             y="252.31253"
             style="stroke:#000000;stroke-width:0.8"
             id="use43" />
        </g>
      </g>
      <g
         id="text_9">
        <!-- 0.5 -->
        <g
           transform="matrix(0.1,0,0,-0.1,34.696875,256.11175)"
           id="g46">
          <defs
             id="defs43">
            <path
               id="DejaVuSans-35"
               d="M 691,4666 H 3169 V 4134 H 1269 V 2991 q 137,47 274,70 138,23 276,23 781,0 1237,-428 457,-428 457,-1159 Q 3513,744 3044,326 2575,-91 1722,-91 1428,-91 1123,-41 819,9 494,109 v 635 q 281,-153 581,-228 300,-75 634,-75 541,0 856,284 316,284 316,772 0,487 -316,771 -315,285 -856,285 -253,0 -505,-56 -251,-56 -513,-175 z"
               transform="scale(0.015625)" />
          </defs>
          <use
             xlink:href="#DejaVuSans-30"
             id="use44" />
          <use
             xlink:href="#DejaVuSans-2e"
             transform="translate(63.623047)"
             id="use45" />
          <use
             xlink:href="#DejaVuSans-35"
             transform="translate(95.410156)"
             id="use46" />
        </g>
      </g>
    </g>
    <g
       id="ytick_3">
      <g
         id="line2d_9">
        <g
           id="g47">
          <use
             xlink:href="#mb058baf339"
             x="57.599998"
             y="209.13707"
             style="stroke:#000000;stroke-width:0.8"
             id="use47" />
        </g>
      </g>
      <g
         id="text_10">
        <!-- 1.0 -->
        <g
           transform="matrix(0.1,0,0,-0.1,34.696875,212.93628)"
           id="g50">
          <use
             xlink:href="#DejaVuSans-31"
             id="use48" />
          <use
             xlink:href="#DejaVuSans-2e"
             transform="translate(63.623047)"
             id="use49" />
          <use
             xlink:href="#DejaVuSans-30"
             transform="translate(95.410156)"
             id="use50" />
        </g>
      </g>
    </g>
    <g
       id="ytick_4">
      <g
         id="line2d_10">
        <g
           id="g51">
          <use
             xlink:href="#mb058baf339"
             x="57.599998"
             y="165.96159"
             style="stroke:#000000;stroke-width:0.8"
             id="use51" />
        </g>
      </g>
      <g
         id="text_11">
        <!-- 1.5 -->
        <g
           transform="matrix(0.1,0,0,-0.1,34.696875,169.76082)"
           id="g54">
          <use
             xlink:href="#DejaVuSans-31"
             id="use52" />
          <use
             xlink:href="#DejaVuSans-2e"
             transform="translate(63.623047)"
             id="use53" />
          <use
             xlink:href="#DejaVuSans-35"
             transform="translate(95.410156)"
             id="use54" />
        </g>
      </g>
    </g>
    <g
       id="ytick_5">
      <g
         id="line2d_11">
        <g
           id="g55">
          <use
             xlink:href="#mb058baf339"
             x="57.599998"
             y="122.78613"
             style="stroke:#000000;stroke-width:0.8"
             id="use55" />
        </g>
      </g>
      <g
         id="text_12">
        <!-- 2.0 -->
        <g
           transform="matrix(0.1,0,0,-0.1,34.696875,126.58535)"
           id="g58">
          <use
             xlink:href="#DejaVuSans-32"
             id="use56" />
          <use
             xlink:href="#DejaVuSans-2e"
             transform="translate(63.623047)"
             id="use57" />
          <use
             xlink:href="#DejaVuSans-30"
             transform="translate(95.410156)"
             id="use58" />
        </g>
      </g>
    </g>
    <g
       id="ytick_6">
      <g
         id="line2d_12">
        <g
           id="g59">
          <use
             xlink:href="#mb058baf339"
             x="57.599998"
             y="79.610664"
             style="stroke:#000000;stroke-width:0.8"
             id="use59" />
        </g>
      </g>
      <g
         id="text_13">
        <!-- 2.5 -->
        <g
           transform="matrix(0.1,0,0,-0.1,34.696875,83.409885)"
           id="g62">
          <use
             xlink:href="#DejaVuSans-32"
             id="use60" />
          <use
             xlink:href="#DejaVuSans-2e"
             transform="translate(63.623047)"
             id="use61" />
          <use
             xlink:href="#DejaVuSans-35"
             transform="translate(95.410156)"
             id="use62" />
        </g>
      </g>
    </g>
    <g
       id="text_14">
      <!-- Probability of that Success Rate -->
      <g
         transform="matrix(0,-0.1,-0.1,0,28.617187,253.87566)"
         id="g94">
        <defs
           id="defs62">
          <path
             id="DejaVuSans-50"
             d="M 1259,4147 V 2394 h 794 q 441,0 681,228 241,228 241,650 0,419 -241,647 -240,228 -681,228 z m -631,519 h 1425 q 785,0 1186,-355 402,-355 402,-1039 0,-691 -402,-1044 -401,-353 -1186,-353 H 1259 V 0 H 628 Z"
             transform="scale(0.015625)" />
          <path
             id="DejaVuSans-72"
             d="m 2631,2963 q -97,56 -211,82 -114,27 -251,27 -488,0 -749,-317 -261,-317 -261,-911 V 0 H 581 v 3500 h 578 v -544 q 182,319 472,473 291,155 707,155 59,0 131,-8 72,-7 159,-23 z"
             transform="scale(0.015625)" />
          <path
             id="DejaVuSans-6f"
             d="m 1959,3097 q -462,0 -731,-361 -269,-361 -269,-989 0,-628 267,-989 268,-361 733,-361 460,0 728,362 269,363 269,988 0,622 -269,986 -268,364 -728,364 z m 0,487 q 750,0 1178,-488 429,-487 429,-1349 Q 3566,888 3137,398 2709,-91 1959,-91 1206,-91 779,398 353,888 353,1747 q 0,862 426,1349 427,488 1180,488 z"
             transform="scale(0.015625)" />
          <path
             id="DejaVuSans-62"
             d="m 3116,1747 q 0,634 -261,995 -261,361 -717,361 -457,0 -718,-361 -261,-361 -261,-995 0,-634 261,-995 261,-361 718,-361 456,0 717,361 261,361 261,995 z M 1159,2969 q 182,312 458,463 277,152 661,152 638,0 1036,-506 399,-506 399,-1331 Q 3713,922 3314,415 2916,-91 2278,-91 1894,-91 1617,61 1341,213 1159,525 V 0 H 581 v 4863 h 578 z"
             transform="scale(0.015625)" />
          <path
             id="DejaVuSans-69"
             d="m 603,3500 h 575 V 0 H 603 Z m 0,1363 h 575 V 4134 H 603 Z"
             transform="scale(0.015625)" />
          <path
             id="DejaVuSans-6c"
             d="m 603,4863 h 575 V 0 H 603 Z"
             transform="scale(0.015625)" />
          <path
             id="DejaVuSans-79"
             d="m 2059,-325 q -243,-625 -475,-815 -231,-191 -618,-191 H 506 v 481 h 338 q 237,0 368,113 132,112 291,531 L 1606,56 191,3500 H 800 L 1894,763 2988,3500 h 609 z"
             transform="scale(0.015625)" />
          <path
             id="DejaVuSans-66"
             d="m 2375,4863 v -479 h -550 q -309,0 -430,-125 -120,-125 -120,-450 v -309 h 947 V 3053 H 1275 V 0 H 697 V 3053 H 147 v 447 h 550 v 244 q 0,584 272,851 272,268 862,268 z"
             transform="scale(0.015625)" />
          <path
             id="DejaVuSans-68"
             d="M 3513,2113 V 0 h -575 v 2094 q 0,497 -194,743 -194,247 -581,247 -466,0 -735,-297 -269,-296 -269,-809 V 0 H 581 v 4863 h 578 V 2956 q 207,316 486,472 280,156 646,156 603,0 912,-373 310,-373 310,-1098 z"
             transform="scale(0.015625)" />
        </defs>
        <use
           xlink:href="#DejaVuSans-50"
           id="use63" />
        <use
           xlink:href="#DejaVuSans-72"
           transform="translate(58.552734)"
           id="use64" />
        <use
           xlink:href="#DejaVuSans-6f"
           transform="translate(97.416016)"
           id="use65" />
        <use
           xlink:href="#DejaVuSans-62"
           transform="translate(158.59766)"
           id="use66" />
        <use
           xlink:href="#DejaVuSans-61"
           transform="translate(222.07422)"
           id="use67" />
        <use
           xlink:href="#DejaVuSans-62"
           transform="translate(283.35352)"
           id="use68" />
        <use
           xlink:href="#DejaVuSans-69"
           transform="translate(346.83008)"
           id="use69" />
        <use
           xlink:href="#DejaVuSans-6c"
           transform="translate(374.61328)"
           id="use70" />
        <use
           xlink:href="#DejaVuSans-69"
           transform="translate(402.39648)"
           id="use71" />
        <use
           xlink:href="#DejaVuSans-74"
           transform="translate(430.17969)"
           id="use72" />
        <use
           xlink:href="#DejaVuSans-79"
           transform="translate(469.38867)"
           id="use73" />
        <use
           xlink:href="#DejaVuSans-20"
           transform="translate(528.56836)"
           id="use74" />
        <use
           xlink:href="#DejaVuSans-6f"
           transform="translate(560.35547)"
           id="use75" />
        <use
           xlink:href="#DejaVuSans-66"
           transform="translate(621.53711)"
           id="use76" />
        <use
           xlink:href="#DejaVuSans-20"
           transform="translate(656.74219)"
           id="use77" />
        <use
           xlink:href="#DejaVuSans-74"
           transform="translate(688.5293)"
           id="use78" />
        <use
           xlink:href="#DejaVuSans-68"
           transform="translate(727.73828)"
           id="use79" />
        <use
           xlink:href="#DejaVuSans-61"
           transform="translate(791.11719)"
           id="use80" />
        <use
           xlink:href="#DejaVuSans-74"
           transform="translate(852.39648)"
           id="use81" />
        <use
           xlink:href="#DejaVuSans-20"
           transform="translate(891.60547)"
           id="use82" />
        <use
           xlink:href="#DejaVuSans-53"
           transform="translate(923.39258)"
           id="use83" />
        <use
           xlink:href="#DejaVuSans-75"
           transform="translate(986.86914)"
           id="use84" />
        <use
           xlink:href="#DejaVuSans-63"
           transform="translate(1050.248)"
           id="use85" />
        <use
           xlink:href="#DejaVuSans-63"
           transform="translate(1105.2285)"
           id="use86" />
        <use
           xlink:href="#DejaVuSans-65"
           transform="translate(1160.209)"
           id="use87" />
        <use
           xlink:href="#DejaVuSans-73"
           transform="translate(1221.7324)"
           id="use88" />
        <use
           xlink:href="#DejaVuSans-73"
           transform="translate(1273.832)"
           id="use89" />
        <use
           xlink:href="#DejaVuSans-20"
           transform="translate(1325.9316)"
           id="use90" />
        <use
           xlink:href="#DejaVuSans-52"
           transform="translate(1357.7188)"
           id="use91" />
        <use
           xlink:href="#DejaVuSans-61"
           transform="translate(1424.9512)"
           id="use92" />
        <use
           xlink:href="#DejaVuSans-74"
           transform="translate(1486.2305)"
           id="use93" />
        <use
           xlink:href="#DejaVuSans-65"
           transform="translate(1525.4395)"
           id="use94" />
      </g>
    </g>
  </g>
  <g
     id="line2d_13">
    <path
       d="m 73.832727,295.488 h 6.625603 l 6.625603,-9e-5 6.625603,-9.2e-4 6.625604,-0.004 6.6256,-0.0144 6.6256,-0.0367 6.62561,-0.0794 6.6256,-0.15265 6.6256,-0.26823 6.62561,-0.43916 6.6256,-0.6791 6.6256,-1.00161 6.62561,-1.4194 6.6256,-1.94349 6.6256,-2.5824 6.6256,-3.34125 6.62561,-4.22106 6.6256,-5.21791 6.6256,-6.32231 6.62561,-7.5187 6.6256,-8.78502 6.6256,-10.09241 6.62561,-11.40526 6.6256,-12.68129 6.6256,-13.87205 6.6256,-14.9235 6.62561,-15.7771 6.6256,-16.37101 6.6256,-16.64183 6.62561,-16.52657 6.6256,-15.9651 6.6256,-14.903042 6.6256,-13.295032 6.62561,-11.10856 6.6256,-8.328259 6.6256,-4.960754 6.62561,-1.040053 6.6256,3.366448 6.6256,8.151374 6.62561,13.160122 6.6256,18.182949 6.6256,22.946377 6.6256,27.10384 6.62561,30.22569 6.6256,31.78826 6.6256,31.16226 6.62561,27.60039 6.6256,20.22388 6.6256,8.00841"
       clip-path="url(#p2fbef6554d)"
       style="fill:none;stroke:#1f77b4;stroke-width:1.5;stroke-linecap:square"
       id="path94" />
  </g>
  <g
     id="patch_3">
    <path
       d="M 57.6,307.584 V 41.472"
       style="fill:none;stroke:#000000;stroke-width:0.8;stroke-linecap:square;stroke-linejoin:miter"
       id="path95" />
  </g>
  <g
     id="patch_4">
    <path
       d="M 414.72,307.584 V 41.472"
       style="fill:none;stroke:#000000;stroke-width:0.8;stroke-linecap:square;stroke-linejoin:miter"
       id="path96" />
  </g>
  <g
     id="patch_5">
    <path
       d="M 57.6,307.584 H 414.72"
       style="fill:none;stroke:#000000;stroke-width:0.8;stroke-linecap:square;stroke-linejoin:miter"
       id="path97" />
  </g>
  <g
     id="patch_6">
    <path
       d="M 57.6,41.472 H 414.72"
       style="fill:none;stroke:#000000;stroke-width:0.8;stroke-linecap:square;stroke-linejoin:miter"
       id="path98" />
  </g>
  <defs
     id="defs104">
    <clipPath
       id="p2fbef6554d">
      <rect
         x="57.6"
         y="41.472"
         width="357.12"
         height="266.112"
         id="rect104" />
    </clipPath>
  </defs>
  <path
     style="fill:none;stroke:#000000;stroke-width:2.45;stroke-linejoin:round;-inkscape-stroke:none;marker-end:url(#Triangle)"
     d="m 210.97083,114.73853 c 0,0 61.70595,-20.107652 78.76071,18.87497 l 20.80363,47.55156"
     id="path104"
     sodipodi:nodetypes="csc" />
  <text
     xml:space="preserve"
     style="font-size:16.7282px;font-family:sans-serif;-inkscape-font-specification:'sans-serif, Normal';text-align:start;writing-mode:lr-tb;direction:ltr;text-anchor:start;fill:#000000;stroke:none;stroke-width:1.47469;stroke-linejoin:round;-inkscape-stroke:none"
     x="79.84108"
     y="115.32166"
     id="text104"><tspan
       sodipodi:role="line"
       id="tspan104"
       style="fill:#000000;stroke:none;stroke-width:1.47469"
       x="79.84108"
       y="115.32166">The area is 1.0 </tspan><tspan
       sodipodi:role="line"
       style="fill:#000000;stroke:none;stroke-width:1.47469"
       x="79.84108"
       y="136.2319"
       id="tspan105">under this whole</tspan><tspan
       sodipodi:role="line"
       style="fill:#000000;stroke:none;stroke-width:1.47469"
       x="79.84108"
       y="157.14215"
       id="tspan106">curve</tspan></text>
</svg>
