<?xml version="1.0" encoding="UTF-8" standalone="no"?>
<!-- Created with Inkscape (http://www.inkscape.org/) -->

<svg
   width="39.6875mm"
   height="28.466972mm"
   viewBox="0 0 41.756641 28.466972"
   version="1.1"
   id="svg1"
   xml:space="preserve"
   sodipodi:docname="oFlzki1j.svg"
   inkscape:export-filename="oFlzki1j.png"
   inkscape:export-xdpi="160"
   inkscape:export-ydpi="160"
   inkscape:version="1.4 (e7c3feb1, 2024-10-09)"
   xmlns:inkscape="http://www.inkscape.org/namespaces/inkscape"
   xmlns:sodipodi="http://sodipodi.sourceforge.net/DTD/sodipodi-0.dtd"
   xmlns="http://www.w3.org/2000/svg"
   xmlns:svg="http://www.w3.org/2000/svg"><sodipodi:namedview
     id="namedview1"
     pagecolor="#ffffff"
     bordercolor="#000000"
     borderopacity="0.25"
     inkscape:showpageshadow="2"
     inkscape:pageopacity="0.0"
     inkscape:pagecheckerboard="0"
     inkscape:deskcolor="#d1d1d1"
     inkscape:document-units="mm"
     inkscape:zoom="6.9266667"
     inkscape:cx="75.072185"
     inkscape:cy="53.849856"
     inkscape:window-width="1192"
     inkscape:window-height="891"
     inkscape:window-x="2284"
     inkscape:window-y="386"
     inkscape:window-maximized="0"
     inkscape:current-layer="svg1" /><defs
     id="defs1"><style
       id="style1">.cls-1{fill-rule:evenodd;}</style></defs><g
     id="layer1"
     transform="translate(-58.26785,-97.285501)"><path
       class="cls-1"
       d="m 89.826189,97.285501 h 0.567759 v 0.18987 c 1.420773,0.32469 1.583123,1.00893 0.759458,2.08208 0.08714,-1.06673 -0.02018,-1.29511 -0.759458,-1.34464 v 2.696629 a 0.33203359,0.33203359 0 0 1 0,0.0431 c 0,0.35038 -0.366887,0.69801 -0.820911,0.77689 -0.454024,0.0789 -0.819995,-0.14217 -0.819995,-0.49347 0,-0.47787 0.65673,-0.89337 1.073147,-0.74661 z m 8.374212,0 h 0.56776 v 0.18987 c 1.419859,0.32469 1.582209,1.00893 0.75854,2.08208 0.0917,-1.06673 -0.0202,-1.29511 -0.75854,-1.34464 v 2.696629 c 0,0.0138 0,0.0284 0,0.0431 0,0.35038 -0.36688,0.69801 -0.8255,0.77689 -0.45861,0.0789 -0.825493,-0.14217 -0.825493,-0.49347 0,-0.47787 0.656733,-0.89337 1.073153,-0.74661 v -3.203849 z m -2.980042,6.295799 a 1.0327895,1.0327895 0 0 1 0.412747,0.007 v -2.8975 l -3.066262,0.87961 q 0,1.71153 0,3.42123 c 0,0.53383 -0.588857,0.92273 -1.061225,1.00894 -0.586103,0.1009 -1.062141,-0.18344 -1.062141,-0.64205 0,-0.45861 0.478789,-0.90255 1.061224,-1.00344 a 1.1923858,1.1923858 0 0 1 0.595276,0.0385 v -4.14217 l 3.993573,-0.908969 v 4.666819 c 0.04403,0.4953 -0.458611,0.87044 -0.876864,0.9429 -0.489793,0.0844 -0.886032,-0.15409 -0.886032,-0.5329 0,-0.37882 0.396239,-0.75396 0.886032,-0.83834 z"
       id="path1"
       style="stroke-width:0.0917219" /><path
       d="m 58.26785,121.5455 c 1.881188,-0.72496 3.466042,-0.25136 5.667375,0.4101 0.574146,0.17198 1.198563,0.35983 1.762125,0.508 0.502708,0.13229 1.275292,-0.15346 2.084917,-0.45244 1.010708,-0.37306 2.063747,-0.75935 3.325817,-0.7276 0.9525,0.0238 1.75418,0.46037 2.56381,0.90223 0.508,0.27781 1.02394,0.55827 1.30969,0.56885 0.32808,0.0106 0.81491,-0.27516 1.30175,-0.56091 0.79375,-0.46832 1.5875,-0.93663 2.69081,-0.97367 1.18533,-0.0397 2.10344,0.36777 3.0136,0.77258 0.51859,0.23019 1.03452,0.46038 1.46579,0.49213 0.40746,0.0317 0.9525,-0.3175 1.48167,-0.65352 0.73554,-0.47096 1.45785,-0.93134 2.40771,-1.03717 1.12977,-0.12435 2.36273,0.40746 3.41048,0.85725 l 0.0265,0.0132 c 0,1.07156 0,2.14577 0,3.21733 -0.2249,-0.0662 -0.45773,-0.1561 -0.6985,-0.254 -0.16669,-0.0688 -0.33867,-0.14287 -0.51329,-0.21696 -0.71702,-0.30691 -1.56104,-0.67204 -1.89707,-0.635 -0.26987,0.0291 -0.69585,0.30163 -1.12977,0.57944 -0.15875,0.10054 -0.32014,0.20373 -0.48154,0.30427 -0.80433,0.48948 -1.67746,0.90752 -2.82839,0.82021 -0.93663,-0.0714 -1.69863,-0.4101 -2.46327,-0.75142 l -0.0662,-0.0291 c -0.5715,-0.254 -1.14565,-0.50006 -1.63248,-0.48418 -0.29898,0.0106 -0.72761,0.25135 -1.16152,0.50535 l -0.10055,0.0582 c -0.85989,0.508 -1.72243,1.016 -2.93158,0.97102 -0.9869,-0.037 -1.81769,-0.48683 -2.63525,-0.93398 l -0.10319,-0.0556 c -0.45508,-0.2487 -0.89164,-0.47625 -1.10066,-0.48154 -0.6403,-0.0159 -1.37848,0.24077 -2.095504,0.50536 l -0.124355,0.045 c -1.254122,0.46301 -2.450039,0.90221 -3.868206,0.5318 -0.762,-0.19844 -1.338791,-0.37306 -1.867958,-0.53181 l -0.01588,-0.005 c -1.918229,-0.57679 -3.169708,-0.9472 -4.669896,0.0344 -0.03969,0.0265 -0.08202,0.0529 -0.124354,0.082 v -0.082 -3.31258 z m 23.259524,-13.01221 3.7465,-0.56886 c 2.33098,-0.34925 1.62983,-4.54554 -1.35732,-3.8735 l -8.49577,1.4023 c -0.92075,0.15081 -2.50031,0.26722 -3.18823,0.88106 -0.39422,0.35189 -0.55827,0.84137 -0.46831,1.45256 0.127,0.86519 0.84931,1.94998 1.28323,2.73579 l 1.0504,1.88913 c 0.76464,1.37318 1.17475,1.50548 -0.24077,2.26483 l -9.649358,5.17525 0.706437,0.20902 2.119313,0.0317 c 0.240771,-0.0794 0.492125,-0.17198 0.748771,-0.26723 1.010708,-0.37306 2.063747,-0.75935 3.325817,-0.7276 0.9525,0.0238 1.75418,0.46037 2.56381,0.90223 l 0.36512,0.19579 1.86796,0.0291 c 0.12436,-0.0688 0.25136,-0.14288 0.37571,-0.21696 0.79375,-0.46831 1.5875,-0.93663 2.69081,-0.97367 1.18534,-0.0397 2.10344,0.36777 3.01361,0.77259 0.51858,0.23018 1.03452,0.46037 1.46579,0.49212 0.0979,0.008 0.20373,-0.008 0.31485,-0.037 l -4.91596,-8.74184 c -0.41804,-0.74348 -1.16945,-1.68275 -1.06098,-2.24896 0.0371,-0.1905 0.29105,-0.26723 0.60061,-0.31485 1.04775,-0.15081 2.09021,-0.30427 3.13796,-0.46302 z m 4.04812,1.94733 c 2.05581,0 3.72269,1.66688 3.72269,3.72269 0,2.05581 -1.66688,3.72269 -3.72269,3.72269 -2.05581,0 -3.72269,-1.66688 -3.72269,-3.72269 0.003,-2.05846 1.66688,-3.72269 3.72269,-3.72269 z"
       id="path1-0"
       style="stroke-width:0.264583" /><circle
       style="fill:#ffffff;stroke:none;stroke-width:0.582083;stroke-linecap:round;stroke-linejoin:round"
       id="path2"
       cx="84.504364"
       cy="112.33652"
       r="0.6977424" /><path
       style="fill:none;stroke:none;stroke-width:0.582083;stroke-linecap:round;stroke-linejoin:round"
       d="m 84.349308,111.71632 c -0.852797,-2.24829 0.155054,-3.10108 0.155054,-3.10108 0,0 0.465162,0.38763 1.007848,1.47301"
       id="path3" /><path
       style="opacity:1;fill:none;stroke:#ffffff;stroke-width:0.582083;stroke-linecap:round;stroke-linejoin:round"
       d="m 83.884147,112.49158 c -2.015701,1.31796 -1.938173,2.5584 -1.938173,2.5584"
       id="path4" /></g></svg>
