<?xml version="1.0" encoding="UTF-8" standalone="no"?>
<!-- Created with Inkscape (http://www.inkscape.org/) -->

<svg
   width="170.37215mm"
   height="97.737015mm"
   viewBox="0 0 170.37215 97.737015"
   version="1.1"
   id="svg1"
   inkscape:version="1.4.2 (ebf0e940, 2025-05-08)"
   sodipodi:docname="iB99Mx09.svg"
   inkscape:export-filename="iB99Mx09.png"
   inkscape:export-xdpi="96"
   inkscape:export-ydpi="96"
   xmlns:inkscape="http://www.inkscape.org/namespaces/inkscape"
   xmlns:sodipodi="http://sodipodi.sourceforge.net/DTD/sodipodi-0.dtd"
   xmlns:xlink="http://www.w3.org/1999/xlink"
   xmlns="http://www.w3.org/2000/svg"
   xmlns:svg="http://www.w3.org/2000/svg">
  <sodipodi:namedview
     id="namedview1"
     pagecolor="#ffffff"
     bordercolor="#000000"
     borderopacity="0.25"
     inkscape:showpageshadow="2"
     inkscape:pageopacity="0.0"
     inkscape:pagecheckerboard="0"
     inkscape:deskcolor="#d1d1d1"
     inkscape:document-units="mm"
     inkscape:zoom="1.6084936"
     inkscape:cx="253.03177"
     inkscape:cy="121.23144"
     inkscape:window-width="1920"
     inkscape:window-height="1547"
     inkscape:window-x="3648"
     inkscape:window-y="25"
     inkscape:window-maximized="0"
     inkscape:current-layer="layer1"
     showgrid="false" />
  <defs
     id="defs1">
    <marker
       style="overflow:visible"
       id="Triangle"
       refX="0"
       refY="0"
       orient="auto-start-reverse"
       inkscape:stockid="Triangle arrow"
       markerWidth="1"
       markerHeight="1"
       viewBox="0 0 1 1"
       inkscape:isstock="true"
       inkscape:collect="always"
       preserveAspectRatio="xMidYMid">
      <path
         transform="scale(0.5)"
         style="fill:context-stroke;fill-rule:evenodd;stroke:context-stroke;stroke-width:1pt"
         d="M 5.77,0 -2.88,5 V -5 Z"
         id="path135" />
    </marker>
    <clipPath
       id="p78022390db-3-2">
      <rect
         x="57.599998"
         y="41.472"
         width="357.12"
         height="266.112"
         id="rect564-6-9" />
    </clipPath>
    <clipPath
       id="p62bcd2657d-5">
      <rect
         x="57.599998"
         y="41.472"
         width="357.12"
         height="266.112"
         id="rect7353-6" />
    </clipPath>
    <clipPath
       id="clipPath1">
      <rect
         x="57.599998"
         y="41.472"
         width="357.12"
         height="266.112"
         id="rect1-0" />
    </clipPath>
    <path
       id="path25749"
       d="m 155.07761,-50.112 v -32.871864 l 0.32498,-0.529109 0.32498,-0.535449 0.32498,-0.541821 0.32498,-0.548226 0.32498,-0.55466 0.32498,-0.561127 0.32497,-0.567621 0.32498,-0.574145 0.32498,-0.580697 0.32498,-0.587274 0.32498,-0.59388 0.32498,-0.600509 0.32498,-0.607163 0.32498,-0.61384 0.32498,-0.620541 0.32498,-0.627262 0.32498,-0.634005 0.32498,-0.640766 0.32498,-0.647546 0.32498,-0.654345 0.32498,-0.661158 0.32498,-0.667988 0.32498,-0.674832 0.32498,-0.68169 0.32498,-0.688558 0.32498,-0.695438 0.32498,-0.702329 0.32497,-0.709227 0.32498,-0.71613 0.32498,-0.72304 0.32498,-0.72997 0.32498,-0.73687 0.32498,-0.74381 0.32498,-0.75072 0.32498,-0.75765 0.32498,-0.76457 0.32498,-0.77149 0.32498,-0.7784 0.32498,-0.78531 0.32498,-0.7922 0.32498,-0.7991 0.32498,-0.80598 0.32498,-0.81285 0.32498,-0.81971 0.32498,-0.82655 0.32498,-0.83338 0.32498,-0.84018 0.32498,-0.84697 0.32497,-0.85374 0.32498,-0.86049 0.32498,-0.8672 0.32498,-0.8739 0.32498,-0.88058 0.32498,-0.88721 0.32498,-0.89382 0.32498,-0.90039 0.32498,-0.90694 0.32498,-0.91345 0.32498,-0.91992 0.32498,-0.92635 0.32498,-0.93274 0.32498,-0.93909 0.32498,-0.94539 0.32498,-0.95166 0.32498,-0.95786 0.32498,-0.96402 0.32498,-0.97014 0.32498,-0.97619 0.32498,-0.98219 0.32497,-0.98813 0.32498,-0.99403 0.32498,-0.99985 0.32498,-1.00561 0.32498,-1.01132 0.32498,-1.01695 0.32498,-1.02252 0.32498,-1.02802 0.32498,-1.03344 0.32498,-1.0388 0.32498,-1.04407 0.32498,-1.04928 0.32498,-1.0544 0.32498,-1.05944 0.32498,-1.06441 0.32498,-1.06928 0.32498,-1.07407 0.32498,-1.07877 0.32498,-1.08339 0.32498,-1.0879 0.32498,-1.09234 0.32497,-1.09667 0.32498,-1.1009 0.32498,-1.10504 0.32498,-1.10908 0.32498,-1.11301 0.32498,-1.11684 0.32498,-1.12057 0.32498,-1.12418 0.32498,-1.12769 0.32498,-1.13109 0.32498,-1.13437 0.32498,-1.13753 0.32498,-1.14059 0.32498,-1.14352 0.32498,-1.14634 0.32498,-1.14903 0.32498,-1.15159 0.32498,-1.15405 0.32498,-1.15636 0.32498,-1.15855 0.32498,-1.16061 0.32497,-1.16254 0.32498,-1.16434 0.32498,-1.166 0.32498,-1.16753 0.32498,-1.16892 0.32498,-1.17017 0.32498,-1.17129 0.32498,-1.17225 0.32498,-1.17309 0.32498,-1.17376 0.32498,-1.17431 0.32498,-1.17469 0.32498,-1.17494 0.32498,-1.17503 0.32498,-1.17498 0.32498,-1.17476 0.32498,-1.17441 0.32498,-1.17389 0.32498,-1.17322 0.32498,-1.17239 0.32498,-1.17141 0.32497,-1.17027 0.32498,-1.16896 0.32498,-1.16751 0.32498,-1.16588 0.32498,-1.16409 0.32498,-1.16215 0.32498,-1.16003 0.32498,-1.15777 0.32498,-1.15531 0.32498,-1.15272 0.32498,-1.14994 0.32498,-1.147 0.32498,-1.14389 0.32498,-1.14061 0.32498,-1.13718 0.32498,-1.13355 0.32498,-1.12978 0.32498,-1.12582 0.32498,-1.12169 0.32498,-1.1174 0.32498,-1.11294 0.32497,-1.1083 0.32498,-1.10349 0.32498,-1.09852 0.32498,-1.09336 0.32498,-1.08804 0.32498,-1.08255 0.32498,-1.07689 0.32498,-1.07105 0.32498,-1.06504 0.32498,-1.05886 0.32498,-1.05252 0.32498,-1.046 0.32498,-1.0393 0.32498,-1.03245 0.32498,-1.02542 0.32498,-1.01822 0.32498,-1.01086 0.32498,-1.00332 0.32498,-0.99563 0.32498,-0.98775 0.32498,-0.97972 0.32497,-0.97152 0.32498,-0.96316 0.32498,-0.95464 0.32498,-0.94594 0.32498,-0.93709 0.32498,-0.92808 0.32498,-0.91891 0.32498,-0.90958 0.32498,-0.90009 0.32498,-0.89044 0.32498,-0.88064 0.32498,-0.87069 0.32498,-0.86059 0.32498,-0.85032 0.32498,-0.83991 0.32498,-0.82936 0.32498,-0.81865 0.32498,-0.8078 0.32498,-0.79681 0.32498,-0.78567 0.32498,-0.77439 0.32497,-0.76297 0.32498,-0.75142 0.32498,-0.73972 0.32498,-0.7279 0.32498,-0.71594 0.32498,-0.70386 0.32498,-0.69163 0.32498,-0.6793 0.32498,-0.66682 0.32498,-0.65424 0.32498,-0.64153 0.32498,-0.62869 0.32498,-0.61576 0.32498,-0.60269 0.32498,-0.58952 0.32498,-0.57625 0.32498,-0.56285 0.32498,-0.54936 0.32498,-0.53577 0.32498,-0.52207 0.32498,-0.50828 0.32497,-0.49439 0.32498,-0.48041 0.32498,-0.46634 0.32498,-0.45218 0.32498,-0.43793 0.32498,-0.4236 0.32498,-0.4092 0.32498,-0.39471 0.32498,-0.38016 0.32498,-0.36552 0.32498,-0.35081 0.32498,-0.33605 0.32498,-0.32122 0.32498,-0.30632 0.32498,-0.29138 0.32498,-0.27636 0.32498,-0.2613 0.32498,-0.2462 0.32498,-0.23103 0.32498,-0.21584 0.32498,-0.20059 0.32497,-0.18531 0.32498,-0.16999 0.32498,-0.15464 0.32498,-0.13926 0.32498,-0.12386 0.32498,-0.10843 0.32498,-0.093 0.32498,-0.0775 0.32498,-0.062 0.32498,-0.0465 0.32498,-0.031 0.32498,-0.0155 h 0.32498 l 0.32498,0.0155 0.32498,0.031 0.32498,0.0465 0.32498,0.062 0.32498,0.0775 0.32498,0.093 0.32498,0.10843 0.32498,0.12386 0.32497,0.13926 0.32498,0.15464 0.32498,0.16999 0.32498,0.18531 0.32498,0.20059 0.32498,0.21584 0.32498,0.23103 0.32498,0.2462 0.32498,0.2613 0.32498,0.27636 0.32498,0.29138 0.32498,0.30632 0.32498,0.32122 0.32498,0.33605 0.32498,0.35081 0.32498,0.36552 0.32498,0.38016 0.32498,0.39471 0.32498,0.4092 0.32498,0.4236 0.32498,0.43793 0.32498,0.45218 0.32497,0.46634 0.32498,0.48041 0.32498,0.49439 0.32498,0.50828 0.32498,0.52207 0.32498,0.53577 0.32498,0.54936 0.32498,0.56285 0.32498,0.57625 0.32498,0.58952 0.32498,0.60269 0.32498,0.61576 0.32498,0.62869 0.32498,0.64153 0.32498,0.65424 0.32498,0.66682 0.32498,0.6793 0.32498,0.69163 0.32498,0.70386 0.32498,0.71594 0.32498,0.7279 0.32497,0.73972 0.32498,0.75142 0.32498,0.76297 0.32498,0.77439 0.32498,0.78567 0.32498,0.79681 0.32498,0.8078 0.32498,0.81865 0.32498,0.82936 0.32498,0.83991 0.32498,0.85032 0.32498,0.86059 0.32498,0.87069 0.32498,0.88064 0.32498,0.89044 0.32498,0.90009 0.32498,0.90958 0.32498,0.91891 0.32498,0.92808 0.32498,0.93709 0.32498,0.94594 0.32497,0.95464 0.32498,0.96316 0.32498,0.97152 0.32498,0.97972 0.32498,0.98775 0.32498,0.99563 0.32498,1.00332 0.32498,1.01086 0.32498,1.01822 0.32498,1.02542 0.32498,1.03245 0.32498,1.0393 0.32498,1.046 0.32498,1.05252 0.32498,1.05886 0.32498,1.06504 0.32498,1.07105 0.32498,1.07689 0.32498,1.08255 0.32498,1.08804 0.32498,1.09336 0.32497,1.09852 0.32498,1.10349 0.32498,1.1083 0.32498,1.11294 0.32498,1.1174 0.32498,1.12169 0.32498,1.12582 0.32498,1.12978 0.32498,1.13355 0.32498,1.13718 0.32498,1.14061 0.32498,1.14389 0.32498,1.147 0.32498,1.14994 0.32498,1.15272 0.32498,1.15531 0.32498,1.15777 0.32498,1.16003 0.32498,1.16215 0.32498,1.16409 0.32498,1.16588 0.32497,1.16751 0.32498,1.16896 0.32498,1.17027 0.32498,1.17141 0.32498,1.17239 0.32498,1.17322 0.32498,1.17389 0.32498,1.17441 0.32498,1.17476 0.32498,1.17498 0.32498,1.17503 0.32498,1.17494 0.32498,1.17469 0.32498,1.17431 0.32498,1.17376 0.32498,1.17309 0.32498,1.17225 0.32498,1.17129 0.32498,1.17017 0.32498,1.16892 0.32498,1.16753 0.32497,1.166 0.32499,1.16434 0.32497,1.16254 0.32498,1.16061 0.32498,1.15855 0.32498,1.15636 0.32498,1.15405 0.32498,1.15159 0.32498,1.14903 0.32498,1.14634 0.32498,1.14352 0.32498,1.14059 0.32498,1.13753 0.32498,1.13437 0.32498,1.13109 0.32498,1.12769 0.32498,1.12418 0.32498,1.12057 0.32498,1.11684 0.32498,1.11301 0.32498,1.10908 0.32497,1.10504 0.32499,1.1009 0.32497,1.09667 0.32498,1.09234 0.32498,1.0879 0.32498,1.08339 0.32498,1.07877 0.32498,1.07407 0.32498,1.06928 0.32498,1.06441 0.32498,1.05944 0.32498,1.0544 0.32498,1.04928 0.32498,1.04407 0.32498,1.0388 0.32498,1.03344 0.32498,1.02802 0.32498,1.02252 0.32498,1.01695 0.32498,1.01132 0.32498,1.00561 0.32497,0.99985 0.32499,0.99403 0.32497,0.98813 0.32498,0.98219 0.32498,0.97619 0.32498,0.97014 0.32498,0.96402 0.32498,0.95786 0.32498,0.95166 0.32498,0.94539 0.32498,0.93909 0.32498,0.93274 0.32498,0.92635 0.32498,0.91992 0.32498,0.91345 0.32498,0.90694 0.32498,0.90039 0.32498,0.89382 0.32498,0.88721 0.32498,0.88058 0.32498,0.8739 0.32498,0.8672 0.32497,0.86049 0.32498,0.85374 0.32498,0.84697 0.32498,0.84018 0.32498,0.83338 0.32498,0.82655 0.32498,0.81971 0.32498,0.81285 0.32498,0.80598 0.32498,0.7991 0.32498,0.7922 0.32498,0.78531 0.32498,0.7784 0.32498,0.77149 0.32498,0.76457 0.32498,0.75765 0.32498,0.75072 0.32498,0.74381 0.32498,0.73687 0.32498,0.72997 0.32498,0.72304 0.32497,0.71613 0.32498,0.709227 0.32498,0.702329 0.32498,0.695438 0.32498,0.688558 0.32498,0.68169 0.32498,0.674832 0.32498,0.667988 0.32498,0.661158 0.32498,0.654345 0.32498,0.647546 0.32498,0.640766 0.32498,0.634005 0.32498,0.627262 0.32498,0.620541 0.32498,0.61384 0.32498,0.607163 0.32498,0.600509 0.32498,0.59388 0.32498,0.587274 0.32498,0.580697 0.32497,0.574145 0.32498,0.567621 0.32498,0.561127 0.32498,0.55466 0.32498,0.548226 0.32498,0.541821 0.32498,0.535449 0.32498,0.529109 v 32.871864 0 h -0.32498 -0.32498 -0.32498 -0.32498 -0.32498 -0.32498 -0.32498 -0.32497 -0.32498 -0.32498 -0.32498 -0.32498 -0.32498 -0.32498 -0.32498 -0.32498 -0.32498 -0.32498 -0.32498 -0.32498 -0.32498 -0.32498 -0.32498 -0.32498 -0.32498 -0.32498 -0.32498 -0.32498 -0.32497 -0.32498 -0.32498 -0.32498 -0.32498 -0.32498 -0.32498 -0.32498 -0.32498 -0.32498 -0.32498 -0.32498 -0.32498 -0.32498 -0.32498 -0.32498 -0.32498 -0.32498 -0.32498 -0.32498 -0.32498 -0.32497 -0.32498 -0.32498 -0.32498 -0.32498 -0.32498 -0.32498 -0.32498 -0.32498 -0.32498 -0.32498 -0.32498 -0.32498 -0.32498 -0.32498 -0.32498 -0.32498 -0.32498 -0.32498 -0.32498 -0.32497 -0.32499 -0.32497 -0.32498 -0.32498 -0.32498 -0.32498 -0.32498 -0.32498 -0.32498 -0.32498 -0.32498 -0.32498 -0.32498 -0.32498 -0.32498 -0.32498 -0.32498 -0.32498 -0.32498 -0.32498 -0.32497 -0.32499 -0.32497 -0.32498 -0.32498 -0.32498 -0.32498 -0.32498 -0.32498 -0.32498 -0.32498 -0.32498 -0.32498 -0.32498 -0.32498 -0.32498 -0.32498 -0.32498 -0.32498 -0.32498 -0.32498 -0.32497 -0.32499 -0.32497 -0.32498 -0.32498 -0.32498 -0.32498 -0.32498 -0.32498 -0.32498 -0.32498 -0.32498 -0.32498 -0.32498 -0.32498 -0.32498 -0.32498 -0.32498 -0.32498 -0.32498 -0.32498 -0.32498 -0.32498 -0.32497 -0.32498 -0.32498 -0.32498 -0.32498 -0.32498 -0.32498 -0.32498 -0.32498 -0.32498 -0.32498 -0.32498 -0.32498 -0.32498 -0.32498 -0.32498 -0.32498 -0.32498 -0.32498 -0.32498 -0.32498 -0.32497 -0.32498 -0.32498 -0.32498 -0.32498 -0.32498 -0.32498 -0.32498 -0.32498 -0.32498 -0.32498 -0.32498 -0.32498 -0.32498 -0.32498 -0.32498 -0.32498 -0.32498 -0.32498 -0.32498 -0.32498 -0.32497 -0.32498 -0.32498 -0.32498 -0.32498 -0.32498 -0.32498 -0.32498 -0.32498 -0.32498 -0.32498 -0.32498 -0.32498 -0.32498 -0.32498 -0.32498 -0.32498 -0.32498 -0.32498 -0.32498 -0.32498 -0.32497 -0.32498 -0.32498 -0.32498 -0.32498 -0.32498 -0.32498 -0.32498 -0.32498 -0.32498 -0.32498 -0.32498 -0.32498 -0.32498 -0.32498 -0.32498 -0.32498 -0.32498 -0.32498 -0.32498 -0.32498 -0.32497 -0.32498 -0.32498 -0.32498 -0.32498 -0.32498 -0.32498 -0.32498 -0.32498 -0.32498 -0.32498 -0.32498 -0.32498 -0.32498 -0.32498 -0.32498 -0.32498 -0.32498 -0.32498 -0.32498 -0.32498 -0.32498 -0.32497 -0.32498 -0.32498 -0.32498 -0.32498 -0.32498 -0.32498 -0.32498 -0.32498 -0.32498 -0.32498 -0.32498 -0.32498 -0.32498 -0.32498 -0.32498 -0.32498 -0.32498 -0.32498 -0.32498 -0.32498 -0.32497 -0.32498 -0.32498 -0.32498 -0.32498 -0.32498 -0.32498 -0.32498 -0.32498 -0.32498 -0.32498 -0.32498 -0.32498 -0.32498 -0.32498 -0.32498 -0.32498 -0.32498 -0.32498 -0.32498 -0.32498 -0.32497 -0.32498 -0.32498 -0.32498 -0.32498 -0.32498 -0.32498 -0.32498 -0.32498 -0.32498 -0.32498 -0.32498 -0.32498 -0.32498 -0.32498 -0.32498 -0.32498 -0.32498 -0.32498 -0.32498 -0.32498 -0.32497 -0.32498 -0.32498 -0.32498 -0.32498 -0.32498 -0.32498 -0.32498 -0.32498 -0.32498 -0.32498 -0.32498 -0.32498 -0.32498 -0.32498 -0.32498 -0.32498 -0.32498 -0.32498 -0.32498 -0.32498 -0.32497 -0.32498 -0.32498 -0.32498 -0.32498 -0.32498 -0.32498 -0.32498 -0.32498 -0.32498 -0.32498 -0.32498 -0.32498 -0.32498 -0.32498 -0.32498 -0.32498 -0.32498 -0.32498 -0.32498 -0.32498 -0.32497 -0.32498 -0.32498 -0.32498 -0.32498 -0.32498 -0.32498 -0.32498 -0.32498 -0.32498 -0.32498 -0.32498 -0.32498 -0.32498 -0.32498 -0.32498 -0.32498 -0.32498 -0.32498 -0.32498 -0.32498 -0.32497 -0.32498 -0.32498 -0.32498 -0.32498 -0.32498 -0.32498 -0.32498 -0.32498 -0.32498 -0.32498 -0.32498 -0.32498 -0.32498 -0.32498 -0.32498 -0.32498 -0.32498 -0.32498 -0.32498 -0.32498 -0.32497 -0.32498 -0.32498 -0.32498 -0.32498 -0.32498 -0.32498 -0.32498 -0.32498 -0.32498 -0.32498 -0.32498 -0.32498 -0.32498 -0.32498 -0.32498 -0.32498 -0.32498 -0.32498 -0.32498 -0.32498 -0.32497 -0.32498 -0.32498 -0.32498 -0.32498 -0.32498 -0.32498 -0.32498 -0.32498 -0.32498 -0.32498 -0.32498 -0.32498 -0.32498 -0.32498 -0.32498 -0.32498 -0.32498 -0.32498 -0.32498 -0.32498 -0.32497 -0.32498 -0.32498 -0.32498 -0.32498 -0.32498 -0.32498 -0.32498 -0.32498 -0.32498 -0.32498 -0.32498 -0.32498 -0.32498 -0.32498 -0.32498 -0.32498 -0.32498 -0.32498 -0.32498 -0.32498 -0.32497 -0.32498 -0.32498 -0.32498 -0.32498 -0.32498 -0.32498 -0.32498 -0.32498 -0.32498 -0.32498 -0.32498 -0.32498 -0.32498 -0.32498 -0.32498 -0.32498 -0.32498 -0.32498 -0.32498 -0.32498 -0.32497 -0.32498 -0.32498 -0.32498 -0.32498 -0.32498 -0.32498 -0.32498 -0.32498 -0.32498 -0.32498 -0.32498 -0.32498 -0.32498 -0.32498 -0.32498 -0.32498 -0.32498 -0.32498 -0.32498 -0.32498 -0.32497 -0.32498 -0.32498 -0.32498 -0.32498 -0.32498 z"
       style="stroke:#002d8b;stroke-opacity:0.5" />
    <path
       id="DejaVuSans-2212"
       d="M 678,2272 H 4684 V 1741 H 678 Z"
       transform="scale(0.015625)" />
    <path
       id="DejaVuSans-34"
       d="M 2419,4116 825,1625 h 1594 z m -166,550 h 794 V 1625 h 666 V 1100 H 3047 V 0 H 2419 V 1100 H 313 v 609 z"
       transform="scale(0.015625)" />
    <path
       id="DejaVuSans-33"
       d="m 2597,2516 q 453,-97 707,-404 255,-306 255,-756 0,-690 -475,-1069 -475,-378 -1350,-378 -293,0 -604,58 -311,58 -642,174 v 609 q 262,-153 574,-231 313,-78 654,-78 593,0 904,234 311,234 311,681 0,413 -289,645 -289,233 -804,233 h -544 v 519 h 569 q 465,0 712,186 247,186 247,536 0,359 -255,551 -254,193 -729,193 -260,0 -557,-57 -297,-56 -653,-174 v 562 q 360,100 674,150 314,50 592,50 719,0 1137,-327 419,-326 419,-882 0,-388 -222,-655 -222,-267 -631,-370 z"
       transform="scale(0.015625)" />
    <path
       id="DejaVuSans-32"
       d="M 1228,531 H 3431 V 0 H 469 v 531 q 359,372 979,998 621,627 780,809 303,340 423,576 121,236 121,464 0,372 -261,606 -261,235 -680,235 -297,0 -627,-103 -329,-103 -704,-313 v 638 q 381,153 712,231 332,78 607,78 725,0 1156,-363 431,-362 431,-968 0,-288 -108,-546 -107,-257 -392,-607 -78,-91 -497,-524 Q 1991,1309 1228,531 Z"
       transform="scale(0.015625)" />
    <path
       id="DejaVuSans-31"
       d="M 794,531 H 1825 V 4091 L 703,3866 v 575 l 1116,225 h 631 V 531 H 3481 V 0 H 794 Z"
       transform="scale(0.015625)" />
    <path
       id="DejaVuSans-30"
       d="m 2034,4250 q -487,0 -733,-480 -245,-479 -245,-1442 0,-959 245,-1439 246,-480 733,-480 491,0 736,480 246,480 246,1439 0,963 -246,1442 -245,480 -736,480 z m 0,500 q 785,0 1199,-621 414,-620 414,-1801 0,-1178 -414,-1799 -414,-620 -1199,-620 -784,0 -1198,620 -414,621 -414,1799 0,1181 414,1801 414,621 1198,621 z"
       transform="scale(0.015625)" />
  </defs>
  <g
     inkscape:label="Layer 1"
     inkscape:groupmode="layer"
     id="layer1"
     transform="translate(-27.772261,-84.384949)">
    <rect
       style="opacity:0.816803;fill:#000000;fill-opacity:0.70649;stroke-width:0.209;stroke-linecap:round"
       id="rect1"
       width="170.37215"
       height="97.737015"
       x="27.772261"
       y="84.384949"
       ry="12.817967" />
    <rect
       style="opacity:0.816803;fill:#000000;fill-opacity:0.70649;stroke-width:0.190641;stroke-linecap:round"
       id="rect1-9"
       width="160.1312"
       height="86.521294"
       x="32.892738"
       y="89.992813"
       ry="11.347053"
       inkscape:export-filename="ufIt9nRg.png"
       inkscape:export-xdpi="96"
       inkscape:export-ydpi="96"
       sodipodi:insensitive="true" />
    <text
       xml:space="preserve"
       style="font-size:11.2889px;font-family:Chalkduster;-inkscape-font-specification:'Chalkduster, Normal';text-align:start;writing-mode:lr-tb;direction:ltr;text-anchor:start;white-space:pre;inline-size:19.6112;display:inline;fill:#ffffff;stroke-width:0.864306;stroke-linejoin:round;stroke-dasharray:0.45407, 0.90814;stroke-dashoffset:0.363257;-inkscape-stroke:none"
       x="82.653114"
       y="108.9332"
       id="text4" />
    <text
       xml:space="preserve"
       style="font-style:normal;font-variant:normal;font-weight:normal;font-stretch:normal;font-size:3.40682px;font-family:Chalkduster;-inkscape-font-specification:'Chalkduster, Normal';font-variant-ligatures:normal;font-variant-caps:normal;font-variant-numeric:normal;font-variant-east-asian:normal;text-align:start;writing-mode:lr-tb;direction:ltr;text-anchor:start;fill:#ffffff;stroke:none;stroke-width:0.758788;stroke-linejoin:round;-inkscape-stroke:none"
       x="149.18777"
       y="125.0991"
       id="text1-4"><tspan
         sodipodi:role="line"
         style="font-style:normal;font-variant:normal;font-weight:normal;font-stretch:normal;font-size:3.40682px;font-family:Chalkduster;-inkscape-font-specification:'Chalkduster, Normal';font-variant-ligatures:normal;font-variant-caps:normal;font-variant-numeric:normal;font-variant-east-asian:normal;fill:#ffffff;stroke:none;stroke-width:0.758788"
         x="149.18777"
         y="125.0991"
         id="tspan59">If our Z test value</tspan><tspan
         sodipodi:role="line"
         style="font-style:normal;font-variant:normal;font-weight:normal;font-stretch:normal;font-size:3.40682px;font-family:Chalkduster;-inkscape-font-specification:'Chalkduster, Normal';font-variant-ligatures:normal;font-variant-caps:normal;font-variant-numeric:normal;font-variant-east-asian:normal;fill:#ffffff;stroke:none;stroke-width:0.758788"
         x="149.18777"
         y="129.35762"
         id="tspan15">falls in this range</tspan><tspan
         sodipodi:role="line"
         style="font-style:normal;font-variant:normal;font-weight:normal;font-stretch:normal;font-size:3.40682px;font-family:Chalkduster;-inkscape-font-specification:'Chalkduster, Normal';font-variant-ligatures:normal;font-variant-caps:normal;font-variant-numeric:normal;font-variant-east-asian:normal;fill:#ffffff;stroke:none;stroke-width:0.758788"
         x="149.18777"
         y="133.61615"
         id="tspan12">capturing C, we </tspan><tspan
         sodipodi:role="line"
         style="font-style:normal;font-variant:normal;font-weight:normal;font-stretch:normal;font-size:3.40682px;font-family:Chalkduster;-inkscape-font-specification:'Chalkduster, Normal';font-variant-ligatures:normal;font-variant-caps:normal;font-variant-numeric:normal;font-variant-east-asian:normal;fill:#ffffff;stroke:none;stroke-width:0.758788"
         x="149.18777"
         y="137.87468"
         id="tspan23">fail to reject the </tspan><tspan
         sodipodi:role="line"
         style="font-style:normal;font-variant:normal;font-weight:normal;font-stretch:normal;font-size:3.40682px;font-family:Chalkduster;-inkscape-font-specification:'Chalkduster, Normal';font-variant-ligatures:normal;font-variant-caps:normal;font-variant-numeric:normal;font-variant-east-asian:normal;fill:#ffffff;stroke:none;stroke-width:0.758788"
         x="149.18777"
         y="142.13319"
         id="tspan13">null hypothesis.</tspan></text>
    <g
       id="g35106"
       transform="translate(39.440489,101.12928)"
       style="stroke-linecap:butt;stroke-linejoin:round">
      <g
         id="FillBetweenPolyCollection_1-9"
         transform="matrix(0.26597965,0,0,0.26608934,10.23846,-14.543469)"
         style="font-variation-settings:normal;opacity:1;vector-effect:none;fill:#ffffff;fill-opacity:0.728387;stroke-width:0.990824;stroke-linecap:butt;stroke-linejoin:round;stroke-miterlimit:4;stroke-dasharray:none;stroke-dashoffset:0;stroke-opacity:1;-inkscape-stroke:none;stop-color:#000000;stop-opacity:1">
        <defs
           id="defs6953">
          <path
             id="path37"
             d="m 155.07761,-50.112 v -32.871864 l 0.32498,-0.529109 0.32498,-0.535449 0.32498,-0.541821 0.32498,-0.548226 0.32498,-0.55466 0.32498,-0.561127 0.32497,-0.567621 0.32498,-0.574145 0.32498,-0.580697 0.32498,-0.587274 0.32498,-0.59388 0.32498,-0.600509 0.32498,-0.607163 0.32498,-0.61384 0.32498,-0.620541 0.32498,-0.627262 0.32498,-0.634005 0.32498,-0.640766 0.32498,-0.647546 0.32498,-0.654345 0.32498,-0.661158 0.32498,-0.667988 0.32498,-0.674832 0.32498,-0.68169 0.32498,-0.688558 0.32498,-0.695438 0.32498,-0.702329 0.32497,-0.709227 0.32498,-0.71613 0.32498,-0.72304 0.32498,-0.72997 0.32498,-0.73687 0.32498,-0.74381 0.32498,-0.75072 0.32498,-0.75765 0.32498,-0.76457 0.32498,-0.77149 0.32498,-0.7784 0.32498,-0.78531 0.32498,-0.7922 0.32498,-0.7991 0.32498,-0.80598 0.32498,-0.81285 0.32498,-0.81971 0.32498,-0.82655 0.32498,-0.83338 0.32498,-0.84018 0.32498,-0.84697 0.32497,-0.85374 0.32498,-0.86049 0.32498,-0.8672 0.32498,-0.8739 0.32498,-0.88058 0.32498,-0.88721 0.32498,-0.89382 0.32498,-0.90039 0.32498,-0.90694 0.32498,-0.91345 0.32498,-0.91992 0.32498,-0.92635 0.32498,-0.93274 0.32498,-0.93909 0.32498,-0.94539 0.32498,-0.95166 0.32498,-0.95786 0.32498,-0.96402 0.32498,-0.97014 0.32498,-0.97619 0.32498,-0.98219 0.32497,-0.98813 0.32498,-0.99403 0.32498,-0.99985 0.32498,-1.00561 0.32498,-1.01132 0.32498,-1.01695 0.32498,-1.02252 0.32498,-1.02802 0.32498,-1.03344 0.32498,-1.0388 0.32498,-1.04407 0.32498,-1.04928 0.32498,-1.0544 0.32498,-1.05944 0.32498,-1.06441 0.32498,-1.06928 0.32498,-1.07407 0.32498,-1.07877 0.32498,-1.08339 0.32498,-1.0879 0.32498,-1.09234 0.32497,-1.09667 0.32498,-1.1009 0.32498,-1.10504 0.32498,-1.10908 0.32498,-1.11301 0.32498,-1.11684 0.32498,-1.12057 0.32498,-1.12418 0.32498,-1.12769 0.32498,-1.13109 0.32498,-1.13437 0.32498,-1.13753 0.32498,-1.14059 0.32498,-1.14352 0.32498,-1.14634 0.32498,-1.14903 0.32498,-1.15159 0.32498,-1.15405 0.32498,-1.15636 0.32498,-1.15855 0.32498,-1.16061 0.32497,-1.16254 0.32498,-1.16434 0.32498,-1.166 0.32498,-1.16753 0.32498,-1.16892 0.32498,-1.17017 0.32498,-1.17129 0.32498,-1.17225 0.32498,-1.17309 0.32498,-1.17376 0.32498,-1.17431 0.32498,-1.17469 0.32498,-1.17494 0.32498,-1.17503 0.32498,-1.17498 0.32498,-1.17476 0.32498,-1.17441 0.32498,-1.17389 0.32498,-1.17322 0.32498,-1.17239 0.32498,-1.17141 0.32497,-1.17027 0.32498,-1.16896 0.32498,-1.16751 0.32498,-1.16588 0.32498,-1.16409 0.32498,-1.16215 0.32498,-1.16003 0.32498,-1.15777 0.32498,-1.15531 0.32498,-1.15272 0.32498,-1.14994 0.32498,-1.147 0.32498,-1.14389 0.32498,-1.14061 0.32498,-1.13718 0.32498,-1.13355 0.32498,-1.12978 0.32498,-1.12582 0.32498,-1.12169 0.32498,-1.1174 0.32498,-1.11294 0.32497,-1.1083 0.32498,-1.10349 0.32498,-1.09852 0.32498,-1.09336 0.32498,-1.08804 0.32498,-1.08255 0.32498,-1.07689 0.32498,-1.07105 0.32498,-1.06504 0.32498,-1.05886 0.32498,-1.05252 0.32498,-1.046 0.32498,-1.0393 0.32498,-1.03245 0.32498,-1.02542 0.32498,-1.01822 0.32498,-1.01086 0.32498,-1.00332 0.32498,-0.99563 0.32498,-0.98775 0.32498,-0.97972 0.32497,-0.97152 0.32498,-0.96316 0.32498,-0.95464 0.32498,-0.94594 0.32498,-0.93709 0.32498,-0.92808 0.32498,-0.91891 0.32498,-0.90958 0.32498,-0.90009 0.32498,-0.89044 0.32498,-0.88064 0.32498,-0.87069 0.32498,-0.86059 0.32498,-0.85032 0.32498,-0.83991 0.32498,-0.82936 0.32498,-0.81865 0.32498,-0.8078 0.32498,-0.79681 0.32498,-0.78567 0.32498,-0.77439 0.32497,-0.76297 0.32498,-0.75142 0.32498,-0.73972 0.32498,-0.7279 0.32498,-0.71594 0.32498,-0.70386 0.32498,-0.69163 0.32498,-0.6793 0.32498,-0.66682 0.32498,-0.65424 0.32498,-0.64153 0.32498,-0.62869 0.32498,-0.61576 0.32498,-0.60269 0.32498,-0.58952 0.32498,-0.57625 0.32498,-0.56285 0.32498,-0.54936 0.32498,-0.53577 0.32498,-0.52207 0.32498,-0.50828 0.32497,-0.49439 0.32498,-0.48041 0.32498,-0.46634 0.32498,-0.45218 0.32498,-0.43793 0.32498,-0.4236 0.32498,-0.4092 0.32498,-0.39471 0.32498,-0.38016 0.32498,-0.36552 0.32498,-0.35081 0.32498,-0.33605 0.32498,-0.32122 0.32498,-0.30632 0.32498,-0.29138 0.32498,-0.27636 0.32498,-0.2613 0.32498,-0.2462 0.32498,-0.23103 0.32498,-0.21584 0.32498,-0.20059 0.32497,-0.18531 0.32498,-0.16999 0.32498,-0.15464 0.32498,-0.13926 0.32498,-0.12386 0.32498,-0.10843 0.32498,-0.093 0.32498,-0.0775 0.32498,-0.062 0.32498,-0.0465 0.32498,-0.031 0.32498,-0.0155 h 0.32498 l 0.32498,0.0155 0.32498,0.031 0.32498,0.0465 0.32498,0.062 0.32498,0.0775 0.32498,0.093 0.32498,0.10843 0.32498,0.12386 0.32497,0.13926 0.32498,0.15464 0.32498,0.16999 0.32498,0.18531 0.32498,0.20059 0.32498,0.21584 0.32498,0.23103 0.32498,0.2462 0.32498,0.2613 0.32498,0.27636 0.32498,0.29138 0.32498,0.30632 0.32498,0.32122 0.32498,0.33605 0.32498,0.35081 0.32498,0.36552 0.32498,0.38016 0.32498,0.39471 0.32498,0.4092 0.32498,0.4236 0.32498,0.43793 0.32498,0.45218 0.32497,0.46634 0.32498,0.48041 0.32498,0.49439 0.32498,0.50828 0.32498,0.52207 0.32498,0.53577 0.32498,0.54936 0.32498,0.56285 0.32498,0.57625 0.32498,0.58952 0.32498,0.60269 0.32498,0.61576 0.32498,0.62869 0.32498,0.64153 0.32498,0.65424 0.32498,0.66682 0.32498,0.6793 0.32498,0.69163 0.32498,0.70386 0.32498,0.71594 0.32498,0.7279 0.32497,0.73972 0.32498,0.75142 0.32498,0.76297 0.32498,0.77439 0.32498,0.78567 0.32498,0.79681 0.32498,0.8078 0.32498,0.81865 0.32498,0.82936 0.32498,0.83991 0.32498,0.85032 0.32498,0.86059 0.32498,0.87069 0.32498,0.88064 0.32498,0.89044 0.32498,0.90009 0.32498,0.90958 0.32498,0.91891 0.32498,0.92808 0.32498,0.93709 0.32498,0.94594 0.32497,0.95464 0.32498,0.96316 0.32498,0.97152 0.32498,0.97972 0.32498,0.98775 0.32498,0.99563 0.32498,1.00332 0.32498,1.01086 0.32498,1.01822 0.32498,1.02542 0.32498,1.03245 0.32498,1.0393 0.32498,1.046 0.32498,1.05252 0.32498,1.05886 0.32498,1.06504 0.32498,1.07105 0.32498,1.07689 0.32498,1.08255 0.32498,1.08804 0.32498,1.09336 0.32497,1.09852 0.32498,1.10349 0.32498,1.1083 0.32498,1.11294 0.32498,1.1174 0.32498,1.12169 0.32498,1.12582 0.32498,1.12978 0.32498,1.13355 0.32498,1.13718 0.32498,1.14061 0.32498,1.14389 0.32498,1.147 0.32498,1.14994 0.32498,1.15272 0.32498,1.15531 0.32498,1.15777 0.32498,1.16003 0.32498,1.16215 0.32498,1.16409 0.32498,1.16588 0.32497,1.16751 0.32498,1.16896 0.32498,1.17027 0.32498,1.17141 0.32498,1.17239 0.32498,1.17322 0.32498,1.17389 0.32498,1.17441 0.32498,1.17476 0.32498,1.17498 0.32498,1.17503 0.32498,1.17494 0.32498,1.17469 0.32498,1.17431 0.32498,1.17376 0.32498,1.17309 0.32498,1.17225 0.32498,1.17129 0.32498,1.17017 0.32498,1.16892 0.32498,1.16753 0.32497,1.166 0.32499,1.16434 0.32497,1.16254 0.32498,1.16061 0.32498,1.15855 0.32498,1.15636 0.32498,1.15405 0.32498,1.15159 0.32498,1.14903 0.32498,1.14634 0.32498,1.14352 0.32498,1.14059 0.32498,1.13753 0.32498,1.13437 0.32498,1.13109 0.32498,1.12769 0.32498,1.12418 0.32498,1.12057 0.32498,1.11684 0.32498,1.11301 0.32498,1.10908 0.32497,1.10504 0.32499,1.1009 0.32497,1.09667 0.32498,1.09234 0.32498,1.0879 0.32498,1.08339 0.32498,1.07877 0.32498,1.07407 0.32498,1.06928 0.32498,1.06441 0.32498,1.05944 0.32498,1.0544 0.32498,1.04928 0.32498,1.04407 0.32498,1.0388 0.32498,1.03344 0.32498,1.02802 0.32498,1.02252 0.32498,1.01695 0.32498,1.01132 0.32498,1.00561 0.32497,0.99985 0.32499,0.99403 0.32497,0.98813 0.32498,0.98219 0.32498,0.97619 0.32498,0.97014 0.32498,0.96402 0.32498,0.95786 0.32498,0.95166 0.32498,0.94539 0.32498,0.93909 0.32498,0.93274 0.32498,0.92635 0.32498,0.91992 0.32498,0.91345 0.32498,0.90694 0.32498,0.90039 0.32498,0.89382 0.32498,0.88721 0.32498,0.88058 0.32498,0.8739 0.32498,0.8672 0.32497,0.86049 0.32498,0.85374 0.32498,0.84697 0.32498,0.84018 0.32498,0.83338 0.32498,0.82655 0.32498,0.81971 0.32498,0.81285 0.32498,0.80598 0.32498,0.7991 0.32498,0.7922 0.32498,0.78531 0.32498,0.7784 0.32498,0.77149 0.32498,0.76457 0.32498,0.75765 0.32498,0.75072 0.32498,0.74381 0.32498,0.73687 0.32498,0.72997 0.32498,0.72304 0.32497,0.71613 0.32498,0.709227 0.32498,0.702329 0.32498,0.695438 0.32498,0.688558 0.32498,0.68169 0.32498,0.674832 0.32498,0.667988 0.32498,0.661158 0.32498,0.654345 0.32498,0.647546 0.32498,0.640766 0.32498,0.634005 0.32498,0.627262 0.32498,0.620541 0.32498,0.61384 0.32498,0.607163 0.32498,0.600509 0.32498,0.59388 0.32498,0.587274 0.32498,0.580697 0.32497,0.574145 0.32498,0.567621 0.32498,0.561127 0.32498,0.55466 0.32498,0.548226 0.32498,0.541821 0.32498,0.535449 0.32498,0.529109 v 32.871864 0 h -0.32498 -0.32498 -0.32498 -0.32498 -0.32498 -0.32498 -0.32498 -0.32497 -0.32498 -0.32498 -0.32498 -0.32498 -0.32498 -0.32498 -0.32498 -0.32498 -0.32498 -0.32498 -0.32498 -0.32498 -0.32498 -0.32498 -0.32498 -0.32498 -0.32498 -0.32498 -0.32498 -0.32498 -0.32497 -0.32498 -0.32498 -0.32498 -0.32498 -0.32498 -0.32498 -0.32498 -0.32498 -0.32498 -0.32498 -0.32498 -0.32498 -0.32498 -0.32498 -0.32498 -0.32498 -0.32498 -0.32498 -0.32498 -0.32498 -0.32497 -0.32498 -0.32498 -0.32498 -0.32498 -0.32498 -0.32498 -0.32498 -0.32498 -0.32498 -0.32498 -0.32498 -0.32498 -0.32498 -0.32498 -0.32498 -0.32498 -0.32498 -0.32498 -0.32498 -0.32497 -0.32499 -0.32497 -0.32498 -0.32498 -0.32498 -0.32498 -0.32498 -0.32498 -0.32498 -0.32498 -0.32498 -0.32498 -0.32498 -0.32498 -0.32498 -0.32498 -0.32498 -0.32498 -0.32498 -0.32498 -0.32497 -0.32499 -0.32497 -0.32498 -0.32498 -0.32498 -0.32498 -0.32498 -0.32498 -0.32498 -0.32498 -0.32498 -0.32498 -0.32498 -0.32498 -0.32498 -0.32498 -0.32498 -0.32498 -0.32498 -0.32498 -0.32497 -0.32499 -0.32497 -0.32498 -0.32498 -0.32498 -0.32498 -0.32498 -0.32498 -0.32498 -0.32498 -0.32498 -0.32498 -0.32498 -0.32498 -0.32498 -0.32498 -0.32498 -0.32498 -0.32498 -0.32498 -0.32498 -0.32498 -0.32497 -0.32498 -0.32498 -0.32498 -0.32498 -0.32498 -0.32498 -0.32498 -0.32498 -0.32498 -0.32498 -0.32498 -0.32498 -0.32498 -0.32498 -0.32498 -0.32498 -0.32498 -0.32498 -0.32498 -0.32498 -0.32497 -0.32498 -0.32498 -0.32498 -0.32498 -0.32498 -0.32498 -0.32498 -0.32498 -0.32498 -0.32498 -0.32498 -0.32498 -0.32498 -0.32498 -0.32498 -0.32498 -0.32498 -0.32498 -0.32498 -0.32498 -0.32497 -0.32498 -0.32498 -0.32498 -0.32498 -0.32498 -0.32498 -0.32498 -0.32498 -0.32498 -0.32498 -0.32498 -0.32498 -0.32498 -0.32498 -0.32498 -0.32498 -0.32498 -0.32498 -0.32498 -0.32498 -0.32497 -0.32498 -0.32498 -0.32498 -0.32498 -0.32498 -0.32498 -0.32498 -0.32498 -0.32498 -0.32498 -0.32498 -0.32498 -0.32498 -0.32498 -0.32498 -0.32498 -0.32498 -0.32498 -0.32498 -0.32498 -0.32497 -0.32498 -0.32498 -0.32498 -0.32498 -0.32498 -0.32498 -0.32498 -0.32498 -0.32498 -0.32498 -0.32498 -0.32498 -0.32498 -0.32498 -0.32498 -0.32498 -0.32498 -0.32498 -0.32498 -0.32498 -0.32498 -0.32497 -0.32498 -0.32498 -0.32498 -0.32498 -0.32498 -0.32498 -0.32498 -0.32498 -0.32498 -0.32498 -0.32498 -0.32498 -0.32498 -0.32498 -0.32498 -0.32498 -0.32498 -0.32498 -0.32498 -0.32498 -0.32497 -0.32498 -0.32498 -0.32498 -0.32498 -0.32498 -0.32498 -0.32498 -0.32498 -0.32498 -0.32498 -0.32498 -0.32498 -0.32498 -0.32498 -0.32498 -0.32498 -0.32498 -0.32498 -0.32498 -0.32498 -0.32497 -0.32498 -0.32498 -0.32498 -0.32498 -0.32498 -0.32498 -0.32498 -0.32498 -0.32498 -0.32498 -0.32498 -0.32498 -0.32498 -0.32498 -0.32498 -0.32498 -0.32498 -0.32498 -0.32498 -0.32498 -0.32497 -0.32498 -0.32498 -0.32498 -0.32498 -0.32498 -0.32498 -0.32498 -0.32498 -0.32498 -0.32498 -0.32498 -0.32498 -0.32498 -0.32498 -0.32498 -0.32498 -0.32498 -0.32498 -0.32498 -0.32498 -0.32497 -0.32498 -0.32498 -0.32498 -0.32498 -0.32498 -0.32498 -0.32498 -0.32498 -0.32498 -0.32498 -0.32498 -0.32498 -0.32498 -0.32498 -0.32498 -0.32498 -0.32498 -0.32498 -0.32498 -0.32498 -0.32497 -0.32498 -0.32498 -0.32498 -0.32498 -0.32498 -0.32498 -0.32498 -0.32498 -0.32498 -0.32498 -0.32498 -0.32498 -0.32498 -0.32498 -0.32498 -0.32498 -0.32498 -0.32498 -0.32498 -0.32498 -0.32497 -0.32498 -0.32498 -0.32498 -0.32498 -0.32498 -0.32498 -0.32498 -0.32498 -0.32498 -0.32498 -0.32498 -0.32498 -0.32498 -0.32498 -0.32498 -0.32498 -0.32498 -0.32498 -0.32498 -0.32498 -0.32497 -0.32498 -0.32498 -0.32498 -0.32498 -0.32498 -0.32498 -0.32498 -0.32498 -0.32498 -0.32498 -0.32498 -0.32498 -0.32498 -0.32498 -0.32498 -0.32498 -0.32498 -0.32498 -0.32498 -0.32498 -0.32497 -0.32498 -0.32498 -0.32498 -0.32498 -0.32498 -0.32498 -0.32498 -0.32498 -0.32498 -0.32498 -0.32498 -0.32498 -0.32498 -0.32498 -0.32498 -0.32498 -0.32498 -0.32498 -0.32498 -0.32498 -0.32497 -0.32498 -0.32498 -0.32498 -0.32498 -0.32498 -0.32498 -0.32498 -0.32498 -0.32498 -0.32498 -0.32498 -0.32498 -0.32498 -0.32498 -0.32498 -0.32498 -0.32498 -0.32498 -0.32498 -0.32498 -0.32497 -0.32498 -0.32498 -0.32498 -0.32498 -0.32498 -0.32498 -0.32498 -0.32498 -0.32498 -0.32498 -0.32498 -0.32498 -0.32498 -0.32498 -0.32498 -0.32498 -0.32498 -0.32498 -0.32498 -0.32498 -0.32497 -0.32498 -0.32498 -0.32498 -0.32498 -0.32498 -0.32498 -0.32498 -0.32498 -0.32498 -0.32498 -0.32498 -0.32498 -0.32498 -0.32498 -0.32498 -0.32498 -0.32498 -0.32498 -0.32498 -0.32498 -0.32497 -0.32498 -0.32498 -0.32498 -0.32498 -0.32498 z"
             style="stroke:#002d8b;stroke-opacity:0.5" />
        </defs>
        <g
           clip-path="url(#p62bcd2657d-5)"
           id="g6957"
           style="font-variation-settings:normal;vector-effect:none;fill:#ffffff;fill-opacity:0.728387;stroke-width:0.990824;stroke-linecap:butt;stroke-linejoin:round;stroke-miterlimit:4;stroke-dasharray:none;stroke-dashoffset:0;stroke-opacity:1;-inkscape-stroke:none;stop-color:#000000;stop-opacity:1">
          <path
             id="use6955"
             d="m 155.07761,295.48801 v -32.87187 l 0.32498,-0.52911 0.32498,-0.53545 0.32498,-0.54182 0.32498,-0.54822 0.32498,-0.55466 0.32498,-0.56113 0.32497,-0.56762 0.32498,-0.57415 0.32498,-0.58069 0.32498,-0.58728 0.32498,-0.59388 0.32498,-0.60051 0.32498,-0.60716 0.32498,-0.61384 0.32498,-0.62054 0.32498,-0.62726 0.32498,-0.63401 0.32498,-0.64076 0.32498,-0.64755 0.32498,-0.65434 0.32498,-0.66116 0.32498,-0.66799 0.32498,-0.67483 0.32498,-0.68169 0.32498,-0.68856 0.32498,-0.69544 0.32498,-0.70233 0.32497,-0.70922 0.32498,-0.71613 0.32498,-0.72304 0.32498,-0.72997 0.32498,-0.73687 0.32498,-0.74381 0.32498,-0.75072 0.32498,-0.75765 0.32498,-0.76457 0.32498,-0.77149 0.32498,-0.7784 0.32498,-0.78531 0.32498,-0.7922 0.32498,-0.7991 0.32498,-0.80598 0.32498,-0.81285 0.32498,-0.81971 0.32498,-0.82655 0.32498,-0.83338 0.32498,-0.84018 0.32498,-0.84697 0.32497,-0.85374 0.32498,-0.86049 0.32498,-0.8672 0.32498,-0.8739 0.32498,-0.88058 0.32498,-0.88721 0.32498,-0.89382 0.32498,-0.90039 0.32498,-0.90694 0.32498,-0.91345 0.32498,-0.91992 0.32498,-0.92635 0.32498,-0.93274 0.32498,-0.93909 0.32498,-0.94539 0.32498,-0.95166 0.32498,-0.95786 0.32498,-0.96402 0.32498,-0.97014 0.32498,-0.97619 0.32498,-0.98219 0.32497,-0.98813 0.32498,-0.99403 0.32498,-0.99985 0.32498,-1.00561 0.32498,-1.01132 0.32498,-1.01695 0.32498,-1.02252 0.32498,-1.02802 0.32498,-1.03344 0.32498,-1.0388 0.32498,-1.04407 0.32498,-1.04928 0.32498,-1.0544 0.32498,-1.05944 0.32498,-1.06441 0.32498,-1.06928 0.32498,-1.07407 0.32498,-1.07877 0.32498,-1.08339 0.32498,-1.0879 0.32498,-1.09234 0.32497,-1.09667 0.32498,-1.1009 0.32498,-1.10504 0.32498,-1.10908 0.32498,-1.11301 0.32498,-1.11684 0.32498,-1.12057 0.32498,-1.12418 0.32498,-1.12769 0.32498,-1.13109 0.32498,-1.13437 0.32498,-1.13753 0.32498,-1.14059 0.32498,-1.14352 0.32498,-1.14634 0.32498,-1.14903 0.32498,-1.15159 0.32498,-1.15405 0.32498,-1.15636 0.32498,-1.15855 0.32498,-1.16061 0.32497,-1.16254 0.32498,-1.16434 0.32498,-1.166 0.32498,-1.16753 0.32498,-1.16892 0.32498,-1.17017 0.32498,-1.17129 0.32498,-1.17225 0.32498,-1.17309 0.32498,-1.17376 0.32498,-1.17431 0.32498,-1.17469 0.32498,-1.17494 0.32498,-1.17503 0.32498,-1.17498 0.32498,-1.17476 0.32498,-1.17441 0.32498,-1.17389 0.32498,-1.17322 0.32498,-1.17239 0.32498,-1.17141 0.32497,-1.17027 0.32498,-1.16896 0.32498,-1.16751 0.32498,-1.16588 0.32498,-1.16409 0.32498,-1.16215 0.32498,-1.16003 0.32498,-1.15777 0.32498,-1.15531 0.32498,-1.15272 0.32498,-1.14994 0.32498,-1.147 0.32498,-1.14389 0.32498,-1.14061 0.32498,-1.13718 0.32498,-1.13355 0.32498,-1.12978 0.32498,-1.12582 0.32498,-1.12169 0.32498,-1.1174 0.32498,-1.11294 0.32497,-1.1083 0.32498,-1.10349 0.32498,-1.09852 0.32498,-1.09336 0.32498,-1.08804 0.32498,-1.08255 0.32498,-1.07689 0.32498,-1.07105 0.32498,-1.06504 0.32498,-1.05886 0.32498,-1.05252 0.32498,-1.046 0.32498,-1.0393 0.32498,-1.03245 0.32498,-1.025424 0.32498,-1.01822 0.32498,-1.01086 0.32498,-1.00332 0.32498,-0.99563 0.32498,-0.98775 0.32498,-0.97972 0.32497,-0.97152 0.32498,-0.96316 0.32498,-0.95464 0.32498,-0.94594 0.32498,-0.93709 0.32498,-0.92808 0.32498,-0.91891 0.32498,-0.90958 0.32498,-0.90009 0.32498,-0.89044 0.32498,-0.88064 0.32498,-0.87069 0.32498,-0.86059 0.32498,-0.85032 0.32498,-0.83991 0.32498,-0.82936 0.32498,-0.81865 0.32498,-0.8078 0.32498,-0.79681 0.32498,-0.78567 0.32498,-0.77439 0.32497,-0.76297 0.32498,-0.75142 0.32498,-0.73972 0.32498,-0.7279 0.32498,-0.71594 0.32498,-0.70386 0.32498,-0.69163 0.32498,-0.6793 0.32498,-0.66682 0.32498,-0.65424 0.32498,-0.64153 0.32498,-0.62869 0.32498,-0.61576 0.32498,-0.60269 0.32498,-0.58952 0.32498,-0.57625 0.32498,-0.56285 0.32498,-0.54936 0.32498,-0.53577 0.32498,-0.52207 0.32498,-0.50828 0.32497,-0.49439 0.32498,-0.48041 0.32498,-0.46634 0.32498,-0.45218 0.32498,-0.43793 0.32498,-0.4236 0.32498,-0.4092 0.32498,-0.39471 0.32498,-0.38016 0.32498,-0.36552 0.32498,-0.35081 0.32498,-0.33605 0.32498,-0.32122 0.32498,-0.30632 0.32498,-0.29138 0.32498,-0.27636 0.32498,-0.2613 0.32498,-0.2462 0.32498,-0.23103 0.32498,-0.21584 0.32498,-0.20059 0.32497,-0.18531 0.32498,-0.16999 0.32498,-0.15464 0.32498,-0.13926 0.32498,-0.12386 0.32498,-0.10843 0.32498,-0.093 0.32498,-0.0775 0.32498,-0.062 0.32498,-0.0465 0.32498,-0.031 0.32498,-0.0155 h 0.32498 l 0.32498,0.0155 0.32498,0.031 0.32498,0.0465 0.32498,0.062 0.32498,0.0775 0.32498,0.093 0.32498,0.10843 0.32498,0.12386 0.32497,0.13926 0.32498,0.15464 0.32498,0.16999 0.32498,0.18531 0.32498,0.20059 0.32498,0.21584 0.32498,0.23103 0.32498,0.2462 0.32498,0.2613 0.32498,0.27636 0.32498,0.29138 0.32498,0.30632 0.32498,0.32122 0.32498,0.33605 0.32498,0.35081 0.32498,0.36552 0.32498,0.38016 0.32498,0.39471 0.32498,0.4092 0.32498,0.4236 0.32498,0.43793 0.32498,0.45218 0.32497,0.46634 0.32498,0.48041 0.32498,0.49439 0.32498,0.50828 0.32498,0.52207 0.32498,0.53577 0.32498,0.54936 0.32498,0.56285 0.32498,0.57625 0.32498,0.58952 0.32498,0.60269 0.32498,0.61576 0.32498,0.62869 0.32498,0.64153 0.32498,0.65424 0.32498,0.66682 0.32498,0.6793 0.32498,0.69163 0.32498,0.70386 0.32498,0.71594 0.32498,0.7279 0.32497,0.73972 0.32498,0.75142 0.32498,0.76297 0.32498,0.77439 0.32498,0.78567 0.32498,0.79681 0.32498,0.8078 0.32498,0.81865 0.32498,0.82936 0.32498,0.83991 0.32498,0.85032 0.32498,0.86059 0.32498,0.87069 0.32498,0.88064 0.32498,0.89044 0.32498,0.90009 0.32498,0.90958 0.32498,0.91891 0.32498,0.92808 0.32498,0.93709 0.32498,0.94594 0.32497,0.95464 0.32498,0.96316 0.32498,0.97152 0.32498,0.97972 0.32498,0.98775 0.32498,0.99563 0.32498,1.00332 0.32498,1.01086 0.32498,1.01822 0.32498,1.025424 0.32498,1.03245 0.32498,1.0393 0.32498,1.046 0.32498,1.05252 0.32498,1.05886 0.32498,1.06504 0.32498,1.07105 0.32498,1.07689 0.32498,1.08255 0.32498,1.08804 0.32498,1.09336 0.32497,1.09852 0.32498,1.10349 0.32498,1.1083 0.32498,1.11294 0.32498,1.1174 0.32498,1.12169 0.32498,1.12582 0.32498,1.12978 0.32498,1.13355 0.32498,1.13718 0.32498,1.14061 0.32498,1.14389 0.32498,1.147 0.32498,1.14994 0.32498,1.15272 0.32498,1.15531 0.32498,1.15777 0.32498,1.16003 0.32498,1.16215 0.32498,1.16409 0.32498,1.16588 0.32497,1.16751 0.32498,1.16896 0.32498,1.17027 0.32498,1.17141 0.32498,1.17239 0.32498,1.17322 0.32498,1.17389 0.32498,1.17441 0.32498,1.17476 0.32498,1.17498 0.32498,1.17503 0.32498,1.17494 0.32498,1.17469 0.32498,1.17431 0.32498,1.17376 0.32498,1.17309 0.32498,1.17225 0.32498,1.17129 0.32498,1.17017 0.32498,1.16892 0.32498,1.16753 0.32497,1.166 0.32499,1.16434 0.32497,1.16254 0.32498,1.16061 0.32498,1.15855 0.32498,1.15636 0.32498,1.15405 0.32498,1.15159 0.32498,1.14903 0.32498,1.14634 0.32498,1.14352 0.32498,1.14059 0.32498,1.13753 0.32498,1.13437 0.32498,1.13109 0.32498,1.12769 0.32498,1.12418 0.32498,1.12057 0.32498,1.11684 0.32498,1.11301 0.32498,1.10908 0.32497,1.10504 0.32499,1.1009 0.32497,1.09667 0.32498,1.09234 0.32498,1.0879 0.32498,1.08339 0.32498,1.07877 0.32498,1.07407 0.32498,1.06928 0.32498,1.06441 0.32498,1.05944 0.32498,1.0544 0.32498,1.04928 0.32498,1.04407 0.32498,1.0388 0.32498,1.03344 0.32498,1.02802 0.32498,1.02252 0.32498,1.01695 0.32498,1.01132 0.32498,1.00561 0.32497,0.99985 0.32499,0.99403 0.32497,0.98813 0.32498,0.98219 0.32498,0.97619 0.32498,0.97014 0.32498,0.96402 0.32498,0.95786 0.32498,0.95166 0.32498,0.94539 0.32498,0.93909 0.32498,0.93274 0.32498,0.92635 0.32498,0.91992 0.32498,0.91345 0.32498,0.90694 0.32498,0.90039 0.32498,0.89382 0.32498,0.88721 0.32498,0.88058 0.32498,0.8739 0.32498,0.8672 0.32497,0.86049 0.32498,0.85374 0.32498,0.84697 0.32498,0.84018 0.32498,0.83338 0.32498,0.82655 0.32498,0.81971 0.32498,0.81285 0.32498,0.80598 0.32498,0.7991 0.32498,0.7922 0.32498,0.78531 0.32498,0.7784 0.32498,0.77149 0.32498,0.76457 0.32498,0.75765 0.32498,0.75072 0.32498,0.74381 0.32498,0.73687 0.32498,0.72997 0.32498,0.72304 0.32497,0.71613 0.32498,0.70922 0.32498,0.70233 0.32498,0.69544 0.32498,0.68856 0.32498,0.68169 0.32498,0.67483 0.32498,0.66799 0.32498,0.66116 0.32498,0.65434 0.32498,0.64755 0.32498,0.64076 0.32498,0.63401 0.32498,0.62726 0.32498,0.62054 0.32498,0.61384 0.32498,0.60716 0.32498,0.60051 0.32498,0.59388 0.32498,0.58728 0.32498,0.58069 0.32497,0.57415 0.32498,0.56762 0.32498,0.56113 0.32498,0.55466 0.32498,0.54822 0.32498,0.54182 0.32498,0.53545 0.32498,0.52911 v 32.87187 0 h -0.32498 -0.32498 -0.32498 -0.32498 -0.32498 -0.32498 -0.32498 -0.32497 -0.32498 -0.32498 -0.32498 -0.32498 -0.32498 -0.32498 -0.32498 -0.32498 -0.32498 -0.32498 -0.32498 -0.32498 -0.32498 -0.32498 -0.32498 -0.32498 -0.32498 -0.32498 -0.32498 -0.32498 -0.32497 -0.32498 -0.32498 -0.32498 -0.32498 -0.32498 -0.32498 -0.32498 -0.32498 -0.32498 -0.32498 -0.32498 -0.32498 -0.32498 -0.32498 -0.32498 -0.32498 -0.32498 -0.32498 -0.32498 -0.32498 -0.32497 -0.32498 -0.32498 -0.32498 -0.32498 -0.32498 -0.32498 -0.32498 -0.32498 -0.32498 -0.32498 -0.32498 -0.32498 -0.32498 -0.32498 -0.32498 -0.32498 -0.32498 -0.32498 -0.32498 -0.32497 -0.32499 -0.32497 -0.32498 -0.32498 -0.32498 -0.32498 -0.32498 -0.32498 -0.32498 -0.32498 -0.32498 -0.32498 -0.32498 -0.32498 -0.32498 -0.32498 -0.32498 -0.32498 -0.32498 -0.32498 -0.32497 -0.32499 -0.32497 -0.32498 -0.32498 -0.32498 -0.32498 -0.32498 -0.32498 -0.32498 -0.32498 -0.32498 -0.32498 -0.32498 -0.32498 -0.32498 -0.32498 -0.32498 -0.32498 -0.32498 -0.32498 -0.32497 -0.32499 -0.32497 -0.32498 -0.32498 -0.32498 -0.32498 -0.32498 -0.32498 -0.32498 -0.32498 -0.32498 -0.32498 -0.32498 -0.32498 -0.32498 -0.32498 -0.32498 -0.32498 -0.32498 -0.32498 -0.32498 -0.32498 -0.32497 -0.32498 -0.32498 -0.32498 -0.32498 -0.32498 -0.32498 -0.32498 -0.32498 -0.32498 -0.32498 -0.32498 -0.32498 -0.32498 -0.32498 -0.32498 -0.32498 -0.32498 -0.32498 -0.32498 -0.32498 -0.32497 -0.32498 -0.32498 -0.32498 -0.32498 -0.32498 -0.32498 -0.32498 -0.32498 -0.32498 -0.32498 -0.32498 -0.32498 -0.32498 -0.32498 -0.32498 -0.32498 -0.32498 -0.32498 -0.32498 -0.32498 -0.32497 -0.32498 -0.32498 -0.32498 -0.32498 -0.32498 -0.32498 -0.32498 -0.32498 -0.32498 -0.32498 -0.32498 -0.32498 -0.32498 -0.32498 -0.32498 -0.32498 -0.32498 -0.32498 -0.32498 -0.32498 -0.32497 -0.32498 -0.32498 -0.32498 -0.32498 -0.32498 -0.32498 -0.32498 -0.32498 -0.32498 -0.32498 -0.32498 -0.32498 -0.32498 -0.32498 -0.32498 -0.32498 -0.32498 -0.32498 -0.32498 -0.32498 -0.32497 -0.32498 -0.32498 -0.32498 -0.32498 -0.32498 -0.32498 -0.32498 -0.32498 -0.32498 -0.32498 -0.32498 -0.32498 -0.32498 -0.32498 -0.32498 -0.32498 -0.32498 -0.32498 -0.32498 -0.32498 -0.32498 -0.32497 -0.32498 -0.32498 -0.32498 -0.32498 -0.32498 -0.32498 -0.32498 -0.32498 -0.32498 -0.32498 -0.32498 -0.32498 -0.32498 -0.32498 -0.32498 -0.32498 -0.32498 -0.32498 -0.32498 -0.32498 -0.32497 -0.32498 -0.32498 -0.32498 -0.32498 -0.32498 -0.32498 -0.32498 -0.32498 -0.32498 -0.32498 -0.32498 -0.32498 -0.32498 -0.32498 -0.32498 -0.32498 -0.32498 -0.32498 -0.32498 -0.32498 -0.32497 -0.32498 -0.32498 -0.32498 -0.32498 -0.32498 -0.32498 -0.32498 -0.32498 -0.32498 -0.32498 -0.32498 -0.32498 -0.32498 -0.32498 -0.32498 -0.32498 -0.32498 -0.32498 -0.32498 -0.32498 -0.32497 -0.32498 -0.32498 -0.32498 -0.32498 -0.32498 -0.32498 -0.32498 -0.32498 -0.32498 -0.32498 -0.32498 -0.32498 -0.32498 -0.32498 -0.32498 -0.32498 -0.32498 -0.32498 -0.32498 -0.32498 -0.32497 -0.32498 -0.32498 -0.32498 -0.32498 -0.32498 -0.32498 -0.32498 -0.32498 -0.32498 -0.32498 -0.32498 -0.32498 -0.32498 -0.32498 -0.32498 -0.32498 -0.32498 -0.32498 -0.32498 -0.32498 -0.32497 -0.32498 -0.32498 -0.32498 -0.32498 -0.32498 -0.32498 -0.32498 -0.32498 -0.32498 -0.32498 -0.32498 -0.32498 -0.32498 -0.32498 -0.32498 -0.32498 -0.32498 -0.32498 -0.32498 -0.32498 -0.32497 -0.32498 -0.32498 -0.32498 -0.32498 -0.32498 -0.32498 -0.32498 -0.32498 -0.32498 -0.32498 -0.32498 -0.32498 -0.32498 -0.32498 -0.32498 -0.32498 -0.32498 -0.32498 -0.32498 -0.32498 -0.32497 -0.32498 -0.32498 -0.32498 -0.32498 -0.32498 -0.32498 -0.32498 -0.32498 -0.32498 -0.32498 -0.32498 -0.32498 -0.32498 -0.32498 -0.32498 -0.32498 -0.32498 -0.32498 -0.32498 -0.32498 -0.32497 -0.32498 -0.32498 -0.32498 -0.32498 -0.32498 -0.32498 -0.32498 -0.32498 -0.32498 -0.32498 -0.32498 -0.32498 -0.32498 -0.32498 -0.32498 -0.32498 -0.32498 -0.32498 -0.32498 -0.32498 -0.32497 -0.32498 -0.32498 -0.32498 -0.32498 -0.32498 -0.32498 -0.32498 -0.32498 -0.32498 -0.32498 -0.32498 -0.32498 -0.32498 -0.32498 -0.32498 -0.32498 -0.32498 -0.32498 -0.32498 -0.32498 -0.32497 -0.32498 -0.32498 -0.32498 -0.32498 -0.32498 -0.32498 -0.32498 -0.32498 -0.32498 -0.32498 -0.32498 -0.32498 -0.32498 -0.32498 -0.32498 -0.32498 -0.32498 -0.32498 -0.32498 -0.32498 -0.32497 -0.32498 -0.32498 -0.32498 -0.32498 -0.32498 -0.32498 -0.32498 -0.32498 -0.32498 -0.32498 -0.32498 -0.32498 -0.32498 -0.32498 -0.32498 -0.32498 -0.32498 -0.32498 -0.32498 -0.32498 -0.32497 -0.32498 -0.32498 -0.32498 -0.32498 -0.32498 z"
             style="font-variation-settings:normal;fill:#ffffff;fill-opacity:0.728387;stroke:#002d8b;stroke-width:0.990824;stroke-linecap:butt;stroke-linejoin:round;stroke-miterlimit:4;stroke-dasharray:none;stroke-dashoffset:0;stroke-opacity:0.5" />
        </g>
      </g>
      <g
         id="line2d_37-7"
         transform="matrix(0.26597965,0,0,0.26608934,10.705893,-14.309656)"
         style="font-variation-settings:normal;opacity:1;vector-effect:none;fill:none;fill-opacity:1;stroke:#ffffff;stroke-width:4.37537;stroke-linecap:square;stroke-linejoin:round;stroke-miterlimit:4;stroke-dasharray:4.37537003,8.75074005;stroke-dashoffset:0;stroke-opacity:1;-inkscape-stroke:none;stop-color:#000000;stop-opacity:1">
        <path
           d="m 73.832727,295.40684 13.97412,-0.22206 8.774447,-0.34973 6.499586,-0.46532 5.52466,-0.61315 4.54971,-0.71601 4.22473,-0.88988 3.57478,-0.96483 3.57477,-1.2009 3.2498,-1.33413 2.92481,-1.42972 2.92482,-1.67689 2.92482,-1.95507 2.59983,-1.99758 2.59984,-2.26646 2.59983,-2.55912 2.59984,-2.87549 2.59984,-3.21508 2.59983,-3.57694 2.59984,-3.95954 2.59983,-4.36082 2.59984,-4.77805 2.59984,-5.2079 2.92481,-6.38325 2.92482,-6.94325 2.92481,-7.49985 3.2498,-8.96976 3.24979,-9.60742 3.57478,-11.24388 4.22473,-14.07569 4.8747,-17.04676 16.24897,-57.58183 3.57478,-11.496611 2.92481,-8.738771 2.59984,-7.159013 2.59984,-6.502912 2.27485,-5.093446 1.94988,-3.886333 1.94988,-3.416443 1.94987,-2.923667 1.6249,-2.0456 1.6249,-1.679929 1.29992,-1.075233 1.29991,-0.832769 1.29992,-0.587754 1.29992,-0.340934 1.29992,-0.09307 1.29992,0.155089 1.29992,0.402767 1.29991,0.649206 1.29992,0.893653 1.29992,1.135363 1.6249,1.753758 1.6249,2.117626 1.62489,2.471489 1.94988,3.416443 1.94988,3.886333 2.27485,5.093446 2.27486,5.652589 2.59984,7.081256 2.92481,8.663528 3.2498,10.351989 3.89975,13.20005 5.52465,19.60664 11.37429,40.61942 4.54971,15.31227 3.89975,12.3637 3.57478,10.60144 3.2498,8.96976 3.24979,8.29895 2.92482,6.88102 2.92481,6.32121 2.92482,5.76745 2.59983,4.67242 2.59984,4.25888 2.59984,3.86205 2.59983,3.48447 2.59984,3.12805 2.59983,2.79419 2.59984,2.48372 2.59984,2.19702 2.59983,1.93404 2.92482,1.8905 2.92481,1.61934 2.92482,1.37882 3.2498,1.28487 3.57477,1.15479 3.57477,0.92633 4.22474,0.8529 4.54971,0.68496 5.19967,0.55695 6.17462,0.4363 7.7995,0.32199 11.04931,0.21231 3.89975,0.0375 v 0"
           clip-path="url(#p62bcd2657d-5)"
           style="font-variation-settings:normal;vector-effect:none;fill:none;fill-opacity:1;stroke:#ffffff;stroke-width:4.37537;stroke-linecap:square;stroke-linejoin:round;stroke-miterlimit:4;stroke-dasharray:4.37537003,8.75074005;stroke-dashoffset:0;stroke-opacity:1;-inkscape-stroke:none;stop-color:#000000;stop-opacity:1"
           id="path7304" />
      </g>
      <text
         xml:space="preserve"
         style="font-style:normal;font-variant:normal;font-weight:normal;font-stretch:normal;font-size:8.46667px;font-family:Chalkduster;-inkscape-font-specification:'Chalkduster, Normal';font-variant-ligatures:normal;font-variant-caps:normal;font-variant-numeric:normal;font-variant-east-asian:normal;fill:#000000;fill-opacity:0.728387;stroke:none;stroke-width:1.164;stroke-linecap:butt;stroke-linejoin:round;stroke-dasharray:none;stroke-opacity:1"
         x="64.201973"
         y="42.62199"
         id="text23155"
         inkscape:label="text23155"><tspan
           sodipodi:role="line"
           id="tspan35176"
           x="64.201973"
           y="42.62199">95%</tspan></text>
    </g>
    <g
       id="g28"
       transform="translate(-2.1908691)">
      <text
         xml:space="preserve"
         style="font-size:3.73396px;line-height:normal;font-family:Chalkduster;-inkscape-font-specification:'Chalkduster, Normal';text-align:start;text-decoration-color:#000000;writing-mode:lr-tb;direction:ltr;text-anchor:start;fill:#333333;fill-opacity:0.993535;stroke:none;stroke-width:0.459101;stroke-linejoin:round"
         x="99.185226"
         y="163.01167"
         id="text21"><tspan
           sodipodi:role="line"
           id="tspan21"
           style="fill:#333333;stroke:none;stroke-width:0.459101"
           x="99.185226"
           y="163.01167">Z =  1.959964</tspan></text>
      <text
         xml:space="preserve"
         style="font-size:2.12223px;line-height:normal;font-family:Chalkduster;-inkscape-font-specification:'Chalkduster, Normal';text-align:start;text-decoration-color:#000000;writing-mode:lr-tb;direction:ltr;text-anchor:start;fill:#333333;fill-opacity:0.993535;stroke:none;stroke-width:0.260934;stroke-linejoin:round"
         x="101.80557"
         y="164.2077"
         id="text21-6"><tspan
           sodipodi:role="line"
           id="tspan21-9"
           style="fill:#333333;stroke:none;stroke-width:0.260934"
           x="101.80557"
           y="164.2077">C</tspan></text>
    </g>
    <text
       xml:space="preserve"
       style="font-style:normal;font-variant:normal;font-weight:normal;font-stretch:normal;font-size:3.86956px;line-height:normal;font-family:Chalkduster;-inkscape-font-specification:'Chalkduster, Normal';font-variant-ligatures:normal;font-variant-position:normal;font-variant-caps:normal;font-variant-numeric:normal;font-variant-alternates:normal;font-variant-east-asian:normal;text-indent:0;text-align:start;text-decoration-line:none;text-decoration-style:solid;text-decoration-color:#000000;letter-spacing:normal;word-spacing:normal;text-transform:none;writing-mode:lr-tb;direction:ltr;text-orientation:mixed;dominant-baseline:auto;baseline-shift:baseline;white-space:normal;opacity:1;fill:#ffffff;fill-opacity:1;stroke:#ffffff;stroke-width:0.861999;stroke-linecap:butt;stroke-linejoin:round;stroke-miterlimit:4;stroke-dasharray:none;stroke-dashoffset:0;stroke-opacity:1;marker-end:url(#Triangle)"
       x="62.514004"
       y="124.74451"
       id="text48"><tspan
         sodipodi:role="line"
         id="tspan48"
         style="stroke-width:0.862" /></text>
    <g
       id="g1"
       transform="translate(39.510278,9.6634816)">
      <text
         xml:space="preserve"
         style="font-style:normal;font-variant:normal;font-weight:normal;font-stretch:normal;font-size:7.16157px;font-family:Chalkduster;-inkscape-font-specification:'Chalkduster, Normal';font-variant-ligatures:normal;font-variant-caps:normal;font-variant-numeric:normal;font-variant-east-asian:normal;fill:#ffffff;stroke:none;stroke-width:0.609132;stroke-linecap:butt;stroke-linejoin:round;stroke-dasharray:none;stroke-dashoffset:0"
         x="103.26453"
         y="87.515121"
         id="text2685"><tspan
           sodipodi:role="line"
           id="tspan1"
           x="103.26453"
           y="87.515121"
           style="stroke-width:0.609132">C = .95</tspan><tspan
           sodipodi:role="line"
           x="103.26453"
           y="96.548027"
           style="stroke-width:0.609132"
           id="tspan3"> = .05</tspan><tspan
           sodipodi:role="line"
           x="103.26453"
           y="105.49999"
           style="stroke-width:0.609132"
           id="tspan31">Z = -2.4063</tspan><tspan
           sodipodi:role="line"
           x="103.26453"
           y="114.45195"
           style="stroke-width:0.609132"
           id="tspan2" /></text>
    </g>
    <path
       style="fill:none;fill-opacity:0.993535;stroke:#ffffff;stroke-width:0.880533;stroke-linejoin:round;marker-end:url(#Triangle)"
       d="m 147.83388,131.05186 c 0,0 -7.71582,-3.65146 -15.2154,5.04397 -6.27361,7.27396 -15.6823,20.34591 -15.6823,20.34591"
       id="path15"
       sodipodi:nodetypes="csc" />
    <g
       id="g21"
       transform="matrix(0.75399169,0,0,0.75399169,19.125847,23.206797)">
      <g
         id="text_1"
         style="fill:#ffffff;stroke-linecap:butt;stroke-linejoin:round"
         transform="matrix(0.35277777,0,0,0.35277777,40.695386,80.211288)">
        <!-- 4 -->
        <g
           transform="matrix(0.1,0,0,-0.1,66.461634,322.18244)"
           id="g5"
           style="fill:#ffffff;stroke-linecap:butt;stroke-linejoin:round">
          <defs
             id="defs4">
            <path
               id="path16"
               d="M 678,2272 H 4684 V 1741 H 678 Z"
               transform="scale(0.015625)" />
            <path
               id="path17"
               d="M 2419,4116 825,1625 h 1594 z m -166,550 h 794 V 1625 h 666 V 1100 H 3047 V 0 H 2419 V 1100 H 313 v 609 z"
               transform="scale(0.015625)" />
          </defs>
          <use
             xlink:href="#DejaVuSans-2212"
             id="use4"
             style="fill:#ffffff;stroke-linecap:butt;stroke-linejoin:round" />
          <use
             xlink:href="#DejaVuSans-34"
             transform="translate(83.789062)"
             id="use5"
             style="fill:#ffffff;stroke-linecap:butt;stroke-linejoin:round" />
        </g>
      </g>
      <g
         id="text_2"
         style="fill:#ffffff;stroke-linecap:butt;stroke-linejoin:round"
         transform="matrix(0.35277777,0,0,0.35277777,40.695386,80.211288)">
        <!-- 3 -->
        <g
           transform="matrix(0.1,0,0,-0.1,107.04345,322.18244)"
           id="g8"
           style="fill:#ffffff;stroke-linecap:butt;stroke-linejoin:round">
          <defs
             id="defs6">
            <path
               id="path18"
               d="m 2597,2516 q 453,-97 707,-404 255,-306 255,-756 0,-690 -475,-1069 -475,-378 -1350,-378 -293,0 -604,58 -311,58 -642,174 v 609 q 262,-153 574,-231 313,-78 654,-78 593,0 904,234 311,234 311,681 0,413 -289,645 -289,233 -804,233 h -544 v 519 h 569 q 465,0 712,186 247,186 247,536 0,359 -255,551 -254,193 -729,193 -260,0 -557,-57 -297,-56 -653,-174 v 562 q 360,100 674,150 314,50 592,50 719,0 1137,-327 419,-326 419,-882 0,-388 -222,-655 -222,-267 -631,-370 z"
               transform="scale(0.015625)" />
          </defs>
          <use
             xlink:href="#DejaVuSans-2212"
             id="use7"
             style="fill:#ffffff;stroke-linecap:butt;stroke-linejoin:round" />
          <use
             xlink:href="#DejaVuSans-33"
             transform="translate(83.789062)"
             id="use8"
             style="fill:#ffffff;stroke-linecap:butt;stroke-linejoin:round" />
        </g>
      </g>
      <g
         id="text_3"
         style="fill:#ffffff;stroke-linecap:butt;stroke-linejoin:round"
         transform="matrix(0.35277777,0,0,0.35277777,40.695386,80.211288)">
        <!-- 2 -->
        <g
           transform="matrix(0.1,0,0,-0.1,147.62527,322.18244)"
           id="g11"
           style="fill:#ffffff;stroke-linecap:butt;stroke-linejoin:round">
          <defs
             id="defs9">
            <path
               id="path19"
               d="M 1228,531 H 3431 V 0 H 469 v 531 q 359,372 979,998 621,627 780,809 303,340 423,576 121,236 121,464 0,372 -261,606 -261,235 -680,235 -297,0 -627,-103 -329,-103 -704,-313 v 638 q 381,153 712,231 332,78 607,78 725,0 1156,-363 431,-362 431,-968 0,-288 -108,-546 -107,-257 -392,-607 -78,-91 -497,-524 Q 1991,1309 1228,531 Z"
               transform="scale(0.015625)" />
          </defs>
          <use
             xlink:href="#DejaVuSans-2212"
             id="use10"
             style="fill:#ffffff;stroke-linecap:butt;stroke-linejoin:round" />
          <use
             xlink:href="#DejaVuSans-32"
             transform="translate(83.789062)"
             id="use11"
             style="fill:#ffffff;stroke-linecap:butt;stroke-linejoin:round" />
        </g>
      </g>
      <g
         id="text_4"
         style="fill:#ffffff;stroke-linecap:butt;stroke-linejoin:round"
         transform="matrix(0.35277777,0,0,0.35277777,40.695386,80.211288)">
        <!-- 1 -->
        <g
           transform="matrix(0.1,0,0,-0.1,188.20709,322.18244)"
           id="g14"
           style="fill:#ffffff;stroke-linecap:butt;stroke-linejoin:round">
          <defs
             id="defs12">
            <path
               id="path20"
               d="M 794,531 H 1825 V 4091 L 703,3866 v 575 l 1116,225 h 631 V 531 H 3481 V 0 H 794 Z"
               transform="scale(0.015625)" />
          </defs>
          <use
             xlink:href="#DejaVuSans-2212"
             id="use13"
             style="fill:#ffffff;stroke-linecap:butt;stroke-linejoin:round" />
          <use
             xlink:href="#DejaVuSans-31"
             transform="translate(83.789062)"
             id="use14"
             style="fill:#ffffff;stroke-linecap:butt;stroke-linejoin:round" />
        </g>
      </g>
      <g
         id="text_5"
         style="fill:#ffffff;stroke-linecap:butt;stroke-linejoin:round"
         transform="matrix(0.35277777,0,0,0.35277777,40.695386,80.211288)">
        <!-- 0 -->
        <g
           transform="matrix(0.1,0,0,-0.1,232.97875,322.18244)"
           id="g16"
           style="fill:#ffffff;stroke-linecap:butt;stroke-linejoin:round">
          <defs
             id="defs15">
            <path
               id="path21"
               d="m 2034,4250 q -487,0 -733,-480 -245,-479 -245,-1442 0,-959 245,-1439 246,-480 733,-480 491,0 736,480 246,480 246,1439 0,963 -246,1442 -245,480 -736,480 z m 0,500 q 785,0 1199,-621 414,-620 414,-1801 0,-1178 -414,-1799 -414,-620 -1199,-620 -784,0 -1198,620 -414,621 -414,1799 0,1181 414,1801 414,621 1198,621 z"
               transform="scale(0.015625)" />
          </defs>
          <use
             xlink:href="#DejaVuSans-30"
             id="use16"
             style="fill:#ffffff;stroke-linecap:butt;stroke-linejoin:round" />
        </g>
      </g>
      <g
         id="text_6"
         style="fill:#ffffff;stroke-linecap:butt;stroke-linejoin:round"
         transform="matrix(0.35277777,0,0,0.35277777,40.695386,80.211288)">
        <!-- 1 -->
        <g
           transform="matrix(0.1,0,0,-0.1,273.56057,322.18244)"
           id="g18"
           style="fill:#ffffff;stroke-linecap:butt;stroke-linejoin:round">
          <use
             xlink:href="#DejaVuSans-31"
             id="use18"
             style="fill:#ffffff;stroke-linecap:butt;stroke-linejoin:round" />
        </g>
      </g>
      <g
         id="text_7"
         style="fill:#ffffff;stroke-linecap:butt;stroke-linejoin:round"
         transform="matrix(0.35277777,0,0,0.35277777,40.695386,80.211288)">
        <!-- 2 -->
        <g
           transform="matrix(0.1,0,0,-0.1,314.14239,322.18244)"
           id="g20"
           style="fill:#ffffff;stroke-linecap:butt;stroke-linejoin:round">
          <use
             xlink:href="#DejaVuSans-32"
             id="use20"
             style="fill:#ffffff;stroke-linecap:butt;stroke-linejoin:round" />
        </g>
      </g>
      <g
         id="text_8"
         style="fill:#ffffff;stroke-linecap:butt;stroke-linejoin:round"
         transform="matrix(0.35277777,0,0,0.35277777,40.695386,80.211288)">
        <!-- 3 -->
        <g
           transform="matrix(0.1,0,0,-0.1,354.7242,322.18244)"
           id="g22"
           style="fill:#ffffff;stroke-linecap:butt;stroke-linejoin:round">
          <use
             xlink:href="#DejaVuSans-33"
             id="use22"
             style="fill:#ffffff;stroke-linecap:butt;stroke-linejoin:round" />
        </g>
      </g>
      <g
         id="text_9"
         style="fill:#ffffff;stroke-linecap:butt;stroke-linejoin:round"
         transform="matrix(0.35277777,0,0,0.35277777,40.695386,80.211288)">
        <!-- 4 -->
        <g
           transform="matrix(0.1,0,0,-0.1,395.30602,322.18244)"
           id="g24"
           style="fill:#ffffff;stroke-linecap:butt;stroke-linejoin:round">
          <use
             xlink:href="#DejaVuSans-34"
             id="use24"
             style="fill:#ffffff;stroke-linecap:butt;stroke-linejoin:round" />
        </g>
      </g>
    </g>
    <path
       style="font-variation-settings:normal;opacity:1;vector-effect:none;fill:none;fill-opacity:0.993535;stroke:#ffffff;stroke-width:0.880533;stroke-linecap:butt;stroke-linejoin:round;stroke-miterlimit:4;stroke-dasharray:none;stroke-dashoffset:0;stroke-opacity:1;-inkscape-stroke:none;marker-start:url(#Triangle);stop-color:#000000;stop-opacity:1"
       d="m 86.71727,161.23268 c 0,0 -7.117994,-16.42769 -12.40555,-22.32418"
       id="path23"
       sodipodi:nodetypes="cc" />
    <text
       xml:space="preserve"
       style="font-style:normal;font-variant:normal;font-weight:normal;font-stretch:normal;font-size:3.40682px;font-family:Chalkduster;-inkscape-font-specification:'Chalkduster, Normal';font-variant-ligatures:normal;font-variant-caps:normal;font-variant-numeric:normal;font-variant-east-asian:normal;text-align:start;writing-mode:lr-tb;direction:ltr;text-anchor:start;fill:#ffffff;stroke:none;stroke-width:0.758788;stroke-linejoin:round;-inkscape-stroke:none"
       x="45.497784"
       y="123.76396"
       id="text1-4-6"><tspan
         sodipodi:role="line"
         style="font-style:normal;font-variant:normal;font-weight:normal;font-stretch:normal;font-size:3.40682px;font-family:Chalkduster;-inkscape-font-specification:'Chalkduster, Normal';font-variant-ligatures:normal;font-variant-caps:normal;font-variant-numeric:normal;font-variant-east-asian:normal;fill:#ffffff;stroke:none;stroke-width:0.758788"
         x="45.497784"
         y="123.76396"
         id="tspan59-6">If our Z test value</tspan><tspan
         sodipodi:role="line"
         style="font-style:normal;font-variant:normal;font-weight:normal;font-stretch:normal;font-size:3.40682px;font-family:Chalkduster;-inkscape-font-specification:'Chalkduster, Normal';font-variant-ligatures:normal;font-variant-caps:normal;font-variant-numeric:normal;font-variant-east-asian:normal;fill:#ffffff;stroke:none;stroke-width:0.758788"
         x="45.497784"
         y="128.02249"
         id="tspan13-2">falls outside the C </tspan><tspan
         sodipodi:role="line"
         style="font-style:normal;font-variant:normal;font-weight:normal;font-stretch:normal;font-size:3.40682px;font-family:Chalkduster;-inkscape-font-specification:'Chalkduster, Normal';font-variant-ligatures:normal;font-variant-caps:normal;font-variant-numeric:normal;font-variant-east-asian:normal;fill:#ffffff;stroke:none;stroke-width:0.758788"
         x="45.497784"
         y="132.28101"
         id="tspan27">range and into the tails,</tspan><tspan
         sodipodi:role="line"
         style="font-style:normal;font-variant:normal;font-weight:normal;font-stretch:normal;font-size:3.40682px;font-family:Chalkduster;-inkscape-font-specification:'Chalkduster, Normal';font-variant-ligatures:normal;font-variant-caps:normal;font-variant-numeric:normal;font-variant-east-asian:normal;fill:#ffffff;stroke:none;stroke-width:0.758788"
         x="45.497784"
         y="136.53954"
         id="tspan29">we reject the null </tspan><tspan
         sodipodi:role="line"
         style="font-style:normal;font-variant:normal;font-weight:normal;font-stretch:normal;font-size:3.40682px;font-family:Chalkduster;-inkscape-font-specification:'Chalkduster, Normal';font-variant-ligatures:normal;font-variant-caps:normal;font-variant-numeric:normal;font-variant-east-asian:normal;fill:#ffffff;stroke:none;stroke-width:0.758788"
         x="45.497784"
         y="140.79807"
         id="tspan30">hypothesis! </tspan><tspan
         sodipodi:role="line"
         style="font-style:normal;font-variant:normal;font-weight:normal;font-stretch:normal;font-size:3.40682px;font-family:Chalkduster;-inkscape-font-specification:'Chalkduster, Normal';font-variant-ligatures:normal;font-variant-caps:normal;font-variant-numeric:normal;font-variant-east-asian:normal;fill:#ffffff;stroke:none;stroke-width:0.758788"
         x="45.497784"
         y="145.05658"
         id="tspan28"> </tspan></text>
    <text
       xml:space="preserve"
       style="font-style:normal;font-variant:normal;font-weight:normal;font-stretch:normal;font-size:3.40682px;font-family:Chalkduster;-inkscape-font-specification:'Chalkduster, Normal';font-variant-ligatures:normal;font-variant-caps:normal;font-variant-numeric:normal;font-variant-east-asian:normal;text-align:start;writing-mode:lr-tb;direction:ltr;text-anchor:start;fill:#ffffff;stroke:none;stroke-width:0.758788;stroke-linejoin:round;-inkscape-stroke:none"
       x="50.552074"
       y="96.166046"
       id="text1-4-6-4"><tspan
         sodipodi:role="line"
         style="font-style:normal;font-variant:normal;font-weight:normal;font-stretch:normal;font-size:3.40682px;font-family:Chalkduster;-inkscape-font-specification:'Chalkduster, Normal';font-variant-ligatures:normal;font-variant-caps:normal;font-variant-numeric:normal;font-variant-east-asian:normal;fill:#ffffff;stroke:none;stroke-width:0.758788"
         x="50.552074"
         y="96.166046"
         id="tspan36">Does this Z value reject </tspan><tspan
         sodipodi:role="line"
         style="font-style:normal;font-variant:normal;font-weight:normal;font-stretch:normal;font-size:3.40682px;font-family:Chalkduster;-inkscape-font-specification:'Chalkduster, Normal';font-variant-ligatures:normal;font-variant-caps:normal;font-variant-numeric:normal;font-variant-east-asian:normal;fill:#ffffff;stroke:none;stroke-width:0.758788"
         x="50.552074"
         y="100.42457"
         id="tspan37">or fail to reject our </tspan><tspan
         sodipodi:role="line"
         style="font-style:normal;font-variant:normal;font-weight:normal;font-stretch:normal;font-size:3.40682px;font-family:Chalkduster;-inkscape-font-specification:'Chalkduster, Normal';font-variant-ligatures:normal;font-variant-caps:normal;font-variant-numeric:normal;font-variant-east-asian:normal;fill:#ffffff;stroke:none;stroke-width:0.758788"
         x="50.552074"
         y="104.6831"
         id="tspan38">null hypothesis?</tspan></text>
    <path
       style="font-variation-settings:normal;opacity:1;vector-effect:none;fill:none;fill-opacity:0.993535;stroke:#ffffff;stroke-width:0.880533;stroke-linecap:butt;stroke-linejoin:round;stroke-miterlimit:4;stroke-dasharray:none;stroke-dashoffset:0;stroke-opacity:1;-inkscape-stroke:none;marker-end:url(#Triangle)"
       d="m 99.32601,94.912397 c 0,0 16.38758,0.229524 25.18699,5.903613 9.67646,6.23962 14.12644,9.88756 14.12644,9.88756"
       id="path31"
       sodipodi:nodetypes="csc" />
  </g>
</svg>
