<?xml version="1.0" encoding="UTF-8" standalone="no"?>
<!-- Created with Inkscape (http://www.inkscape.org/) -->

<svg
   width="143.47313mm"
   height="133.22874mm"
   viewBox="0 0 143.47313 133.22874"
   version="1.1"
   id="svg1"
   xml:space="preserve"
   inkscape:version="1.4 (e7c3feb1, 2024-10-09)"
   sodipodi:docname="rlalBST0.svg"
   inkscape:export-filename="rlalBST0.png"
   inkscape:export-xdpi="96"
   inkscape:export-ydpi="96"
   xmlns:inkscape="http://www.inkscape.org/namespaces/inkscape"
   xmlns:sodipodi="http://sodipodi.sourceforge.net/DTD/sodipodi-0.dtd"
   xmlns="http://www.w3.org/2000/svg"
   xmlns:svg="http://www.w3.org/2000/svg"><sodipodi:namedview
     id="namedview1"
     pagecolor="#ffffff"
     bordercolor="#000000"
     borderopacity="0.25"
     inkscape:showpageshadow="2"
     inkscape:pageopacity="0.0"
     inkscape:pagecheckerboard="0"
     inkscape:deskcolor="#d1d1d1"
     inkscape:document-units="mm"
     inkscape:zoom="0.91846942"
     inkscape:cx="243.88401"
     inkscape:cy="375.62492"
     inkscape:window-width="1920"
     inkscape:window-height="1547"
     inkscape:window-x="3390"
     inkscape:window-y="25"
     inkscape:window-maximized="0"
     inkscape:current-layer="layer1" /><defs
     id="defs1"><marker
       style="overflow:visible"
       id="marker3"
       refX="0"
       refY="0"
       orient="auto-start-reverse"
       inkscape:stockid="Triangle arrow"
       markerWidth="2"
       markerHeight="2"
       viewBox="0 0 1 1"
       inkscape:isstock="true"
       inkscape:collect="always"
       preserveAspectRatio="xMidYMid"><path
         transform="scale(0.5)"
         style="fill:context-stroke;fill-rule:evenodd;stroke:context-stroke;stroke-width:1pt"
         d="M 5.77,0 -2.88,5 V -5 Z"
         id="path3" /></marker><marker
       style="overflow:visible"
       id="marker3-3"
       refX="0"
       refY="0"
       orient="auto-start-reverse"
       inkscape:stockid="Triangle arrow"
       markerWidth="2"
       markerHeight="2"
       viewBox="0 0 1 1"
       inkscape:isstock="true"
       inkscape:collect="always"
       preserveAspectRatio="xMidYMid"><path
         transform="scale(0.5)"
         style="fill:context-stroke;fill-rule:evenodd;stroke:context-stroke;stroke-width:1pt"
         d="M 5.77,0 -2.88,5 V -5 Z"
         id="path3-9" /></marker></defs><g
     inkscape:label="Layer 1"
     inkscape:groupmode="layer"
     id="layer1"
     transform="translate(-28.412014,-38.53563)"><path
       class="st0"
       d="m 50.122963,82.318325 h 26.918712 c 0.762,0 1.38377,0.62442 1.38377,1.38377 v 7.51682 c 0,0.762 -0.62442,1.38377 -1.38377,1.38377 h -4.04019 v 1.41552 h 4.04019 c 0.762,0 1.38377,0.62441 1.38377,1.38377 v 7.516805 c 0,0.76201 -0.62442,1.38378 -1.38377,1.38378 h -4.04019 v 4.01638 h 2.076981 v 2.07168 h 4.10369 v 2.38125 h -4.10369 v 2.05317 h -6.532561 v -2.05317 h -9.498551 v 2.05317 h -6.532561 v -2.05317 h -4.53496 v -2.38125 h 4.53496 v -2.07168 h 2.07434 v -4.01109 h -4.46617 c -0.762,0 -1.383769,-0.62441 -1.383769,-1.38378 v -7.519455 c 0,-0.762 0.621769,-1.38377 1.383769,-1.38377 h 4.46617 v -1.41552 h -4.46617 c -0.762,0 -1.383769,-0.62441 -1.383769,-1.38377 v -7.51681 c -0.003,-0.76465 0.621769,-1.38642 1.383769,-1.38642 z m 2.05052,14.798148 h 1.58221 v 4.093097 h -1.58221 z M 73.906355,86.207705 c 0.69321,0 1.25413,0.56091 1.25413,1.25412 0,0.69321 -0.56092,1.25413 -1.25413,1.25413 -0.6932,0 -1.25412,-0.56092 -1.25412,-1.25413 0,-0.69321 0.56092,-1.25412 1.25412,-1.25412 z m -4.77572,0 c 0.6932,0 1.25412,0.56091 1.25412,1.25412 0,0.69321 -0.56092,1.25413 -1.25412,1.25413 -0.69321,0 -1.25413,-0.56092 -1.25413,-1.25413 0,-0.69321 0.56356,-1.25412 1.25413,-1.25412 z m -8.215322,-0.79375 h 1.582211 v 4.0931 h -1.582211 z m -4.37091,0 h 1.5822 v 4.0931 h -1.5822 z m -4.37092,0 h 1.58221 v 4.0931 h -1.58221 z m 21.732872,12.496268 c 0.69321,0 1.25413,0.56091 1.25413,1.25412 0,0.69321 -0.56092,1.254127 -1.25413,1.254127 -0.6932,0 -1.25412,-0.560917 -1.25412,-1.254127 0,-0.69321 0.56092,-1.25412 1.25412,-1.25412 z m -4.77572,0 c 0.6932,0 1.25412,0.56091 1.25412,1.25412 0,0.69321 -0.56092,1.254127 -1.25412,1.254127 -0.69321,0 -1.25413,-0.560917 -1.25413,-1.254127 0,-0.69321 0.56356,-1.25412 1.25413,-1.25412 z m -8.215322,-0.79375 h 1.582211 v 4.093097 h -1.582211 z m -4.37091,0 h 1.5822 v 4.093097 h -1.5822 z m 15.266452,12.977817 c 0.82021,0 1.48432,0.6641 1.48432,1.48431 0,0.82021 -0.66411,1.48432 -1.48432,1.48432 -0.8202,0 -1.48431,-0.66411 -1.48431,-1.48432 0,-0.82021 0.66675,-1.48431 1.48431,-1.48431 z m -16.031102,0 c 0.82021,0 1.48431,0.6641 1.48431,1.48431 0,0.82021 -0.6641,1.48432 -1.48431,1.48432 -0.82021,0 -1.48431,-0.66411 -1.48431,-1.48432 0,-0.82021 0.66675,-1.48431 1.48431,-1.48431 z m 3.2676,0.30163 h 9.498552 v -2.07169 h 2.07433 v -4.01638 H 56.970383 v 4.01638 h 2.076971 z m -2.07697,-16.375075 h 13.649852 v -1.41552 H 56.970383 Z"
       id="path1"
       style="stroke-width:0.264583" /><path
       d="m 54.682074,138.48025 c 2.18546,0.73025 5.22817,1.18004 8.6069,1.18004 3.37873,0 6.42144,-0.45243 8.60689,-1.18004 1.91823,-0.64029 3.106211,-1.41552 3.106211,-2.17487 0,-0.75936 -1.185331,-1.53459 -3.106211,-2.17488 -2.18545,-0.7276 -5.22816,-1.18004 -8.60689,-1.18004 -3.37873,0 -6.42144,0.45244 -8.6069,1.18004 -4.06929,1.35996 -4.18306,2.95275 0,4.34975 z m 20.322651,15.45167 c -0.682631,0.46831 -1.553111,0.87841 -2.582331,1.22237 -2.3548,0.78582 -5.58536,1.27265 -9.13342,1.27265 -3.54806,0 -6.77863,-0.48683 -9.13342,-1.27265 -1.016,-0.33866 -1.88119,-0.74612 -2.56117,-1.20385 v 4.98739 c 0.15082,0.70644 1.30175,1.42082 3.08769,2.01613 2.18546,0.73025 5.22817,1.18004 8.6069,1.18004 3.37873,0 6.42144,-0.45244 8.60689,-1.18004 1.32557,-0.44185 2.29923,-0.94985 2.778131,-1.46844 0.39423,-0.42862 0.33073,-0.71173 0.33073,-1.22766 z M 49.911634,136.30538 c 0,-1.55311 1.6219,-2.87073 4.24392,-3.7465 2.35479,-0.78582 5.58536,-1.27265 9.13342,-1.27265 3.54806,0 6.77862,0.48683 9.13342,1.27265 2.386541,0.79639 3.944931,1.96056 4.204221,3.33639 0.0318,0.0873 0.0476,0.18256 0.0476,0.28046 v 22.94996 c 0,1.59014 -3.040061,2.99773 -4.251851,3.40254 -2.35479,0.78581 -5.58535,1.27265 -9.13342,1.27265 -3.54806,0 -6.77862,-0.48684 -9.13341,-1.27265 -1.2409,-0.4154 -4.2254,-1.77535 -4.2254,-3.40254 0,-0.1905 0,-0.34925 0,-0.53181 0,-7.43215 -0.0185,-14.86165 -0.0185,-22.2885 z m 1.68275,15.25852 c 0.15082,0.70643 1.30175,1.42081 3.08769,2.01612 2.18546,0.73025 5.22817,1.18004 8.6069,1.18004 3.37873,0 6.42144,-0.45243 8.60689,-1.18004 1.91823,-0.64029 3.106211,-1.41552 3.106211,-2.17487 h 0.008 v -4.84452 c -0.682621,0.46831 -1.558391,0.87841 -2.587621,1.22237 -2.35479,0.78581 -5.58536,1.27265 -9.13342,1.27265 -3.54806,0 -6.77862,-0.48684 -9.13342,-1.27265 -1.016,-0.33867 -1.88118,-0.74612 -2.56116,-1.20385 z m 0,-7.37129 c 0.15082,0.70643 1.30175,1.42081 3.08769,2.01612 2.18546,0.73025 5.22817,1.18004 8.6069,1.18004 3.37873,0 6.42144,-0.45244 8.60689,-1.18004 1.91823,-0.64029 3.106211,-1.41552 3.106211,-2.17487 h 0.008 v -5.20171 c -0.682581,0.46831 -1.558361,0.87841 -2.587581,1.22237 -2.3548,0.78581 -5.58536,1.27265 -9.13342,1.27265 -3.54806,0 -6.77863,-0.48684 -9.13342,-1.27265 -1.016,-0.33866 -1.88119,-0.74612 -2.56117,-1.20385 z"
       id="path1-2"
       style="stroke-width:0.264583" /><path
       class="st0"
       d="m 132.97765,106.55813 h 3.33111 c -0.24606,-0.0635 -0.43127,-0.29104 -0.43127,-0.55562 V 89.817938 c 0,-0.31485 0.25929,-0.57414 0.57414,-0.57414 h 24.06915 c 0.31485,0 0.57414,0.25929 0.57414,0.57414 v 16.181922 c 0,0.26723 -0.18256,0.49212 -0.43127,0.55562 h 3.48192 c 0.37041,0 0.67204,0.30163 0.67204,0.67205 v 0 c 0,0.37041 -0.30163,0.67204 -0.67204,0.67204 h -31.16792 c -0.37041,0 -0.67204,-0.30163 -0.67204,-0.67204 v 0 c 0,-0.36777 0.30163,-0.6694 0.67204,-0.6694 z m 3.88144,-16.414752 h 23.3336 v 15.695082 h -23.3336 z m 10.75796,16.666102 h 1.88912 c 0.17727,0 0.32279,0.14553 0.32279,0.3228 v 0 c 0,0.17727 -0.14552,0.32279 -0.32279,0.32279 h -1.88912 c -0.17727,0 -0.32279,-0.14552 -0.32279,-0.32279 v 0 c 0,-0.17992 0.14552,-0.3228 0.32279,-0.3228 z"
       id="path1-9"
       style="stroke-width:0.264583" /><path
       class="st0"
       d="m 142.46164,125.52616 h 12.19994 c 0.92869,0 1.77006,0.37836 2.38125,0.98955 0.61119,0.61118 0.98954,1.45256 0.98954,2.38125 v 25.77041 c 0,0.92869 -0.37835,1.77006 -0.98954,2.38125 -0.61119,0.61119 -1.45256,0.98954 -2.38125,0.98954 h -12.19994 c -0.92869,0 -1.77006,-0.37835 -2.38125,-0.98954 -0.61119,-0.61119 -0.98954,-1.45256 -0.98954,-2.38125 v -25.77041 c 0,-0.92869 0.37835,-1.77007 0.98954,-2.38125 0.61119,-0.61119 1.45521,-0.98955 2.38125,-0.98955 z m 6.09865,28.35805 c 0.762,0 1.38112,0.61912 1.38112,1.38112 0,0.762 -0.61912,1.38113 -1.38112,1.38113 -0.762,0 -1.38113,-0.61913 -1.38113,-1.38113 0.003,-0.762 0.61913,-1.38112 1.38113,-1.38112 z m -8.50107,-1.05834 h 17.00742 v -22.08741 h -17.00742 z"
       id="path1-27"
       style="stroke-width:0.264583" /><path
       d="m 89.475856,62.950814 c 0.728927,0.64981 1.457325,1.26418 2.187046,1.84256 0.963083,-1.46262 2.01242,-2.80379 3.153039,-4.01585 -0.215371,-0.40561 -0.337079,-0.86889 -0.337079,-1.35969 0,-0.24236 0.02937,-0.47758 0.08572,-0.70327 -1.191683,-0.77205 -2.418027,-1.633 -3.694906,-2.59238 -0.944298,1.94733 -1.472936,4.13199 -1.472936,6.44022 h 0.0032 v 0 7.9e-4 h -0.0034 c 0,0.15664 0.0032,0.31274 0.0079,0.46805 z m 2.098675,-8.1161 c 1.278202,0.96415 2.501371,1.82827 3.687762,2.60112 0.529167,-0.56462 1.282171,-0.91731 2.116402,-0.91731 0.661723,0 1.271326,0.22199 1.759476,0.59531 0.34925,-0.23151 0.70565,-0.45481 1.068129,-0.6678 1.51024,-0.88794 3.13081,-1.61211 4.87098,-2.1635 -0.0127,-0.11536 -0.0185,-0.23231 -0.0185,-0.34978 0,-0.44291 0.0886,-0.86519 0.25003,-1.2491 -1.76769,-1.4978 -3.86107,-2.82416 -6.270629,-3.996 -2.010568,0.74877 -3.814232,1.92193 -5.303307,3.41101 -0.822325,0.82153 -1.548342,1.74016 -2.160323,2.73605 z m 9.492719,-6.74105 c 1.90553,1.02553 3.60548,2.15635 5.09349,3.40439 0.49742,-0.43603 1.12977,-0.72284 1.82562,-0.78898 0.1561,-0.76438 0.30348,-1.54147 0.44344,-2.33336 -1.3409,-0.39979 -2.76065,-0.61569 -4.23041,-0.61569 v 0.003 0 h -10e-4 v -0.003 c -1.07421,0 -2.12117,0.11589 -3.13082,0.33364 z m 8.75135,0.77417 c -0.12303,0.68765 -0.25188,1.36499 -0.38682,2.03147 0.97022,0.36407 1.71952,1.18004 1.99125,2.19181 1.31339,-0.0966 2.67944,-0.11536 4.1021,-0.0529 -0.27411,-0.32517 -0.56091,-0.63949 -0.86148,-0.94033 -1.37531,-1.37451 -3.01863,-2.47941 -4.84505,-3.23003 z m 6.83286,5.69516 c -1.81795,-0.13626 -3.54197,-0.1397 -5.17578,-0.0167 -0.13388,0.69903 -0.49318,1.31815 -0.99827,1.77906 0.42968,0.66225 0.81915,1.34858 1.16708,2.05978 0.50694,1.03743 0.92445,2.12698 1.25386,3.26866 0.10028,-0.0103 0.20214,-0.0161 0.30586,-0.0161 1.30148,0 2.40294,0.85725 2.76966,2.03941 0.95937,0.0336 1.9513,0.0513 2.98106,0.0577 0.0304,-0.38709 0.0468,-0.77735 0.0468,-1.17131 h -0.003 v -8e-4 -5.3e-4 h 0.003 c -8e-4,-2.94613 -0.8636,-5.69171 -2.3503,-7.99914 z m 2.11746,10.62064 c -0.93794,-0.007 -1.8452,-0.023 -2.726,-0.0521 -0.23521,1.12977 -1.12871,2.01903 -2.26139,2.24816 0.0497,1.35387 0.003,2.76939 -0.14341,4.24736 0.83053,-0.0876 1.6727,-0.20823 2.52968,-0.35984 1.29197,-1.77218 2.19949,-3.84042 2.60112,-6.08356 z m -1.7653,7.39219 0.003,0.0151 -0.0175,0.003 c -0.40243,0.51356 -0.83502,1.00198 -1.29645,1.46341 -2.93926,2.93926 -7.00326,4.75774 -11.49297,4.75827 v 0.003 h -5.2e-4 -8e-4 v -0.003 c -4.489709,0 -8.553447,-1.81901 -11.494026,-4.75906 -2.939549,-2.93981 -4.758294,-7.00381 -4.758824,-11.49353 h -0.0029 v -7.9e-4 0 h 0.0029 c 0,-4.49024 1.819275,-8.55398 4.759325,-11.49403 2.94005,-2.94005 7.002996,-4.75853 11.492965,-4.75853 v -0.003 h 0.001 v 0 0.003 c 4.49024,0 8.55397,1.81875 11.49376,4.75932 2.94005,2.93926 4.75853,7.003 4.75853,11.49297 h 0.003 v 5.3e-4 8e-4 h -0.003 c 0,3.77798 -1.28799,7.25355 -3.44805,10.01236 z m -2.27462,0.38391 c -0.42545,0.0566 -0.8472,0.10557 -1.26603,0.14605 -0.0521,0.37439 -0.11086,0.75248 -0.17463,1.13506 0.48313,-0.37623 0.94271,-0.78105 1.37531,-1.21364 z m -3.12711,2.42014 c 0.14817,-0.73686 0.27411,-1.45811 0.37809,-2.16429 -2.65139,0.13785 -5.18529,-0.0534 -7.63745,-0.57123 -0.47943,0.56859 -1.19618,0.93133 -1.99787,0.93133 -0.0595,0 -0.11827,-0.002 -0.17595,-0.006 -0.46276,1.18031 -0.9107,2.3286 -1.32133,3.41313 1.07686,0.2495 2.19922,0.38232 3.35095,0.38232 v -0.003 h 7.9e-4 5.3e-4 v 0.003 c 2.69584,0 5.22419,-0.72311 7.40224,-1.98543 z m -12.154149,1.20492 c 0.44952,-1.19486 0.898259,-2.34844 1.354129,-3.51314 -0.57414,-0.42042 -0.970219,-1.07024 -1.053569,-1.81478 -2.63022,-1.04219 -5.180274,-2.48814 -7.701489,-4.34022 -0.404283,0.68103 -0.791369,1.38694 -1.162315,2.11799 0.724694,1.48669 1.69254,2.83554 2.850092,3.99309 1.589881,1.58935 3.538273,2.8194 5.713152,3.55706 z m -9.280794,-9.29958 c 0.233363,-0.42598 0.472811,-0.84349 0.71808,-1.2528 -0.431271,-0.33946 -0.862277,-0.69109 -1.29249,-1.0541 0.13044,0.79137 0.323585,1.56316 0.57441,2.3069 z m 9.870013,-9.02626 c 0.15531,0.35507 0.24183,0.74692 0.24183,1.15914 0,0.27728 -0.0394,0.54584 -0.11218,0.79984 1.59305,0.762 3.15886,1.36683 4.74583,1.84441 0.57679,-1.72694 1.13109,-3.52028 1.6473,-5.39644 -0.40561,-0.25824 -0.74957,-0.60378 -1.00569,-1.01045 -1.65232,0.51964 -3.18717,1.20306 -4.61406,2.04179 -0.30533,0.17939 -0.60722,0.36724 -0.90303,0.56171 z m -0.613829,3.21522 c -0.52414,0.52202 -1.246717,0.84428 -2.0447,0.84428 -0.582613,0 -1.125538,-0.17224 -1.580621,-0.46752 -1.076854,1.15332 -2.067983,2.43179 -2.980796,3.82667 2.364052,1.74731 4.745302,3.11944 7.188996,4.11824 0.42915,-0.85619 1.31524,-1.44436 2.33812,-1.44436 0.0984,0 0.195,0.006 0.29104,0.0164 0.60775,-1.58803 1.21682,-3.22527 1.8079,-4.92892 -1.6809,-0.508 -3.33693,-1.15226 -5.019939,-1.9648 z m 9.783489,-4.43257 c -0.28866,0.0839 -0.59399,0.12886 -0.91017,0.12886 -0.12224,0 -0.24342,-0.006 -0.36221,-0.0198 -0.50879,1.84202 -1.05251,3.60362 -1.61819,5.2996 1.38906,0.3511 2.80617,0.61383 4.28492,0.80724 0.21511,-0.43629 0.53631,-0.81015 0.93081,-1.08849 -0.31089,-1.10279 -0.70988,-2.15107 -1.19592,-3.1459 -0.33496,-0.68501 -0.71173,-1.34461 -1.12924,-1.98147 z m 3.11652,10.25922 c -1.12633,-0.35851 -1.95421,-1.38641 -2.01533,-2.61646 -1.5367,-0.20453 -3.01253,-0.48181 -4.46086,-0.85275 -0.61092,1.76265 -1.24037,3.45545 -1.86849,5.09508 0.59584,0.47889 0.97737,1.21391 0.97737,2.03702 0,0.10848 -0.007,0.21511 -0.0198,0.32041 2.31669,0.46064 4.71513,0.61622 7.2292,0.46488 0.16563,-1.5576 0.21722,-3.03954 0.15796,-4.44818 z"
       id="path1-97"
       style="stroke-width:0.264583" /><path
       style="fill:none;fill-opacity:0.70649;stroke:#000000;stroke-width:0.365001;marker-end:url(#marker3)"
       d="m 135.96896,141.15422 c 0,0 -14.74678,2.44864 -26.21436,-38.02522 l -4.89718,-17.28419"
       id="path2"
       sodipodi:nodetypes="csc" /><path
       style="fill:none;fill-opacity:0.70649;stroke:#000000;stroke-width:0.365001;marker-end:url(#marker3-3)"
       d="m 132.62267,101.14537 c 0,0 -7.12704,2.39327 -13.82736,-11.522798 l -3.7449,-7.777886"
       id="path2-9"
       sodipodi:nodetypes="csc" /><path
       style="fill:none;fill-opacity:0.70649;stroke:#000000;stroke-width:0.365001;stroke-dasharray:none;marker-end:url(#marker3-3)"
       d="m 88.725507,51.564498 c 0,0 -21.893306,-2.592627 -22.757516,4.32105 -2.108109,16.864872 -1.440349,21.893306 -1.440349,21.893306"
       id="path4"
       sodipodi:nodetypes="csc" /><path
       style="fill:none;fill-opacity:0.70649;stroke:#000000;stroke-width:0.365001;stroke-dasharray:none;marker-end:url(#marker3)"
       d="m 62.799224,116.95635 v 10.94666"
       id="path5" /><text
       xml:space="preserve"
       style="font-style:normal;font-variant:normal;font-weight:normal;font-stretch:normal;font-size:4.9389px;font-family:sans-serif;-inkscape-font-specification:'sans-serif, Normal';font-variant-ligatures:normal;font-variant-caps:normal;font-variant-numeric:normal;font-variant-east-asian:normal;text-align:start;writing-mode:lr-tb;direction:ltr;text-anchor:start;fill:#000000;fill-opacity:0.70649;stroke:none;stroke-width:0.365001;stroke-dasharray:none"
       x="51.55098"
       y="171.68962"
       id="text5"><tspan
         sodipodi:role="line"
         id="tspan5"
         style="font-style:normal;font-variant:normal;font-weight:normal;font-stretch:normal;font-size:4.9389px;font-family:sans-serif;-inkscape-font-specification:'sans-serif, Normal';font-variant-ligatures:normal;font-variant-caps:normal;font-variant-numeric:normal;font-variant-east-asian:normal;fill:#000000;stroke:none;stroke-width:0.365"
         x="51.55098"
         y="171.68962">Database</tspan></text><text
       xml:space="preserve"
       style="font-style:normal;font-variant:normal;font-weight:normal;font-stretch:normal;font-size:4.9389px;font-family:sans-serif;-inkscape-font-specification:'sans-serif, Normal';font-variant-ligatures:normal;font-variant-caps:normal;font-variant-numeric:normal;font-variant-east-asian:normal;text-align:start;writing-mode:lr-tb;direction:ltr;text-anchor:start;fill:#000000;fill-opacity:0.70649;stroke:none;stroke-width:0.365001;stroke-dasharray:none"
       x="28.088863"
       y="96.991211"
       id="text5-5"><tspan
         sodipodi:role="line"
         id="tspan6"
         x="28.088863"
         y="96.991211">Server</tspan></text><text
       xml:space="preserve"
       style="font-style:normal;font-variant:normal;font-weight:normal;font-stretch:normal;font-size:4.9389px;font-family:sans-serif;-inkscape-font-specification:'sans-serif, Normal';font-variant-ligatures:normal;font-variant-caps:normal;font-variant-numeric:normal;font-variant-east-asian:normal;text-align:start;writing-mode:lr-tb;direction:ltr;text-anchor:start;fill:#000000;fill-opacity:0.70649;stroke:none;stroke-width:0.365001;stroke-dasharray:none"
       x="93.976921"
       y="42.126461"
       id="text5-5-7"><tspan
         sodipodi:role="line"
         id="tspan7"
         x="93.976921"
         y="42.126461">Internet</tspan></text><text
       xml:space="preserve"
       style="font-style:normal;font-variant:normal;font-weight:normal;font-stretch:normal;font-size:4.9389px;font-family:sans-serif;-inkscape-font-specification:'sans-serif, Normal';font-variant-ligatures:normal;font-variant-caps:normal;font-variant-numeric:normal;font-variant-east-asian:normal;text-align:start;writing-mode:lr-tb;direction:ltr;text-anchor:start;fill:#000000;fill-opacity:0.70649;stroke:none;stroke-width:0.365001;stroke-dasharray:none"
       x="124.75578"
       y="114.2734"
       id="text5-5-7-5"><tspan
         sodipodi:role="line"
         id="tspan8"
         x="124.75578"
         y="114.2734">Personal Computer</tspan></text><text
       xml:space="preserve"
       style="font-style:normal;font-variant:normal;font-weight:normal;font-stretch:normal;font-size:4.9389px;font-family:sans-serif;-inkscape-font-specification:'sans-serif, Normal';font-variant-ligatures:normal;font-variant-caps:normal;font-variant-numeric:normal;font-variant-east-asian:normal;text-align:start;writing-mode:lr-tb;direction:ltr;text-anchor:start;fill:#000000;fill-opacity:0.70649;stroke:none;stroke-width:0.365001;stroke-dasharray:none"
       x="133.28671"
       y="164.79167"
       id="text5-5-7-5-5"><tspan
         sodipodi:role="line"
         id="tspan9"
         x="133.28671"
         y="164.79167">Smartphone</tspan></text></g><style
     type="text/css"
     id="style1">.st0{fill-rule:evenodd;clip-rule:evenodd;}</style><style
     type="text/css"
     id="style1-3">.st0{fill-rule:evenodd;clip-rule:evenodd;}</style><style
     type="text/css"
     id="style1-2">.st0{fill-rule:evenodd;clip-rule:evenodd;}</style></svg>
