<?xml version="1.0" encoding="UTF-8" standalone="no"?>
<!-- Created with Inkscape (http://www.inkscape.org/) -->

<svg
   width="170.37215mm"
   height="97.737015mm"
   viewBox="0 0 170.37215 97.737015"
   version="1.1"
   id="svg1"
   inkscape:version="1.4.2 (ebf0e940, 2025-05-08)"
   sodipodi:docname="JOlapn3L.svg"
   inkscape:export-filename="JOlapn3L.png"
   inkscape:export-xdpi="96"
   inkscape:export-ydpi="96"
   xml:space="preserve"
   xmlns:inkscape="http://www.inkscape.org/namespaces/inkscape"
   xmlns:sodipodi="http://sodipodi.sourceforge.net/DTD/sodipodi-0.dtd"
   xmlns="http://www.w3.org/2000/svg"
   xmlns:svg="http://www.w3.org/2000/svg"><sodipodi:namedview
     id="namedview1"
     pagecolor="#ffffff"
     bordercolor="#000000"
     borderopacity="0.25"
     inkscape:showpageshadow="2"
     inkscape:pageopacity="0.0"
     inkscape:pagecheckerboard="0"
     inkscape:deskcolor="#d1d1d1"
     inkscape:document-units="mm"
     inkscape:zoom="1.3272653"
     inkscape:cx="285.92625"
     inkscape:cy="6.0274308"
     inkscape:window-width="1920"
     inkscape:window-height="1547"
     inkscape:window-x="3114"
     inkscape:window-y="32"
     inkscape:window-maximized="0"
     inkscape:current-layer="g21"
     showgrid="false"
     showguides="false" /><defs
     id="defs1"><marker
       style="overflow:visible"
       id="Triangle"
       refX="0"
       refY="0"
       orient="auto-start-reverse"
       inkscape:stockid="Triangle arrow"
       markerWidth="1"
       markerHeight="1"
       viewBox="0 0 1 1"
       inkscape:isstock="true"
       inkscape:collect="always"
       preserveAspectRatio="xMidYMid"><path
         transform="scale(0.5)"
         style="fill:context-stroke;fill-rule:evenodd;stroke:context-stroke;stroke-width:1pt"
         d="M 5.77,0 -2.88,5 V -5 Z"
         id="path135" /></marker><rect
       x="467.51201"
       y="224.53298"
       width="302.13361"
       height="71.239925"
       id="rect19" /><clipPath
       id="p78022390db-3-2"><rect
         x="57.599998"
         y="41.472"
         width="357.12"
         height="266.112"
         id="rect564-6-9" /></clipPath><clipPath
       id="p62bcd2657d-5"><rect
         x="57.599998"
         y="41.472"
         width="357.12"
         height="266.112"
         id="rect7353-6" /></clipPath><clipPath
       id="clipPath1"><rect
         x="57.599998"
         y="41.472"
         width="357.12"
         height="266.112"
         id="rect1-0" /></clipPath><path
       id="path25749"
       d="m 155.07761,-50.112 v -32.871864 l 0.32498,-0.529109 0.32498,-0.535449 0.32498,-0.541821 0.32498,-0.548226 0.32498,-0.55466 0.32498,-0.561127 0.32497,-0.567621 0.32498,-0.574145 0.32498,-0.580697 0.32498,-0.587274 0.32498,-0.59388 0.32498,-0.600509 0.32498,-0.607163 0.32498,-0.61384 0.32498,-0.620541 0.32498,-0.627262 0.32498,-0.634005 0.32498,-0.640766 0.32498,-0.647546 0.32498,-0.654345 0.32498,-0.661158 0.32498,-0.667988 0.32498,-0.674832 0.32498,-0.68169 0.32498,-0.688558 0.32498,-0.695438 0.32498,-0.702329 0.32497,-0.709227 0.32498,-0.71613 0.32498,-0.72304 0.32498,-0.72997 0.32498,-0.73687 0.32498,-0.74381 0.32498,-0.75072 0.32498,-0.75765 0.32498,-0.76457 0.32498,-0.77149 0.32498,-0.7784 0.32498,-0.78531 0.32498,-0.7922 0.32498,-0.7991 0.32498,-0.80598 0.32498,-0.81285 0.32498,-0.81971 0.32498,-0.82655 0.32498,-0.83338 0.32498,-0.84018 0.32498,-0.84697 0.32497,-0.85374 0.32498,-0.86049 0.32498,-0.8672 0.32498,-0.8739 0.32498,-0.88058 0.32498,-0.88721 0.32498,-0.89382 0.32498,-0.90039 0.32498,-0.90694 0.32498,-0.91345 0.32498,-0.91992 0.32498,-0.92635 0.32498,-0.93274 0.32498,-0.93909 0.32498,-0.94539 0.32498,-0.95166 0.32498,-0.95786 0.32498,-0.96402 0.32498,-0.97014 0.32498,-0.97619 0.32498,-0.98219 0.32497,-0.98813 0.32498,-0.99403 0.32498,-0.99985 0.32498,-1.00561 0.32498,-1.01132 0.32498,-1.01695 0.32498,-1.02252 0.32498,-1.02802 0.32498,-1.03344 0.32498,-1.0388 0.32498,-1.04407 0.32498,-1.04928 0.32498,-1.0544 0.32498,-1.05944 0.32498,-1.06441 0.32498,-1.06928 0.32498,-1.07407 0.32498,-1.07877 0.32498,-1.08339 0.32498,-1.0879 0.32498,-1.09234 0.32497,-1.09667 0.32498,-1.1009 0.32498,-1.10504 0.32498,-1.10908 0.32498,-1.11301 0.32498,-1.11684 0.32498,-1.12057 0.32498,-1.12418 0.32498,-1.12769 0.32498,-1.13109 0.32498,-1.13437 0.32498,-1.13753 0.32498,-1.14059 0.32498,-1.14352 0.32498,-1.14634 0.32498,-1.14903 0.32498,-1.15159 0.32498,-1.15405 0.32498,-1.15636 0.32498,-1.15855 0.32498,-1.16061 0.32497,-1.16254 0.32498,-1.16434 0.32498,-1.166 0.32498,-1.16753 0.32498,-1.16892 0.32498,-1.17017 0.32498,-1.17129 0.32498,-1.17225 0.32498,-1.17309 0.32498,-1.17376 0.32498,-1.17431 0.32498,-1.17469 0.32498,-1.17494 0.32498,-1.17503 0.32498,-1.17498 0.32498,-1.17476 0.32498,-1.17441 0.32498,-1.17389 0.32498,-1.17322 0.32498,-1.17239 0.32498,-1.17141 0.32497,-1.17027 0.32498,-1.16896 0.32498,-1.16751 0.32498,-1.16588 0.32498,-1.16409 0.32498,-1.16215 0.32498,-1.16003 0.32498,-1.15777 0.32498,-1.15531 0.32498,-1.15272 0.32498,-1.14994 0.32498,-1.147 0.32498,-1.14389 0.32498,-1.14061 0.32498,-1.13718 0.32498,-1.13355 0.32498,-1.12978 0.32498,-1.12582 0.32498,-1.12169 0.32498,-1.1174 0.32498,-1.11294 0.32497,-1.1083 0.32498,-1.10349 0.32498,-1.09852 0.32498,-1.09336 0.32498,-1.08804 0.32498,-1.08255 0.32498,-1.07689 0.32498,-1.07105 0.32498,-1.06504 0.32498,-1.05886 0.32498,-1.05252 0.32498,-1.046 0.32498,-1.0393 0.32498,-1.03245 0.32498,-1.02542 0.32498,-1.01822 0.32498,-1.01086 0.32498,-1.00332 0.32498,-0.99563 0.32498,-0.98775 0.32498,-0.97972 0.32497,-0.97152 0.32498,-0.96316 0.32498,-0.95464 0.32498,-0.94594 0.32498,-0.93709 0.32498,-0.92808 0.32498,-0.91891 0.32498,-0.90958 0.32498,-0.90009 0.32498,-0.89044 0.32498,-0.88064 0.32498,-0.87069 0.32498,-0.86059 0.32498,-0.85032 0.32498,-0.83991 0.32498,-0.82936 0.32498,-0.81865 0.32498,-0.8078 0.32498,-0.79681 0.32498,-0.78567 0.32498,-0.77439 0.32497,-0.76297 0.32498,-0.75142 0.32498,-0.73972 0.32498,-0.7279 0.32498,-0.71594 0.32498,-0.70386 0.32498,-0.69163 0.32498,-0.6793 0.32498,-0.66682 0.32498,-0.65424 0.32498,-0.64153 0.32498,-0.62869 0.32498,-0.61576 0.32498,-0.60269 0.32498,-0.58952 0.32498,-0.57625 0.32498,-0.56285 0.32498,-0.54936 0.32498,-0.53577 0.32498,-0.52207 0.32498,-0.50828 0.32497,-0.49439 0.32498,-0.48041 0.32498,-0.46634 0.32498,-0.45218 0.32498,-0.43793 0.32498,-0.4236 0.32498,-0.4092 0.32498,-0.39471 0.32498,-0.38016 0.32498,-0.36552 0.32498,-0.35081 0.32498,-0.33605 0.32498,-0.32122 0.32498,-0.30632 0.32498,-0.29138 0.32498,-0.27636 0.32498,-0.2613 0.32498,-0.2462 0.32498,-0.23103 0.32498,-0.21584 0.32498,-0.20059 0.32497,-0.18531 0.32498,-0.16999 0.32498,-0.15464 0.32498,-0.13926 0.32498,-0.12386 0.32498,-0.10843 0.32498,-0.093 0.32498,-0.0775 0.32498,-0.062 0.32498,-0.0465 0.32498,-0.031 0.32498,-0.0155 h 0.32498 l 0.32498,0.0155 0.32498,0.031 0.32498,0.0465 0.32498,0.062 0.32498,0.0775 0.32498,0.093 0.32498,0.10843 0.32498,0.12386 0.32497,0.13926 0.32498,0.15464 0.32498,0.16999 0.32498,0.18531 0.32498,0.20059 0.32498,0.21584 0.32498,0.23103 0.32498,0.2462 0.32498,0.2613 0.32498,0.27636 0.32498,0.29138 0.32498,0.30632 0.32498,0.32122 0.32498,0.33605 0.32498,0.35081 0.32498,0.36552 0.32498,0.38016 0.32498,0.39471 0.32498,0.4092 0.32498,0.4236 0.32498,0.43793 0.32498,0.45218 0.32497,0.46634 0.32498,0.48041 0.32498,0.49439 0.32498,0.50828 0.32498,0.52207 0.32498,0.53577 0.32498,0.54936 0.32498,0.56285 0.32498,0.57625 0.32498,0.58952 0.32498,0.60269 0.32498,0.61576 0.32498,0.62869 0.32498,0.64153 0.32498,0.65424 0.32498,0.66682 0.32498,0.6793 0.32498,0.69163 0.32498,0.70386 0.32498,0.71594 0.32498,0.7279 0.32497,0.73972 0.32498,0.75142 0.32498,0.76297 0.32498,0.77439 0.32498,0.78567 0.32498,0.79681 0.32498,0.8078 0.32498,0.81865 0.32498,0.82936 0.32498,0.83991 0.32498,0.85032 0.32498,0.86059 0.32498,0.87069 0.32498,0.88064 0.32498,0.89044 0.32498,0.90009 0.32498,0.90958 0.32498,0.91891 0.32498,0.92808 0.32498,0.93709 0.32498,0.94594 0.32497,0.95464 0.32498,0.96316 0.32498,0.97152 0.32498,0.97972 0.32498,0.98775 0.32498,0.99563 0.32498,1.00332 0.32498,1.01086 0.32498,1.01822 0.32498,1.02542 0.32498,1.03245 0.32498,1.0393 0.32498,1.046 0.32498,1.05252 0.32498,1.05886 0.32498,1.06504 0.32498,1.07105 0.32498,1.07689 0.32498,1.08255 0.32498,1.08804 0.32498,1.09336 0.32497,1.09852 0.32498,1.10349 0.32498,1.1083 0.32498,1.11294 0.32498,1.1174 0.32498,1.12169 0.32498,1.12582 0.32498,1.12978 0.32498,1.13355 0.32498,1.13718 0.32498,1.14061 0.32498,1.14389 0.32498,1.147 0.32498,1.14994 0.32498,1.15272 0.32498,1.15531 0.32498,1.15777 0.32498,1.16003 0.32498,1.16215 0.32498,1.16409 0.32498,1.16588 0.32497,1.16751 0.32498,1.16896 0.32498,1.17027 0.32498,1.17141 0.32498,1.17239 0.32498,1.17322 0.32498,1.17389 0.32498,1.17441 0.32498,1.17476 0.32498,1.17498 0.32498,1.17503 0.32498,1.17494 0.32498,1.17469 0.32498,1.17431 0.32498,1.17376 0.32498,1.17309 0.32498,1.17225 0.32498,1.17129 0.32498,1.17017 0.32498,1.16892 0.32498,1.16753 0.32497,1.166 0.32499,1.16434 0.32497,1.16254 0.32498,1.16061 0.32498,1.15855 0.32498,1.15636 0.32498,1.15405 0.32498,1.15159 0.32498,1.14903 0.32498,1.14634 0.32498,1.14352 0.32498,1.14059 0.32498,1.13753 0.32498,1.13437 0.32498,1.13109 0.32498,1.12769 0.32498,1.12418 0.32498,1.12057 0.32498,1.11684 0.32498,1.11301 0.32498,1.10908 0.32497,1.10504 0.32499,1.1009 0.32497,1.09667 0.32498,1.09234 0.32498,1.0879 0.32498,1.08339 0.32498,1.07877 0.32498,1.07407 0.32498,1.06928 0.32498,1.06441 0.32498,1.05944 0.32498,1.0544 0.32498,1.04928 0.32498,1.04407 0.32498,1.0388 0.32498,1.03344 0.32498,1.02802 0.32498,1.02252 0.32498,1.01695 0.32498,1.01132 0.32498,1.00561 0.32497,0.99985 0.32499,0.99403 0.32497,0.98813 0.32498,0.98219 0.32498,0.97619 0.32498,0.97014 0.32498,0.96402 0.32498,0.95786 0.32498,0.95166 0.32498,0.94539 0.32498,0.93909 0.32498,0.93274 0.32498,0.92635 0.32498,0.91992 0.32498,0.91345 0.32498,0.90694 0.32498,0.90039 0.32498,0.89382 0.32498,0.88721 0.32498,0.88058 0.32498,0.8739 0.32498,0.8672 0.32497,0.86049 0.32498,0.85374 0.32498,0.84697 0.32498,0.84018 0.32498,0.83338 0.32498,0.82655 0.32498,0.81971 0.32498,0.81285 0.32498,0.80598 0.32498,0.7991 0.32498,0.7922 0.32498,0.78531 0.32498,0.7784 0.32498,0.77149 0.32498,0.76457 0.32498,0.75765 0.32498,0.75072 0.32498,0.74381 0.32498,0.73687 0.32498,0.72997 0.32498,0.72304 0.32497,0.71613 0.32498,0.709227 0.32498,0.702329 0.32498,0.695438 0.32498,0.688558 0.32498,0.68169 0.32498,0.674832 0.32498,0.667988 0.32498,0.661158 0.32498,0.654345 0.32498,0.647546 0.32498,0.640766 0.32498,0.634005 0.32498,0.627262 0.32498,0.620541 0.32498,0.61384 0.32498,0.607163 0.32498,0.600509 0.32498,0.59388 0.32498,0.587274 0.32498,0.580697 0.32497,0.574145 0.32498,0.567621 0.32498,0.561127 0.32498,0.55466 0.32498,0.548226 0.32498,0.541821 0.32498,0.535449 0.32498,0.529109 v 32.871864 0 h -0.32498 -0.32498 -0.32498 -0.32498 -0.32498 -0.32498 -0.32498 -0.32497 -0.32498 -0.32498 -0.32498 -0.32498 -0.32498 -0.32498 -0.32498 -0.32498 -0.32498 -0.32498 -0.32498 -0.32498 -0.32498 -0.32498 -0.32498 -0.32498 -0.32498 -0.32498 -0.32498 -0.32498 -0.32497 -0.32498 -0.32498 -0.32498 -0.32498 -0.32498 -0.32498 -0.32498 -0.32498 -0.32498 -0.32498 -0.32498 -0.32498 -0.32498 -0.32498 -0.32498 -0.32498 -0.32498 -0.32498 -0.32498 -0.32498 -0.32497 -0.32498 -0.32498 -0.32498 -0.32498 -0.32498 -0.32498 -0.32498 -0.32498 -0.32498 -0.32498 -0.32498 -0.32498 -0.32498 -0.32498 -0.32498 -0.32498 -0.32498 -0.32498 -0.32498 -0.32497 -0.32499 -0.32497 -0.32498 -0.32498 -0.32498 -0.32498 -0.32498 -0.32498 -0.32498 -0.32498 -0.32498 -0.32498 -0.32498 -0.32498 -0.32498 -0.32498 -0.32498 -0.32498 -0.32498 -0.32498 -0.32497 -0.32499 -0.32497 -0.32498 -0.32498 -0.32498 -0.32498 -0.32498 -0.32498 -0.32498 -0.32498 -0.32498 -0.32498 -0.32498 -0.32498 -0.32498 -0.32498 -0.32498 -0.32498 -0.32498 -0.32498 -0.32497 -0.32499 -0.32497 -0.32498 -0.32498 -0.32498 -0.32498 -0.32498 -0.32498 -0.32498 -0.32498 -0.32498 -0.32498 -0.32498 -0.32498 -0.32498 -0.32498 -0.32498 -0.32498 -0.32498 -0.32498 -0.32498 -0.32498 -0.32497 -0.32498 -0.32498 -0.32498 -0.32498 -0.32498 -0.32498 -0.32498 -0.32498 -0.32498 -0.32498 -0.32498 -0.32498 -0.32498 -0.32498 -0.32498 -0.32498 -0.32498 -0.32498 -0.32498 -0.32498 -0.32497 -0.32498 -0.32498 -0.32498 -0.32498 -0.32498 -0.32498 -0.32498 -0.32498 -0.32498 -0.32498 -0.32498 -0.32498 -0.32498 -0.32498 -0.32498 -0.32498 -0.32498 -0.32498 -0.32498 -0.32498 -0.32497 -0.32498 -0.32498 -0.32498 -0.32498 -0.32498 -0.32498 -0.32498 -0.32498 -0.32498 -0.32498 -0.32498 -0.32498 -0.32498 -0.32498 -0.32498 -0.32498 -0.32498 -0.32498 -0.32498 -0.32498 -0.32497 -0.32498 -0.32498 -0.32498 -0.32498 -0.32498 -0.32498 -0.32498 -0.32498 -0.32498 -0.32498 -0.32498 -0.32498 -0.32498 -0.32498 -0.32498 -0.32498 -0.32498 -0.32498 -0.32498 -0.32498 -0.32497 -0.32498 -0.32498 -0.32498 -0.32498 -0.32498 -0.32498 -0.32498 -0.32498 -0.32498 -0.32498 -0.32498 -0.32498 -0.32498 -0.32498 -0.32498 -0.32498 -0.32498 -0.32498 -0.32498 -0.32498 -0.32498 -0.32497 -0.32498 -0.32498 -0.32498 -0.32498 -0.32498 -0.32498 -0.32498 -0.32498 -0.32498 -0.32498 -0.32498 -0.32498 -0.32498 -0.32498 -0.32498 -0.32498 -0.32498 -0.32498 -0.32498 -0.32498 -0.32497 -0.32498 -0.32498 -0.32498 -0.32498 -0.32498 -0.32498 -0.32498 -0.32498 -0.32498 -0.32498 -0.32498 -0.32498 -0.32498 -0.32498 -0.32498 -0.32498 -0.32498 -0.32498 -0.32498 -0.32498 -0.32497 -0.32498 -0.32498 -0.32498 -0.32498 -0.32498 -0.32498 -0.32498 -0.32498 -0.32498 -0.32498 -0.32498 -0.32498 -0.32498 -0.32498 -0.32498 -0.32498 -0.32498 -0.32498 -0.32498 -0.32498 -0.32497 -0.32498 -0.32498 -0.32498 -0.32498 -0.32498 -0.32498 -0.32498 -0.32498 -0.32498 -0.32498 -0.32498 -0.32498 -0.32498 -0.32498 -0.32498 -0.32498 -0.32498 -0.32498 -0.32498 -0.32498 -0.32497 -0.32498 -0.32498 -0.32498 -0.32498 -0.32498 -0.32498 -0.32498 -0.32498 -0.32498 -0.32498 -0.32498 -0.32498 -0.32498 -0.32498 -0.32498 -0.32498 -0.32498 -0.32498 -0.32498 -0.32498 -0.32497 -0.32498 -0.32498 -0.32498 -0.32498 -0.32498 -0.32498 -0.32498 -0.32498 -0.32498 -0.32498 -0.32498 -0.32498 -0.32498 -0.32498 -0.32498 -0.32498 -0.32498 -0.32498 -0.32498 -0.32498 -0.32497 -0.32498 -0.32498 -0.32498 -0.32498 -0.32498 -0.32498 -0.32498 -0.32498 -0.32498 -0.32498 -0.32498 -0.32498 -0.32498 -0.32498 -0.32498 -0.32498 -0.32498 -0.32498 -0.32498 -0.32498 -0.32497 -0.32498 -0.32498 -0.32498 -0.32498 -0.32498 -0.32498 -0.32498 -0.32498 -0.32498 -0.32498 -0.32498 -0.32498 -0.32498 -0.32498 -0.32498 -0.32498 -0.32498 -0.32498 -0.32498 -0.32498 -0.32497 -0.32498 -0.32498 -0.32498 -0.32498 -0.32498 -0.32498 -0.32498 -0.32498 -0.32498 -0.32498 -0.32498 -0.32498 -0.32498 -0.32498 -0.32498 -0.32498 -0.32498 -0.32498 -0.32498 -0.32498 -0.32497 -0.32498 -0.32498 -0.32498 -0.32498 -0.32498 -0.32498 -0.32498 -0.32498 -0.32498 -0.32498 -0.32498 -0.32498 -0.32498 -0.32498 -0.32498 -0.32498 -0.32498 -0.32498 -0.32498 -0.32498 -0.32497 -0.32498 -0.32498 -0.32498 -0.32498 -0.32498 -0.32498 -0.32498 -0.32498 -0.32498 -0.32498 -0.32498 -0.32498 -0.32498 -0.32498 -0.32498 -0.32498 -0.32498 -0.32498 -0.32498 -0.32498 -0.32497 -0.32498 -0.32498 -0.32498 -0.32498 -0.32498 -0.32498 -0.32498 -0.32498 -0.32498 -0.32498 -0.32498 -0.32498 -0.32498 -0.32498 -0.32498 -0.32498 -0.32498 -0.32498 -0.32498 -0.32498 -0.32497 -0.32498 -0.32498 -0.32498 -0.32498 -0.32498 z"
       style="stroke:#002d8b;stroke-opacity:0.5" /><filter
       inkscape:label="Chalk and Sponge"
       inkscape:menu="Distort"
       inkscape:menu-tooltip="Low turbulence gives sponge look and high turbulence chalk"
       width="1"
       height="inf"
       y="-inf"
       x="0"
       style="color-interpolation-filters:sRGB;"
       id="filter2"><feTurbulence
         baseFrequency="0.4"
         type="fractalNoise"
         seed="0"
         numOctaves="5"
         result="result1"
         id="feTurbulence2" /><feDisplacementMap
         xChannelSelector="R"
         yChannelSelector="G"
         scale="30"
         in="SourceGraphic"
         in2="result1"
         id="feDisplacementMap2" /></filter><filter
       inkscape:label="Chalk and Sponge"
       inkscape:menu="Distort"
       inkscape:menu-tooltip="Low turbulence gives sponge look and high turbulence chalk"
       width="1.0678851"
       height="1.1072897"
       y="-0.053644863"
       x="-0.033942569"
       style="color-interpolation-filters:sRGB;"
       id="filter3"><feTurbulence
         baseFrequency="0.4"
         type="fractalNoise"
         seed="0"
         numOctaves="5"
         result="result1"
         id="feTurbulence3" /><feDisplacementMap
         xChannelSelector="R"
         yChannelSelector="G"
         scale="30"
         in="SourceGraphic"
         in2="result1"
         id="feDisplacementMap3" /></filter><filter
       style="color-interpolation-filters:sRGB;"
       inkscape:label="Roughen"
       id="filter4"
       x="0"
       y="-inf"
       width="1"
       height="inf"><feTurbulence
         type="fractalNoise"
         numOctaves="5"
         seed="1"
         baseFrequency="0.013 0.013"
         result="turbulence"
         id="feTurbulence4" /><feDisplacementMap
         in="SourceGraphic"
         in2="turbulence"
         scale="6.6"
         yChannelSelector="G"
         xChannelSelector="R"
         id="feDisplacementMap4"
         result="fbSourceGraphic" /><feColorMatrix
         result="fbSourceGraphicAlpha"
         in="fbSourceGraphic"
         values="0 0 0 -1 0 0 0 0 -1 0 0 0 0 -1 0 0 0 0 1 0"
         id="feColorMatrix4" /><feTurbulence
         id="feTurbulence5"
         type="fractalNoise"
         numOctaves="3"
         seed="1"
         baseFrequency="0.013 0.013"
         result="turbulence"
         in="fbSourceGraphic" /><feDisplacementMap
         id="feDisplacementMap5"
         in="fbSourceGraphic"
         in2="turbulence"
         scale="6.6"
         yChannelSelector="G"
         xChannelSelector="R"
         result="fbSourceGraphic" /><feColorMatrix
         result="fbSourceGraphicAlpha"
         in="fbSourceGraphic"
         values="0 0 0 -1 0 0 0 0 -1 0 0 0 0 -1 0 0 0 0 1 0"
         id="feColorMatrix5" /><feTurbulence
         id="feTurbulence6"
         type="fractalNoise"
         numOctaves="3"
         seed="1"
         baseFrequency="0.013 0.013"
         result="turbulence"
         in="fbSourceGraphic" /><feDisplacementMap
         id="feDisplacementMap6"
         in="fbSourceGraphic"
         in2="turbulence"
         scale="6.6"
         yChannelSelector="G"
         xChannelSelector="R"
         result="fbSourceGraphic" /><feColorMatrix
         result="fbSourceGraphicAlpha"
         in="fbSourceGraphic"
         values="0 0 0 -1 0 0 0 0 -1 0 0 0 0 -1 0 0 0 0 1 0"
         id="feColorMatrix6" /><feTurbulence
         id="feTurbulence7"
         type="fractalNoise"
         numOctaves="2"
         seed="1"
         baseFrequency="0.013 0.013"
         result="turbulence"
         in="fbSourceGraphic" /><feDisplacementMap
         id="feDisplacementMap7"
         in="fbSourceGraphic"
         in2="turbulence"
         scale="6.6"
         yChannelSelector="G"
         xChannelSelector="R"
         result="fbSourceGraphic" /><feColorMatrix
         result="fbSourceGraphicAlpha"
         in="fbSourceGraphic"
         values="0 0 0 -1 0 0 0 0 -1 0 0 0 0 -1 0 0 0 0 1 0"
         id="feColorMatrix7" /><feTurbulence
         id="feTurbulence8"
         type="fractalNoise"
         numOctaves="2"
         seed="1"
         baseFrequency="0.013 0.013"
         result="turbulence"
         in="fbSourceGraphic" /><feDisplacementMap
         id="feDisplacementMap8"
         in="fbSourceGraphic"
         in2="turbulence"
         scale="6.6"
         yChannelSelector="G"
         xChannelSelector="R"
         result="fbSourceGraphic" /><feColorMatrix
         result="fbSourceGraphicAlpha"
         in="fbSourceGraphic"
         values="0 0 0 -1 0 0 0 0 -1 0 0 0 0 -1 0 0 0 0 1 0"
         id="feColorMatrix8" /><feTurbulence
         id="feTurbulence9"
         type="fractalNoise"
         numOctaves="2"
         seed="1"
         baseFrequency="0.013 0.013"
         result="turbulence"
         in="fbSourceGraphic" /><feDisplacementMap
         id="feDisplacementMap9"
         in="fbSourceGraphic"
         in2="turbulence"
         scale="6.6"
         yChannelSelector="G"
         xChannelSelector="R" /></filter><filter
       style="color-interpolation-filters:sRGB;"
       inkscape:label="Roughen"
       id="filter10"
       x="-0.0048949406"
       y="-1.4457032"
       width="1.0097899"
       height="3.8914063"><feTurbulence
         type="fractalNoise"
         numOctaves="5"
         seed="360"
         baseFrequency="10 10"
         result="turbulence"
         id="feTurbulence10" /><feDisplacementMap
         in="SourceGraphic"
         in2="turbulence"
         scale="10.9422"
         yChannelSelector="G"
         xChannelSelector="R"
         id="feDisplacementMap10"
         result="fbSourceGraphic" /><feColorMatrix
         result="fbSourceGraphicAlpha"
         in="fbSourceGraphic"
         values="0 0 0 -1 0 0 0 0 -1 0 0 0 0 -1 0 0 0 0 1 0"
         id="feColorMatrix10" /><feTurbulence
         id="feTurbulence11"
         type="fractalNoise"
         numOctaves="5"
         seed="360"
         baseFrequency="10 10"
         result="turbulence"
         in="fbSourceGraphic" /><feDisplacementMap
         id="feDisplacementMap11"
         in="fbSourceGraphic"
         in2="turbulence"
         scale="10.9422"
         yChannelSelector="G"
         xChannelSelector="R" /></filter><filter
       style="color-interpolation-filters:sRGB"
       inkscape:label="Roughen"
       id="filter10-0"
       x="-0.0048949406"
       y="-1.4457032"
       width="1.0097899"
       height="3.8914063"><feTurbulence
         type="fractalNoise"
         numOctaves="5"
         seed="360"
         baseFrequency="10 10"
         result="turbulence"
         id="feTurbulence10-1" /><feDisplacementMap
         in="SourceGraphic"
         in2="turbulence"
         scale="10.9422"
         yChannelSelector="G"
         xChannelSelector="R"
         id="feDisplacementMap10-8"
         result="fbSourceGraphic" /><feColorMatrix
         result="fbSourceGraphicAlpha"
         in="fbSourceGraphic"
         values="0 0 0 -1 0 0 0 0 -1 0 0 0 0 -1 0 0 0 0 1 0"
         id="feColorMatrix10-7" /><feTurbulence
         id="feTurbulence11-6"
         type="fractalNoise"
         numOctaves="5"
         seed="360"
         baseFrequency="10 10"
         result="turbulence" /><feDisplacementMap
         id="feDisplacementMap11-0"
         in="fbSourceGraphic"
         in2="turbulence"
         scale="10.9422"
         yChannelSelector="G"
         xChannelSelector="R" /></filter></defs><g
     inkscape:label="Layer 1"
     inkscape:groupmode="layer"
     id="layer1"
     transform="translate(-27.772261,-84.384949)"><rect
       style="opacity:0.816803;fill:#000000;fill-opacity:0.70649;stroke-width:0.209;stroke-linecap:round"
       id="rect1"
       width="170.37215"
       height="97.737015"
       x="28.237019"
       y="84.477898"
       ry="12.817967"
       sodipodi:insensitive="true" /><rect
       style="opacity:0.816803;fill:#000000;fill-opacity:0.70649;stroke-width:0.190641;stroke-linecap:round"
       id="rect1-9"
       width="160.1312"
       height="86.521294"
       x="32.892738"
       y="89.992813"
       ry="11.347053"
       inkscape:export-filename="ufIt9nRg.png"
       inkscape:export-xdpi="96"
       inkscape:export-ydpi="96"
       sodipodi:insensitive="true" /><text
       xml:space="preserve"
       style="font-size:11.2889px;font-family:Chalkduster;-inkscape-font-specification:'Chalkduster, Normal';text-align:start;writing-mode:lr-tb;direction:ltr;text-anchor:start;white-space:pre;inline-size:19.6112;display:inline;fill:#ffffff;stroke-width:0.864306;stroke-linejoin:round;stroke-dasharray:0.45407, 0.90814;stroke-dashoffset:0.363257;-inkscape-stroke:none"
       x="82.653114"
       y="108.9332"
       id="text4" /><text
       xml:space="preserve"
       style="font-style:normal;font-variant:normal;font-weight:normal;font-stretch:normal;font-size:3.86956px;line-height:normal;font-family:Chalkduster;-inkscape-font-specification:'Chalkduster, Normal';font-variant-ligatures:normal;font-variant-position:normal;font-variant-caps:normal;font-variant-numeric:normal;font-variant-alternates:normal;font-variant-east-asian:normal;text-indent:0;text-align:start;text-decoration-line:none;text-decoration-style:solid;text-decoration-color:#000000;letter-spacing:normal;word-spacing:normal;text-transform:none;writing-mode:lr-tb;direction:ltr;text-orientation:mixed;dominant-baseline:auto;baseline-shift:baseline;white-space:normal;opacity:1;fill:#ffffff;fill-opacity:1;stroke:#ffffff;stroke-width:0.861999;stroke-linecap:butt;stroke-linejoin:round;stroke-miterlimit:4;stroke-dasharray:none;stroke-dashoffset:0;stroke-opacity:1;marker-end:url(#Triangle)"
       x="62.514004"
       y="124.74451"
       id="text48"><tspan
         sodipodi:role="line"
         id="tspan48"
         style="stroke-width:0.862" /></text><text
       xml:space="preserve"
       style="font-style:normal;font-variant:normal;font-weight:normal;font-stretch:normal;font-size:4.9389px;line-height:normal;font-family:Chalkduster;-inkscape-font-specification:'Chalkduster, Normal';font-variant-ligatures:normal;font-variant-caps:normal;font-variant-numeric:normal;font-variant-east-asian:normal;text-align:start;text-decoration-color:#000000;writing-mode:lr-tb;direction:ltr;text-anchor:start;fill:#ffffff;fill-opacity:1;stroke:#c8c8c8;stroke-width:0.965465;stroke-linejoin:round;stroke-dasharray:none;stroke-opacity:1"
       x="94.59684"
       y="143.34364"
       id="text11"><tspan
         sodipodi:role="line"
         id="tspan11"
         style="stroke-width:0.965465" /></text><text
       xml:space="preserve"
       style="font-style:normal;font-variant:normal;font-weight:normal;font-stretch:normal;font-size:3.40683px;line-height:normal;font-family:Chalkduster;-inkscape-font-specification:'Chalkduster, Normal';font-variant-ligatures:normal;font-variant-position:normal;font-variant-caps:normal;font-variant-numeric:normal;font-variant-alternates:normal;font-variant-east-asian:normal;font-feature-settings:normal;font-variation-settings:normal;text-indent:0;text-align:start;text-decoration-line:none;text-decoration-style:solid;text-decoration-color:#000000;letter-spacing:normal;word-spacing:normal;text-transform:none;writing-mode:lr-tb;direction:ltr;text-orientation:mixed;dominant-baseline:auto;baseline-shift:baseline;white-space:normal;opacity:1;vector-effect:none;fill:#ffffff;fill-opacity:1;stroke:none;stroke-width:0.880539;stroke-linecap:butt;stroke-linejoin:round;stroke-miterlimit:4;stroke-dasharray:none;stroke-dashoffset:0;stroke-opacity:1;-inkscape-stroke:none"
       x="58.894527"
       y="123.49331"
       id="text16"><tspan
         sodipodi:role="line"
         id="tspan16"
         style="stroke-width:0.880538" /></text><g
       id="g9"
       transform="matrix(0.82362242,0,0,0.82362242,2.9985455,34.338592)"
       inkscape:export-filename="JOlapn3L.png"
       inkscape:export-xdpi="96"
       inkscape:export-ydpi="96"><g
         id="g21"
         transform="matrix(1.6579265,0,0,1.6579265,-82.642232,-85.844308)"><g
           id="g22"
           transform="translate(0.7394788)"><text
             xml:space="preserve"
             style="font-style:normal;font-variant:normal;font-weight:normal;font-stretch:normal;font-size:10.0328px;line-height:normal;font-family:Chalkduster;-inkscape-font-specification:'Chalkduster, Normal';font-variant-ligatures:normal;font-variant-position:normal;font-variant-caps:normal;font-variant-numeric:normal;font-variant-alternates:normal;font-variant-east-asian:normal;font-feature-settings:normal;font-variation-settings:normal;text-indent:0;text-align:start;text-decoration-line:none;text-decoration-style:solid;text-decoration-color:#000000;letter-spacing:normal;word-spacing:normal;text-transform:none;writing-mode:lr-tb;direction:ltr;text-orientation:mixed;dominant-baseline:auto;baseline-shift:baseline;white-space:normal;vector-effect:none;fill:#ffffff;fill-opacity:1;stroke:none;stroke-width:2.5931;stroke-linecap:butt;stroke-linejoin:round;stroke-miterlimit:4;stroke-dasharray:none;stroke-dashoffset:0;stroke-opacity:1;-inkscape-stroke:none"
             x="129.95053"
             y="127.92461"
             id="text15-4-0-0"
             inkscape:transform-center-x="0.71976933"><tspan
               sodipodi:role="line"
               id="tspan15-8-7-2"
               style="stroke-width:2.5931"
               x="129.95053"
               y="127.92461">Z</tspan></text><g
             id="g8"
             transform="translate(1.804289,-0.31040404)"><text
               xml:space="preserve"
               style="font-size:4.91064px;line-height:normal;font-family:Chalkduster;-inkscape-font-specification:'Chalkduster, Normal';text-align:start;text-decoration-color:#000000;writing-mode:lr-tb;direction:ltr;text-anchor:start;fill:#ffffff;stroke-width:0.880533;stroke-linejoin:round"
               x="140.5972"
               y="121.34288"
               id="text1"><tspan
                 sodipodi:role="line"
                 id="tspan1"
                 style="stroke-width:0.880533"
                 x="140.5972"
                 y="121.34288">_____</tspan></text><text
               xml:space="preserve"
               style="font-style:normal;font-variant:normal;font-weight:normal;font-stretch:normal;font-size:6.35px;line-height:normal;font-family:Chalkduster;-inkscape-font-specification:'Chalkduster, Normal';font-variant-ligatures:normal;font-variant-caps:normal;font-variant-numeric:normal;font-variant-east-asian:normal;text-align:start;text-decoration-color:#000000;writing-mode:lr-tb;direction:ltr;text-anchor:start;white-space:pre;inline-size:3.59171;display:inline;fill:#ffffff;stroke-width:0.880533;stroke-linejoin:round"
               x="150.07663"
               y="105.64872"
               id="text5"
               transform="translate(-2.6722898,13.63432)"><tspan
                 x="150.07663"
                 y="105.64872"
                 id="tspan2">s</tspan></text><g
               id="g7"><g
                 id="g6"><text
                   xml:space="preserve"
                   style="font-style:normal;font-variant:normal;font-weight:normal;font-stretch:normal;font-size:10.5428px;font-family:Chalkduster;-inkscape-font-specification:'Chalkduster, Normal';font-variant-ligatures:normal;font-variant-caps:normal;font-variant-numeric:normal;font-variant-east-asian:normal;text-align:start;writing-mode:lr-tb;direction:ltr;text-anchor:start;fill:#ffffff;stroke:none;stroke-width:0.807182;stroke-linejoin:round;-inkscape-stroke:none"
                   x="141.46124"
                   y="132.01115"
                   id="text10-5"><tspan
                     sodipodi:role="line"
                     id="tspan10-4"
                     style="stroke-width:0.807182"
                     x="141.46124"
                     y="132.01115">√</tspan></text><text
                   xml:space="preserve"
                   style="font-style:normal;font-variant:normal;font-weight:normal;font-stretch:normal;font-size:6.42289px;font-family:Chalkduster;-inkscape-font-specification:'Chalkduster, Normal';font-variant-ligatures:normal;font-variant-caps:normal;font-variant-numeric:normal;font-variant-east-asian:normal;text-align:start;writing-mode:lr-tb;direction:ltr;text-anchor:start;fill:#ffffff;stroke:none;stroke-width:0.491754;stroke-linejoin:round;-inkscape-stroke:none"
                   x="150.82729"
                   y="121.53272"
                   id="text11-3"
                   transform="scale(0.97723444,1.0232959)"><tspan
                     sodipodi:role="line"
                     id="tspan11-6"
                     style="stroke-width:0.491754"
                     x="150.82729"
                     y="121.53272">__</tspan></text></g><text
                 xml:space="preserve"
                 style="font-style:normal;font-variant:normal;font-weight:normal;font-stretch:normal;font-size:6.35px;line-height:normal;font-family:Chalkduster;-inkscape-font-specification:'Chalkduster, Normal';font-variant-ligatures:normal;font-variant-caps:normal;font-variant-numeric:normal;font-variant-east-asian:normal;text-align:start;text-decoration-color:#000000;writing-mode:lr-tb;direction:ltr;text-anchor:start;fill:#ffffff;stroke-width:0.880533;stroke-linejoin:round"
                 x="148.59865"
                 y="130.67502"
                 id="text6"><tspan
                   sodipodi:role="line"
                   id="tspan6"
                   style="stroke-width:0.880533"
                   x="148.59865"
                   y="130.67502">n</tspan></text></g></g><text
             xml:space="preserve"
             style="font-style:normal;font-variant:normal;font-weight:normal;font-stretch:normal;font-size:3.82061px;line-height:normal;font-family:Chalkduster;-inkscape-font-specification:'Chalkduster, Normal';font-variant-ligatures:normal;font-variant-caps:normal;font-variant-numeric:normal;font-variant-east-asian:normal;text-align:start;text-decoration-color:#000000;writing-mode:lr-tb;direction:ltr;text-anchor:start;fill:#ffffff;stroke-width:0.529792;stroke-linejoin:round"
             x="138.59373"
             y="129.14281"
             id="text8"><tspan
               sodipodi:role="line"
               id="tspan8"
               style="stroke-width:0.529792"
               x="138.59373"
               y="129.14281">C</tspan></text><text
             xml:space="preserve"
             style="font-style:normal;font-variant:normal;font-weight:normal;font-stretch:normal;font-size:4.70367px;line-height:normal;font-family:Chalkduster;-inkscape-font-specification:'Chalkduster, Normal';font-variant-ligatures:normal;font-variant-caps:normal;font-variant-numeric:normal;font-variant-east-asian:normal;text-align:start;text-decoration-color:#000000;writing-mode:lr-tb;direction:ltr;text-anchor:start;fill:#ffffff;stroke:none;stroke-width:0.644841;stroke-linejoin:round"
             x="98.677643"
             y="127.8674"
             id="text21"><tspan
               sodipodi:role="line"
               id="tspan21"
               style="font-style:normal;font-variant:normal;font-weight:normal;font-stretch:normal;font-size:10.0328px;font-family:Chalkduster;-inkscape-font-specification:'Chalkduster, Normal';font-variant-ligatures:normal;font-variant-caps:normal;font-variant-numeric:normal;font-variant-east-asian:normal;stroke-width:0.644841"
               x="98.677643"
               y="127.8674">E = ±</tspan></text></g><path
           style="fill:none;stroke:#ffffff;stroke-width:0.644841;stroke-linejoin:round;marker-start:url(#Triangle)"
           d="m 136.63939,131.66074 c -0.43449,14.01245 -13.14345,13.03484 -13.14345,13.03484"
           id="path22"
           sodipodi:nodetypes="cc" /><text
           xml:space="preserve"
           style="font-style:normal;font-variant:normal;font-weight:normal;font-stretch:normal;font-size:3.24117px;line-height:normal;font-family:Chalkduster;-inkscape-font-specification:'Chalkduster, Normal';font-variant-ligatures:normal;font-variant-caps:normal;font-variant-numeric:normal;font-variant-east-asian:normal;text-align:start;text-decoration-color:#000000;writing-mode:lr-tb;direction:ltr;text-anchor:start;fill:none;stroke:#ffffff;stroke-width:0.208321;stroke-linejoin:round"
           x="77.662018"
           y="145.8528"
           id="text22"><tspan
             sodipodi:role="line"
             id="tspan22"
             style="fill:#ffffff;stroke:none;stroke-width:0.208321"
             x="77.662018"
             y="145.8528">Z-score for confidence</tspan></text><text
           xml:space="preserve"
           style="font-style:normal;font-variant:normal;font-weight:normal;font-stretch:normal;font-size:3.24117px;line-height:normal;font-family:Chalkduster;-inkscape-font-specification:'Chalkduster, Normal';font-variant-ligatures:normal;font-variant-caps:normal;font-variant-numeric:normal;font-variant-east-asian:normal;text-align:start;text-decoration-color:#000000;writing-mode:lr-tb;direction:ltr;text-anchor:start;fill:none;stroke:#ffffff;stroke-width:0.208321;stroke-linejoin:round"
           x="77.654854"
           y="135.31459"
           id="text22-7"><tspan
             sodipodi:role="line"
             style="fill:#ffffff;stroke:none;stroke-width:0.208321"
             x="77.654854"
             y="135.31459"
             id="tspan25">Add/subtract from</tspan><tspan
             sodipodi:role="line"
             style="fill:#ffffff;stroke:none;stroke-width:0.208321"
             x="77.654854"
             y="139.36606"
             id="tspan26">x for CI range</tspan></text><text
           xml:space="preserve"
           style="font-style:normal;font-variant:normal;font-weight:normal;font-stretch:normal;font-size:3.24117px;line-height:normal;font-family:Chalkduster;-inkscape-font-specification:'Chalkduster, Normal';font-variant-ligatures:normal;font-variant-caps:normal;font-variant-numeric:normal;font-variant-east-asian:normal;text-align:start;text-decoration-color:#000000;writing-mode:lr-tb;direction:ltr;text-anchor:start;fill:none;stroke:#ffffff;stroke-width:0.208321;stroke-linejoin:round"
           x="143.60507"
           y="142.46739"
           id="text22-0"><tspan
             sodipodi:role="line"
             id="tspan22-0"
             style="fill:#ffffff;stroke:none;stroke-width:0.208321"
             x="143.60507"
             y="142.46739">Sample size</tspan></text><text
           xml:space="preserve"
           style="font-style:normal;font-variant:normal;font-weight:normal;font-stretch:normal;font-size:3.24117px;line-height:normal;font-family:Chalkduster;-inkscape-font-specification:'Chalkduster, Normal';font-variant-ligatures:normal;font-variant-caps:normal;font-variant-numeric:normal;font-variant-east-asian:normal;text-align:start;text-decoration-color:#000000;writing-mode:lr-tb;direction:ltr;text-anchor:start;fill:none;stroke:#ffffff;stroke-width:0.208321;stroke-linejoin:round"
           x="155.23743"
           y="106.51227"
           id="text22-0-2"><tspan
             sodipodi:role="line"
             id="tspan22-0-9"
             style="fill:#ffffff;stroke:none;stroke-width:0.208321"
             x="155.23743"
             y="106.51227">Sample standard</tspan><tspan
             sodipodi:role="line"
             style="fill:#ffffff;stroke:none;stroke-width:0.208321"
             x="155.23743"
             y="110.56373"
             id="tspan24">deviation</tspan></text><path
           style="fill:none;stroke:#ffffff;stroke-width:0.644841;stroke-linejoin:round;marker-start:url(#Triangle)"
           d="m 159.66761,128.61928 c 13.14345,-0.21724 -2.93285,10.42787 -2.93285,10.42787"
           id="path23"
           sodipodi:nodetypes="cc" /><path
           style="fill:none;stroke:#ffffff;stroke-width:0.644841;stroke-linejoin:round;marker-start:url(#Triangle)"
           d="m 156.51751,117.2138 c 0,0 3.91045,0.10862 5.9743,-0.97761 2.06385,-1.08624 2.17248,-4.23632 2.17248,-4.23632"
           id="path24"
           sodipodi:nodetypes="csc" /><path
           style="fill:none;stroke:#ffffff;stroke-width:0.644841;stroke-linejoin:round;marker-start:url(#Triangle)"
           d="m 126.75464,131.33487 c 0,0 0.32588,5.75705 -5.32255,5.9743 -5.64843,0.21725 -9.77613,0 -9.77613,0"
           id="path25"
           sodipodi:nodetypes="csc" /><text
           xml:space="preserve"
           style="font-style:normal;font-variant:normal;font-weight:normal;font-stretch:normal;font-size:2.58192px;line-height:normal;font-family:Chalkduster;-inkscape-font-specification:'Chalkduster, Normal';font-variant-ligatures:normal;font-variant-caps:normal;font-variant-numeric:normal;font-variant-east-asian:normal;text-align:start;text-decoration-color:#000000;writing-mode:lr-tb;direction:ltr;text-anchor:start;fill:#ffffff;stroke:none;stroke-width:0.165948;stroke-linejoin:round"
           x="53.409901"
           y="198.1461"
           id="text27"
           transform="scale(1.4463231,0.69140844)"><tspan
             sodipodi:role="line"
             id="tspan27"
             style="fill:#ffffff;stroke:none;stroke-width:0.165948"
             x="53.409901"
             y="198.1461">_</tspan></text><text
           xml:space="preserve"
           style="font-style:normal;font-variant:normal;font-weight:normal;font-stretch:normal;font-size:10.0328px;line-height:normal;font-family:Chalkduster;-inkscape-font-specification:'Chalkduster, Normal';font-variant-ligatures:normal;font-variant-caps:normal;font-variant-numeric:normal;font-variant-east-asian:normal;text-align:start;text-decoration-color:#000000;writing-mode:lr-tb;direction:ltr;text-anchor:start;fill:#ffffff;stroke:none;stroke-width:0.644841;stroke-linejoin:round"
           x="97.146072"
           y="100.10742"
           id="text28"><tspan
             sodipodi:role="line"
             id="tspan28"
             style="font-style:normal;font-variant:normal;font-weight:normal;font-stretch:normal;font-size:7.23379px;font-family:Chalkduster;-inkscape-font-specification:'Chalkduster, Normal';font-variant-ligatures:normal;font-variant-caps:normal;font-variant-numeric:normal;font-variant-east-asian:normal;stroke-width:0.644841"
             x="97.146072"
             y="100.10742">Margin of Error</tspan></text></g></g></g><style
     type="text/css"
     id="style1">.st0{fill-rule:evenodd;clip-rule:evenodd;}</style></svg>
