<?xml version="1.0" encoding="utf-8" standalone="no"?>
<!DOCTYPE svg PUBLIC "-//W3C//DTD SVG 1.1//EN"
  "http://www.w3.org/Graphics/SVG/1.1/DTD/svg11.dtd">
<svg xmlns:xlink="http://www.w3.org/1999/xlink" width="720pt" height="432pt" viewBox="0 0 720 432" xmlns="http://www.w3.org/2000/svg" version="1.1">
 <metadata>
  <rdf:RDF xmlns:dc="http://purl.org/dc/elements/1.1/" xmlns:cc="http://creativecommons.org/ns#" xmlns:rdf="http://www.w3.org/1999/02/22-rdf-syntax-ns#">
   <cc:Work>
    <dc:type rdf:resource="http://purl.org/dc/dcmitype/StillImage"/>
    <dc:date>2025-08-02T13:34:18.311700</dc:date>
    <dc:format>image/svg+xml</dc:format>
    <dc:creator>
     <cc:Agent>
      <dc:title>Matplotlib v3.10.3, https://matplotlib.org/</dc:title>
     </cc:Agent>
    </dc:creator>
   </cc:Work>
  </rdf:RDF>
 </metadata>
 <defs>
  <style type="text/css">*{stroke-linejoin: round; stroke-linecap: butt}</style>
 </defs>
 <g id="figure_1">
  <g id="patch_1">
   <path d="M 0 432 
L 720 432 
L 720 0 
L 0 0 
z
" style="fill: #ffffff"/>
  </g>
  <g id="axes_1">
   <g id="patch_2">
    <path d="M 90 384.48 
L 648 384.48 
L 648 51.84 
L 90 51.84 
z
" style="fill: #ffffff"/>
   </g>
   <g id="matplotlib.axis_1">
    <g id="xtick_1">
     <g id="line2d_1">
      <path d="M 166.090909 384.48 
L 166.090909 51.84 
" clip-path="url(#p21c4cca130)" style="fill: none; stroke: #b0b0b0; stroke-opacity: 0.3; stroke-width: 0.8; stroke-linecap: square"/>
     </g>
     <g id="line2d_2">
      <defs>
       <path id="m11723cc091" d="M 0 0 
L 0 3.5 
" style="stroke: #000000; stroke-width: 0.8"/>
      </defs>
      <g>
       <use xlink:href="#m11723cc091" x="166.090909" y="384.48" style="stroke: #000000; stroke-width: 0.8"/>
      </g>
     </g>
     <g id="text_1">
      <!-- −4 -->
      <g transform="translate(158.719815 399.078438) scale(0.1 -0.1)">
       <defs>
        <path id="DejaVuSans-2212" d="M 678 2272 
L 4684 2272 
L 4684 1741 
L 678 1741 
L 678 2272 
z
" transform="scale(0.015625)"/>
        <path id="DejaVuSans-34" d="M 2419 4116 
L 825 1625 
L 2419 1625 
L 2419 4116 
z
M 2253 4666 
L 3047 4666 
L 3047 1625 
L 3713 1625 
L 3713 1100 
L 3047 1100 
L 3047 0 
L 2419 0 
L 2419 1100 
L 313 1100 
L 313 1709 
L 2253 4666 
z
" transform="scale(0.015625)"/>
       </defs>
       <use xlink:href="#DejaVuSans-2212"/>
       <use xlink:href="#DejaVuSans-34" transform="translate(83.789062 0)"/>
      </g>
     </g>
    </g>
    <g id="xtick_2">
     <g id="line2d_3">
      <path d="M 267.545455 384.48 
L 267.545455 51.84 
" clip-path="url(#p21c4cca130)" style="fill: none; stroke: #b0b0b0; stroke-opacity: 0.3; stroke-width: 0.8; stroke-linecap: square"/>
     </g>
     <g id="line2d_4">
      <g>
       <use xlink:href="#m11723cc091" x="267.545455" y="384.48" style="stroke: #000000; stroke-width: 0.8"/>
      </g>
     </g>
     <g id="text_2">
      <!-- −2 -->
      <g transform="translate(260.174361 399.078438) scale(0.1 -0.1)">
       <defs>
        <path id="DejaVuSans-32" d="M 1228 531 
L 3431 531 
L 3431 0 
L 469 0 
L 469 531 
Q 828 903 1448 1529 
Q 2069 2156 2228 2338 
Q 2531 2678 2651 2914 
Q 2772 3150 2772 3378 
Q 2772 3750 2511 3984 
Q 2250 4219 1831 4219 
Q 1534 4219 1204 4116 
Q 875 4013 500 3803 
L 500 4441 
Q 881 4594 1212 4672 
Q 1544 4750 1819 4750 
Q 2544 4750 2975 4387 
Q 3406 4025 3406 3419 
Q 3406 3131 3298 2873 
Q 3191 2616 2906 2266 
Q 2828 2175 2409 1742 
Q 1991 1309 1228 531 
z
" transform="scale(0.015625)"/>
       </defs>
       <use xlink:href="#DejaVuSans-2212"/>
       <use xlink:href="#DejaVuSans-32" transform="translate(83.789062 0)"/>
      </g>
     </g>
    </g>
    <g id="xtick_3">
     <g id="line2d_5">
      <path d="M 369 384.48 
L 369 51.84 
" clip-path="url(#p21c4cca130)" style="fill: none; stroke: #b0b0b0; stroke-opacity: 0.3; stroke-width: 0.8; stroke-linecap: square"/>
     </g>
     <g id="line2d_6">
      <g>
       <use xlink:href="#m11723cc091" x="369" y="384.48" style="stroke: #000000; stroke-width: 0.8"/>
      </g>
     </g>
     <g id="text_3">
      <!-- 0 -->
      <g transform="translate(365.81875 399.078438) scale(0.1 -0.1)">
       <defs>
        <path id="DejaVuSans-30" d="M 2034 4250 
Q 1547 4250 1301 3770 
Q 1056 3291 1056 2328 
Q 1056 1369 1301 889 
Q 1547 409 2034 409 
Q 2525 409 2770 889 
Q 3016 1369 3016 2328 
Q 3016 3291 2770 3770 
Q 2525 4250 2034 4250 
z
M 2034 4750 
Q 2819 4750 3233 4129 
Q 3647 3509 3647 2328 
Q 3647 1150 3233 529 
Q 2819 -91 2034 -91 
Q 1250 -91 836 529 
Q 422 1150 422 2328 
Q 422 3509 836 4129 
Q 1250 4750 2034 4750 
z
" transform="scale(0.015625)"/>
       </defs>
       <use xlink:href="#DejaVuSans-30"/>
      </g>
     </g>
    </g>
    <g id="xtick_4">
     <g id="line2d_7">
      <path d="M 470.454545 384.48 
L 470.454545 51.84 
" clip-path="url(#p21c4cca130)" style="fill: none; stroke: #b0b0b0; stroke-opacity: 0.3; stroke-width: 0.8; stroke-linecap: square"/>
     </g>
     <g id="line2d_8">
      <g>
       <use xlink:href="#m11723cc091" x="470.454545" y="384.48" style="stroke: #000000; stroke-width: 0.8"/>
      </g>
     </g>
     <g id="text_4">
      <!-- 2 -->
      <g transform="translate(467.273295 399.078438) scale(0.1 -0.1)">
       <use xlink:href="#DejaVuSans-32"/>
      </g>
     </g>
    </g>
    <g id="xtick_5">
     <g id="line2d_9">
      <path d="M 571.909091 384.48 
L 571.909091 51.84 
" clip-path="url(#p21c4cca130)" style="fill: none; stroke: #b0b0b0; stroke-opacity: 0.3; stroke-width: 0.8; stroke-linecap: square"/>
     </g>
     <g id="line2d_10">
      <g>
       <use xlink:href="#m11723cc091" x="571.909091" y="384.48" style="stroke: #000000; stroke-width: 0.8"/>
      </g>
     </g>
     <g id="text_5">
      <!-- 4 -->
      <g transform="translate(568.727841 399.078438) scale(0.1 -0.1)">
       <use xlink:href="#DejaVuSans-34"/>
      </g>
     </g>
    </g>
    <g id="text_6">
     <!-- x -->
     <g transform="translate(366.040625 412.756563) scale(0.1 -0.1)">
      <defs>
       <path id="DejaVuSans-78" d="M 3513 3500 
L 2247 1797 
L 3578 0 
L 2900 0 
L 1881 1375 
L 863 0 
L 184 0 
L 1544 1831 
L 300 3500 
L 978 3500 
L 1906 2253 
L 2834 3500 
L 3513 3500 
z
" transform="scale(0.015625)"/>
      </defs>
      <use xlink:href="#DejaVuSans-78"/>
     </g>
    </g>
   </g>
   <g id="matplotlib.axis_2">
    <g id="ytick_1">
     <g id="line2d_11">
      <path d="M 90 369.361127 
L 648 369.361127 
" clip-path="url(#p21c4cca130)" style="fill: none; stroke: #b0b0b0; stroke-opacity: 0.3; stroke-width: 0.8; stroke-linecap: square"/>
     </g>
     <g id="line2d_12">
      <defs>
       <path id="mc0fa834a86" d="M 0 0 
L -3.5 0 
" style="stroke: #000000; stroke-width: 0.8"/>
      </defs>
      <g>
       <use xlink:href="#mc0fa834a86" x="90" y="369.361127" style="stroke: #000000; stroke-width: 0.8"/>
      </g>
     </g>
     <g id="text_7">
      <!-- 0.00 -->
      <g transform="translate(60.734375 373.160346) scale(0.1 -0.1)">
       <defs>
        <path id="DejaVuSans-2e" d="M 684 794 
L 1344 794 
L 1344 0 
L 684 0 
L 684 794 
z
" transform="scale(0.015625)"/>
       </defs>
       <use xlink:href="#DejaVuSans-30"/>
       <use xlink:href="#DejaVuSans-2e" transform="translate(63.623047 0)"/>
       <use xlink:href="#DejaVuSans-30" transform="translate(95.410156 0)"/>
       <use xlink:href="#DejaVuSans-30" transform="translate(159.033203 0)"/>
      </g>
     </g>
    </g>
    <g id="ytick_2">
     <g id="line2d_13">
      <path d="M 90 331.460291 
L 648 331.460291 
" clip-path="url(#p21c4cca130)" style="fill: none; stroke: #b0b0b0; stroke-opacity: 0.3; stroke-width: 0.8; stroke-linecap: square"/>
     </g>
     <g id="line2d_14">
      <g>
       <use xlink:href="#mc0fa834a86" x="90" y="331.460291" style="stroke: #000000; stroke-width: 0.8"/>
      </g>
     </g>
     <g id="text_8">
      <!-- 0.05 -->
      <g transform="translate(60.734375 335.25951) scale(0.1 -0.1)">
       <defs>
        <path id="DejaVuSans-35" d="M 691 4666 
L 3169 4666 
L 3169 4134 
L 1269 4134 
L 1269 2991 
Q 1406 3038 1543 3061 
Q 1681 3084 1819 3084 
Q 2600 3084 3056 2656 
Q 3513 2228 3513 1497 
Q 3513 744 3044 326 
Q 2575 -91 1722 -91 
Q 1428 -91 1123 -41 
Q 819 9 494 109 
L 494 744 
Q 775 591 1075 516 
Q 1375 441 1709 441 
Q 2250 441 2565 725 
Q 2881 1009 2881 1497 
Q 2881 1984 2565 2268 
Q 2250 2553 1709 2553 
Q 1456 2553 1204 2497 
Q 953 2441 691 2322 
L 691 4666 
z
" transform="scale(0.015625)"/>
       </defs>
       <use xlink:href="#DejaVuSans-30"/>
       <use xlink:href="#DejaVuSans-2e" transform="translate(63.623047 0)"/>
       <use xlink:href="#DejaVuSans-30" transform="translate(95.410156 0)"/>
       <use xlink:href="#DejaVuSans-35" transform="translate(159.033203 0)"/>
      </g>
     </g>
    </g>
    <g id="ytick_3">
     <g id="line2d_15">
      <path d="M 90 293.559456 
L 648 293.559456 
" clip-path="url(#p21c4cca130)" style="fill: none; stroke: #b0b0b0; stroke-opacity: 0.3; stroke-width: 0.8; stroke-linecap: square"/>
     </g>
     <g id="line2d_16">
      <g>
       <use xlink:href="#mc0fa834a86" x="90" y="293.559456" style="stroke: #000000; stroke-width: 0.8"/>
      </g>
     </g>
     <g id="text_9">
      <!-- 0.10 -->
      <g transform="translate(60.734375 297.358675) scale(0.1 -0.1)">
       <defs>
        <path id="DejaVuSans-31" d="M 794 531 
L 1825 531 
L 1825 4091 
L 703 3866 
L 703 4441 
L 1819 4666 
L 2450 4666 
L 2450 531 
L 3481 531 
L 3481 0 
L 794 0 
L 794 531 
z
" transform="scale(0.015625)"/>
       </defs>
       <use xlink:href="#DejaVuSans-30"/>
       <use xlink:href="#DejaVuSans-2e" transform="translate(63.623047 0)"/>
       <use xlink:href="#DejaVuSans-31" transform="translate(95.410156 0)"/>
       <use xlink:href="#DejaVuSans-30" transform="translate(159.033203 0)"/>
      </g>
     </g>
    </g>
    <g id="ytick_4">
     <g id="line2d_17">
      <path d="M 90 255.658621 
L 648 255.658621 
" clip-path="url(#p21c4cca130)" style="fill: none; stroke: #b0b0b0; stroke-opacity: 0.3; stroke-width: 0.8; stroke-linecap: square"/>
     </g>
     <g id="line2d_18">
      <g>
       <use xlink:href="#mc0fa834a86" x="90" y="255.658621" style="stroke: #000000; stroke-width: 0.8"/>
      </g>
     </g>
     <g id="text_10">
      <!-- 0.15 -->
      <g transform="translate(60.734375 259.457839) scale(0.1 -0.1)">
       <use xlink:href="#DejaVuSans-30"/>
       <use xlink:href="#DejaVuSans-2e" transform="translate(63.623047 0)"/>
       <use xlink:href="#DejaVuSans-31" transform="translate(95.410156 0)"/>
       <use xlink:href="#DejaVuSans-35" transform="translate(159.033203 0)"/>
      </g>
     </g>
    </g>
    <g id="ytick_5">
     <g id="line2d_19">
      <path d="M 90 217.757785 
L 648 217.757785 
" clip-path="url(#p21c4cca130)" style="fill: none; stroke: #b0b0b0; stroke-opacity: 0.3; stroke-width: 0.8; stroke-linecap: square"/>
     </g>
     <g id="line2d_20">
      <g>
       <use xlink:href="#mc0fa834a86" x="90" y="217.757785" style="stroke: #000000; stroke-width: 0.8"/>
      </g>
     </g>
     <g id="text_11">
      <!-- 0.20 -->
      <g transform="translate(60.734375 221.557004) scale(0.1 -0.1)">
       <use xlink:href="#DejaVuSans-30"/>
       <use xlink:href="#DejaVuSans-2e" transform="translate(63.623047 0)"/>
       <use xlink:href="#DejaVuSans-32" transform="translate(95.410156 0)"/>
       <use xlink:href="#DejaVuSans-30" transform="translate(159.033203 0)"/>
      </g>
     </g>
    </g>
    <g id="ytick_6">
     <g id="line2d_21">
      <path d="M 90 179.85695 
L 648 179.85695 
" clip-path="url(#p21c4cca130)" style="fill: none; stroke: #b0b0b0; stroke-opacity: 0.3; stroke-width: 0.8; stroke-linecap: square"/>
     </g>
     <g id="line2d_22">
      <g>
       <use xlink:href="#mc0fa834a86" x="90" y="179.85695" style="stroke: #000000; stroke-width: 0.8"/>
      </g>
     </g>
     <g id="text_12">
      <!-- 0.25 -->
      <g transform="translate(60.734375 183.656168) scale(0.1 -0.1)">
       <use xlink:href="#DejaVuSans-30"/>
       <use xlink:href="#DejaVuSans-2e" transform="translate(63.623047 0)"/>
       <use xlink:href="#DejaVuSans-32" transform="translate(95.410156 0)"/>
       <use xlink:href="#DejaVuSans-35" transform="translate(159.033203 0)"/>
      </g>
     </g>
    </g>
    <g id="ytick_7">
     <g id="line2d_23">
      <path d="M 90 141.956114 
L 648 141.956114 
" clip-path="url(#p21c4cca130)" style="fill: none; stroke: #b0b0b0; stroke-opacity: 0.3; stroke-width: 0.8; stroke-linecap: square"/>
     </g>
     <g id="line2d_24">
      <g>
       <use xlink:href="#mc0fa834a86" x="90" y="141.956114" style="stroke: #000000; stroke-width: 0.8"/>
      </g>
     </g>
     <g id="text_13">
      <!-- 0.30 -->
      <g transform="translate(60.734375 145.755333) scale(0.1 -0.1)">
       <defs>
        <path id="DejaVuSans-33" d="M 2597 2516 
Q 3050 2419 3304 2112 
Q 3559 1806 3559 1356 
Q 3559 666 3084 287 
Q 2609 -91 1734 -91 
Q 1441 -91 1130 -33 
Q 819 25 488 141 
L 488 750 
Q 750 597 1062 519 
Q 1375 441 1716 441 
Q 2309 441 2620 675 
Q 2931 909 2931 1356 
Q 2931 1769 2642 2001 
Q 2353 2234 1838 2234 
L 1294 2234 
L 1294 2753 
L 1863 2753 
Q 2328 2753 2575 2939 
Q 2822 3125 2822 3475 
Q 2822 3834 2567 4026 
Q 2313 4219 1838 4219 
Q 1578 4219 1281 4162 
Q 984 4106 628 3988 
L 628 4550 
Q 988 4650 1302 4700 
Q 1616 4750 1894 4750 
Q 2613 4750 3031 4423 
Q 3450 4097 3450 3541 
Q 3450 3153 3228 2886 
Q 3006 2619 2597 2516 
z
" transform="scale(0.015625)"/>
       </defs>
       <use xlink:href="#DejaVuSans-30"/>
       <use xlink:href="#DejaVuSans-2e" transform="translate(63.623047 0)"/>
       <use xlink:href="#DejaVuSans-33" transform="translate(95.410156 0)"/>
       <use xlink:href="#DejaVuSans-30" transform="translate(159.033203 0)"/>
      </g>
     </g>
    </g>
    <g id="ytick_8">
     <g id="line2d_25">
      <path d="M 90 104.055279 
L 648 104.055279 
" clip-path="url(#p21c4cca130)" style="fill: none; stroke: #b0b0b0; stroke-opacity: 0.3; stroke-width: 0.8; stroke-linecap: square"/>
     </g>
     <g id="line2d_26">
      <g>
       <use xlink:href="#mc0fa834a86" x="90" y="104.055279" style="stroke: #000000; stroke-width: 0.8"/>
      </g>
     </g>
     <g id="text_14">
      <!-- 0.35 -->
      <g transform="translate(60.734375 107.854497) scale(0.1 -0.1)">
       <use xlink:href="#DejaVuSans-30"/>
       <use xlink:href="#DejaVuSans-2e" transform="translate(63.623047 0)"/>
       <use xlink:href="#DejaVuSans-33" transform="translate(95.410156 0)"/>
       <use xlink:href="#DejaVuSans-35" transform="translate(159.033203 0)"/>
      </g>
     </g>
    </g>
    <g id="ytick_9">
     <g id="line2d_27">
      <path d="M 90 66.154443 
L 648 66.154443 
" clip-path="url(#p21c4cca130)" style="fill: none; stroke: #b0b0b0; stroke-opacity: 0.3; stroke-width: 0.8; stroke-linecap: square"/>
     </g>
     <g id="line2d_28">
      <g>
       <use xlink:href="#mc0fa834a86" x="90" y="66.154443" style="stroke: #000000; stroke-width: 0.8"/>
      </g>
     </g>
     <g id="text_15">
      <!-- 0.40 -->
      <g transform="translate(60.734375 69.953662) scale(0.1 -0.1)">
       <use xlink:href="#DejaVuSans-30"/>
       <use xlink:href="#DejaVuSans-2e" transform="translate(63.623047 0)"/>
       <use xlink:href="#DejaVuSans-34" transform="translate(95.410156 0)"/>
       <use xlink:href="#DejaVuSans-30" transform="translate(159.033203 0)"/>
      </g>
     </g>
    </g>
    <g id="text_16">
     <!-- Probability Density -->
     <g transform="translate(54.654687 265.186562) rotate(-90) scale(0.1 -0.1)">
      <defs>
       <path id="DejaVuSans-50" d="M 1259 4147 
L 1259 2394 
L 2053 2394 
Q 2494 2394 2734 2622 
Q 2975 2850 2975 3272 
Q 2975 3691 2734 3919 
Q 2494 4147 2053 4147 
L 1259 4147 
z
M 628 4666 
L 2053 4666 
Q 2838 4666 3239 4311 
Q 3641 3956 3641 3272 
Q 3641 2581 3239 2228 
Q 2838 1875 2053 1875 
L 1259 1875 
L 1259 0 
L 628 0 
L 628 4666 
z
" transform="scale(0.015625)"/>
       <path id="DejaVuSans-72" d="M 2631 2963 
Q 2534 3019 2420 3045 
Q 2306 3072 2169 3072 
Q 1681 3072 1420 2755 
Q 1159 2438 1159 1844 
L 1159 0 
L 581 0 
L 581 3500 
L 1159 3500 
L 1159 2956 
Q 1341 3275 1631 3429 
Q 1922 3584 2338 3584 
Q 2397 3584 2469 3576 
Q 2541 3569 2628 3553 
L 2631 2963 
z
" transform="scale(0.015625)"/>
       <path id="DejaVuSans-6f" d="M 1959 3097 
Q 1497 3097 1228 2736 
Q 959 2375 959 1747 
Q 959 1119 1226 758 
Q 1494 397 1959 397 
Q 2419 397 2687 759 
Q 2956 1122 2956 1747 
Q 2956 2369 2687 2733 
Q 2419 3097 1959 3097 
z
M 1959 3584 
Q 2709 3584 3137 3096 
Q 3566 2609 3566 1747 
Q 3566 888 3137 398 
Q 2709 -91 1959 -91 
Q 1206 -91 779 398 
Q 353 888 353 1747 
Q 353 2609 779 3096 
Q 1206 3584 1959 3584 
z
" transform="scale(0.015625)"/>
       <path id="DejaVuSans-62" d="M 3116 1747 
Q 3116 2381 2855 2742 
Q 2594 3103 2138 3103 
Q 1681 3103 1420 2742 
Q 1159 2381 1159 1747 
Q 1159 1113 1420 752 
Q 1681 391 2138 391 
Q 2594 391 2855 752 
Q 3116 1113 3116 1747 
z
M 1159 2969 
Q 1341 3281 1617 3432 
Q 1894 3584 2278 3584 
Q 2916 3584 3314 3078 
Q 3713 2572 3713 1747 
Q 3713 922 3314 415 
Q 2916 -91 2278 -91 
Q 1894 -91 1617 61 
Q 1341 213 1159 525 
L 1159 0 
L 581 0 
L 581 4863 
L 1159 4863 
L 1159 2969 
z
" transform="scale(0.015625)"/>
       <path id="DejaVuSans-61" d="M 2194 1759 
Q 1497 1759 1228 1600 
Q 959 1441 959 1056 
Q 959 750 1161 570 
Q 1363 391 1709 391 
Q 2188 391 2477 730 
Q 2766 1069 2766 1631 
L 2766 1759 
L 2194 1759 
z
M 3341 1997 
L 3341 0 
L 2766 0 
L 2766 531 
Q 2569 213 2275 61 
Q 1981 -91 1556 -91 
Q 1019 -91 701 211 
Q 384 513 384 1019 
Q 384 1609 779 1909 
Q 1175 2209 1959 2209 
L 2766 2209 
L 2766 2266 
Q 2766 2663 2505 2880 
Q 2244 3097 1772 3097 
Q 1472 3097 1187 3025 
Q 903 2953 641 2809 
L 641 3341 
Q 956 3463 1253 3523 
Q 1550 3584 1831 3584 
Q 2591 3584 2966 3190 
Q 3341 2797 3341 1997 
z
" transform="scale(0.015625)"/>
       <path id="DejaVuSans-69" d="M 603 3500 
L 1178 3500 
L 1178 0 
L 603 0 
L 603 3500 
z
M 603 4863 
L 1178 4863 
L 1178 4134 
L 603 4134 
L 603 4863 
z
" transform="scale(0.015625)"/>
       <path id="DejaVuSans-6c" d="M 603 4863 
L 1178 4863 
L 1178 0 
L 603 0 
L 603 4863 
z
" transform="scale(0.015625)"/>
       <path id="DejaVuSans-74" d="M 1172 4494 
L 1172 3500 
L 2356 3500 
L 2356 3053 
L 1172 3053 
L 1172 1153 
Q 1172 725 1289 603 
Q 1406 481 1766 481 
L 2356 481 
L 2356 0 
L 1766 0 
Q 1100 0 847 248 
Q 594 497 594 1153 
L 594 3053 
L 172 3053 
L 172 3500 
L 594 3500 
L 594 4494 
L 1172 4494 
z
" transform="scale(0.015625)"/>
       <path id="DejaVuSans-79" d="M 2059 -325 
Q 1816 -950 1584 -1140 
Q 1353 -1331 966 -1331 
L 506 -1331 
L 506 -850 
L 844 -850 
Q 1081 -850 1212 -737 
Q 1344 -625 1503 -206 
L 1606 56 
L 191 3500 
L 800 3500 
L 1894 763 
L 2988 3500 
L 3597 3500 
L 2059 -325 
z
" transform="scale(0.015625)"/>
       <path id="DejaVuSans-20" transform="scale(0.015625)"/>
       <path id="DejaVuSans-44" d="M 1259 4147 
L 1259 519 
L 2022 519 
Q 2988 519 3436 956 
Q 3884 1394 3884 2338 
Q 3884 3275 3436 3711 
Q 2988 4147 2022 4147 
L 1259 4147 
z
M 628 4666 
L 1925 4666 
Q 3281 4666 3915 4102 
Q 4550 3538 4550 2338 
Q 4550 1131 3912 565 
Q 3275 0 1925 0 
L 628 0 
L 628 4666 
z
" transform="scale(0.015625)"/>
       <path id="DejaVuSans-65" d="M 3597 1894 
L 3597 1613 
L 953 1613 
Q 991 1019 1311 708 
Q 1631 397 2203 397 
Q 2534 397 2845 478 
Q 3156 559 3463 722 
L 3463 178 
Q 3153 47 2828 -22 
Q 2503 -91 2169 -91 
Q 1331 -91 842 396 
Q 353 884 353 1716 
Q 353 2575 817 3079 
Q 1281 3584 2069 3584 
Q 2775 3584 3186 3129 
Q 3597 2675 3597 1894 
z
M 3022 2063 
Q 3016 2534 2758 2815 
Q 2500 3097 2075 3097 
Q 1594 3097 1305 2825 
Q 1016 2553 972 2059 
L 3022 2063 
z
" transform="scale(0.015625)"/>
       <path id="DejaVuSans-6e" d="M 3513 2113 
L 3513 0 
L 2938 0 
L 2938 2094 
Q 2938 2591 2744 2837 
Q 2550 3084 2163 3084 
Q 1697 3084 1428 2787 
Q 1159 2491 1159 1978 
L 1159 0 
L 581 0 
L 581 3500 
L 1159 3500 
L 1159 2956 
Q 1366 3272 1645 3428 
Q 1925 3584 2291 3584 
Q 2894 3584 3203 3211 
Q 3513 2838 3513 2113 
z
" transform="scale(0.015625)"/>
       <path id="DejaVuSans-73" d="M 2834 3397 
L 2834 2853 
Q 2591 2978 2328 3040 
Q 2066 3103 1784 3103 
Q 1356 3103 1142 2972 
Q 928 2841 928 2578 
Q 928 2378 1081 2264 
Q 1234 2150 1697 2047 
L 1894 2003 
Q 2506 1872 2764 1633 
Q 3022 1394 3022 966 
Q 3022 478 2636 193 
Q 2250 -91 1575 -91 
Q 1294 -91 989 -36 
Q 684 19 347 128 
L 347 722 
Q 666 556 975 473 
Q 1284 391 1588 391 
Q 1994 391 2212 530 
Q 2431 669 2431 922 
Q 2431 1156 2273 1281 
Q 2116 1406 1581 1522 
L 1381 1569 
Q 847 1681 609 1914 
Q 372 2147 372 2553 
Q 372 3047 722 3315 
Q 1072 3584 1716 3584 
Q 2034 3584 2315 3537 
Q 2597 3491 2834 3397 
z
" transform="scale(0.015625)"/>
      </defs>
      <use xlink:href="#DejaVuSans-50"/>
      <use xlink:href="#DejaVuSans-72" transform="translate(58.552734 0)"/>
      <use xlink:href="#DejaVuSans-6f" transform="translate(97.416016 0)"/>
      <use xlink:href="#DejaVuSans-62" transform="translate(158.597656 0)"/>
      <use xlink:href="#DejaVuSans-61" transform="translate(222.074219 0)"/>
      <use xlink:href="#DejaVuSans-62" transform="translate(283.353516 0)"/>
      <use xlink:href="#DejaVuSans-69" transform="translate(346.830078 0)"/>
      <use xlink:href="#DejaVuSans-6c" transform="translate(374.613281 0)"/>
      <use xlink:href="#DejaVuSans-69" transform="translate(402.396484 0)"/>
      <use xlink:href="#DejaVuSans-74" transform="translate(430.179688 0)"/>
      <use xlink:href="#DejaVuSans-79" transform="translate(469.388672 0)"/>
      <use xlink:href="#DejaVuSans-20" transform="translate(528.568359 0)"/>
      <use xlink:href="#DejaVuSans-44" transform="translate(560.355469 0)"/>
      <use xlink:href="#DejaVuSans-65" transform="translate(637.357422 0)"/>
      <use xlink:href="#DejaVuSans-6e" transform="translate(698.880859 0)"/>
      <use xlink:href="#DejaVuSans-73" transform="translate(762.259766 0)"/>
      <use xlink:href="#DejaVuSans-69" transform="translate(814.359375 0)"/>
      <use xlink:href="#DejaVuSans-74" transform="translate(842.142578 0)"/>
      <use xlink:href="#DejaVuSans-79" transform="translate(881.351562 0)"/>
     </g>
    </g>
   </g>
   <g id="line2d_29">
    <path d="M 115.363636 360.080965 
L 131.612613 358.824423 
L 145.830467 357.507155 
L 158.52498 356.114989 
L 170.203931 354.610833 
L 180.867322 353.007887 
L 190.515152 351.32789 
L 199.14742 349.602255 
L 207.271908 347.749477 
L 214.888616 345.774433 
L 221.489762 343.844414 
L 228.090909 341.678377 
L 234.184275 339.436794 
L 239.769861 337.14694 
L 244.847666 334.842637 
L 249.925471 332.297725 
L 254.495495 329.775256 
L 259.06552 327.005399 
L 263.635545 323.957872 
L 267.697789 320.98816 
L 271.760033 317.744788 
L 275.822277 314.197457 
L 279.37674 310.817812 
L 282.931204 307.154909 
L 286.485667 303.181782 
L 290.040131 298.869308 
L 293.594595 294.186323 
L 297.149058 289.099878 
L 300.703522 283.575714 
L 304.257985 277.579034 
L 307.812449 271.075686 
L 311.366912 264.033882 
L 314.921376 256.426623 
L 318.475839 248.235002 
L 322.030303 239.452566 
L 325.584767 230.090876 
L 329.647011 218.730595 
L 334.217035 205.240613 
L 341.325962 183.417458 
L 346.911548 166.533792 
L 350.466011 156.493066 
L 353.004914 149.896873 
L 355.543817 143.938899 
L 357.574939 139.725503 
L 359.606061 136.077054 
L 361.129402 133.748838 
L 362.652744 131.7963 
L 364.176085 130.239312 
L 365.699427 129.094076 
L 366.714988 128.565502 
L 367.730549 128.227925 
L 368.74611 128.082959 
L 369.761671 128.1313 
L 370.777232 128.372717 
L 371.792793 128.806051 
L 372.808354 129.429235 
L 374.331695 130.713277 
L 375.855037 132.404106 
L 377.378378 134.484246 
L 378.90172 136.932708 
L 380.932842 140.728445 
L 382.963964 145.072701 
L 385.502867 151.169561 
L 388.041769 157.876508 
L 391.088452 166.533792 
L 395.658477 180.293155 
L 406.829648 214.307776 
L 410.891892 225.909348 
L 414.954136 236.835844 
L 418.5086 245.785908 
L 422.063063 254.146347 
L 425.617527 261.919091 
L 429.17199 269.119982 
L 432.726454 275.774088 
L 436.280917 281.912111 
L 439.835381 287.567731 
L 443.389844 292.775702 
L 446.944308 297.57053 
L 450.498771 301.9856 
L 454.053235 306.052619 
L 457.607699 309.801311 
L 461.162162 313.259262 
L 465.224406 316.887708 
L 469.28665 320.204101 
L 473.348894 323.239563 
L 477.918919 326.35331 
L 482.488943 329.182117 
L 487.058968 331.757137 
L 492.136773 334.353862 
L 497.214578 336.70394 
L 502.800164 339.038116 
L 508.385749 341.14114 
L 514.479115 343.20471 
L 521.080262 345.203697 
L 528.189189 347.118668 
L 535.805897 348.935538 
L 543.930385 350.645023 
L 553.070434 352.329636 
L 562.718264 353.877692 
L 573.381654 355.359899 
L 585.060606 356.755695 
L 598.262899 358.099875 
L 612.988534 359.363551 
L 622.636364 360.080965 
L 622.636364 360.080965 
" clip-path="url(#p21c4cca130)" style="fill: none; stroke: #1f77b4; stroke-width: 1.5; stroke-linecap: square"/>
   </g>
   <g id="line2d_30">
    <path d="M 115.363636 368.028959 
L 133.135954 367.454193 
L 147.861589 366.760542 
L 160.048321 365.967986 
L 170.203931 365.098061 
L 179.34398 364.099018 
L 187.468468 362.990134 
L 194.577396 361.806322 
L 201.178542 360.488404 
L 207.271908 359.04695 
L 212.857494 357.500542 
L 217.935299 355.876219 
L 223.013104 354.010912 
L 227.583129 352.095978 
L 232.153153 349.926103 
L 236.215397 347.756026 
L 240.277641 345.331477 
L 244.339885 342.623554 
L 247.894349 339.996955 
L 251.448812 337.106542 
L 255.003276 333.928049 
L 258.55774 330.435794 
L 262.112203 326.602828 
L 265.666667 322.401165 
L 269.22113 317.802101 
L 272.775594 312.776648 
L 275.822277 308.107965 
L 278.86896 303.087379 
L 282.423423 296.763201 
L 285.977887 289.913671 
L 289.532351 282.518766 
L 293.086814 274.563686 
L 296.641278 266.040431 
L 300.195741 256.94956 
L 304.257985 245.87961 
L 308.320229 234.119511 
L 312.890254 220.14193 
L 317.968059 203.839284 
L 325.076986 180.134728 
L 334.724816 147.964404 
L 339.29484 133.536608 
L 342.849304 123.018031 
L 345.895987 114.648833 
L 348.434889 108.220314 
L 350.973792 102.35801 
L 353.512695 97.12387 
L 355.543817 93.427387 
L 357.574939 90.19603 
L 359.606061 87.45336 
L 361.129402 85.72941 
L 362.652744 84.299116 
L 364.176085 83.16856 
L 365.699427 82.34258 
L 367.222768 81.824728 
L 368.74611 81.617238 
L 370.269451 81.721008 
L 371.792793 82.135588 
L 373.316134 82.859189 
L 374.839476 83.888695 
L 376.362817 85.219691 
L 377.886159 86.846506 
L 379.4095 88.762259 
L 381.440622 91.752023 
L 383.471744 95.219078 
L 385.502867 99.138369 
L 387.533989 103.482138 
L 390.072891 109.462774 
L 392.611794 115.996765 
L 395.658477 124.474787 
L 399.21294 135.095314 
L 403.275184 147.964404 
L 408.86077 166.45141 
L 422.063063 210.444293 
L 427.140868 226.445099 
L 431.710893 240.082621 
L 435.773137 251.503672 
L 439.835381 262.213467 
L 443.389844 270.980619 
L 446.944308 279.17868 
L 450.498771 286.812206 
L 454.053235 293.893286 
L 457.607699 300.439889 
L 461.162162 306.474379 
L 464.716626 312.022237 
L 468.271089 317.110961 
L 471.825553 321.769162 
L 475.380016 326.025827 
L 478.93448 329.90973 
L 482.488943 333.448981 
L 486.043407 336.670693 
L 489.597871 339.60074 
L 493.152334 342.263598 
L 497.214578 345.009104 
L 501.276822 347.467442 
L 505.339066 349.667835 
L 509.909091 351.868057 
L 514.479115 353.809762 
L 519.04914 355.523536 
L 524.126945 357.19336 
L 529.712531 358.782874 
L 535.805897 360.264235 
L 542.407043 361.618321 
L 549.515971 362.834268 
L 557.132678 363.908513 
L 565.764947 364.895742 
L 575.412776 365.770766 
L 586.583948 366.553197 
L 599.786241 367.241769 
L 615.527437 367.826531 
L 622.636364 368.028959 
L 622.636364 368.028959 
" clip-path="url(#p21c4cca130)" style="fill: none; stroke-dasharray: 1.5,2.475; stroke-dashoffset: 0; stroke: #ff7f0e; stroke-width: 1.5"/>
   </g>
   <g id="line2d_31">
    <path d="M 115.363636 369.060952 
L 138.72154 368.733499 
L 154.970516 368.296132 
L 167.665029 367.738485 
L 177.820639 367.078643 
L 186.452907 366.303012 
L 194.069615 365.396506 
L 200.670762 364.392167 
L 206.764128 363.238293 
L 212.349713 361.946008 
L 217.427518 360.537152 
L 221.997543 359.044556 
L 226.567568 357.304593 
L 230.629812 355.519873 
L 234.692056 353.480403 
L 238.246519 351.46144 
L 241.800983 349.199005 
L 245.355446 346.667777 
L 248.90991 343.840806 
L 252.464373 340.689651 
L 255.511057 337.708141 
L 258.55774 334.447342 
L 261.604423 330.88761 
L 264.651106 327.009181 
L 267.697789 322.792445 
L 270.744472 318.218276 
L 273.791155 313.268413 
L 276.837838 307.925899 
L 279.884521 302.175579 
L 282.931204 296.004654 
L 286.485667 288.260707 
L 290.040131 279.921698 
L 293.594595 270.986469 
L 297.149058 261.463559 
L 301.211302 249.886536 
L 305.273546 237.618057 
L 309.843571 223.082654 
L 314.921376 206.194223 
L 322.538084 179.982797 
L 331.678133 148.647162 
L 336.248157 133.749235 
L 339.802621 122.813988 
L 342.849304 114.03271 
L 345.895987 105.905883 
L 348.434889 99.704763 
L 350.973792 94.08069 
L 353.004914 90.030795 
L 355.036036 86.406055 
L 357.067158 83.227942 
L 359.09828 80.515536 
L 360.621622 78.796865 
L 362.144963 77.355402 
L 363.668305 76.196143 
L 365.191646 75.323129 
L 366.714988 74.739413 
L 368.238329 74.447041 
L 369.761671 74.447041 
L 371.285012 74.739413 
L 372.808354 75.323129 
L 374.331695 76.196143 
L 375.855037 77.355402 
L 377.378378 78.796865 
L 378.90172 80.515536 
L 380.425061 82.505491 
L 382.456183 85.568868 
L 384.487305 89.083874 
L 386.518428 93.029615 
L 389.05733 98.532119 
L 391.596233 104.622039 
L 394.135135 111.246082 
L 397.181818 119.820446 
L 400.736282 130.557831 
L 404.798526 143.595112 
L 409.876331 160.682308 
L 428.66421 224.732121 
L 433.234234 239.187146 
L 437.296478 251.372724 
L 441.358722 262.859337 
L 444.913186 272.299224 
L 448.467649 281.149559 
L 452.022113 289.403282 
L 455.576577 297.062809 
L 459.13104 304.138509 
L 462.177723 309.751343 
L 465.224406 314.96119 
L 468.271089 319.783863 
L 471.317772 324.236808 
L 474.364455 328.338618 
L 477.411138 332.108623 
L 480.457821 335.566515 
L 483.504505 338.732048 
L 487.058968 342.081722 
L 490.613432 345.090371 
L 494.167895 347.787195 
L 497.722359 350.200018 
L 501.276822 352.355106 
L 505.339066 354.533942 
L 509.40131 356.442163 
L 513.463554 358.110763 
L 518.033579 359.736387 
L 522.603604 361.130022 
L 527.681409 362.44475 
L 533.266994 363.650114 
L 539.36036 364.725955 
L 545.961507 365.66211 
L 553.578215 366.50694 
L 562.210483 367.229795 
L 572.366093 367.844857 
L 584.552826 368.348155 
L 599.786241 368.743661 
L 620.097461 369.036335 
L 622.636364 369.060952 
L 622.636364 369.060952 
" clip-path="url(#p21c4cca130)" style="fill: none; stroke-dasharray: 9.6,2.4,1.5,2.4; stroke-dashoffset: 0; stroke: #2ca02c; stroke-width: 1.5"/>
   </g>
   <g id="line2d_32">
    <path d="M 115.363636 369.336197 
L 151.923833 369.175148 
L 169.18837 368.892401 
L 180.867322 368.497165 
L 190.007371 367.980221 
L 197.624079 367.335033 
L 204.225225 366.553715 
L 209.810811 365.679297 
L 214.888616 364.669518 
L 219.45864 363.546787 
L 224.028665 362.181143 
L 228.090909 360.727489 
L 231.645373 359.241888 
L 235.199836 357.529983 
L 238.7543 355.563945 
L 242.308763 353.313957 
L 245.355446 351.135459 
L 248.402129 348.704285 
L 251.448812 345.998907 
L 254.495495 342.997317 
L 257.542179 339.677275 
L 260.588862 336.016605 
L 263.635545 331.993538 
L 266.682228 327.587106 
L 269.728911 322.777592 
L 272.775594 317.54701 
L 275.822277 311.879649 
L 278.86896 305.762632 
L 281.915643 299.186517 
L 285.470106 290.927192 
L 289.02457 282.035379 
L 292.579034 272.52057 
L 296.133497 262.403432 
L 300.195741 250.14629 
L 304.765766 235.557042 
L 309.843571 218.51536 
L 316.444717 195.448877 
L 330.154791 147.20371 
L 334.724816 132.059003 
L 338.279279 120.948214 
L 341.833743 110.585912 
L 344.880426 102.409729 
L 347.419328 96.160561 
L 349.958231 90.474942 
L 352.497133 85.396662 
L 354.528256 81.798194 
L 356.559378 78.632239 
L 358.5905 75.915035 
L 360.113841 74.180165 
L 361.637183 72.710754 
L 363.160524 71.511124 
L 364.683866 70.584818 
L 366.207207 69.93458 
L 367.730549 69.562339 
L 369.25389 69.469201 
L 370.777232 69.655445 
L 372.300573 70.120516 
L 373.823915 70.863032 
L 375.347256 71.88079 
L 376.870598 73.17078 
L 378.393939 74.729195 
L 379.917281 76.551458 
L 381.948403 79.382255 
L 383.979525 82.657944 
L 386.010647 86.361759 
L 388.041769 90.474942 
L 390.580672 96.160561 
L 393.119574 102.409729 
L 396.166257 110.585912 
L 399.21294 119.418616 
L 402.767404 130.431554 
L 406.829648 143.768993 
L 411.907453 161.239589 
L 422.570844 199.042235 
L 429.17199 221.983444 
L 434.249795 238.866284 
L 438.81982 253.276808 
L 442.882064 265.353825 
L 446.436527 275.301674 
L 449.990991 284.640083 
L 453.545455 293.351694 
L 457.099918 301.429989 
L 460.146601 307.85226 
L 463.193284 313.81816 
L 466.239967 319.338345 
L 469.28665 324.426702 
L 472.333333 329.099761 
L 475.380016 333.376142 
L 478.426699 337.276033 
L 481.473382 340.820713 
L 484.520066 344.03213 
L 487.566749 346.932518 
L 490.613432 349.544068 
L 493.660115 351.888655 
L 496.706798 353.987598 
L 500.261261 356.153305 
L 503.815725 358.043775 
L 507.370188 359.688272 
L 511.432432 361.301355 
L 515.494676 362.665977 
L 520.064701 363.945986 
L 524.634726 364.996666 
L 529.712531 365.940171 
L 535.298116 366.755876 
L 541.899263 367.483485 
L 549.515971 368.083218 
L 558.65602 368.562812 
L 569.827191 368.916931 
L 585.060606 369.164644 
L 609.43407 369.309324 
L 622.636364 369.336197 
L 622.636364 369.336197 
" clip-path="url(#p21c4cca130)" style="fill: none; stroke-dasharray: 5.55,2.4; stroke-dashoffset: 0; stroke: #d62728; stroke-width: 1.5"/>
   </g>
   <g id="line2d_33">
    <path d="M 115.363636 369.36 
L 167.665029 369.24633 
L 182.898444 368.999737 
L 193.054054 368.622801 
L 200.670762 368.132191 
L 207.271908 367.484464 
L 212.857494 366.711326 
L 217.935299 365.773143 
L 222.505324 364.688046 
L 226.567568 363.49101 
L 230.122031 362.232184 
L 233.676495 360.745811 
L 237.230958 359.000526 
L 240.277641 357.273063 
L 243.324324 355.308356 
L 246.371007 353.083145 
L 249.41769 350.573471 
L 252.464373 347.754945 
L 255.511057 344.603053 
L 258.55774 341.093516 
L 261.604423 337.202703 
L 264.651106 332.908081 
L 267.697789 328.188716 
L 270.744472 323.025806 
L 273.791155 317.403242 
L 276.837838 311.308194 
L 279.884521 304.731706 
L 282.931204 297.669278 
L 286.485667 288.816629 
L 290.040131 279.314038 
L 293.594595 269.183402 
L 297.656839 256.880904 
L 301.719083 243.874884 
L 306.289107 228.520791 
L 311.874693 208.958533 
L 331.678133 138.662236 
L 335.740377 125.444926 
L 339.29484 114.603743 
L 342.341523 105.959924 
L 345.388206 98.003435 
L 347.927109 91.955189 
L 350.466011 86.481639 
L 352.497133 82.542914 
L 354.528256 79.015204 
L 356.559378 75.914938 
L 358.5905 73.256664 
L 360.113841 71.560649 
L 361.637183 70.124894 
L 363.160524 68.953247 
L 364.683866 68.04886 
L 366.207207 67.414169 
L 367.730549 67.050888 
L 369.25389 66.96 
L 370.777232 67.141749 
L 372.300573 67.595645 
L 373.823915 68.320461 
L 375.347256 69.314241 
L 376.870598 70.574309 
L 378.393939 72.09728 
L 379.917281 73.879074 
L 381.948403 76.649103 
L 383.979525 79.857669 
L 386.010647 83.489743 
L 388.041769 87.528447 
L 390.580672 93.120175 
L 393.119574 99.278367 
L 396.166257 107.355039 
L 399.21294 116.105379 
L 402.767404 127.052676 
L 406.829648 140.366501 
L 411.907453 157.900399 
L 419.01638 183.373023 
L 429.17199 219.718785 
L 434.757576 238.834812 
L 439.3276 253.692055 
L 443.389844 266.178041 
L 447.452088 277.904596 
L 451.006552 287.498525 
L 454.561016 296.444922 
L 458.115479 304.731706 
L 461.162162 311.308194 
L 464.208845 317.403242 
L 467.255528 323.025806 
L 470.302211 328.188716 
L 473.348894 332.908081 
L 476.395577 337.202703 
L 479.44226 341.093516 
L 482.488943 344.603053 
L 485.535627 347.754945 
L 488.58231 350.573471 
L 491.628993 353.083145 
L 494.675676 355.308356 
L 497.722359 357.273063 
L 500.769042 359.000526 
L 504.323505 360.745811 
L 507.877969 362.232184 
L 511.432432 363.49101 
L 515.494676 364.688046 
L 519.556921 365.664762 
L 524.126945 366.543465 
L 529.20475 367.296839 
L 535.298116 367.958688 
L 542.407043 368.483931 
L 551.039312 368.877875 
L 562.210483 369.14712 
L 578.96724 369.303541 
L 615.019656 369.358766 
L 622.636364 369.36 
L 622.636364 369.36 
" clip-path="url(#p21c4cca130)" style="fill: none; stroke: #000000; stroke-width: 2; stroke-linecap: square"/>
   </g>
   <g id="patch_3">
    <path d="M 90 384.48 
L 90 51.84 
" style="fill: none; stroke: #000000; stroke-width: 0.8; stroke-linejoin: miter; stroke-linecap: square"/>
   </g>
   <g id="patch_4">
    <path d="M 648 384.48 
L 648 51.84 
" style="fill: none; stroke: #000000; stroke-width: 0.8; stroke-linejoin: miter; stroke-linecap: square"/>
   </g>
   <g id="patch_5">
    <path d="M 90 384.48 
L 648 384.48 
" style="fill: none; stroke: #000000; stroke-width: 0.8; stroke-linejoin: miter; stroke-linecap: square"/>
   </g>
   <g id="patch_6">
    <path d="M 90 51.84 
L 648 51.84 
" style="fill: none; stroke: #000000; stroke-width: 0.8; stroke-linejoin: miter; stroke-linecap: square"/>
   </g>
   <g id="text_17">
    <!-- t-distribution vs Normal distribution -->
    <g transform="translate(261.992813 45.84) scale(0.12 -0.12)">
     <defs>
      <path id="DejaVuSans-2d" d="M 313 2009 
L 1997 2009 
L 1997 1497 
L 313 1497 
L 313 2009 
z
" transform="scale(0.015625)"/>
      <path id="DejaVuSans-64" d="M 2906 2969 
L 2906 4863 
L 3481 4863 
L 3481 0 
L 2906 0 
L 2906 525 
Q 2725 213 2448 61 
Q 2172 -91 1784 -91 
Q 1150 -91 751 415 
Q 353 922 353 1747 
Q 353 2572 751 3078 
Q 1150 3584 1784 3584 
Q 2172 3584 2448 3432 
Q 2725 3281 2906 2969 
z
M 947 1747 
Q 947 1113 1208 752 
Q 1469 391 1925 391 
Q 2381 391 2643 752 
Q 2906 1113 2906 1747 
Q 2906 2381 2643 2742 
Q 2381 3103 1925 3103 
Q 1469 3103 1208 2742 
Q 947 2381 947 1747 
z
" transform="scale(0.015625)"/>
      <path id="DejaVuSans-75" d="M 544 1381 
L 544 3500 
L 1119 3500 
L 1119 1403 
Q 1119 906 1312 657 
Q 1506 409 1894 409 
Q 2359 409 2629 706 
Q 2900 1003 2900 1516 
L 2900 3500 
L 3475 3500 
L 3475 0 
L 2900 0 
L 2900 538 
Q 2691 219 2414 64 
Q 2138 -91 1772 -91 
Q 1169 -91 856 284 
Q 544 659 544 1381 
z
M 1991 3584 
L 1991 3584 
z
" transform="scale(0.015625)"/>
      <path id="DejaVuSans-76" d="M 191 3500 
L 800 3500 
L 1894 563 
L 2988 3500 
L 3597 3500 
L 2284 0 
L 1503 0 
L 191 3500 
z
" transform="scale(0.015625)"/>
      <path id="DejaVuSans-4e" d="M 628 4666 
L 1478 4666 
L 3547 763 
L 3547 4666 
L 4159 4666 
L 4159 0 
L 3309 0 
L 1241 3903 
L 1241 0 
L 628 0 
L 628 4666 
z
" transform="scale(0.015625)"/>
      <path id="DejaVuSans-6d" d="M 3328 2828 
Q 3544 3216 3844 3400 
Q 4144 3584 4550 3584 
Q 5097 3584 5394 3201 
Q 5691 2819 5691 2113 
L 5691 0 
L 5113 0 
L 5113 2094 
Q 5113 2597 4934 2840 
Q 4756 3084 4391 3084 
Q 3944 3084 3684 2787 
Q 3425 2491 3425 1978 
L 3425 0 
L 2847 0 
L 2847 2094 
Q 2847 2600 2669 2842 
Q 2491 3084 2119 3084 
Q 1678 3084 1418 2786 
Q 1159 2488 1159 1978 
L 1159 0 
L 581 0 
L 581 3500 
L 1159 3500 
L 1159 2956 
Q 1356 3278 1631 3431 
Q 1906 3584 2284 3584 
Q 2666 3584 2933 3390 
Q 3200 3197 3328 2828 
z
" transform="scale(0.015625)"/>
     </defs>
     <use xlink:href="#DejaVuSans-74"/>
     <use xlink:href="#DejaVuSans-2d" transform="translate(39.208984 0)"/>
     <use xlink:href="#DejaVuSans-64" transform="translate(75.292969 0)"/>
     <use xlink:href="#DejaVuSans-69" transform="translate(138.769531 0)"/>
     <use xlink:href="#DejaVuSans-73" transform="translate(166.552734 0)"/>
     <use xlink:href="#DejaVuSans-74" transform="translate(218.652344 0)"/>
     <use xlink:href="#DejaVuSans-72" transform="translate(257.861328 0)"/>
     <use xlink:href="#DejaVuSans-69" transform="translate(298.974609 0)"/>
     <use xlink:href="#DejaVuSans-62" transform="translate(326.757812 0)"/>
     <use xlink:href="#DejaVuSans-75" transform="translate(390.234375 0)"/>
     <use xlink:href="#DejaVuSans-74" transform="translate(453.613281 0)"/>
     <use xlink:href="#DejaVuSans-69" transform="translate(492.822266 0)"/>
     <use xlink:href="#DejaVuSans-6f" transform="translate(520.605469 0)"/>
     <use xlink:href="#DejaVuSans-6e" transform="translate(581.787109 0)"/>
     <use xlink:href="#DejaVuSans-20" transform="translate(645.166016 0)"/>
     <use xlink:href="#DejaVuSans-76" transform="translate(676.953125 0)"/>
     <use xlink:href="#DejaVuSans-73" transform="translate(736.132812 0)"/>
     <use xlink:href="#DejaVuSans-20" transform="translate(788.232422 0)"/>
     <use xlink:href="#DejaVuSans-4e" transform="translate(820.019531 0)"/>
     <use xlink:href="#DejaVuSans-6f" transform="translate(894.824219 0)"/>
     <use xlink:href="#DejaVuSans-72" transform="translate(956.005859 0)"/>
     <use xlink:href="#DejaVuSans-6d" transform="translate(995.369141 0)"/>
     <use xlink:href="#DejaVuSans-61" transform="translate(1092.78125 0)"/>
     <use xlink:href="#DejaVuSans-6c" transform="translate(1154.060547 0)"/>
     <use xlink:href="#DejaVuSans-20" transform="translate(1181.84375 0)"/>
     <use xlink:href="#DejaVuSans-64" transform="translate(1213.630859 0)"/>
     <use xlink:href="#DejaVuSans-69" transform="translate(1277.107422 0)"/>
     <use xlink:href="#DejaVuSans-73" transform="translate(1304.890625 0)"/>
     <use xlink:href="#DejaVuSans-74" transform="translate(1356.990234 0)"/>
     <use xlink:href="#DejaVuSans-72" transform="translate(1396.199219 0)"/>
     <use xlink:href="#DejaVuSans-69" transform="translate(1437.3125 0)"/>
     <use xlink:href="#DejaVuSans-62" transform="translate(1465.095703 0)"/>
     <use xlink:href="#DejaVuSans-75" transform="translate(1528.572266 0)"/>
     <use xlink:href="#DejaVuSans-74" transform="translate(1591.951172 0)"/>
     <use xlink:href="#DejaVuSans-69" transform="translate(1631.160156 0)"/>
     <use xlink:href="#DejaVuSans-6f" transform="translate(1658.943359 0)"/>
     <use xlink:href="#DejaVuSans-6e" transform="translate(1720.125 0)"/>
    </g>
   </g>
   <g id="legend_1">
    <g id="patch_7">
     <path d="M 502.53125 133.230625 
L 641 133.230625 
Q 643 133.230625 643 131.230625 
L 643 58.84 
Q 643 56.84 641 56.84 
L 502.53125 56.84 
Q 500.53125 56.84 500.53125 58.84 
L 500.53125 131.230625 
Q 500.53125 133.230625 502.53125 133.230625 
z
" style="fill: #ffffff; opacity: 0.8; stroke: #cccccc; stroke-linejoin: miter"/>
    </g>
    <g id="line2d_34">
     <path d="M 504.53125 64.938437 
L 514.53125 64.938437 
L 524.53125 64.938437 
" style="fill: none; stroke: #1f77b4; stroke-width: 1.5; stroke-linecap: square"/>
    </g>
    <g id="text_18">
     <!-- t-distribution (df=1) -->
     <g transform="translate(532.53125 68.438437) scale(0.1 -0.1)">
      <defs>
       <path id="DejaVuSans-28" d="M 1984 4856 
Q 1566 4138 1362 3434 
Q 1159 2731 1159 2009 
Q 1159 1288 1364 580 
Q 1569 -128 1984 -844 
L 1484 -844 
Q 1016 -109 783 600 
Q 550 1309 550 2009 
Q 550 2706 781 3412 
Q 1013 4119 1484 4856 
L 1984 4856 
z
" transform="scale(0.015625)"/>
       <path id="DejaVuSans-66" d="M 2375 4863 
L 2375 4384 
L 1825 4384 
Q 1516 4384 1395 4259 
Q 1275 4134 1275 3809 
L 1275 3500 
L 2222 3500 
L 2222 3053 
L 1275 3053 
L 1275 0 
L 697 0 
L 697 3053 
L 147 3053 
L 147 3500 
L 697 3500 
L 697 3744 
Q 697 4328 969 4595 
Q 1241 4863 1831 4863 
L 2375 4863 
z
" transform="scale(0.015625)"/>
       <path id="DejaVuSans-3d" d="M 678 2906 
L 4684 2906 
L 4684 2381 
L 678 2381 
L 678 2906 
z
M 678 1631 
L 4684 1631 
L 4684 1100 
L 678 1100 
L 678 1631 
z
" transform="scale(0.015625)"/>
       <path id="DejaVuSans-29" d="M 513 4856 
L 1013 4856 
Q 1481 4119 1714 3412 
Q 1947 2706 1947 2009 
Q 1947 1309 1714 600 
Q 1481 -109 1013 -844 
L 513 -844 
Q 928 -128 1133 580 
Q 1338 1288 1338 2009 
Q 1338 2731 1133 3434 
Q 928 4138 513 4856 
z
" transform="scale(0.015625)"/>
      </defs>
      <use xlink:href="#DejaVuSans-74"/>
      <use xlink:href="#DejaVuSans-2d" transform="translate(39.208984 0)"/>
      <use xlink:href="#DejaVuSans-64" transform="translate(75.292969 0)"/>
      <use xlink:href="#DejaVuSans-69" transform="translate(138.769531 0)"/>
      <use xlink:href="#DejaVuSans-73" transform="translate(166.552734 0)"/>
      <use xlink:href="#DejaVuSans-74" transform="translate(218.652344 0)"/>
      <use xlink:href="#DejaVuSans-72" transform="translate(257.861328 0)"/>
      <use xlink:href="#DejaVuSans-69" transform="translate(298.974609 0)"/>
      <use xlink:href="#DejaVuSans-62" transform="translate(326.757812 0)"/>
      <use xlink:href="#DejaVuSans-75" transform="translate(390.234375 0)"/>
      <use xlink:href="#DejaVuSans-74" transform="translate(453.613281 0)"/>
      <use xlink:href="#DejaVuSans-69" transform="translate(492.822266 0)"/>
      <use xlink:href="#DejaVuSans-6f" transform="translate(520.605469 0)"/>
      <use xlink:href="#DejaVuSans-6e" transform="translate(581.787109 0)"/>
      <use xlink:href="#DejaVuSans-20" transform="translate(645.166016 0)"/>
      <use xlink:href="#DejaVuSans-28" transform="translate(676.953125 0)"/>
      <use xlink:href="#DejaVuSans-64" transform="translate(715.966797 0)"/>
      <use xlink:href="#DejaVuSans-66" transform="translate(779.443359 0)"/>
      <use xlink:href="#DejaVuSans-3d" transform="translate(814.648438 0)"/>
      <use xlink:href="#DejaVuSans-31" transform="translate(898.4375 0)"/>
      <use xlink:href="#DejaVuSans-29" transform="translate(962.060547 0)"/>
     </g>
    </g>
    <g id="line2d_35">
     <path d="M 504.53125 79.616562 
L 514.53125 79.616562 
L 524.53125 79.616562 
" style="fill: none; stroke-dasharray: 1.5,2.475; stroke-dashoffset: 0; stroke: #ff7f0e; stroke-width: 1.5"/>
    </g>
    <g id="text_19">
     <!-- t-distribution (df=5) -->
     <g transform="translate(532.53125 83.116562) scale(0.1 -0.1)">
      <use xlink:href="#DejaVuSans-74"/>
      <use xlink:href="#DejaVuSans-2d" transform="translate(39.208984 0)"/>
      <use xlink:href="#DejaVuSans-64" transform="translate(75.292969 0)"/>
      <use xlink:href="#DejaVuSans-69" transform="translate(138.769531 0)"/>
      <use xlink:href="#DejaVuSans-73" transform="translate(166.552734 0)"/>
      <use xlink:href="#DejaVuSans-74" transform="translate(218.652344 0)"/>
      <use xlink:href="#DejaVuSans-72" transform="translate(257.861328 0)"/>
      <use xlink:href="#DejaVuSans-69" transform="translate(298.974609 0)"/>
      <use xlink:href="#DejaVuSans-62" transform="translate(326.757812 0)"/>
      <use xlink:href="#DejaVuSans-75" transform="translate(390.234375 0)"/>
      <use xlink:href="#DejaVuSans-74" transform="translate(453.613281 0)"/>
      <use xlink:href="#DejaVuSans-69" transform="translate(492.822266 0)"/>
      <use xlink:href="#DejaVuSans-6f" transform="translate(520.605469 0)"/>
      <use xlink:href="#DejaVuSans-6e" transform="translate(581.787109 0)"/>
      <use xlink:href="#DejaVuSans-20" transform="translate(645.166016 0)"/>
      <use xlink:href="#DejaVuSans-28" transform="translate(676.953125 0)"/>
      <use xlink:href="#DejaVuSans-64" transform="translate(715.966797 0)"/>
      <use xlink:href="#DejaVuSans-66" transform="translate(779.443359 0)"/>
      <use xlink:href="#DejaVuSans-3d" transform="translate(814.648438 0)"/>
      <use xlink:href="#DejaVuSans-35" transform="translate(898.4375 0)"/>
      <use xlink:href="#DejaVuSans-29" transform="translate(962.060547 0)"/>
     </g>
    </g>
    <g id="line2d_36">
     <path d="M 504.53125 94.294687 
L 514.53125 94.294687 
L 524.53125 94.294687 
" style="fill: none; stroke-dasharray: 9.6,2.4,1.5,2.4; stroke-dashoffset: 0; stroke: #2ca02c; stroke-width: 1.5"/>
    </g>
    <g id="text_20">
     <!-- t-distribution (df=10) -->
     <g transform="translate(532.53125 97.794687) scale(0.1 -0.1)">
      <use xlink:href="#DejaVuSans-74"/>
      <use xlink:href="#DejaVuSans-2d" transform="translate(39.208984 0)"/>
      <use xlink:href="#DejaVuSans-64" transform="translate(75.292969 0)"/>
      <use xlink:href="#DejaVuSans-69" transform="translate(138.769531 0)"/>
      <use xlink:href="#DejaVuSans-73" transform="translate(166.552734 0)"/>
      <use xlink:href="#DejaVuSans-74" transform="translate(218.652344 0)"/>
      <use xlink:href="#DejaVuSans-72" transform="translate(257.861328 0)"/>
      <use xlink:href="#DejaVuSans-69" transform="translate(298.974609 0)"/>
      <use xlink:href="#DejaVuSans-62" transform="translate(326.757812 0)"/>
      <use xlink:href="#DejaVuSans-75" transform="translate(390.234375 0)"/>
      <use xlink:href="#DejaVuSans-74" transform="translate(453.613281 0)"/>
      <use xlink:href="#DejaVuSans-69" transform="translate(492.822266 0)"/>
      <use xlink:href="#DejaVuSans-6f" transform="translate(520.605469 0)"/>
      <use xlink:href="#DejaVuSans-6e" transform="translate(581.787109 0)"/>
      <use xlink:href="#DejaVuSans-20" transform="translate(645.166016 0)"/>
      <use xlink:href="#DejaVuSans-28" transform="translate(676.953125 0)"/>
      <use xlink:href="#DejaVuSans-64" transform="translate(715.966797 0)"/>
      <use xlink:href="#DejaVuSans-66" transform="translate(779.443359 0)"/>
      <use xlink:href="#DejaVuSans-3d" transform="translate(814.648438 0)"/>
      <use xlink:href="#DejaVuSans-31" transform="translate(898.4375 0)"/>
      <use xlink:href="#DejaVuSans-30" transform="translate(962.060547 0)"/>
      <use xlink:href="#DejaVuSans-29" transform="translate(1025.683594 0)"/>
     </g>
    </g>
    <g id="line2d_37">
     <path d="M 504.53125 108.972812 
L 514.53125 108.972812 
L 524.53125 108.972812 
" style="fill: none; stroke-dasharray: 5.55,2.4; stroke-dashoffset: 0; stroke: #d62728; stroke-width: 1.5"/>
    </g>
    <g id="text_21">
     <!-- t-distribution (df=30) -->
     <g transform="translate(532.53125 112.472812) scale(0.1 -0.1)">
      <use xlink:href="#DejaVuSans-74"/>
      <use xlink:href="#DejaVuSans-2d" transform="translate(39.208984 0)"/>
      <use xlink:href="#DejaVuSans-64" transform="translate(75.292969 0)"/>
      <use xlink:href="#DejaVuSans-69" transform="translate(138.769531 0)"/>
      <use xlink:href="#DejaVuSans-73" transform="translate(166.552734 0)"/>
      <use xlink:href="#DejaVuSans-74" transform="translate(218.652344 0)"/>
      <use xlink:href="#DejaVuSans-72" transform="translate(257.861328 0)"/>
      <use xlink:href="#DejaVuSans-69" transform="translate(298.974609 0)"/>
      <use xlink:href="#DejaVuSans-62" transform="translate(326.757812 0)"/>
      <use xlink:href="#DejaVuSans-75" transform="translate(390.234375 0)"/>
      <use xlink:href="#DejaVuSans-74" transform="translate(453.613281 0)"/>
      <use xlink:href="#DejaVuSans-69" transform="translate(492.822266 0)"/>
      <use xlink:href="#DejaVuSans-6f" transform="translate(520.605469 0)"/>
      <use xlink:href="#DejaVuSans-6e" transform="translate(581.787109 0)"/>
      <use xlink:href="#DejaVuSans-20" transform="translate(645.166016 0)"/>
      <use xlink:href="#DejaVuSans-28" transform="translate(676.953125 0)"/>
      <use xlink:href="#DejaVuSans-64" transform="translate(715.966797 0)"/>
      <use xlink:href="#DejaVuSans-66" transform="translate(779.443359 0)"/>
      <use xlink:href="#DejaVuSans-3d" transform="translate(814.648438 0)"/>
      <use xlink:href="#DejaVuSans-33" transform="translate(898.4375 0)"/>
      <use xlink:href="#DejaVuSans-30" transform="translate(962.060547 0)"/>
      <use xlink:href="#DejaVuSans-29" transform="translate(1025.683594 0)"/>
     </g>
    </g>
    <g id="line2d_38">
     <path d="M 504.53125 123.650937 
L 514.53125 123.650937 
L 524.53125 123.650937 
" style="fill: none; stroke: #000000; stroke-width: 2; stroke-linecap: square"/>
    </g>
    <g id="text_22">
     <!-- Normal distribution -->
     <g transform="translate(532.53125 127.150937) scale(0.1 -0.1)">
      <use xlink:href="#DejaVuSans-4e"/>
      <use xlink:href="#DejaVuSans-6f" transform="translate(74.804688 0)"/>
      <use xlink:href="#DejaVuSans-72" transform="translate(135.986328 0)"/>
      <use xlink:href="#DejaVuSans-6d" transform="translate(175.349609 0)"/>
      <use xlink:href="#DejaVuSans-61" transform="translate(272.761719 0)"/>
      <use xlink:href="#DejaVuSans-6c" transform="translate(334.041016 0)"/>
      <use xlink:href="#DejaVuSans-20" transform="translate(361.824219 0)"/>
      <use xlink:href="#DejaVuSans-64" transform="translate(393.611328 0)"/>
      <use xlink:href="#DejaVuSans-69" transform="translate(457.087891 0)"/>
      <use xlink:href="#DejaVuSans-73" transform="translate(484.871094 0)"/>
      <use xlink:href="#DejaVuSans-74" transform="translate(536.970703 0)"/>
      <use xlink:href="#DejaVuSans-72" transform="translate(576.179688 0)"/>
      <use xlink:href="#DejaVuSans-69" transform="translate(617.292969 0)"/>
      <use xlink:href="#DejaVuSans-62" transform="translate(645.076172 0)"/>
      <use xlink:href="#DejaVuSans-75" transform="translate(708.552734 0)"/>
      <use xlink:href="#DejaVuSans-74" transform="translate(771.931641 0)"/>
      <use xlink:href="#DejaVuSans-69" transform="translate(811.140625 0)"/>
      <use xlink:href="#DejaVuSans-6f" transform="translate(838.923828 0)"/>
      <use xlink:href="#DejaVuSans-6e" transform="translate(900.105469 0)"/>
     </g>
    </g>
   </g>
  </g>
 </g>
 <defs>
  <clipPath id="p21c4cca130">
   <rect x="90" y="51.84" width="558" height="332.64"/>
  </clipPath>
 </defs>
</svg>
