<?xml version="1.0" encoding="utf-8" standalone="no"?>
<!DOCTYPE svg PUBLIC "-//W3C//DTD SVG 1.1//EN"
  "http://www.w3.org/Graphics/SVG/1.1/DTD/svg11.dtd">
<svg xmlns:xlink="http://www.w3.org/1999/xlink" width="1080pt" height="360pt" viewBox="0 0 1080 360" xmlns="http://www.w3.org/2000/svg" version="1.1">
 <metadata>
  <rdf:RDF xmlns:dc="http://purl.org/dc/elements/1.1/" xmlns:cc="http://creativecommons.org/ns#" xmlns:rdf="http://www.w3.org/1999/02/22-rdf-syntax-ns#">
   <cc:Work>
    <dc:type rdf:resource="http://purl.org/dc/dcmitype/StillImage"/>
    <dc:date>2025-07-22T09:56:28.367097</dc:date>
    <dc:format>image/svg+xml</dc:format>
    <dc:creator>
     <cc:Agent>
      <dc:title>Matplotlib v3.10.3, https://matplotlib.org/</dc:title>
     </cc:Agent>
    </dc:creator>
   </cc:Work>
  </rdf:RDF>
 </metadata>
 <defs>
  <style type="text/css">*{stroke-linejoin: round; stroke-linecap: butt}</style>
 </defs>
 <g id="figure_1">
  <g id="patch_1">
   <path d="M 0 360 
L 1080 360 
L 1080 0 
L 0 0 
z
" style="fill: #ffffff"/>
  </g>
  <g id="axes_1">
   <g id="patch_2">
    <path d="M 38.27 318.04 
L 366.845589 318.04 
L 366.845589 26.88 
L 38.27 26.88 
z
" style="fill: #ffffff"/>
   </g>
   <g id="FillBetweenPolyCollection_1">
    <defs>
     <path id="m64dbf291ff" d="M 53.205254 -55.194545 
L 53.205254 -55.243984 
L 54.138551 -55.249166 
L 55.071848 -55.254853 
L 56.005145 -55.26109 
L 56.938442 -55.267927 
L 57.871739 -55.275415 
L 58.805035 -55.283612 
L 59.738332 -55.292579 
L 60.671629 -55.302381 
L 61.604926 -55.313089 
L 62.538223 -55.324779 
L 63.47152 -55.337532 
L 64.404817 -55.351436 
L 65.338114 -55.366585 
L 66.271411 -55.383078 
L 67.204708 -55.401024 
L 68.138004 -55.420536 
L 69.071301 -55.441738 
L 70.004598 -55.46476 
L 70.937895 -55.489742 
L 71.871192 -55.516832 
L 72.804489 -55.546188 
L 73.737786 -55.577979 
L 74.671083 -55.612383 
L 75.60438 -55.649589 
L 76.537676 -55.689798 
L 77.470973 -55.733224 
L 78.40427 -55.780092 
L 79.337567 -55.83064 
L 80.270864 -55.88512 
L 81.204161 -55.943798 
L 82.137458 -56.006954 
L 83.070755 -56.074883 
L 84.004052 -56.147896 
L 84.937349 -56.22632 
L 85.870645 -56.310498 
L 86.803942 -56.40079 
L 87.737239 -56.497572 
L 88.670536 -56.601241 
L 89.603833 -56.71221 
L 90.53713 -56.830909 
L 91.470427 -56.95779 
L 92.403724 -57.093323 
L 93.337021 -57.237996 
L 94.270318 -57.392318 
L 95.203614 -57.556819 
L 96.136911 -57.732047 
L 97.070208 -57.91857 
L 98.003505 -58.116977 
L 98.936802 -58.327877 
L 99.870099 -58.551899 
L 100.803396 -58.789691 
L 101.736693 -59.04192 
L 102.66999 -59.309273 
L 103.603287 -59.592456 
L 104.536583 -59.892192 
L 105.46988 -60.209223 
L 106.403177 -60.544305 
L 107.336474 -60.898213 
L 108.269771 -61.271736 
L 109.203068 -61.665675 
L 110.136365 -62.080846 
L 111.069662 -62.518077 
L 112.002959 -62.978204 
L 112.936256 -63.462073 
L 113.869552 -63.970537 
L 114.802849 -64.504454 
L 115.736146 -65.064684 
L 116.669443 -65.652091 
L 117.60274 -66.267536 
L 118.536037 -66.911878 
L 119.469334 -67.58597 
L 120.402631 -68.290658 
L 121.335928 -69.026775 
L 122.269225 -69.795143 
L 123.202521 -70.596568 
L 124.135818 -71.431834 
L 125.069115 -72.301706 
L 126.002412 -73.206922 
L 126.935709 -74.148191 
L 127.869006 -75.126191 
L 128.802303 -76.141564 
L 129.7356 -77.194912 
L 130.668897 -78.286797 
L 131.602194 -79.417734 
L 132.53549 -80.588187 
L 133.468787 -81.798569 
L 134.402084 -83.049235 
L 135.335381 -84.340479 
L 136.268678 -85.672532 
L 137.201975 -87.045558 
L 138.135272 -88.459647 
L 139.068569 -89.914819 
L 140.001866 -91.411012 
L 140.935162 -92.948084 
L 141.868459 -94.52581 
L 142.801756 -96.143877 
L 143.735053 -97.801882 
L 144.66835 -99.499327 
L 145.601647 -101.235623 
L 145.601647 -55.194545 
L 145.601647 -55.194545 
L 144.66835 -55.194545 
L 143.735053 -55.194545 
L 142.801756 -55.194545 
L 141.868459 -55.194545 
L 140.935162 -55.194545 
L 140.001866 -55.194545 
L 139.068569 -55.194545 
L 138.135272 -55.194545 
L 137.201975 -55.194545 
L 136.268678 -55.194545 
L 135.335381 -55.194545 
L 134.402084 -55.194545 
L 133.468787 -55.194545 
L 132.53549 -55.194545 
L 131.602194 -55.194545 
L 130.668897 -55.194545 
L 129.7356 -55.194545 
L 128.802303 -55.194545 
L 127.869006 -55.194545 
L 126.935709 -55.194545 
L 126.002412 -55.194545 
L 125.069115 -55.194545 
L 124.135818 -55.194545 
L 123.202521 -55.194545 
L 122.269225 -55.194545 
L 121.335928 -55.194545 
L 120.402631 -55.194545 
L 119.469334 -55.194545 
L 118.536037 -55.194545 
L 117.60274 -55.194545 
L 116.669443 -55.194545 
L 115.736146 -55.194545 
L 114.802849 -55.194545 
L 113.869552 -55.194545 
L 112.936256 -55.194545 
L 112.002959 -55.194545 
L 111.069662 -55.194545 
L 110.136365 -55.194545 
L 109.203068 -55.194545 
L 108.269771 -55.194545 
L 107.336474 -55.194545 
L 106.403177 -55.194545 
L 105.46988 -55.194545 
L 104.536583 -55.194545 
L 103.603287 -55.194545 
L 102.66999 -55.194545 
L 101.736693 -55.194545 
L 100.803396 -55.194545 
L 99.870099 -55.194545 
L 98.936802 -55.194545 
L 98.003505 -55.194545 
L 97.070208 -55.194545 
L 96.136911 -55.194545 
L 95.203614 -55.194545 
L 94.270318 -55.194545 
L 93.337021 -55.194545 
L 92.403724 -55.194545 
L 91.470427 -55.194545 
L 90.53713 -55.194545 
L 89.603833 -55.194545 
L 88.670536 -55.194545 
L 87.737239 -55.194545 
L 86.803942 -55.194545 
L 85.870645 -55.194545 
L 84.937349 -55.194545 
L 84.004052 -55.194545 
L 83.070755 -55.194545 
L 82.137458 -55.194545 
L 81.204161 -55.194545 
L 80.270864 -55.194545 
L 79.337567 -55.194545 
L 78.40427 -55.194545 
L 77.470973 -55.194545 
L 76.537676 -55.194545 
L 75.60438 -55.194545 
L 74.671083 -55.194545 
L 73.737786 -55.194545 
L 72.804489 -55.194545 
L 71.871192 -55.194545 
L 70.937895 -55.194545 
L 70.004598 -55.194545 
L 69.071301 -55.194545 
L 68.138004 -55.194545 
L 67.204708 -55.194545 
L 66.271411 -55.194545 
L 65.338114 -55.194545 
L 64.404817 -55.194545 
L 63.47152 -55.194545 
L 62.538223 -55.194545 
L 61.604926 -55.194545 
L 60.671629 -55.194545 
L 59.738332 -55.194545 
L 58.805035 -55.194545 
L 57.871739 -55.194545 
L 56.938442 -55.194545 
L 56.005145 -55.194545 
L 55.071848 -55.194545 
L 54.138551 -55.194545 
L 53.205254 -55.194545 
z
" style="stroke: #ff0000; stroke-opacity: 0.3"/>
    </defs>
    <g clip-path="url(#p7533acf66d)">
     <use xlink:href="#m64dbf291ff" x="0" y="360" style="fill: #ff0000; fill-opacity: 0.3; stroke: #ff0000; stroke-opacity: 0.3"/>
    </g>
   </g>
   <g id="matplotlib.axis_1">
    <g id="xtick_1">
     <g id="line2d_1">
      <path d="M 88.6455 318.04 
L 88.6455 26.88 
" clip-path="url(#p7533acf66d)" style="fill: none; stroke: #b0b0b0; stroke-opacity: 0.3; stroke-width: 0.8; stroke-linecap: square"/>
     </g>
     <g id="line2d_2">
      <defs>
       <path id="mbc955c5d1a" d="M 0 0 
L 0 3.5 
" style="stroke: #000000; stroke-width: 0.8"/>
      </defs>
      <g>
       <use xlink:href="#mbc955c5d1a" x="88.6455" y="318.04" style="stroke: #000000; stroke-width: 0.8"/>
      </g>
     </g>
     <g id="text_1">
      <!-- 97.8 -->
      <g transform="translate(77.512687 332.638438) scale(0.1 -0.1)">
       <defs>
        <path id="DejaVuSans-39" d="M 703 97 
L 703 672 
Q 941 559 1184 500 
Q 1428 441 1663 441 
Q 2288 441 2617 861 
Q 2947 1281 2994 2138 
Q 2813 1869 2534 1725 
Q 2256 1581 1919 1581 
Q 1219 1581 811 2004 
Q 403 2428 403 3163 
Q 403 3881 828 4315 
Q 1253 4750 1959 4750 
Q 2769 4750 3195 4129 
Q 3622 3509 3622 2328 
Q 3622 1225 3098 567 
Q 2575 -91 1691 -91 
Q 1453 -91 1209 -44 
Q 966 3 703 97 
z
M 1959 2075 
Q 2384 2075 2632 2365 
Q 2881 2656 2881 3163 
Q 2881 3666 2632 3958 
Q 2384 4250 1959 4250 
Q 1534 4250 1286 3958 
Q 1038 3666 1038 3163 
Q 1038 2656 1286 2365 
Q 1534 2075 1959 2075 
z
" transform="scale(0.015625)"/>
        <path id="DejaVuSans-37" d="M 525 4666 
L 3525 4666 
L 3525 4397 
L 1831 0 
L 1172 0 
L 2766 4134 
L 525 4134 
L 525 4666 
z
" transform="scale(0.015625)"/>
        <path id="DejaVuSans-2e" d="M 684 794 
L 1344 794 
L 1344 0 
L 684 0 
L 684 794 
z
" transform="scale(0.015625)"/>
        <path id="DejaVuSans-38" d="M 2034 2216 
Q 1584 2216 1326 1975 
Q 1069 1734 1069 1313 
Q 1069 891 1326 650 
Q 1584 409 2034 409 
Q 2484 409 2743 651 
Q 3003 894 3003 1313 
Q 3003 1734 2745 1975 
Q 2488 2216 2034 2216 
z
M 1403 2484 
Q 997 2584 770 2862 
Q 544 3141 544 3541 
Q 544 4100 942 4425 
Q 1341 4750 2034 4750 
Q 2731 4750 3128 4425 
Q 3525 4100 3525 3541 
Q 3525 3141 3298 2862 
Q 3072 2584 2669 2484 
Q 3125 2378 3379 2068 
Q 3634 1759 3634 1313 
Q 3634 634 3220 271 
Q 2806 -91 2034 -91 
Q 1263 -91 848 271 
Q 434 634 434 1313 
Q 434 1759 690 2068 
Q 947 2378 1403 2484 
z
M 1172 3481 
Q 1172 3119 1398 2916 
Q 1625 2713 2034 2713 
Q 2441 2713 2670 2916 
Q 2900 3119 2900 3481 
Q 2900 3844 2670 4047 
Q 2441 4250 2034 4250 
Q 1625 4250 1398 4047 
Q 1172 3844 1172 3481 
z
" transform="scale(0.015625)"/>
       </defs>
       <use xlink:href="#DejaVuSans-39"/>
       <use xlink:href="#DejaVuSans-37" transform="translate(63.623047 0)"/>
       <use xlink:href="#DejaVuSans-2e" transform="translate(127.246094 0)"/>
       <use xlink:href="#DejaVuSans-38" transform="translate(159.033203 0)"/>
      </g>
     </g>
    </g>
    <g id="xtick_2">
     <g id="line2d_3">
      <path d="M 145.601647 318.04 
L 145.601647 26.88 
" clip-path="url(#p7533acf66d)" style="fill: none; stroke: #b0b0b0; stroke-opacity: 0.3; stroke-width: 0.8; stroke-linecap: square"/>
     </g>
     <g id="line2d_4">
      <g>
       <use xlink:href="#mbc955c5d1a" x="145.601647" y="318.04" style="stroke: #000000; stroke-width: 0.8"/>
      </g>
     </g>
     <g id="text_2">
      <!-- 98.0 -->
      <g transform="translate(134.468834 332.638438) scale(0.1 -0.1)">
       <defs>
        <path id="DejaVuSans-30" d="M 2034 4250 
Q 1547 4250 1301 3770 
Q 1056 3291 1056 2328 
Q 1056 1369 1301 889 
Q 1547 409 2034 409 
Q 2525 409 2770 889 
Q 3016 1369 3016 2328 
Q 3016 3291 2770 3770 
Q 2525 4250 2034 4250 
z
M 2034 4750 
Q 2819 4750 3233 4129 
Q 3647 3509 3647 2328 
Q 3647 1150 3233 529 
Q 2819 -91 2034 -91 
Q 1250 -91 836 529 
Q 422 1150 422 2328 
Q 422 3509 836 4129 
Q 1250 4750 2034 4750 
z
" transform="scale(0.015625)"/>
       </defs>
       <use xlink:href="#DejaVuSans-39"/>
       <use xlink:href="#DejaVuSans-38" transform="translate(63.623047 0)"/>
       <use xlink:href="#DejaVuSans-2e" transform="translate(127.246094 0)"/>
       <use xlink:href="#DejaVuSans-30" transform="translate(159.033203 0)"/>
      </g>
     </g>
    </g>
    <g id="xtick_3">
     <g id="line2d_5">
      <path d="M 202.557794 318.04 
L 202.557794 26.88 
" clip-path="url(#p7533acf66d)" style="fill: none; stroke: #b0b0b0; stroke-opacity: 0.3; stroke-width: 0.8; stroke-linecap: square"/>
     </g>
     <g id="line2d_6">
      <g>
       <use xlink:href="#mbc955c5d1a" x="202.557794" y="318.04" style="stroke: #000000; stroke-width: 0.8"/>
      </g>
     </g>
     <g id="text_3">
      <!-- 98.2 -->
      <g transform="translate(191.424982 332.638438) scale(0.1 -0.1)">
       <defs>
        <path id="DejaVuSans-32" d="M 1228 531 
L 3431 531 
L 3431 0 
L 469 0 
L 469 531 
Q 828 903 1448 1529 
Q 2069 2156 2228 2338 
Q 2531 2678 2651 2914 
Q 2772 3150 2772 3378 
Q 2772 3750 2511 3984 
Q 2250 4219 1831 4219 
Q 1534 4219 1204 4116 
Q 875 4013 500 3803 
L 500 4441 
Q 881 4594 1212 4672 
Q 1544 4750 1819 4750 
Q 2544 4750 2975 4387 
Q 3406 4025 3406 3419 
Q 3406 3131 3298 2873 
Q 3191 2616 2906 2266 
Q 2828 2175 2409 1742 
Q 1991 1309 1228 531 
z
" transform="scale(0.015625)"/>
       </defs>
       <use xlink:href="#DejaVuSans-39"/>
       <use xlink:href="#DejaVuSans-38" transform="translate(63.623047 0)"/>
       <use xlink:href="#DejaVuSans-2e" transform="translate(127.246094 0)"/>
       <use xlink:href="#DejaVuSans-32" transform="translate(159.033203 0)"/>
      </g>
     </g>
    </g>
    <g id="xtick_4">
     <g id="line2d_7">
      <path d="M 259.513942 318.04 
L 259.513942 26.88 
" clip-path="url(#p7533acf66d)" style="fill: none; stroke: #b0b0b0; stroke-opacity: 0.3; stroke-width: 0.8; stroke-linecap: square"/>
     </g>
     <g id="line2d_8">
      <g>
       <use xlink:href="#mbc955c5d1a" x="259.513942" y="318.04" style="stroke: #000000; stroke-width: 0.8"/>
      </g>
     </g>
     <g id="text_4">
      <!-- 98.4 -->
      <g transform="translate(248.381129 332.638438) scale(0.1 -0.1)">
       <defs>
        <path id="DejaVuSans-34" d="M 2419 4116 
L 825 1625 
L 2419 1625 
L 2419 4116 
z
M 2253 4666 
L 3047 4666 
L 3047 1625 
L 3713 1625 
L 3713 1100 
L 3047 1100 
L 3047 0 
L 2419 0 
L 2419 1100 
L 313 1100 
L 313 1709 
L 2253 4666 
z
" transform="scale(0.015625)"/>
       </defs>
       <use xlink:href="#DejaVuSans-39"/>
       <use xlink:href="#DejaVuSans-38" transform="translate(63.623047 0)"/>
       <use xlink:href="#DejaVuSans-2e" transform="translate(127.246094 0)"/>
       <use xlink:href="#DejaVuSans-34" transform="translate(159.033203 0)"/>
      </g>
     </g>
    </g>
    <g id="xtick_5">
     <g id="line2d_9">
      <path d="M 316.470089 318.04 
L 316.470089 26.88 
" clip-path="url(#p7533acf66d)" style="fill: none; stroke: #b0b0b0; stroke-opacity: 0.3; stroke-width: 0.8; stroke-linecap: square"/>
     </g>
     <g id="line2d_10">
      <g>
       <use xlink:href="#mbc955c5d1a" x="316.470089" y="318.04" style="stroke: #000000; stroke-width: 0.8"/>
      </g>
     </g>
     <g id="text_5">
      <!-- 98.6 -->
      <g transform="translate(305.337277 332.638438) scale(0.1 -0.1)">
       <defs>
        <path id="DejaVuSans-36" d="M 2113 2584 
Q 1688 2584 1439 2293 
Q 1191 2003 1191 1497 
Q 1191 994 1439 701 
Q 1688 409 2113 409 
Q 2538 409 2786 701 
Q 3034 994 3034 1497 
Q 3034 2003 2786 2293 
Q 2538 2584 2113 2584 
z
M 3366 4563 
L 3366 3988 
Q 3128 4100 2886 4159 
Q 2644 4219 2406 4219 
Q 1781 4219 1451 3797 
Q 1122 3375 1075 2522 
Q 1259 2794 1537 2939 
Q 1816 3084 2150 3084 
Q 2853 3084 3261 2657 
Q 3669 2231 3669 1497 
Q 3669 778 3244 343 
Q 2819 -91 2113 -91 
Q 1303 -91 875 529 
Q 447 1150 447 2328 
Q 447 3434 972 4092 
Q 1497 4750 2381 4750 
Q 2619 4750 2861 4703 
Q 3103 4656 3366 4563 
z
" transform="scale(0.015625)"/>
       </defs>
       <use xlink:href="#DejaVuSans-39"/>
       <use xlink:href="#DejaVuSans-38" transform="translate(63.623047 0)"/>
       <use xlink:href="#DejaVuSans-2e" transform="translate(127.246094 0)"/>
       <use xlink:href="#DejaVuSans-36" transform="translate(159.033203 0)"/>
      </g>
     </g>
    </g>
    <g id="text_6">
     <!-- Sample Mean -->
     <g transform="translate(168.596857 346.316563) scale(0.1 -0.1)">
      <defs>
       <path id="DejaVuSans-53" d="M 3425 4513 
L 3425 3897 
Q 3066 4069 2747 4153 
Q 2428 4238 2131 4238 
Q 1616 4238 1336 4038 
Q 1056 3838 1056 3469 
Q 1056 3159 1242 3001 
Q 1428 2844 1947 2747 
L 2328 2669 
Q 3034 2534 3370 2195 
Q 3706 1856 3706 1288 
Q 3706 609 3251 259 
Q 2797 -91 1919 -91 
Q 1588 -91 1214 -16 
Q 841 59 441 206 
L 441 856 
Q 825 641 1194 531 
Q 1563 422 1919 422 
Q 2459 422 2753 634 
Q 3047 847 3047 1241 
Q 3047 1584 2836 1778 
Q 2625 1972 2144 2069 
L 1759 2144 
Q 1053 2284 737 2584 
Q 422 2884 422 3419 
Q 422 4038 858 4394 
Q 1294 4750 2059 4750 
Q 2388 4750 2728 4690 
Q 3069 4631 3425 4513 
z
" transform="scale(0.015625)"/>
       <path id="DejaVuSans-61" d="M 2194 1759 
Q 1497 1759 1228 1600 
Q 959 1441 959 1056 
Q 959 750 1161 570 
Q 1363 391 1709 391 
Q 2188 391 2477 730 
Q 2766 1069 2766 1631 
L 2766 1759 
L 2194 1759 
z
M 3341 1997 
L 3341 0 
L 2766 0 
L 2766 531 
Q 2569 213 2275 61 
Q 1981 -91 1556 -91 
Q 1019 -91 701 211 
Q 384 513 384 1019 
Q 384 1609 779 1909 
Q 1175 2209 1959 2209 
L 2766 2209 
L 2766 2266 
Q 2766 2663 2505 2880 
Q 2244 3097 1772 3097 
Q 1472 3097 1187 3025 
Q 903 2953 641 2809 
L 641 3341 
Q 956 3463 1253 3523 
Q 1550 3584 1831 3584 
Q 2591 3584 2966 3190 
Q 3341 2797 3341 1997 
z
" transform="scale(0.015625)"/>
       <path id="DejaVuSans-6d" d="M 3328 2828 
Q 3544 3216 3844 3400 
Q 4144 3584 4550 3584 
Q 5097 3584 5394 3201 
Q 5691 2819 5691 2113 
L 5691 0 
L 5113 0 
L 5113 2094 
Q 5113 2597 4934 2840 
Q 4756 3084 4391 3084 
Q 3944 3084 3684 2787 
Q 3425 2491 3425 1978 
L 3425 0 
L 2847 0 
L 2847 2094 
Q 2847 2600 2669 2842 
Q 2491 3084 2119 3084 
Q 1678 3084 1418 2786 
Q 1159 2488 1159 1978 
L 1159 0 
L 581 0 
L 581 3500 
L 1159 3500 
L 1159 2956 
Q 1356 3278 1631 3431 
Q 1906 3584 2284 3584 
Q 2666 3584 2933 3390 
Q 3200 3197 3328 2828 
z
" transform="scale(0.015625)"/>
       <path id="DejaVuSans-70" d="M 1159 525 
L 1159 -1331 
L 581 -1331 
L 581 3500 
L 1159 3500 
L 1159 2969 
Q 1341 3281 1617 3432 
Q 1894 3584 2278 3584 
Q 2916 3584 3314 3078 
Q 3713 2572 3713 1747 
Q 3713 922 3314 415 
Q 2916 -91 2278 -91 
Q 1894 -91 1617 61 
Q 1341 213 1159 525 
z
M 3116 1747 
Q 3116 2381 2855 2742 
Q 2594 3103 2138 3103 
Q 1681 3103 1420 2742 
Q 1159 2381 1159 1747 
Q 1159 1113 1420 752 
Q 1681 391 2138 391 
Q 2594 391 2855 752 
Q 3116 1113 3116 1747 
z
" transform="scale(0.015625)"/>
       <path id="DejaVuSans-6c" d="M 603 4863 
L 1178 4863 
L 1178 0 
L 603 0 
L 603 4863 
z
" transform="scale(0.015625)"/>
       <path id="DejaVuSans-65" d="M 3597 1894 
L 3597 1613 
L 953 1613 
Q 991 1019 1311 708 
Q 1631 397 2203 397 
Q 2534 397 2845 478 
Q 3156 559 3463 722 
L 3463 178 
Q 3153 47 2828 -22 
Q 2503 -91 2169 -91 
Q 1331 -91 842 396 
Q 353 884 353 1716 
Q 353 2575 817 3079 
Q 1281 3584 2069 3584 
Q 2775 3584 3186 3129 
Q 3597 2675 3597 1894 
z
M 3022 2063 
Q 3016 2534 2758 2815 
Q 2500 3097 2075 3097 
Q 1594 3097 1305 2825 
Q 1016 2553 972 2059 
L 3022 2063 
z
" transform="scale(0.015625)"/>
       <path id="DejaVuSans-20" transform="scale(0.015625)"/>
       <path id="DejaVuSans-4d" d="M 628 4666 
L 1569 4666 
L 2759 1491 
L 3956 4666 
L 4897 4666 
L 4897 0 
L 4281 0 
L 4281 4097 
L 3078 897 
L 2444 897 
L 1241 4097 
L 1241 0 
L 628 0 
L 628 4666 
z
" transform="scale(0.015625)"/>
       <path id="DejaVuSans-6e" d="M 3513 2113 
L 3513 0 
L 2938 0 
L 2938 2094 
Q 2938 2591 2744 2837 
Q 2550 3084 2163 3084 
Q 1697 3084 1428 2787 
Q 1159 2491 1159 1978 
L 1159 0 
L 581 0 
L 581 3500 
L 1159 3500 
L 1159 2956 
Q 1366 3272 1645 3428 
Q 1925 3584 2291 3584 
Q 2894 3584 3203 3211 
Q 3513 2838 3513 2113 
z
" transform="scale(0.015625)"/>
      </defs>
      <use xlink:href="#DejaVuSans-53"/>
      <use xlink:href="#DejaVuSans-61" transform="translate(63.476562 0)"/>
      <use xlink:href="#DejaVuSans-6d" transform="translate(124.755859 0)"/>
      <use xlink:href="#DejaVuSans-70" transform="translate(222.167969 0)"/>
      <use xlink:href="#DejaVuSans-6c" transform="translate(285.644531 0)"/>
      <use xlink:href="#DejaVuSans-65" transform="translate(313.427734 0)"/>
      <use xlink:href="#DejaVuSans-20" transform="translate(374.951172 0)"/>
      <use xlink:href="#DejaVuSans-4d" transform="translate(406.738281 0)"/>
      <use xlink:href="#DejaVuSans-65" transform="translate(493.017578 0)"/>
      <use xlink:href="#DejaVuSans-61" transform="translate(554.541016 0)"/>
      <use xlink:href="#DejaVuSans-6e" transform="translate(615.820312 0)"/>
     </g>
    </g>
   </g>
   <g id="matplotlib.axis_2">
    <g id="ytick_1">
     <g id="line2d_11">
      <path d="M 38.27 304.805455 
L 366.845589 304.805455 
" clip-path="url(#p7533acf66d)" style="fill: none; stroke: #b0b0b0; stroke-opacity: 0.3; stroke-width: 0.8; stroke-linecap: square"/>
     </g>
     <g id="line2d_12">
      <defs>
       <path id="mc813abc18a" d="M 0 0 
L -3.5 0 
" style="stroke: #000000; stroke-width: 0.8"/>
      </defs>
      <g>
       <use xlink:href="#mc813abc18a" x="38.27" y="304.805455" style="stroke: #000000; stroke-width: 0.8"/>
      </g>
     </g>
     <g id="text_7">
      <!-- 0 -->
      <g transform="translate(24.9075 308.604673) scale(0.1 -0.1)">
       <use xlink:href="#DejaVuSans-30"/>
      </g>
     </g>
    </g>
    <g id="ytick_2">
     <g id="line2d_13">
      <path d="M 38.27 256.370901 
L 366.845589 256.370901 
" clip-path="url(#p7533acf66d)" style="fill: none; stroke: #b0b0b0; stroke-opacity: 0.3; stroke-width: 0.8; stroke-linecap: square"/>
     </g>
     <g id="line2d_14">
      <g>
       <use xlink:href="#mc813abc18a" x="38.27" y="256.370901" style="stroke: #000000; stroke-width: 0.8"/>
      </g>
     </g>
     <g id="text_8">
      <!-- 1 -->
      <g transform="translate(24.9075 260.17012) scale(0.1 -0.1)">
       <defs>
        <path id="DejaVuSans-31" d="M 794 531 
L 1825 531 
L 1825 4091 
L 703 3866 
L 703 4441 
L 1819 4666 
L 2450 4666 
L 2450 531 
L 3481 531 
L 3481 0 
L 794 0 
L 794 531 
z
" transform="scale(0.015625)"/>
       </defs>
       <use xlink:href="#DejaVuSans-31"/>
      </g>
     </g>
    </g>
    <g id="ytick_3">
     <g id="line2d_15">
      <path d="M 38.27 207.936347 
L 366.845589 207.936347 
" clip-path="url(#p7533acf66d)" style="fill: none; stroke: #b0b0b0; stroke-opacity: 0.3; stroke-width: 0.8; stroke-linecap: square"/>
     </g>
     <g id="line2d_16">
      <g>
       <use xlink:href="#mc813abc18a" x="38.27" y="207.936347" style="stroke: #000000; stroke-width: 0.8"/>
      </g>
     </g>
     <g id="text_9">
      <!-- 2 -->
      <g transform="translate(24.9075 211.735566) scale(0.1 -0.1)">
       <use xlink:href="#DejaVuSans-32"/>
      </g>
     </g>
    </g>
    <g id="ytick_4">
     <g id="line2d_17">
      <path d="M 38.27 159.501794 
L 366.845589 159.501794 
" clip-path="url(#p7533acf66d)" style="fill: none; stroke: #b0b0b0; stroke-opacity: 0.3; stroke-width: 0.8; stroke-linecap: square"/>
     </g>
     <g id="line2d_18">
      <g>
       <use xlink:href="#mc813abc18a" x="38.27" y="159.501794" style="stroke: #000000; stroke-width: 0.8"/>
      </g>
     </g>
     <g id="text_10">
      <!-- 3 -->
      <g transform="translate(24.9075 163.301013) scale(0.1 -0.1)">
       <defs>
        <path id="DejaVuSans-33" d="M 2597 2516 
Q 3050 2419 3304 2112 
Q 3559 1806 3559 1356 
Q 3559 666 3084 287 
Q 2609 -91 1734 -91 
Q 1441 -91 1130 -33 
Q 819 25 488 141 
L 488 750 
Q 750 597 1062 519 
Q 1375 441 1716 441 
Q 2309 441 2620 675 
Q 2931 909 2931 1356 
Q 2931 1769 2642 2001 
Q 2353 2234 1838 2234 
L 1294 2234 
L 1294 2753 
L 1863 2753 
Q 2328 2753 2575 2939 
Q 2822 3125 2822 3475 
Q 2822 3834 2567 4026 
Q 2313 4219 1838 4219 
Q 1578 4219 1281 4162 
Q 984 4106 628 3988 
L 628 4550 
Q 988 4650 1302 4700 
Q 1616 4750 1894 4750 
Q 2613 4750 3031 4423 
Q 3450 4097 3450 3541 
Q 3450 3153 3228 2886 
Q 3006 2619 2597 2516 
z
" transform="scale(0.015625)"/>
       </defs>
       <use xlink:href="#DejaVuSans-33"/>
      </g>
     </g>
    </g>
    <g id="ytick_5">
     <g id="line2d_19">
      <path d="M 38.27 111.06724 
L 366.845589 111.06724 
" clip-path="url(#p7533acf66d)" style="fill: none; stroke: #b0b0b0; stroke-opacity: 0.3; stroke-width: 0.8; stroke-linecap: square"/>
     </g>
     <g id="line2d_20">
      <g>
       <use xlink:href="#mc813abc18a" x="38.27" y="111.06724" style="stroke: #000000; stroke-width: 0.8"/>
      </g>
     </g>
     <g id="text_11">
      <!-- 4 -->
      <g transform="translate(24.9075 114.866459) scale(0.1 -0.1)">
       <use xlink:href="#DejaVuSans-34"/>
      </g>
     </g>
    </g>
    <g id="ytick_6">
     <g id="line2d_21">
      <path d="M 38.27 62.632687 
L 366.845589 62.632687 
" clip-path="url(#p7533acf66d)" style="fill: none; stroke: #b0b0b0; stroke-opacity: 0.3; stroke-width: 0.8; stroke-linecap: square"/>
     </g>
     <g id="line2d_22">
      <g>
       <use xlink:href="#mc813abc18a" x="38.27" y="62.632687" style="stroke: #000000; stroke-width: 0.8"/>
      </g>
     </g>
     <g id="text_12">
      <!-- 5 -->
      <g transform="translate(24.9075 66.431905) scale(0.1 -0.1)">
       <defs>
        <path id="DejaVuSans-35" d="M 691 4666 
L 3169 4666 
L 3169 4134 
L 1269 4134 
L 1269 2991 
Q 1406 3038 1543 3061 
Q 1681 3084 1819 3084 
Q 2600 3084 3056 2656 
Q 3513 2228 3513 1497 
Q 3513 744 3044 326 
Q 2575 -91 1722 -91 
Q 1428 -91 1123 -41 
Q 819 9 494 109 
L 494 744 
Q 775 591 1075 516 
Q 1375 441 1709 441 
Q 2250 441 2565 725 
Q 2881 1009 2881 1497 
Q 2881 1984 2565 2268 
Q 2250 2553 1709 2553 
Q 1456 2553 1204 2497 
Q 953 2441 691 2322 
L 691 4666 
z
" transform="scale(0.015625)"/>
       </defs>
       <use xlink:href="#DejaVuSans-35"/>
      </g>
     </g>
    </g>
    <g id="text_13">
     <!-- Density -->
     <g transform="translate(18.827813 191.468594) rotate(-90) scale(0.1 -0.1)">
      <defs>
       <path id="DejaVuSans-44" d="M 1259 4147 
L 1259 519 
L 2022 519 
Q 2988 519 3436 956 
Q 3884 1394 3884 2338 
Q 3884 3275 3436 3711 
Q 2988 4147 2022 4147 
L 1259 4147 
z
M 628 4666 
L 1925 4666 
Q 3281 4666 3915 4102 
Q 4550 3538 4550 2338 
Q 4550 1131 3912 565 
Q 3275 0 1925 0 
L 628 0 
L 628 4666 
z
" transform="scale(0.015625)"/>
       <path id="DejaVuSans-73" d="M 2834 3397 
L 2834 2853 
Q 2591 2978 2328 3040 
Q 2066 3103 1784 3103 
Q 1356 3103 1142 2972 
Q 928 2841 928 2578 
Q 928 2378 1081 2264 
Q 1234 2150 1697 2047 
L 1894 2003 
Q 2506 1872 2764 1633 
Q 3022 1394 3022 966 
Q 3022 478 2636 193 
Q 2250 -91 1575 -91 
Q 1294 -91 989 -36 
Q 684 19 347 128 
L 347 722 
Q 666 556 975 473 
Q 1284 391 1588 391 
Q 1994 391 2212 530 
Q 2431 669 2431 922 
Q 2431 1156 2273 1281 
Q 2116 1406 1581 1522 
L 1381 1569 
Q 847 1681 609 1914 
Q 372 2147 372 2553 
Q 372 3047 722 3315 
Q 1072 3584 1716 3584 
Q 2034 3584 2315 3537 
Q 2597 3491 2834 3397 
z
" transform="scale(0.015625)"/>
       <path id="DejaVuSans-69" d="M 603 3500 
L 1178 3500 
L 1178 0 
L 603 0 
L 603 3500 
z
M 603 4863 
L 1178 4863 
L 1178 4134 
L 603 4134 
L 603 4863 
z
" transform="scale(0.015625)"/>
       <path id="DejaVuSans-74" d="M 1172 4494 
L 1172 3500 
L 2356 3500 
L 2356 3053 
L 1172 3053 
L 1172 1153 
Q 1172 725 1289 603 
Q 1406 481 1766 481 
L 2356 481 
L 2356 0 
L 1766 0 
Q 1100 0 847 248 
Q 594 497 594 1153 
L 594 3053 
L 172 3053 
L 172 3500 
L 594 3500 
L 594 4494 
L 1172 4494 
z
" transform="scale(0.015625)"/>
       <path id="DejaVuSans-79" d="M 2059 -325 
Q 1816 -950 1584 -1140 
Q 1353 -1331 966 -1331 
L 506 -1331 
L 506 -850 
L 844 -850 
Q 1081 -850 1212 -737 
Q 1344 -625 1503 -206 
L 1606 56 
L 191 3500 
L 800 3500 
L 1894 763 
L 2988 3500 
L 3597 3500 
L 2059 -325 
z
" transform="scale(0.015625)"/>
      </defs>
      <use xlink:href="#DejaVuSans-44"/>
      <use xlink:href="#DejaVuSans-65" transform="translate(77.001953 0)"/>
      <use xlink:href="#DejaVuSans-6e" transform="translate(138.525391 0)"/>
      <use xlink:href="#DejaVuSans-73" transform="translate(201.904297 0)"/>
      <use xlink:href="#DejaVuSans-69" transform="translate(254.003906 0)"/>
      <use xlink:href="#DejaVuSans-74" transform="translate(281.787109 0)"/>
      <use xlink:href="#DejaVuSans-79" transform="translate(320.996094 0)"/>
     </g>
    </g>
   </g>
   <g id="line2d_23">
    <path d="M 53.205254 304.756016 
L 68.753466 304.56568 
L 78.022593 304.239506 
L 84.899687 303.776953 
L 90.281761 303.202363 
L 95.065826 302.468129 
L 99.251883 301.597992 
L 102.839932 300.640363 
L 106.427981 299.446536 
L 109.717026 298.108374 
L 112.707067 296.658995 
L 115.697108 294.959288 
L 118.687149 292.981019 
L 121.378185 290.939138 
L 124.069222 288.628904 
L 126.760259 286.031541 
L 129.451296 283.130019 
L 132.142332 279.90972 
L 134.833369 276.359129 
L 137.82341 272.017443 
L 140.813451 267.254677 
L 143.803492 262.074978 
L 147.092537 255.911893 
L 150.680586 248.669425 
L 154.567639 240.283848 
L 159.0527 230.053575 
L 165.929794 213.71824 
L 173.105892 196.831999 
L 176.992945 188.224872 
L 180.28199 181.456725 
L 182.973027 176.371307 
L 185.664064 171.769067 
L 188.056096 168.137196 
L 190.149125 165.348372 
L 192.242153 162.949094 
L 194.036178 161.219301 
L 195.830202 159.803555 
L 197.325223 158.870696 
L 198.820243 158.167116 
L 200.315264 157.696179 
L 201.810284 157.460143 
L 203.305305 157.460143 
L 204.800325 157.696179 
L 206.295345 158.167116 
L 207.790366 158.870696 
L 209.285386 159.803555 
L 211.079411 161.219301 
L 212.873435 162.949094 
L 214.66746 164.981221 
L 216.760488 167.715862 
L 218.853517 170.818705 
L 221.24555 174.780172 
L 223.936586 179.712185 
L 226.926627 185.70092 
L 230.215672 192.79067 
L 234.401729 202.363095 
L 241.876831 220.155978 
L 248.454921 235.572495 
L 252.939983 245.505564 
L 256.827036 253.555444 
L 260.116081 259.889003 
L 263.405126 265.744127 
L 266.395166 270.632804 
L 269.385207 275.100747 
L 272.375248 279.149579 
L 275.066285 282.442405 
L 277.757322 285.413601 
L 280.448358 288.077158 
L 283.139395 290.449627 
L 285.830432 292.549452 
L 288.820473 294.586826 
L 291.810514 296.339979 
L 294.800554 297.837184 
L 298.089599 299.221661 
L 301.378644 300.365651 
L 304.966693 301.37854 
L 308.853746 302.243653 
L 313.338808 302.998699 
L 318.421877 303.610205 
L 324.401959 304.087583 
L 331.578057 304.429056 
L 341.445192 304.659605 
L 351.910335 304.756016 
L 351.910335 304.756016 
" clip-path="url(#p7533acf66d)" style="fill: none; stroke: #1f77b4; stroke-width: 1.5; stroke-linecap: square"/>
   </g>
   <g id="patch_3">
    <path d="M 38.27 318.04 
L 38.27 26.88 
" style="fill: none; stroke: #000000; stroke-width: 0.8; stroke-linejoin: miter; stroke-linecap: square"/>
   </g>
   <g id="patch_4">
    <path d="M 366.845589 318.04 
L 366.845589 26.88 
" style="fill: none; stroke: #000000; stroke-width: 0.8; stroke-linejoin: miter; stroke-linecap: square"/>
   </g>
   <g id="patch_5">
    <path d="M 38.27 318.04 
L 366.845589 318.04 
" style="fill: none; stroke: #000000; stroke-width: 0.8; stroke-linejoin: miter; stroke-linecap: square"/>
   </g>
   <g id="patch_6">
    <path d="M 38.27 26.88 
L 366.845589 26.88 
" style="fill: none; stroke: #000000; stroke-width: 0.8; stroke-linejoin: miter; stroke-linecap: square"/>
   </g>
   <g id="text_14">
    <!-- n = 31 -->
    <g transform="translate(182.278732 20.88) scale(0.12 -0.12)">
     <defs>
      <path id="DejaVuSans-3d" d="M 678 2906 
L 4684 2906 
L 4684 2381 
L 678 2381 
L 678 2906 
z
M 678 1631 
L 4684 1631 
L 4684 1100 
L 678 1100 
L 678 1631 
z
" transform="scale(0.015625)"/>
     </defs>
     <use xlink:href="#DejaVuSans-6e"/>
     <use xlink:href="#DejaVuSans-20" transform="translate(63.378906 0)"/>
     <use xlink:href="#DejaVuSans-3d" transform="translate(95.166016 0)"/>
     <use xlink:href="#DejaVuSans-20" transform="translate(178.955078 0)"/>
     <use xlink:href="#DejaVuSans-33" transform="translate(210.742188 0)"/>
     <use xlink:href="#DejaVuSans-31" transform="translate(274.365234 0)"/>
    </g>
   </g>
   <g id="legend_1">
    <g id="patch_7">
     <path d="M 198.925276 64.23625 
L 359.845589 64.23625 
Q 361.845589 64.23625 361.845589 62.23625 
L 361.845589 33.88 
Q 361.845589 31.88 359.845589 31.88 
L 198.925276 31.88 
Q 196.925276 31.88 196.925276 33.88 
L 196.925276 62.23625 
Q 196.925276 64.23625 198.925276 64.23625 
z
" style="fill: #ffffff; opacity: 0.8; stroke: #cccccc; stroke-linejoin: miter"/>
    </g>
    <g id="line2d_24">
     <path d="M 200.925276 39.978437 
L 210.925276 39.978437 
L 220.925276 39.978437 
" style="fill: none; stroke: #1f77b4; stroke-width: 1.5; stroke-linecap: square"/>
    </g>
    <g id="text_15">
     <!-- Sampling Distribution -->
     <g transform="translate(228.925276 43.478437) scale(0.1 -0.1)">
      <defs>
       <path id="DejaVuSans-67" d="M 2906 1791 
Q 2906 2416 2648 2759 
Q 2391 3103 1925 3103 
Q 1463 3103 1205 2759 
Q 947 2416 947 1791 
Q 947 1169 1205 825 
Q 1463 481 1925 481 
Q 2391 481 2648 825 
Q 2906 1169 2906 1791 
z
M 3481 434 
Q 3481 -459 3084 -895 
Q 2688 -1331 1869 -1331 
Q 1566 -1331 1297 -1286 
Q 1028 -1241 775 -1147 
L 775 -588 
Q 1028 -725 1275 -790 
Q 1522 -856 1778 -856 
Q 2344 -856 2625 -561 
Q 2906 -266 2906 331 
L 2906 616 
Q 2728 306 2450 153 
Q 2172 0 1784 0 
Q 1141 0 747 490 
Q 353 981 353 1791 
Q 353 2603 747 3093 
Q 1141 3584 1784 3584 
Q 2172 3584 2450 3431 
Q 2728 3278 2906 2969 
L 2906 3500 
L 3481 3500 
L 3481 434 
z
" transform="scale(0.015625)"/>
       <path id="DejaVuSans-72" d="M 2631 2963 
Q 2534 3019 2420 3045 
Q 2306 3072 2169 3072 
Q 1681 3072 1420 2755 
Q 1159 2438 1159 1844 
L 1159 0 
L 581 0 
L 581 3500 
L 1159 3500 
L 1159 2956 
Q 1341 3275 1631 3429 
Q 1922 3584 2338 3584 
Q 2397 3584 2469 3576 
Q 2541 3569 2628 3553 
L 2631 2963 
z
" transform="scale(0.015625)"/>
       <path id="DejaVuSans-62" d="M 3116 1747 
Q 3116 2381 2855 2742 
Q 2594 3103 2138 3103 
Q 1681 3103 1420 2742 
Q 1159 2381 1159 1747 
Q 1159 1113 1420 752 
Q 1681 391 2138 391 
Q 2594 391 2855 752 
Q 3116 1113 3116 1747 
z
M 1159 2969 
Q 1341 3281 1617 3432 
Q 1894 3584 2278 3584 
Q 2916 3584 3314 3078 
Q 3713 2572 3713 1747 
Q 3713 922 3314 415 
Q 2916 -91 2278 -91 
Q 1894 -91 1617 61 
Q 1341 213 1159 525 
L 1159 0 
L 581 0 
L 581 4863 
L 1159 4863 
L 1159 2969 
z
" transform="scale(0.015625)"/>
       <path id="DejaVuSans-75" d="M 544 1381 
L 544 3500 
L 1119 3500 
L 1119 1403 
Q 1119 906 1312 657 
Q 1506 409 1894 409 
Q 2359 409 2629 706 
Q 2900 1003 2900 1516 
L 2900 3500 
L 3475 3500 
L 3475 0 
L 2900 0 
L 2900 538 
Q 2691 219 2414 64 
Q 2138 -91 1772 -91 
Q 1169 -91 856 284 
Q 544 659 544 1381 
z
M 1991 3584 
L 1991 3584 
z
" transform="scale(0.015625)"/>
       <path id="DejaVuSans-6f" d="M 1959 3097 
Q 1497 3097 1228 2736 
Q 959 2375 959 1747 
Q 959 1119 1226 758 
Q 1494 397 1959 397 
Q 2419 397 2687 759 
Q 2956 1122 2956 1747 
Q 2956 2369 2687 2733 
Q 2419 3097 1959 3097 
z
M 1959 3584 
Q 2709 3584 3137 3096 
Q 3566 2609 3566 1747 
Q 3566 888 3137 398 
Q 2709 -91 1959 -91 
Q 1206 -91 779 398 
Q 353 888 353 1747 
Q 353 2609 779 3096 
Q 1206 3584 1959 3584 
z
" transform="scale(0.015625)"/>
      </defs>
      <use xlink:href="#DejaVuSans-53"/>
      <use xlink:href="#DejaVuSans-61" transform="translate(63.476562 0)"/>
      <use xlink:href="#DejaVuSans-6d" transform="translate(124.755859 0)"/>
      <use xlink:href="#DejaVuSans-70" transform="translate(222.167969 0)"/>
      <use xlink:href="#DejaVuSans-6c" transform="translate(285.644531 0)"/>
      <use xlink:href="#DejaVuSans-69" transform="translate(313.427734 0)"/>
      <use xlink:href="#DejaVuSans-6e" transform="translate(341.210938 0)"/>
      <use xlink:href="#DejaVuSans-67" transform="translate(404.589844 0)"/>
      <use xlink:href="#DejaVuSans-20" transform="translate(468.066406 0)"/>
      <use xlink:href="#DejaVuSans-44" transform="translate(499.853516 0)"/>
      <use xlink:href="#DejaVuSans-69" transform="translate(576.855469 0)"/>
      <use xlink:href="#DejaVuSans-73" transform="translate(604.638672 0)"/>
      <use xlink:href="#DejaVuSans-74" transform="translate(656.738281 0)"/>
      <use xlink:href="#DejaVuSans-72" transform="translate(695.947266 0)"/>
      <use xlink:href="#DejaVuSans-69" transform="translate(737.060547 0)"/>
      <use xlink:href="#DejaVuSans-62" transform="translate(764.84375 0)"/>
      <use xlink:href="#DejaVuSans-75" transform="translate(828.320312 0)"/>
      <use xlink:href="#DejaVuSans-74" transform="translate(891.699219 0)"/>
      <use xlink:href="#DejaVuSans-69" transform="translate(930.908203 0)"/>
      <use xlink:href="#DejaVuSans-6f" transform="translate(958.691406 0)"/>
      <use xlink:href="#DejaVuSans-6e" transform="translate(1019.873047 0)"/>
     </g>
    </g>
    <g id="patch_8">
     <path d="M 200.925276 58.156563 
L 220.925276 58.156563 
L 220.925276 51.156563 
L 200.925276 51.156563 
z
" style="fill: #ff0000; fill-opacity: 0.3; stroke: #ff0000; stroke-opacity: 0.3; stroke-linejoin: miter"/>
    </g>
    <g id="text_16">
     <!-- P(mean &lt; 98.0) = 0.0636 -->
     <g transform="translate(228.925276 58.156563) scale(0.1 -0.1)">
      <defs>
       <path id="DejaVuSans-50" d="M 1259 4147 
L 1259 2394 
L 2053 2394 
Q 2494 2394 2734 2622 
Q 2975 2850 2975 3272 
Q 2975 3691 2734 3919 
Q 2494 4147 2053 4147 
L 1259 4147 
z
M 628 4666 
L 2053 4666 
Q 2838 4666 3239 4311 
Q 3641 3956 3641 3272 
Q 3641 2581 3239 2228 
Q 2838 1875 2053 1875 
L 1259 1875 
L 1259 0 
L 628 0 
L 628 4666 
z
" transform="scale(0.015625)"/>
       <path id="DejaVuSans-28" d="M 1984 4856 
Q 1566 4138 1362 3434 
Q 1159 2731 1159 2009 
Q 1159 1288 1364 580 
Q 1569 -128 1984 -844 
L 1484 -844 
Q 1016 -109 783 600 
Q 550 1309 550 2009 
Q 550 2706 781 3412 
Q 1013 4119 1484 4856 
L 1984 4856 
z
" transform="scale(0.015625)"/>
       <path id="DejaVuSans-3c" d="M 4684 3150 
L 1459 2003 
L 4684 863 
L 4684 294 
L 678 1747 
L 678 2266 
L 4684 3719 
L 4684 3150 
z
" transform="scale(0.015625)"/>
       <path id="DejaVuSans-29" d="M 513 4856 
L 1013 4856 
Q 1481 4119 1714 3412 
Q 1947 2706 1947 2009 
Q 1947 1309 1714 600 
Q 1481 -109 1013 -844 
L 513 -844 
Q 928 -128 1133 580 
Q 1338 1288 1338 2009 
Q 1338 2731 1133 3434 
Q 928 4138 513 4856 
z
" transform="scale(0.015625)"/>
      </defs>
      <use xlink:href="#DejaVuSans-50"/>
      <use xlink:href="#DejaVuSans-28" transform="translate(60.302734 0)"/>
      <use xlink:href="#DejaVuSans-6d" transform="translate(99.316406 0)"/>
      <use xlink:href="#DejaVuSans-65" transform="translate(196.728516 0)"/>
      <use xlink:href="#DejaVuSans-61" transform="translate(258.251953 0)"/>
      <use xlink:href="#DejaVuSans-6e" transform="translate(319.53125 0)"/>
      <use xlink:href="#DejaVuSans-20" transform="translate(382.910156 0)"/>
      <use xlink:href="#DejaVuSans-3c" transform="translate(414.697266 0)"/>
      <use xlink:href="#DejaVuSans-20" transform="translate(498.486328 0)"/>
      <use xlink:href="#DejaVuSans-39" transform="translate(530.273438 0)"/>
      <use xlink:href="#DejaVuSans-38" transform="translate(593.896484 0)"/>
      <use xlink:href="#DejaVuSans-2e" transform="translate(657.519531 0)"/>
      <use xlink:href="#DejaVuSans-30" transform="translate(689.306641 0)"/>
      <use xlink:href="#DejaVuSans-29" transform="translate(752.929688 0)"/>
      <use xlink:href="#DejaVuSans-20" transform="translate(791.943359 0)"/>
      <use xlink:href="#DejaVuSans-3d" transform="translate(823.730469 0)"/>
      <use xlink:href="#DejaVuSans-20" transform="translate(907.519531 0)"/>
      <use xlink:href="#DejaVuSans-30" transform="translate(939.306641 0)"/>
      <use xlink:href="#DejaVuSans-2e" transform="translate(1002.929688 0)"/>
      <use xlink:href="#DejaVuSans-30" transform="translate(1034.716797 0)"/>
      <use xlink:href="#DejaVuSans-36" transform="translate(1098.339844 0)"/>
      <use xlink:href="#DejaVuSans-33" transform="translate(1161.962891 0)"/>
      <use xlink:href="#DejaVuSans-36" transform="translate(1225.585938 0)"/>
     </g>
    </g>
   </g>
  </g>
  <g id="axes_2">
   <g id="patch_9">
    <path d="M 387.951771 318.04 
L 716.527359 318.04 
L 716.527359 26.88 
L 387.951771 26.88 
z
" style="fill: #ffffff"/>
   </g>
   <g id="FillBetweenPolyCollection_2">
    <defs>
     <path id="m7802653c90" d="M 402.887025 -55.194545 
L 402.887025 -55.263325 
L 403.595249 -55.268734 
L 404.303473 -55.274538 
L 405.011697 -55.280766 
L 405.719922 -55.287445 
L 406.428146 -55.294606 
L 407.13637 -55.30228 
L 407.844594 -55.3105 
L 408.552818 -55.319303 
L 409.261043 -55.328726 
L 409.969267 -55.338809 
L 410.677491 -55.349593 
L 411.385715 -55.361124 
L 412.09394 -55.373448 
L 412.802164 -55.386614 
L 413.510388 -55.400676 
L 414.218612 -55.415687 
L 414.926836 -55.431706 
L 415.635061 -55.448795 
L 416.343285 -55.467016 
L 417.051509 -55.486438 
L 417.759733 -55.507132 
L 418.467958 -55.529173 
L 419.176182 -55.552639 
L 419.884406 -55.577613 
L 420.59263 -55.604181 
L 421.300854 -55.632434 
L 422.009079 -55.662467 
L 422.717303 -55.694381 
L 423.425527 -55.728279 
L 424.133751 -55.764271 
L 424.841976 -55.802471 
L 425.5502 -55.843 
L 426.258424 -55.885981 
L 426.966648 -55.931546 
L 427.674872 -55.979831 
L 428.383097 -56.030979 
L 429.091321 -56.085137 
L 429.799545 -56.142462 
L 430.507769 -56.203113 
L 431.215993 -56.267258 
L 431.924218 -56.335073 
L 432.632442 -56.406739 
L 433.340666 -56.482445 
L 434.04889 -56.562386 
L 434.757115 -56.646767 
L 435.465339 -56.735799 
L 436.173563 -56.829701 
L 436.881787 -56.928699 
L 437.590011 -57.03303 
L 438.298236 -57.142937 
L 439.00646 -57.258671 
L 439.714684 -57.380493 
L 440.422908 -57.508672 
L 441.131133 -57.643486 
L 441.839357 -57.785222 
L 442.547581 -57.934175 
L 443.255805 -58.09065 
L 443.964029 -58.254961 
L 444.672254 -58.427431 
L 445.380478 -58.608391 
L 446.088702 -58.798185 
L 446.796926 -58.997161 
L 447.505151 -59.205681 
L 448.213375 -59.424113 
L 448.921599 -59.652836 
L 449.629823 -59.892238 
L 450.338047 -60.142713 
L 451.046272 -60.40467 
L 451.754496 -60.678521 
L 452.46272 -60.964689 
L 453.170944 -61.263607 
L 453.879168 -61.575713 
L 454.587393 -61.901457 
L 455.295617 -62.241293 
L 456.003841 -62.595685 
L 456.712065 -62.965104 
L 457.42029 -63.350027 
L 458.128514 -63.750939 
L 458.836738 -64.16833 
L 459.544962 -64.602697 
L 460.253186 -65.05454 
L 460.961411 -65.524367 
L 461.669635 -66.012689 
L 462.377859 -66.520019 
L 463.086083 -67.046876 
L 463.794308 -67.593781 
L 464.502532 -68.161255 
L 465.210756 -68.749823 
L 465.91898 -69.36001 
L 466.627204 -69.992339 
L 467.335429 -70.647334 
L 468.043653 -71.325516 
L 468.751877 -72.027404 
L 469.460101 -72.753515 
L 470.168326 -73.504358 
L 470.87655 -74.280441 
L 471.584774 -75.082262 
L 472.292998 -75.910315 
L 473.001222 -76.765082 
L 473.001222 -55.194545 
L 473.001222 -55.194545 
L 472.292998 -55.194545 
L 471.584774 -55.194545 
L 470.87655 -55.194545 
L 470.168326 -55.194545 
L 469.460101 -55.194545 
L 468.751877 -55.194545 
L 468.043653 -55.194545 
L 467.335429 -55.194545 
L 466.627204 -55.194545 
L 465.91898 -55.194545 
L 465.210756 -55.194545 
L 464.502532 -55.194545 
L 463.794308 -55.194545 
L 463.086083 -55.194545 
L 462.377859 -55.194545 
L 461.669635 -55.194545 
L 460.961411 -55.194545 
L 460.253186 -55.194545 
L 459.544962 -55.194545 
L 458.836738 -55.194545 
L 458.128514 -55.194545 
L 457.42029 -55.194545 
L 456.712065 -55.194545 
L 456.003841 -55.194545 
L 455.295617 -55.194545 
L 454.587393 -55.194545 
L 453.879168 -55.194545 
L 453.170944 -55.194545 
L 452.46272 -55.194545 
L 451.754496 -55.194545 
L 451.046272 -55.194545 
L 450.338047 -55.194545 
L 449.629823 -55.194545 
L 448.921599 -55.194545 
L 448.213375 -55.194545 
L 447.505151 -55.194545 
L 446.796926 -55.194545 
L 446.088702 -55.194545 
L 445.380478 -55.194545 
L 444.672254 -55.194545 
L 443.964029 -55.194545 
L 443.255805 -55.194545 
L 442.547581 -55.194545 
L 441.839357 -55.194545 
L 441.131133 -55.194545 
L 440.422908 -55.194545 
L 439.714684 -55.194545 
L 439.00646 -55.194545 
L 438.298236 -55.194545 
L 437.590011 -55.194545 
L 436.881787 -55.194545 
L 436.173563 -55.194545 
L 435.465339 -55.194545 
L 434.757115 -55.194545 
L 434.04889 -55.194545 
L 433.340666 -55.194545 
L 432.632442 -55.194545 
L 431.924218 -55.194545 
L 431.215993 -55.194545 
L 430.507769 -55.194545 
L 429.799545 -55.194545 
L 429.091321 -55.194545 
L 428.383097 -55.194545 
L 427.674872 -55.194545 
L 426.966648 -55.194545 
L 426.258424 -55.194545 
L 425.5502 -55.194545 
L 424.841976 -55.194545 
L 424.133751 -55.194545 
L 423.425527 -55.194545 
L 422.717303 -55.194545 
L 422.009079 -55.194545 
L 421.300854 -55.194545 
L 420.59263 -55.194545 
L 419.884406 -55.194545 
L 419.176182 -55.194545 
L 418.467958 -55.194545 
L 417.759733 -55.194545 
L 417.051509 -55.194545 
L 416.343285 -55.194545 
L 415.635061 -55.194545 
L 414.926836 -55.194545 
L 414.218612 -55.194545 
L 413.510388 -55.194545 
L 412.802164 -55.194545 
L 412.09394 -55.194545 
L 411.385715 -55.194545 
L 410.677491 -55.194545 
L 409.969267 -55.194545 
L 409.261043 -55.194545 
L 408.552818 -55.194545 
L 407.844594 -55.194545 
L 407.13637 -55.194545 
L 406.428146 -55.194545 
L 405.719922 -55.194545 
L 405.011697 -55.194545 
L 404.303473 -55.194545 
L 403.595249 -55.194545 
L 402.887025 -55.194545 
z
" style="stroke: #ff0000; stroke-opacity: 0.3"/>
    </defs>
    <g clip-path="url(#p70f34d6381)">
     <use xlink:href="#m7802653c90" x="0" y="360" style="fill: #ff0000; fill-opacity: 0.3; stroke: #ff0000; stroke-opacity: 0.3"/>
    </g>
   </g>
   <g id="matplotlib.axis_3">
    <g id="xtick_6">
     <g id="line2d_25">
      <path d="M 393.76288 318.04 
L 393.76288 26.88 
" clip-path="url(#p70f34d6381)" style="fill: none; stroke: #b0b0b0; stroke-opacity: 0.3; stroke-width: 0.8; stroke-linecap: square"/>
     </g>
     <g id="line2d_26">
      <g>
       <use xlink:href="#mbc955c5d1a" x="393.76288" y="318.04" style="stroke: #000000; stroke-width: 0.8"/>
      </g>
     </g>
     <g id="text_17">
      <!-- 97.8 -->
      <g transform="translate(382.630067 332.638438) scale(0.1 -0.1)">
       <use xlink:href="#DejaVuSans-39"/>
       <use xlink:href="#DejaVuSans-37" transform="translate(63.623047 0)"/>
       <use xlink:href="#DejaVuSans-2e" transform="translate(127.246094 0)"/>
       <use xlink:href="#DejaVuSans-38" transform="translate(159.033203 0)"/>
      </g>
     </g>
    </g>
    <g id="xtick_7">
     <g id="line2d_27">
      <path d="M 433.382051 318.04 
L 433.382051 26.88 
" clip-path="url(#p70f34d6381)" style="fill: none; stroke: #b0b0b0; stroke-opacity: 0.3; stroke-width: 0.8; stroke-linecap: square"/>
     </g>
     <g id="line2d_28">
      <g>
       <use xlink:href="#mbc955c5d1a" x="433.382051" y="318.04" style="stroke: #000000; stroke-width: 0.8"/>
      </g>
     </g>
     <g id="text_18">
      <!-- 97.9 -->
      <g transform="translate(422.249239 332.638438) scale(0.1 -0.1)">
       <use xlink:href="#DejaVuSans-39"/>
       <use xlink:href="#DejaVuSans-37" transform="translate(63.623047 0)"/>
       <use xlink:href="#DejaVuSans-2e" transform="translate(127.246094 0)"/>
       <use xlink:href="#DejaVuSans-39" transform="translate(159.033203 0)"/>
      </g>
     </g>
    </g>
    <g id="xtick_8">
     <g id="line2d_29">
      <path d="M 473.001222 318.04 
L 473.001222 26.88 
" clip-path="url(#p70f34d6381)" style="fill: none; stroke: #b0b0b0; stroke-opacity: 0.3; stroke-width: 0.8; stroke-linecap: square"/>
     </g>
     <g id="line2d_30">
      <g>
       <use xlink:href="#mbc955c5d1a" x="473.001222" y="318.04" style="stroke: #000000; stroke-width: 0.8"/>
      </g>
     </g>
     <g id="text_19">
      <!-- 98.0 -->
      <g transform="translate(461.86841 332.638438) scale(0.1 -0.1)">
       <use xlink:href="#DejaVuSans-39"/>
       <use xlink:href="#DejaVuSans-38" transform="translate(63.623047 0)"/>
       <use xlink:href="#DejaVuSans-2e" transform="translate(127.246094 0)"/>
       <use xlink:href="#DejaVuSans-30" transform="translate(159.033203 0)"/>
      </g>
     </g>
    </g>
    <g id="xtick_9">
     <g id="line2d_31">
      <path d="M 512.620394 318.04 
L 512.620394 26.88 
" clip-path="url(#p70f34d6381)" style="fill: none; stroke: #b0b0b0; stroke-opacity: 0.3; stroke-width: 0.8; stroke-linecap: square"/>
     </g>
     <g id="line2d_32">
      <g>
       <use xlink:href="#mbc955c5d1a" x="512.620394" y="318.04" style="stroke: #000000; stroke-width: 0.8"/>
      </g>
     </g>
     <g id="text_20">
      <!-- 98.1 -->
      <g transform="translate(501.487581 332.638438) scale(0.1 -0.1)">
       <use xlink:href="#DejaVuSans-39"/>
       <use xlink:href="#DejaVuSans-38" transform="translate(63.623047 0)"/>
       <use xlink:href="#DejaVuSans-2e" transform="translate(127.246094 0)"/>
       <use xlink:href="#DejaVuSans-31" transform="translate(159.033203 0)"/>
      </g>
     </g>
    </g>
    <g id="xtick_10">
     <g id="line2d_33">
      <path d="M 552.239565 318.04 
L 552.239565 26.88 
" clip-path="url(#p70f34d6381)" style="fill: none; stroke: #b0b0b0; stroke-opacity: 0.3; stroke-width: 0.8; stroke-linecap: square"/>
     </g>
     <g id="line2d_34">
      <g>
       <use xlink:href="#mbc955c5d1a" x="552.239565" y="318.04" style="stroke: #000000; stroke-width: 0.8"/>
      </g>
     </g>
     <g id="text_21">
      <!-- 98.2 -->
      <g transform="translate(541.106753 332.638438) scale(0.1 -0.1)">
       <use xlink:href="#DejaVuSans-39"/>
       <use xlink:href="#DejaVuSans-38" transform="translate(63.623047 0)"/>
       <use xlink:href="#DejaVuSans-2e" transform="translate(127.246094 0)"/>
       <use xlink:href="#DejaVuSans-32" transform="translate(159.033203 0)"/>
      </g>
     </g>
    </g>
    <g id="xtick_11">
     <g id="line2d_35">
      <path d="M 591.858736 318.04 
L 591.858736 26.88 
" clip-path="url(#p70f34d6381)" style="fill: none; stroke: #b0b0b0; stroke-opacity: 0.3; stroke-width: 0.8; stroke-linecap: square"/>
     </g>
     <g id="line2d_36">
      <g>
       <use xlink:href="#mbc955c5d1a" x="591.858736" y="318.04" style="stroke: #000000; stroke-width: 0.8"/>
      </g>
     </g>
     <g id="text_22">
      <!-- 98.3 -->
      <g transform="translate(580.725924 332.638438) scale(0.1 -0.1)">
       <use xlink:href="#DejaVuSans-39"/>
       <use xlink:href="#DejaVuSans-38" transform="translate(63.623047 0)"/>
       <use xlink:href="#DejaVuSans-2e" transform="translate(127.246094 0)"/>
       <use xlink:href="#DejaVuSans-33" transform="translate(159.033203 0)"/>
      </g>
     </g>
    </g>
    <g id="xtick_12">
     <g id="line2d_37">
      <path d="M 631.477908 318.04 
L 631.477908 26.88 
" clip-path="url(#p70f34d6381)" style="fill: none; stroke: #b0b0b0; stroke-opacity: 0.3; stroke-width: 0.8; stroke-linecap: square"/>
     </g>
     <g id="line2d_38">
      <g>
       <use xlink:href="#mbc955c5d1a" x="631.477908" y="318.04" style="stroke: #000000; stroke-width: 0.8"/>
      </g>
     </g>
     <g id="text_23">
      <!-- 98.4 -->
      <g transform="translate(620.345095 332.638438) scale(0.1 -0.1)">
       <use xlink:href="#DejaVuSans-39"/>
       <use xlink:href="#DejaVuSans-38" transform="translate(63.623047 0)"/>
       <use xlink:href="#DejaVuSans-2e" transform="translate(127.246094 0)"/>
       <use xlink:href="#DejaVuSans-34" transform="translate(159.033203 0)"/>
      </g>
     </g>
    </g>
    <g id="xtick_13">
     <g id="line2d_39">
      <path d="M 671.097079 318.04 
L 671.097079 26.88 
" clip-path="url(#p70f34d6381)" style="fill: none; stroke: #b0b0b0; stroke-opacity: 0.3; stroke-width: 0.8; stroke-linecap: square"/>
     </g>
     <g id="line2d_40">
      <g>
       <use xlink:href="#mbc955c5d1a" x="671.097079" y="318.04" style="stroke: #000000; stroke-width: 0.8"/>
      </g>
     </g>
     <g id="text_24">
      <!-- 98.5 -->
      <g transform="translate(659.964267 332.638438) scale(0.1 -0.1)">
       <use xlink:href="#DejaVuSans-39"/>
       <use xlink:href="#DejaVuSans-38" transform="translate(63.623047 0)"/>
       <use xlink:href="#DejaVuSans-2e" transform="translate(127.246094 0)"/>
       <use xlink:href="#DejaVuSans-35" transform="translate(159.033203 0)"/>
      </g>
     </g>
    </g>
    <g id="xtick_14">
     <g id="line2d_41">
      <path d="M 710.71625 318.04 
L 710.71625 26.88 
" clip-path="url(#p70f34d6381)" style="fill: none; stroke: #b0b0b0; stroke-opacity: 0.3; stroke-width: 0.8; stroke-linecap: square"/>
     </g>
     <g id="line2d_42">
      <g>
       <use xlink:href="#mbc955c5d1a" x="710.71625" y="318.04" style="stroke: #000000; stroke-width: 0.8"/>
      </g>
     </g>
     <g id="text_25">
      <!-- 98.6 -->
      <g transform="translate(699.583438 332.638438) scale(0.1 -0.1)">
       <use xlink:href="#DejaVuSans-39"/>
       <use xlink:href="#DejaVuSans-38" transform="translate(63.623047 0)"/>
       <use xlink:href="#DejaVuSans-2e" transform="translate(127.246094 0)"/>
       <use xlink:href="#DejaVuSans-36" transform="translate(159.033203 0)"/>
      </g>
     </g>
    </g>
    <g id="text_26">
     <!-- Sample Mean -->
     <g transform="translate(518.278628 346.316563) scale(0.1 -0.1)">
      <use xlink:href="#DejaVuSans-53"/>
      <use xlink:href="#DejaVuSans-61" transform="translate(63.476562 0)"/>
      <use xlink:href="#DejaVuSans-6d" transform="translate(124.755859 0)"/>
      <use xlink:href="#DejaVuSans-70" transform="translate(222.167969 0)"/>
      <use xlink:href="#DejaVuSans-6c" transform="translate(285.644531 0)"/>
      <use xlink:href="#DejaVuSans-65" transform="translate(313.427734 0)"/>
      <use xlink:href="#DejaVuSans-20" transform="translate(374.951172 0)"/>
      <use xlink:href="#DejaVuSans-4d" transform="translate(406.738281 0)"/>
      <use xlink:href="#DejaVuSans-65" transform="translate(493.017578 0)"/>
      <use xlink:href="#DejaVuSans-61" transform="translate(554.541016 0)"/>
      <use xlink:href="#DejaVuSans-6e" transform="translate(615.820312 0)"/>
     </g>
    </g>
   </g>
   <g id="matplotlib.axis_4">
    <g id="ytick_7">
     <g id="line2d_43">
      <path d="M 387.951771 304.805455 
L 716.527359 304.805455 
" clip-path="url(#p70f34d6381)" style="fill: none; stroke: #b0b0b0; stroke-opacity: 0.3; stroke-width: 0.8; stroke-linecap: square"/>
     </g>
     <g id="line2d_44">
      <g>
       <use xlink:href="#mc813abc18a" x="387.951771" y="304.805455" style="stroke: #000000; stroke-width: 0.8"/>
      </g>
     </g>
    </g>
    <g id="ytick_8">
     <g id="line2d_45">
      <path d="M 387.951771 256.370901 
L 716.527359 256.370901 
" clip-path="url(#p70f34d6381)" style="fill: none; stroke: #b0b0b0; stroke-opacity: 0.3; stroke-width: 0.8; stroke-linecap: square"/>
     </g>
     <g id="line2d_46">
      <g>
       <use xlink:href="#mc813abc18a" x="387.951771" y="256.370901" style="stroke: #000000; stroke-width: 0.8"/>
      </g>
     </g>
    </g>
    <g id="ytick_9">
     <g id="line2d_47">
      <path d="M 387.951771 207.936347 
L 716.527359 207.936347 
" clip-path="url(#p70f34d6381)" style="fill: none; stroke: #b0b0b0; stroke-opacity: 0.3; stroke-width: 0.8; stroke-linecap: square"/>
     </g>
     <g id="line2d_48">
      <g>
       <use xlink:href="#mc813abc18a" x="387.951771" y="207.936347" style="stroke: #000000; stroke-width: 0.8"/>
      </g>
     </g>
    </g>
    <g id="ytick_10">
     <g id="line2d_49">
      <path d="M 387.951771 159.501794 
L 716.527359 159.501794 
" clip-path="url(#p70f34d6381)" style="fill: none; stroke: #b0b0b0; stroke-opacity: 0.3; stroke-width: 0.8; stroke-linecap: square"/>
     </g>
     <g id="line2d_50">
      <g>
       <use xlink:href="#mc813abc18a" x="387.951771" y="159.501794" style="stroke: #000000; stroke-width: 0.8"/>
      </g>
     </g>
    </g>
    <g id="ytick_11">
     <g id="line2d_51">
      <path d="M 387.951771 111.06724 
L 716.527359 111.06724 
" clip-path="url(#p70f34d6381)" style="fill: none; stroke: #b0b0b0; stroke-opacity: 0.3; stroke-width: 0.8; stroke-linecap: square"/>
     </g>
     <g id="line2d_52">
      <g>
       <use xlink:href="#mc813abc18a" x="387.951771" y="111.06724" style="stroke: #000000; stroke-width: 0.8"/>
      </g>
     </g>
    </g>
    <g id="ytick_12">
     <g id="line2d_53">
      <path d="M 387.951771 62.632687 
L 716.527359 62.632687 
" clip-path="url(#p70f34d6381)" style="fill: none; stroke: #b0b0b0; stroke-opacity: 0.3; stroke-width: 0.8; stroke-linecap: square"/>
     </g>
     <g id="line2d_54">
      <g>
       <use xlink:href="#mc813abc18a" x="387.951771" y="62.632687" style="stroke: #000000; stroke-width: 0.8"/>
      </g>
     </g>
    </g>
   </g>
   <g id="line2d_55">
    <path d="M 402.887025 304.736675 
L 416.641213 304.524964 
L 425.013327 304.187941 
L 431.292413 303.725604 
L 436.375482 303.142604 
L 440.860543 302.408823 
L 444.747597 301.553728 
L 448.335646 300.537145 
L 451.624691 299.372581 
L 454.614731 298.08569 
L 457.604772 296.5471 
L 460.295809 294.917698 
L 462.986846 293.028144 
L 465.677883 290.850173 
L 468.368919 288.355103 
L 470.760952 285.847977 
L 473.152985 283.048232 
L 475.545017 279.937278 
L 478.236054 276.044127 
L 480.927091 271.713836 
L 483.618128 266.928836 
L 486.309164 261.676542 
L 489.000201 255.950353 
L 491.990242 249.032809 
L 494.980283 241.542785 
L 498.269328 232.673171 
L 501.857377 222.306458 
L 505.74443 210.377221 
L 510.528495 194.948112 
L 525.179695 147.129027 
L 528.46874 137.385582 
L 531.458781 129.192866 
L 534.149818 122.479625 
L 536.541851 117.117399 
L 538.634879 112.94328 
L 540.727908 109.291655 
L 542.521932 106.60275 
L 544.315957 104.340196 
L 545.810977 102.791588 
L 547.305998 101.557127 
L 548.801018 100.6427 
L 549.997034 100.144575 
L 551.193051 99.855632 
L 552.389067 99.776758 
L 553.585083 99.908197 
L 554.7811 100.249544 
L 555.977116 100.799751 
L 557.173132 101.557127 
L 558.668153 102.791588 
L 560.163173 104.340196 
L 561.658194 106.1956 
L 563.452218 108.814632 
L 565.246243 111.845113 
L 567.339271 115.873578 
L 569.4323 120.398311 
L 571.824333 126.125725 
L 574.515369 133.200644 
L 577.50541 141.730114 
L 581.093459 152.700756 
L 585.57852 167.180934 
L 599.930717 214.116157 
L 603.81777 225.836823 
L 607.405819 235.972121 
L 610.694864 244.606186 
L 613.684904 251.869479 
L 616.674945 258.553981 
L 619.365982 264.069158 
L 622.057019 269.112572 
L 624.748056 273.693606 
L 627.439092 277.827184 
L 630.130129 281.532769 
L 632.821166 284.833387 
L 635.512203 287.754699 
L 638.203239 290.324128 
L 640.894276 292.570082 
L 643.585313 294.521264 
L 646.27635 296.206074 
L 649.266391 297.799218 
L 652.256431 299.133702 
L 655.545476 300.343179 
L 658.834521 301.321877 
L 662.42257 302.169877 
L 666.608627 302.924122 
L 671.392693 303.545208 
L 677.07377 304.038873 
L 683.950864 304.398302 
L 693.219991 304.640994 
L 701.592105 304.736675 
L 701.592105 304.736675 
" clip-path="url(#p70f34d6381)" style="fill: none; stroke: #1f77b4; stroke-width: 1.5; stroke-linecap: square"/>
   </g>
   <g id="patch_10">
    <path d="M 387.951771 318.04 
L 387.951771 26.88 
" style="fill: none; stroke: #000000; stroke-width: 0.8; stroke-linejoin: miter; stroke-linecap: square"/>
   </g>
   <g id="patch_11">
    <path d="M 716.527359 318.04 
L 716.527359 26.88 
" style="fill: none; stroke: #000000; stroke-width: 0.8; stroke-linejoin: miter; stroke-linecap: square"/>
   </g>
   <g id="patch_12">
    <path d="M 387.951771 318.04 
L 716.527359 318.04 
" style="fill: none; stroke: #000000; stroke-width: 0.8; stroke-linejoin: miter; stroke-linecap: square"/>
   </g>
   <g id="patch_13">
    <path d="M 387.951771 26.88 
L 716.527359 26.88 
" style="fill: none; stroke: #000000; stroke-width: 0.8; stroke-linejoin: miter; stroke-linecap: square"/>
   </g>
   <g id="text_27">
    <!-- n = 60 -->
    <g transform="translate(531.960503 20.88) scale(0.12 -0.12)">
     <use xlink:href="#DejaVuSans-6e"/>
     <use xlink:href="#DejaVuSans-20" transform="translate(63.378906 0)"/>
     <use xlink:href="#DejaVuSans-3d" transform="translate(95.166016 0)"/>
     <use xlink:href="#DejaVuSans-20" transform="translate(178.955078 0)"/>
     <use xlink:href="#DejaVuSans-36" transform="translate(210.742188 0)"/>
     <use xlink:href="#DejaVuSans-30" transform="translate(274.365234 0)"/>
    </g>
   </g>
   <g id="legend_2">
    <g id="patch_14">
     <path d="M 548.607047 64.23625 
L 709.527359 64.23625 
Q 711.527359 64.23625 711.527359 62.23625 
L 711.527359 33.88 
Q 711.527359 31.88 709.527359 31.88 
L 548.607047 31.88 
Q 546.607047 31.88 546.607047 33.88 
L 546.607047 62.23625 
Q 546.607047 64.23625 548.607047 64.23625 
z
" style="fill: #ffffff; opacity: 0.8; stroke: #cccccc; stroke-linejoin: miter"/>
    </g>
    <g id="line2d_56">
     <path d="M 550.607047 39.978437 
L 560.607047 39.978437 
L 570.607047 39.978437 
" style="fill: none; stroke: #1f77b4; stroke-width: 1.5; stroke-linecap: square"/>
    </g>
    <g id="text_28">
     <!-- Sampling Distribution -->
     <g transform="translate(578.607047 43.478437) scale(0.1 -0.1)">
      <use xlink:href="#DejaVuSans-53"/>
      <use xlink:href="#DejaVuSans-61" transform="translate(63.476562 0)"/>
      <use xlink:href="#DejaVuSans-6d" transform="translate(124.755859 0)"/>
      <use xlink:href="#DejaVuSans-70" transform="translate(222.167969 0)"/>
      <use xlink:href="#DejaVuSans-6c" transform="translate(285.644531 0)"/>
      <use xlink:href="#DejaVuSans-69" transform="translate(313.427734 0)"/>
      <use xlink:href="#DejaVuSans-6e" transform="translate(341.210938 0)"/>
      <use xlink:href="#DejaVuSans-67" transform="translate(404.589844 0)"/>
      <use xlink:href="#DejaVuSans-20" transform="translate(468.066406 0)"/>
      <use xlink:href="#DejaVuSans-44" transform="translate(499.853516 0)"/>
      <use xlink:href="#DejaVuSans-69" transform="translate(576.855469 0)"/>
      <use xlink:href="#DejaVuSans-73" transform="translate(604.638672 0)"/>
      <use xlink:href="#DejaVuSans-74" transform="translate(656.738281 0)"/>
      <use xlink:href="#DejaVuSans-72" transform="translate(695.947266 0)"/>
      <use xlink:href="#DejaVuSans-69" transform="translate(737.060547 0)"/>
      <use xlink:href="#DejaVuSans-62" transform="translate(764.84375 0)"/>
      <use xlink:href="#DejaVuSans-75" transform="translate(828.320312 0)"/>
      <use xlink:href="#DejaVuSans-74" transform="translate(891.699219 0)"/>
      <use xlink:href="#DejaVuSans-69" transform="translate(930.908203 0)"/>
      <use xlink:href="#DejaVuSans-6f" transform="translate(958.691406 0)"/>
      <use xlink:href="#DejaVuSans-6e" transform="translate(1019.873047 0)"/>
     </g>
    </g>
    <g id="patch_15">
     <path d="M 550.607047 58.156563 
L 570.607047 58.156563 
L 570.607047 51.156563 
L 550.607047 51.156563 
z
" style="fill: #ff0000; fill-opacity: 0.3; stroke: #ff0000; stroke-opacity: 0.3; stroke-linejoin: miter"/>
    </g>
    <g id="text_29">
     <!-- P(mean &lt; 98.0) = 0.0169 -->
     <g transform="translate(578.607047 58.156563) scale(0.1 -0.1)">
      <use xlink:href="#DejaVuSans-50"/>
      <use xlink:href="#DejaVuSans-28" transform="translate(60.302734 0)"/>
      <use xlink:href="#DejaVuSans-6d" transform="translate(99.316406 0)"/>
      <use xlink:href="#DejaVuSans-65" transform="translate(196.728516 0)"/>
      <use xlink:href="#DejaVuSans-61" transform="translate(258.251953 0)"/>
      <use xlink:href="#DejaVuSans-6e" transform="translate(319.53125 0)"/>
      <use xlink:href="#DejaVuSans-20" transform="translate(382.910156 0)"/>
      <use xlink:href="#DejaVuSans-3c" transform="translate(414.697266 0)"/>
      <use xlink:href="#DejaVuSans-20" transform="translate(498.486328 0)"/>
      <use xlink:href="#DejaVuSans-39" transform="translate(530.273438 0)"/>
      <use xlink:href="#DejaVuSans-38" transform="translate(593.896484 0)"/>
      <use xlink:href="#DejaVuSans-2e" transform="translate(657.519531 0)"/>
      <use xlink:href="#DejaVuSans-30" transform="translate(689.306641 0)"/>
      <use xlink:href="#DejaVuSans-29" transform="translate(752.929688 0)"/>
      <use xlink:href="#DejaVuSans-20" transform="translate(791.943359 0)"/>
      <use xlink:href="#DejaVuSans-3d" transform="translate(823.730469 0)"/>
      <use xlink:href="#DejaVuSans-20" transform="translate(907.519531 0)"/>
      <use xlink:href="#DejaVuSans-30" transform="translate(939.306641 0)"/>
      <use xlink:href="#DejaVuSans-2e" transform="translate(1002.929688 0)"/>
      <use xlink:href="#DejaVuSans-30" transform="translate(1034.716797 0)"/>
      <use xlink:href="#DejaVuSans-31" transform="translate(1098.339844 0)"/>
      <use xlink:href="#DejaVuSans-36" transform="translate(1161.962891 0)"/>
      <use xlink:href="#DejaVuSans-39" transform="translate(1225.585938 0)"/>
     </g>
    </g>
   </g>
  </g>
  <g id="axes_3">
   <g id="patch_16">
    <path d="M 737.633541 318.04 
L 1066.20913 318.04 
L 1066.20913 26.88 
L 737.633541 26.88 
z
" style="fill: #ffffff"/>
   </g>
   <g id="FillBetweenPolyCollection_3">
    <defs>
     <path id="m92839b56ef" d="M 752.568795 -55.194545 
L 752.568795 -55.28334 
L 753.044111 -55.287971 
L 753.519427 -55.292828 
L 753.994743 -55.29792 
L 754.470059 -55.303258 
L 754.945375 -55.308854 
L 755.420691 -55.314718 
L 755.896007 -55.320863 
L 756.371323 -55.3273 
L 756.846639 -55.334043 
L 757.321955 -55.341104 
L 757.797271 -55.348498 
L 758.272587 -55.356239 
L 758.747903 -55.364341 
L 759.223219 -55.37282 
L 759.698535 -55.381693 
L 760.173851 -55.390975 
L 760.649167 -55.400685 
L 761.124483 -55.410839 
L 761.599799 -55.421457 
L 762.075115 -55.432557 
L 762.550431 -55.44416 
L 763.025747 -55.456286 
L 763.501062 -55.468956 
L 763.976378 -55.482194 
L 764.451694 -55.496021 
L 764.92701 -55.510461 
L 765.402326 -55.52554 
L 765.877642 -55.541282 
L 766.352958 -55.557714 
L 766.828274 -55.574863 
L 767.30359 -55.592757 
L 767.778906 -55.611426 
L 768.254222 -55.630899 
L 768.729538 -55.651208 
L 769.204854 -55.672384 
L 769.68017 -55.694462 
L 770.155486 -55.717475 
L 770.630802 -55.741458 
L 771.106118 -55.766449 
L 771.581434 -55.792485 
L 772.05675 -55.819605 
L 772.532066 -55.847849 
L 773.007382 -55.877258 
L 773.482698 -55.907876 
L 773.958014 -55.939746 
L 774.433329 -55.972914 
L 774.908645 -56.007427 
L 775.383961 -56.043332 
L 775.859277 -56.080679 
L 776.334593 -56.11952 
L 776.809909 -56.159907 
L 777.285225 -56.201895 
L 777.760541 -56.245538 
L 778.235857 -56.290894 
L 778.711173 -56.338022 
L 779.186489 -56.386983 
L 779.661805 -56.437838 
L 780.137121 -56.490653 
L 780.612437 -56.545492 
L 781.087753 -56.602423 
L 781.563069 -56.661516 
L 782.038385 -56.722841 
L 782.513701 -56.786472 
L 782.989017 -56.852483 
L 783.464333 -56.920952 
L 783.939649 -56.991958 
L 784.414965 -57.06558 
L 784.890281 -57.141902 
L 785.365597 -57.22101 
L 785.840912 -57.302989 
L 786.316228 -57.387929 
L 786.791544 -57.475921 
L 787.26686 -57.567059 
L 787.742176 -57.661437 
L 788.217492 -57.759155 
L 788.692808 -57.860311 
L 789.168124 -57.965008 
L 789.64344 -58.07335 
L 790.118756 -58.185445 
L 790.594072 -58.301401 
L 791.069388 -58.421329 
L 791.544704 -58.545344 
L 792.02002 -58.673561 
L 792.495336 -58.806099 
L 792.970652 -58.943079 
L 793.445968 -59.084623 
L 793.921284 -59.230859 
L 794.3966 -59.381912 
L 794.871916 -59.537915 
L 795.347232 -59.699 
L 795.822548 -59.865302 
L 796.297864 -60.036959 
L 796.77318 -60.214112 
L 797.248495 -60.396902 
L 797.723811 -60.585474 
L 798.199127 -60.779977 
L 798.674443 -60.98056 
L 799.149759 -61.187374 
L 799.625075 -61.400576 
L 799.625075 -55.194545 
L 799.625075 -55.194545 
L 799.149759 -55.194545 
L 798.674443 -55.194545 
L 798.199127 -55.194545 
L 797.723811 -55.194545 
L 797.248495 -55.194545 
L 796.77318 -55.194545 
L 796.297864 -55.194545 
L 795.822548 -55.194545 
L 795.347232 -55.194545 
L 794.871916 -55.194545 
L 794.3966 -55.194545 
L 793.921284 -55.194545 
L 793.445968 -55.194545 
L 792.970652 -55.194545 
L 792.495336 -55.194545 
L 792.02002 -55.194545 
L 791.544704 -55.194545 
L 791.069388 -55.194545 
L 790.594072 -55.194545 
L 790.118756 -55.194545 
L 789.64344 -55.194545 
L 789.168124 -55.194545 
L 788.692808 -55.194545 
L 788.217492 -55.194545 
L 787.742176 -55.194545 
L 787.26686 -55.194545 
L 786.791544 -55.194545 
L 786.316228 -55.194545 
L 785.840912 -55.194545 
L 785.365597 -55.194545 
L 784.890281 -55.194545 
L 784.414965 -55.194545 
L 783.939649 -55.194545 
L 783.464333 -55.194545 
L 782.989017 -55.194545 
L 782.513701 -55.194545 
L 782.038385 -55.194545 
L 781.563069 -55.194545 
L 781.087753 -55.194545 
L 780.612437 -55.194545 
L 780.137121 -55.194545 
L 779.661805 -55.194545 
L 779.186489 -55.194545 
L 778.711173 -55.194545 
L 778.235857 -55.194545 
L 777.760541 -55.194545 
L 777.285225 -55.194545 
L 776.809909 -55.194545 
L 776.334593 -55.194545 
L 775.859277 -55.194545 
L 775.383961 -55.194545 
L 774.908645 -55.194545 
L 774.433329 -55.194545 
L 773.958014 -55.194545 
L 773.482698 -55.194545 
L 773.007382 -55.194545 
L 772.532066 -55.194545 
L 772.05675 -55.194545 
L 771.581434 -55.194545 
L 771.106118 -55.194545 
L 770.630802 -55.194545 
L 770.155486 -55.194545 
L 769.68017 -55.194545 
L 769.204854 -55.194545 
L 768.729538 -55.194545 
L 768.254222 -55.194545 
L 767.778906 -55.194545 
L 767.30359 -55.194545 
L 766.828274 -55.194545 
L 766.352958 -55.194545 
L 765.877642 -55.194545 
L 765.402326 -55.194545 
L 764.92701 -55.194545 
L 764.451694 -55.194545 
L 763.976378 -55.194545 
L 763.501062 -55.194545 
L 763.025747 -55.194545 
L 762.550431 -55.194545 
L 762.075115 -55.194545 
L 761.599799 -55.194545 
L 761.124483 -55.194545 
L 760.649167 -55.194545 
L 760.173851 -55.194545 
L 759.698535 -55.194545 
L 759.223219 -55.194545 
L 758.747903 -55.194545 
L 758.272587 -55.194545 
L 757.797271 -55.194545 
L 757.321955 -55.194545 
L 756.846639 -55.194545 
L 756.371323 -55.194545 
L 755.896007 -55.194545 
L 755.420691 -55.194545 
L 754.945375 -55.194545 
L 754.470059 -55.194545 
L 753.994743 -55.194545 
L 753.519427 -55.194545 
L 753.044111 -55.194545 
L 752.568795 -55.194545 
z
" style="stroke: #ff0000; stroke-opacity: 0.3"/>
    </defs>
    <g clip-path="url(#pf2bb03761c)">
     <use xlink:href="#m92839b56ef" x="0" y="360" style="fill: #ff0000; fill-opacity: 0.3; stroke: #ff0000; stroke-opacity: 0.3"/>
    </g>
   </g>
   <g id="matplotlib.axis_5">
    <g id="xtick_15">
     <g id="line2d_57">
      <path d="M 748.476945 318.04 
L 748.476945 26.88 
" clip-path="url(#pf2bb03761c)" style="fill: none; stroke: #b0b0b0; stroke-opacity: 0.3; stroke-width: 0.8; stroke-linecap: square"/>
     </g>
     <g id="line2d_58">
      <g>
       <use xlink:href="#mbc955c5d1a" x="748.476945" y="318.04" style="stroke: #000000; stroke-width: 0.8"/>
      </g>
     </g>
     <g id="text_30">
      <!-- 97.9 -->
      <g transform="translate(737.344133 332.638438) scale(0.1 -0.1)">
       <use xlink:href="#DejaVuSans-39"/>
       <use xlink:href="#DejaVuSans-37" transform="translate(63.623047 0)"/>
       <use xlink:href="#DejaVuSans-2e" transform="translate(127.246094 0)"/>
       <use xlink:href="#DejaVuSans-39" transform="translate(159.033203 0)"/>
      </g>
     </g>
    </g>
    <g id="xtick_16">
     <g id="line2d_59">
      <path d="M 799.625075 318.04 
L 799.625075 26.88 
" clip-path="url(#pf2bb03761c)" style="fill: none; stroke: #b0b0b0; stroke-opacity: 0.3; stroke-width: 0.8; stroke-linecap: square"/>
     </g>
     <g id="line2d_60">
      <g>
       <use xlink:href="#mbc955c5d1a" x="799.625075" y="318.04" style="stroke: #000000; stroke-width: 0.8"/>
      </g>
     </g>
     <g id="text_31">
      <!-- 98.0 -->
      <g transform="translate(788.492263 332.638438) scale(0.1 -0.1)">
       <use xlink:href="#DejaVuSans-39"/>
       <use xlink:href="#DejaVuSans-38" transform="translate(63.623047 0)"/>
       <use xlink:href="#DejaVuSans-2e" transform="translate(127.246094 0)"/>
       <use xlink:href="#DejaVuSans-30" transform="translate(159.033203 0)"/>
      </g>
     </g>
    </g>
    <g id="xtick_17">
     <g id="line2d_61">
      <path d="M 850.773206 318.04 
L 850.773206 26.88 
" clip-path="url(#pf2bb03761c)" style="fill: none; stroke: #b0b0b0; stroke-opacity: 0.3; stroke-width: 0.8; stroke-linecap: square"/>
     </g>
     <g id="line2d_62">
      <g>
       <use xlink:href="#mbc955c5d1a" x="850.773206" y="318.04" style="stroke: #000000; stroke-width: 0.8"/>
      </g>
     </g>
     <g id="text_32">
      <!-- 98.1 -->
      <g transform="translate(839.640393 332.638438) scale(0.1 -0.1)">
       <use xlink:href="#DejaVuSans-39"/>
       <use xlink:href="#DejaVuSans-38" transform="translate(63.623047 0)"/>
       <use xlink:href="#DejaVuSans-2e" transform="translate(127.246094 0)"/>
       <use xlink:href="#DejaVuSans-31" transform="translate(159.033203 0)"/>
      </g>
     </g>
    </g>
    <g id="xtick_18">
     <g id="line2d_63">
      <path d="M 901.921336 318.04 
L 901.921336 26.88 
" clip-path="url(#pf2bb03761c)" style="fill: none; stroke: #b0b0b0; stroke-opacity: 0.3; stroke-width: 0.8; stroke-linecap: square"/>
     </g>
     <g id="line2d_64">
      <g>
       <use xlink:href="#mbc955c5d1a" x="901.921336" y="318.04" style="stroke: #000000; stroke-width: 0.8"/>
      </g>
     </g>
     <g id="text_33">
      <!-- 98.2 -->
      <g transform="translate(890.788523 332.638438) scale(0.1 -0.1)">
       <use xlink:href="#DejaVuSans-39"/>
       <use xlink:href="#DejaVuSans-38" transform="translate(63.623047 0)"/>
       <use xlink:href="#DejaVuSans-2e" transform="translate(127.246094 0)"/>
       <use xlink:href="#DejaVuSans-32" transform="translate(159.033203 0)"/>
      </g>
     </g>
    </g>
    <g id="xtick_19">
     <g id="line2d_65">
      <path d="M 953.069466 318.04 
L 953.069466 26.88 
" clip-path="url(#pf2bb03761c)" style="fill: none; stroke: #b0b0b0; stroke-opacity: 0.3; stroke-width: 0.8; stroke-linecap: square"/>
     </g>
     <g id="line2d_66">
      <g>
       <use xlink:href="#mbc955c5d1a" x="953.069466" y="318.04" style="stroke: #000000; stroke-width: 0.8"/>
      </g>
     </g>
     <g id="text_34">
      <!-- 98.3 -->
      <g transform="translate(941.936653 332.638438) scale(0.1 -0.1)">
       <use xlink:href="#DejaVuSans-39"/>
       <use xlink:href="#DejaVuSans-38" transform="translate(63.623047 0)"/>
       <use xlink:href="#DejaVuSans-2e" transform="translate(127.246094 0)"/>
       <use xlink:href="#DejaVuSans-33" transform="translate(159.033203 0)"/>
      </g>
     </g>
    </g>
    <g id="xtick_20">
     <g id="line2d_67">
      <path d="M 1004.217596 318.04 
L 1004.217596 26.88 
" clip-path="url(#pf2bb03761c)" style="fill: none; stroke: #b0b0b0; stroke-opacity: 0.3; stroke-width: 0.8; stroke-linecap: square"/>
     </g>
     <g id="line2d_68">
      <g>
       <use xlink:href="#mbc955c5d1a" x="1004.217596" y="318.04" style="stroke: #000000; stroke-width: 0.8"/>
      </g>
     </g>
     <g id="text_35">
      <!-- 98.4 -->
      <g transform="translate(993.084784 332.638438) scale(0.1 -0.1)">
       <use xlink:href="#DejaVuSans-39"/>
       <use xlink:href="#DejaVuSans-38" transform="translate(63.623047 0)"/>
       <use xlink:href="#DejaVuSans-2e" transform="translate(127.246094 0)"/>
       <use xlink:href="#DejaVuSans-34" transform="translate(159.033203 0)"/>
      </g>
     </g>
    </g>
    <g id="xtick_21">
     <g id="line2d_69">
      <path d="M 1055.365726 318.04 
L 1055.365726 26.88 
" clip-path="url(#pf2bb03761c)" style="fill: none; stroke: #b0b0b0; stroke-opacity: 0.3; stroke-width: 0.8; stroke-linecap: square"/>
     </g>
     <g id="line2d_70">
      <g>
       <use xlink:href="#mbc955c5d1a" x="1055.365726" y="318.04" style="stroke: #000000; stroke-width: 0.8"/>
      </g>
     </g>
     <g id="text_36">
      <!-- 98.5 -->
      <g transform="translate(1044.232914 332.638438) scale(0.1 -0.1)">
       <use xlink:href="#DejaVuSans-39"/>
       <use xlink:href="#DejaVuSans-38" transform="translate(63.623047 0)"/>
       <use xlink:href="#DejaVuSans-2e" transform="translate(127.246094 0)"/>
       <use xlink:href="#DejaVuSans-35" transform="translate(159.033203 0)"/>
      </g>
     </g>
    </g>
    <g id="text_37">
     <!-- Sample Mean -->
     <g transform="translate(867.960398 346.316563) scale(0.1 -0.1)">
      <use xlink:href="#DejaVuSans-53"/>
      <use xlink:href="#DejaVuSans-61" transform="translate(63.476562 0)"/>
      <use xlink:href="#DejaVuSans-6d" transform="translate(124.755859 0)"/>
      <use xlink:href="#DejaVuSans-70" transform="translate(222.167969 0)"/>
      <use xlink:href="#DejaVuSans-6c" transform="translate(285.644531 0)"/>
      <use xlink:href="#DejaVuSans-65" transform="translate(313.427734 0)"/>
      <use xlink:href="#DejaVuSans-20" transform="translate(374.951172 0)"/>
      <use xlink:href="#DejaVuSans-4d" transform="translate(406.738281 0)"/>
      <use xlink:href="#DejaVuSans-65" transform="translate(493.017578 0)"/>
      <use xlink:href="#DejaVuSans-61" transform="translate(554.541016 0)"/>
      <use xlink:href="#DejaVuSans-6e" transform="translate(615.820312 0)"/>
     </g>
    </g>
   </g>
   <g id="matplotlib.axis_6">
    <g id="ytick_13">
     <g id="line2d_71">
      <path d="M 737.633541 304.805455 
L 1066.20913 304.805455 
" clip-path="url(#pf2bb03761c)" style="fill: none; stroke: #b0b0b0; stroke-opacity: 0.3; stroke-width: 0.8; stroke-linecap: square"/>
     </g>
     <g id="line2d_72">
      <g>
       <use xlink:href="#mc813abc18a" x="737.633541" y="304.805455" style="stroke: #000000; stroke-width: 0.8"/>
      </g>
     </g>
    </g>
    <g id="ytick_14">
     <g id="line2d_73">
      <path d="M 737.633541 256.370901 
L 1066.20913 256.370901 
" clip-path="url(#pf2bb03761c)" style="fill: none; stroke: #b0b0b0; stroke-opacity: 0.3; stroke-width: 0.8; stroke-linecap: square"/>
     </g>
     <g id="line2d_74">
      <g>
       <use xlink:href="#mc813abc18a" x="737.633541" y="256.370901" style="stroke: #000000; stroke-width: 0.8"/>
      </g>
     </g>
    </g>
    <g id="ytick_15">
     <g id="line2d_75">
      <path d="M 737.633541 207.936347 
L 1066.20913 207.936347 
" clip-path="url(#pf2bb03761c)" style="fill: none; stroke: #b0b0b0; stroke-opacity: 0.3; stroke-width: 0.8; stroke-linecap: square"/>
     </g>
     <g id="line2d_76">
      <g>
       <use xlink:href="#mc813abc18a" x="737.633541" y="207.936347" style="stroke: #000000; stroke-width: 0.8"/>
      </g>
     </g>
    </g>
    <g id="ytick_16">
     <g id="line2d_77">
      <path d="M 737.633541 159.501794 
L 1066.20913 159.501794 
" clip-path="url(#pf2bb03761c)" style="fill: none; stroke: #b0b0b0; stroke-opacity: 0.3; stroke-width: 0.8; stroke-linecap: square"/>
     </g>
     <g id="line2d_78">
      <g>
       <use xlink:href="#mc813abc18a" x="737.633541" y="159.501794" style="stroke: #000000; stroke-width: 0.8"/>
      </g>
     </g>
    </g>
    <g id="ytick_17">
     <g id="line2d_79">
      <path d="M 737.633541 111.06724 
L 1066.20913 111.06724 
" clip-path="url(#pf2bb03761c)" style="fill: none; stroke: #b0b0b0; stroke-opacity: 0.3; stroke-width: 0.8; stroke-linecap: square"/>
     </g>
     <g id="line2d_80">
      <g>
       <use xlink:href="#mc813abc18a" x="737.633541" y="111.06724" style="stroke: #000000; stroke-width: 0.8"/>
      </g>
     </g>
    </g>
    <g id="ytick_18">
     <g id="line2d_81">
      <path d="M 737.633541 62.632687 
L 1066.20913 62.632687 
" clip-path="url(#pf2bb03761c)" style="fill: none; stroke: #b0b0b0; stroke-opacity: 0.3; stroke-width: 0.8; stroke-linecap: square"/>
     </g>
     <g id="line2d_82">
      <g>
       <use xlink:href="#mc813abc18a" x="737.633541" y="62.632687" style="stroke: #000000; stroke-width: 0.8"/>
      </g>
     </g>
    </g>
   </g>
   <g id="line2d_83">
    <path d="M 752.568795 304.71666 
L 764.827963 304.4926 
L 772.602069 304.147894 
L 778.582151 303.67495 
L 783.66522 303.049352 
L 787.851277 302.316432 
L 791.738331 301.402939 
L 795.027375 300.409965 
L 798.017416 299.29509 
L 801.007457 297.941595 
L 803.698494 296.48712 
L 806.389531 294.776666 
L 809.080567 292.777142 
L 811.4726 290.728971 
L 813.864633 288.399511 
L 816.256665 285.762873 
L 818.648698 282.793024 
L 821.040731 279.464221 
L 823.432764 275.751513 
L 825.824796 271.631295 
L 828.216829 267.08192 
L 830.608862 262.084359 
L 833.299898 255.90695 
L 835.990935 249.126268 
L 838.681972 241.73379 
L 841.373009 233.729973 
L 844.363049 224.133126 
L 847.652094 212.757719 
L 851.240143 199.447749 
L 855.127196 184.112601 
L 859.911262 164.247835 
L 875.16047 100.067815 
L 878.449515 87.569567 
L 881.439556 77.085176 
L 883.831589 69.42382 
L 886.223621 62.501217 
L 888.31665 57.112452 
L 890.110674 53.028706 
L 891.904699 49.467789 
L 893.399719 46.91711 
L 894.89474 44.758195 
L 896.38976 43.001268 
L 897.585777 41.890844 
L 898.781793 41.046479 
L 899.977809 40.470763 
L 901.173826 40.165463 
L 902.369842 40.131519 
L 903.565858 40.369035 
L 904.761875 40.877281 
L 905.957891 41.654695 
L 907.153907 42.698891 
L 908.349924 44.006675 
L 909.844944 46.005919 
L 911.339964 48.401235 
L 912.834985 51.181319 
L 914.629009 55.006851 
L 916.423034 59.342016 
L 918.516062 65.005429 
L 920.908095 72.214738 
L 923.300128 80.13131 
L 925.991165 89.773333 
L 929.28021 102.430507 
L 933.167263 118.307022 
L 939.446348 145.064535 
L 947.220455 178.003351 
L 951.705516 195.986896 
L 955.293565 209.514343 
L 958.58261 221.113649 
L 961.572651 230.927702 
L 964.562691 240.007788 
L 967.552732 248.335167 
L 970.243769 255.183559 
L 972.934806 261.427326 
L 975.625843 267.08192 
L 978.017875 271.631295 
L 980.409908 275.751513 
L 982.801941 279.464221 
L 985.193973 282.793024 
L 987.586006 285.762873 
L 989.978039 288.399511 
L 992.370071 290.728971 
L 994.762104 292.777142 
L 997.453141 294.776666 
L 1000.144178 296.48712 
L 1002.835214 297.941595 
L 1005.825255 299.29509 
L 1008.815296 300.409965 
L 1012.104341 301.402939 
L 1015.69239 302.254869 
L 1019.878447 303.004301 
L 1024.662513 303.613682 
L 1030.34359 304.091047 
L 1037.220684 304.432669 
L 1046.489811 304.658425 
L 1051.273876 304.71666 
L 1051.273876 304.71666 
" clip-path="url(#pf2bb03761c)" style="fill: none; stroke: #1f77b4; stroke-width: 1.5; stroke-linecap: square"/>
   </g>
   <g id="patch_17">
    <path d="M 737.633541 318.04 
L 737.633541 26.88 
" style="fill: none; stroke: #000000; stroke-width: 0.8; stroke-linejoin: miter; stroke-linecap: square"/>
   </g>
   <g id="patch_18">
    <path d="M 1066.20913 318.04 
L 1066.20913 26.88 
" style="fill: none; stroke: #000000; stroke-width: 0.8; stroke-linejoin: miter; stroke-linecap: square"/>
   </g>
   <g id="patch_19">
    <path d="M 737.633541 318.04 
L 1066.20913 318.04 
" style="fill: none; stroke: #000000; stroke-width: 0.8; stroke-linejoin: miter; stroke-linecap: square"/>
   </g>
   <g id="patch_20">
    <path d="M 737.633541 26.88 
L 1066.20913 26.88 
" style="fill: none; stroke: #000000; stroke-width: 0.8; stroke-linejoin: miter; stroke-linecap: square"/>
   </g>
   <g id="text_38">
    <!-- n = 100 -->
    <g transform="translate(877.824773 20.88) scale(0.12 -0.12)">
     <use xlink:href="#DejaVuSans-6e"/>
     <use xlink:href="#DejaVuSans-20" transform="translate(63.378906 0)"/>
     <use xlink:href="#DejaVuSans-3d" transform="translate(95.166016 0)"/>
     <use xlink:href="#DejaVuSans-20" transform="translate(178.955078 0)"/>
     <use xlink:href="#DejaVuSans-31" transform="translate(210.742188 0)"/>
     <use xlink:href="#DejaVuSans-30" transform="translate(274.365234 0)"/>
     <use xlink:href="#DejaVuSans-30" transform="translate(337.988281 0)"/>
    </g>
   </g>
   <g id="legend_3">
    <g id="patch_21">
     <path d="M 821.461179 313.04 
L 982.381492 313.04 
Q 984.381492 313.04 984.381492 311.04 
L 984.381492 282.68375 
Q 984.381492 280.68375 982.381492 280.68375 
L 821.461179 280.68375 
Q 819.461179 280.68375 819.461179 282.68375 
L 819.461179 311.04 
Q 819.461179 313.04 821.461179 313.04 
z
" style="fill: #ffffff; opacity: 0.8; stroke: #cccccc; stroke-linejoin: miter"/>
    </g>
    <g id="line2d_84">
     <path d="M 823.461179 288.782188 
L 833.461179 288.782188 
L 843.461179 288.782188 
" style="fill: none; stroke: #1f77b4; stroke-width: 1.5; stroke-linecap: square"/>
    </g>
    <g id="text_39">
     <!-- Sampling Distribution -->
     <g transform="translate(851.461179 292.282188) scale(0.1 -0.1)">
      <use xlink:href="#DejaVuSans-53"/>
      <use xlink:href="#DejaVuSans-61" transform="translate(63.476562 0)"/>
      <use xlink:href="#DejaVuSans-6d" transform="translate(124.755859 0)"/>
      <use xlink:href="#DejaVuSans-70" transform="translate(222.167969 0)"/>
      <use xlink:href="#DejaVuSans-6c" transform="translate(285.644531 0)"/>
      <use xlink:href="#DejaVuSans-69" transform="translate(313.427734 0)"/>
      <use xlink:href="#DejaVuSans-6e" transform="translate(341.210938 0)"/>
      <use xlink:href="#DejaVuSans-67" transform="translate(404.589844 0)"/>
      <use xlink:href="#DejaVuSans-20" transform="translate(468.066406 0)"/>
      <use xlink:href="#DejaVuSans-44" transform="translate(499.853516 0)"/>
      <use xlink:href="#DejaVuSans-69" transform="translate(576.855469 0)"/>
      <use xlink:href="#DejaVuSans-73" transform="translate(604.638672 0)"/>
      <use xlink:href="#DejaVuSans-74" transform="translate(656.738281 0)"/>
      <use xlink:href="#DejaVuSans-72" transform="translate(695.947266 0)"/>
      <use xlink:href="#DejaVuSans-69" transform="translate(737.060547 0)"/>
      <use xlink:href="#DejaVuSans-62" transform="translate(764.84375 0)"/>
      <use xlink:href="#DejaVuSans-75" transform="translate(828.320312 0)"/>
      <use xlink:href="#DejaVuSans-74" transform="translate(891.699219 0)"/>
      <use xlink:href="#DejaVuSans-69" transform="translate(930.908203 0)"/>
      <use xlink:href="#DejaVuSans-6f" transform="translate(958.691406 0)"/>
      <use xlink:href="#DejaVuSans-6e" transform="translate(1019.873047 0)"/>
     </g>
    </g>
    <g id="patch_22">
     <path d="M 823.461179 306.960313 
L 843.461179 306.960313 
L 843.461179 299.960313 
L 823.461179 299.960313 
z
" style="fill: #ff0000; fill-opacity: 0.3; stroke: #ff0000; stroke-opacity: 0.3; stroke-linejoin: miter"/>
    </g>
    <g id="text_40">
     <!-- P(mean &lt; 98.0) = 0.0031 -->
     <g transform="translate(851.461179 306.960313) scale(0.1 -0.1)">
      <use xlink:href="#DejaVuSans-50"/>
      <use xlink:href="#DejaVuSans-28" transform="translate(60.302734 0)"/>
      <use xlink:href="#DejaVuSans-6d" transform="translate(99.316406 0)"/>
      <use xlink:href="#DejaVuSans-65" transform="translate(196.728516 0)"/>
      <use xlink:href="#DejaVuSans-61" transform="translate(258.251953 0)"/>
      <use xlink:href="#DejaVuSans-6e" transform="translate(319.53125 0)"/>
      <use xlink:href="#DejaVuSans-20" transform="translate(382.910156 0)"/>
      <use xlink:href="#DejaVuSans-3c" transform="translate(414.697266 0)"/>
      <use xlink:href="#DejaVuSans-20" transform="translate(498.486328 0)"/>
      <use xlink:href="#DejaVuSans-39" transform="translate(530.273438 0)"/>
      <use xlink:href="#DejaVuSans-38" transform="translate(593.896484 0)"/>
      <use xlink:href="#DejaVuSans-2e" transform="translate(657.519531 0)"/>
      <use xlink:href="#DejaVuSans-30" transform="translate(689.306641 0)"/>
      <use xlink:href="#DejaVuSans-29" transform="translate(752.929688 0)"/>
      <use xlink:href="#DejaVuSans-20" transform="translate(791.943359 0)"/>
      <use xlink:href="#DejaVuSans-3d" transform="translate(823.730469 0)"/>
      <use xlink:href="#DejaVuSans-20" transform="translate(907.519531 0)"/>
      <use xlink:href="#DejaVuSans-30" transform="translate(939.306641 0)"/>
      <use xlink:href="#DejaVuSans-2e" transform="translate(1002.929688 0)"/>
      <use xlink:href="#DejaVuSans-30" transform="translate(1034.716797 0)"/>
      <use xlink:href="#DejaVuSans-30" transform="translate(1098.339844 0)"/>
      <use xlink:href="#DejaVuSans-33" transform="translate(1161.962891 0)"/>
      <use xlink:href="#DejaVuSans-31" transform="translate(1225.585938 0)"/>
     </g>
    </g>
   </g>
  </g>
 </g>
 <defs>
  <clipPath id="p7533acf66d">
   <rect x="38.27" y="26.88" width="328.575589" height="291.16"/>
  </clipPath>
  <clipPath id="p70f34d6381">
   <rect x="387.951771" y="26.88" width="328.575589" height="291.16"/>
  </clipPath>
  <clipPath id="pf2bb03761c">
   <rect x="737.633541" y="26.88" width="328.575589" height="291.16"/>
  </clipPath>
 </defs>
</svg>
